  0
SECTION
  2
HEADER
  9
$ANGBASE
  50
0.0
  9
$ANGDIR
  70
1
  9
$MEASUREMENT
  70
0
  0
ENDSEC
  0
SECTION
  2
TABLES
  0
TABLE
  2
LTYPE
  70
4
  0
LTYPE
  5
40F
  2
CONTINUOUS
  70
0
  3
Solid line
  72
65
  73
0
  40
0.0
  0
LTYPE
  5
410
  2
DASHDOT
 70
0
  3
Dash Dot ____ _ ____ _
 72
65
 73
4
 40
2.0
 49
1.25
 49
-0.25
 49
0.25
 49
-0.25
  0
LTYPE
  5
411
  2
DASHED
 70
0
  3
Dashed __ __ __ __ __
 72
65
 73
2
 40
0.75
 49
0.5
 49
-0.25
  0
LTYPE
  5
43B
  2
DOTTED
 70
0
  3
Dotted .  .  .  .
 72
65
 73
2
 40
0.2
 49
0.0
 49
-0.2
  0
ENDTAB
  0
TABLE
  2
STYLE
  70
4
  0
STYLE
  2
KICAD
  70
0
  40
0
  41
1
  42
1
  50
0
  71
0
  3
isocp.shx
  0
STYLE
  2
KICADB
  70
0
  40
0
  41
1
  42
1
  50
0
  71
0
  3
isocp.shx
  0
STYLE
  2
KICADI
  70
0
  40
0
  41
1
  42
1
  50
15
  71
0
  3
isocp.shx
  0
STYLE
  2
KICADBI
  70
0
  40
0
  41
1
  42
1
  50
15
  71
0
  3
isocp.shx
  0
ENDTAB
  0
TABLE
  2
LAYER
  70
1
  0
LAYER
  2
BLACK
  70
0
  62
7
  6
CONTINUOUS
  0
ENDTAB
  0
ENDSEC
  0
SECTION
  2
ENTITIES
0
LINE
8
BLACK
6
CONTINUOUS
10
0.3622047244094488
20
0.387992125984252
11
0.6377952755905512
21
0.387992125984252
0
LINE
8
BLACK
6
CONTINUOUS
10
0.6377952755905512
20
0.387992125984252
11
0.6476377952755905
21
0.387992125984252
0
LINE
8
BLACK
6
CONTINUOUS
10
0.6476377952755905
20
0.387992125984252
11
0.6480144488188976
21
0.3879172047244094
0
LINE
8
BLACK
6
CONTINUOUS
10
0.6480144488188976
20
0.3879172047244094
11
0.6485471259842519
21
0.3873845275590551
0
LINE
8
BLACK
6
CONTINUOUS
10
0.6485471259842519
20
0.3873845275590551
11
0.6486220472440944
21
0.387007874015748
0
LINE
8
BLACK
6
CONTINUOUS
10
0.6486220472440944
20
0.387007874015748
11
0.6486220472440944
21
0.3771653543307086
0
LINE
8
BLACK
6
CONTINUOUS
10
0.6486220472440944
20
0.3771653543307086
11
0.6486220472440944
21
0.0228346456692913
0
LINE
8
BLACK
6
CONTINUOUS
10
0.6486220472440944
20
0.0228346456692913
11
0.6486220472440944
21
0.012992125984252
0
LINE
8
BLACK
6
CONTINUOUS
10
0.6486220472440944
20
0.012992125984252
11
0.6485471259842519
21
0.0126154724409449
0
LINE
8
BLACK
6
CONTINUOUS
10
0.6485471259842519
20
0.0126154724409449
11
0.6480144488188976
21
0.0120827952755906
0
LINE
8
BLACK
6
CONTINUOUS
10
0.6480144488188976
20
0.0120827952755906
11
0.6476377952755905
21
0.012007874015748
0
LINE
8
BLACK
6
CONTINUOUS
10
0.6476377952755905
20
0.012007874015748
11
0.6377952755905512
21
0.012007874015748
0
LINE
8
BLACK
6
CONTINUOUS
10
0.6377952755905512
20
0.012007874015748
11
0.3622047244094488
21
0.012007874015748
0
LINE
8
BLACK
6
CONTINUOUS
10
0.3622047244094488
20
0.012007874015748
11
0.3523622047244094
21
0.012007874015748
0
LINE
8
BLACK
6
CONTINUOUS
10
0.3523622047244094
20
0.012007874015748
11
0.3519855511811024
21
0.0120827952755906
0
LINE
8
BLACK
6
CONTINUOUS
10
0.3519855511811024
20
0.0120827952755906
11
0.351452874015748
21
0.0126154724409449
0
LINE
8
BLACK
6
CONTINUOUS
10
0.351452874015748
20
0.0126154724409449
11
0.3513779527559055
21
0.012992125984252
0
LINE
8
BLACK
6
CONTINUOUS
10
0.3513779527559055
20
0.012992125984252
11
0.3513779527559055
21
0.0228346456692913
0
LINE
8
BLACK
6
CONTINUOUS
10
0.3513779527559055
20
0.0228346456692913
11
0.3513779527559055
21
0.3771653543307086
0
LINE
8
BLACK
6
CONTINUOUS
10
0.3513779527559055
20
0.3771653543307086
11
0.3513779527559055
21
0.387007874015748
0
LINE
8
BLACK
6
CONTINUOUS
10
0.3513779527559055
20
0.387007874015748
11
0.351452874015748
21
0.3873845275590551
0
LINE
8
BLACK
6
CONTINUOUS
10
0.351452874015748
20
0.3873845275590551
11
0.3519855511811024
21
0.3879172047244094
0
LINE
8
BLACK
6
CONTINUOUS
10
0.3519855511811024
20
0.3879172047244094
11
0.3523622047244094
21
0.387992125984252
0
LINE
8
BLACK
6
CONTINUOUS
10
0.3523622047244094
20
0.387992125984252
11
0.3622047244094488
21
0.387992125984252
0
LINE
8
BLACK
6
CONTINUOUS
10
0.3533464566929134
20
0.3860236220472441
11
0.3533464566929134
21
0.3771653543307086
0
LINE
8
BLACK
6
CONTINUOUS
10
0.3533464566929134
20
0.3771653543307086
11
0.3533464566929134
21
0.0228346456692913
0
LINE
8
BLACK
6
CONTINUOUS
10
0.3533464566929134
20
0.0228346456692913
11
0.3533464566929134
21
0.0139763779527559
0
LINE
8
BLACK
6
CONTINUOUS
10
0.3533464566929134
20
0.0139763779527559
11
0.3622047244094488
21
0.0139763779527559
0
LINE
8
BLACK
6
CONTINUOUS
10
0.3622047244094488
20
0.0139763779527559
11
0.6377952755905512
21
0.0139763779527559
0
LINE
8
BLACK
6
CONTINUOUS
10
0.6377952755905512
20
0.0139763779527559
11
0.6466535433070866
21
0.0139763779527559
0
LINE
8
BLACK
6
CONTINUOUS
10
0.6466535433070866
20
0.0139763779527559
11
0.6466535433070866
21
0.0228346456692913
0
LINE
8
BLACK
6
CONTINUOUS
10
0.6466535433070866
20
0.0228346456692913
11
0.6466535433070866
21
0.3771653543307086
0
LINE
8
BLACK
6
CONTINUOUS
10
0.6466535433070866
20
0.3771653543307086
11
0.6466535433070866
21
0.3860236220472441
0
LINE
8
BLACK
6
CONTINUOUS
10
0.6466535433070866
20
0.3860236220472441
11
0.6377952755905512
21
0.3860236220472441
0
LINE
8
BLACK
6
CONTINUOUS
10
0.6377952755905512
20
0.3860236220472441
11
0.3622047244094488
21
0.3860236220472441
0
LINE
8
BLACK
6
CONTINUOUS
10
0.3622047244094488
20
0.3860236220472441
11
0.3533464566929134
21
0.3860236220472441
0
LINE
8
BLACK
6
CONTINUOUS
10
0.6622047244094488
20
0.387992125984252
11
0.9377952755905512
21
0.387992125984252
0
LINE
8
BLACK
6
CONTINUOUS
10
0.9377952755905512
20
0.387992125984252
11
0.9476377952755906
21
0.387992125984252
0
LINE
8
BLACK
6
CONTINUOUS
10
0.9476377952755906
20
0.387992125984252
11
0.9480144488188976
21
0.3879172047244094
0
LINE
8
BLACK
6
CONTINUOUS
10
0.9480144488188976
20
0.3879172047244094
11
0.9485471259842519
21
0.3873845275590551
0
LINE
8
BLACK
6
CONTINUOUS
10
0.9485471259842519
20
0.3873845275590551
11
0.9486220472440945
21
0.387007874015748
0
LINE
8
BLACK
6
CONTINUOUS
10
0.9486220472440945
20
0.387007874015748
11
0.9486220472440945
21
0.3771653543307086
0
LINE
8
BLACK
6
CONTINUOUS
10
0.9486220472440945
20
0.3771653543307086
11
0.9486220472440945
21
0.0228346456692913
0
LINE
8
BLACK
6
CONTINUOUS
10
0.9486220472440945
20
0.0228346456692913
11
0.9486220472440945
21
0.012992125984252
0
LINE
8
BLACK
6
CONTINUOUS
10
0.9486220472440945
20
0.012992125984252
11
0.9485471259842519
21
0.0126154724409449
0
LINE
8
BLACK
6
CONTINUOUS
10
0.9485471259842519
20
0.0126154724409449
11
0.9480144488188976
21
0.0120827952755906
0
LINE
8
BLACK
6
CONTINUOUS
10
0.9480144488188976
20
0.0120827952755906
11
0.9476377952755906
21
0.012007874015748
0
LINE
8
BLACK
6
CONTINUOUS
10
0.9476377952755906
20
0.012007874015748
11
0.9377952755905512
21
0.012007874015748
0
LINE
8
BLACK
6
CONTINUOUS
10
0.9377952755905512
20
0.012007874015748
11
0.6622047244094488
21
0.012007874015748
0
LINE
8
BLACK
6
CONTINUOUS
10
0.6622047244094488
20
0.012007874015748
11
0.6523622047244094
21
0.012007874015748
0
LINE
8
BLACK
6
CONTINUOUS
10
0.6523622047244094
20
0.012007874015748
11
0.6519855511811024
21
0.0120827952755906
0
LINE
8
BLACK
6
CONTINUOUS
10
0.6519855511811024
20
0.0120827952755906
11
0.651452874015748
21
0.0126154724409449
0
LINE
8
BLACK
6
CONTINUOUS
10
0.651452874015748
20
0.0126154724409449
11
0.6513779527559055
21
0.012992125984252
0
LINE
8
BLACK
6
CONTINUOUS
10
0.6513779527559055
20
0.012992125984252
11
0.6513779527559055
21
0.0228346456692913
0
LINE
8
BLACK
6
CONTINUOUS
10
0.6513779527559055
20
0.0228346456692913
11
0.6513779527559055
21
0.3771653543307086
0
LINE
8
BLACK
6
CONTINUOUS
10
0.6513779527559055
20
0.3771653543307086
11
0.6513779527559055
21
0.387007874015748
0
LINE
8
BLACK
6
CONTINUOUS
10
0.6513779527559055
20
0.387007874015748
11
0.651452874015748
21
0.3873845275590551
0
LINE
8
BLACK
6
CONTINUOUS
10
0.651452874015748
20
0.3873845275590551
11
0.6519855511811024
21
0.3879172047244094
0
LINE
8
BLACK
6
CONTINUOUS
10
0.6519855511811024
20
0.3879172047244094
11
0.6523622047244094
21
0.387992125984252
0
LINE
8
BLACK
6
CONTINUOUS
10
0.6523622047244094
20
0.387992125984252
11
0.6622047244094488
21
0.387992125984252
0
LINE
8
BLACK
6
CONTINUOUS
10
0.6533464566929134
20
0.3860236220472441
11
0.6533464566929134
21
0.3771653543307086
0
LINE
8
BLACK
6
CONTINUOUS
10
0.6533464566929134
20
0.3771653543307086
11
0.6533464566929134
21
0.0228346456692913
0
LINE
8
BLACK
6
CONTINUOUS
10
0.6533464566929134
20
0.0228346456692913
11
0.6533464566929134
21
0.0139763779527559
0
LINE
8
BLACK
6
CONTINUOUS
10
0.6533464566929134
20
0.0139763779527559
11
0.6622047244094488
21
0.0139763779527559
0
LINE
8
BLACK
6
CONTINUOUS
10
0.6622047244094488
20
0.0139763779527559
11
0.9377952755905512
21
0.0139763779527559
0
LINE
8
BLACK
6
CONTINUOUS
10
0.9377952755905512
20
0.0139763779527559
11
0.9466535433070866
21
0.0139763779527559
0
LINE
8
BLACK
6
CONTINUOUS
10
0.9466535433070866
20
0.0139763779527559
11
0.9466535433070866
21
0.0228346456692913
0
LINE
8
BLACK
6
CONTINUOUS
10
0.9466535433070866
20
0.0228346456692913
11
0.9466535433070866
21
0.3771653543307086
0
LINE
8
BLACK
6
CONTINUOUS
10
0.9466535433070866
20
0.3771653543307086
11
0.9466535433070866
21
0.3860236220472441
0
LINE
8
BLACK
6
CONTINUOUS
10
0.9466535433070866
20
0.3860236220472441
11
0.9377952755905512
21
0.3860236220472441
0
LINE
8
BLACK
6
CONTINUOUS
10
0.9377952755905512
20
0.3860236220472441
11
0.6622047244094488
21
0.3860236220472441
0
LINE
8
BLACK
6
CONTINUOUS
10
0.6622047244094488
20
0.3860236220472441
11
0.6533464566929134
21
0.3860236220472441
0
LINE
8
BLACK
6
CONTINUOUS
10
1.6212427952755906
20
0.1717754724409449
11
1.6217754724409448
21
0.1712427952755906
0
LINE
8
BLACK
6
CONTINUOUS
10
1.6217754724409448
20
0.1712427952755906
11
1.6218503937007873
21
0.1708661417322835
0
LINE
8
BLACK
6
CONTINUOUS
10
1.6218503937007873
20
0.1708661417322835
11
1.6218503937007873
21
0.0291338582677165
0
LINE
8
BLACK
6
CONTINUOUS
10
1.6218503937007873
20
0.0291338582677165
11
1.6217754724409448
21
0.0287572047244094
0
LINE
8
BLACK
6
CONTINUOUS
10
1.6217754724409448
20
0.0287572047244094
11
1.6212427952755906
21
0.0282245275590551
0
LINE
8
BLACK
6
CONTINUOUS
10
1.6212427952755906
20
0.0282245275590551
11
1.6208661417322834
21
0.0281496062992126
0
LINE
8
BLACK
6
CONTINUOUS
10
1.6208661417322834
20
0.0281496062992126
11
0.9791338582677165
21
0.0281496062992126
0
LINE
8
BLACK
6
CONTINUOUS
10
0.9791338582677165
20
0.0281496062992126
11
0.9787572047244094
21
0.0282245275590551
0
LINE
8
BLACK
6
CONTINUOUS
10
0.9787572047244094
20
0.0282245275590551
11
0.9782245275590551
21
0.0287572047244094
0
LINE
8
BLACK
6
CONTINUOUS
10
0.9782245275590551
20
0.0287572047244094
11
0.9781496062992125
21
0.0291338582677165
0
LINE
8
BLACK
6
CONTINUOUS
10
0.9781496062992125
20
0.0291338582677165
11
0.9781496062992125
21
0.1708661417322835
0
LINE
8
BLACK
6
CONTINUOUS
10
0.9781496062992125
20
0.1708661417322835
11
0.9782245275590551
21
0.1712427952755906
0
LINE
8
BLACK
6
CONTINUOUS
10
0.9782245275590551
20
0.1712427952755906
11
0.9787572047244094
21
0.1717754724409449
0
LINE
8
BLACK
6
CONTINUOUS
10
0.9787572047244094
20
0.1717754724409449
11
0.9791338582677165
21
0.1718503937007874
0
LINE
8
BLACK
6
CONTINUOUS
10
0.9791338582677165
20
0.1718503937007874
11
1.6208661417322834
21
0.1718503937007874
0
LINE
8
BLACK
6
CONTINUOUS
10
1.6208661417322834
20
0.1718503937007874
11
1.6212427952755906
21
0.1717754724409449
0
LINE
8
BLACK
6
CONTINUOUS
10
0.9801181102362204
20
0.1698818897637795
11
0.9801181102362204
21
0.0301181102362205
0
LINE
8
BLACK
6
CONTINUOUS
10
0.9801181102362204
20
0.0301181102362205
11
1.6198818897637794
21
0.0301181102362205
0
LINE
8
BLACK
6
CONTINUOUS
10
1.6198818897637794
20
0.0301181102362205
11
1.6198818897637794
21
0.1698818897637795
0
LINE
8
BLACK
6
CONTINUOUS
10
1.6198818897637794
20
0.1698818897637795
11
0.9801181102362204
21
0.1698818897637795
0
LINE
8
BLACK
6
CONTINUOUS
10
0.2135547637795276
20
0.3203017716535433
11
0.2269390551181102
21
0.3180276771653543
0
LINE
8
BLACK
6
CONTINUOUS
10
0.2269390551181102
20
0.3180276771653543
11
0.2399845669291339
21
0.3142693307086614
0
LINE
8
BLACK
6
CONTINUOUS
10
0.2399845669291339
20
0.3142693307086614
11
0.2525272440944882
21
0.3090739763779528
0
LINE
8
BLACK
6
CONTINUOUS
10
0.2525272440944882
20
0.3090739763779528
11
0.2644094094488189
21
0.302506968503937
0
LINE
8
BLACK
6
CONTINUOUS
10
0.2644094094488189
20
0.302506968503937
11
0.2754815354330709
21
0.2946508661417323
0
LINE
8
BLACK
6
CONTINUOUS
10
0.2754815354330709
20
0.2946508661417323
11
0.2856044488188976
21
0.2856044488188976
0
LINE
8
BLACK
6
CONTINUOUS
10
0.2856044488188976
20
0.2856044488188976
11
0.2946508661417323
21
0.2754815354330709
0
LINE
8
BLACK
6
CONTINUOUS
10
0.2946508661417323
20
0.2754815354330709
11
0.302506968503937
21
0.2644094094488189
0
LINE
8
BLACK
6
CONTINUOUS
10
0.302506968503937
20
0.2644094094488189
11
0.3090739763779528
21
0.2525272440944882
0
LINE
8
BLACK
6
CONTINUOUS
10
0.3090739763779528
20
0.2525272440944882
11
0.3142693307086614
21
0.2399845669291339
0
LINE
8
BLACK
6
CONTINUOUS
10
0.3142693307086614
20
0.2399845669291339
11
0.3180276771653543
21
0.2269390551181102
0
LINE
8
BLACK
6
CONTINUOUS
10
0.3180276771653543
20
0.2269390551181102
11
0.3203017716535433
21
0.2135547637795276
0
LINE
8
BLACK
6
CONTINUOUS
10
0.3203017716535433
20
0.2135547637795276
11
0.3210629921259843
21
0.2
0
LINE
8
BLACK
6
CONTINUOUS
10
0.3210629921259843
20
0.2
11
0.3203017716535433
21
0.1864452362204724
0
LINE
8
BLACK
6
CONTINUOUS
10
0.3203017716535433
20
0.1864452362204724
11
0.3180276771653543
21
0.1730609448818898
0
LINE
8
BLACK
6
CONTINUOUS
10
0.3180276771653543
20
0.1730609448818898
11
0.3142693307086614
21
0.1600154330708661
0
LINE
8
BLACK
6
CONTINUOUS
10
0.3142693307086614
20
0.1600154330708661
11
0.3090739763779528
21
0.1474727559055118
0
LINE
8
BLACK
6
CONTINUOUS
10
0.3090739763779528
20
0.1474727559055118
11
0.302506968503937
21
0.1355905905511811
0
LINE
8
BLACK
6
CONTINUOUS
10
0.302506968503937
20
0.1355905905511811
11
0.2946508661417323
21
0.1245184645669291
0
LINE
8
BLACK
6
CONTINUOUS
10
0.2946508661417323
20
0.1245184645669291
11
0.2856044488188976
21
0.1143955511811024
0
LINE
8
BLACK
6
CONTINUOUS
10
0.2856044488188976
20
0.1143955511811024
11
0.2754815354330709
21
0.1053491338582677
0
LINE
8
BLACK
6
CONTINUOUS
10
0.2754815354330709
20
0.1053491338582677
11
0.2644094094488189
21
0.097493031496063
0
LINE
8
BLACK
6
CONTINUOUS
10
0.2644094094488189
20
0.097493031496063
11
0.2525272440944882
21
0.0909260236220472
0
LINE
8
BLACK
6
CONTINUOUS
10
0.2525272440944882
20
0.0909260236220472
11
0.2399845669291339
21
0.0857306692913386
0
LINE
8
BLACK
6
CONTINUOUS
10
0.2399845669291339
20
0.0857306692913386
11
0.2269390551181102
21
0.0819723228346457
0
LINE
8
BLACK
6
CONTINUOUS
10
0.2269390551181102
20
0.0819723228346457
11
0.2135547637795276
21
0.0796982283464567
0
LINE
8
BLACK
6
CONTINUOUS
10
0.2135547637795276
20
0.0796982283464567
11
0.2
21
0.0789370078740158
0
LINE
8
BLACK
6
CONTINUOUS
10
0.2
20
0.0789370078740158
11
0.1864452362204724
21
0.0796982283464567
0
LINE
8
BLACK
6
CONTINUOUS
10
0.1864452362204724
20
0.0796982283464567
11
0.1730609448818898
21
0.0819723228346457
0
LINE
8
BLACK
6
CONTINUOUS
10
0.1730609448818898
20
0.0819723228346457
11
0.1600154330708661
21
0.0857306692913386
0
LINE
8
BLACK
6
CONTINUOUS
10
0.1600154330708661
20
0.0857306692913386
11
0.1474727559055118
21
0.0909260236220472
0
LINE
8
BLACK
6
CONTINUOUS
10
0.1474727559055118
20
0.0909260236220472
11
0.1355905905511811
21
0.097493031496063
0
LINE
8
BLACK
6
CONTINUOUS
10
0.1355905905511811
20
0.097493031496063
11
0.1245184645669291
21
0.1053491338582677
0
LINE
8
BLACK
6
CONTINUOUS
10
0.1245184645669291
20
0.1053491338582677
11
0.1143955511811024
21
0.1143955511811024
0
LINE
8
BLACK
6
CONTINUOUS
10
0.1143955511811024
20
0.1143955511811024
11
0.1053491338582677
21
0.1245184645669291
0
LINE
8
BLACK
6
CONTINUOUS
10
0.1053491338582677
20
0.1245184645669291
11
0.097493031496063
21
0.1355905905511811
0
LINE
8
BLACK
6
CONTINUOUS
10
0.097493031496063
20
0.1355905905511811
11
0.0909260236220472
21
0.1474727559055118
0
LINE
8
BLACK
6
CONTINUOUS
10
0.0909260236220472
20
0.1474727559055118
11
0.0857306692913386
21
0.1600154330708661
0
LINE
8
BLACK
6
CONTINUOUS
10
0.0857306692913386
20
0.1600154330708661
11
0.0819723228346457
21
0.1730609448818898
0
LINE
8
BLACK
6
CONTINUOUS
10
0.0819723228346457
20
0.1730609448818898
11
0.0796982283464567
21
0.1864452362204724
0
LINE
8
BLACK
6
CONTINUOUS
10
0.0796982283464567
20
0.1864452362204724
11
0.0789370078740158
21
0.2
0
LINE
8
BLACK
6
CONTINUOUS
10
0.0789370078740158
20
0.2
11
0.0796982283464567
21
0.2135547637795276
0
LINE
8
BLACK
6
CONTINUOUS
10
0.0796982283464567
20
0.2135547637795276
11
0.0819723228346457
21
0.2269390551181102
0
LINE
8
BLACK
6
CONTINUOUS
10
0.0819723228346457
20
0.2269390551181102
11
0.0857306692913386
21
0.2399845669291339
0
LINE
8
BLACK
6
CONTINUOUS
10
0.0857306692913386
20
0.2399845669291339
11
0.0909260236220472
21
0.2525272440944882
0
LINE
8
BLACK
6
CONTINUOUS
10
0.0909260236220472
20
0.2525272440944882
11
0.097493031496063
21
0.2644094094488189
0
LINE
8
BLACK
6
CONTINUOUS
10
0.097493031496063
20
0.2644094094488189
11
0.1053491338582677
21
0.2754815354330709
0
LINE
8
BLACK
6
CONTINUOUS
10
0.1053491338582677
20
0.2754815354330709
11
0.1143955511811024
21
0.2856044488188976
0
LINE
8
BLACK
6
CONTINUOUS
10
0.1143955511811024
20
0.2856044488188976
11
0.1245184645669291
21
0.2946508661417323
0
LINE
8
BLACK
6
CONTINUOUS
10
0.1245184645669291
20
0.2946508661417323
11
0.1355905905511811
21
0.302506968503937
0
LINE
8
BLACK
6
CONTINUOUS
10
0.1355905905511811
20
0.302506968503937
11
0.1474727559055118
21
0.3090739763779528
0
LINE
8
BLACK
6
CONTINUOUS
10
0.1474727559055118
20
0.3090739763779528
11
0.1600154330708661
21
0.3142693307086614
0
LINE
8
BLACK
6
CONTINUOUS
10
0.1600154330708661
20
0.3142693307086614
11
0.1730609448818898
21
0.3180276771653543
0
LINE
8
BLACK
6
CONTINUOUS
10
0.1730609448818898
20
0.3180276771653543
11
0.1864452362204724
21
0.3203017716535433
0
LINE
8
BLACK
6
CONTINUOUS
10
0.1864452362204724
20
0.3203017716535433
11
0.2
21
0.3210629921259843
0
LINE
8
BLACK
6
CONTINUOUS
10
0.2
20
0.3210629921259843
11
0.2135547637795276
21
0.3203017716535433
0
LINE
8
BLACK
6
CONTINUOUS
10
0.0814679133858268
20
0.1866446456692913
11
0.0837085433070866
21
0.1734572440944882
0
LINE
8
BLACK
6
CONTINUOUS
10
0.0837085433070866
20
0.1734572440944882
11
0.0874115748031496
21
0.1606036220472441
0
LINE
8
BLACK
6
CONTINUOUS
10
0.0874115748031496
20
0.1606036220472441
11
0.0925305118110236
21
0.1482454330708661
0
LINE
8
BLACK
6
CONTINUOUS
10
0.0925305118110236
20
0.1482454330708661
11
0.0990009448818898
21
0.1365380708661417
0
LINE
8
BLACK
6
CONTINUOUS
10
0.0990009448818898
20
0.1365380708661417
11
0.1067414960629921
21
0.1256288188976378
0
LINE
8
BLACK
6
CONTINUOUS
10
0.1067414960629921
20
0.1256288188976378
11
0.1156548031496063
21
0.1156548031496063
0
LINE
8
BLACK
6
CONTINUOUS
10
0.1156548031496063
20
0.1156548031496063
11
0.1256288188976378
21
0.1067414960629921
0
LINE
8
BLACK
6
CONTINUOUS
10
0.1256288188976378
20
0.1067414960629921
11
0.1365380708661417
21
0.0990009448818898
0
LINE
8
BLACK
6
CONTINUOUS
10
0.1365380708661417
20
0.0990009448818898
11
0.1482454330708661
21
0.0925305118110236
0
LINE
8
BLACK
6
CONTINUOUS
10
0.1482454330708661
20
0.0925305118110236
11
0.1606036220472441
21
0.0874115748031496
0
LINE
8
BLACK
6
CONTINUOUS
10
0.1606036220472441
20
0.0874115748031496
11
0.1734572440944882
21
0.0837085433070866
0
LINE
8
BLACK
6
CONTINUOUS
10
0.1734572440944882
20
0.0837085433070866
11
0.1866446456692913
21
0.0814679133858268
0
LINE
8
BLACK
6
CONTINUOUS
10
0.1866446456692913
20
0.0814679133858268
11
0.2
21
0.080717874015748
0
LINE
8
BLACK
6
CONTINUOUS
10
0.2
20
0.080717874015748
11
0.2133553543307087
21
0.0814679133858268
0
LINE
8
BLACK
6
CONTINUOUS
10
0.2133553543307087
20
0.0814679133858268
11
0.2265427559055118
21
0.0837085433070866
0
LINE
8
BLACK
6
CONTINUOUS
10
0.2265427559055118
20
0.0837085433070866
11
0.2393963779527559
21
0.0874115748031496
0
LINE
8
BLACK
6
CONTINUOUS
10
0.2393963779527559
20
0.0874115748031496
11
0.2517545669291338
21
0.0925305118110236
0
LINE
8
BLACK
6
CONTINUOUS
10
0.2517545669291338
20
0.0925305118110236
11
0.2634619291338582
21
0.0990009448818898
0
LINE
8
BLACK
6
CONTINUOUS
10
0.2634619291338582
20
0.0990009448818898
11
0.2743711811023622
21
0.1067414960629921
0
LINE
8
BLACK
6
CONTINUOUS
10
0.2743711811023622
20
0.1067414960629921
11
0.2843451968503937
21
0.1156548031496063
0
LINE
8
BLACK
6
CONTINUOUS
10
0.2843451968503937
20
0.1156548031496063
11
0.2932585039370079
21
0.1256288188976378
0
LINE
8
BLACK
6
CONTINUOUS
10
0.2932585039370079
20
0.1256288188976378
11
0.3009990551181102
21
0.1365380708661417
0
LINE
8
BLACK
6
CONTINUOUS
10
0.3009990551181102
20
0.1365380708661417
11
0.3074694881889763
21
0.1482454330708661
0
LINE
8
BLACK
6
CONTINUOUS
10
0.3074694881889763
20
0.1482454330708661
11
0.3125884251968504
21
0.1606036220472441
0
LINE
8
BLACK
6
CONTINUOUS
10
0.3125884251968504
20
0.1606036220472441
11
0.3162914566929134
21
0.1734572440944882
0
LINE
8
BLACK
6
CONTINUOUS
10
0.3162914566929134
20
0.1734572440944882
11
0.3185320866141732
21
0.1866446456692913
0
LINE
8
BLACK
6
CONTINUOUS
10
0.3185320866141732
20
0.1866446456692913
11
0.319282125984252
21
0.2
0
LINE
8
BLACK
6
CONTINUOUS
10
0.319282125984252
20
0.2
11
0.3185320866141732
21
0.2133553543307087
0
LINE
8
BLACK
6
CONTINUOUS
10
0.3185320866141732
20
0.2133553543307087
11
0.3162914566929134
21
0.2265427559055118
0
LINE
8
BLACK
6
CONTINUOUS
10
0.3162914566929134
20
0.2265427559055118
11
0.3125884251968504
21
0.2393963779527559
0
LINE
8
BLACK
6
CONTINUOUS
10
0.3125884251968504
20
0.2393963779527559
11
0.3074694881889763
21
0.2517545669291338
0
LINE
8
BLACK
6
CONTINUOUS
10
0.3074694881889763
20
0.2517545669291338
11
0.3009990551181102
21
0.2634619291338582
0
LINE
8
BLACK
6
CONTINUOUS
10
0.3009990551181102
20
0.2634619291338582
11
0.2932585039370079
21
0.2743711811023622
0
LINE
8
BLACK
6
CONTINUOUS
10
0.2932585039370079
20
0.2743711811023622
11
0.2843451968503937
21
0.2843451968503937
0
LINE
8
BLACK
6
CONTINUOUS
10
0.2843451968503937
20
0.2843451968503937
11
0.2743711811023622
21
0.2932585039370079
0
LINE
8
BLACK
6
CONTINUOUS
10
0.2743711811023622
20
0.2932585039370079
11
0.2634619291338582
21
0.3009990551181102
0
LINE
8
BLACK
6
CONTINUOUS
10
0.2634619291338582
20
0.3009990551181102
11
0.2517545669291338
21
0.3074694881889763
0
LINE
8
BLACK
6
CONTINUOUS
10
0.2517545669291338
20
0.3074694881889763
11
0.2393963779527559
21
0.3125884251968504
0
LINE
8
BLACK
6
CONTINUOUS
10
0.2393963779527559
20
0.3125884251968504
11
0.2265427559055118
21
0.3162914566929134
0
LINE
8
BLACK
6
CONTINUOUS
10
0.2265427559055118
20
0.3162914566929134
11
0.2133553543307087
21
0.3185320866141732
0
LINE
8
BLACK
6
CONTINUOUS
10
0.2133553543307087
20
0.3185320866141732
11
0.2
21
0.319282125984252
0
LINE
8
BLACK
6
CONTINUOUS
10
0.2
20
0.319282125984252
11
0.1866446456692913
21
0.3185320866141732
0
LINE
8
BLACK
6
CONTINUOUS
10
0.1866446456692913
20
0.3185320866141732
11
0.1734572440944882
21
0.3162914566929134
0
LINE
8
BLACK
6
CONTINUOUS
10
0.1734572440944882
20
0.3162914566929134
11
0.1606036220472441
21
0.3125884251968504
0
LINE
8
BLACK
6
CONTINUOUS
10
0.1606036220472441
20
0.3125884251968504
11
0.1482454330708661
21
0.3074694881889763
0
LINE
8
BLACK
6
CONTINUOUS
10
0.1482454330708661
20
0.3074694881889763
11
0.1365380708661417
21
0.3009990551181102
0
LINE
8
BLACK
6
CONTINUOUS
10
0.1365380708661417
20
0.3009990551181102
11
0.1256288188976378
21
0.2932585039370079
0
LINE
8
BLACK
6
CONTINUOUS
10
0.1256288188976378
20
0.2932585039370079
11
0.1156548031496063
21
0.2843451968503937
0
LINE
8
BLACK
6
CONTINUOUS
10
0.1156548031496063
20
0.2843451968503937
11
0.1067414960629921
21
0.2743711811023622
0
LINE
8
BLACK
6
CONTINUOUS
10
0.1067414960629921
20
0.2743711811023622
11
0.0990009448818898
21
0.2634619291338582
0
LINE
8
BLACK
6
CONTINUOUS
10
0.0990009448818898
20
0.2634619291338582
11
0.0925305118110236
21
0.2517545669291338
0
LINE
8
BLACK
6
CONTINUOUS
10
0.0925305118110236
20
0.2517545669291338
11
0.0874115748031496
21
0.2393963779527559
0
LINE
8
BLACK
6
CONTINUOUS
10
0.0874115748031496
20
0.2393963779527559
11
0.0837085433070866
21
0.2265427559055118
0
LINE
8
BLACK
6
CONTINUOUS
10
0.0837085433070866
20
0.2265427559055118
11
0.0814679133858268
21
0.2133553543307087
0
LINE
8
BLACK
6
CONTINUOUS
10
0.0814679133858268
20
0.2133553543307087
11
0.080717874015748
21
0.2
0
LINE
8
BLACK
6
CONTINUOUS
10
0.080717874015748
20
0.2
11
0.0814679133858268
21
0.1866446456692913
0
LINE
8
BLACK
6
CONTINUOUS
10
1.8135547637795275
20
0.3203017716535433
11
1.8269390551181102
21
0.3180276771653543
0
LINE
8
BLACK
6
CONTINUOUS
10
1.8269390551181102
20
0.3180276771653543
11
1.8399845669291339
21
0.3142693307086614
0
LINE
8
BLACK
6
CONTINUOUS
10
1.8399845669291339
20
0.3142693307086614
11
1.8525272440944882
21
0.3090739763779528
0
LINE
8
BLACK
6
CONTINUOUS
10
1.8525272440944882
20
0.3090739763779528
11
1.8644094094488188
21
0.302506968503937
0
LINE
8
BLACK
6
CONTINUOUS
10
1.8644094094488188
20
0.302506968503937
11
1.8754815354330707
21
0.2946508661417323
0
LINE
8
BLACK
6
CONTINUOUS
10
1.8754815354330707
20
0.2946508661417323
11
1.8856044488188977
21
0.2856044488188976
0
LINE
8
BLACK
6
CONTINUOUS
10
1.8856044488188977
20
0.2856044488188976
11
1.8946508661417323
21
0.2754815354330709
0
LINE
8
BLACK
6
CONTINUOUS
10
1.8946508661417323
20
0.2754815354330709
11
1.9025069685039369
21
0.2644094094488189
0
LINE
8
BLACK
6
CONTINUOUS
10
1.9025069685039369
20
0.2644094094488189
11
1.9090739763779527
21
0.2525272440944882
0
LINE
8
BLACK
6
CONTINUOUS
10
1.9090739763779527
20
0.2525272440944882
11
1.9142693307086613
21
0.2399845669291339
0
LINE
8
BLACK
6
CONTINUOUS
10
1.9142693307086613
20
0.2399845669291339
11
1.9180276771653544
21
0.2269390551181102
0
LINE
8
BLACK
6
CONTINUOUS
10
1.9180276771653544
20
0.2269390551181102
11
1.9203017716535433
21
0.2135547637795276
0
LINE
8
BLACK
6
CONTINUOUS
10
1.9203017716535433
20
0.2135547637795276
11
1.9210629921259843
21
0.2
0
LINE
8
BLACK
6
CONTINUOUS
10
1.9210629921259843
20
0.2
11
1.9203017716535433
21
0.1864452362204724
0
LINE
8
BLACK
6
CONTINUOUS
10
1.9203017716535433
20
0.1864452362204724
11
1.9180276771653544
21
0.1730609448818898
0
LINE
8
BLACK
6
CONTINUOUS
10
1.9180276771653544
20
0.1730609448818898
11
1.9142693307086613
21
0.1600154330708661
0
LINE
8
BLACK
6
CONTINUOUS
10
1.9142693307086613
20
0.1600154330708661
11
1.9090739763779527
21
0.1474727559055118
0
LINE
8
BLACK
6
CONTINUOUS
10
1.9090739763779527
20
0.1474727559055118
11
1.9025069685039369
21
0.1355905905511811
0
LINE
8
BLACK
6
CONTINUOUS
10
1.9025069685039369
20
0.1355905905511811
11
1.8946508661417323
21
0.1245184645669291
0
LINE
8
BLACK
6
CONTINUOUS
10
1.8946508661417323
20
0.1245184645669291
11
1.8856044488188977
21
0.1143955511811024
0
LINE
8
BLACK
6
CONTINUOUS
10
1.8856044488188977
20
0.1143955511811024
11
1.8754815354330707
21
0.1053491338582677
0
LINE
8
BLACK
6
CONTINUOUS
10
1.8754815354330707
20
0.1053491338582677
11
1.8644094094488188
21
0.097493031496063
0
LINE
8
BLACK
6
CONTINUOUS
10
1.8644094094488188
20
0.097493031496063
11
1.8525272440944882
21
0.0909260236220472
0
LINE
8
BLACK
6
CONTINUOUS
10
1.8525272440944882
20
0.0909260236220472
11
1.8399845669291339
21
0.0857306692913386
0
LINE
8
BLACK
6
CONTINUOUS
10
1.8399845669291339
20
0.0857306692913386
11
1.8269390551181102
21
0.0819723228346457
0
LINE
8
BLACK
6
CONTINUOUS
10
1.8269390551181102
20
0.0819723228346457
11
1.8135547637795275
21
0.0796982283464567
0
LINE
8
BLACK
6
CONTINUOUS
10
1.8135547637795275
20
0.0796982283464567
11
1.8
21
0.0789370078740158
0
LINE
8
BLACK
6
CONTINUOUS
10
1.8
20
0.0789370078740158
11
1.7864452362204724
21
0.0796982283464567
0
LINE
8
BLACK
6
CONTINUOUS
10
1.7864452362204724
20
0.0796982283464567
11
1.7730609448818897
21
0.0819723228346457
0
LINE
8
BLACK
6
CONTINUOUS
10
1.7730609448818897
20
0.0819723228346457
11
1.7600154330708662
21
0.0857306692913386
0
LINE
8
BLACK
6
CONTINUOUS
10
1.7600154330708662
20
0.0857306692913386
11
1.7474727559055119
21
0.0909260236220472
0
LINE
8
BLACK
6
CONTINUOUS
10
1.7474727559055119
20
0.0909260236220472
11
1.735590590551181
21
0.097493031496063
0
LINE
8
BLACK
6
CONTINUOUS
10
1.735590590551181
20
0.097493031496063
11
1.7245184645669291
21
0.1053491338582677
0
LINE
8
BLACK
6
CONTINUOUS
10
1.7245184645669291
20
0.1053491338582677
11
1.7143955511811024
21
0.1143955511811024
0
LINE
8
BLACK
6
CONTINUOUS
10
1.7143955511811024
20
0.1143955511811024
11
1.7053491338582676
21
0.1245184645669291
0
LINE
8
BLACK
6
CONTINUOUS
10
1.7053491338582676
20
0.1245184645669291
11
1.697493031496063
21
0.1355905905511811
0
LINE
8
BLACK
6
CONTINUOUS
10
1.697493031496063
20
0.1355905905511811
11
1.6909260236220471
21
0.1474727559055118
0
LINE
8
BLACK
6
CONTINUOUS
10
1.6909260236220471
20
0.1474727559055118
11
1.6857306692913385
21
0.1600154330708661
0
LINE
8
BLACK
6
CONTINUOUS
10
1.6857306692913385
20
0.1600154330708661
11
1.6819723228346457
21
0.1730609448818898
0
LINE
8
BLACK
6
CONTINUOUS
10
1.6819723228346457
20
0.1730609448818898
11
1.6796982283464565
21
0.1864452362204724
0
LINE
8
BLACK
6
CONTINUOUS
10
1.6796982283464565
20
0.1864452362204724
11
1.6789370078740158
21
0.2
0
LINE
8
BLACK
6
CONTINUOUS
10
1.6789370078740158
20
0.2
11
1.6796982283464565
21
0.2135547637795276
0
LINE
8
BLACK
6
CONTINUOUS
10
1.6796982283464565
20
0.2135547637795276
11
1.6819723228346457
21
0.2269390551181102
0
LINE
8
BLACK
6
CONTINUOUS
10
1.6819723228346457
20
0.2269390551181102
11
1.6857306692913385
21
0.2399845669291339
0
LINE
8
BLACK
6
CONTINUOUS
10
1.6857306692913385
20
0.2399845669291339
11
1.6909260236220471
21
0.2525272440944882
0
LINE
8
BLACK
6
CONTINUOUS
10
1.6909260236220471
20
0.2525272440944882
11
1.697493031496063
21
0.2644094094488189
0
LINE
8
BLACK
6
CONTINUOUS
10
1.697493031496063
20
0.2644094094488189
11
1.7053491338582676
21
0.2754815354330709
0
LINE
8
BLACK
6
CONTINUOUS
10
1.7053491338582676
20
0.2754815354330709
11
1.7143955511811024
21
0.2856044488188976
0
LINE
8
BLACK
6
CONTINUOUS
10
1.7143955511811024
20
0.2856044488188976
11
1.7245184645669291
21
0.2946508661417323
0
LINE
8
BLACK
6
CONTINUOUS
10
1.7245184645669291
20
0.2946508661417323
11
1.735590590551181
21
0.302506968503937
0
LINE
8
BLACK
6
CONTINUOUS
10
1.735590590551181
20
0.302506968503937
11
1.7474727559055119
21
0.3090739763779528
0
LINE
8
BLACK
6
CONTINUOUS
10
1.7474727559055119
20
0.3090739763779528
11
1.7600154330708662
21
0.3142693307086614
0
LINE
8
BLACK
6
CONTINUOUS
10
1.7600154330708662
20
0.3142693307086614
11
1.7730609448818897
21
0.3180276771653543
0
LINE
8
BLACK
6
CONTINUOUS
10
1.7730609448818897
20
0.3180276771653543
11
1.7864452362204724
21
0.3203017716535433
0
LINE
8
BLACK
6
CONTINUOUS
10
1.7864452362204724
20
0.3203017716535433
11
1.8
21
0.3210629921259843
0
LINE
8
BLACK
6
CONTINUOUS
10
1.8
20
0.3210629921259843
11
1.8135547637795275
21
0.3203017716535433
0
LINE
8
BLACK
6
CONTINUOUS
10
1.6814679133858268
20
0.1866446456692913
11
1.6837085433070866
21
0.1734572440944882
0
LINE
8
BLACK
6
CONTINUOUS
10
1.6837085433070866
20
0.1734572440944882
11
1.6874115748031495
21
0.1606036220472441
0
LINE
8
BLACK
6
CONTINUOUS
10
1.6874115748031495
20
0.1606036220472441
11
1.6925305118110237
21
0.1482454330708661
0
LINE
8
BLACK
6
CONTINUOUS
10
1.6925305118110237
20
0.1482454330708661
11
1.6990009448818897
21
0.1365380708661417
0
LINE
8
BLACK
6
CONTINUOUS
10
1.6990009448818897
20
0.1365380708661417
11
1.7067414960629921
21
0.1256288188976378
0
LINE
8
BLACK
6
CONTINUOUS
10
1.7067414960629921
20
0.1256288188976378
11
1.7156548031496062
21
0.1156548031496063
0
LINE
8
BLACK
6
CONTINUOUS
10
1.7156548031496062
20
0.1156548031496063
11
1.7256288188976379
21
0.1067414960629921
0
LINE
8
BLACK
6
CONTINUOUS
10
1.7256288188976379
20
0.1067414960629921
11
1.7365380708661418
21
0.0990009448818898
0
LINE
8
BLACK
6
CONTINUOUS
10
1.7365380708661418
20
0.0990009448818898
11
1.7482454330708661
21
0.0925305118110236
0
LINE
8
BLACK
6
CONTINUOUS
10
1.7482454330708661
20
0.0925305118110236
11
1.7606036220472441
21
0.0874115748031496
0
LINE
8
BLACK
6
CONTINUOUS
10
1.7606036220472441
20
0.0874115748031496
11
1.7734572440944882
21
0.0837085433070866
0
LINE
8
BLACK
6
CONTINUOUS
10
1.7734572440944882
20
0.0837085433070866
11
1.7866446456692913
21
0.0814679133858268
0
LINE
8
BLACK
6
CONTINUOUS
10
1.7866446456692913
20
0.0814679133858268
11
1.8
21
0.080717874015748
0
LINE
8
BLACK
6
CONTINUOUS
10
1.8
20
0.080717874015748
11
1.8133553543307086
21
0.0814679133858268
0
LINE
8
BLACK
6
CONTINUOUS
10
1.8133553543307086
20
0.0814679133858268
11
1.8265427559055119
21
0.0837085433070866
0
LINE
8
BLACK
6
CONTINUOUS
10
1.8265427559055119
20
0.0837085433070866
11
1.8393963779527558
21
0.0874115748031496
0
LINE
8
BLACK
6
CONTINUOUS
10
1.8393963779527558
20
0.0874115748031496
11
1.8517545669291338
21
0.0925305118110236
0
LINE
8
BLACK
6
CONTINUOUS
10
1.8517545669291338
20
0.0925305118110236
11
1.8634619291338583
21
0.0990009448818898
0
LINE
8
BLACK
6
CONTINUOUS
10
1.8634619291338583
20
0.0990009448818898
11
1.8743711811023622
21
0.1067414960629921
0
LINE
8
BLACK
6
CONTINUOUS
10
1.8743711811023622
20
0.1067414960629921
11
1.8843451968503937
21
0.1156548031496063
0
LINE
8
BLACK
6
CONTINUOUS
10
1.8843451968503937
20
0.1156548031496063
11
1.8932585039370078
21
0.1256288188976378
0
LINE
8
BLACK
6
CONTINUOUS
10
1.8932585039370078
20
0.1256288188976378
11
1.9009990551181102
21
0.1365380708661417
0
LINE
8
BLACK
6
CONTINUOUS
10
1.9009990551181102
20
0.1365380708661417
11
1.9074694881889764
21
0.1482454330708661
0
LINE
8
BLACK
6
CONTINUOUS
10
1.9074694881889764
20
0.1482454330708661
11
1.9125884251968504
21
0.1606036220472441
0
LINE
8
BLACK
6
CONTINUOUS
10
1.9125884251968504
20
0.1606036220472441
11
1.9162914566929135
21
0.1734572440944882
0
LINE
8
BLACK
6
CONTINUOUS
10
1.9162914566929135
20
0.1734572440944882
11
1.9185320866141733
21
0.1866446456692913
0
LINE
8
BLACK
6
CONTINUOUS
10
1.9185320866141733
20
0.1866446456692913
11
1.9192821259842519
21
0.2
0
LINE
8
BLACK
6
CONTINUOUS
10
1.9192821259842519
20
0.2
11
1.9185320866141733
21
0.2133553543307087
0
LINE
8
BLACK
6
CONTINUOUS
10
1.9185320866141733
20
0.2133553543307087
11
1.9162914566929135
21
0.2265427559055118
0
LINE
8
BLACK
6
CONTINUOUS
10
1.9162914566929135
20
0.2265427559055118
11
1.9125884251968504
21
0.2393963779527559
0
LINE
8
BLACK
6
CONTINUOUS
10
1.9125884251968504
20
0.2393963779527559
11
1.9074694881889764
21
0.2517545669291338
0
LINE
8
BLACK
6
CONTINUOUS
10
1.9074694881889764
20
0.2517545669291338
11
1.9009990551181102
21
0.2634619291338582
0
LINE
8
BLACK
6
CONTINUOUS
10
1.9009990551181102
20
0.2634619291338582
11
1.8932585039370078
21
0.2743711811023622
0
LINE
8
BLACK
6
CONTINUOUS
10
1.8932585039370078
20
0.2743711811023622
11
1.8843451968503937
21
0.2843451968503937
0
LINE
8
BLACK
6
CONTINUOUS
10
1.8843451968503937
20
0.2843451968503937
11
1.8743711811023622
21
0.2932585039370079
0
LINE
8
BLACK
6
CONTINUOUS
10
1.8743711811023622
20
0.2932585039370079
11
1.8634619291338583
21
0.3009990551181102
0
LINE
8
BLACK
6
CONTINUOUS
10
1.8634619291338583
20
0.3009990551181102
11
1.8517545669291338
21
0.3074694881889763
0
LINE
8
BLACK
6
CONTINUOUS
10
1.8517545669291338
20
0.3074694881889763
11
1.8393963779527558
21
0.3125884251968504
0
LINE
8
BLACK
6
CONTINUOUS
10
1.8393963779527558
20
0.3125884251968504
11
1.8265427559055119
21
0.3162914566929134
0
LINE
8
BLACK
6
CONTINUOUS
10
1.8265427559055119
20
0.3162914566929134
11
1.8133553543307086
21
0.3185320866141732
0
LINE
8
BLACK
6
CONTINUOUS
10
1.8133553543307086
20
0.3185320866141732
11
1.8
21
0.319282125984252
0
LINE
8
BLACK
6
CONTINUOUS
10
1.8
20
0.319282125984252
11
1.7866446456692913
21
0.3185320866141732
0
LINE
8
BLACK
6
CONTINUOUS
10
1.7866446456692913
20
0.3185320866141732
11
1.7734572440944882
21
0.3162914566929134
0
LINE
8
BLACK
6
CONTINUOUS
10
1.7734572440944882
20
0.3162914566929134
11
1.7606036220472441
21
0.3125884251968504
0
LINE
8
BLACK
6
CONTINUOUS
10
1.7606036220472441
20
0.3125884251968504
11
1.7482454330708661
21
0.3074694881889763
0
LINE
8
BLACK
6
CONTINUOUS
10
1.7482454330708661
20
0.3074694881889763
11
1.7365380708661418
21
0.3009990551181102
0
LINE
8
BLACK
6
CONTINUOUS
10
1.7365380708661418
20
0.3009990551181102
11
1.7256288188976379
21
0.2932585039370079
0
LINE
8
BLACK
6
CONTINUOUS
10
1.7256288188976379
20
0.2932585039370079
11
1.7156548031496062
21
0.2843451968503937
0
LINE
8
BLACK
6
CONTINUOUS
10
1.7156548031496062
20
0.2843451968503937
11
1.7067414960629921
21
0.2743711811023622
0
LINE
8
BLACK
6
CONTINUOUS
10
1.7067414960629921
20
0.2743711811023622
11
1.6990009448818897
21
0.2634619291338582
0
LINE
8
BLACK
6
CONTINUOUS
10
1.6990009448818897
20
0.2634619291338582
11
1.6925305118110237
21
0.2517545669291338
0
LINE
8
BLACK
6
CONTINUOUS
10
1.6925305118110237
20
0.2517545669291338
11
1.6874115748031495
21
0.2393963779527559
0
LINE
8
BLACK
6
CONTINUOUS
10
1.6874115748031495
20
0.2393963779527559
11
1.6837085433070866
21
0.2265427559055118
0
LINE
8
BLACK
6
CONTINUOUS
10
1.6837085433070866
20
0.2265427559055118
11
1.6814679133858268
21
0.2133553543307087
0
LINE
8
BLACK
6
CONTINUOUS
10
1.6814679133858268
20
0.2133553543307087
11
1.680717874015748
21
0.2
0
LINE
8
BLACK
6
CONTINUOUS
10
1.680717874015748
20
0.2
11
1.6814679133858268
21
0.1866446456692913
0
LINE
8
BLACK
6
CONTINUOUS
10
1.9212427952755906
20
0.4717754724409449
11
1.9217754724409448
21
0.4712427952755905
0
LINE
8
BLACK
6
CONTINUOUS
10
1.9217754724409448
20
0.4712427952755905
11
1.9218503937007874
21
0.4708661417322835
0
LINE
8
BLACK
6
CONTINUOUS
10
1.9218503937007874
20
0.4708661417322835
11
1.9218503937007874
21
0.3291338582677165
0
LINE
8
BLACK
6
CONTINUOUS
10
1.9218503937007874
20
0.3291338582677165
11
1.9217754724409448
21
0.3287572047244094
0
LINE
8
BLACK
6
CONTINUOUS
10
1.9217754724409448
20
0.3287572047244094
11
1.9212427952755906
21
0.3282245275590551
0
LINE
8
BLACK
6
CONTINUOUS
10
1.9212427952755906
20
0.3282245275590551
11
1.9208661417322834
21
0.3281496062992126
0
LINE
8
BLACK
6
CONTINUOUS
10
1.9208661417322834
20
0.3281496062992126
11
1.6787401574803149
21
0.3281496062992126
0
LINE
8
BLACK
6
CONTINUOUS
10
1.6787401574803149
20
0.3281496062992126
11
1.6783635039370077
21
0.3282245275590551
0
LINE
8
BLACK
6
CONTINUOUS
10
1.6783635039370077
20
0.3282245275590551
11
1.6778308267716535
21
0.3287572047244094
0
LINE
8
BLACK
6
CONTINUOUS
10
1.6778308267716535
20
0.3287572047244094
11
1.677755905511811
21
0.3291338582677165
0
LINE
8
BLACK
6
CONTINUOUS
10
1.677755905511811
20
0.3291338582677165
11
1.677755905511811
21
0.4708661417322835
0
LINE
8
BLACK
6
CONTINUOUS
10
1.677755905511811
20
0.4708661417322835
11
1.6778308267716535
21
0.4712427952755905
0
LINE
8
BLACK
6
CONTINUOUS
10
1.6778308267716535
20
0.4712427952755905
11
1.6783635039370077
21
0.4717754724409449
0
LINE
8
BLACK
6
CONTINUOUS
10
1.6783635039370077
20
0.4717754724409449
11
1.6787401574803149
21
0.4718503937007874
0
LINE
8
BLACK
6
CONTINUOUS
10
1.6787401574803149
20
0.4718503937007874
11
1.9208661417322834
21
0.4718503937007874
0
LINE
8
BLACK
6
CONTINUOUS
10
1.9208661417322834
20
0.4718503937007874
11
1.9212427952755906
21
0.4717754724409449
0
LINE
8
BLACK
6
CONTINUOUS
10
1.6797244094488188
20
0.4698818897637795
11
1.6797244094488188
21
0.3301181102362205
0
LINE
8
BLACK
6
CONTINUOUS
10
1.6797244094488188
20
0.3301181102362205
11
1.9198818897637795
21
0.3301181102362205
0
LINE
8
BLACK
6
CONTINUOUS
10
1.9198818897637795
20
0.3301181102362205
11
1.9198818897637795
21
0.4698818897637795
0
LINE
8
BLACK
6
CONTINUOUS
10
1.9198818897637795
20
0.4698818897637795
11
1.6797244094488188
21
0.4698818897637795
0
LINE
8
BLACK
6
CONTINUOUS
10
1.8212427952755905
20
0.7217754724409449
11
1.8217754724409447
21
0.7212427952755905
0
LINE
8
BLACK
6
CONTINUOUS
10
1.8217754724409447
20
0.7212427952755905
11
1.8218503937007873
21
0.7208661417322835
0
LINE
8
BLACK
6
CONTINUOUS
10
1.8218503937007873
20
0.7208661417322835
11
1.8218503937007873
21
0.478740157480315
0
LINE
8
BLACK
6
CONTINUOUS
10
1.8218503937007873
20
0.478740157480315
11
1.8217754724409447
21
0.4783635039370079
0
LINE
8
BLACK
6
CONTINUOUS
10
1.8217754724409447
20
0.4783635039370079
11
1.8212427952755905
21
0.4778308267716535
0
LINE
8
BLACK
6
CONTINUOUS
10
1.8212427952755905
20
0.4778308267716535
11
1.8208661417322833
21
0.477755905511811
0
LINE
8
BLACK
6
CONTINUOUS
10
1.8208661417322833
20
0.477755905511811
11
0.1791338582677165
21
0.477755905511811
0
LINE
8
BLACK
6
CONTINUOUS
10
0.1791338582677165
20
0.477755905511811
11
0.1787572047244095
21
0.4778308267716535
0
LINE
8
BLACK
6
CONTINUOUS
10
0.1787572047244095
20
0.4778308267716535
11
0.1782245275590551
21
0.4783635039370079
0
LINE
8
BLACK
6
CONTINUOUS
10
0.1782245275590551
20
0.4783635039370079
11
0.1781496062992126
21
0.478740157480315
0
LINE
8
BLACK
6
CONTINUOUS
10
0.1781496062992126
20
0.478740157480315
11
0.1781496062992126
21
0.7208661417322835
0
LINE
8
BLACK
6
CONTINUOUS
10
0.1781496062992126
20
0.7208661417322835
11
0.1782245275590551
21
0.7212427952755905
0
LINE
8
BLACK
6
CONTINUOUS
10
0.1782245275590551
20
0.7212427952755905
11
0.1787572047244095
21
0.7217754724409449
0
LINE
8
BLACK
6
CONTINUOUS
10
0.1787572047244095
20
0.7217754724409449
11
0.1791338582677165
21
0.7218503937007874
0
LINE
8
BLACK
6
CONTINUOUS
10
0.1791338582677165
20
0.7218503937007874
11
1.8208661417322833
21
0.7218503937007874
0
LINE
8
BLACK
6
CONTINUOUS
10
1.8208661417322833
20
0.7218503937007874
11
1.8212427952755905
21
0.7217754724409449
0
LINE
8
BLACK
6
CONTINUOUS
10
0.1801181102362205
20
0.7198818897637795
11
0.1801181102362205
21
0.4797244094488189
0
LINE
8
BLACK
6
CONTINUOUS
10
0.1801181102362205
20
0.4797244094488189
11
1.8198818897637794
21
0.4797244094488189
0
LINE
8
BLACK
6
CONTINUOUS
10
1.8198818897637794
20
0.4797244094488189
11
1.8198818897637794
21
0.7198818897637795
0
LINE
8
BLACK
6
CONTINUOUS
10
1.8198818897637794
20
0.7198818897637795
11
0.1801181102362205
21
0.7198818897637795
0
LINE
8
BLACK
6
CONTINUOUS
10
0.3212427952755905
20
2.5217754724409449
11
0.3217754724409449
21
2.5212427952755907
0
LINE
8
BLACK
6
CONTINUOUS
10
0.3217754724409449
20
2.5212427952755907
11
0.3218503937007874
21
2.5208661417322835
0
LINE
8
BLACK
6
CONTINUOUS
10
0.3218503937007874
20
2.5208661417322835
11
0.3218503937007874
21
0.8791338582677165
0
LINE
8
BLACK
6
CONTINUOUS
10
0.3218503937007874
20
0.8791338582677165
11
0.3217754724409449
21
0.8787572047244094
0
LINE
8
BLACK
6
CONTINUOUS
10
0.3217754724409449
20
0.8787572047244094
11
0.3212427952755905
21
0.8782245275590551
0
LINE
8
BLACK
6
CONTINUOUS
10
0.3212427952755905
20
0.8782245275590551
11
0.3208661417322834
21
0.8781496062992126
0
LINE
8
BLACK
6
CONTINUOUS
10
0.3208661417322834
20
0.8781496062992126
11
0.078740157480315
21
0.8781496062992126
0
LINE
8
BLACK
6
CONTINUOUS
10
0.078740157480315
20
0.8781496062992126
11
0.0783635039370079
21
0.8782245275590551
0
LINE
8
BLACK
6
CONTINUOUS
10
0.0783635039370079
20
0.8782245275590551
11
0.0778308267716535
21
0.8787572047244094
0
LINE
8
BLACK
6
CONTINUOUS
10
0.0778308267716535
20
0.8787572047244094
11
0.077755905511811
21
0.8791338582677165
0
LINE
8
BLACK
6
CONTINUOUS
10
0.077755905511811
20
0.8791338582677165
11
0.077755905511811
21
2.5208661417322835
0
LINE
8
BLACK
6
CONTINUOUS
10
0.077755905511811
20
2.5208661417322835
11
0.0778308267716535
21
2.5212427952755907
0
LINE
8
BLACK
6
CONTINUOUS
10
0.0778308267716535
20
2.5212427952755907
11
0.0783635039370079
21
2.5217754724409449
0
LINE
8
BLACK
6
CONTINUOUS
10
0.0783635039370079
20
2.5217754724409449
11
0.078740157480315
21
2.5218503937007872
0
LINE
8
BLACK
6
CONTINUOUS
10
0.078740157480315
20
2.5218503937007872
11
0.3208661417322834
21
2.5218503937007872
0
LINE
8
BLACK
6
CONTINUOUS
10
0.3208661417322834
20
2.5218503937007872
11
0.3212427952755905
21
2.5217754724409449
0
LINE
8
BLACK
6
CONTINUOUS
10
0.0797244094488189
20
2.5198818897637794
11
0.0797244094488189
21
0.8801181102362204
0
LINE
8
BLACK
6
CONTINUOUS
10
0.0797244094488189
20
0.8801181102362204
11
0.3198818897637795
21
0.8801181102362204
0
LINE
8
BLACK
6
CONTINUOUS
10
0.3198818897637795
20
0.8801181102362204
11
0.3198818897637795
21
2.5198818897637794
0
LINE
8
BLACK
6
CONTINUOUS
10
0.3198818897637795
20
2.5198818897637794
11
0.0797244094488189
21
2.5198818897637794
0
LINE
8
BLACK
6
CONTINUOUS
10
1.9214396456692913
20
2.5217754724409449
11
1.9219723228346457
21
2.5212427952755907
0
LINE
8
BLACK
6
CONTINUOUS
10
1.9219723228346457
20
2.5212427952755907
11
1.9220472440944882
21
2.5208661417322835
0
LINE
8
BLACK
6
CONTINUOUS
10
1.9220472440944882
20
2.5208661417322835
11
1.9220472440944882
21
0.8791338582677165
0
LINE
8
BLACK
6
CONTINUOUS
10
1.9220472440944882
20
0.8791338582677165
11
1.9219723228346457
21
0.8787572047244094
0
LINE
8
BLACK
6
CONTINUOUS
10
1.9219723228346457
20
0.8787572047244094
11
1.9214396456692913
21
0.8782245275590551
0
LINE
8
BLACK
6
CONTINUOUS
10
1.9214396456692913
20
0.8782245275590551
11
1.9210629921259843
21
0.8781496062992126
0
LINE
8
BLACK
6
CONTINUOUS
10
1.9210629921259843
20
0.8781496062992126
11
1.6789370078740158
21
0.8781496062992126
0
LINE
8
BLACK
6
CONTINUOUS
10
1.6789370078740158
20
0.8781496062992126
11
1.6785603543307086
21
0.8782245275590551
0
LINE
8
BLACK
6
CONTINUOUS
10
1.6785603543307086
20
0.8782245275590551
11
1.6780276771653544
21
0.8787572047244094
0
LINE
8
BLACK
6
CONTINUOUS
10
1.6780276771653544
20
0.8787572047244094
11
1.6779527559055119
21
0.8791338582677165
0
LINE
8
BLACK
6
CONTINUOUS
10
1.6779527559055119
20
0.8791338582677165
11
1.6779527559055119
21
2.5208661417322835
0
LINE
8
BLACK
6
CONTINUOUS
10
1.6779527559055119
20
2.5208661417322835
11
1.6780276771653544
21
2.5212427952755907
0
LINE
8
BLACK
6
CONTINUOUS
10
1.6780276771653544
20
2.5212427952755907
11
1.6785603543307086
21
2.5217754724409449
0
LINE
8
BLACK
6
CONTINUOUS
10
1.6785603543307086
20
2.5217754724409449
11
1.6789370078740158
21
2.5218503937007872
0
LINE
8
BLACK
6
CONTINUOUS
10
1.6789370078740158
20
2.5218503937007872
11
1.9210629921259843
21
2.5218503937007872
0
LINE
8
BLACK
6
CONTINUOUS
10
1.9210629921259843
20
2.5218503937007872
11
1.9214396456692913
21
2.5217754724409449
0
LINE
8
BLACK
6
CONTINUOUS
10
1.6799212598425197
20
2.5198818897637794
11
1.6799212598425197
21
0.8801181102362204
0
LINE
8
BLACK
6
CONTINUOUS
10
1.6799212598425197
20
0.8801181102362204
11
1.9200787401574804
21
0.8801181102362204
0
LINE
8
BLACK
6
CONTINUOUS
10
1.9200787401574804
20
0.8801181102362204
11
1.9200787401574804
21
2.5198818897637794
0
LINE
8
BLACK
6
CONTINUOUS
10
1.9200787401574804
20
2.5198818897637794
11
1.6799212598425197
21
2.5198818897637794
0
LINE
8
BLACK
6
CONTINUOUS
10
1.4302979133858267
20
1.1811455511811024
11
1.4308305905511811
21
1.180612874015748
0
LINE
8
BLACK
6
CONTINUOUS
10
1.4308305905511811
20
1.180612874015748
11
1.4309055118110237
21
1.1802362204724408
0
LINE
8
BLACK
6
CONTINUOUS
10
1.4309055118110237
20
1.1802362204724408
11
1.4309055118110237
21
0.959763779527559
0
LINE
8
BLACK
6
CONTINUOUS
10
1.4309055118110237
20
0.959763779527559
11
1.4308305905511811
21
0.9593871259842519
0
LINE
8
BLACK
6
CONTINUOUS
10
1.4308305905511811
20
0.9593871259842519
11
1.4302979133858267
21
0.9588544488188976
0
LINE
8
BLACK
6
CONTINUOUS
10
1.4302979133858267
20
0.9588544488188976
11
1.4299212598425197
21
0.958779527559055
0
LINE
8
BLACK
6
CONTINUOUS
10
1.4299212598425197
20
0.958779527559055
11
0.9614173228346456
21
0.958779527559055
0
LINE
8
BLACK
6
CONTINUOUS
10
0.9614173228346456
20
0.958779527559055
11
0.9610406692913386
21
0.9588544488188976
0
LINE
8
BLACK
6
CONTINUOUS
10
0.9610406692913386
20
0.9588544488188976
11
0.9605079921259843
21
0.9593871259842519
0
LINE
8
BLACK
6
CONTINUOUS
10
0.9605079921259843
20
0.9593871259842519
11
0.9604330708661417
21
0.959763779527559
0
LINE
8
BLACK
6
CONTINUOUS
10
0.9604330708661417
20
0.959763779527559
11
0.9604330708661417
21
1.1802362204724408
0
LINE
8
BLACK
6
CONTINUOUS
10
0.9604330708661417
20
1.1802362204724408
11
0.9605079921259843
21
1.180612874015748
0
LINE
8
BLACK
6
CONTINUOUS
10
0.9605079921259843
20
1.180612874015748
11
0.9610406692913386
21
1.1811455511811024
0
LINE
8
BLACK
6
CONTINUOUS
10
0.9610406692913386
20
1.1811455511811024
11
0.9614173228346456
21
1.1812204724409447
0
LINE
8
BLACK
6
CONTINUOUS
10
0.9614173228346456
20
1.1812204724409447
11
1.4299212598425197
21
1.1812204724409447
0
LINE
8
BLACK
6
CONTINUOUS
10
1.4299212598425197
20
1.1812204724409447
11
1.4302979133858267
21
1.1811455511811024
0
LINE
8
BLACK
6
CONTINUOUS
10
0.9624015748031496
20
1.1792519685039369
11
0.9624015748031496
21
0.9607480314960629
0
LINE
8
BLACK
6
CONTINUOUS
10
0.9624015748031496
20
0.9607480314960629
11
1.4289370078740158
21
0.9607480314960629
0
LINE
8
BLACK
6
CONTINUOUS
10
1.4289370078740158
20
0.9607480314960629
11
1.4289370078740158
21
1.1792519685039369
0
LINE
8
BLACK
6
CONTINUOUS
10
1.4289370078740158
20
1.1792519685039369
11
0.9624015748031496
21
1.1792519685039369
0
LINE
8
BLACK
6
CONTINUOUS
10
1.234628622047244
20
1.3802794094488189
11
1.2351612992125984
21
1.3797467322834644
0
LINE
8
BLACK
6
CONTINUOUS
10
1.2351612992125984
20
1.3797467322834644
11
1.235236220472441
21
1.3793700787401575
0
LINE
8
BLACK
6
CONTINUOUS
10
1.235236220472441
20
1.3793700787401575
11
1.235236220472441
21
1.198267716535433
0
LINE
8
BLACK
6
CONTINUOUS
10
1.235236220472441
20
1.198267716535433
11
1.2351612992125984
21
1.197891062992126
0
LINE
8
BLACK
6
CONTINUOUS
10
1.2351612992125984
20
1.197891062992126
11
1.234628622047244
21
1.1973583858267716
0
LINE
8
BLACK
6
CONTINUOUS
10
1.234628622047244
20
1.1973583858267716
11
1.234251968503937
21
1.197283464566929
0
LINE
8
BLACK
6
CONTINUOUS
10
1.234251968503937
20
1.197283464566929
11
0.639763779527559
21
1.197283464566929
0
LINE
8
BLACK
6
CONTINUOUS
10
0.639763779527559
20
1.197283464566929
11
0.639387125984252
21
1.1973583858267716
0
LINE
8
BLACK
6
CONTINUOUS
10
0.639387125984252
20
1.1973583858267716
11
0.6388544488188976
21
1.197891062992126
0
LINE
8
BLACK
6
CONTINUOUS
10
0.6388544488188976
20
1.197891062992126
11
0.6387795275590551
21
1.198267716535433
0
LINE
8
BLACK
6
CONTINUOUS
10
0.6387795275590551
20
1.198267716535433
11
0.6387795275590551
21
1.3793700787401575
0
LINE
8
BLACK
6
CONTINUOUS
10
0.6387795275590551
20
1.3793700787401575
11
0.6388544488188976
21
1.3797467322834644
0
LINE
8
BLACK
6
CONTINUOUS
10
0.6388544488188976
20
1.3797467322834644
11
0.639387125984252
21
1.3802794094488189
0
LINE
8
BLACK
6
CONTINUOUS
10
0.639387125984252
20
1.3802794094488189
11
0.639763779527559
21
1.3803543307086614
0
LINE
8
BLACK
6
CONTINUOUS
10
0.639763779527559
20
1.3803543307086614
11
1.234251968503937
21
1.3803543307086614
0
LINE
8
BLACK
6
CONTINUOUS
10
1.234251968503937
20
1.3803543307086614
11
1.234628622047244
21
1.3802794094488189
0
LINE
8
BLACK
6
CONTINUOUS
10
0.640748031496063
20
1.3783858267716536
11
0.640748031496063
21
1.1992519685039369
0
LINE
8
BLACK
6
CONTINUOUS
10
0.640748031496063
20
1.1992519685039369
11
1.2332677165354331
21
1.1992519685039369
0
LINE
8
BLACK
6
CONTINUOUS
10
1.2332677165354331
20
1.1992519685039369
11
1.2332677165354331
21
1.3783858267716536
0
LINE
8
BLACK
6
CONTINUOUS
10
1.2332677165354331
20
1.3783858267716536
11
0.640748031496063
21
1.3783858267716536
0
LINE
8
BLACK
6
CONTINUOUS
10
0.6918452362204724
20
2.598276062992126
11
0.6921645669291339
21
2.5980627165354329
0
LINE
8
BLACK
6
CONTINUOUS
10
0.6921645669291339
20
2.5980627165354329
11
0.8417468897637795
21
2.4484804330708663
0
LINE
8
BLACK
6
CONTINUOUS
10
0.8417468897637795
20
2.4484804330708663
11
0.8653180708661418
21
2.4584837795275591
0
LINE
8
BLACK
6
CONTINUOUS
10
0.8653180708661418
20
2.4584837795275591
11
0.8900676377952755
21
2.4673740157480313
0
LINE
8
BLACK
6
CONTINUOUS
10
0.8900676377952755
20
2.4673740157480313
11
0.9152797244094488
21
2.474852401574803
0
LINE
8
BLACK
6
CONTINUOUS
10
0.9152797244094488
20
2.474852401574803
11
0.9408738976377953
21
2.4808951968503936
0
LINE
8
BLACK
6
CONTINUOUS
10
0.9408738976377953
20
2.4808951968503936
11
0.9667684251968504
21
2.4854829921259842
0
LINE
8
BLACK
6
CONTINUOUS
10
0.9667684251968504
20
2.4854829921259842
11
0.9928807480314961
21
2.4886012598425196
0
LINE
8
BLACK
6
CONTINUOUS
10
0.9928807480314961
20
2.4886012598425196
11
1.0191274803149606
21
2.4902399606299213
0
LINE
8
BLACK
6
CONTINUOUS
10
1.0191274803149606
20
2.4902399606299213
11
1.045424842519685
21
2.4903938976377953
0
LINE
8
BLACK
6
CONTINUOUS
10
1.045424842519685
20
2.4903938976377953
11
1.0716889763779527
21
2.4890625590551179
0
LINE
8
BLACK
6
CONTINUOUS
10
1.0716889763779527
20
2.4890625590551179
11
1.0978359842519685
21
2.4862502362204726
0
LINE
8
BLACK
6
CONTINUOUS
10
1.0978359842519685
20
2.4862502362204726
11
1.1237824803149605
21
2.4819658661417323
0
LINE
8
BLACK
6
CONTINUOUS
10
1.1237824803149605
20
2.4819658661417323
11
1.1494456299212599
21
2.476223149606299
0
LINE
8
BLACK
6
CONTINUOUS
10
1.1494456299212599
20
2.476223149606299
11
1.1747435433070865
21
2.469040433070866
0
LINE
8
BLACK
6
CONTINUOUS
10
1.1747435433070865
20
2.469040433070866
11
1.1995954724409448
21
2.4604405511811023
0
LINE
8
BLACK
6
CONTINUOUS
10
1.1995954724409448
20
2.4604405511811023
11
1.2239221259842519
21
2.4504510236220471
0
LINE
8
BLACK
6
CONTINUOUS
10
1.2239221259842519
20
2.4504510236220471
11
1.2476458267716535
21
2.4391037401574804
0
LINE
8
BLACK
6
CONTINUOUS
10
1.2476458267716535
20
2.4391037401574804
11
1.270690905511811
21
2.4264348425196851
0
LINE
8
BLACK
6
CONTINUOUS
10
1.270690905511811
20
2.4264348425196851
11
1.2929838188976377
21
2.4124848425196852
0
LINE
8
BLACK
6
CONTINUOUS
10
1.2929838188976377
20
2.4124848425196852
11
1.3144533858267715
21
2.3972982283464566
0
LINE
8
BLACK
6
CONTINUOUS
10
1.3144533858267715
20
2.3972982283464566
11
1.3350311023622048
21
2.3809234251968503
0
LINE
8
BLACK
6
CONTINUOUS
10
1.3350311023622048
20
2.3809234251968503
11
1.3546512992125983
21
2.3634127559055118
0
LINE
8
BLACK
6
CONTINUOUS
10
1.3546512992125983
20
2.3634127559055118
11
1.373251377952756
21
2.3448220866141734
0
LINE
8
BLACK
6
CONTINUOUS
10
1.373251377952756
20
2.3448220866141734
11
1.3907719291338583
21
2.3252107086614173
0
LINE
8
BLACK
6
CONTINUOUS
10
1.3907719291338583
20
2.3252107086614173
11
1.4071571259842519
21
2.3046412598425197
0
LINE
8
BLACK
6
CONTINUOUS
10
1.4071571259842519
20
2.3046412598425197
11
1.4223545669291338
21
2.2831793700787402
0
LINE
8
BLACK
6
CONTINUOUS
10
1.4223545669291338
20
2.2831793700787402
11
1.4363158267716536
21
2.2608935039370079
0
LINE
8
BLACK
6
CONTINUOUS
10
1.4363158267716536
20
2.2608935039370079
11
1.4489963385826772
21
2.2378548031496064
0
LINE
8
BLACK
6
CONTINUOUS
10
1.4489963385826772
20
2.2378548031496064
11
1.4603556299212599
21
2.2141368503937007
0
LINE
8
BLACK
6
CONTINUOUS
10
1.4603556299212599
20
2.2141368503937007
11
1.4703574015748031
21
2.1898152362204724
0
LINE
8
BLACK
6
CONTINUOUS
10
1.4703574015748031
20
2.1898152362204724
11
1.4789698031496064
21
2.1649676377952756
0
LINE
8
BLACK
6
CONTINUOUS
10
1.4789698031496064
20
2.1649676377952756
11
1.4861653543307087
21
2.1396733858267716
0
LINE
8
BLACK
6
CONTINUOUS
10
1.4861653543307087
20
2.1396733858267716
11
1.4919210236220473
21
2.1140131102362205
0
LINE
8
BLACK
6
CONTINUOUS
10
1.4919210236220473
20
2.1140131102362205
11
1.4962184645669292
21
2.0880687795275592
0
LINE
8
BLACK
6
CONTINUOUS
10
1.4962184645669292
20
2.0880687795275592
11
1.4990439763779526
21
2.0619231889763778
0
LINE
8
BLACK
6
CONTINUOUS
10
1.4990439763779526
20
2.0619231889763778
11
1.5003885826771652
21
2.0356597637795275
0
LINE
8
BLACK
6
CONTINUOUS
10
1.5003885826771652
20
2.0356597637795275
11
1.5002479133858266
21
2.0093622834645668
0
LINE
8
BLACK
6
CONTINUOUS
10
1.5002479133858266
20
2.0093622834645668
11
1.4986224409448818
21
1.9831147637795274
0
LINE
8
BLACK
6
CONTINUOUS
10
1.4986224409448818
20
1.9831147637795274
11
1.4955174015748032
21
1.9570008661417322
0
LINE
8
BLACK
6
CONTINUOUS
10
1.4955174015748032
20
1.9570008661417322
11
1.4909426377952755
21
1.9311040157480315
0
LINE
8
BLACK
6
CONTINUOUS
10
1.4909426377952755
20
1.9311040157480315
11
1.4849127952755905
21
1.905506811023622
0
LINE
8
BLACK
6
CONTINUOUS
10
1.4849127952755905
20
1.905506811023622
11
1.4774470866141731
21
1.8802909448818896
0
LINE
8
BLACK
6
CONTINUOUS
10
1.4774470866141731
20
1.8802909448818896
11
1.4685693700787401
21
1.8555368897637794
0
LINE
8
BLACK
6
CONTINUOUS
10
1.4685693700787401
20
1.8555368897637794
11
1.4584852362204723
21
1.8317420866141731
0
LINE
8
BLACK
6
CONTINUOUS
10
1.4584852362204723
20
1.8317420866141731
11
1.6080627165354331
21
1.6821645669291339
0
LINE
8
BLACK
6
CONTINUOUS
10
1.6080627165354331
20
1.6821645669291339
11
1.608276062992126
21
1.6818452362204723
0
LINE
8
BLACK
6
CONTINUOUS
10
1.608276062992126
20
1.6818452362204723
11
1.608276062992126
21
1.6810919291338582
0
LINE
8
BLACK
6
CONTINUOUS
10
1.608276062992126
20
1.6810919291338582
11
1.6080627165354331
21
1.6807725984251969
0
LINE
8
BLACK
6
CONTINUOUS
10
1.6080627165354331
20
1.6807725984251969
11
1.3792274015748032
21
1.451937283464567
0
LINE
8
BLACK
6
CONTINUOUS
10
1.3792274015748032
20
1.451937283464567
11
1.3789080708661416
21
1.4517239370078741
0
LINE
8
BLACK
6
CONTINUOUS
10
1.3789080708661416
20
1.4517239370078741
11
1.3781547637795275
21
1.4517239370078741
0
LINE
8
BLACK
6
CONTINUOUS
10
1.3781547637795275
20
1.4517239370078741
11
1.3778354330708662
21
1.451937283464567
0
LINE
8
BLACK
6
CONTINUOUS
10
1.3778354330708662
20
1.451937283464567
11
1.2282530708661417
21
1.6015196062992125
0
LINE
8
BLACK
6
CONTINUOUS
10
1.2282530708661417
20
1.6015196062992125
11
1.2046819291338582
21
1.5915162204724409
0
LINE
8
BLACK
6
CONTINUOUS
10
1.2046819291338582
20
1.5915162204724409
11
1.1799323622047244
21
1.5826259842519685
0
LINE
8
BLACK
6
CONTINUOUS
10
1.1799323622047244
20
1.5826259842519685
11
1.1547202755905512
21
1.5751475984251968
0
LINE
8
BLACK
6
CONTINUOUS
10
1.1547202755905512
20
1.5751475984251968
11
1.1291261023622048
21
1.5691048031496062
0
LINE
8
BLACK
6
CONTINUOUS
10
1.1291261023622048
20
1.5691048031496062
11
1.1032315748031496
21
1.5645170078740158
0
LINE
8
BLACK
6
CONTINUOUS
10
1.1032315748031496
20
1.5645170078740158
11
1.077119251968504
21
1.5613987401574803
0
LINE
8
BLACK
6
CONTINUOUS
10
1.077119251968504
20
1.5613987401574803
11
1.0508725196850393
21
1.5597600393700788
0
LINE
8
BLACK
6
CONTINUOUS
10
1.0508725196850393
20
1.5597600393700788
11
1.024575157480315
21
1.5596061023622048
0
LINE
8
BLACK
6
CONTINUOUS
10
1.024575157480315
20
1.5596061023622048
11
0.9983110236220473
21
1.560937440944882
0
LINE
8
BLACK
6
CONTINUOUS
10
0.9983110236220473
20
1.560937440944882
11
0.9721640157480315
21
1.5637497637795275
0
LINE
8
BLACK
6
CONTINUOUS
10
0.9721640157480315
20
1.5637497637795275
11
0.9462175196850393
21
1.5680341338582677
0
LINE
8
BLACK
6
CONTINUOUS
10
0.9462175196850393
20
1.5680341338582677
11
0.9205543700787402
21
1.5737768503937009
0
LINE
8
BLACK
6
CONTINUOUS
10
0.9205543700787402
20
1.5737768503937009
11
0.8952564566929133
21
1.5809595669291339
0
LINE
8
BLACK
6
CONTINUOUS
10
0.8952564566929133
20
1.5809595669291339
11
0.8704045275590551
21
1.5895594488188975
0
LINE
8
BLACK
6
CONTINUOUS
10
0.8704045275590551
20
1.5895594488188975
11
0.846077874015748
21
1.5995489763779527
0
LINE
8
BLACK
6
CONTINUOUS
10
0.846077874015748
20
1.5995489763779527
11
0.8223541732283465
21
1.6108962598425196
0
LINE
8
BLACK
6
CONTINUOUS
10
0.8223541732283465
20
1.6108962598425196
11
0.799309094488189
21
1.6235651574803149
0
LINE
8
BLACK
6
CONTINUOUS
10
0.799309094488189
20
1.6235651574803149
11
0.7770161811023621
21
1.6375151574803148
0
LINE
8
BLACK
6
CONTINUOUS
10
0.7770161811023621
20
1.6375151574803148
11
0.7555466141732283
21
1.6527017716535433
0
LINE
8
BLACK
6
CONTINUOUS
10
0.7555466141732283
20
1.6527017716535433
11
0.7349688976377953
21
1.6690765748031495
0
LINE
8
BLACK
6
CONTINUOUS
10
0.7349688976377953
20
1.6690765748031495
11
0.7153487007874015
21
1.6865872440944882
0
LINE
8
BLACK
6
CONTINUOUS
10
0.7153487007874015
20
1.6865872440944882
11
0.6967486220472441
21
1.7051779133858267
0
LINE
8
BLACK
6
CONTINUOUS
10
0.6967486220472441
20
1.7051779133858267
11
0.6792280708661417
21
1.7247892913385827
0
LINE
8
BLACK
6
CONTINUOUS
10
0.6792280708661417
20
1.7247892913385827
11
0.662842874015748
21
1.7453587401574804
0
LINE
8
BLACK
6
CONTINUOUS
10
0.662842874015748
20
1.7453587401574804
11
0.6476454330708661
21
1.7668206299212599
0
LINE
8
BLACK
6
CONTINUOUS
10
0.6476454330708661
20
1.7668206299212599
11
0.6336841732283465
21
1.7891064960629921
0
LINE
8
BLACK
6
CONTINUOUS
10
0.6336841732283465
20
1.7891064960629921
11
0.6210036614173228
21
1.8121451968503937
0
LINE
8
BLACK
6
CONTINUOUS
10
0.6210036614173228
20
1.8121451968503937
11
0.6096443700787402
21
1.8358631496062991
0
LINE
8
BLACK
6
CONTINUOUS
10
0.6096443700787402
20
1.8358631496062991
11
0.5996425984251968
21
1.8601847637795275
0
LINE
8
BLACK
6
CONTINUOUS
10
0.5996425984251968
20
1.8601847637795275
11
0.5910301968503937
21
1.8850323622047245
0
LINE
8
BLACK
6
CONTINUOUS
10
0.5910301968503937
20
1.8850323622047245
11
0.5838346456692913
21
1.9103266141732282
0
LINE
8
BLACK
6
CONTINUOUS
10
0.5838346456692913
20
1.9103266141732282
11
0.5780789763779527
21
1.9359868897637795
0
LINE
8
BLACK
6
CONTINUOUS
10
0.5780789763779527
20
1.9359868897637795
11
0.5737815354330709
21
1.9619312204724408
0
LINE
8
BLACK
6
CONTINUOUS
10
0.5737815354330709
20
1.9619312204724408
11
0.5709560236220472
21
1.988076811023622
0
LINE
8
BLACK
6
CONTINUOUS
10
0.5709560236220472
20
1.988076811023622
11
0.5696114173228346
21
2.0143402362204723
0
LINE
8
BLACK
6
CONTINUOUS
10
0.5696114173228346
20
2.0143402362204723
11
0.5697520866141732
21
2.040637716535433
0
LINE
8
BLACK
6
CONTINUOUS
10
0.5697520866141732
20
2.040637716535433
11
0.5713775590551181
21
2.0668852362204726
0
LINE
8
BLACK
6
CONTINUOUS
10
0.5713775590551181
20
2.0668852362204726
11
0.5744825984251969
21
2.0929991338582679
0
LINE
8
BLACK
6
CONTINUOUS
10
0.5744825984251969
20
2.0929991338582679
11
0.5790573622047244
21
2.1188959842519686
0
LINE
8
BLACK
6
CONTINUOUS
10
0.5790573622047244
20
2.1188959842519686
11
0.5850872047244094
21
2.1444931889763779
0
LINE
8
BLACK
6
CONTINUOUS
10
0.5850872047244094
20
2.1444931889763779
11
0.5925529133858267
21
2.1697090551181102
0
LINE
8
BLACK
6
CONTINUOUS
10
0.5925529133858267
20
2.1697090551181102
11
0.6014306299212598
21
2.1944631102362204
0
LINE
8
BLACK
6
CONTINUOUS
10
0.6014306299212598
20
2.1944631102362204
11
0.6115147244094488
21
2.2182579527559056
0
LINE
8
BLACK
6
CONTINUOUS
10
0.6115147244094488
20
2.2182579527559056
11
0.4619372834645669
21
2.3678354330708662
0
LINE
8
BLACK
6
CONTINUOUS
10
0.4619372834645669
20
2.3678354330708662
11
0.461723937007874
21
2.3681547637795277
0
LINE
8
BLACK
6
CONTINUOUS
10
0.461723937007874
20
2.3681547637795277
11
0.461723937007874
21
2.3689080708661416
0
LINE
8
BLACK
6
CONTINUOUS
10
0.461723937007874
20
2.3689080708661416
11
0.4619372834645669
21
2.3692274015748032
0
LINE
8
BLACK
6
CONTINUOUS
10
0.4619372834645669
20
2.3692274015748032
11
0.6907725984251968
21
2.5980627165354329
0
LINE
8
BLACK
6
CONTINUOUS
10
0.6907725984251968
20
2.5980627165354329
11
0.6910919291338583
21
2.598276062992126
0
LINE
8
BLACK
6
CONTINUOUS
10
0.6910919291338583
20
2.598276062992126
11
0.6918452362204724
21
2.598276062992126
0
LINE
8
BLACK
6
CONTINUOUS
10
0.4640251968503937
20
2.3685314173228345
11
0.6133806299212599
21
2.2191759842519683
0
LINE
8
BLACK
6
CONTINUOUS
10
0.6133806299212599
20
2.2191759842519683
11
0.6135939763779528
21
2.2188566535433072
0
LINE
8
BLACK
6
CONTINUOUS
10
0.6135939763779528
20
2.2188566535433072
11
0.6135939763779528
21
2.2181033464566928
0
LINE
8
BLACK
6
CONTINUOUS
10
0.6135939763779528
20
2.2181033464566928
11
0.6134995669291339
21
2.2180089763779529
0
LINE
8
BLACK
6
CONTINUOUS
10
0.6134995669291339
20
2.2180089763779529
11
0.6134820866141732
21
2.2178573228346457
0
LINE
8
BLACK
6
CONTINUOUS
10
0.6134820866141732
20
2.2178573228346457
11
0.6080317716535433
21
2.2059465354330707
0
LINE
8
BLACK
6
CONTINUOUS
10
0.6080317716535433
20
2.2059465354330707
11
0.5984950787401575
21
2.1815469291338583
0
LINE
8
BLACK
6
CONTINUOUS
10
0.5984950787401575
20
2.1815469291338583
11
0.5903514173228346
21
2.1566477559055119
0
LINE
8
BLACK
6
CONTINUOUS
10
0.5903514173228346
20
2.1566477559055119
11
0.583626811023622
21
2.1313284251968505
0
LINE
8
BLACK
6
CONTINUOUS
10
0.583626811023622
20
2.1313284251968505
11
0.5783426771653544
21
2.1056697244094487
0
LINE
8
BLACK
6
CONTINUOUS
10
0.5783426771653544
20
2.1056697244094487
11
0.5745159842519685
21
2.0797536220472441
0
LINE
8
BLACK
6
CONTINUOUS
10
0.5745159842519685
20
2.0797536220472441
11
0.5721588188976378
21
2.0536627559055116
0
LINE
8
BLACK
6
CONTINUOUS
10
0.5721588188976378
20
2.0536627559055116
11
0.571278779527559
21
2.027480433070866
0
LINE
8
BLACK
6
CONTINUOUS
10
0.571278779527559
20
2.027480433070866
11
0.5718787007874016
21
2.0012901968503938
0
LINE
8
BLACK
6
CONTINUOUS
10
0.5718787007874016
20
2.0012901968503938
11
0.5739565748031495
21
1.975175590551181
0
LINE
8
BLACK
6
CONTINUOUS
10
0.5739565748031495
20
1.975175590551181
11
0.5775058661417323
21
1.9492200393700787
0
LINE
8
BLACK
6
CONTINUOUS
10
0.5775058661417323
20
1.9492200393700787
11
0.5825151574803149
21
1.9235062992125984
0
LINE
8
BLACK
6
CONTINUOUS
10
0.5825151574803149
20
1.9235062992125984
11
0.5889685433070866
21
1.8981164566929134
0
LINE
8
BLACK
6
CONTINUOUS
10
0.5889685433070866
20
1.8981164566929134
11
0.5968453543307086
21
1.8731315748031496
0
LINE
8
BLACK
6
CONTINUOUS
10
0.5968453543307086
20
1.8731315748031496
11
0.6061205118110236
21
1.8486313779527559
0
LINE
8
BLACK
6
CONTINUOUS
10
0.6061205118110236
20
1.8486313779527559
11
0.6167644094488188
21
1.8246940157480314
0
LINE
8
BLACK
6
CONTINUOUS
10
0.6167644094488188
20
1.8246940157480314
11
0.628743031496063
21
1.8013959055118109
0
LINE
8
BLACK
6
CONTINUOUS
10
0.628743031496063
20
1.8013959055118109
11
0.642018188976378
21
1.7788114173228347
0
LINE
8
BLACK
6
CONTINUOUS
10
0.642018188976378
20
1.7788114173228347
11
0.6565475196850393
21
1.7570126377952755
0
LINE
8
BLACK
6
CONTINUOUS
10
0.6565475196850393
20
1.7570126377952755
11
0.6722846456692914
21
1.7360690944881889
0
LINE
8
BLACK
6
CONTINUOUS
10
0.6722846456692914
20
1.7360690944881889
11
0.6891793307086614
21
1.7160476377952756
0
LINE
8
BLACK
6
CONTINUOUS
10
0.6891793307086614
20
1.7160476377952756
11
0.7071776771653543
21
1.6970121653543306
0
LINE
8
BLACK
6
CONTINUOUS
10
0.7071776771653543
20
1.6970121653543306
11
0.7262222047244095
21
1.6790234251968503
0
LINE
8
BLACK
6
CONTINUOUS
10
0.7262222047244095
20
1.6790234251968503
11
0.7462522047244095
21
1.6621388582677166
0
LINE
8
BLACK
6
CONTINUOUS
10
0.7462522047244095
20
1.6621388582677166
11
0.7672037007874015
21
1.6464123228346457
0
LINE
8
BLACK
6
CONTINUOUS
10
0.7672037007874015
20
1.6464123228346457
11
0.7890098031496062
21
1.6318939763779527
0
LINE
8
BLACK
6
CONTINUOUS
10
0.7890098031496062
20
1.6318939763779527
11
0.8116009842519685
21
1.6186302362204723
0
LINE
8
BLACK
6
CONTINUOUS
10
0.8116009842519685
20
1.6186302362204723
11
0.8349051574803149
21
1.6066633464566928
0
LINE
8
BLACK
6
CONTINUOUS
10
0.8349051574803149
20
1.6066633464566928
11
0.858847874015748
21
1.5960315354330707
0
LINE
8
BLACK
6
CONTINUOUS
10
0.858847874015748
20
1.5960315354330707
11
0.8833527559055118
21
1.5867687795275591
0
LINE
8
BLACK
6
CONTINUOUS
10
0.8833527559055118
20
1.5867687795275591
11
0.9083416141732283
21
1.5789045275590552
0
LINE
8
BLACK
6
CONTINUOUS
10
0.9083416141732283
20
1.5789045275590552
11
0.9337346850393701
21
1.5724639763779527
0
LINE
8
BLACK
6
CONTINUOUS
10
0.9337346850393701
20
1.5724639763779527
11
0.9594509448818898
21
1.5674676377952756
0
LINE
8
BLACK
6
CONTINUOUS
10
0.9594509448818898
20
1.5674676377952756
11
0.9854083070866142
21
1.5639314960629922
0
LINE
8
BLACK
6
CONTINUOUS
10
0.9854083070866142
20
1.5639314960629922
11
1.0115239370078739
21
1.5618667716535433
0
LINE
8
BLACK
6
CONTINUOUS
10
1.0115239370078739
20
1.5618667716535433
11
1.0377144881889764
21
1.5612801181102363
0
LINE
8
BLACK
6
CONTINUOUS
10
1.0377144881889764
20
1.5612801181102363
11
1.0638963779527559
21
1.5621733464566929
0
LINE
8
BLACK
6
CONTINUOUS
10
1.0638963779527559
20
1.5621733464566929
11
1.0899860236220473
21
1.5645436614173227
0
LINE
8
BLACK
6
CONTINUOUS
10
1.0899860236220473
20
1.5645436614173227
11
1.1159002362204724
21
1.568383464566929
0
LINE
8
BLACK
6
CONTINUOUS
10
1.1159002362204724
20
1.568383464566929
11
1.141556220472441
21
1.5736805118110235
0
LINE
8
BLACK
6
CONTINUOUS
10
1.141556220472441
20
1.5736805118110235
11
1.1668721653543306
21
1.5804179133858267
0
LINE
8
BLACK
6
CONTINUOUS
10
1.1668721653543306
20
1.5804179133858267
11
1.1917672440944882
21
1.5885741338582677
0
LINE
8
BLACK
6
CONTINUOUS
10
1.1917672440944882
20
1.5885741338582677
11
1.2161620078740156
21
1.5981231889763778
0
LINE
8
BLACK
6
CONTINUOUS
10
1.2161620078740156
20
1.5981231889763778
11
1.2280700393700787
21
1.6035794881889764
0
LINE
8
BLACK
6
CONTINUOUS
10
1.2280700393700787
20
1.6035794881889764
11
1.2280700393700787
21
1.6035794488188977
0
LINE
8
BLACK
6
CONTINUOUS
10
1.2280700393700787
20
1.6035794488188977
11
1.2280912598425198
21
1.6035819291338582
0
LINE
8
BLACK
6
CONTINUOUS
10
1.2280912598425198
20
1.6035819291338582
11
1.2281033464566928
21
1.6035939763779528
0
LINE
8
BLACK
6
CONTINUOUS
10
1.2281033464566928
20
1.6035939763779528
11
1.2281953149606299
21
1.6035939763779528
0
LINE
8
BLACK
6
CONTINUOUS
10
1.2281953149606299
20
1.6035939763779528
11
1.2286742913385826
21
1.603649527559055
0
LINE
8
BLACK
6
CONTINUOUS
10
1.2286742913385826
20
1.603649527559055
11
1.2287729527559055
21
1.6035939763779528
0
LINE
8
BLACK
6
CONTINUOUS
10
1.2287729527559055
20
1.6035939763779528
11
1.228856653543307
21
1.6035939763779528
0
LINE
8
BLACK
6
CONTINUOUS
10
1.228856653543307
20
1.6035939763779528
11
1.2291759842519685
21
1.6033806299212598
0
LINE
8
BLACK
6
CONTINUOUS
10
1.2291759842519685
20
1.6033806299212598
11
1.3785313779527559
21
1.4540252362204724
0
LINE
8
BLACK
6
CONTINUOUS
10
1.3785313779527559
20
1.4540252362204724
11
1.6059747637795274
21
1.6814686220472441
0
LINE
8
BLACK
6
CONTINUOUS
10
1.6059747637795274
20
1.6814686220472441
11
1.4566193700787402
21
1.8308240157480316
0
LINE
8
BLACK
6
CONTINUOUS
10
1.4566193700787402
20
1.8308240157480316
11
1.4564060236220473
21
1.8311433464566929
0
LINE
8
BLACK
6
CONTINUOUS
10
1.4564060236220473
20
1.8311433464566929
11
1.4564060236220473
21
1.831896653543307
0
LINE
8
BLACK
6
CONTINUOUS
10
1.4564060236220473
20
1.831896653543307
11
1.4565003937007874
21
1.8319910629921259
0
LINE
8
BLACK
6
CONTINUOUS
10
1.4565003937007874
20
1.8319910629921259
11
1.4565179133858268
21
1.8321426771653544
0
LINE
8
BLACK
6
CONTINUOUS
10
1.4565179133858268
20
1.8321426771653544
11
1.4619682283464566
21
1.8440534645669291
0
LINE
8
BLACK
6
CONTINUOUS
10
1.4619682283464566
20
1.8440534645669291
11
1.4715049212598426
21
1.8684530708661418
0
LINE
8
BLACK
6
CONTINUOUS
10
1.4715049212598426
20
1.8684530708661418
11
1.4796485826771653
21
1.8933522440944881
0
LINE
8
BLACK
6
CONTINUOUS
10
1.4796485826771653
20
1.8933522440944881
11
1.4863731889763778
21
1.9186715748031495
0
LINE
8
BLACK
6
CONTINUOUS
10
1.4863731889763778
20
1.9186715748031495
11
1.4916573228346457
21
1.9443302755905512
0
LINE
8
BLACK
6
CONTINUOUS
10
1.4916573228346457
20
1.9443302755905512
11
1.4954840157480314
21
1.9702463779527559
0
LINE
8
BLACK
6
CONTINUOUS
10
1.4954840157480314
20
1.9702463779527559
11
1.4978411811023622
21
1.9963372440944882
0
LINE
8
BLACK
6
CONTINUOUS
10
1.4978411811023622
20
1.9963372440944882
11
1.4987212204724409
21
2.0225195669291338
0
LINE
8
BLACK
6
CONTINUOUS
10
1.4987212204724409
20
2.0225195669291338
11
1.4981212992125983
21
2.048709803149606
0
LINE
8
BLACK
6
CONTINUOUS
10
1.4981212992125983
20
2.048709803149606
11
1.4960434251968504
21
2.0748244094488189
0
LINE
8
BLACK
6
CONTINUOUS
10
1.4960434251968504
20
2.0748244094488189
11
1.4924941338582678
21
2.1007799606299211
0
LINE
8
BLACK
6
CONTINUOUS
10
1.4924941338582678
20
2.1007799606299211
11
1.4874848425196849
21
2.1264937007874014
0
LINE
8
BLACK
6
CONTINUOUS
10
1.4874848425196849
20
2.1264937007874014
11
1.4810314566929133
21
2.1518835433070866
0
LINE
8
BLACK
6
CONTINUOUS
10
1.4810314566929133
20
2.1518835433070866
11
1.4731546456692912
21
2.1768684251968504
0
LINE
8
BLACK
6
CONTINUOUS
10
1.4731546456692912
20
2.1768684251968504
11
1.4638794881889763
21
2.2013686220472439
0
LINE
8
BLACK
6
CONTINUOUS
10
1.4638794881889763
20
2.2013686220472439
11
1.4532355905511811
21
2.2253059842519685
0
LINE
8
BLACK
6
CONTINUOUS
10
1.4532355905511811
20
2.2253059842519685
11
1.4412569685039369
21
2.2486040944881891
0
LINE
8
BLACK
6
CONTINUOUS
10
1.4412569685039369
20
2.2486040944881891
11
1.427981811023622
21
2.2711885826771652
0
LINE
8
BLACK
6
CONTINUOUS
10
1.427981811023622
20
2.2711885826771652
11
1.4134524803149606
21
2.2929873622047245
0
LINE
8
BLACK
6
CONTINUOUS
10
1.4134524803149606
20
2.2929873622047245
11
1.3977153543307086
21
2.3139309055118109
0
LINE
8
BLACK
6
CONTINUOUS
10
1.3977153543307086
20
2.3139309055118109
11
1.3808206692913385
21
2.3339523622047245
0
LINE
8
BLACK
6
CONTINUOUS
10
1.3808206692913385
20
2.3339523622047245
11
1.3628223228346457
21
2.3529878346456692
0
LINE
8
BLACK
6
CONTINUOUS
10
1.3628223228346457
20
2.3529878346456692
11
1.3437777952755905
21
2.3709765748031497
0
LINE
8
BLACK
6
CONTINUOUS
10
1.3437777952755905
20
2.3709765748031497
11
1.3237477952755905
21
2.3878611417322833
0
LINE
8
BLACK
6
CONTINUOUS
10
1.3237477952755905
20
2.3878611417322833
11
1.3027962992125983
21
2.4035876771653544
0
LINE
8
BLACK
6
CONTINUOUS
10
1.3027962992125983
20
2.4035876771653544
11
1.2809901968503936
21
2.4181060236220473
0
LINE
8
BLACK
6
CONTINUOUS
10
1.2809901968503936
20
2.4181060236220473
11
1.2583990157480314
21
2.4313697637795273
0
LINE
8
BLACK
6
CONTINUOUS
10
1.2583990157480314
20
2.4313697637795273
11
1.235094842519685
21
2.443336653543307
0
LINE
8
BLACK
6
CONTINUOUS
10
1.235094842519685
20
2.443336653543307
11
1.2111521259842519
21
2.4539684645669291
0
LINE
8
BLACK
6
CONTINUOUS
10
1.2111521259842519
20
2.4539684645669291
11
1.1866472440944882
21
2.4632312204724407
0
LINE
8
BLACK
6
CONTINUOUS
10
1.1866472440944882
20
2.4632312204724407
11
1.1616583858267717
21
2.4710954724409446
0
LINE
8
BLACK
6
CONTINUOUS
10
1.1616583858267717
20
2.4710954724409446
11
1.1362653149606299
21
2.4775360236220472
0
LINE
8
BLACK
6
CONTINUOUS
10
1.1362653149606299
20
2.4775360236220472
11
1.1105490551181103
21
2.4825323622047244
0
LINE
8
BLACK
6
CONTINUOUS
10
1.1105490551181103
20
2.4825323622047244
11
1.0845916929133859
21
2.4860685039370076
0
LINE
8
BLACK
6
CONTINUOUS
10
1.0845916929133859
20
2.4860685039370076
11
1.0584760629921259
21
2.4881332283464568
0
LINE
8
BLACK
6
CONTINUOUS
10
1.0584760629921259
20
2.4881332283464568
11
1.0322855118110237
21
2.4887198818897636
0
LINE
8
BLACK
6
CONTINUOUS
10
1.0322855118110237
20
2.4887198818897636
11
1.0061036220472441
21
2.4878266535433071
0
LINE
8
BLACK
6
CONTINUOUS
10
1.0061036220472441
20
2.4878266535433071
11
0.9800139763779527
21
2.4854563385826771
0
LINE
8
BLACK
6
CONTINUOUS
10
0.9800139763779527
20
2.4854563385826771
11
0.9540997637795275
21
2.4816165354330706
0
LINE
8
BLACK
6
CONTINUOUS
10
0.9540997637795275
20
2.4816165354330706
11
0.9284437795275591
21
2.4763194881889765
0
LINE
8
BLACK
6
CONTINUOUS
10
0.9284437795275591
20
2.4763194881889765
11
0.9031278346456693
21
2.4695820866141731
0
LINE
8
BLACK
6
CONTINUOUS
10
0.9031278346456693
20
2.4695820866141731
11
0.8782327559055118
21
2.4614258661417323
0
LINE
8
BLACK
6
CONTINUOUS
10
0.8782327559055118
20
2.4614258661417323
11
0.8538379921259842
21
2.451876811023622
0
LINE
8
BLACK
6
CONTINUOUS
10
0.8538379921259842
20
2.451876811023622
11
0.8419299606299212
21
2.4464205118110236
0
LINE
8
BLACK
6
CONTINUOUS
10
0.8419299606299212
20
2.4464205118110236
11
0.8419299606299212
21
2.4464205511811024
0
LINE
8
BLACK
6
CONTINUOUS
10
0.8419299606299212
20
2.4464205511811024
11
0.8419087007874015
21
2.4464181102362206
0
LINE
8
BLACK
6
CONTINUOUS
10
0.8419087007874015
20
2.4464181102362206
11
0.8418966535433071
21
2.4464060236220471
0
LINE
8
BLACK
6
CONTINUOUS
10
0.8418966535433071
20
2.4464060236220471
11
0.84180468503937
21
2.4464060236220471
0
LINE
8
BLACK
6
CONTINUOUS
10
0.84180468503937
20
2.4464060236220471
11
0.8413257086614173
21
2.4463504724409448
0
LINE
8
BLACK
6
CONTINUOUS
10
0.8413257086614173
20
2.4463504724409448
11
0.8412270472440945
21
2.4464060236220471
0
LINE
8
BLACK
6
CONTINUOUS
10
0.8412270472440945
20
2.4464060236220471
11
0.8411433464566929
21
2.4464060236220471
0
LINE
8
BLACK
6
CONTINUOUS
10
0.8411433464566929
20
2.4464060236220471
11
0.8408240157480315
21
2.4466193700787402
0
LINE
8
BLACK
6
CONTINUOUS
10
0.8408240157480315
20
2.4466193700787402
11
0.6914685826771654
21
2.5959748031496064
0
LINE
8
BLACK
6
CONTINUOUS
10
0.6914685826771654
20
2.5959748031496064
11
0.4640251968503937
21
2.3685314173228345
0
LINE
8
BLACK
6
CONTINUOUS
10
1.8212427952755905
20
2.9721691732283464
11
1.8217754724409447
21
2.9716364960629922
0
LINE
8
BLACK
6
CONTINUOUS
10
1.8217754724409447
20
2.9716364960629922
11
1.8218503937007873
21
2.971259842519685
0
LINE
8
BLACK
6
CONTINUOUS
10
1.8218503937007873
20
2.971259842519685
11
1.8218503937007873
21
2.7291338582677165
0
LINE
8
BLACK
6
CONTINUOUS
10
1.8218503937007873
20
2.7291338582677165
11
1.8217754724409447
21
2.7287572047244093
0
LINE
8
BLACK
6
CONTINUOUS
10
1.8217754724409447
20
2.7287572047244093
11
1.8212427952755905
21
2.7282245275590551
0
LINE
8
BLACK
6
CONTINUOUS
10
1.8212427952755905
20
2.7282245275590551
11
1.8208661417322833
21
2.7281496062992123
0
LINE
8
BLACK
6
CONTINUOUS
10
1.8208661417322833
20
2.7281496062992123
11
0.1791338582677165
21
2.7281496062992123
0
LINE
8
BLACK
6
CONTINUOUS
10
0.1791338582677165
20
2.7281496062992123
11
0.1787572047244095
21
2.7282245275590551
0
LINE
8
BLACK
6
CONTINUOUS
10
0.1787572047244095
20
2.7282245275590551
11
0.1782245275590551
21
2.7287572047244093
0
LINE
8
BLACK
6
CONTINUOUS
10
0.1782245275590551
20
2.7287572047244093
11
0.1781496062992126
21
2.7291338582677165
0
LINE
8
BLACK
6
CONTINUOUS
10
0.1781496062992126
20
2.7291338582677165
11
0.1781496062992126
21
2.971259842519685
0
LINE
8
BLACK
6
CONTINUOUS
10
0.1781496062992126
20
2.971259842519685
11
0.1782245275590551
21
2.9716364960629922
0
LINE
8
BLACK
6
CONTINUOUS
10
0.1782245275590551
20
2.9716364960629922
11
0.1787572047244095
21
2.9721691732283464
0
LINE
8
BLACK
6
CONTINUOUS
10
0.1787572047244095
20
2.9721691732283464
11
0.1791338582677165
21
2.9722440944881887
0
LINE
8
BLACK
6
CONTINUOUS
10
0.1791338582677165
20
2.9722440944881887
11
1.8208661417322833
21
2.9722440944881887
0
LINE
8
BLACK
6
CONTINUOUS
10
1.8208661417322833
20
2.9722440944881887
11
1.8212427952755905
21
2.9721691732283464
0
LINE
8
BLACK
6
CONTINUOUS
10
0.1801181102362205
20
2.9702755905511808
11
0.1801181102362205
21
2.7301181102362202
0
LINE
8
BLACK
6
CONTINUOUS
10
0.1801181102362205
20
2.7301181102362202
11
1.8198818897637794
21
2.7301181102362202
0
LINE
8
BLACK
6
CONTINUOUS
10
1.8198818897637794
20
2.7301181102362202
11
1.8198818897637794
21
2.9702755905511808
0
LINE
8
BLACK
6
CONTINUOUS
10
1.8198818897637794
20
2.9702755905511808
11
0.1801181102362205
21
2.9702755905511808
0
LINE
8
BLACK
6
CONTINUOUS
10
1.0988018503937007
20
3.2605550000000001
11
1.0993345275590551
21
3.2600223228346454
0
LINE
8
BLACK
6
CONTINUOUS
10
1.0993345275590551
20
3.2600223228346454
11
1.0994094488188977
21
3.2596456692913387
0
LINE
8
BLACK
6
CONTINUOUS
10
1.0994094488188977
20
3.2596456692913387
11
1.0994094488188977
21
3.0175196850393702
0
LINE
8
BLACK
6
CONTINUOUS
10
1.0994094488188977
20
3.0175196850393702
11
1.0993345275590551
21
3.017143031496063
0
LINE
8
BLACK
6
CONTINUOUS
10
1.0993345275590551
20
3.017143031496063
11
1.0988018503937007
21
3.0166103543307088
0
LINE
8
BLACK
6
CONTINUOUS
10
1.0988018503937007
20
3.0166103543307088
11
1.0984251968503937
21
3.016535433070866
0
LINE
8
BLACK
6
CONTINUOUS
10
1.0984251968503937
20
3.016535433070866
11
0.9566929133858267
21
3.016535433070866
0
LINE
8
BLACK
6
CONTINUOUS
10
0.9566929133858267
20
3.016535433070866
11
0.9563162598425197
21
3.0166103543307088
0
LINE
8
BLACK
6
CONTINUOUS
10
0.9563162598425197
20
3.0166103543307088
11
0.9557835826771653
21
3.017143031496063
0
LINE
8
BLACK
6
CONTINUOUS
10
0.9557835826771653
20
3.017143031496063
11
0.9557086614173228
21
3.0175196850393702
0
LINE
8
BLACK
6
CONTINUOUS
10
0.9557086614173228
20
3.0175196850393702
11
0.9557086614173228
21
3.2596456692913387
0
LINE
8
BLACK
6
CONTINUOUS
10
0.9557086614173228
20
3.2596456692913387
11
0.9557835826771653
21
3.2600223228346454
0
LINE
8
BLACK
6
CONTINUOUS
10
0.9557835826771653
20
3.2600223228346454
11
0.9563162598425197
21
3.2605550000000001
0
LINE
8
BLACK
6
CONTINUOUS
10
0.9563162598425197
20
3.2605550000000001
11
0.9566929133858267
21
3.2606299212598424
0
LINE
8
BLACK
6
CONTINUOUS
10
0.9566929133858267
20
3.2606299212598424
11
1.0984251968503937
21
3.2606299212598424
0
LINE
8
BLACK
6
CONTINUOUS
10
1.0984251968503937
20
3.2606299212598424
11
1.0988018503937007
21
3.2605550000000001
0
LINE
8
BLACK
6
CONTINUOUS
10
0.9576771653543307
20
3.2586614173228345
11
0.9576771653543307
21
3.0185039370078739
0
LINE
8
BLACK
6
CONTINUOUS
10
0.9576771653543307
20
3.0185039370078739
11
1.0974409448818898
21
3.0185039370078739
0
LINE
8
BLACK
6
CONTINUOUS
10
1.0974409448818898
20
3.0185039370078739
11
1.0974409448818898
21
3.2586614173228345
0
LINE
8
BLACK
6
CONTINUOUS
10
1.0974409448818898
20
3.2586614173228345
11
0.9576771653543307
21
3.2586614173228345
0
LINE
8
BLACK
6
CONTINUOUS
10
0.9330538188976377
20
3.4119329527559055
11
0.9335864960629922
21
3.4114002755905513
0
LINE
8
BLACK
6
CONTINUOUS
10
0.9335864960629922
20
3.4114002755905513
11
0.9336614173228346
21
3.4110236220472441
0
LINE
8
BLACK
6
CONTINUOUS
10
0.9336614173228346
20
3.4110236220472441
11
0.9336614173228346
21
3.070472440944882
0
LINE
8
BLACK
6
CONTINUOUS
10
0.9336614173228346
20
3.070472440944882
11
0.9335864960629922
21
3.0700957874015748
0
LINE
8
BLACK
6
CONTINUOUS
10
0.9335864960629922
20
3.0700957874015748
11
0.9330538188976377
21
3.0695631102362202
0
LINE
8
BLACK
6
CONTINUOUS
10
0.9330538188976377
20
3.0695631102362202
11
0.9326771653543307
21
3.0694881889763779
0
LINE
8
BLACK
6
CONTINUOUS
10
0.9326771653543307
20
3.0694881889763779
11
0.6905511811023622
21
3.0694881889763779
0
LINE
8
BLACK
6
CONTINUOUS
10
0.6905511811023622
20
3.0694881889763779
11
0.6901745275590551
21
3.0695631102362202
0
LINE
8
BLACK
6
CONTINUOUS
10
0.6901745275590551
20
3.0695631102362202
11
0.6896418503937007
21
3.0700957874015748
0
LINE
8
BLACK
6
CONTINUOUS
10
0.6896418503937007
20
3.0700957874015748
11
0.6895669291338582
21
3.070472440944882
0
LINE
8
BLACK
6
CONTINUOUS
10
0.6895669291338582
20
3.070472440944882
11
0.6895669291338582
21
3.4110236220472441
0
LINE
8
BLACK
6
CONTINUOUS
10
0.6895669291338582
20
3.4110236220472441
11
0.6896418503937007
21
3.4114002755905513
0
LINE
8
BLACK
6
CONTINUOUS
10
0.6896418503937007
20
3.4114002755905513
11
0.6901745275590551
21
3.4119329527559055
0
LINE
8
BLACK
6
CONTINUOUS
10
0.6901745275590551
20
3.4119329527559055
11
0.6905511811023622
21
3.4120078740157478
0
LINE
8
BLACK
6
CONTINUOUS
10
0.6905511811023622
20
3.4120078740157478
11
0.9326771653543307
21
3.4120078740157478
0
LINE
8
BLACK
6
CONTINUOUS
10
0.9326771653543307
20
3.4120078740157478
11
0.9330538188976377
21
3.4119329527559055
0
LINE
8
BLACK
6
CONTINUOUS
10
0.6915354330708662
20
3.4100393700787399
11
0.6915354330708662
21
3.0714566929133857
0
LINE
8
BLACK
6
CONTINUOUS
10
0.6915354330708662
20
3.0714566929133857
11
0.9316929133858267
21
3.0714566929133857
0
LINE
8
BLACK
6
CONTINUOUS
10
0.9316929133858267
20
3.0714566929133857
11
0.9316929133858267
21
3.4100393700787399
0
LINE
8
BLACK
6
CONTINUOUS
10
0.9316929133858267
20
3.4100393700787399
11
0.6915354330708662
21
3.4100393700787399
0
LINE
8
BLACK
6
CONTINUOUS
10
0.4787231102362204
20
3.5164605118110237
11
0.4792557874015748
21
3.515927834645669
0
LINE
8
BLACK
6
CONTINUOUS
10
0.4792557874015748
20
3.515927834645669
11
0.4793307086614173
21
3.5155511811023623
0
LINE
8
BLACK
6
CONTINUOUS
10
0.4793307086614173
20
3.5155511811023623
11
0.4793307086614173
21
3.2734251968503938
0
LINE
8
BLACK
6
CONTINUOUS
10
0.4793307086614173
20
3.2734251968503938
11
0.4792557874015748
21
3.2730485433070866
0
LINE
8
BLACK
6
CONTINUOUS
10
0.4792557874015748
20
3.2730485433070866
11
0.4787231102362204
21
3.2725158661417324
0
LINE
8
BLACK
6
CONTINUOUS
10
0.4787231102362204
20
3.2725158661417324
11
0.4783464566929134
21
3.2724409448818896
0
LINE
8
BLACK
6
CONTINUOUS
10
0.4783464566929134
20
3.2724409448818896
11
0.3366141732283465
21
3.2724409448818896
0
LINE
8
BLACK
6
CONTINUOUS
10
0.3366141732283465
20
3.2724409448818896
11
0.3362375196850393
21
3.2725158661417324
0
LINE
8
BLACK
6
CONTINUOUS
10
0.3362375196850393
20
3.2725158661417324
11
0.335704842519685
21
3.2730485433070866
0
LINE
8
BLACK
6
CONTINUOUS
10
0.335704842519685
20
3.2730485433070866
11
0.3356299212598425
21
3.2734251968503938
0
LINE
8
BLACK
6
CONTINUOUS
10
0.3356299212598425
20
3.2734251968503938
11
0.3356299212598425
21
3.5155511811023623
0
LINE
8
BLACK
6
CONTINUOUS
10
0.3356299212598425
20
3.5155511811023623
11
0.335704842519685
21
3.515927834645669
0
LINE
8
BLACK
6
CONTINUOUS
10
0.335704842519685
20
3.515927834645669
11
0.3362375196850393
21
3.5164605118110237
0
LINE
8
BLACK
6
CONTINUOUS
10
0.3362375196850393
20
3.5164605118110237
11
0.3366141732283465
21
3.516535433070866
0
LINE
8
BLACK
6
CONTINUOUS
10
0.3366141732283465
20
3.516535433070866
11
0.4783464566929134
21
3.516535433070866
0
LINE
8
BLACK
6
CONTINUOUS
10
0.4783464566929134
20
3.516535433070866
11
0.4787231102362204
21
3.5164605118110237
0
LINE
8
BLACK
6
CONTINUOUS
10
0.3375984251968504
20
3.5145669291338582
11
0.3375984251968504
21
3.2744094488188975
0
LINE
8
BLACK
6
CONTINUOUS
10
0.3375984251968504
20
3.2744094488188975
11
0.4773622047244094
21
3.2744094488188975
0
LINE
8
BLACK
6
CONTINUOUS
10
0.4773622047244094
20
3.2744094488188975
11
0.4773622047244094
21
3.5145669291338582
0
LINE
8
BLACK
6
CONTINUOUS
10
0.4773622047244094
20
3.5145669291338582
11
0.3375984251968504
21
3.5145669291338582
0
LINE
8
BLACK
6
CONTINUOUS
10
0.2135547637795276
20
3.5203017716535432
11
0.2269390551181102
21
3.5180276771653545
0
LINE
8
BLACK
6
CONTINUOUS
10
0.2269390551181102
20
3.5180276771653545
11
0.2399845669291339
21
3.5142693307086614
0
LINE
8
BLACK
6
CONTINUOUS
10
0.2399845669291339
20
3.5142693307086614
11
0.2525272440944882
21
3.5090739763779526
0
LINE
8
BLACK
6
CONTINUOUS
10
0.2525272440944882
20
3.5090739763779526
11
0.2644094094488189
21
3.5025069685039369
0
LINE
8
BLACK
6
CONTINUOUS
10
0.2644094094488189
20
3.5025069685039369
11
0.2754815354330709
21
3.4946508661417321
0
LINE
8
BLACK
6
CONTINUOUS
10
0.2754815354330709
20
3.4946508661417321
11
0.2856044488188976
21
3.4856044488188975
0
LINE
8
BLACK
6
CONTINUOUS
10
0.2856044488188976
20
3.4856044488188975
11
0.2946508661417323
21
3.4754815354330706
0
LINE
8
BLACK
6
CONTINUOUS
10
0.2946508661417323
20
3.4754815354330706
11
0.302506968503937
21
3.4644094094488187
0
LINE
8
BLACK
6
CONTINUOUS
10
0.302506968503937
20
3.4644094094488187
11
0.3090739763779528
21
3.4525272440944881
0
LINE
8
BLACK
6
CONTINUOUS
10
0.3090739763779528
20
3.4525272440944881
11
0.3142693307086614
21
3.4399845669291338
0
LINE
8
BLACK
6
CONTINUOUS
10
0.3142693307086614
20
3.4399845669291338
11
0.3180276771653543
21
3.42693905511811
0
LINE
8
BLACK
6
CONTINUOUS
10
0.3180276771653543
20
3.42693905511811
11
0.3203017716535433
21
3.4135547637795276
0
LINE
8
BLACK
6
CONTINUOUS
10
0.3203017716535433
20
3.4135547637795276
11
0.3210629921259843
21
3.3999999999999999
0
LINE
8
BLACK
6
CONTINUOUS
10
0.3210629921259843
20
3.3999999999999999
11
0.3203017716535433
21
3.3864452362204722
0
LINE
8
BLACK
6
CONTINUOUS
10
0.3203017716535433
20
3.3864452362204722
11
0.3180276771653543
21
3.3730609448818898
0
LINE
8
BLACK
6
CONTINUOUS
10
0.3180276771653543
20
3.3730609448818898
11
0.3142693307086614
21
3.360015433070866
0
LINE
8
BLACK
6
CONTINUOUS
10
0.3142693307086614
20
3.360015433070866
11
0.3090739763779528
21
3.3474727559055117
0
LINE
8
BLACK
6
CONTINUOUS
10
0.3090739763779528
20
3.3474727559055117
11
0.302506968503937
21
3.3355905905511811
0
LINE
8
BLACK
6
CONTINUOUS
10
0.302506968503937
20
3.3355905905511811
11
0.2946508661417323
21
3.3245184645669292
0
LINE
8
BLACK
6
CONTINUOUS
10
0.2946508661417323
20
3.3245184645669292
11
0.2856044488188976
21
3.3143955511811023
0
LINE
8
BLACK
6
CONTINUOUS
10
0.2856044488188976
20
3.3143955511811023
11
0.2754815354330709
21
3.3053491338582677
0
LINE
8
BLACK
6
CONTINUOUS
10
0.2754815354330709
20
3.3053491338582677
11
0.2644094094488189
21
3.2974930314960629
0
LINE
8
BLACK
6
CONTINUOUS
10
0.2644094094488189
20
3.2974930314960629
11
0.2525272440944882
21
3.2909260236220472
0
LINE
8
BLACK
6
CONTINUOUS
10
0.2525272440944882
20
3.2909260236220472
11
0.2399845669291339
21
3.2857306692913384
0
LINE
8
BLACK
6
CONTINUOUS
10
0.2399845669291339
20
3.2857306692913384
11
0.2269390551181102
21
3.2819723228346458
0
LINE
8
BLACK
6
CONTINUOUS
10
0.2269390551181102
20
3.2819723228346458
11
0.2135547637795276
21
3.2796982283464566
0
LINE
8
BLACK
6
CONTINUOUS
10
0.2135547637795276
20
3.2796982283464566
11
0.2
21
3.2789370078740157
0
LINE
8
BLACK
6
CONTINUOUS
10
0.2
20
3.2789370078740157
11
0.1864452362204724
21
3.2796982283464566
0
LINE
8
BLACK
6
CONTINUOUS
10
0.1864452362204724
20
3.2796982283464566
11
0.1730609448818898
21
3.2819723228346458
0
LINE
8
BLACK
6
CONTINUOUS
10
0.1730609448818898
20
3.2819723228346458
11
0.1600154330708661
21
3.2857306692913384
0
LINE
8
BLACK
6
CONTINUOUS
10
0.1600154330708661
20
3.2857306692913384
11
0.1474727559055118
21
3.2909260236220472
0
LINE
8
BLACK
6
CONTINUOUS
10
0.1474727559055118
20
3.2909260236220472
11
0.1355905905511811
21
3.2974930314960629
0
LINE
8
BLACK
6
CONTINUOUS
10
0.1355905905511811
20
3.2974930314960629
11
0.1245184645669291
21
3.3053491338582677
0
LINE
8
BLACK
6
CONTINUOUS
10
0.1245184645669291
20
3.3053491338582677
11
0.1143955511811024
21
3.3143955511811023
0
LINE
8
BLACK
6
CONTINUOUS
10
0.1143955511811024
20
3.3143955511811023
11
0.1053491338582677
21
3.3245184645669292
0
LINE
8
BLACK
6
CONTINUOUS
10
0.1053491338582677
20
3.3245184645669292
11
0.097493031496063
21
3.3355905905511811
0
LINE
8
BLACK
6
CONTINUOUS
10
0.097493031496063
20
3.3355905905511811
11
0.0909260236220472
21
3.3474727559055117
0
LINE
8
BLACK
6
CONTINUOUS
10
0.0909260236220472
20
3.3474727559055117
11
0.0857306692913386
21
3.360015433070866
0
LINE
8
BLACK
6
CONTINUOUS
10
0.0857306692913386
20
3.360015433070866
11
0.0819723228346457
21
3.3730609448818898
0
LINE
8
BLACK
6
CONTINUOUS
10
0.0819723228346457
20
3.3730609448818898
11
0.0796982283464567
21
3.3864452362204722
0
LINE
8
BLACK
6
CONTINUOUS
10
0.0796982283464567
20
3.3864452362204722
11
0.0789370078740158
21
3.3999999999999999
0
LINE
8
BLACK
6
CONTINUOUS
10
0.0789370078740158
20
3.3999999999999999
11
0.0796982283464567
21
3.4135547637795276
0
LINE
8
BLACK
6
CONTINUOUS
10
0.0796982283464567
20
3.4135547637795276
11
0.0819723228346457
21
3.42693905511811
0
LINE
8
BLACK
6
CONTINUOUS
10
0.0819723228346457
20
3.42693905511811
11
0.0857306692913386
21
3.4399845669291338
0
LINE
8
BLACK
6
CONTINUOUS
10
0.0857306692913386
20
3.4399845669291338
11
0.0909260236220472
21
3.4525272440944881
0
LINE
8
BLACK
6
CONTINUOUS
10
0.0909260236220472
20
3.4525272440944881
11
0.097493031496063
21
3.4644094094488187
0
LINE
8
BLACK
6
CONTINUOUS
10
0.097493031496063
20
3.4644094094488187
11
0.1053491338582677
21
3.4754815354330706
0
LINE
8
BLACK
6
CONTINUOUS
10
0.1053491338582677
20
3.4754815354330706
11
0.1143955511811024
21
3.4856044488188975
0
LINE
8
BLACK
6
CONTINUOUS
10
0.1143955511811024
20
3.4856044488188975
11
0.1245184645669291
21
3.4946508661417321
0
LINE
8
BLACK
6
CONTINUOUS
10
0.1245184645669291
20
3.4946508661417321
11
0.1355905905511811
21
3.5025069685039369
0
LINE
8
BLACK
6
CONTINUOUS
10
0.1355905905511811
20
3.5025069685039369
11
0.1474727559055118
21
3.5090739763779526
0
LINE
8
BLACK
6
CONTINUOUS
10
0.1474727559055118
20
3.5090739763779526
11
0.1600154330708661
21
3.5142693307086614
0
LINE
8
BLACK
6
CONTINUOUS
10
0.1600154330708661
20
3.5142693307086614
11
0.1730609448818898
21
3.5180276771653545
0
LINE
8
BLACK
6
CONTINUOUS
10
0.1730609448818898
20
3.5180276771653545
11
0.1864452362204724
21
3.5203017716535432
0
LINE
8
BLACK
6
CONTINUOUS
10
0.1864452362204724
20
3.5203017716535432
11
0.2
21
3.5210629921259842
0
LINE
8
BLACK
6
CONTINUOUS
10
0.2
20
3.5210629921259842
11
0.2135547637795276
21
3.5203017716535432
0
LINE
8
BLACK
6
CONTINUOUS
10
0.0814679133858268
20
3.3866446456692914
11
0.0837085433070866
21
3.3734572440944883
0
LINE
8
BLACK
6
CONTINUOUS
10
0.0837085433070866
20
3.3734572440944883
11
0.0874115748031496
21
3.3606036220472442
0
LINE
8
BLACK
6
CONTINUOUS
10
0.0874115748031496
20
3.3606036220472442
11
0.0925305118110236
21
3.3482454330708662
0
LINE
8
BLACK
6
CONTINUOUS
10
0.0925305118110236
20
3.3482454330708662
11
0.0990009448818898
21
3.3365380708661418
0
LINE
8
BLACK
6
CONTINUOUS
10
0.0990009448818898
20
3.3365380708661418
11
0.1067414960629921
21
3.3256288188976377
0
LINE
8
BLACK
6
CONTINUOUS
10
0.1067414960629921
20
3.3256288188976377
11
0.1156548031496063
21
3.3156548031496063
0
LINE
8
BLACK
6
CONTINUOUS
10
0.1156548031496063
20
3.3156548031496063
11
0.1256288188976378
21
3.3067414960629922
0
LINE
8
BLACK
6
CONTINUOUS
10
0.1256288188976378
20
3.3067414960629922
11
0.1365380708661417
21
3.2990009448818896
0
LINE
8
BLACK
6
CONTINUOUS
10
0.1365380708661417
20
3.2990009448818896
11
0.1482454330708661
21
3.2925305118110235
0
LINE
8
BLACK
6
CONTINUOUS
10
0.1482454330708661
20
3.2925305118110235
11
0.1606036220472441
21
3.2874115748031496
0
LINE
8
BLACK
6
CONTINUOUS
10
0.1606036220472441
20
3.2874115748031496
11
0.1734572440944882
21
3.2837085433070867
0
LINE
8
BLACK
6
CONTINUOUS
10
0.1734572440944882
20
3.2837085433070867
11
0.1866446456692913
21
3.2814679133858267
0
LINE
8
BLACK
6
CONTINUOUS
10
0.1866446456692913
20
3.2814679133858267
11
0.2
21
3.2807178740157479
0
LINE
8
BLACK
6
CONTINUOUS
10
0.2
20
3.2807178740157479
11
0.2133553543307087
21
3.2814679133858267
0
LINE
8
BLACK
6
CONTINUOUS
10
0.2133553543307087
20
3.2814679133858267
11
0.2265427559055118
21
3.2837085433070867
0
LINE
8
BLACK
6
CONTINUOUS
10
0.2265427559055118
20
3.2837085433070867
11
0.2393963779527559
21
3.2874115748031496
0
LINE
8
BLACK
6
CONTINUOUS
10
0.2393963779527559
20
3.2874115748031496
11
0.2517545669291338
21
3.2925305118110235
0
LINE
8
BLACK
6
CONTINUOUS
10
0.2517545669291338
20
3.2925305118110235
11
0.2634619291338582
21
3.2990009448818896
0
LINE
8
BLACK
6
CONTINUOUS
10
0.2634619291338582
20
3.2990009448818896
11
0.2743711811023622
21
3.3067414960629922
0
LINE
8
BLACK
6
CONTINUOUS
10
0.2743711811023622
20
3.3067414960629922
11
0.2843451968503937
21
3.3156548031496063
0
LINE
8
BLACK
6
CONTINUOUS
10
0.2843451968503937
20
3.3156548031496063
11
0.2932585039370079
21
3.3256288188976377
0
LINE
8
BLACK
6
CONTINUOUS
10
0.2932585039370079
20
3.3256288188976377
11
0.3009990551181102
21
3.3365380708661418
0
LINE
8
BLACK
6
CONTINUOUS
10
0.3009990551181102
20
3.3365380708661418
11
0.3074694881889763
21
3.3482454330708662
0
LINE
8
BLACK
6
CONTINUOUS
10
0.3074694881889763
20
3.3482454330708662
11
0.3125884251968504
21
3.3606036220472442
0
LINE
8
BLACK
6
CONTINUOUS
10
0.3125884251968504
20
3.3606036220472442
11
0.3162914566929134
21
3.3734572440944883
0
LINE
8
BLACK
6
CONTINUOUS
10
0.3162914566929134
20
3.3734572440944883
11
0.3185320866141732
21
3.3866446456692914
0
LINE
8
BLACK
6
CONTINUOUS
10
0.3185320866141732
20
3.3866446456692914
11
0.319282125984252
21
3.3999999999999999
0
LINE
8
BLACK
6
CONTINUOUS
10
0.319282125984252
20
3.3999999999999999
11
0.3185320866141732
21
3.4133553543307085
0
LINE
8
BLACK
6
CONTINUOUS
10
0.3185320866141732
20
3.4133553543307085
11
0.3162914566929134
21
3.4265427559055119
0
LINE
8
BLACK
6
CONTINUOUS
10
0.3162914566929134
20
3.4265427559055119
11
0.3125884251968504
21
3.4393963779527557
0
LINE
8
BLACK
6
CONTINUOUS
10
0.3125884251968504
20
3.4393963779527557
11
0.3074694881889763
21
3.4517545669291336
0
LINE
8
BLACK
6
CONTINUOUS
10
0.3074694881889763
20
3.4517545669291336
11
0.3009990551181102
21
3.463461929133858
0
LINE
8
BLACK
6
CONTINUOUS
10
0.3009990551181102
20
3.463461929133858
11
0.2932585039370079
21
3.4743711811023621
0
LINE
8
BLACK
6
CONTINUOUS
10
0.2932585039370079
20
3.4743711811023621
11
0.2843451968503937
21
3.4843451968503936
0
LINE
8
BLACK
6
CONTINUOUS
10
0.2843451968503937
20
3.4843451968503936
11
0.2743711811023622
21
3.4932585039370077
0
LINE
8
BLACK
6
CONTINUOUS
10
0.2743711811023622
20
3.4932585039370077
11
0.2634619291338582
21
3.5009990551181103
0
LINE
8
BLACK
6
CONTINUOUS
10
0.2634619291338582
20
3.5009990551181103
11
0.2517545669291338
21
3.5074694881889763
0
LINE
8
BLACK
6
CONTINUOUS
10
0.2517545669291338
20
3.5074694881889763
11
0.2393963779527559
21
3.5125884251968502
0
LINE
8
BLACK
6
CONTINUOUS
10
0.2393963779527559
20
3.5125884251968502
11
0.2265427559055118
21
3.5162914566929131
0
LINE
8
BLACK
6
CONTINUOUS
10
0.2265427559055118
20
3.5162914566929131
11
0.2133553543307087
21
3.5185320866141732
0
LINE
8
BLACK
6
CONTINUOUS
10
0.2133553543307087
20
3.5185320866141732
11
0.2
21
3.5192821259842519
0
LINE
8
BLACK
6
CONTINUOUS
10
0.2
20
3.5192821259842519
11
0.1866446456692913
21
3.5185320866141732
0
LINE
8
BLACK
6
CONTINUOUS
10
0.1866446456692913
20
3.5185320866141732
11
0.1734572440944882
21
3.5162914566929131
0
LINE
8
BLACK
6
CONTINUOUS
10
0.1734572440944882
20
3.5162914566929131
11
0.1606036220472441
21
3.5125884251968502
0
LINE
8
BLACK
6
CONTINUOUS
10
0.1606036220472441
20
3.5125884251968502
11
0.1482454330708661
21
3.5074694881889763
0
LINE
8
BLACK
6
CONTINUOUS
10
0.1482454330708661
20
3.5074694881889763
11
0.1365380708661417
21
3.5009990551181103
0
LINE
8
BLACK
6
CONTINUOUS
10
0.1365380708661417
20
3.5009990551181103
11
0.1256288188976378
21
3.4932585039370077
0
LINE
8
BLACK
6
CONTINUOUS
10
0.1256288188976378
20
3.4932585039370077
11
0.1156548031496063
21
3.4843451968503936
0
LINE
8
BLACK
6
CONTINUOUS
10
0.1156548031496063
20
3.4843451968503936
11
0.1067414960629921
21
3.4743711811023621
0
LINE
8
BLACK
6
CONTINUOUS
10
0.1067414960629921
20
3.4743711811023621
11
0.0990009448818898
21
3.463461929133858
0
LINE
8
BLACK
6
CONTINUOUS
10
0.0990009448818898
20
3.463461929133858
11
0.0925305118110236
21
3.4517545669291336
0
LINE
8
BLACK
6
CONTINUOUS
10
0.0925305118110236
20
3.4517545669291336
11
0.0874115748031496
21
3.4393963779527557
0
LINE
8
BLACK
6
CONTINUOUS
10
0.0874115748031496
20
3.4393963779527557
11
0.0837085433070866
21
3.4265427559055119
0
LINE
8
BLACK
6
CONTINUOUS
10
0.0837085433070866
20
3.4265427559055119
11
0.0814679133858268
21
3.4133553543307085
0
LINE
8
BLACK
6
CONTINUOUS
10
0.0814679133858268
20
3.4133553543307085
11
0.080717874015748
21
3.3999999999999999
0
LINE
8
BLACK
6
CONTINUOUS
10
0.080717874015748
20
3.3999999999999999
11
0.0814679133858268
21
3.3866446456692914
0
LINE
8
BLACK
6
CONTINUOUS
10
1.8135547637795275
20
3.5203017716535432
11
1.8269390551181102
21
3.5180276771653545
0
LINE
8
BLACK
6
CONTINUOUS
10
1.8269390551181102
20
3.5180276771653545
11
1.8399845669291339
21
3.5142693307086614
0
LINE
8
BLACK
6
CONTINUOUS
10
1.8399845669291339
20
3.5142693307086614
11
1.8525272440944882
21
3.5090739763779526
0
LINE
8
BLACK
6
CONTINUOUS
10
1.8525272440944882
20
3.5090739763779526
11
1.8644094094488188
21
3.5025069685039369
0
LINE
8
BLACK
6
CONTINUOUS
10
1.8644094094488188
20
3.5025069685039369
11
1.8754815354330707
21
3.4946508661417321
0
LINE
8
BLACK
6
CONTINUOUS
10
1.8754815354330707
20
3.4946508661417321
11
1.8856044488188977
21
3.4856044488188975
0
LINE
8
BLACK
6
CONTINUOUS
10
1.8856044488188977
20
3.4856044488188975
11
1.8946508661417323
21
3.4754815354330706
0
LINE
8
BLACK
6
CONTINUOUS
10
1.8946508661417323
20
3.4754815354330706
11
1.9025069685039369
21
3.4644094094488187
0
LINE
8
BLACK
6
CONTINUOUS
10
1.9025069685039369
20
3.4644094094488187
11
1.9090739763779527
21
3.4525272440944881
0
LINE
8
BLACK
6
CONTINUOUS
10
1.9090739763779527
20
3.4525272440944881
11
1.9142693307086613
21
3.4399845669291338
0
LINE
8
BLACK
6
CONTINUOUS
10
1.9142693307086613
20
3.4399845669291338
11
1.9180276771653544
21
3.42693905511811
0
LINE
8
BLACK
6
CONTINUOUS
10
1.9180276771653544
20
3.42693905511811
11
1.9203017716535433
21
3.4135547637795276
0
LINE
8
BLACK
6
CONTINUOUS
10
1.9203017716535433
20
3.4135547637795276
11
1.9210629921259843
21
3.3999999999999999
0
LINE
8
BLACK
6
CONTINUOUS
10
1.9210629921259843
20
3.3999999999999999
11
1.9203017716535433
21
3.3864452362204722
0
LINE
8
BLACK
6
CONTINUOUS
10
1.9203017716535433
20
3.3864452362204722
11
1.9180276771653544
21
3.3730609448818898
0
LINE
8
BLACK
6
CONTINUOUS
10
1.9180276771653544
20
3.3730609448818898
11
1.9142693307086613
21
3.360015433070866
0
LINE
8
BLACK
6
CONTINUOUS
10
1.9142693307086613
20
3.360015433070866
11
1.9090739763779527
21
3.3474727559055117
0
LINE
8
BLACK
6
CONTINUOUS
10
1.9090739763779527
20
3.3474727559055117
11
1.9025069685039369
21
3.3355905905511811
0
LINE
8
BLACK
6
CONTINUOUS
10
1.9025069685039369
20
3.3355905905511811
11
1.8946508661417323
21
3.3245184645669292
0
LINE
8
BLACK
6
CONTINUOUS
10
1.8946508661417323
20
3.3245184645669292
11
1.8856044488188977
21
3.3143955511811023
0
LINE
8
BLACK
6
CONTINUOUS
10
1.8856044488188977
20
3.3143955511811023
11
1.8754815354330707
21
3.3053491338582677
0
LINE
8
BLACK
6
CONTINUOUS
10
1.8754815354330707
20
3.3053491338582677
11
1.8644094094488188
21
3.2974930314960629
0
LINE
8
BLACK
6
CONTINUOUS
10
1.8644094094488188
20
3.2974930314960629
11
1.8525272440944882
21
3.2909260236220472
0
LINE
8
BLACK
6
CONTINUOUS
10
1.8525272440944882
20
3.2909260236220472
11
1.8399845669291339
21
3.2857306692913384
0
LINE
8
BLACK
6
CONTINUOUS
10
1.8399845669291339
20
3.2857306692913384
11
1.8269390551181102
21
3.2819723228346458
0
LINE
8
BLACK
6
CONTINUOUS
10
1.8269390551181102
20
3.2819723228346458
11
1.8135547637795275
21
3.2796982283464566
0
LINE
8
BLACK
6
CONTINUOUS
10
1.8135547637795275
20
3.2796982283464566
11
1.8
21
3.2789370078740157
0
LINE
8
BLACK
6
CONTINUOUS
10
1.8
20
3.2789370078740157
11
1.7864452362204724
21
3.2796982283464566
0
LINE
8
BLACK
6
CONTINUOUS
10
1.7864452362204724
20
3.2796982283464566
11
1.7730609448818897
21
3.2819723228346458
0
LINE
8
BLACK
6
CONTINUOUS
10
1.7730609448818897
20
3.2819723228346458
11
1.7600154330708662
21
3.2857306692913384
0
LINE
8
BLACK
6
CONTINUOUS
10
1.7600154330708662
20
3.2857306692913384
11
1.7474727559055119
21
3.2909260236220472
0
LINE
8
BLACK
6
CONTINUOUS
10
1.7474727559055119
20
3.2909260236220472
11
1.735590590551181
21
3.2974930314960629
0
LINE
8
BLACK
6
CONTINUOUS
10
1.735590590551181
20
3.2974930314960629
11
1.7245184645669291
21
3.3053491338582677
0
LINE
8
BLACK
6
CONTINUOUS
10
1.7245184645669291
20
3.3053491338582677
11
1.7143955511811024
21
3.3143955511811023
0
LINE
8
BLACK
6
CONTINUOUS
10
1.7143955511811024
20
3.3143955511811023
11
1.7053491338582676
21
3.3245184645669292
0
LINE
8
BLACK
6
CONTINUOUS
10
1.7053491338582676
20
3.3245184645669292
11
1.697493031496063
21
3.3355905905511811
0
LINE
8
BLACK
6
CONTINUOUS
10
1.697493031496063
20
3.3355905905511811
11
1.6909260236220471
21
3.3474727559055117
0
LINE
8
BLACK
6
CONTINUOUS
10
1.6909260236220471
20
3.3474727559055117
11
1.6857306692913385
21
3.360015433070866
0
LINE
8
BLACK
6
CONTINUOUS
10
1.6857306692913385
20
3.360015433070866
11
1.6819723228346457
21
3.3730609448818898
0
LINE
8
BLACK
6
CONTINUOUS
10
1.6819723228346457
20
3.3730609448818898
11
1.6796982283464565
21
3.3864452362204722
0
LINE
8
BLACK
6
CONTINUOUS
10
1.6796982283464565
20
3.3864452362204722
11
1.6789370078740158
21
3.3999999999999999
0
LINE
8
BLACK
6
CONTINUOUS
10
1.6789370078740158
20
3.3999999999999999
11
1.6796982283464565
21
3.4135547637795276
0
LINE
8
BLACK
6
CONTINUOUS
10
1.6796982283464565
20
3.4135547637795276
11
1.6819723228346457
21
3.42693905511811
0
LINE
8
BLACK
6
CONTINUOUS
10
1.6819723228346457
20
3.42693905511811
11
1.6857306692913385
21
3.4399845669291338
0
LINE
8
BLACK
6
CONTINUOUS
10
1.6857306692913385
20
3.4399845669291338
11
1.6909260236220471
21
3.4525272440944881
0
LINE
8
BLACK
6
CONTINUOUS
10
1.6909260236220471
20
3.4525272440944881
11
1.697493031496063
21
3.4644094094488187
0
LINE
8
BLACK
6
CONTINUOUS
10
1.697493031496063
20
3.4644094094488187
11
1.7053491338582676
21
3.4754815354330706
0
LINE
8
BLACK
6
CONTINUOUS
10
1.7053491338582676
20
3.4754815354330706
11
1.7143955511811024
21
3.4856044488188975
0
LINE
8
BLACK
6
CONTINUOUS
10
1.7143955511811024
20
3.4856044488188975
11
1.7245184645669291
21
3.4946508661417321
0
LINE
8
BLACK
6
CONTINUOUS
10
1.7245184645669291
20
3.4946508661417321
11
1.735590590551181
21
3.5025069685039369
0
LINE
8
BLACK
6
CONTINUOUS
10
1.735590590551181
20
3.5025069685039369
11
1.7474727559055119
21
3.5090739763779526
0
LINE
8
BLACK
6
CONTINUOUS
10
1.7474727559055119
20
3.5090739763779526
11
1.7600154330708662
21
3.5142693307086614
0
LINE
8
BLACK
6
CONTINUOUS
10
1.7600154330708662
20
3.5142693307086614
11
1.7730609448818897
21
3.5180276771653545
0
LINE
8
BLACK
6
CONTINUOUS
10
1.7730609448818897
20
3.5180276771653545
11
1.7864452362204724
21
3.5203017716535432
0
LINE
8
BLACK
6
CONTINUOUS
10
1.7864452362204724
20
3.5203017716535432
11
1.8
21
3.5210629921259842
0
LINE
8
BLACK
6
CONTINUOUS
10
1.8
20
3.5210629921259842
11
1.8135547637795275
21
3.5203017716535432
0
LINE
8
BLACK
6
CONTINUOUS
10
1.6814679133858268
20
3.3866446456692914
11
1.6837085433070866
21
3.3734572440944883
0
LINE
8
BLACK
6
CONTINUOUS
10
1.6837085433070866
20
3.3734572440944883
11
1.6874115748031495
21
3.3606036220472442
0
LINE
8
BLACK
6
CONTINUOUS
10
1.6874115748031495
20
3.3606036220472442
11
1.6925305118110237
21
3.3482454330708662
0
LINE
8
BLACK
6
CONTINUOUS
10
1.6925305118110237
20
3.3482454330708662
11
1.6990009448818897
21
3.3365380708661418
0
LINE
8
BLACK
6
CONTINUOUS
10
1.6990009448818897
20
3.3365380708661418
11
1.7067414960629921
21
3.3256288188976377
0
LINE
8
BLACK
6
CONTINUOUS
10
1.7067414960629921
20
3.3256288188976377
11
1.7156548031496062
21
3.3156548031496063
0
LINE
8
BLACK
6
CONTINUOUS
10
1.7156548031496062
20
3.3156548031496063
11
1.7256288188976379
21
3.3067414960629922
0
LINE
8
BLACK
6
CONTINUOUS
10
1.7256288188976379
20
3.3067414960629922
11
1.7365380708661418
21
3.2990009448818896
0
LINE
8
BLACK
6
CONTINUOUS
10
1.7365380708661418
20
3.2990009448818896
11
1.7482454330708661
21
3.2925305118110235
0
LINE
8
BLACK
6
CONTINUOUS
10
1.7482454330708661
20
3.2925305118110235
11
1.7606036220472441
21
3.2874115748031496
0
LINE
8
BLACK
6
CONTINUOUS
10
1.7606036220472441
20
3.2874115748031496
11
1.7734572440944882
21
3.2837085433070867
0
LINE
8
BLACK
6
CONTINUOUS
10
1.7734572440944882
20
3.2837085433070867
11
1.7866446456692913
21
3.2814679133858267
0
LINE
8
BLACK
6
CONTINUOUS
10
1.7866446456692913
20
3.2814679133858267
11
1.8
21
3.2807178740157479
0
LINE
8
BLACK
6
CONTINUOUS
10
1.8
20
3.2807178740157479
11
1.8133553543307086
21
3.2814679133858267
0
LINE
8
BLACK
6
CONTINUOUS
10
1.8133553543307086
20
3.2814679133858267
11
1.8265427559055119
21
3.2837085433070867
0
LINE
8
BLACK
6
CONTINUOUS
10
1.8265427559055119
20
3.2837085433070867
11
1.8393963779527558
21
3.2874115748031496
0
LINE
8
BLACK
6
CONTINUOUS
10
1.8393963779527558
20
3.2874115748031496
11
1.8517545669291338
21
3.2925305118110235
0
LINE
8
BLACK
6
CONTINUOUS
10
1.8517545669291338
20
3.2925305118110235
11
1.8634619291338583
21
3.2990009448818896
0
LINE
8
BLACK
6
CONTINUOUS
10
1.8634619291338583
20
3.2990009448818896
11
1.8743711811023622
21
3.3067414960629922
0
LINE
8
BLACK
6
CONTINUOUS
10
1.8743711811023622
20
3.3067414960629922
11
1.8843451968503937
21
3.3156548031496063
0
LINE
8
BLACK
6
CONTINUOUS
10
1.8843451968503937
20
3.3156548031496063
11
1.8932585039370078
21
3.3256288188976377
0
LINE
8
BLACK
6
CONTINUOUS
10
1.8932585039370078
20
3.3256288188976377
11
1.9009990551181102
21
3.3365380708661418
0
LINE
8
BLACK
6
CONTINUOUS
10
1.9009990551181102
20
3.3365380708661418
11
1.9074694881889764
21
3.3482454330708662
0
LINE
8
BLACK
6
CONTINUOUS
10
1.9074694881889764
20
3.3482454330708662
11
1.9125884251968504
21
3.3606036220472442
0
LINE
8
BLACK
6
CONTINUOUS
10
1.9125884251968504
20
3.3606036220472442
11
1.9162914566929135
21
3.3734572440944883
0
LINE
8
BLACK
6
CONTINUOUS
10
1.9162914566929135
20
3.3734572440944883
11
1.9185320866141733
21
3.3866446456692914
0
LINE
8
BLACK
6
CONTINUOUS
10
1.9185320866141733
20
3.3866446456692914
11
1.9192821259842519
21
3.3999999999999999
0
LINE
8
BLACK
6
CONTINUOUS
10
1.9192821259842519
20
3.3999999999999999
11
1.9185320866141733
21
3.4133553543307085
0
LINE
8
BLACK
6
CONTINUOUS
10
1.9185320866141733
20
3.4133553543307085
11
1.9162914566929135
21
3.4265427559055119
0
LINE
8
BLACK
6
CONTINUOUS
10
1.9162914566929135
20
3.4265427559055119
11
1.9125884251968504
21
3.4393963779527557
0
LINE
8
BLACK
6
CONTINUOUS
10
1.9125884251968504
20
3.4393963779527557
11
1.9074694881889764
21
3.4517545669291336
0
LINE
8
BLACK
6
CONTINUOUS
10
1.9074694881889764
20
3.4517545669291336
11
1.9009990551181102
21
3.463461929133858
0
LINE
8
BLACK
6
CONTINUOUS
10
1.9009990551181102
20
3.463461929133858
11
1.8932585039370078
21
3.4743711811023621
0
LINE
8
BLACK
6
CONTINUOUS
10
1.8932585039370078
20
3.4743711811023621
11
1.8843451968503937
21
3.4843451968503936
0
LINE
8
BLACK
6
CONTINUOUS
10
1.8843451968503937
20
3.4843451968503936
11
1.8743711811023622
21
3.4932585039370077
0
LINE
8
BLACK
6
CONTINUOUS
10
1.8743711811023622
20
3.4932585039370077
11
1.8634619291338583
21
3.5009990551181103
0
LINE
8
BLACK
6
CONTINUOUS
10
1.8634619291338583
20
3.5009990551181103
11
1.8517545669291338
21
3.5074694881889763
0
LINE
8
BLACK
6
CONTINUOUS
10
1.8517545669291338
20
3.5074694881889763
11
1.8393963779527558
21
3.5125884251968502
0
LINE
8
BLACK
6
CONTINUOUS
10
1.8393963779527558
20
3.5125884251968502
11
1.8265427559055119
21
3.5162914566929131
0
LINE
8
BLACK
6
CONTINUOUS
10
1.8265427559055119
20
3.5162914566929131
11
1.8133553543307086
21
3.5185320866141732
0
LINE
8
BLACK
6
CONTINUOUS
10
1.8133553543307086
20
3.5185320866141732
11
1.8
21
3.5192821259842519
0
LINE
8
BLACK
6
CONTINUOUS
10
1.8
20
3.5192821259842519
11
1.7866446456692913
21
3.5185320866141732
0
LINE
8
BLACK
6
CONTINUOUS
10
1.7866446456692913
20
3.5185320866141732
11
1.7734572440944882
21
3.5162914566929131
0
LINE
8
BLACK
6
CONTINUOUS
10
1.7734572440944882
20
3.5162914566929131
11
1.7606036220472441
21
3.5125884251968502
0
LINE
8
BLACK
6
CONTINUOUS
10
1.7606036220472441
20
3.5125884251968502
11
1.7482454330708661
21
3.5074694881889763
0
LINE
8
BLACK
6
CONTINUOUS
10
1.7482454330708661
20
3.5074694881889763
11
1.7365380708661418
21
3.5009990551181103
0
LINE
8
BLACK
6
CONTINUOUS
10
1.7365380708661418
20
3.5009990551181103
11
1.7256288188976379
21
3.4932585039370077
0
LINE
8
BLACK
6
CONTINUOUS
10
1.7256288188976379
20
3.4932585039370077
11
1.7156548031496062
21
3.4843451968503936
0
LINE
8
BLACK
6
CONTINUOUS
10
1.7156548031496062
20
3.4843451968503936
11
1.7067414960629921
21
3.4743711811023621
0
LINE
8
BLACK
6
CONTINUOUS
10
1.7067414960629921
20
3.4743711811023621
11
1.6990009448818897
21
3.463461929133858
0
LINE
8
BLACK
6
CONTINUOUS
10
1.6990009448818897
20
3.463461929133858
11
1.6925305118110237
21
3.4517545669291336
0
LINE
8
BLACK
6
CONTINUOUS
10
1.6925305118110237
20
3.4517545669291336
11
1.6874115748031495
21
3.4393963779527557
0
LINE
8
BLACK
6
CONTINUOUS
10
1.6874115748031495
20
3.4393963779527557
11
1.6837085433070866
21
3.4265427559055119
0
LINE
8
BLACK
6
CONTINUOUS
10
1.6837085433070866
20
3.4265427559055119
11
1.6814679133858268
21
3.4133553543307085
0
LINE
8
BLACK
6
CONTINUOUS
10
1.6814679133858268
20
3.4133553543307085
11
1.680717874015748
21
3.3999999999999999
0
LINE
8
BLACK
6
CONTINUOUS
10
1.680717874015748
20
3.3999999999999999
11
1.6814679133858268
21
3.3866446456692914
0
CIRCLE
8
BLACK
10
0.25
20
2.7999999999999998
40
0.0068897637795276
0
CIRCLE
8
BLACK
10
0.25
20
2.8999999999999999
40
0.0068897637795276
0
CIRCLE
8
BLACK
10
0.35
20
2.7999999999999998
40
0.0068897637795276
0
CIRCLE
8
BLACK
10
0.35
20
2.8999999999999999
40
0.0068897637795276
0
CIRCLE
8
BLACK
10
0.45
20
2.7999999999999998
40
0.0068897637795276
0
CIRCLE
8
BLACK
10
0.45
20
2.8999999999999999
40
0.0068897637795276
0
CIRCLE
8
BLACK
10
0.5499999999999999
20
2.7999999999999998
40
0.0068897637795276
0
CIRCLE
8
BLACK
10
0.5499999999999999
20
2.8999999999999999
40
0.0068897637795276
0
CIRCLE
8
BLACK
10
0.65
20
2.7999999999999998
40
0.0068897637795276
0
CIRCLE
8
BLACK
10
0.65
20
2.8999999999999999
40
0.0068897637795276
0
CIRCLE
8
BLACK
10
0.75
20
2.7999999999999998
40
0.0068897637795276
0
CIRCLE
8
BLACK
10
0.75
20
2.8999999999999999
40
0.0068897637795276
0
CIRCLE
8
BLACK
10
0.85
20
2.7999999999999998
40
0.0068897637795276
0
CIRCLE
8
BLACK
10
0.85
20
2.8999999999999999
40
0.0068897637795276
0
CIRCLE
8
BLACK
10
0.95
20
2.7999999999999998
40
0.0068897637795276
0
CIRCLE
8
BLACK
10
0.95
20
2.8999999999999999
40
0.0068897637795276
0
CIRCLE
8
BLACK
10
1.05
20
2.7999999999999998
40
0.0068897637795276
0
CIRCLE
8
BLACK
10
1.05
20
2.8999999999999999
40
0.0068897637795276
0
CIRCLE
8
BLACK
10
1.1499999999999999
20
2.7999999999999998
40
0.0068897637795276
0
CIRCLE
8
BLACK
10
1.1499999999999999
20
2.8999999999999999
40
0.0068897637795276
0
CIRCLE
8
BLACK
10
1.25
20
2.7999999999999998
40
0.0068897637795276
0
CIRCLE
8
BLACK
10
1.25
20
2.8999999999999999
40
0.0068897637795276
0
CIRCLE
8
BLACK
10
1.3499999999999999
20
2.7999999999999998
40
0.0068897637795276
0
CIRCLE
8
BLACK
10
1.3499999999999999
20
2.8999999999999999
40
0.0068897637795276
0
CIRCLE
8
BLACK
10
1.45
20
2.7999999999999998
40
0.0068897637795276
0
CIRCLE
8
BLACK
10
1.45
20
2.8999999999999999
40
0.0068897637795276
0
CIRCLE
8
BLACK
10
1.55
20
2.7999999999999998
40
0.0068897637795276
0
CIRCLE
8
BLACK
10
1.55
20
2.8999999999999999
40
0.0068897637795276
0
CIRCLE
8
BLACK
10
1.6499999999999999
20
2.7999999999999998
40
0.0068897637795276
0
CIRCLE
8
BLACK
10
1.6499999999999999
20
2.8999999999999999
40
0.0068897637795276
0
CIRCLE
8
BLACK
10
1.75
20
2.7999999999999998
40
0.0068897637795276
0
CIRCLE
8
BLACK
10
1.75
20
2.8999999999999999
40
0.0068897637795276
0
CIRCLE
8
BLACK
10
0.8618110236220472
20
3.1413385826771654
40
0.0068897637795276
0
CIRCLE
8
BLACK
10
0.7618110236220472
20
3.1413385826771654
40
0.0068897637795276
0
CIRCLE
8
BLACK
10
0.8618110236220472
20
3.2413385826771655
40
0.0068897637795276
0
CIRCLE
8
BLACK
10
0.7618110236220472
20
3.2413385826771655
40
0.0068897637795276
0
CIRCLE
8
BLACK
10
0.8618110236220472
20
3.3413385826771651
40
0.0068897637795276
0
CIRCLE
8
BLACK
10
0.7618110236220472
20
3.3413385826771651
40
0.0068897637795276
0
CIRCLE
8
BLACK
10
1.0275590551181102
20
3.1887795275590549
40
0.0068897637795276
0
CIRCLE
8
BLACK
10
1.0275590551181102
20
3.0887795275590548
40
0.0068897637795276
0
CIRCLE
8
BLACK
10
0.2
20
0.2
40
0.0068897637795276
0
CIRCLE
8
BLACK
10
1.8499999999999999
20
0.4
40
0.0068897637795276
0
CIRCLE
8
BLACK
10
1.75
20
0.4
40
0.0068897637795276
0
CIRCLE
8
BLACK
10
0.2
20
3.3999999999999999
40
0.0068897637795276
0
CIRCLE
8
BLACK
10
1.8
20
3.3999999999999999
40
0.0068897637795276
0
CIRCLE
8
BLACK
10
1.2921259842519686
20
1.0700000000000001
40
0.0068897637795276
0
CIRCLE
8
BLACK
10
1.0999999999999999
20
1.0700000000000001
40
0.0068897637795276
0
CIRCLE
8
BLACK
10
1.05
20
0.1
40
0.0068897637795276
0
CIRCLE
8
BLACK
10
1.1499999999999999
20
0.1
40
0.0068897637795276
0
CIRCLE
8
BLACK
10
1.25
20
0.1
40
0.0068897637795276
0
CIRCLE
8
BLACK
10
1.3499999999999999
20
0.1
40
0.0068897637795276
0
CIRCLE
8
BLACK
10
1.45
20
0.1
40
0.0068897637795276
0
CIRCLE
8
BLACK
10
1.55
20
0.1
40
0.0068897637795276
0
CIRCLE
8
BLACK
10
0.4074803149606299
20
3.4446850393700785
40
0.0068897637795276
0
CIRCLE
8
BLACK
10
0.4074803149606299
20
3.3446850393700789
40
0.0068897637795276
0
CIRCLE
8
BLACK
10
0.25
20
0.95
40
0.0068897637795276
0
CIRCLE
8
BLACK
10
0.15
20
0.95
40
0.0068897637795276
0
CIRCLE
8
BLACK
10
0.25
20
1.05
40
0.0068897637795276
0
CIRCLE
8
BLACK
10
0.15
20
1.05
40
0.0068897637795276
0
CIRCLE
8
BLACK
10
0.25
20
1.1499999999999999
40
0.0068897637795276
0
CIRCLE
8
BLACK
10
0.15
20
1.1499999999999999
40
0.0068897637795276
0
CIRCLE
8
BLACK
10
0.25
20
1.25
40
0.0068897637795276
0
CIRCLE
8
BLACK
10
0.15
20
1.25
40
0.0068897637795276
0
CIRCLE
8
BLACK
10
0.25
20
1.3499999999999999
40
0.0068897637795276
0
CIRCLE
8
BLACK
10
0.15
20
1.3499999999999999
40
0.0068897637795276
0
CIRCLE
8
BLACK
10
0.25
20
1.45
40
0.0068897637795276
0
CIRCLE
8
BLACK
10
0.15
20
1.45
40
0.0068897637795276
0
CIRCLE
8
BLACK
10
0.25
20
1.55
40
0.0068897637795276
0
CIRCLE
8
BLACK
10
0.15
20
1.55
40
0.0068897637795276
0
CIRCLE
8
BLACK
10
0.25
20
1.6499999999999999
40
0.0068897637795276
0
CIRCLE
8
BLACK
10
0.15
20
1.6499999999999999
40
0.0068897637795276
0
CIRCLE
8
BLACK
10
0.25
20
1.75
40
0.0068897637795276
0
CIRCLE
8
BLACK
10
0.15
20
1.75
40
0.0068897637795276
0
CIRCLE
8
BLACK
10
0.25
20
1.8499999999999999
40
0.0068897637795276
0
CIRCLE
8
BLACK
10
0.15
20
1.8499999999999999
40
0.0068897637795276
0
CIRCLE
8
BLACK
10
0.25
20
1.95
40
0.0068897637795276
0
CIRCLE
8
BLACK
10
0.15
20
1.95
40
0.0068897637795276
0
CIRCLE
8
BLACK
10
0.25
20
2.0499999999999998
40
0.0068897637795276
0
CIRCLE
8
BLACK
10
0.15
20
2.0499999999999998
40
0.0068897637795276
0
CIRCLE
8
BLACK
10
0.25
20
2.1499999999999999
40
0.0068897637795276
0
CIRCLE
8
BLACK
10
0.15
20
2.1499999999999999
40
0.0068897637795276
0
CIRCLE
8
BLACK
10
0.25
20
2.25
40
0.0068897637795276
0
CIRCLE
8
BLACK
10
0.15
20
2.25
40
0.0068897637795276
0
CIRCLE
8
BLACK
10
0.25
20
2.3500000000000001
40
0.0068897637795276
0
CIRCLE
8
BLACK
10
0.15
20
2.3500000000000001
40
0.0068897637795276
0
CIRCLE
8
BLACK
10
0.25
20
2.4499999999999997
40
0.0068897637795276
0
CIRCLE
8
BLACK
10
0.15
20
2.4499999999999997
40
0.0068897637795276
0
CIRCLE
8
BLACK
10
1.8
20
0.2
40
0.0068897637795276
0
CIRCLE
8
BLACK
10
1.7498031496062991
20
2.4499999999999997
40
0.0068897637795276
0
CIRCLE
8
BLACK
10
1.8498031496062992
20
2.4499999999999997
40
0.0068897637795276
0
CIRCLE
8
BLACK
10
1.7498031496062991
20
2.3500000000000001
40
0.0068897637795276
0
CIRCLE
8
BLACK
10
1.8498031496062992
20
2.3500000000000001
40
0.0068897637795276
0
CIRCLE
8
BLACK
10
1.7498031496062991
20
2.25
40
0.0068897637795276
0
CIRCLE
8
BLACK
10
1.8498031496062992
20
2.25
40
0.0068897637795276
0
CIRCLE
8
BLACK
10
1.7498031496062991
20
2.1499999999999999
40
0.0068897637795276
0
CIRCLE
8
BLACK
10
1.8498031496062992
20
2.1499999999999999
40
0.0068897637795276
0
CIRCLE
8
BLACK
10
1.7498031496062991
20
2.0499999999999998
40
0.0068897637795276
0
CIRCLE
8
BLACK
10
1.8498031496062992
20
2.0499999999999998
40
0.0068897637795276
0
CIRCLE
8
BLACK
10
1.7498031496062991
20
1.95
40
0.0068897637795276
0
CIRCLE
8
BLACK
10
1.8498031496062992
20
1.95
40
0.0068897637795276
0
CIRCLE
8
BLACK
10
1.7498031496062991
20
1.8499999999999999
40
0.0068897637795276
0
CIRCLE
8
BLACK
10
1.8498031496062992
20
1.8499999999999999
40
0.0068897637795276
0
CIRCLE
8
BLACK
10
1.7498031496062991
20
1.75
40
0.0068897637795276
0
CIRCLE
8
BLACK
10
1.8498031496062992
20
1.75
40
0.0068897637795276
0
CIRCLE
8
BLACK
10
1.7498031496062991
20
1.6499999999999999
40
0.0068897637795276
0
CIRCLE
8
BLACK
10
1.8498031496062992
20
1.6499999999999999
40
0.0068897637795276
0
CIRCLE
8
BLACK
10
1.7498031496062991
20
1.55
40
0.0068897637795276
0
CIRCLE
8
BLACK
10
1.8498031496062992
20
1.55
40
0.0068897637795276
0
CIRCLE
8
BLACK
10
1.7498031496062991
20
1.45
40
0.0068897637795276
0
CIRCLE
8
BLACK
10
1.8498031496062992
20
1.45
40
0.0068897637795276
0
CIRCLE
8
BLACK
10
1.7498031496062991
20
1.3499999999999999
40
0.0068897637795276
0
CIRCLE
8
BLACK
10
1.8498031496062992
20
1.3499999999999999
40
0.0068897637795276
0
CIRCLE
8
BLACK
10
1.7498031496062991
20
1.25
40
0.0068897637795276
0
CIRCLE
8
BLACK
10
1.8498031496062992
20
1.25
40
0.0068897637795276
0
CIRCLE
8
BLACK
10
1.7498031496062991
20
1.1499999999999999
40
0.0068897637795276
0
CIRCLE
8
BLACK
10
1.8498031496062992
20
1.1499999999999999
40
0.0068897637795276
0
CIRCLE
8
BLACK
10
1.7498031496062991
20
1.05
40
0.0068897637795276
0
CIRCLE
8
BLACK
10
1.8498031496062992
20
1.05
40
0.0068897637795276
0
CIRCLE
8
BLACK
10
1.7498031496062991
20
0.95
40
0.0068897637795276
0
CIRCLE
8
BLACK
10
1.8498031496062992
20
0.95
40
0.0068897637795276
0
CIRCLE
8
BLACK
10
1.2027559055118109
20
1.3400000000000001
40
0.0068897637795276
0
CIRCLE
8
BLACK
10
1.2027559055118109
20
1.24
40
0.0068897637795276
0
CIRCLE
8
BLACK
10
1.75
20
0.65
40
0.0068897637795276
0
CIRCLE
8
BLACK
10
1.75
20
0.5499999999999999
40
0.0068897637795276
0
CIRCLE
8
BLACK
10
1.6499999999999999
20
0.65
40
0.0068897637795276
0
CIRCLE
8
BLACK
10
1.6499999999999999
20
0.5499999999999999
40
0.0068897637795276
0
CIRCLE
8
BLACK
10
1.55
20
0.65
40
0.0068897637795276
0
CIRCLE
8
BLACK
10
1.55
20
0.5499999999999999
40
0.0068897637795276
0
CIRCLE
8
BLACK
10
1.45
20
0.65
40
0.0068897637795276
0
CIRCLE
8
BLACK
10
1.45
20
0.5499999999999999
40
0.0068897637795276
0
CIRCLE
8
BLACK
10
1.3499999999999999
20
0.65
40
0.0068897637795276
0
CIRCLE
8
BLACK
10
1.3499999999999999
20
0.5499999999999999
40
0.0068897637795276
0
CIRCLE
8
BLACK
10
1.25
20
0.65
40
0.0068897637795276
0
CIRCLE
8
BLACK
10
1.25
20
0.5499999999999999
40
0.0068897637795276
0
CIRCLE
8
BLACK
10
1.1499999999999999
20
0.65
40
0.0068897637795276
0
CIRCLE
8
BLACK
10
1.1499999999999999
20
0.5499999999999999
40
0.0068897637795276
0
CIRCLE
8
BLACK
10
1.05
20
0.65
40
0.0068897637795276
0
CIRCLE
8
BLACK
10
1.05
20
0.5499999999999999
40
0.0068897637795276
0
CIRCLE
8
BLACK
10
0.95
20
0.65
40
0.0068897637795276
0
CIRCLE
8
BLACK
10
0.95
20
0.5499999999999999
40
0.0068897637795276
0
CIRCLE
8
BLACK
10
0.85
20
0.65
40
0.0068897637795276
0
CIRCLE
8
BLACK
10
0.85
20
0.5499999999999999
40
0.0068897637795276
0
CIRCLE
8
BLACK
10
0.75
20
0.65
40
0.0068897637795276
0
CIRCLE
8
BLACK
10
0.75
20
0.5499999999999999
40
0.0068897637795276
0
CIRCLE
8
BLACK
10
0.65
20
0.65
40
0.0068897637795276
0
CIRCLE
8
BLACK
10
0.65
20
0.5499999999999999
40
0.0068897637795276
0
CIRCLE
8
BLACK
10
0.5499999999999999
20
0.65
40
0.0068897637795276
0
CIRCLE
8
BLACK
10
0.5499999999999999
20
0.5499999999999999
40
0.0068897637795276
0
CIRCLE
8
BLACK
10
0.45
20
0.65
40
0.0068897637795276
0
CIRCLE
8
BLACK
10
0.45
20
0.5499999999999999
40
0.0068897637795276
0
CIRCLE
8
BLACK
10
0.35
20
0.65
40
0.0068897637795276
0
CIRCLE
8
BLACK
10
0.35
20
0.5499999999999999
40
0.0068897637795276
0
CIRCLE
8
BLACK
10
0.25
20
0.65
40
0.0068897637795276
0
CIRCLE
8
BLACK
10
0.25
20
0.5499999999999999
40
0.0068897637795276
0
CIRCLE
8
BLACK
10
0.7114173228346456
20
0.0720472440944882
40
0.0068897637795276
0
CIRCLE
8
BLACK
10
0.7114173228346456
20
0.3279527559055118
40
0.0068897637795276
0
CIRCLE
8
BLACK
10
0.8885826771653543
20
0.0720472440944882
40
0.0068897637795276
0
CIRCLE
8
BLACK
10
0.8885826771653543
20
0.3279527559055118
40
0.0068897637795276
0
CIRCLE
8
BLACK
10
0.4114173228346457
20
0.0720472440944882
40
0.0068897637795276
0
CIRCLE
8
BLACK
10
0.4114173228346457
20
0.3279527559055118
40
0.0068897637795276
0
CIRCLE
8
BLACK
10
0.5885826771653543
20
0.0720472440944882
40
0.0068897637795276
0
CIRCLE
8
BLACK
10
0.5885826771653543
20
0.3279527559055118
40
0.0068897637795276
0
CIRCLE
8
BLACK
10
1.3265748031496063
20
3.4185039370078738
40
0.0068897637795276
0
CIRCLE
8
BLACK
10
1.5234251968503936
20
3.4185039370078738
40
0.0068897637795276
0
LINE
8
BLACK
6
CONTINUOUS
10
1.2830596850393701
20
3.5118641732283464
11
1.2814430708661417
21
3.5079613385826769
0
LINE
8
BLACK
6
CONTINUOUS
10
1.2814430708661417
20
3.5079613385826769
11
1.2784559842519685
21
3.5049742519685037
0
LINE
8
BLACK
6
CONTINUOUS
10
1.2784559842519685
20
3.5049742519685037
11
1.2745531496062992
21
3.5033576377952755
0
LINE
8
BLACK
6
CONTINUOUS
10
1.2745531496062992
20
3.5033576377952755
11
1.2703287401574803
21
3.5033576377952755
0
LINE
8
BLACK
6
CONTINUOUS
10
1.2703287401574803
20
3.5033576377952755
11
1.266425905511811
21
3.5049742519685037
0
LINE
8
BLACK
6
CONTINUOUS
10
1.266425905511811
20
3.5049742519685037
11
1.2634388188976378
21
3.5079613385826769
0
LINE
8
BLACK
6
CONTINUOUS
10
1.2634388188976378
20
3.5079613385826769
11
1.2618222047244094
21
3.5118641732283464
0
LINE
8
BLACK
6
CONTINUOUS
10
1.2618222047244094
20
3.5118641732283464
11
1.2616141732283463
21
3.5139763779527557
0
LINE
8
BLACK
6
CONTINUOUS
10
1.2616141732283463
20
3.5139763779527557
11
1.2616141732283463
21
3.5395669291338581
0
LINE
8
BLACK
6
CONTINUOUS
10
1.2616141732283463
20
3.5395669291338581
11
1.2618222047244094
21
3.5416791338582678
0
LINE
8
BLACK
6
CONTINUOUS
10
1.2618222047244094
20
3.5416791338582678
11
1.2634388188976378
21
3.5455819685039369
0
LINE
8
BLACK
6
CONTINUOUS
10
1.2634388188976378
20
3.5455819685039369
11
1.266425905511811
21
3.5485690551181102
0
LINE
8
BLACK
6
CONTINUOUS
10
1.266425905511811
20
3.5485690551181102
11
1.2703287401574803
21
3.5501856692913387
0
LINE
8
BLACK
6
CONTINUOUS
10
1.2703287401574803
20
3.5501856692913387
11
1.2745531496062992
21
3.5501856692913387
0
LINE
8
BLACK
6
CONTINUOUS
10
1.2745531496062992
20
3.5501856692913387
11
1.2784559842519685
21
3.5485690551181102
0
LINE
8
BLACK
6
CONTINUOUS
10
1.2784559842519685
20
3.5485690551181102
11
1.2814430708661417
21
3.5455819685039369
0
LINE
8
BLACK
6
CONTINUOUS
10
1.2814430708661417
20
3.5455819685039369
11
1.2830596850393701
21
3.5416791338582678
0
LINE
8
BLACK
6
CONTINUOUS
10
1.2830596850393701
20
3.5416791338582678
11
1.2832677165354331
21
3.5395669291338581
0
LINE
8
BLACK
6
CONTINUOUS
10
1.2832677165354331
20
3.5395669291338581
11
1.2832677165354331
21
3.5139763779527557
0
LINE
8
BLACK
6
CONTINUOUS
10
1.2832677165354331
20
3.5139763779527557
11
1.2830596850393701
21
3.5118641732283464
0
LINE
8
BLACK
6
CONTINUOUS
10
1.294935590551181
20
3.3641545669291339
11
1.2938050787401574
21
3.359935433070866
0
LINE
8
BLACK
6
CONTINUOUS
10
1.2938050787401574
20
3.359935433070866
11
1.2916210629921259
21
3.3561525984251968
0
LINE
8
BLACK
6
CONTINUOUS
10
1.2916210629921259
20
3.3561525984251968
11
1.288532440944882
21
3.3530639763779528
0
LINE
8
BLACK
6
CONTINUOUS
10
1.288532440944882
20
3.3530639763779528
11
1.2847496062992125
21
3.3508799606299213
0
LINE
8
BLACK
6
CONTINUOUS
10
1.2847496062992125
20
3.3508799606299213
11
1.2805304724409448
21
3.3497494488188977
0
LINE
8
BLACK
6
CONTINUOUS
10
1.2805304724409448
20
3.3497494488188977
11
1.276162440944882
21
3.3497494488188977
0
LINE
8
BLACK
6
CONTINUOUS
10
1.276162440944882
20
3.3497494488188977
11
1.2719433070866142
21
3.3508799606299213
0
LINE
8
BLACK
6
CONTINUOUS
10
1.2719433070866142
20
3.3508799606299213
11
1.2681604724409448
21
3.3530639763779528
0
LINE
8
BLACK
6
CONTINUOUS
10
1.2681604724409448
20
3.3530639763779528
11
1.2650718503937008
21
3.3561525984251968
0
LINE
8
BLACK
6
CONTINUOUS
10
1.2650718503937008
20
3.3561525984251968
11
1.2628878346456693
21
3.359935433070866
0
LINE
8
BLACK
6
CONTINUOUS
10
1.2628878346456693
20
3.359935433070866
11
1.2617573228346457
21
3.3641545669291339
0
LINE
8
BLACK
6
CONTINUOUS
10
1.2617573228346457
20
3.3641545669291339
11
1.2616141732283463
21
3.3663385826771655
0
LINE
8
BLACK
6
CONTINUOUS
10
1.2616141732283463
20
3.3663385826771655
11
1.2616141732283463
21
3.387992125984252
0
LINE
8
BLACK
6
CONTINUOUS
10
1.2616141732283463
20
3.387992125984252
11
1.2617573228346457
21
3.3901761417322835
0
LINE
8
BLACK
6
CONTINUOUS
10
1.2617573228346457
20
3.3901761417322835
11
1.2628878346456693
21
3.3943952755905511
0
LINE
8
BLACK
6
CONTINUOUS
10
1.2628878346456693
20
3.3943952755905511
11
1.2650718503937008
21
3.3981781102362203
0
LINE
8
BLACK
6
CONTINUOUS
10
1.2650718503937008
20
3.3981781102362203
11
1.2681604724409448
21
3.4012667322834647
0
LINE
8
BLACK
6
CONTINUOUS
10
1.2681604724409448
20
3.4012667322834647
11
1.2719433070866142
21
3.4034507480314962
0
LINE
8
BLACK
6
CONTINUOUS
10
1.2719433070866142
20
3.4034507480314962
11
1.276162440944882
21
3.4045812598425198
0
LINE
8
BLACK
6
CONTINUOUS
10
1.276162440944882
20
3.4045812598425198
11
1.2805304724409448
21
3.4045812598425198
0
LINE
8
BLACK
6
CONTINUOUS
10
1.2805304724409448
20
3.4045812598425198
11
1.2847496062992125
21
3.4034507480314962
0
LINE
8
BLACK
6
CONTINUOUS
10
1.2847496062992125
20
3.4034507480314962
11
1.288532440944882
21
3.4012667322834647
0
LINE
8
BLACK
6
CONTINUOUS
10
1.288532440944882
20
3.4012667322834647
11
1.2916210629921259
21
3.3981781102362203
0
LINE
8
BLACK
6
CONTINUOUS
10
1.2916210629921259
20
3.3981781102362203
11
1.2938050787401574
21
3.3943952755905511
0
LINE
8
BLACK
6
CONTINUOUS
10
1.2938050787401574
20
3.3943952755905511
11
1.294935590551181
21
3.3901761417322835
0
LINE
8
BLACK
6
CONTINUOUS
10
1.294935590551181
20
3.3901761417322835
11
1.2950787401574804
21
3.387992125984252
0
LINE
8
BLACK
6
CONTINUOUS
10
1.2950787401574804
20
3.387992125984252
11
1.2950787401574804
21
3.3663385826771655
0
LINE
8
BLACK
6
CONTINUOUS
10
1.2950787401574804
20
3.3663385826771655
11
1.294935590551181
21
3.3641545669291339
0
LINE
8
BLACK
6
CONTINUOUS
10
1.5882426771653544
20
3.3641545669291339
11
1.5871121653543308
21
3.359935433070866
0
LINE
8
BLACK
6
CONTINUOUS
10
1.5871121653543308
20
3.359935433070866
11
1.5849281496062992
21
3.3561525984251968
0
LINE
8
BLACK
6
CONTINUOUS
10
1.5849281496062992
20
3.3561525984251968
11
1.5818395275590551
21
3.3530639763779528
0
LINE
8
BLACK
6
CONTINUOUS
10
1.5818395275590551
20
3.3530639763779528
11
1.5780566929133857
21
3.3508799606299213
0
LINE
8
BLACK
6
CONTINUOUS
10
1.5780566929133857
20
3.3508799606299213
11
1.5738375590551181
21
3.3497494488188977
0
LINE
8
BLACK
6
CONTINUOUS
10
1.5738375590551181
20
3.3497494488188977
11
1.5694695275590551
21
3.3497494488188977
0
LINE
8
BLACK
6
CONTINUOUS
10
1.5694695275590551
20
3.3497494488188977
11
1.5652503937007873
21
3.3508799606299213
0
LINE
8
BLACK
6
CONTINUOUS
10
1.5652503937007873
20
3.3508799606299213
11
1.5614675590551181
21
3.3530639763779528
0
LINE
8
BLACK
6
CONTINUOUS
10
1.5614675590551181
20
3.3530639763779528
11
1.558378937007874
21
3.3561525984251968
0
LINE
8
BLACK
6
CONTINUOUS
10
1.558378937007874
20
3.3561525984251968
11
1.5561949212598425
21
3.359935433070866
0
LINE
8
BLACK
6
CONTINUOUS
10
1.5561949212598425
20
3.359935433070866
11
1.5550644094488189
21
3.3641545669291339
0
LINE
8
BLACK
6
CONTINUOUS
10
1.5550644094488189
20
3.3641545669291339
11
1.5549212598425197
21
3.3663385826771655
0
LINE
8
BLACK
6
CONTINUOUS
10
1.5549212598425197
20
3.3663385826771655
11
1.5549212598425197
21
3.387992125984252
0
LINE
8
BLACK
6
CONTINUOUS
10
1.5549212598425197
20
3.387992125984252
11
1.5550644094488189
21
3.3901761417322835
0
LINE
8
BLACK
6
CONTINUOUS
10
1.5550644094488189
20
3.3901761417322835
11
1.5561949212598425
21
3.3943952755905511
0
LINE
8
BLACK
6
CONTINUOUS
10
1.5561949212598425
20
3.3943952755905511
11
1.558378937007874
21
3.3981781102362203
0
LINE
8
BLACK
6
CONTINUOUS
10
1.558378937007874
20
3.3981781102362203
11
1.5614675590551181
21
3.4012667322834647
0
LINE
8
BLACK
6
CONTINUOUS
10
1.5614675590551181
20
3.4012667322834647
11
1.5652503937007873
21
3.4034507480314962
0
LINE
8
BLACK
6
CONTINUOUS
10
1.5652503937007873
20
3.4034507480314962
11
1.5694695275590551
21
3.4045812598425198
0
LINE
8
BLACK
6
CONTINUOUS
10
1.5694695275590551
20
3.4045812598425198
11
1.5738375590551181
21
3.4045812598425198
0
LINE
8
BLACK
6
CONTINUOUS
10
1.5738375590551181
20
3.4045812598425198
11
1.5780566929133857
21
3.4034507480314962
0
LINE
8
BLACK
6
CONTINUOUS
10
1.5780566929133857
20
3.4034507480314962
11
1.5818395275590551
21
3.4012667322834647
0
LINE
8
BLACK
6
CONTINUOUS
10
1.5818395275590551
20
3.4012667322834647
11
1.5849281496062992
21
3.3981781102362203
0
LINE
8
BLACK
6
CONTINUOUS
10
1.5849281496062992
20
3.3981781102362203
11
1.5871121653543308
21
3.3943952755905511
0
LINE
8
BLACK
6
CONTINUOUS
10
1.5871121653543308
20
3.3943952755905511
11
1.5882426771653544
21
3.3901761417322835
0
LINE
8
BLACK
6
CONTINUOUS
10
1.5882426771653544
20
3.3901761417322835
11
1.5883858267716535
21
3.387992125984252
0
LINE
8
BLACK
6
CONTINUOUS
10
1.5883858267716535
20
3.387992125984252
11
1.5883858267716535
21
3.3663385826771655
0
LINE
8
BLACK
6
CONTINUOUS
10
1.5883858267716535
20
3.3663385826771655
11
1.5882426771653544
21
3.3641545669291339
0
LINE
8
BLACK
6
CONTINUOUS
10
1.5881777952755904
20
3.5118641732283464
11
1.5865611811023621
21
3.5079613385826769
0
LINE
8
BLACK
6
CONTINUOUS
10
1.5865611811023621
20
3.5079613385826769
11
1.5835740944881889
21
3.5049742519685037
0
LINE
8
BLACK
6
CONTINUOUS
10
1.5835740944881889
20
3.5049742519685037
11
1.5796712598425195
21
3.5033576377952755
0
LINE
8
BLACK
6
CONTINUOUS
10
1.5796712598425195
20
3.5033576377952755
11
1.5754468503937007
21
3.5033576377952755
0
LINE
8
BLACK
6
CONTINUOUS
10
1.5754468503937007
20
3.5033576377952755
11
1.5715440157480314
21
3.5049742519685037
0
LINE
8
BLACK
6
CONTINUOUS
10
1.5715440157480314
20
3.5049742519685037
11
1.5685569291338581
21
3.5079613385826769
0
LINE
8
BLACK
6
CONTINUOUS
10
1.5685569291338581
20
3.5079613385826769
11
1.5669403149606298
21
3.5118641732283464
0
LINE
8
BLACK
6
CONTINUOUS
10
1.5669403149606298
20
3.5118641732283464
11
1.5667322834645669
21
3.5139763779527557
0
LINE
8
BLACK
6
CONTINUOUS
10
1.5667322834645669
20
3.5139763779527557
11
1.5667322834645669
21
3.5395669291338581
0
LINE
8
BLACK
6
CONTINUOUS
10
1.5667322834645669
20
3.5395669291338581
11
1.5669403149606298
21
3.5416791338582678
0
LINE
8
BLACK
6
CONTINUOUS
10
1.5669403149606298
20
3.5416791338582678
11
1.5685569291338581
21
3.5455819685039369
0
LINE
8
BLACK
6
CONTINUOUS
10
1.5685569291338581
20
3.5455819685039369
11
1.5715440157480314
21
3.5485690551181102
0
LINE
8
BLACK
6
CONTINUOUS
10
1.5715440157480314
20
3.5485690551181102
11
1.5754468503937007
21
3.5501856692913387
0
LINE
8
BLACK
6
CONTINUOUS
10
1.5754468503937007
20
3.5501856692913387
11
1.5796712598425195
21
3.5501856692913387
0
LINE
8
BLACK
6
CONTINUOUS
10
1.5796712598425195
20
3.5501856692913387
11
1.5835740944881889
21
3.5485690551181102
0
LINE
8
BLACK
6
CONTINUOUS
10
1.5835740944881889
20
3.5485690551181102
11
1.5865611811023621
21
3.5455819685039369
0
LINE
8
BLACK
6
CONTINUOUS
10
1.5865611811023621
20
3.5455819685039369
11
1.5881777952755904
21
3.5416791338582678
0
LINE
8
BLACK
6
CONTINUOUS
10
1.5881777952755904
20
3.5416791338582678
11
1.5883858267716535
21
3.5395669291338581
0
LINE
8
BLACK
6
CONTINUOUS
10
1.5883858267716535
20
3.5395669291338581
11
1.5883858267716535
21
3.5139763779527557
0
LINE
8
BLACK
6
CONTINUOUS
10
1.5883858267716535
20
3.5139763779527557
11
1.5881777952755904
21
3.5118641732283464
  0
ENDSEC
  0
EOF
