  0
SECTION
  2
HEADER
  9
$ANGBASE
  50
0.0
  9
$ANGDIR
  70
1
  9
$MEASUREMENT
  70
0
  0
ENDSEC
  0
SECTION
  2
TABLES
  0
TABLE
  2
LTYPE
  70
4
  0
LTYPE
  5
40F
  2
CONTINUOUS
  70
0
  3
Solid line
  72
65
  73
0
  40
0.0
  0
LTYPE
  5
410
  2
DASHDOT
 70
0
  3
Dash Dot ____ _ ____ _
 72
65
 73
4
 40
2.0
 49
1.25
 49
-0.25
 49
0.25
 49
-0.25
  0
LTYPE
  5
411
  2
DASHED
 70
0
  3
Dashed __ __ __ __ __
 72
65
 73
2
 40
0.75
 49
0.5
 49
-0.25
  0
LTYPE
  5
43B
  2
DOTTED
 70
0
  3
Dotted .  .  .  .
 72
65
 73
2
 40
0.2
 49
0.0
 49
-0.2
  0
ENDTAB
  0
TABLE
  2
STYLE
  70
4
  0
STYLE
  2
KICAD
  70
0
  40
0
  41
1
  42
1
  50
0
  71
0
  3
isocp.shx
  0
STYLE
  2
KICADB
  70
0
  40
0
  41
1
  42
1
  50
0
  71
0
  3
isocp.shx
  0
STYLE
  2
KICADI
  70
0
  40
0
  41
1
  42
1
  50
15
  71
0
  3
isocp.shx
  0
STYLE
  2
KICADBI
  70
0
  40
0
  41
1
  42
1
  50
15
  71
0
  3
isocp.shx
  0
ENDTAB
  0
TABLE
  2
LAYER
  70
1
  0
LAYER
  2
BLACK
  70
0
  62
7
  6
CONTINUOUS
  0
ENDTAB
  0
ENDSEC
  0
SECTION
  2
ENTITIES
0
LINE
8
BLACK
6
CONTINUOUS
10
1.9907680708661417
20
3.603861377952756
11
1.9921872834645669
21
3.6032735039370078
0
LINE
8
BLACK
6
CONTINUOUS
10
1.9921872834645669
20
3.6032735039370078
11
1.9932735039370078
21
3.6021872834645667
0
LINE
8
BLACK
6
CONTINUOUS
10
1.9932735039370078
20
3.6021872834645667
11
1.9938613779527559
21
3.6007680708661418
0
LINE
8
BLACK
6
CONTINUOUS
10
1.9938613779527559
20
3.6007680708661418
11
1.9939370078740157
21
3.6000000000000001
0
LINE
8
BLACK
6
CONTINUOUS
10
1.9939370078740157
20
3.6000000000000001
11
1.9939370078740157
21
0.01
0
LINE
8
BLACK
6
CONTINUOUS
10
1.9939370078740157
20
0.01
11
1.9938613779527559
21
0.0092319291338583
0
LINE
8
BLACK
6
CONTINUOUS
10
1.9938613779527559
20
0.0092319291338583
11
1.9932735039370078
21
0.0078127165354331
0
LINE
8
BLACK
6
CONTINUOUS
10
1.9932735039370078
20
0.0078127165354331
11
1.9921872834645669
21
0.0067264960629921
0
LINE
8
BLACK
6
CONTINUOUS
10
1.9921872834645669
20
0.0067264960629921
11
1.9907680708661417
21
0.0061386220472441
0
LINE
8
BLACK
6
CONTINUOUS
10
1.9907680708661417
20
0.0061386220472441
11
1.99
21
0.0060629921259843
0
LINE
8
BLACK
6
CONTINUOUS
10
1.99
20
0.0060629921259843
11
0.01
21
0.0060629921259843
0
LINE
8
BLACK
6
CONTINUOUS
10
0.01
20
0.0060629921259843
11
0.0092319291338583
21
0.0061386220472441
0
LINE
8
BLACK
6
CONTINUOUS
10
0.0092319291338583
20
0.0061386220472441
11
0.0078127165354331
21
0.0067264960629921
0
LINE
8
BLACK
6
CONTINUOUS
10
0.0078127165354331
20
0.0067264960629921
11
0.0067264960629921
21
0.0078127165354331
0
LINE
8
BLACK
6
CONTINUOUS
10
0.0067264960629921
20
0.0078127165354331
11
0.0061386220472441
21
0.0092319291338583
0
LINE
8
BLACK
6
CONTINUOUS
10
0.0061386220472441
20
0.0092319291338583
11
0.0060629921259843
21
0.01
0
LINE
8
BLACK
6
CONTINUOUS
10
0.0060629921259843
20
0.01
11
0.0060629921259843
21
3.6000000000000001
0
LINE
8
BLACK
6
CONTINUOUS
10
0.0060629921259843
20
3.6000000000000001
11
0.0061386220472441
21
3.6007680708661418
0
LINE
8
BLACK
6
CONTINUOUS
10
0.0061386220472441
20
3.6007680708661418
11
0.0067264960629921
21
3.6021872834645667
0
LINE
8
BLACK
6
CONTINUOUS
10
0.0067264960629921
20
3.6021872834645667
11
0.0078127165354331
21
3.6032735039370078
0
LINE
8
BLACK
6
CONTINUOUS
10
0.0078127165354331
20
3.6032735039370078
11
0.0092319291338583
21
3.603861377952756
0
LINE
8
BLACK
6
CONTINUOUS
10
0.0092319291338583
20
3.603861377952756
11
0.01
21
3.6039370078740158
0
LINE
8
BLACK
6
CONTINUOUS
10
0.01
20
3.6039370078740158
11
1.99
21
3.6039370078740158
0
LINE
8
BLACK
6
CONTINUOUS
10
1.99
20
3.6039370078740158
11
1.9907680708661417
21
3.603861377952756
0
LINE
8
BLACK
6
CONTINUOUS
10
0.0139370078740157
20
3.5960629921259843
11
0.0139370078740157
21
0.0139370078740157
0
LINE
8
BLACK
6
CONTINUOUS
10
0.0139370078740157
20
0.0139370078740157
11
1.9860629921259843
21
0.0139370078740157
0
LINE
8
BLACK
6
CONTINUOUS
10
1.9860629921259843
20
0.0139370078740157
11
1.9860629921259843
21
3.5960629921259843
0
LINE
8
BLACK
6
CONTINUOUS
10
1.9860629921259843
20
3.5960629921259843
11
0.0139370078740157
21
3.5960629921259843
0
CIRCLE
8
BLACK
10
0.25
20
2.7999999999999998
40
0.0068897637795276
0
CIRCLE
8
BLACK
10
0.25
20
2.8999999999999999
40
0.0068897637795276
0
CIRCLE
8
BLACK
10
0.35
20
2.7999999999999998
40
0.0068897637795276
0
CIRCLE
8
BLACK
10
0.35
20
2.8999999999999999
40
0.0068897637795276
0
CIRCLE
8
BLACK
10
0.45
20
2.7999999999999998
40
0.0068897637795276
0
CIRCLE
8
BLACK
10
0.45
20
2.8999999999999999
40
0.0068897637795276
0
CIRCLE
8
BLACK
10
0.5499999999999999
20
2.7999999999999998
40
0.0068897637795276
0
CIRCLE
8
BLACK
10
0.5499999999999999
20
2.8999999999999999
40
0.0068897637795276
0
CIRCLE
8
BLACK
10
0.65
20
2.7999999999999998
40
0.0068897637795276
0
CIRCLE
8
BLACK
10
0.65
20
2.8999999999999999
40
0.0068897637795276
0
CIRCLE
8
BLACK
10
0.75
20
2.7999999999999998
40
0.0068897637795276
0
CIRCLE
8
BLACK
10
0.75
20
2.8999999999999999
40
0.0068897637795276
0
CIRCLE
8
BLACK
10
0.85
20
2.7999999999999998
40
0.0068897637795276
0
CIRCLE
8
BLACK
10
0.85
20
2.8999999999999999
40
0.0068897637795276
0
CIRCLE
8
BLACK
10
0.95
20
2.7999999999999998
40
0.0068897637795276
0
CIRCLE
8
BLACK
10
0.95
20
2.8999999999999999
40
0.0068897637795276
0
CIRCLE
8
BLACK
10
1.05
20
2.7999999999999998
40
0.0068897637795276
0
CIRCLE
8
BLACK
10
1.05
20
2.8999999999999999
40
0.0068897637795276
0
CIRCLE
8
BLACK
10
1.1499999999999999
20
2.7999999999999998
40
0.0068897637795276
0
CIRCLE
8
BLACK
10
1.1499999999999999
20
2.8999999999999999
40
0.0068897637795276
0
CIRCLE
8
BLACK
10
1.25
20
2.7999999999999998
40
0.0068897637795276
0
CIRCLE
8
BLACK
10
1.25
20
2.8999999999999999
40
0.0068897637795276
0
CIRCLE
8
BLACK
10
1.3499999999999999
20
2.7999999999999998
40
0.0068897637795276
0
CIRCLE
8
BLACK
10
1.3499999999999999
20
2.8999999999999999
40
0.0068897637795276
0
CIRCLE
8
BLACK
10
1.45
20
2.7999999999999998
40
0.0068897637795276
0
CIRCLE
8
BLACK
10
1.45
20
2.8999999999999999
40
0.0068897637795276
0
CIRCLE
8
BLACK
10
1.55
20
2.7999999999999998
40
0.0068897637795276
0
CIRCLE
8
BLACK
10
1.55
20
2.8999999999999999
40
0.0068897637795276
0
CIRCLE
8
BLACK
10
1.6499999999999999
20
2.7999999999999998
40
0.0068897637795276
0
CIRCLE
8
BLACK
10
1.6499999999999999
20
2.8999999999999999
40
0.0068897637795276
0
CIRCLE
8
BLACK
10
1.75
20
2.7999999999999998
40
0.0068897637795276
0
CIRCLE
8
BLACK
10
1.75
20
2.8999999999999999
40
0.0068897637795276
0
CIRCLE
8
BLACK
10
0.8618110236220472
20
3.1413385826771654
40
0.0068897637795276
0
CIRCLE
8
BLACK
10
0.7618110236220472
20
3.1413385826771654
40
0.0068897637795276
0
CIRCLE
8
BLACK
10
0.8618110236220472
20
3.2413385826771655
40
0.0068897637795276
0
CIRCLE
8
BLACK
10
0.7618110236220472
20
3.2413385826771655
40
0.0068897637795276
0
CIRCLE
8
BLACK
10
0.8618110236220472
20
3.3413385826771651
40
0.0068897637795276
0
CIRCLE
8
BLACK
10
0.7618110236220472
20
3.3413385826771651
40
0.0068897637795276
0
CIRCLE
8
BLACK
10
1.0275590551181102
20
3.1887795275590549
40
0.0068897637795276
0
CIRCLE
8
BLACK
10
1.0275590551181102
20
3.0887795275590548
40
0.0068897637795276
0
CIRCLE
8
BLACK
10
0.2
20
0.2
40
0.0068897637795276
0
CIRCLE
8
BLACK
10
1.8499999999999999
20
0.4
40
0.0068897637795276
0
CIRCLE
8
BLACK
10
1.75
20
0.4
40
0.0068897637795276
0
CIRCLE
8
BLACK
10
0.2
20
3.3999999999999999
40
0.0068897637795276
0
CIRCLE
8
BLACK
10
1.8
20
3.3999999999999999
40
0.0068897637795276
0
CIRCLE
8
BLACK
10
1.2921259842519686
20
1.0700000000000001
40
0.0068897637795276
0
CIRCLE
8
BLACK
10
1.0999999999999999
20
1.0700000000000001
40
0.0068897637795276
0
CIRCLE
8
BLACK
10
1.05
20
0.1
40
0.0068897637795276
0
CIRCLE
8
BLACK
10
1.1499999999999999
20
0.1
40
0.0068897637795276
0
CIRCLE
8
BLACK
10
1.25
20
0.1
40
0.0068897637795276
0
CIRCLE
8
BLACK
10
1.3499999999999999
20
0.1
40
0.0068897637795276
0
CIRCLE
8
BLACK
10
1.45
20
0.1
40
0.0068897637795276
0
CIRCLE
8
BLACK
10
1.55
20
0.1
40
0.0068897637795276
0
CIRCLE
8
BLACK
10
0.4074803149606299
20
3.4446850393700785
40
0.0068897637795276
0
CIRCLE
8
BLACK
10
0.4074803149606299
20
3.3446850393700789
40
0.0068897637795276
0
CIRCLE
8
BLACK
10
0.25
20
0.95
40
0.0068897637795276
0
CIRCLE
8
BLACK
10
0.15
20
0.95
40
0.0068897637795276
0
CIRCLE
8
BLACK
10
0.25
20
1.05
40
0.0068897637795276
0
CIRCLE
8
BLACK
10
0.15
20
1.05
40
0.0068897637795276
0
CIRCLE
8
BLACK
10
0.25
20
1.1499999999999999
40
0.0068897637795276
0
CIRCLE
8
BLACK
10
0.15
20
1.1499999999999999
40
0.0068897637795276
0
CIRCLE
8
BLACK
10
0.25
20
1.25
40
0.0068897637795276
0
CIRCLE
8
BLACK
10
0.15
20
1.25
40
0.0068897637795276
0
CIRCLE
8
BLACK
10
0.25
20
1.3499999999999999
40
0.0068897637795276
0
CIRCLE
8
BLACK
10
0.15
20
1.3499999999999999
40
0.0068897637795276
0
CIRCLE
8
BLACK
10
0.25
20
1.45
40
0.0068897637795276
0
CIRCLE
8
BLACK
10
0.15
20
1.45
40
0.0068897637795276
0
CIRCLE
8
BLACK
10
0.25
20
1.55
40
0.0068897637795276
0
CIRCLE
8
BLACK
10
0.15
20
1.55
40
0.0068897637795276
0
CIRCLE
8
BLACK
10
0.25
20
1.6499999999999999
40
0.0068897637795276
0
CIRCLE
8
BLACK
10
0.15
20
1.6499999999999999
40
0.0068897637795276
0
CIRCLE
8
BLACK
10
0.25
20
1.75
40
0.0068897637795276
0
CIRCLE
8
BLACK
10
0.15
20
1.75
40
0.0068897637795276
0
CIRCLE
8
BLACK
10
0.25
20
1.8499999999999999
40
0.0068897637795276
0
CIRCLE
8
BLACK
10
0.15
20
1.8499999999999999
40
0.0068897637795276
0
CIRCLE
8
BLACK
10
0.25
20
1.95
40
0.0068897637795276
0
CIRCLE
8
BLACK
10
0.15
20
1.95
40
0.0068897637795276
0
CIRCLE
8
BLACK
10
0.25
20
2.0499999999999998
40
0.0068897637795276
0
CIRCLE
8
BLACK
10
0.15
20
2.0499999999999998
40
0.0068897637795276
0
CIRCLE
8
BLACK
10
0.25
20
2.1499999999999999
40
0.0068897637795276
0
CIRCLE
8
BLACK
10
0.15
20
2.1499999999999999
40
0.0068897637795276
0
CIRCLE
8
BLACK
10
0.25
20
2.25
40
0.0068897637795276
0
CIRCLE
8
BLACK
10
0.15
20
2.25
40
0.0068897637795276
0
CIRCLE
8
BLACK
10
0.25
20
2.3500000000000001
40
0.0068897637795276
0
CIRCLE
8
BLACK
10
0.15
20
2.3500000000000001
40
0.0068897637795276
0
CIRCLE
8
BLACK
10
0.25
20
2.4499999999999997
40
0.0068897637795276
0
CIRCLE
8
BLACK
10
0.15
20
2.4499999999999997
40
0.0068897637795276
0
CIRCLE
8
BLACK
10
1.8
20
0.2
40
0.0068897637795276
0
CIRCLE
8
BLACK
10
1.7498031496062991
20
2.4499999999999997
40
0.0068897637795276
0
CIRCLE
8
BLACK
10
1.8498031496062992
20
2.4499999999999997
40
0.0068897637795276
0
CIRCLE
8
BLACK
10
1.7498031496062991
20
2.3500000000000001
40
0.0068897637795276
0
CIRCLE
8
BLACK
10
1.8498031496062992
20
2.3500000000000001
40
0.0068897637795276
0
CIRCLE
8
BLACK
10
1.7498031496062991
20
2.25
40
0.0068897637795276
0
CIRCLE
8
BLACK
10
1.8498031496062992
20
2.25
40
0.0068897637795276
0
CIRCLE
8
BLACK
10
1.7498031496062991
20
2.1499999999999999
40
0.0068897637795276
0
CIRCLE
8
BLACK
10
1.8498031496062992
20
2.1499999999999999
40
0.0068897637795276
0
CIRCLE
8
BLACK
10
1.7498031496062991
20
2.0499999999999998
40
0.0068897637795276
0
CIRCLE
8
BLACK
10
1.8498031496062992
20
2.0499999999999998
40
0.0068897637795276
0
CIRCLE
8
BLACK
10
1.7498031496062991
20
1.95
40
0.0068897637795276
0
CIRCLE
8
BLACK
10
1.8498031496062992
20
1.95
40
0.0068897637795276
0
CIRCLE
8
BLACK
10
1.7498031496062991
20
1.8499999999999999
40
0.0068897637795276
0
CIRCLE
8
BLACK
10
1.8498031496062992
20
1.8499999999999999
40
0.0068897637795276
0
CIRCLE
8
BLACK
10
1.7498031496062991
20
1.75
40
0.0068897637795276
0
CIRCLE
8
BLACK
10
1.8498031496062992
20
1.75
40
0.0068897637795276
0
CIRCLE
8
BLACK
10
1.7498031496062991
20
1.6499999999999999
40
0.0068897637795276
0
CIRCLE
8
BLACK
10
1.8498031496062992
20
1.6499999999999999
40
0.0068897637795276
0
CIRCLE
8
BLACK
10
1.7498031496062991
20
1.55
40
0.0068897637795276
0
CIRCLE
8
BLACK
10
1.8498031496062992
20
1.55
40
0.0068897637795276
0
CIRCLE
8
BLACK
10
1.7498031496062991
20
1.45
40
0.0068897637795276
0
CIRCLE
8
BLACK
10
1.8498031496062992
20
1.45
40
0.0068897637795276
0
CIRCLE
8
BLACK
10
1.7498031496062991
20
1.3499999999999999
40
0.0068897637795276
0
CIRCLE
8
BLACK
10
1.8498031496062992
20
1.3499999999999999
40
0.0068897637795276
0
CIRCLE
8
BLACK
10
1.7498031496062991
20
1.25
40
0.0068897637795276
0
CIRCLE
8
BLACK
10
1.8498031496062992
20
1.25
40
0.0068897637795276
0
CIRCLE
8
BLACK
10
1.7498031496062991
20
1.1499999999999999
40
0.0068897637795276
0
CIRCLE
8
BLACK
10
1.8498031496062992
20
1.1499999999999999
40
0.0068897637795276
0
CIRCLE
8
BLACK
10
1.7498031496062991
20
1.05
40
0.0068897637795276
0
CIRCLE
8
BLACK
10
1.8498031496062992
20
1.05
40
0.0068897637795276
0
CIRCLE
8
BLACK
10
1.7498031496062991
20
0.95
40
0.0068897637795276
0
CIRCLE
8
BLACK
10
1.8498031496062992
20
0.95
40
0.0068897637795276
0
CIRCLE
8
BLACK
10
1.2027559055118109
20
1.3400000000000001
40
0.0068897637795276
0
CIRCLE
8
BLACK
10
1.2027559055118109
20
1.24
40
0.0068897637795276
0
CIRCLE
8
BLACK
10
1.75
20
0.65
40
0.0068897637795276
0
CIRCLE
8
BLACK
10
1.75
20
0.5499999999999999
40
0.0068897637795276
0
CIRCLE
8
BLACK
10
1.6499999999999999
20
0.65
40
0.0068897637795276
0
CIRCLE
8
BLACK
10
1.6499999999999999
20
0.5499999999999999
40
0.0068897637795276
0
CIRCLE
8
BLACK
10
1.55
20
0.65
40
0.0068897637795276
0
CIRCLE
8
BLACK
10
1.55
20
0.5499999999999999
40
0.0068897637795276
0
CIRCLE
8
BLACK
10
1.45
20
0.65
40
0.0068897637795276
0
CIRCLE
8
BLACK
10
1.45
20
0.5499999999999999
40
0.0068897637795276
0
CIRCLE
8
BLACK
10
1.3499999999999999
20
0.65
40
0.0068897637795276
0
CIRCLE
8
BLACK
10
1.3499999999999999
20
0.5499999999999999
40
0.0068897637795276
0
CIRCLE
8
BLACK
10
1.25
20
0.65
40
0.0068897637795276
0
CIRCLE
8
BLACK
10
1.25
20
0.5499999999999999
40
0.0068897637795276
0
CIRCLE
8
BLACK
10
1.1499999999999999
20
0.65
40
0.0068897637795276
0
CIRCLE
8
BLACK
10
1.1499999999999999
20
0.5499999999999999
40
0.0068897637795276
0
CIRCLE
8
BLACK
10
1.05
20
0.65
40
0.0068897637795276
0
CIRCLE
8
BLACK
10
1.05
20
0.5499999999999999
40
0.0068897637795276
0
CIRCLE
8
BLACK
10
0.95
20
0.65
40
0.0068897637795276
0
CIRCLE
8
BLACK
10
0.95
20
0.5499999999999999
40
0.0068897637795276
0
CIRCLE
8
BLACK
10
0.85
20
0.65
40
0.0068897637795276
0
CIRCLE
8
BLACK
10
0.85
20
0.5499999999999999
40
0.0068897637795276
0
CIRCLE
8
BLACK
10
0.75
20
0.65
40
0.0068897637795276
0
CIRCLE
8
BLACK
10
0.75
20
0.5499999999999999
40
0.0068897637795276
0
CIRCLE
8
BLACK
10
0.65
20
0.65
40
0.0068897637795276
0
CIRCLE
8
BLACK
10
0.65
20
0.5499999999999999
40
0.0068897637795276
0
CIRCLE
8
BLACK
10
0.5499999999999999
20
0.65
40
0.0068897637795276
0
CIRCLE
8
BLACK
10
0.5499999999999999
20
0.5499999999999999
40
0.0068897637795276
0
CIRCLE
8
BLACK
10
0.45
20
0.65
40
0.0068897637795276
0
CIRCLE
8
BLACK
10
0.45
20
0.5499999999999999
40
0.0068897637795276
0
CIRCLE
8
BLACK
10
0.35
20
0.65
40
0.0068897637795276
0
CIRCLE
8
BLACK
10
0.35
20
0.5499999999999999
40
0.0068897637795276
0
CIRCLE
8
BLACK
10
0.25
20
0.65
40
0.0068897637795276
0
CIRCLE
8
BLACK
10
0.25
20
0.5499999999999999
40
0.0068897637795276
0
CIRCLE
8
BLACK
10
0.7114173228346456
20
0.0720472440944882
40
0.0068897637795276
0
CIRCLE
8
BLACK
10
0.7114173228346456
20
0.3279527559055118
40
0.0068897637795276
0
CIRCLE
8
BLACK
10
0.8885826771653543
20
0.0720472440944882
40
0.0068897637795276
0
CIRCLE
8
BLACK
10
0.8885826771653543
20
0.3279527559055118
40
0.0068897637795276
0
CIRCLE
8
BLACK
10
0.4114173228346457
20
0.0720472440944882
40
0.0068897637795276
0
CIRCLE
8
BLACK
10
0.4114173228346457
20
0.3279527559055118
40
0.0068897637795276
0
CIRCLE
8
BLACK
10
0.5885826771653543
20
0.0720472440944882
40
0.0068897637795276
0
CIRCLE
8
BLACK
10
0.5885826771653543
20
0.3279527559055118
40
0.0068897637795276
0
CIRCLE
8
BLACK
10
1.3265748031496063
20
3.4185039370078738
40
0.0068897637795276
0
CIRCLE
8
BLACK
10
1.5234251968503936
20
3.4185039370078738
40
0.0068897637795276
0
LINE
8
BLACK
6
CONTINUOUS
10
1.2830596850393701
20
3.5118641732283464
11
1.2814430708661417
21
3.5079613385826769
0
LINE
8
BLACK
6
CONTINUOUS
10
1.2814430708661417
20
3.5079613385826769
11
1.2784559842519685
21
3.5049742519685037
0
LINE
8
BLACK
6
CONTINUOUS
10
1.2784559842519685
20
3.5049742519685037
11
1.2745531496062992
21
3.5033576377952755
0
LINE
8
BLACK
6
CONTINUOUS
10
1.2745531496062992
20
3.5033576377952755
11
1.2703287401574803
21
3.5033576377952755
0
LINE
8
BLACK
6
CONTINUOUS
10
1.2703287401574803
20
3.5033576377952755
11
1.266425905511811
21
3.5049742519685037
0
LINE
8
BLACK
6
CONTINUOUS
10
1.266425905511811
20
3.5049742519685037
11
1.2634388188976378
21
3.5079613385826769
0
LINE
8
BLACK
6
CONTINUOUS
10
1.2634388188976378
20
3.5079613385826769
11
1.2618222047244094
21
3.5118641732283464
0
LINE
8
BLACK
6
CONTINUOUS
10
1.2618222047244094
20
3.5118641732283464
11
1.2616141732283463
21
3.5139763779527557
0
LINE
8
BLACK
6
CONTINUOUS
10
1.2616141732283463
20
3.5139763779527557
11
1.2616141732283463
21
3.5395669291338581
0
LINE
8
BLACK
6
CONTINUOUS
10
1.2616141732283463
20
3.5395669291338581
11
1.2618222047244094
21
3.5416791338582678
0
LINE
8
BLACK
6
CONTINUOUS
10
1.2618222047244094
20
3.5416791338582678
11
1.2634388188976378
21
3.5455819685039369
0
LINE
8
BLACK
6
CONTINUOUS
10
1.2634388188976378
20
3.5455819685039369
11
1.266425905511811
21
3.5485690551181102
0
LINE
8
BLACK
6
CONTINUOUS
10
1.266425905511811
20
3.5485690551181102
11
1.2703287401574803
21
3.5501856692913387
0
LINE
8
BLACK
6
CONTINUOUS
10
1.2703287401574803
20
3.5501856692913387
11
1.2745531496062992
21
3.5501856692913387
0
LINE
8
BLACK
6
CONTINUOUS
10
1.2745531496062992
20
3.5501856692913387
11
1.2784559842519685
21
3.5485690551181102
0
LINE
8
BLACK
6
CONTINUOUS
10
1.2784559842519685
20
3.5485690551181102
11
1.2814430708661417
21
3.5455819685039369
0
LINE
8
BLACK
6
CONTINUOUS
10
1.2814430708661417
20
3.5455819685039369
11
1.2830596850393701
21
3.5416791338582678
0
LINE
8
BLACK
6
CONTINUOUS
10
1.2830596850393701
20
3.5416791338582678
11
1.2832677165354331
21
3.5395669291338581
0
LINE
8
BLACK
6
CONTINUOUS
10
1.2832677165354331
20
3.5395669291338581
11
1.2832677165354331
21
3.5139763779527557
0
LINE
8
BLACK
6
CONTINUOUS
10
1.2832677165354331
20
3.5139763779527557
11
1.2830596850393701
21
3.5118641732283464
0
LINE
8
BLACK
6
CONTINUOUS
10
1.294935590551181
20
3.3641545669291339
11
1.2938050787401574
21
3.359935433070866
0
LINE
8
BLACK
6
CONTINUOUS
10
1.2938050787401574
20
3.359935433070866
11
1.2916210629921259
21
3.3561525984251968
0
LINE
8
BLACK
6
CONTINUOUS
10
1.2916210629921259
20
3.3561525984251968
11
1.288532440944882
21
3.3530639763779528
0
LINE
8
BLACK
6
CONTINUOUS
10
1.288532440944882
20
3.3530639763779528
11
1.2847496062992125
21
3.3508799606299213
0
LINE
8
BLACK
6
CONTINUOUS
10
1.2847496062992125
20
3.3508799606299213
11
1.2805304724409448
21
3.3497494488188977
0
LINE
8
BLACK
6
CONTINUOUS
10
1.2805304724409448
20
3.3497494488188977
11
1.276162440944882
21
3.3497494488188977
0
LINE
8
BLACK
6
CONTINUOUS
10
1.276162440944882
20
3.3497494488188977
11
1.2719433070866142
21
3.3508799606299213
0
LINE
8
BLACK
6
CONTINUOUS
10
1.2719433070866142
20
3.3508799606299213
11
1.2681604724409448
21
3.3530639763779528
0
LINE
8
BLACK
6
CONTINUOUS
10
1.2681604724409448
20
3.3530639763779528
11
1.2650718503937008
21
3.3561525984251968
0
LINE
8
BLACK
6
CONTINUOUS
10
1.2650718503937008
20
3.3561525984251968
11
1.2628878346456693
21
3.359935433070866
0
LINE
8
BLACK
6
CONTINUOUS
10
1.2628878346456693
20
3.359935433070866
11
1.2617573228346457
21
3.3641545669291339
0
LINE
8
BLACK
6
CONTINUOUS
10
1.2617573228346457
20
3.3641545669291339
11
1.2616141732283463
21
3.3663385826771655
0
LINE
8
BLACK
6
CONTINUOUS
10
1.2616141732283463
20
3.3663385826771655
11
1.2616141732283463
21
3.387992125984252
0
LINE
8
BLACK
6
CONTINUOUS
10
1.2616141732283463
20
3.387992125984252
11
1.2617573228346457
21
3.3901761417322835
0
LINE
8
BLACK
6
CONTINUOUS
10
1.2617573228346457
20
3.3901761417322835
11
1.2628878346456693
21
3.3943952755905511
0
LINE
8
BLACK
6
CONTINUOUS
10
1.2628878346456693
20
3.3943952755905511
11
1.2650718503937008
21
3.3981781102362203
0
LINE
8
BLACK
6
CONTINUOUS
10
1.2650718503937008
20
3.3981781102362203
11
1.2681604724409448
21
3.4012667322834647
0
LINE
8
BLACK
6
CONTINUOUS
10
1.2681604724409448
20
3.4012667322834647
11
1.2719433070866142
21
3.4034507480314962
0
LINE
8
BLACK
6
CONTINUOUS
10
1.2719433070866142
20
3.4034507480314962
11
1.276162440944882
21
3.4045812598425198
0
LINE
8
BLACK
6
CONTINUOUS
10
1.276162440944882
20
3.4045812598425198
11
1.2805304724409448
21
3.4045812598425198
0
LINE
8
BLACK
6
CONTINUOUS
10
1.2805304724409448
20
3.4045812598425198
11
1.2847496062992125
21
3.4034507480314962
0
LINE
8
BLACK
6
CONTINUOUS
10
1.2847496062992125
20
3.4034507480314962
11
1.288532440944882
21
3.4012667322834647
0
LINE
8
BLACK
6
CONTINUOUS
10
1.288532440944882
20
3.4012667322834647
11
1.2916210629921259
21
3.3981781102362203
0
LINE
8
BLACK
6
CONTINUOUS
10
1.2916210629921259
20
3.3981781102362203
11
1.2938050787401574
21
3.3943952755905511
0
LINE
8
BLACK
6
CONTINUOUS
10
1.2938050787401574
20
3.3943952755905511
11
1.294935590551181
21
3.3901761417322835
0
LINE
8
BLACK
6
CONTINUOUS
10
1.294935590551181
20
3.3901761417322835
11
1.2950787401574804
21
3.387992125984252
0
LINE
8
BLACK
6
CONTINUOUS
10
1.2950787401574804
20
3.387992125984252
11
1.2950787401574804
21
3.3663385826771655
0
LINE
8
BLACK
6
CONTINUOUS
10
1.2950787401574804
20
3.3663385826771655
11
1.294935590551181
21
3.3641545669291339
0
LINE
8
BLACK
6
CONTINUOUS
10
1.5882426771653544
20
3.3641545669291339
11
1.5871121653543308
21
3.359935433070866
0
LINE
8
BLACK
6
CONTINUOUS
10
1.5871121653543308
20
3.359935433070866
11
1.5849281496062992
21
3.3561525984251968
0
LINE
8
BLACK
6
CONTINUOUS
10
1.5849281496062992
20
3.3561525984251968
11
1.5818395275590551
21
3.3530639763779528
0
LINE
8
BLACK
6
CONTINUOUS
10
1.5818395275590551
20
3.3530639763779528
11
1.5780566929133857
21
3.3508799606299213
0
LINE
8
BLACK
6
CONTINUOUS
10
1.5780566929133857
20
3.3508799606299213
11
1.5738375590551181
21
3.3497494488188977
0
LINE
8
BLACK
6
CONTINUOUS
10
1.5738375590551181
20
3.3497494488188977
11
1.5694695275590551
21
3.3497494488188977
0
LINE
8
BLACK
6
CONTINUOUS
10
1.5694695275590551
20
3.3497494488188977
11
1.5652503937007873
21
3.3508799606299213
0
LINE
8
BLACK
6
CONTINUOUS
10
1.5652503937007873
20
3.3508799606299213
11
1.5614675590551181
21
3.3530639763779528
0
LINE
8
BLACK
6
CONTINUOUS
10
1.5614675590551181
20
3.3530639763779528
11
1.558378937007874
21
3.3561525984251968
0
LINE
8
BLACK
6
CONTINUOUS
10
1.558378937007874
20
3.3561525984251968
11
1.5561949212598425
21
3.359935433070866
0
LINE
8
BLACK
6
CONTINUOUS
10
1.5561949212598425
20
3.359935433070866
11
1.5550644094488189
21
3.3641545669291339
0
LINE
8
BLACK
6
CONTINUOUS
10
1.5550644094488189
20
3.3641545669291339
11
1.5549212598425197
21
3.3663385826771655
0
LINE
8
BLACK
6
CONTINUOUS
10
1.5549212598425197
20
3.3663385826771655
11
1.5549212598425197
21
3.387992125984252
0
LINE
8
BLACK
6
CONTINUOUS
10
1.5549212598425197
20
3.387992125984252
11
1.5550644094488189
21
3.3901761417322835
0
LINE
8
BLACK
6
CONTINUOUS
10
1.5550644094488189
20
3.3901761417322835
11
1.5561949212598425
21
3.3943952755905511
0
LINE
8
BLACK
6
CONTINUOUS
10
1.5561949212598425
20
3.3943952755905511
11
1.558378937007874
21
3.3981781102362203
0
LINE
8
BLACK
6
CONTINUOUS
10
1.558378937007874
20
3.3981781102362203
11
1.5614675590551181
21
3.4012667322834647
0
LINE
8
BLACK
6
CONTINUOUS
10
1.5614675590551181
20
3.4012667322834647
11
1.5652503937007873
21
3.4034507480314962
0
LINE
8
BLACK
6
CONTINUOUS
10
1.5652503937007873
20
3.4034507480314962
11
1.5694695275590551
21
3.4045812598425198
0
LINE
8
BLACK
6
CONTINUOUS
10
1.5694695275590551
20
3.4045812598425198
11
1.5738375590551181
21
3.4045812598425198
0
LINE
8
BLACK
6
CONTINUOUS
10
1.5738375590551181
20
3.4045812598425198
11
1.5780566929133857
21
3.4034507480314962
0
LINE
8
BLACK
6
CONTINUOUS
10
1.5780566929133857
20
3.4034507480314962
11
1.5818395275590551
21
3.4012667322834647
0
LINE
8
BLACK
6
CONTINUOUS
10
1.5818395275590551
20
3.4012667322834647
11
1.5849281496062992
21
3.3981781102362203
0
LINE
8
BLACK
6
CONTINUOUS
10
1.5849281496062992
20
3.3981781102362203
11
1.5871121653543308
21
3.3943952755905511
0
LINE
8
BLACK
6
CONTINUOUS
10
1.5871121653543308
20
3.3943952755905511
11
1.5882426771653544
21
3.3901761417322835
0
LINE
8
BLACK
6
CONTINUOUS
10
1.5882426771653544
20
3.3901761417322835
11
1.5883858267716535
21
3.387992125984252
0
LINE
8
BLACK
6
CONTINUOUS
10
1.5883858267716535
20
3.387992125984252
11
1.5883858267716535
21
3.3663385826771655
0
LINE
8
BLACK
6
CONTINUOUS
10
1.5883858267716535
20
3.3663385826771655
11
1.5882426771653544
21
3.3641545669291339
0
LINE
8
BLACK
6
CONTINUOUS
10
1.5881777952755904
20
3.5118641732283464
11
1.5865611811023621
21
3.5079613385826769
0
LINE
8
BLACK
6
CONTINUOUS
10
1.5865611811023621
20
3.5079613385826769
11
1.5835740944881889
21
3.5049742519685037
0
LINE
8
BLACK
6
CONTINUOUS
10
1.5835740944881889
20
3.5049742519685037
11
1.5796712598425195
21
3.5033576377952755
0
LINE
8
BLACK
6
CONTINUOUS
10
1.5796712598425195
20
3.5033576377952755
11
1.5754468503937007
21
3.5033576377952755
0
LINE
8
BLACK
6
CONTINUOUS
10
1.5754468503937007
20
3.5033576377952755
11
1.5715440157480314
21
3.5049742519685037
0
LINE
8
BLACK
6
CONTINUOUS
10
1.5715440157480314
20
3.5049742519685037
11
1.5685569291338581
21
3.5079613385826769
0
LINE
8
BLACK
6
CONTINUOUS
10
1.5685569291338581
20
3.5079613385826769
11
1.5669403149606298
21
3.5118641732283464
0
LINE
8
BLACK
6
CONTINUOUS
10
1.5669403149606298
20
3.5118641732283464
11
1.5667322834645669
21
3.5139763779527557
0
LINE
8
BLACK
6
CONTINUOUS
10
1.5667322834645669
20
3.5139763779527557
11
1.5667322834645669
21
3.5395669291338581
0
LINE
8
BLACK
6
CONTINUOUS
10
1.5667322834645669
20
3.5395669291338581
11
1.5669403149606298
21
3.5416791338582678
0
LINE
8
BLACK
6
CONTINUOUS
10
1.5669403149606298
20
3.5416791338582678
11
1.5685569291338581
21
3.5455819685039369
0
LINE
8
BLACK
6
CONTINUOUS
10
1.5685569291338581
20
3.5455819685039369
11
1.5715440157480314
21
3.5485690551181102
0
LINE
8
BLACK
6
CONTINUOUS
10
1.5715440157480314
20
3.5485690551181102
11
1.5754468503937007
21
3.5501856692913387
0
LINE
8
BLACK
6
CONTINUOUS
10
1.5754468503937007
20
3.5501856692913387
11
1.5796712598425195
21
3.5501856692913387
0
LINE
8
BLACK
6
CONTINUOUS
10
1.5796712598425195
20
3.5501856692913387
11
1.5835740944881889
21
3.5485690551181102
0
LINE
8
BLACK
6
CONTINUOUS
10
1.5835740944881889
20
3.5485690551181102
11
1.5865611811023621
21
3.5455819685039369
0
LINE
8
BLACK
6
CONTINUOUS
10
1.5865611811023621
20
3.5455819685039369
11
1.5881777952755904
21
3.5416791338582678
0
LINE
8
BLACK
6
CONTINUOUS
10
1.5881777952755904
20
3.5416791338582678
11
1.5883858267716535
21
3.5395669291338581
0
LINE
8
BLACK
6
CONTINUOUS
10
1.5883858267716535
20
3.5395669291338581
11
1.5883858267716535
21
3.5139763779527557
0
LINE
8
BLACK
6
CONTINUOUS
10
1.5883858267716535
20
3.5139763779527557
11
1.5881777952755904
21
3.5118641732283464
  0
ENDSEC
  0
EOF
