  0
SECTION
  2
HEADER
  9
$ANGBASE
  50
0.0
  9
$ANGDIR
  70
1
  9
$MEASUREMENT
  70
0
  0
ENDSEC
  0
SECTION
  2
TABLES
  0
TABLE
  2
LTYPE
  70
4
  0
LTYPE
  5
40F
  2
CONTINUOUS
  70
0
  3
Solid line
  72
65
  73
0
  40
0.0
  0
LTYPE
  5
410
  2
DASHDOT
 70
0
  3
Dash Dot ____ _ ____ _
 72
65
 73
4
 40
2.0
 49
1.25
 49
-0.25
 49
0.25
 49
-0.25
  0
LTYPE
  5
411
  2
DASHED
 70
0
  3
Dashed __ __ __ __ __
 72
65
 73
2
 40
0.75
 49
0.5
 49
-0.25
  0
LTYPE
  5
43B
  2
DOTTED
 70
0
  3
Dotted .  .  .  .
 72
65
 73
2
 40
0.2
 49
0.0
 49
-0.2
  0
ENDTAB
  0
TABLE
  2
STYLE
  70
4
  0
STYLE
  2
KICAD
  70
0
  40
0
  41
1
  42
1
  50
0
  71
0
  3
isocp.shx
  0
STYLE
  2
KICADB
  70
0
  40
0
  41
1
  42
1
  50
0
  71
0
  3
isocp.shx
  0
STYLE
  2
KICADI
  70
0
  40
0
  41
1
  42
1
  50
15
  71
0
  3
isocp.shx
  0
STYLE
  2
KICADBI
  70
0
  40
0
  41
1
  42
1
  50
15
  71
0
  3
isocp.shx
  0
ENDTAB
  0
TABLE
  2
LAYER
  70
1
  0
LAYER
  2
BLACK
  70
0
  62
7
  6
CONTINUOUS
  0
ENDTAB
  0
ENDSEC
  0
SECTION
  2
ENTITIES
0
LINE
8
BLACK
6
CONTINUOUS
10
0.7335459448818897
20
0.2394920078740158
11
0.7340786220472441
21
0.2389593307086614
0
LINE
8
BLACK
6
CONTINUOUS
10
0.7340786220472441
20
0.2389593307086614
11
0.7341535433070866
21
0.2385826771653543
0
LINE
8
BLACK
6
CONTINUOUS
10
0.7341535433070866
20
0.2385826771653543
11
0.7341535433070866
21
0.1614173228346457
0
LINE
8
BLACK
6
CONTINUOUS
10
0.7341535433070866
20
0.1614173228346457
11
0.7340786220472441
21
0.1610406692913386
0
LINE
8
BLACK
6
CONTINUOUS
10
0.7340786220472441
20
0.1610406692913386
11
0.7335459448818897
21
0.1605079921259842
0
LINE
8
BLACK
6
CONTINUOUS
10
0.7335459448818897
20
0.1605079921259842
11
0.7331692913385827
21
0.1604330708661417
0
LINE
8
BLACK
6
CONTINUOUS
10
0.7331692913385827
20
0.1604330708661417
11
0.5851377952755905
21
0.1604330708661417
0
LINE
8
BLACK
6
CONTINUOUS
10
0.5851377952755905
20
0.1604330708661417
11
0.5847611417322834
21
0.1605079921259842
0
LINE
8
BLACK
6
CONTINUOUS
10
0.5847611417322834
20
0.1605079921259842
11
0.5842284645669291
21
0.1610406692913386
0
LINE
8
BLACK
6
CONTINUOUS
10
0.5842284645669291
20
0.1610406692913386
11
0.5841535433070866
21
0.1614173228346457
0
LINE
8
BLACK
6
CONTINUOUS
10
0.5841535433070866
20
0.1614173228346457
11
0.5841535433070866
21
0.2385826771653543
0
LINE
8
BLACK
6
CONTINUOUS
10
0.5841535433070866
20
0.2385826771653543
11
0.5842284645669291
21
0.2389593307086614
0
LINE
8
BLACK
6
CONTINUOUS
10
0.5842284645669291
20
0.2389593307086614
11
0.5847611417322834
21
0.2394920078740158
0
LINE
8
BLACK
6
CONTINUOUS
10
0.5847611417322834
20
0.2394920078740158
11
0.5851377952755905
21
0.2395669291338583
0
LINE
8
BLACK
6
CONTINUOUS
10
0.5851377952755905
20
0.2395669291338583
11
0.7331692913385827
21
0.2395669291338583
0
LINE
8
BLACK
6
CONTINUOUS
10
0.7331692913385827
20
0.2395669291338583
11
0.7335459448818897
21
0.2394920078740158
0
LINE
8
BLACK
6
CONTINUOUS
10
0.5861220472440944
20
0.2375984251968504
11
0.5861220472440944
21
0.1624015748031496
0
LINE
8
BLACK
6
CONTINUOUS
10
0.5861220472440944
20
0.1624015748031496
11
0.7321850393700787
21
0.1624015748031496
0
LINE
8
BLACK
6
CONTINUOUS
10
0.7321850393700787
20
0.1624015748031496
11
0.7321850393700787
21
0.2375984251968504
0
LINE
8
BLACK
6
CONTINUOUS
10
0.7321850393700787
20
0.2375984251968504
11
0.5861220472440944
21
0.2375984251968504
0
LINE
8
BLACK
6
CONTINUOUS
10
0.5259672047244094
20
0.4800431889763779
11
0.5264998818897638
21
0.4795105118110236
0
LINE
8
BLACK
6
CONTINUOUS
10
0.5264998818897638
20
0.4795105118110236
11
0.5265748031496063
21
0.4791338582677165
0
LINE
8
BLACK
6
CONTINUOUS
10
0.5265748031496063
20
0.4791338582677165
11
0.5265748031496063
21
0.4043307086614173
0
LINE
8
BLACK
6
CONTINUOUS
10
0.5265748031496063
20
0.4043307086614173
11
0.5264998818897638
21
0.4039540551181102
0
LINE
8
BLACK
6
CONTINUOUS
10
0.5264998818897638
20
0.4039540551181102
11
0.5259672047244094
21
0.4034213779527559
0
LINE
8
BLACK
6
CONTINUOUS
10
0.5259672047244094
20
0.4034213779527559
11
0.5255905511811023
21
0.4033464566929134
0
LINE
8
BLACK
6
CONTINUOUS
10
0.5255905511811023
20
0.4033464566929134
11
0.3799212598425197
21
0.4033464566929134
0
LINE
8
BLACK
6
CONTINUOUS
10
0.3799212598425197
20
0.4033464566929134
11
0.3795446062992126
21
0.4034213779527559
0
LINE
8
BLACK
6
CONTINUOUS
10
0.3795446062992126
20
0.4034213779527559
11
0.3790119291338583
21
0.4039540551181102
0
LINE
8
BLACK
6
CONTINUOUS
10
0.3790119291338583
20
0.4039540551181102
11
0.3789370078740157
21
0.4043307086614173
0
LINE
8
BLACK
6
CONTINUOUS
10
0.3789370078740157
20
0.4043307086614173
11
0.3789370078740157
21
0.4791338582677165
0
LINE
8
BLACK
6
CONTINUOUS
10
0.3789370078740157
20
0.4791338582677165
11
0.3790119291338583
21
0.4795105118110236
0
LINE
8
BLACK
6
CONTINUOUS
10
0.3790119291338583
20
0.4795105118110236
11
0.3795446062992126
21
0.4800431889763779
0
LINE
8
BLACK
6
CONTINUOUS
10
0.3795446062992126
20
0.4800431889763779
11
0.3799212598425197
21
0.4801181102362205
0
LINE
8
BLACK
6
CONTINUOUS
10
0.3799212598425197
20
0.4801181102362205
11
0.5255905511811023
21
0.4801181102362205
0
LINE
8
BLACK
6
CONTINUOUS
10
0.5255905511811023
20
0.4801181102362205
11
0.5259672047244094
21
0.4800431889763779
0
LINE
8
BLACK
6
CONTINUOUS
10
0.3809055118110236
20
0.4781496062992126
11
0.3809055118110236
21
0.4053149606299212
0
LINE
8
BLACK
6
CONTINUOUS
10
0.3809055118110236
20
0.4053149606299212
11
0.5246062992125984
21
0.4053149606299212
0
LINE
8
BLACK
6
CONTINUOUS
10
0.5246062992125984
20
0.4053149606299212
11
0.5246062992125984
21
0.4781496062992126
0
LINE
8
BLACK
6
CONTINUOUS
10
0.5246062992125984
20
0.4781496062992126
11
0.3809055118110236
21
0.4781496062992126
0
LINE
8
BLACK
6
CONTINUOUS
10
0.6688805905511811
20
0.7942164173228347
11
0.6694132677165354
21
0.7936837401574803
0
LINE
8
BLACK
6
CONTINUOUS
10
0.6694132677165354
20
0.7936837401574803
11
0.669488188976378
21
0.7933070866141733
0
LINE
8
BLACK
6
CONTINUOUS
10
0.669488188976378
20
0.7933070866141733
11
0.669488188976378
21
0.7161417322834646
0
LINE
8
BLACK
6
CONTINUOUS
10
0.669488188976378
20
0.7161417322834646
11
0.6694132677165354
21
0.7157650787401575
0
LINE
8
BLACK
6
CONTINUOUS
10
0.6694132677165354
20
0.7157650787401575
11
0.6688805905511811
21
0.7152324015748032
0
LINE
8
BLACK
6
CONTINUOUS
10
0.6688805905511811
20
0.7152324015748032
11
0.668503937007874
21
0.7151574803149606
0
LINE
8
BLACK
6
CONTINUOUS
10
0.668503937007874
20
0.7151574803149606
11
0.5204724409448819
21
0.7151574803149606
0
LINE
8
BLACK
6
CONTINUOUS
10
0.5204724409448819
20
0.7151574803149606
11
0.5200957874015748
21
0.7152324015748032
0
LINE
8
BLACK
6
CONTINUOUS
10
0.5200957874015748
20
0.7152324015748032
11
0.5195631102362205
21
0.7157650787401575
0
LINE
8
BLACK
6
CONTINUOUS
10
0.5195631102362205
20
0.7157650787401575
11
0.5194881889763779
21
0.7161417322834646
0
LINE
8
BLACK
6
CONTINUOUS
10
0.5194881889763779
20
0.7161417322834646
11
0.5194881889763779
21
0.7933070866141733
0
LINE
8
BLACK
6
CONTINUOUS
10
0.5194881889763779
20
0.7933070866141733
11
0.5195631102362205
21
0.7936837401574803
0
LINE
8
BLACK
6
CONTINUOUS
10
0.5195631102362205
20
0.7936837401574803
11
0.5200957874015748
21
0.7942164173228347
0
LINE
8
BLACK
6
CONTINUOUS
10
0.5200957874015748
20
0.7942164173228347
11
0.5204724409448819
21
0.7942913385826772
0
LINE
8
BLACK
6
CONTINUOUS
10
0.5204724409448819
20
0.7942913385826772
11
0.668503937007874
21
0.7942913385826772
0
LINE
8
BLACK
6
CONTINUOUS
10
0.668503937007874
20
0.7942913385826772
11
0.6688805905511811
21
0.7942164173228347
0
LINE
8
BLACK
6
CONTINUOUS
10
0.5214566929133858
20
0.7923228346456693
11
0.5214566929133858
21
0.7171259842519685
0
LINE
8
BLACK
6
CONTINUOUS
10
0.5214566929133858
20
0.7171259842519685
11
0.6675196850393701
21
0.7171259842519685
0
LINE
8
BLACK
6
CONTINUOUS
10
0.6675196850393701
20
0.7171259842519685
11
0.6675196850393701
21
0.7923228346456693
0
LINE
8
BLACK
6
CONTINUOUS
10
0.6675196850393701
20
0.7923228346456693
11
0.5214566929133858
21
0.7923228346456693
0
LINE
8
BLACK
6
CONTINUOUS
10
1.8015577559055118
20
0.8729565748031496
11
1.802090433070866
21
0.8724238976377953
0
LINE
8
BLACK
6
CONTINUOUS
10
1.802090433070866
20
0.8724238976377953
11
1.8021653543307086
21
0.8720472440944882
0
LINE
8
BLACK
6
CONTINUOUS
10
1.8021653543307086
20
0.8720472440944882
11
1.8021653543307086
21
0.7421259842519685
0
LINE
8
BLACK
6
CONTINUOUS
10
1.8021653543307086
20
0.7421259842519685
11
1.802090433070866
21
0.7417493307086614
0
LINE
8
BLACK
6
CONTINUOUS
10
1.802090433070866
20
0.7417493307086614
11
1.8015577559055118
21
0.7412166535433071
0
LINE
8
BLACK
6
CONTINUOUS
10
1.8015577559055118
20
0.7412166535433071
11
1.8011811023622046
21
0.7411417322834646
0
LINE
8
BLACK
6
CONTINUOUS
10
1.8011811023622046
20
0.7411417322834646
11
1.7027559055118109
21
0.7411417322834646
0
LINE
8
BLACK
6
CONTINUOUS
10
1.7027559055118109
20
0.7411417322834646
11
1.7023792519685039
21
0.7412166535433071
0
LINE
8
BLACK
6
CONTINUOUS
10
1.7023792519685039
20
0.7412166535433071
11
1.7018465748031495
21
0.7417493307086614
0
LINE
8
BLACK
6
CONTINUOUS
10
1.7018465748031495
20
0.7417493307086614
11
1.701771653543307
21
0.7421259842519685
0
LINE
8
BLACK
6
CONTINUOUS
10
1.701771653543307
20
0.7421259842519685
11
1.701771653543307
21
0.8720472440944882
0
LINE
8
BLACK
6
CONTINUOUS
10
1.701771653543307
20
0.8720472440944882
11
1.7018465748031495
21
0.8724238976377953
0
LINE
8
BLACK
6
CONTINUOUS
10
1.7018465748031495
20
0.8724238976377953
11
1.7023792519685039
21
0.8729565748031496
0
LINE
8
BLACK
6
CONTINUOUS
10
1.7023792519685039
20
0.8729565748031496
11
1.7027559055118109
21
0.8730314960629921
0
LINE
8
BLACK
6
CONTINUOUS
10
1.7027559055118109
20
0.8730314960629921
11
1.8011811023622046
21
0.8730314960629921
0
LINE
8
BLACK
6
CONTINUOUS
10
1.8011811023622046
20
0.8730314960629921
11
1.8015577559055118
21
0.8729565748031496
0
LINE
8
BLACK
6
CONTINUOUS
10
1.7037401574803148
20
0.8710629921259843
11
1.7037401574803148
21
0.7431102362204725
0
LINE
8
BLACK
6
CONTINUOUS
10
1.7037401574803148
20
0.7431102362204725
11
1.8001968503937007
21
0.7431102362204725
0
LINE
8
BLACK
6
CONTINUOUS
10
1.8001968503937007
20
0.7431102362204725
11
1.8001968503937007
21
0.8710629921259843
0
LINE
8
BLACK
6
CONTINUOUS
10
1.8001968503937007
20
0.8710629921259843
11
1.7037401574803148
21
0.8710629921259843
0
LINE
8
BLACK
6
CONTINUOUS
10
1.1885459448818898
20
0.9864998818897638
11
1.189078622047244
21
0.9859672047244095
0
LINE
8
BLACK
6
CONTINUOUS
10
1.189078622047244
20
0.9859672047244095
11
1.1891535433070866
21
0.9855905511811024
0
LINE
8
BLACK
6
CONTINUOUS
10
1.1891535433070866
20
0.9855905511811024
11
1.1891535433070866
21
0.9084251968503937
0
LINE
8
BLACK
6
CONTINUOUS
10
1.1891535433070866
20
0.9084251968503937
11
1.189078622047244
21
0.9080485433070866
0
LINE
8
BLACK
6
CONTINUOUS
10
1.189078622047244
20
0.9080485433070866
11
1.1885459448818898
21
0.9075158661417323
0
LINE
8
BLACK
6
CONTINUOUS
10
1.1885459448818898
20
0.9075158661417323
11
1.1881692913385826
21
0.9074409448818898
0
LINE
8
BLACK
6
CONTINUOUS
10
1.1881692913385826
20
0.9074409448818898
11
1.0401377952755906
21
0.9074409448818898
0
LINE
8
BLACK
6
CONTINUOUS
10
1.0401377952755906
20
0.9074409448818898
11
1.0397611417322834
21
0.9075158661417323
0
LINE
8
BLACK
6
CONTINUOUS
10
1.0397611417322834
20
0.9075158661417323
11
1.0392284645669292
21
0.9080485433070866
0
LINE
8
BLACK
6
CONTINUOUS
10
1.0392284645669292
20
0.9080485433070866
11
1.0391535433070866
21
0.9084251968503937
0
LINE
8
BLACK
6
CONTINUOUS
10
1.0391535433070866
20
0.9084251968503937
11
1.0391535433070866
21
0.9855905511811024
0
LINE
8
BLACK
6
CONTINUOUS
10
1.0391535433070866
20
0.9855905511811024
11
1.0392284645669292
21
0.9859672047244095
0
LINE
8
BLACK
6
CONTINUOUS
10
1.0392284645669292
20
0.9859672047244095
11
1.0397611417322834
21
0.9864998818897638
0
LINE
8
BLACK
6
CONTINUOUS
10
1.0397611417322834
20
0.9864998818897638
11
1.0401377952755906
21
0.9865748031496063
0
LINE
8
BLACK
6
CONTINUOUS
10
1.0401377952755906
20
0.9865748031496063
11
1.1881692913385826
21
0.9865748031496063
0
LINE
8
BLACK
6
CONTINUOUS
10
1.1881692913385826
20
0.9865748031496063
11
1.1885459448818898
21
0.9864998818897638
0
LINE
8
BLACK
6
CONTINUOUS
10
1.0411220472440945
20
0.9846062992125985
11
1.0411220472440945
21
0.9094094488188976
0
LINE
8
BLACK
6
CONTINUOUS
10
1.0411220472440945
20
0.9094094488188976
11
1.1871850393700787
21
0.9094094488188976
0
LINE
8
BLACK
6
CONTINUOUS
10
1.1871850393700787
20
0.9094094488188976
11
1.1871850393700787
21
0.9846062992125985
0
LINE
8
BLACK
6
CONTINUOUS
10
1.1871850393700787
20
0.9846062992125985
11
1.0411220472440945
21
0.9846062992125985
0
LINE
8
BLACK
6
CONTINUOUS
10
1.3465380708661416
20
0.9864998818897638
11
1.3470707480314961
21
0.9859672047244095
0
LINE
8
BLACK
6
CONTINUOUS
10
1.3470707480314961
20
0.9859672047244095
11
1.3471456692913386
21
0.9855905511811024
0
LINE
8
BLACK
6
CONTINUOUS
10
1.3471456692913386
20
0.9855905511811024
11
1.3471456692913386
21
0.9084251968503937
0
LINE
8
BLACK
6
CONTINUOUS
10
1.3471456692913386
20
0.9084251968503937
11
1.3470707480314961
21
0.9080485433070866
0
LINE
8
BLACK
6
CONTINUOUS
10
1.3470707480314961
20
0.9080485433070866
11
1.3465380708661416
21
0.9075158661417323
0
LINE
8
BLACK
6
CONTINUOUS
10
1.3465380708661416
20
0.9075158661417323
11
1.3461614173228347
21
0.9074409448818898
0
LINE
8
BLACK
6
CONTINUOUS
10
1.3461614173228347
20
0.9074409448818898
11
1.1981299212598424
21
0.9074409448818898
0
LINE
8
BLACK
6
CONTINUOUS
10
1.1981299212598424
20
0.9074409448818898
11
1.1977532677165355
21
0.9075158661417323
0
LINE
8
BLACK
6
CONTINUOUS
10
1.1977532677165355
20
0.9075158661417323
11
1.197220590551181
21
0.9080485433070866
0
LINE
8
BLACK
6
CONTINUOUS
10
1.197220590551181
20
0.9080485433070866
11
1.1971456692913385
21
0.9084251968503937
0
LINE
8
BLACK
6
CONTINUOUS
10
1.1971456692913385
20
0.9084251968503937
11
1.1971456692913385
21
0.9855905511811024
0
LINE
8
BLACK
6
CONTINUOUS
10
1.1971456692913385
20
0.9855905511811024
11
1.197220590551181
21
0.9859672047244095
0
LINE
8
BLACK
6
CONTINUOUS
10
1.197220590551181
20
0.9859672047244095
11
1.1977532677165355
21
0.9864998818897638
0
LINE
8
BLACK
6
CONTINUOUS
10
1.1977532677165355
20
0.9864998818897638
11
1.1981299212598424
21
0.9865748031496063
0
LINE
8
BLACK
6
CONTINUOUS
10
1.1981299212598424
20
0.9865748031496063
11
1.3461614173228347
21
0.9865748031496063
0
LINE
8
BLACK
6
CONTINUOUS
10
1.3461614173228347
20
0.9865748031496063
11
1.3465380708661416
21
0.9864998818897638
0
LINE
8
BLACK
6
CONTINUOUS
10
1.1991141732283463
20
0.9846062992125985
11
1.1991141732283463
21
0.9094094488188976
0
LINE
8
BLACK
6
CONTINUOUS
10
1.1991141732283463
20
0.9094094488188976
11
1.3451771653543307
21
0.9094094488188976
0
LINE
8
BLACK
6
CONTINUOUS
10
1.3451771653543307
20
0.9094094488188976
11
1.3451771653543307
21
0.9846062992125985
0
LINE
8
BLACK
6
CONTINUOUS
10
1.3451771653543307
20
0.9846062992125985
11
1.1991141732283463
21
0.9846062992125985
0
LINE
8
BLACK
6
CONTINUOUS
10
1.7091890157480314
20
1.2006334251968505
11
1.7097216929133858
21
1.200100748031496
0
LINE
8
BLACK
6
CONTINUOUS
10
1.7097216929133858
20
1.200100748031496
11
1.7097966141732284
21
1.1997240944881888
0
LINE
8
BLACK
6
CONTINUOUS
10
1.7097966141732284
20
1.1997240944881888
11
1.7097966141732284
21
1.1012988976377953
0
LINE
8
BLACK
6
CONTINUOUS
10
1.7097966141732284
20
1.1012988976377953
11
1.7097216929133858
21
1.1009222440944881
0
LINE
8
BLACK
6
CONTINUOUS
10
1.7097216929133858
20
1.1009222440944881
11
1.7091890157480314
21
1.1003895669291339
0
LINE
8
BLACK
6
CONTINUOUS
10
1.7091890157480314
20
1.1003895669291339
11
1.7088123622047244
21
1.1003146456692914
0
LINE
8
BLACK
6
CONTINUOUS
10
1.7088123622047244
20
1.1003146456692914
11
1.5788911023622048
21
1.1003146456692914
0
LINE
8
BLACK
6
CONTINUOUS
10
1.5788911023622048
20
1.1003146456692914
11
1.5785144488188976
21
1.1003895669291339
0
LINE
8
BLACK
6
CONTINUOUS
10
1.5785144488188976
20
1.1003895669291339
11
1.5779817716535434
21
1.1009222440944881
0
LINE
8
BLACK
6
CONTINUOUS
10
1.5779817716535434
20
1.1009222440944881
11
1.5779068503937008
21
1.1012988976377953
0
LINE
8
BLACK
6
CONTINUOUS
10
1.5779068503937008
20
1.1012988976377953
11
1.5779068503937008
21
1.1997240944881888
0
LINE
8
BLACK
6
CONTINUOUS
10
1.5779068503937008
20
1.1997240944881888
11
1.5779817716535434
21
1.200100748031496
0
LINE
8
BLACK
6
CONTINUOUS
10
1.5779817716535434
20
1.200100748031496
11
1.5785144488188976
21
1.2006334251968505
0
LINE
8
BLACK
6
CONTINUOUS
10
1.5785144488188976
20
1.2006334251968505
11
1.5788911023622048
21
1.2007083464566928
0
LINE
8
BLACK
6
CONTINUOUS
10
1.5788911023622048
20
1.2007083464566928
11
1.7088123622047244
21
1.2007083464566928
0
LINE
8
BLACK
6
CONTINUOUS
10
1.7088123622047244
20
1.2007083464566928
11
1.7091890157480314
21
1.2006334251968505
0
LINE
8
BLACK
6
CONTINUOUS
10
1.5798753543307087
20
1.1987398425196849
11
1.5798753543307087
21
1.1022831496062993
0
LINE
8
BLACK
6
CONTINUOUS
10
1.5798753543307087
20
1.1022831496062993
11
1.7078281102362205
21
1.1022831496062993
0
LINE
8
BLACK
6
CONTINUOUS
10
1.7078281102362205
20
1.1022831496062993
11
1.7078281102362205
21
1.1987398425196849
0
LINE
8
BLACK
6
CONTINUOUS
10
1.7078281102362205
20
1.1987398425196849
11
1.5798753543307087
21
1.1987398425196849
0
LINE
8
BLACK
6
CONTINUOUS
10
1.3802388582677165
20
1.2794920078740157
11
1.3807715354330707
21
1.2789593307086613
0
LINE
8
BLACK
6
CONTINUOUS
10
1.3807715354330707
20
1.2789593307086613
11
1.3808464566929133
21
1.2785826771653543
0
LINE
8
BLACK
6
CONTINUOUS
10
1.3808464566929133
20
1.2785826771653543
11
1.3808464566929133
21
1.2014173228346456
0
LINE
8
BLACK
6
CONTINUOUS
10
1.3808464566929133
20
1.2014173228346456
11
1.3807715354330707
21
1.2010406692913385
0
LINE
8
BLACK
6
CONTINUOUS
10
1.3807715354330707
20
1.2010406692913385
11
1.3802388582677165
21
1.2005079921259842
0
LINE
8
BLACK
6
CONTINUOUS
10
1.3802388582677165
20
1.2005079921259842
11
1.3798622047244093
21
1.2004330708661417
0
LINE
8
BLACK
6
CONTINUOUS
10
1.3798622047244093
20
1.2004330708661417
11
1.2318307086614173
21
1.2004330708661417
0
LINE
8
BLACK
6
CONTINUOUS
10
1.2318307086614173
20
1.2004330708661417
11
1.2314540551181101
21
1.2005079921259842
0
LINE
8
BLACK
6
CONTINUOUS
10
1.2314540551181101
20
1.2005079921259842
11
1.2309213779527559
21
1.2010406692913385
0
LINE
8
BLACK
6
CONTINUOUS
10
1.2309213779527559
20
1.2010406692913385
11
1.2308464566929134
21
1.2014173228346456
0
LINE
8
BLACK
6
CONTINUOUS
10
1.2308464566929134
20
1.2014173228346456
11
1.2308464566929134
21
1.2785826771653543
0
LINE
8
BLACK
6
CONTINUOUS
10
1.2308464566929134
20
1.2785826771653543
11
1.2309213779527559
21
1.2789593307086613
0
LINE
8
BLACK
6
CONTINUOUS
10
1.2309213779527559
20
1.2789593307086613
11
1.2314540551181101
21
1.2794920078740157
0
LINE
8
BLACK
6
CONTINUOUS
10
1.2314540551181101
20
1.2794920078740157
11
1.2318307086614173
21
1.2795669291338583
0
LINE
8
BLACK
6
CONTINUOUS
10
1.2318307086614173
20
1.2795669291338583
11
1.3798622047244093
21
1.2795669291338583
0
LINE
8
BLACK
6
CONTINUOUS
10
1.3798622047244093
20
1.2795669291338583
11
1.3802388582677165
21
1.2794920078740157
0
LINE
8
BLACK
6
CONTINUOUS
10
1.2328149606299212
20
1.2775984251968504
11
1.2328149606299212
21
1.2024015748031496
0
LINE
8
BLACK
6
CONTINUOUS
10
1.2328149606299212
20
1.2024015748031496
11
1.3788779527559054
21
1.2024015748031496
0
LINE
8
BLACK
6
CONTINUOUS
10
1.3788779527559054
20
1.2024015748031496
11
1.3788779527559054
21
1.2775984251968504
0
LINE
8
BLACK
6
CONTINUOUS
10
1.3788779527559054
20
1.2775984251968504
11
1.2328149606299212
21
1.2775984251968504
0
LINE
8
BLACK
6
CONTINUOUS
10
1.3807309842519684
20
1.3794920078740158
11
1.3812636614173228
21
1.3789593307086614
0
LINE
8
BLACK
6
CONTINUOUS
10
1.3812636614173228
20
1.3789593307086614
11
1.3813385826771654
21
1.3785826771653542
0
LINE
8
BLACK
6
CONTINUOUS
10
1.3813385826771654
20
1.3785826771653542
11
1.3813385826771654
21
1.3014173228346457
0
LINE
8
BLACK
6
CONTINUOUS
10
1.3813385826771654
20
1.3014173228346457
11
1.3812636614173228
21
1.3010406692913385
0
LINE
8
BLACK
6
CONTINUOUS
10
1.3812636614173228
20
1.3010406692913385
11
1.3807309842519684
21
1.3005079921259841
0
LINE
8
BLACK
6
CONTINUOUS
10
1.3807309842519684
20
1.3005079921259841
11
1.3803543307086614
21
1.3004330708661418
0
LINE
8
BLACK
6
CONTINUOUS
10
1.3803543307086614
20
1.3004330708661418
11
1.2323228346456692
21
1.3004330708661418
0
LINE
8
BLACK
6
CONTINUOUS
10
1.2323228346456692
20
1.3004330708661418
11
1.2319461811023622
21
1.3005079921259841
0
LINE
8
BLACK
6
CONTINUOUS
10
1.2319461811023622
20
1.3005079921259841
11
1.2314135039370078
21
1.3010406692913385
0
LINE
8
BLACK
6
CONTINUOUS
10
1.2314135039370078
20
1.3010406692913385
11
1.2313385826771652
21
1.3014173228346457
0
LINE
8
BLACK
6
CONTINUOUS
10
1.2313385826771652
20
1.3014173228346457
11
1.2313385826771652
21
1.3785826771653542
0
LINE
8
BLACK
6
CONTINUOUS
10
1.2313385826771652
20
1.3785826771653542
11
1.2314135039370078
21
1.3789593307086614
0
LINE
8
BLACK
6
CONTINUOUS
10
1.2314135039370078
20
1.3789593307086614
11
1.2319461811023622
21
1.3794920078740158
0
LINE
8
BLACK
6
CONTINUOUS
10
1.2319461811023622
20
1.3794920078740158
11
1.2323228346456692
21
1.3795669291338581
0
LINE
8
BLACK
6
CONTINUOUS
10
1.2323228346456692
20
1.3795669291338581
11
1.3803543307086614
21
1.3795669291338581
0
LINE
8
BLACK
6
CONTINUOUS
10
1.3803543307086614
20
1.3795669291338581
11
1.3807309842519684
21
1.3794920078740158
0
LINE
8
BLACK
6
CONTINUOUS
10
1.2333070866141731
20
1.3775984251968503
11
1.2333070866141731
21
1.3024015748031497
0
LINE
8
BLACK
6
CONTINUOUS
10
1.2333070866141731
20
1.3024015748031497
11
1.3793700787401575
21
1.3024015748031497
0
LINE
8
BLACK
6
CONTINUOUS
10
1.3793700787401575
20
1.3024015748031497
11
1.3793700787401575
21
1.3775984251968503
0
LINE
8
BLACK
6
CONTINUOUS
10
1.3793700787401575
20
1.3775984251968503
11
1.2333070866141731
21
1.3775984251968503
0
LINE
8
BLACK
6
CONTINUOUS
10
1.4854316141732282
20
1.4955284251968504
11
1.4857509448818897
21
1.4953150787401575
0
LINE
8
BLACK
6
CONTINUOUS
10
1.4857509448818897
20
1.4953150787401575
11
1.5403150787401574
21
1.4407509055118111
0
LINE
8
BLACK
6
CONTINUOUS
10
1.5403150787401574
20
1.4407509055118111
11
1.5405284251968503
21
1.4404316141732283
0
LINE
8
BLACK
6
CONTINUOUS
10
1.5405284251968503
20
1.4404316141732283
11
1.5405284251968503
21
1.4396783070866142
0
LINE
8
BLACK
6
CONTINUOUS
10
1.5405284251968503
20
1.4396783070866142
11
1.5403150393700786
21
1.4393589763779526
0
LINE
8
BLACK
6
CONTINUOUS
10
1.5403150393700786
20
1.4393589763779526
11
1.4356410236220472
21
1.3346849212598424
0
LINE
8
BLACK
6
CONTINUOUS
10
1.4356410236220472
20
1.3346849212598424
11
1.4353216929133858
21
1.3344715748031495
0
LINE
8
BLACK
6
CONTINUOUS
10
1.4353216929133858
20
1.3344715748031495
11
1.4345683858267717
21
1.3344715748031495
0
LINE
8
BLACK
6
CONTINUOUS
10
1.4345683858267717
20
1.3344715748031495
11
1.4342490944881889
21
1.3346849212598424
0
LINE
8
BLACK
6
CONTINUOUS
10
1.4342490944881889
20
1.3346849212598424
11
1.3796849212598425
21
1.3892490551181103
0
LINE
8
BLACK
6
CONTINUOUS
10
1.3796849212598425
20
1.3892490551181103
11
1.3794715748031496
21
1.3895683858267716
0
LINE
8
BLACK
6
CONTINUOUS
10
1.3794715748031496
20
1.3895683858267716
11
1.3794715748031496
21
1.3903216929133857
0
LINE
8
BLACK
6
CONTINUOUS
10
1.3794715748031496
20
1.3903216929133857
11
1.3796849212598425
21
1.3906410236220472
0
LINE
8
BLACK
6
CONTINUOUS
10
1.3796849212598425
20
1.3906410236220472
11
1.4843589763779528
21
1.4953150393700787
0
LINE
8
BLACK
6
CONTINUOUS
10
1.4843589763779528
20
1.4953150393700787
11
1.4846783070866141
21
1.4955284251968504
0
LINE
8
BLACK
6
CONTINUOUS
10
1.4846783070866141
20
1.4955284251968504
11
1.4854316141732282
21
1.4955284251968504
0
LINE
8
BLACK
6
CONTINUOUS
10
1.3817728346456692
20
1.3899450393700787
11
1.4349449999999999
21
1.3367728740157481
0
LINE
8
BLACK
6
CONTINUOUS
10
1.4349449999999999
20
1.3367728740157481
11
1.5382271259842519
21
1.4400549606299213
0
LINE
8
BLACK
6
CONTINUOUS
10
1.5382271259842519
20
1.4400549606299213
11
1.4850549212598425
21
1.4932271653543308
0
LINE
8
BLACK
6
CONTINUOUS
10
1.4850549212598425
20
1.4932271653543308
11
1.3817728346456692
21
1.3899450393700787
0
LINE
8
BLACK
6
CONTINUOUS
10
0.9799042125984252
20
1.4851612992125984
11
0.9804368897637795
21
1.484628622047244
0
LINE
8
BLACK
6
CONTINUOUS
10
0.9804368897637795
20
1.484628622047244
11
0.9805118110236221
21
1.484251968503937
0
LINE
8
BLACK
6
CONTINUOUS
10
0.9805118110236221
20
1.484251968503937
11
0.9805118110236221
21
1.3362204724409448
0
LINE
8
BLACK
6
CONTINUOUS
10
0.9805118110236221
20
1.3362204724409448
11
0.9804368897637795
21
1.3358438188976378
0
LINE
8
BLACK
6
CONTINUOUS
10
0.9804368897637795
20
1.3358438188976378
11
0.9799042125984252
21
1.3353111417322834
0
LINE
8
BLACK
6
CONTINUOUS
10
0.9799042125984252
20
1.3353111417322834
11
0.9795275590551181
21
1.3352362204724408
0
LINE
8
BLACK
6
CONTINUOUS
10
0.9795275590551181
20
1.3352362204724408
11
0.9023622047244094
21
1.3352362204724408
0
LINE
8
BLACK
6
CONTINUOUS
10
0.9023622047244094
20
1.3352362204724408
11
0.9019855511811024
21
1.3353111417322834
0
LINE
8
BLACK
6
CONTINUOUS
10
0.9019855511811024
20
1.3353111417322834
11
0.901452874015748
21
1.3358438188976378
0
LINE
8
BLACK
6
CONTINUOUS
10
0.901452874015748
20
1.3358438188976378
11
0.9013779527559055
21
1.3362204724409448
0
LINE
8
BLACK
6
CONTINUOUS
10
0.9013779527559055
20
1.3362204724409448
11
0.9013779527559055
21
1.484251968503937
0
LINE
8
BLACK
6
CONTINUOUS
10
0.9013779527559055
20
1.484251968503937
11
0.901452874015748
21
1.484628622047244
0
LINE
8
BLACK
6
CONTINUOUS
10
0.901452874015748
20
1.484628622047244
11
0.9019855511811024
21
1.4851612992125984
0
LINE
8
BLACK
6
CONTINUOUS
10
0.9019855511811024
20
1.4851612992125984
11
0.9023622047244094
21
1.485236220472441
0
LINE
8
BLACK
6
CONTINUOUS
10
0.9023622047244094
20
1.485236220472441
11
0.9795275590551181
21
1.485236220472441
0
LINE
8
BLACK
6
CONTINUOUS
10
0.9795275590551181
20
1.485236220472441
11
0.9799042125984252
21
1.4851612992125984
0
LINE
8
BLACK
6
CONTINUOUS
10
0.9033464566929134
20
1.4832677165354331
11
0.9033464566929134
21
1.3372047244094487
0
LINE
8
BLACK
6
CONTINUOUS
10
0.9033464566929134
20
1.3372047244094487
11
0.9785433070866142
21
1.3372047244094487
0
LINE
8
BLACK
6
CONTINUOUS
10
0.9785433070866142
20
1.3372047244094487
11
0.9785433070866142
21
1.4832677165354331
0
LINE
8
BLACK
6
CONTINUOUS
10
0.9785433070866142
20
1.4832677165354331
11
0.9033464566929134
21
1.4832677165354331
0
LINE
8
BLACK
6
CONTINUOUS
10
1.3203216929133859
20
1.5955284251968505
11
1.3206410236220472
21
1.5953150787401575
0
LINE
8
BLACK
6
CONTINUOUS
10
1.3206410236220472
20
1.5953150787401575
11
1.4253150393700786
21
1.4906410236220473
0
LINE
8
BLACK
6
CONTINUOUS
10
1.4253150393700786
20
1.4906410236220473
11
1.4255284251968503
21
1.4903216929133858
0
LINE
8
BLACK
6
CONTINUOUS
10
1.4255284251968503
20
1.4903216929133858
11
1.4255284251968503
21
1.4895683858267716
0
LINE
8
BLACK
6
CONTINUOUS
10
1.4255284251968503
20
1.4895683858267716
11
1.4253150787401574
21
1.4892490944881889
0
LINE
8
BLACK
6
CONTINUOUS
10
1.4253150787401574
20
1.4892490944881889
11
1.3707509448818898
21
1.4346849212598425
0
LINE
8
BLACK
6
CONTINUOUS
10
1.3707509448818898
20
1.4346849212598425
11
1.3704316141732282
21
1.4344715748031496
0
LINE
8
BLACK
6
CONTINUOUS
10
1.3704316141732282
20
1.4344715748031496
11
1.3696783070866141
21
1.4344715748031496
0
LINE
8
BLACK
6
CONTINUOUS
10
1.3696783070866141
20
1.4344715748031496
11
1.3693589763779528
21
1.4346849606299212
0
LINE
8
BLACK
6
CONTINUOUS
10
1.3693589763779528
20
1.4346849606299212
11
1.2646849212598426
21
1.5393589763779527
0
LINE
8
BLACK
6
CONTINUOUS
10
1.2646849212598426
20
1.5393589763779527
11
1.2644715748031496
21
1.5396783070866142
0
LINE
8
BLACK
6
CONTINUOUS
10
1.2644715748031496
20
1.5396783070866142
11
1.2644715748031496
21
1.5404316141732284
0
LINE
8
BLACK
6
CONTINUOUS
10
1.2644715748031496
20
1.5404316141732284
11
1.2646849212598426
21
1.5407509448818897
0
LINE
8
BLACK
6
CONTINUOUS
10
1.2646849212598426
20
1.5407509448818897
11
1.3192490944881889
21
1.5953150787401575
0
LINE
8
BLACK
6
CONTINUOUS
10
1.3192490944881889
20
1.5953150787401575
11
1.3195683858267717
21
1.5955284251968505
0
LINE
8
BLACK
6
CONTINUOUS
10
1.3195683858267717
20
1.5955284251968505
11
1.3203216929133859
21
1.5955284251968505
0
LINE
8
BLACK
6
CONTINUOUS
10
1.2667728346456693
20
1.540055
11
1.3700549212598425
21
1.4367728740157479
0
LINE
8
BLACK
6
CONTINUOUS
10
1.3700549212598425
20
1.4367728740157479
11
1.4232271259842519
21
1.4899450787401574
0
LINE
8
BLACK
6
CONTINUOUS
10
1.4232271259842519
20
1.4899450787401574
11
1.3199449999999999
21
1.5932271653543306
0
LINE
8
BLACK
6
CONTINUOUS
10
1.3199449999999999
20
1.5932271653543306
11
1.2667728346456693
21
1.540055
0
LINE
8
BLACK
6
CONTINUOUS
10
1.200179842519685
20
2.0658699606299211
11
1.2007125196850394
21
2.0653372834645669
0
LINE
8
BLACK
6
CONTINUOUS
10
1.2007125196850394
20
2.0653372834645669
11
1.2007874409448818
21
2.0649606299212597
0
LINE
8
BLACK
6
CONTINUOUS
10
1.2007874409448818
20
2.0649606299212597
11
1.2007874409448818
21
2.0088582677165352
0
LINE
8
BLACK
6
CONTINUOUS
10
1.2007874409448818
20
2.0088582677165352
11
1.2431102362204725
21
2.0088582677165352
0
LINE
8
BLACK
6
CONTINUOUS
10
1.2431102362204725
20
2.0088582677165352
11
1.2434868897637794
21
2.0087833464566929
0
LINE
8
BLACK
6
CONTINUOUS
10
1.2434868897637794
20
2.0087833464566929
11
1.2440195669291338
21
2.0082506692913387
0
LINE
8
BLACK
6
CONTINUOUS
10
1.2440195669291338
20
2.0082506692913387
11
1.2440944881889764
21
2.0078740157480315
0
LINE
8
BLACK
6
CONTINUOUS
10
1.2440944881889764
20
2.0078740157480315
11
1.2440944881889764
21
1.9655512204724408
0
LINE
8
BLACK
6
CONTINUOUS
10
1.2440944881889764
20
1.9655512204724408
11
1.3001968503937007
21
1.9655512204724408
0
LINE
8
BLACK
6
CONTINUOUS
10
1.3001968503937007
20
1.9655512204724408
11
1.3005735039370079
21
1.9654762992125985
0
LINE
8
BLACK
6
CONTINUOUS
10
1.3005735039370079
20
1.9654762992125985
11
1.3011061811023621
21
1.964943622047244
0
LINE
8
BLACK
6
CONTINUOUS
10
1.3011061811023621
20
1.964943622047244
11
1.3011811023622046
21
1.9645669685039369
0
LINE
8
BLACK
6
CONTINUOUS
10
1.3011811023622046
20
1.9645669685039369
11
1.3011810629921259
21
1.8011811023622046
0
LINE
8
BLACK
6
CONTINUOUS
10
1.3011810629921259
20
1.8011811023622046
11
1.3011811023622046
21
1.6377952362204724
0
LINE
8
BLACK
6
CONTINUOUS
10
1.3011811023622046
20
1.6377952362204724
11
1.3011061811023621
21
1.6374185826771652
0
LINE
8
BLACK
6
CONTINUOUS
10
1.3011061811023621
20
1.6374185826771652
11
1.3005735039370079
21
1.636885905511811
0
LINE
8
BLACK
6
CONTINUOUS
10
1.3005735039370079
20
1.636885905511811
11
1.3001968503937007
21
1.6368109842519685
0
LINE
8
BLACK
6
CONTINUOUS
10
1.3001968503937007
20
1.6368109842519685
11
1.2440944881889764
21
1.6368109842519685
0
LINE
8
BLACK
6
CONTINUOUS
10
1.2440944881889764
20
1.6368109842519685
11
1.2440944881889764
21
1.594488188976378
0
LINE
8
BLACK
6
CONTINUOUS
10
1.2440944881889764
20
1.594488188976378
11
1.2440195669291338
21
1.5941115354330708
0
LINE
8
BLACK
6
CONTINUOUS
10
1.2440195669291338
20
1.5941115354330708
11
1.2434868897637794
21
1.5935788582677164
0
LINE
8
BLACK
6
CONTINUOUS
10
1.2434868897637794
20
1.5935788582677164
11
1.2431102362204725
21
1.5935039370078741
0
LINE
8
BLACK
6
CONTINUOUS
10
1.2431102362204725
20
1.5935039370078741
11
1.2007874409448818
21
1.5935039370078741
0
LINE
8
BLACK
6
CONTINUOUS
10
1.2007874409448818
20
1.5935039370078741
11
1.2007874409448818
21
1.5374015748031495
0
LINE
8
BLACK
6
CONTINUOUS
10
1.2007874409448818
20
1.5374015748031495
11
1.2007125196850394
21
1.5370249606299213
0
LINE
8
BLACK
6
CONTINUOUS
10
1.2007125196850394
20
1.5370249606299213
11
1.2007125196850394
21
1.5370249212598426
0
LINE
8
BLACK
6
CONTINUOUS
10
1.2007125196850394
20
1.5370249212598426
11
1.200179842519685
21
1.5364922440944881
0
LINE
8
BLACK
6
CONTINUOUS
10
1.200179842519685
20
1.5364922440944881
11
1.1998031889763778
21
1.5364173228346456
0
LINE
8
BLACK
6
CONTINUOUS
10
1.1998031889763778
20
1.5364173228346456
11
1.0364173228346456
21
1.5364173622047244
0
LINE
8
BLACK
6
CONTINUOUS
10
1.0364173228346456
20
1.5364173622047244
11
0.8730314566929134
21
1.5364173228346456
0
LINE
8
BLACK
6
CONTINUOUS
10
0.8730314566929134
20
1.5364173228346456
11
0.8726548031496063
21
1.5364922440944881
0
LINE
8
BLACK
6
CONTINUOUS
10
0.8726548031496063
20
1.5364922440944881
11
0.872122125984252
21
1.5370249212598426
0
LINE
8
BLACK
6
CONTINUOUS
10
0.872122125984252
20
1.5370249212598426
11
0.872122125984252
21
1.5370249606299213
0
LINE
8
BLACK
6
CONTINUOUS
10
0.872122125984252
20
1.5370249606299213
11
0.8720472047244094
21
1.5374015748031495
0
LINE
8
BLACK
6
CONTINUOUS
10
0.8720472047244094
20
1.5374015748031495
11
0.8720472047244094
21
1.5935039370078741
0
LINE
8
BLACK
6
CONTINUOUS
10
0.8720472047244094
20
1.5935039370078741
11
0.8297244094488189
21
1.5935039370078741
0
LINE
8
BLACK
6
CONTINUOUS
10
0.8297244094488189
20
1.5935039370078741
11
0.8293477559055118
21
1.5935788582677164
0
LINE
8
BLACK
6
CONTINUOUS
10
0.8293477559055118
20
1.5935788582677164
11
0.8288150787401575
21
1.5941115354330708
0
LINE
8
BLACK
6
CONTINUOUS
10
0.8288150787401575
20
1.5941115354330708
11
0.8287401574803149
21
1.594488188976378
0
LINE
8
BLACK
6
CONTINUOUS
10
0.8287401574803149
20
1.594488188976378
11
0.8287401574803149
21
1.6368109842519685
0
LINE
8
BLACK
6
CONTINUOUS
10
0.8287401574803149
20
1.6368109842519685
11
0.7726377952755905
21
1.6368109842519685
0
LINE
8
BLACK
6
CONTINUOUS
10
0.7726377952755905
20
1.6368109842519685
11
0.7722611417322834
21
1.636885905511811
0
LINE
8
BLACK
6
CONTINUOUS
10
0.7722611417322834
20
1.636885905511811
11
0.7717284645669291
21
1.6374185826771652
0
LINE
8
BLACK
6
CONTINUOUS
10
0.7717284645669291
20
1.6374185826771652
11
0.7716535433070866
21
1.6377952362204724
0
LINE
8
BLACK
6
CONTINUOUS
10
0.7716535433070866
20
1.6377952362204724
11
0.7716535826771653
21
1.8011811023622046
0
LINE
8
BLACK
6
CONTINUOUS
10
0.7716535826771653
20
1.8011811023622046
11
0.7716535433070866
21
1.9645669685039369
0
LINE
8
BLACK
6
CONTINUOUS
10
0.7716535433070866
20
1.9645669685039369
11
0.7717284645669291
21
1.964943622047244
0
LINE
8
BLACK
6
CONTINUOUS
10
0.7717284645669291
20
1.964943622047244
11
0.7722611417322834
21
1.9654762992125985
0
LINE
8
BLACK
6
CONTINUOUS
10
0.7722611417322834
20
1.9654762992125985
11
0.7726377952755905
21
1.9655512204724408
0
LINE
8
BLACK
6
CONTINUOUS
10
0.7726377952755905
20
1.9655512204724408
11
0.8287401574803149
21
1.9655512204724408
0
LINE
8
BLACK
6
CONTINUOUS
10
0.8287401574803149
20
1.9655512204724408
11
0.8287401574803149
21
2.0078740157480315
0
LINE
8
BLACK
6
CONTINUOUS
10
0.8287401574803149
20
2.0078740157480315
11
0.8288150787401575
21
2.0082506692913387
0
LINE
8
BLACK
6
CONTINUOUS
10
0.8288150787401575
20
2.0082506692913387
11
0.8293477559055118
21
2.0087833464566929
0
LINE
8
BLACK
6
CONTINUOUS
10
0.8293477559055118
20
2.0087833464566929
11
0.8297244094488189
21
2.0088582677165352
0
LINE
8
BLACK
6
CONTINUOUS
10
0.8297244094488189
20
2.0088582677165352
11
0.8720472047244094
21
2.0088582677165352
0
LINE
8
BLACK
6
CONTINUOUS
10
0.8720472047244094
20
2.0088582677165352
11
0.8720472047244094
21
2.0649606299212597
0
LINE
8
BLACK
6
CONTINUOUS
10
0.8720472047244094
20
2.0649606299212597
11
0.872122125984252
21
2.0653372834645669
0
LINE
8
BLACK
6
CONTINUOUS
10
0.872122125984252
20
2.0653372834645669
11
0.8726548031496063
21
2.0658699606299211
0
LINE
8
BLACK
6
CONTINUOUS
10
0.8726548031496063
20
2.0658699606299211
11
0.8730314566929134
21
2.0659448818897639
0
LINE
8
BLACK
6
CONTINUOUS
10
0.8730314566929134
20
2.0659448818897639
11
1.0364173228346456
21
2.0659448425196851
0
LINE
8
BLACK
6
CONTINUOUS
10
1.0364173228346456
20
2.0659448425196851
11
1.1998031889763778
21
2.0659448818897639
0
LINE
8
BLACK
6
CONTINUOUS
10
1.1998031889763778
20
2.0659448818897639
11
1.200179842519685
21
2.0658699606299211
0
LINE
8
BLACK
6
CONTINUOUS
10
1.0364173228346456
20
2.0639763385826773
11
0.8740157086614173
21
2.063976377952756
0
LINE
8
BLACK
6
CONTINUOUS
10
0.8740157086614173
20
2.063976377952756
11
0.8740157086614173
21
2.0078740157480315
0
LINE
8
BLACK
6
CONTINUOUS
10
0.8740157086614173
20
2.0078740157480315
11
0.8739407874015748
21
2.0074973622047243
0
LINE
8
BLACK
6
CONTINUOUS
10
0.8739407874015748
20
2.0074973622047243
11
0.8734081102362204
21
2.0069646850393701
0
LINE
8
BLACK
6
CONTINUOUS
10
0.8734081102362204
20
2.0069646850393701
11
0.8730314566929134
21
2.0068897637795273
0
LINE
8
BLACK
6
CONTINUOUS
10
0.8730314566929134
20
2.0068897637795273
11
0.8307086614173228
21
2.0068897637795273
0
LINE
8
BLACK
6
CONTINUOUS
10
0.8307086614173228
20
2.0068897637795273
11
0.8307086614173228
21
1.9645669685039369
0
LINE
8
BLACK
6
CONTINUOUS
10
0.8307086614173228
20
1.9645669685039369
11
0.8306337401574803
21
1.9641903149606299
0
LINE
8
BLACK
6
CONTINUOUS
10
0.8306337401574803
20
1.9641903149606299
11
0.8301010629921259
21
1.9636576377952755
0
LINE
8
BLACK
6
CONTINUOUS
10
0.8301010629921259
20
1.9636576377952755
11
0.8297244094488189
21
1.9635827165354329
0
LINE
8
BLACK
6
CONTINUOUS
10
0.8297244094488189
20
1.9635827165354329
11
0.7736220472440944
21
1.9635827165354329
0
LINE
8
BLACK
6
CONTINUOUS
10
0.7736220472440944
20
1.9635827165354329
11
0.7736220866141732
21
1.8011811023622046
0
LINE
8
BLACK
6
CONTINUOUS
10
0.7736220866141732
20
1.8011811023622046
11
0.7736220472440944
21
1.6387794881889763
0
LINE
8
BLACK
6
CONTINUOUS
10
0.7736220472440944
20
1.6387794881889763
11
0.8297244094488189
21
1.6387794881889763
0
LINE
8
BLACK
6
CONTINUOUS
10
0.8297244094488189
20
1.6387794881889763
11
0.8301010629921259
21
1.6387045669291338
0
LINE
8
BLACK
6
CONTINUOUS
10
0.8301010629921259
20
1.6387045669291338
11
0.8306337401574803
21
1.6381718897637796
0
LINE
8
BLACK
6
CONTINUOUS
10
0.8306337401574803
20
1.6381718897637796
11
0.8307086614173228
21
1.6377952362204724
0
LINE
8
BLACK
6
CONTINUOUS
10
0.8307086614173228
20
1.6377952362204724
11
0.8307086614173228
21
1.5954724409448819
0
LINE
8
BLACK
6
CONTINUOUS
10
0.8307086614173228
20
1.5954724409448819
11
0.8730314566929134
21
1.5954724409448819
0
LINE
8
BLACK
6
CONTINUOUS
10
0.8730314566929134
20
1.5954724409448819
11
0.8734081102362204
21
1.5953975196850394
0
LINE
8
BLACK
6
CONTINUOUS
10
0.8734081102362204
20
1.5953975196850394
11
0.8739407874015748
21
1.594864842519685
0
LINE
8
BLACK
6
CONTINUOUS
10
0.8739407874015748
20
1.594864842519685
11
0.8740157086614173
21
1.594488188976378
0
LINE
8
BLACK
6
CONTINUOUS
10
0.8740157086614173
20
1.594488188976378
11
0.8740157086614173
21
1.5383858661417322
0
LINE
8
BLACK
6
CONTINUOUS
10
0.8740157086614173
20
1.5383858661417322
11
1.0364173228346456
21
1.5383858661417322
0
LINE
8
BLACK
6
CONTINUOUS
10
1.0364173228346456
20
1.5383858661417322
11
1.1988189370078739
21
1.5383858661417322
0
LINE
8
BLACK
6
CONTINUOUS
10
1.1988189370078739
20
1.5383858661417322
11
1.1988189370078739
21
1.594488188976378
0
LINE
8
BLACK
6
CONTINUOUS
10
1.1988189370078739
20
1.594488188976378
11
1.1988938582677164
21
1.594864842519685
0
LINE
8
BLACK
6
CONTINUOUS
10
1.1988938582677164
20
1.594864842519685
11
1.1994265354330709
21
1.5953975196850394
0
LINE
8
BLACK
6
CONTINUOUS
10
1.1994265354330709
20
1.5953975196850394
11
1.1998031889763778
21
1.5954724409448819
0
LINE
8
BLACK
6
CONTINUOUS
10
1.1998031889763778
20
1.5954724409448819
11
1.2421259842519685
21
1.5954724409448819
0
LINE
8
BLACK
6
CONTINUOUS
10
1.2421259842519685
20
1.5954724409448819
11
1.2421259842519685
21
1.6377952362204724
0
LINE
8
BLACK
6
CONTINUOUS
10
1.2421259842519685
20
1.6377952362204724
11
1.2422009055118111
21
1.6381718897637796
0
LINE
8
BLACK
6
CONTINUOUS
10
1.2422009055118111
20
1.6381718897637796
11
1.2427335826771653
21
1.6387045669291338
0
LINE
8
BLACK
6
CONTINUOUS
10
1.2427335826771653
20
1.6387045669291338
11
1.2431102362204725
21
1.6387794881889763
0
LINE
8
BLACK
6
CONTINUOUS
10
1.2431102362204725
20
1.6387794881889763
11
1.2992125984251968
21
1.6387794881889763
0
LINE
8
BLACK
6
CONTINUOUS
10
1.2992125984251968
20
1.6387794881889763
11
1.299212559055118
21
1.8011811023622046
0
LINE
8
BLACK
6
CONTINUOUS
10
1.299212559055118
20
1.8011811023622046
11
1.2992125984251968
21
1.9635827165354329
0
LINE
8
BLACK
6
CONTINUOUS
10
1.2992125984251968
20
1.9635827165354329
11
1.2431102362204725
21
1.9635827165354329
0
LINE
8
BLACK
6
CONTINUOUS
10
1.2431102362204725
20
1.9635827165354329
11
1.2427335826771653
21
1.9636576377952755
0
LINE
8
BLACK
6
CONTINUOUS
10
1.2427335826771653
20
1.9636576377952755
11
1.2422009055118111
21
1.9641903149606299
0
LINE
8
BLACK
6
CONTINUOUS
10
1.2422009055118111
20
1.9641903149606299
11
1.2421259842519685
21
1.9645669685039369
0
LINE
8
BLACK
6
CONTINUOUS
10
1.2421259842519685
20
1.9645669685039369
11
1.2421259842519685
21
2.0068897637795273
0
LINE
8
BLACK
6
CONTINUOUS
10
1.2421259842519685
20
2.0068897637795273
11
1.1998031889763778
21
2.0068897637795273
0
LINE
8
BLACK
6
CONTINUOUS
10
1.1998031889763778
20
2.0068897637795273
11
1.1994265354330709
21
2.0069646850393701
0
LINE
8
BLACK
6
CONTINUOUS
10
1.1994265354330709
20
2.0069646850393701
11
1.1988938582677164
21
2.0074973622047243
0
LINE
8
BLACK
6
CONTINUOUS
10
1.1988938582677164
20
2.0074973622047243
11
1.1988189370078739
21
2.0078740157480315
0
LINE
8
BLACK
6
CONTINUOUS
10
1.1988189370078739
20
2.0078740157480315
11
1.1988189370078739
21
2.063976377952756
0
LINE
8
BLACK
6
CONTINUOUS
10
1.1988189370078739
20
2.063976377952756
11
1.0364173228346456
21
2.0639763385826773
0
LINE
8
BLACK
6
CONTINUOUS
10
1.4064388976377953
20
1.7044112204724409
11
1.4067582283464566
21
1.704197874015748
0
LINE
8
BLACK
6
CONTINUOUS
10
1.4067582283464566
20
1.704197874015748
11
1.5114322440944881
21
1.5995238188976377
0
LINE
8
BLACK
6
CONTINUOUS
10
1.5114322440944881
20
1.5995238188976377
11
1.5116456299212597
21
1.5992044881889764
0
LINE
8
BLACK
6
CONTINUOUS
10
1.5116456299212597
20
1.5992044881889764
11
1.5116456299212597
21
1.5984511811023621
0
LINE
8
BLACK
6
CONTINUOUS
10
1.5116456299212597
20
1.5984511811023621
11
1.5114322834645668
21
1.5981318897637795
0
LINE
8
BLACK
6
CONTINUOUS
10
1.5114322834645668
20
1.5981318897637795
11
1.4568681496062992
21
1.5435677165354331
0
LINE
8
BLACK
6
CONTINUOUS
10
1.4568681496062992
20
1.5435677165354331
11
1.4565488188976377
21
1.5433543700787402
0
LINE
8
BLACK
6
CONTINUOUS
10
1.4565488188976377
20
1.5433543700787402
11
1.4557955118110235
21
1.5433543700787402
0
LINE
8
BLACK
6
CONTINUOUS
10
1.4557955118110235
20
1.5433543700787402
11
1.4554761811023622
21
1.5435677559055119
0
LINE
8
BLACK
6
CONTINUOUS
10
1.4554761811023622
20
1.5435677559055119
11
1.350802125984252
21
1.6482417716535434
0
LINE
8
BLACK
6
CONTINUOUS
10
1.350802125984252
20
1.6482417716535434
11
1.3505887795275591
21
1.6485611023622047
0
LINE
8
BLACK
6
CONTINUOUS
10
1.3505887795275591
20
1.6485611023622047
11
1.3505887795275591
21
1.6493144094488188
0
LINE
8
BLACK
6
CONTINUOUS
10
1.3505887795275591
20
1.6493144094488188
11
1.350802125984252
21
1.6496337401574803
0
LINE
8
BLACK
6
CONTINUOUS
10
1.350802125984252
20
1.6496337401574803
11
1.4053662992125984
21
1.704197874015748
0
LINE
8
BLACK
6
CONTINUOUS
10
1.4053662992125984
20
1.704197874015748
11
1.4056855905511811
21
1.7044112204724409
0
LINE
8
BLACK
6
CONTINUOUS
10
1.4056855905511811
20
1.7044112204724409
11
1.4064388976377953
21
1.7044112204724409
0
LINE
8
BLACK
6
CONTINUOUS
10
1.3528900393700787
20
1.6489377952755906
11
1.4561721259842519
21
1.5456556692913386
0
LINE
8
BLACK
6
CONTINUOUS
10
1.4561721259842519
20
1.5456556692913386
11
1.5093443307086614
21
1.598827874015748
0
LINE
8
BLACK
6
CONTINUOUS
10
1.5093443307086614
20
1.598827874015748
11
1.4060622047244093
21
1.7021099606299213
0
LINE
8
BLACK
6
CONTINUOUS
10
1.4060622047244093
20
1.7021099606299213
11
1.3528900393700787
21
1.6489377952755906
0
LINE
8
BLACK
6
CONTINUOUS
10
0.7456522440944882
20
1.7095707480314961
11
0.7461849212598425
21
1.7090380708661417
0
LINE
8
BLACK
6
CONTINUOUS
10
0.7461849212598425
20
1.7090380708661417
11
0.746259842519685
21
1.7086614173228345
0
LINE
8
BLACK
6
CONTINUOUS
10
0.746259842519685
20
1.7086614173228345
11
0.746259842519685
21
1.631496062992126
0
LINE
8
BLACK
6
CONTINUOUS
10
0.746259842519685
20
1.631496062992126
11
0.7461849212598425
21
1.6311194094488188
0
LINE
8
BLACK
6
CONTINUOUS
10
0.7461849212598425
20
1.6311194094488188
11
0.7456522440944882
21
1.6305867322834646
0
LINE
8
BLACK
6
CONTINUOUS
10
0.7456522440944882
20
1.6305867322834646
11
0.7452755905511811
21
1.6305118110236221
0
LINE
8
BLACK
6
CONTINUOUS
10
0.7452755905511811
20
1.6305118110236221
11
0.5972440944881889
21
1.6305118110236221
0
LINE
8
BLACK
6
CONTINUOUS
10
0.5972440944881889
20
1.6305118110236221
11
0.5968674409448819
21
1.6305867322834646
0
LINE
8
BLACK
6
CONTINUOUS
10
0.5968674409448819
20
1.6305867322834646
11
0.5963347637795275
21
1.6311194094488188
0
LINE
8
BLACK
6
CONTINUOUS
10
0.5963347637795275
20
1.6311194094488188
11
0.596259842519685
21
1.631496062992126
0
LINE
8
BLACK
6
CONTINUOUS
10
0.596259842519685
20
1.631496062992126
11
0.596259842519685
21
1.7086614173228345
0
LINE
8
BLACK
6
CONTINUOUS
10
0.596259842519685
20
1.7086614173228345
11
0.5963347637795275
21
1.7090380708661417
0
LINE
8
BLACK
6
CONTINUOUS
10
0.5963347637795275
20
1.7090380708661417
11
0.5968674409448819
21
1.7095707480314961
0
LINE
8
BLACK
6
CONTINUOUS
10
0.5968674409448819
20
1.7095707480314961
11
0.5972440944881889
21
1.7096456692913387
0
LINE
8
BLACK
6
CONTINUOUS
10
0.5972440944881889
20
1.7096456692913387
11
0.7452755905511811
21
1.7096456692913387
0
LINE
8
BLACK
6
CONTINUOUS
10
0.7452755905511811
20
1.7096456692913387
11
0.7456522440944882
21
1.7095707480314961
0
LINE
8
BLACK
6
CONTINUOUS
10
0.5982283464566929
20
1.7076771653543306
11
0.5982283464566929
21
1.63248031496063
0
LINE
8
BLACK
6
CONTINUOUS
10
0.5982283464566929
20
1.63248031496063
11
0.7442913385826772
21
1.63248031496063
0
LINE
8
BLACK
6
CONTINUOUS
10
0.7442913385826772
20
1.63248031496063
11
0.7442913385826772
21
1.7076771653543306
0
LINE
8
BLACK
6
CONTINUOUS
10
0.7442913385826772
20
1.7076771653543306
11
0.5982283464566929
21
1.7076771653543306
0
LINE
8
BLACK
6
CONTINUOUS
10
0.7043924015748031
20
1.9694920078740157
11
0.7049250787401574
21
1.9689593307086615
0
LINE
8
BLACK
6
CONTINUOUS
10
0.7049250787401574
20
1.9689593307086615
11
0.705
21
1.9685826771653543
0
LINE
8
BLACK
6
CONTINUOUS
10
0.705
20
1.9685826771653543
11
0.705
21
1.8914173228346456
0
LINE
8
BLACK
6
CONTINUOUS
10
0.705
20
1.8914173228346456
11
0.7049250787401574
21
1.8910406692913386
0
LINE
8
BLACK
6
CONTINUOUS
10
0.7049250787401574
20
1.8910406692913386
11
0.7043924015748031
21
1.8905079921259842
0
LINE
8
BLACK
6
CONTINUOUS
10
0.7043924015748031
20
1.8905079921259842
11
0.704015748031496
21
1.8904330708661417
0
LINE
8
BLACK
6
CONTINUOUS
10
0.704015748031496
20
1.8904330708661417
11
0.5559842519685039
21
1.8904330708661417
0
LINE
8
BLACK
6
CONTINUOUS
10
0.5559842519685039
20
1.8904330708661417
11
0.5556075984251968
21
1.8905079921259842
0
LINE
8
BLACK
6
CONTINUOUS
10
0.5556075984251968
20
1.8905079921259842
11
0.5550749212598425
21
1.8910406692913386
0
LINE
8
BLACK
6
CONTINUOUS
10
0.5550749212598425
20
1.8910406692913386
11
0.5549999999999999
21
1.8914173228346456
0
LINE
8
BLACK
6
CONTINUOUS
10
0.5549999999999999
20
1.8914173228346456
11
0.5549999999999999
21
1.9685826771653543
0
LINE
8
BLACK
6
CONTINUOUS
10
0.5549999999999999
20
1.9685826771653543
11
0.5550749212598425
21
1.9689593307086615
0
LINE
8
BLACK
6
CONTINUOUS
10
0.5550749212598425
20
1.9689593307086615
11
0.5556075984251968
21
1.9694920078740157
0
LINE
8
BLACK
6
CONTINUOUS
10
0.5556075984251968
20
1.9694920078740157
11
0.5559842519685039
21
1.9695669291338582
0
LINE
8
BLACK
6
CONTINUOUS
10
0.5559842519685039
20
1.9695669291338582
11
0.704015748031496
21
1.9695669291338582
0
LINE
8
BLACK
6
CONTINUOUS
10
0.704015748031496
20
1.9695669291338582
11
0.7043924015748031
21
1.9694920078740157
0
LINE
8
BLACK
6
CONTINUOUS
10
0.5569685039370078
20
1.9675984251968504
11
0.5569685039370078
21
1.8924015748031495
0
LINE
8
BLACK
6
CONTINUOUS
10
0.5569685039370078
20
1.8924015748031495
11
0.7030314960629921
21
1.8924015748031495
0
LINE
8
BLACK
6
CONTINUOUS
10
0.7030314960629921
20
1.8924015748031495
11
0.7030314960629921
21
1.9675984251968504
0
LINE
8
BLACK
6
CONTINUOUS
10
0.7030314960629921
20
1.9675984251968504
11
0.5569685039370078
21
1.9675984251968504
0
LINE
8
BLACK
6
CONTINUOUS
10
0.8043924015748032
20
2.0744920078740159
11
0.8049250787401575
21
2.0739593307086612
0
LINE
8
BLACK
6
CONTINUOUS
10
0.8049250787401575
20
2.0739593307086612
11
0.8049999999999999
21
2.0735826771653545
0
LINE
8
BLACK
6
CONTINUOUS
10
0.8049999999999999
20
2.0735826771653545
11
0.8049999999999999
21
1.9964173228346456
0
LINE
8
BLACK
6
CONTINUOUS
10
0.8049999999999999
20
1.9964173228346456
11
0.8049250787401575
21
1.9960406692913386
0
LINE
8
BLACK
6
CONTINUOUS
10
0.8049250787401575
20
1.9960406692913386
11
0.8043924015748032
21
1.9955079921259842
0
LINE
8
BLACK
6
CONTINUOUS
10
0.8043924015748032
20
1.9955079921259842
11
0.804015748031496
21
1.9954330708661416
0
LINE
8
BLACK
6
CONTINUOUS
10
0.804015748031496
20
1.9954330708661416
11
0.655984251968504
21
1.9954330708661416
0
LINE
8
BLACK
6
CONTINUOUS
10
0.655984251968504
20
1.9954330708661416
11
0.6556075984251968
21
1.9955079921259842
0
LINE
8
BLACK
6
CONTINUOUS
10
0.6556075984251968
20
1.9955079921259842
11
0.6550749212598425
21
1.9960406692913386
0
LINE
8
BLACK
6
CONTINUOUS
10
0.6550749212598425
20
1.9960406692913386
11
0.655
21
1.9964173228346456
0
LINE
8
BLACK
6
CONTINUOUS
10
0.655
20
1.9964173228346456
11
0.655
21
2.0735826771653545
0
LINE
8
BLACK
6
CONTINUOUS
10
0.655
20
2.0735826771653545
11
0.6550749212598425
21
2.0739593307086612
0
LINE
8
BLACK
6
CONTINUOUS
10
0.6550749212598425
20
2.0739593307086612
11
0.6556075984251968
21
2.0744920078740159
0
LINE
8
BLACK
6
CONTINUOUS
10
0.6556075984251968
20
2.0744920078740159
11
0.655984251968504
21
2.0745669291338582
0
LINE
8
BLACK
6
CONTINUOUS
10
0.655984251968504
20
2.0745669291338582
11
0.804015748031496
21
2.0745669291338582
0
LINE
8
BLACK
6
CONTINUOUS
10
0.804015748031496
20
2.0745669291338582
11
0.8043924015748032
21
2.0744920078740159
0
LINE
8
BLACK
6
CONTINUOUS
10
0.6569685039370079
20
2.0725984251968503
11
0.6569685039370079
21
1.9974015748031495
0
LINE
8
BLACK
6
CONTINUOUS
10
0.6569685039370079
20
1.9974015748031495
11
0.8030314960629921
21
1.9974015748031495
0
LINE
8
BLACK
6
CONTINUOUS
10
0.8030314960629921
20
1.9974015748031495
11
0.8030314960629921
21
2.0725984251968503
0
LINE
8
BLACK
6
CONTINUOUS
10
0.8030314960629921
20
2.0725984251968503
11
0.6569685039370079
21
2.0725984251968503
0
LINE
8
BLACK
6
CONTINUOUS
10
1.3139593307086614
20
2.190771535433071
11
1.3144920078740157
21
2.1902388582677164
0
LINE
8
BLACK
6
CONTINUOUS
10
1.3144920078740157
20
2.1902388582677164
11
1.3145669291338582
21
2.1898622047244092
0
LINE
8
BLACK
6
CONTINUOUS
10
1.3145669291338582
20
2.1898622047244092
11
1.3145669291338582
21
2.0418307086614171
0
LINE
8
BLACK
6
CONTINUOUS
10
1.3145669291338582
20
2.0418307086614171
11
1.3144920078740157
21
2.0414540551181104
0
LINE
8
BLACK
6
CONTINUOUS
10
1.3144920078740157
20
2.0414540551181104
11
1.3139593307086614
21
2.0409213779527557
0
LINE
8
BLACK
6
CONTINUOUS
10
1.3139593307086614
20
2.0409213779527557
11
1.3135826771653543
21
2.0408464566929134
0
LINE
8
BLACK
6
CONTINUOUS
10
1.3135826771653543
20
2.0408464566929134
11
1.2364173228346456
21
2.0408464566929134
0
LINE
8
BLACK
6
CONTINUOUS
10
1.2364173228346456
20
2.0408464566929134
11
1.2360406692913386
21
2.0409213779527557
0
LINE
8
BLACK
6
CONTINUOUS
10
1.2360406692913386
20
2.0409213779527557
11
1.2355079921259842
21
2.0414540551181104
0
LINE
8
BLACK
6
CONTINUOUS
10
1.2355079921259842
20
2.0414540551181104
11
1.2354330708661416
21
2.0418307086614171
0
LINE
8
BLACK
6
CONTINUOUS
10
1.2354330708661416
20
2.0418307086614171
11
1.2354330708661416
21
2.1898622047244092
0
LINE
8
BLACK
6
CONTINUOUS
10
1.2354330708661416
20
2.1898622047244092
11
1.2355079921259842
21
2.1902388582677164
0
LINE
8
BLACK
6
CONTINUOUS
10
1.2355079921259842
20
2.1902388582677164
11
1.2360406692913386
21
2.190771535433071
0
LINE
8
BLACK
6
CONTINUOUS
10
1.2360406692913386
20
2.190771535433071
11
1.2364173228346456
21
2.1908464566929133
0
LINE
8
BLACK
6
CONTINUOUS
10
1.2364173228346456
20
2.1908464566929133
11
1.3135826771653543
21
2.1908464566929133
0
LINE
8
BLACK
6
CONTINUOUS
10
1.3135826771653543
20
2.1908464566929133
11
1.3139593307086614
21
2.190771535433071
0
LINE
8
BLACK
6
CONTINUOUS
10
1.2374015748031495
20
2.1888779527559055
11
1.2374015748031495
21
2.0428149606299213
0
LINE
8
BLACK
6
CONTINUOUS
10
1.2374015748031495
20
2.0428149606299213
11
1.3125984251968503
21
2.0428149606299213
0
LINE
8
BLACK
6
CONTINUOUS
10
1.3125984251968503
20
2.0428149606299213
11
1.3125984251968503
21
2.1888779527559055
0
LINE
8
BLACK
6
CONTINUOUS
10
1.3125984251968503
20
2.1888779527559055
11
1.2374015748031495
21
2.1888779527559055
0
LINE
8
BLACK
6
CONTINUOUS
10
1.4295892519685038
20
2.1844132283464566
11
1.4301219291338583
21
2.1838805511811024
0
LINE
8
BLACK
6
CONTINUOUS
10
1.4301219291338583
20
2.1838805511811024
11
1.4301968503937008
21
2.1835038976377952
0
LINE
8
BLACK
6
CONTINUOUS
10
1.4301968503937008
20
2.1835038976377952
11
1.4301968503937008
21
2.0535826377952757
0
LINE
8
BLACK
6
CONTINUOUS
10
1.4301968503937008
20
2.0535826377952757
11
1.4301219291338583
21
2.0532059842519685
0
LINE
8
BLACK
6
CONTINUOUS
10
1.4301219291338583
20
2.0532059842519685
11
1.4295892519685038
21
2.0526733070866143
0
LINE
8
BLACK
6
CONTINUOUS
10
1.4295892519685038
20
2.0526733070866143
11
1.4292125984251969
21
2.0525983858267716
0
LINE
8
BLACK
6
CONTINUOUS
10
1.4292125984251969
20
2.0525983858267716
11
1.3307874015748031
21
2.0525983858267716
0
LINE
8
BLACK
6
CONTINUOUS
10
1.3307874015748031
20
2.0525983858267716
11
1.3304107480314959
21
2.0526733070866143
0
LINE
8
BLACK
6
CONTINUOUS
10
1.3304107480314959
20
2.0526733070866143
11
1.3298780708661417
21
2.0532059842519685
0
LINE
8
BLACK
6
CONTINUOUS
10
1.3298780708661417
20
2.0532059842519685
11
1.3298031496062992
21
2.0535826377952757
0
LINE
8
BLACK
6
CONTINUOUS
10
1.3298031496062992
20
2.0535826377952757
11
1.3298031496062992
21
2.1835038976377952
0
LINE
8
BLACK
6
CONTINUOUS
10
1.3298031496062992
20
2.1835038976377952
11
1.3298780708661417
21
2.1838805511811024
0
LINE
8
BLACK
6
CONTINUOUS
10
1.3298780708661417
20
2.1838805511811024
11
1.3304107480314959
21
2.1844132283464566
0
LINE
8
BLACK
6
CONTINUOUS
10
1.3304107480314959
20
2.1844132283464566
11
1.3307874015748031
21
2.1844881496062993
0
LINE
8
BLACK
6
CONTINUOUS
10
1.3307874015748031
20
2.1844881496062993
11
1.4292125984251969
21
2.1844881496062993
0
LINE
8
BLACK
6
CONTINUOUS
10
1.4292125984251969
20
2.1844881496062993
11
1.4295892519685038
21
2.1844132283464566
0
LINE
8
BLACK
6
CONTINUOUS
10
1.3317716535433071
20
2.1825196456692915
11
1.3317716535433071
21
2.0545668897637794
0
LINE
8
BLACK
6
CONTINUOUS
10
1.3317716535433071
20
2.0545668897637794
11
1.4282283464566929
21
2.0545668897637794
0
LINE
8
BLACK
6
CONTINUOUS
10
1.4282283464566929
20
2.0545668897637794
11
1.4282283464566929
21
2.1825196456692915
0
LINE
8
BLACK
6
CONTINUOUS
10
1.4282283464566929
20
2.1825196456692915
11
1.3317716535433071
21
2.1825196456692915
0
LINE
8
BLACK
6
CONTINUOUS
10
0.4228100787401575
20
2.226813188976378
11
0.4231294094488189
21
2.2265998425196849
0
LINE
8
BLACK
6
CONTINUOUS
10
0.4231294094488189
20
2.2265998425196849
11
0.5149976377952756
21
2.1347316141732282
0
LINE
8
BLACK
6
CONTINUOUS
10
0.5149976377952756
20
2.1347316141732282
11
0.5152109842519685
21
2.1344122834645667
0
LINE
8
BLACK
6
CONTINUOUS
10
0.5152109842519685
20
2.1344122834645667
11
0.5152109842519685
21
2.1336589763779528
0
LINE
8
BLACK
6
CONTINUOUS
10
0.5152109842519685
20
2.1336589763779528
11
0.5149976377952756
21
2.1333396456692912
0
LINE
8
BLACK
6
CONTINUOUS
10
0.5149976377952756
20
2.1333396456692912
11
0.4454005118110236
21
2.0637425196850394
0
LINE
8
BLACK
6
CONTINUOUS
10
0.4454005118110236
20
2.0637425196850394
11
0.4450811811023622
21
2.0635291732283463
0
LINE
8
BLACK
6
CONTINUOUS
10
0.4450811811023622
20
2.0635291732283463
11
0.444327874015748
21
2.0635291732283463
0
LINE
8
BLACK
6
CONTINUOUS
10
0.444327874015748
20
2.0635291732283463
11
0.4440085433070866
21
2.0637425196850394
0
LINE
8
BLACK
6
CONTINUOUS
10
0.4440085433070866
20
2.0637425196850394
11
0.3521403149606299
21
2.1556107480314961
0
LINE
8
BLACK
6
CONTINUOUS
10
0.3521403149606299
20
2.1556107480314961
11
0.351926968503937
21
2.1559300787401576
0
LINE
8
BLACK
6
CONTINUOUS
10
0.351926968503937
20
2.1559300787401576
11
0.351926968503937
21
2.1566833858267715
0
LINE
8
BLACK
6
CONTINUOUS
10
0.351926968503937
20
2.1566833858267715
11
0.3521403149606299
21
2.1570027165354331
0
LINE
8
BLACK
6
CONTINUOUS
10
0.3521403149606299
20
2.1570027165354331
11
0.4217374409448819
21
2.2265998425196849
0
LINE
8
BLACK
6
CONTINUOUS
10
0.4217374409448819
20
2.2265998425196849
11
0.4220567716535433
21
2.226813188976378
0
LINE
8
BLACK
6
CONTINUOUS
10
0.4220567716535433
20
2.226813188976378
11
0.4228100787401575
21
2.226813188976378
0
LINE
8
BLACK
6
CONTINUOUS
10
0.3542282677165354
20
2.1563067322834644
11
0.4447045275590551
21
2.0658304724409446
0
LINE
8
BLACK
6
CONTINUOUS
10
0.4447045275590551
20
2.0658304724409446
11
0.5129096850393701
21
2.1340356299212599
0
LINE
8
BLACK
6
CONTINUOUS
10
0.5129096850393701
20
2.1340356299212599
11
0.4224334251968504
21
2.2245118897637797
0
LINE
8
BLACK
6
CONTINUOUS
10
0.4224334251968504
20
2.2245118897637797
11
0.3542282677165354
21
2.1563067322834644
0
LINE
8
BLACK
6
CONTINUOUS
10
0.8043924015748032
20
2.2044920078740158
11
0.8049250787401575
21
2.2039593307086616
0
LINE
8
BLACK
6
CONTINUOUS
10
0.8049250787401575
20
2.2039593307086616
11
0.8049999999999999
21
2.2035826771653544
0
LINE
8
BLACK
6
CONTINUOUS
10
0.8049999999999999
20
2.2035826771653544
11
0.8049999999999999
21
2.1264173228346457
0
LINE
8
BLACK
6
CONTINUOUS
10
0.8049999999999999
20
2.1264173228346457
11
0.8049250787401575
21
2.1260406692913385
0
LINE
8
BLACK
6
CONTINUOUS
10
0.8049250787401575
20
2.1260406692913385
11
0.8043924015748032
21
2.1255079921259843
0
LINE
8
BLACK
6
CONTINUOUS
10
0.8043924015748032
20
2.1255079921259843
11
0.804015748031496
21
2.1254330708661415
0
LINE
8
BLACK
6
CONTINUOUS
10
0.804015748031496
20
2.1254330708661415
11
0.655984251968504
21
2.1254330708661415
0
LINE
8
BLACK
6
CONTINUOUS
10
0.655984251968504
20
2.1254330708661415
11
0.6556075984251968
21
2.1255079921259843
0
LINE
8
BLACK
6
CONTINUOUS
10
0.6556075984251968
20
2.1255079921259843
11
0.6550749212598425
21
2.1260406692913385
0
LINE
8
BLACK
6
CONTINUOUS
10
0.6550749212598425
20
2.1260406692913385
11
0.655
21
2.1264173228346457
0
LINE
8
BLACK
6
CONTINUOUS
10
0.655
20
2.1264173228346457
11
0.655
21
2.2035826771653544
0
LINE
8
BLACK
6
CONTINUOUS
10
0.655
20
2.2035826771653544
11
0.6550749212598425
21
2.2039593307086616
0
LINE
8
BLACK
6
CONTINUOUS
10
0.6550749212598425
20
2.2039593307086616
11
0.6556075984251968
21
2.2044920078740158
0
LINE
8
BLACK
6
CONTINUOUS
10
0.6556075984251968
20
2.2044920078740158
11
0.655984251968504
21
2.2045669291338581
0
LINE
8
BLACK
6
CONTINUOUS
10
0.655984251968504
20
2.2045669291338581
11
0.804015748031496
21
2.2045669291338581
0
LINE
8
BLACK
6
CONTINUOUS
10
0.804015748031496
20
2.2045669291338581
11
0.8043924015748032
21
2.2044920078740158
0
LINE
8
BLACK
6
CONTINUOUS
10
0.6569685039370079
20
2.2025984251968502
11
0.6569685039370079
21
2.1274015748031494
0
LINE
8
BLACK
6
CONTINUOUS
10
0.6569685039370079
20
2.1274015748031494
11
0.8030314960629921
21
2.1274015748031494
0
LINE
8
BLACK
6
CONTINUOUS
10
0.8030314960629921
20
2.1274015748031494
11
0.8030314960629921
21
2.2025984251968502
0
LINE
8
BLACK
6
CONTINUOUS
10
0.8030314960629921
20
2.2025984251968502
11
0.6569685039370079
21
2.2025984251968502
0
LINE
8
BLACK
6
CONTINUOUS
10
1.9289593307086614
20
3.1149250787401574
11
1.9294920078740156
21
3.1143924015748032
0
LINE
8
BLACK
6
CONTINUOUS
10
1.9294920078740156
20
3.1143924015748032
11
1.9295669291338582
21
3.1140157480314961
0
LINE
8
BLACK
6
CONTINUOUS
10
1.9295669291338582
20
3.1140157480314961
11
1.9295669291338582
21
2.965984251968504
0
LINE
8
BLACK
6
CONTINUOUS
10
1.9295669291338582
20
2.965984251968504
11
1.9294920078740156
21
2.9656075984251968
0
LINE
8
BLACK
6
CONTINUOUS
10
1.9294920078740156
20
2.9656075984251968
11
1.9289593307086614
21
2.9650749212598426
0
LINE
8
BLACK
6
CONTINUOUS
10
1.9289593307086614
20
2.9650749212598426
11
1.9285826771653543
21
2.9649999999999999
0
LINE
8
BLACK
6
CONTINUOUS
10
1.9285826771653543
20
2.9649999999999999
11
1.8514173228346456
21
2.9649999999999999
0
LINE
8
BLACK
6
CONTINUOUS
10
1.8514173228346456
20
2.9649999999999999
11
1.8510406692913386
21
2.9650749212598426
0
LINE
8
BLACK
6
CONTINUOUS
10
1.8510406692913386
20
2.9650749212598426
11
1.8505079921259842
21
2.9656075984251968
0
LINE
8
BLACK
6
CONTINUOUS
10
1.8505079921259842
20
2.9656075984251968
11
1.8504330708661416
21
2.965984251968504
0
LINE
8
BLACK
6
CONTINUOUS
10
1.8504330708661416
20
2.965984251968504
11
1.8504330708661416
21
3.1140157480314961
0
LINE
8
BLACK
6
CONTINUOUS
10
1.8504330708661416
20
3.1140157480314961
11
1.8505079921259842
21
3.1143924015748032
0
LINE
8
BLACK
6
CONTINUOUS
10
1.8505079921259842
20
3.1143924015748032
11
1.8510406692913386
21
3.1149250787401574
0
LINE
8
BLACK
6
CONTINUOUS
10
1.8510406692913386
20
3.1149250787401574
11
1.8514173228346456
21
3.1149999999999998
0
LINE
8
BLACK
6
CONTINUOUS
10
1.8514173228346456
20
3.1149999999999998
11
1.9285826771653543
21
3.1149999999999998
0
LINE
8
BLACK
6
CONTINUOUS
10
1.9285826771653543
20
3.1149999999999998
11
1.9289593307086614
21
3.1149250787401574
0
LINE
8
BLACK
6
CONTINUOUS
10
1.8524015748031495
20
3.1130314960629919
11
1.8524015748031495
21
2.9669685039370077
0
LINE
8
BLACK
6
CONTINUOUS
10
1.8524015748031495
20
2.9669685039370077
11
1.9275984251968503
21
2.9669685039370077
0
LINE
8
BLACK
6
CONTINUOUS
10
1.9275984251968503
20
2.9669685039370077
11
1.9275984251968503
21
3.1130314960629919
0
LINE
8
BLACK
6
CONTINUOUS
10
1.9275984251968503
20
3.1130314960629919
11
1.8524015748031495
21
3.1130314960629919
0
LINE
8
BLACK
6
CONTINUOUS
10
1.1905341338582678
20
3.1150825590551179
11
1.191066811023622
21
3.1145498818897637
0
LINE
8
BLACK
6
CONTINUOUS
10
1.191066811023622
20
3.1145498818897637
11
1.1911417322834645
21
3.1141732283464565
0
LINE
8
BLACK
6
CONTINUOUS
10
1.1911417322834645
20
3.1141732283464565
11
1.1911417322834645
21
2.9661417322834644
0
LINE
8
BLACK
6
CONTINUOUS
10
1.1911417322834645
20
2.9661417322834644
11
1.191066811023622
21
2.9657650787401573
0
LINE
8
BLACK
6
CONTINUOUS
10
1.191066811023622
20
2.9657650787401573
11
1.1905341338582678
21
2.9652324015748031
0
LINE
8
BLACK
6
CONTINUOUS
10
1.1905341338582678
20
2.9652324015748031
11
1.1901574803149606
21
2.9651574803149607
0
LINE
8
BLACK
6
CONTINUOUS
10
1.1901574803149606
20
2.9651574803149607
11
1.1129921259842519
21
2.9651574803149607
0
LINE
8
BLACK
6
CONTINUOUS
10
1.1129921259842519
20
2.9651574803149607
11
1.1126154724409449
21
2.9652324015748031
0
LINE
8
BLACK
6
CONTINUOUS
10
1.1126154724409449
20
2.9652324015748031
11
1.1120827952755905
21
2.9657650787401573
0
LINE
8
BLACK
6
CONTINUOUS
10
1.1120827952755905
20
2.9657650787401573
11
1.112007874015748
21
2.9661417322834644
0
LINE
8
BLACK
6
CONTINUOUS
10
1.112007874015748
20
2.9661417322834644
11
1.112007874015748
21
3.1141732283464565
0
LINE
8
BLACK
6
CONTINUOUS
10
1.112007874015748
20
3.1141732283464565
11
1.1120827952755905
21
3.1145498818897637
0
LINE
8
BLACK
6
CONTINUOUS
10
1.1120827952755905
20
3.1145498818897637
11
1.1126154724409449
21
3.1150825590551179
0
LINE
8
BLACK
6
CONTINUOUS
10
1.1126154724409449
20
3.1150825590551179
11
1.1129921259842519
21
3.1151574803149606
0
LINE
8
BLACK
6
CONTINUOUS
10
1.1129921259842519
20
3.1151574803149606
11
1.1901574803149606
21
3.1151574803149606
0
LINE
8
BLACK
6
CONTINUOUS
10
1.1901574803149606
20
3.1151574803149606
11
1.1905341338582678
21
3.1150825590551179
0
LINE
8
BLACK
6
CONTINUOUS
10
1.1139763779527558
20
3.1131889763779528
11
1.1139763779527558
21
2.9671259842519686
0
LINE
8
BLACK
6
CONTINUOUS
10
1.1139763779527558
20
2.9671259842519686
11
1.1891732283464567
21
2.9671259842519686
0
LINE
8
BLACK
6
CONTINUOUS
10
1.1891732283464567
20
2.9671259842519686
11
1.1891732283464567
21
3.1131889763779528
0
LINE
8
BLACK
6
CONTINUOUS
10
1.1891732283464567
20
3.1131889763779528
11
1.1139763779527558
21
3.1131889763779528
0
LINE
8
BLACK
6
CONTINUOUS
10
0.4255735039370079
20
3.2556337401574802
11
0.4261061811023622
21
3.255101062992126
0
LINE
8
BLACK
6
CONTINUOUS
10
0.4261061811023622
20
3.255101062992126
11
0.4261811023622047
21
3.2547244094488188
0
LINE
8
BLACK
6
CONTINUOUS
10
0.4261811023622047
20
3.2547244094488188
11
0.4261811023622047
21
2.971259842519685
0
LINE
8
BLACK
6
CONTINUOUS
10
0.4261811023622047
20
2.971259842519685
11
0.4261061811023622
21
2.9708831889763778
0
LINE
8
BLACK
6
CONTINUOUS
10
0.4261061811023622
20
2.9708831889763778
11
0.4255735039370079
21
2.9703505118110236
0
LINE
8
BLACK
6
CONTINUOUS
10
0.4255735039370079
20
2.9703505118110236
11
0.4251968503937008
21
2.9702755905511808
0
LINE
8
BLACK
6
CONTINUOUS
10
0.4251968503937008
20
2.9702755905511808
11
0.078740157480315
21
2.9702755905511808
0
LINE
8
BLACK
6
CONTINUOUS
10
0.078740157480315
20
2.9702755905511808
11
0.0783635039370079
21
2.9703505118110236
0
LINE
8
BLACK
6
CONTINUOUS
10
0.0783635039370079
20
2.9703505118110236
11
0.0778308267716535
21
2.9708831889763778
0
LINE
8
BLACK
6
CONTINUOUS
10
0.0778308267716535
20
2.9708831889763778
11
0.077755905511811
21
2.971259842519685
0
LINE
8
BLACK
6
CONTINUOUS
10
0.077755905511811
20
2.971259842519685
11
0.077755905511811
21
3.2547244094488188
0
LINE
8
BLACK
6
CONTINUOUS
10
0.077755905511811
20
3.2547244094488188
11
0.0778308267716535
21
3.255101062992126
0
LINE
8
BLACK
6
CONTINUOUS
10
0.0778308267716535
20
3.255101062992126
11
0.0783635039370079
21
3.2556337401574802
0
LINE
8
BLACK
6
CONTINUOUS
10
0.0783635039370079
20
3.2556337401574802
11
0.078740157480315
21
3.255708661417323
0
LINE
8
BLACK
6
CONTINUOUS
10
0.078740157480315
20
3.255708661417323
11
0.4251968503937008
21
3.255708661417323
0
LINE
8
BLACK
6
CONTINUOUS
10
0.4251968503937008
20
3.255708661417323
11
0.4255735039370079
21
3.2556337401574802
0
LINE
8
BLACK
6
CONTINUOUS
10
0.0797244094488189
20
3.2537401574803151
11
0.0797244094488189
21
2.9722440944881887
0
LINE
8
BLACK
6
CONTINUOUS
10
0.0797244094488189
20
2.9722440944881887
11
0.4242125984251968
21
2.9722440944881887
0
LINE
8
BLACK
6
CONTINUOUS
10
0.4242125984251968
20
2.9722440944881887
11
0.4242125984251968
21
3.2537401574803151
0
LINE
8
BLACK
6
CONTINUOUS
10
0.4242125984251968
20
3.2537401574803151
11
0.0797244094488189
21
3.2537401574803151
0
LINE
8
BLACK
6
CONTINUOUS
10
1.836605
20
3.2601652362204723
11
1.8371376771653543
21
3.2596325590551181
0
LINE
8
BLACK
6
CONTINUOUS
10
1.8371376771653543
20
3.2596325590551181
11
1.8372125984251968
21
3.2592559055118109
0
LINE
8
BLACK
6
CONTINUOUS
10
1.8372125984251968
20
3.2592559055118109
11
1.8372125984251968
21
2.9757913385826771
0
LINE
8
BLACK
6
CONTINUOUS
10
1.8372125984251968
20
2.9757913385826771
11
1.8371376771653543
21
2.9754146850393699
0
LINE
8
BLACK
6
CONTINUOUS
10
1.8371376771653543
20
2.9754146850393699
11
1.836605
21
2.9748820078740157
0
LINE
8
BLACK
6
CONTINUOUS
10
1.836605
20
2.9748820078740157
11
1.8362283464566929
21
2.9748070866141734
0
LINE
8
BLACK
6
CONTINUOUS
10
1.8362283464566929
20
2.9748070866141734
11
1.489771653543307
21
2.9748070866141734
0
LINE
8
BLACK
6
CONTINUOUS
10
1.489771653543307
20
2.9748070866141734
11
1.489395
21
2.9748820078740157
0
LINE
8
BLACK
6
CONTINUOUS
10
1.489395
20
2.9748820078740157
11
1.4888623228346456
21
2.9754146850393699
0
LINE
8
BLACK
6
CONTINUOUS
10
1.4888623228346456
20
2.9754146850393699
11
1.488787401574803
21
2.9757913385826771
0
LINE
8
BLACK
6
CONTINUOUS
10
1.488787401574803
20
2.9757913385826771
11
1.488787401574803
21
3.2592559055118109
0
LINE
8
BLACK
6
CONTINUOUS
10
1.488787401574803
20
3.2592559055118109
11
1.4888623228346456
21
3.2596325590551181
0
LINE
8
BLACK
6
CONTINUOUS
10
1.4888623228346456
20
3.2596325590551181
11
1.489395
21
3.2601652362204723
0
LINE
8
BLACK
6
CONTINUOUS
10
1.489395
20
3.2601652362204723
11
1.489771653543307
21
3.260240157480315
0
LINE
8
BLACK
6
CONTINUOUS
10
1.489771653543307
20
3.260240157480315
11
1.8362283464566929
21
3.260240157480315
0
LINE
8
BLACK
6
CONTINUOUS
10
1.8362283464566929
20
3.260240157480315
11
1.836605
21
3.2601652362204723
0
LINE
8
BLACK
6
CONTINUOUS
10
1.4907559055118109
20
3.2582716535433072
11
1.4907559055118109
21
2.9767755905511812
0
LINE
8
BLACK
6
CONTINUOUS
10
1.4907559055118109
20
2.9767755905511812
11
1.8352440944881889
21
2.9767755905511812
0
LINE
8
BLACK
6
CONTINUOUS
10
1.8352440944881889
20
2.9767755905511812
11
1.8352440944881889
21
3.2582716535433072
0
LINE
8
BLACK
6
CONTINUOUS
10
1.8352440944881889
20
3.2582716535433072
11
1.4907559055118109
21
3.2582716535433072
0
LINE
8
BLACK
6
CONTINUOUS
10
0.5847270472440945
20
3.0619329527559054
11
0.5852597244094488
21
3.0614002755905512
0
LINE
8
BLACK
6
CONTINUOUS
10
0.5852597244094488
20
3.0614002755905512
11
0.5853346456692913
21
3.061023622047244
0
LINE
8
BLACK
6
CONTINUOUS
10
0.5853346456692913
20
3.061023622047244
11
0.5853346456692913
21
2.9838582677165353
0
LINE
8
BLACK
6
CONTINUOUS
10
0.5853346456692913
20
2.9838582677165353
11
0.5852597244094488
21
2.9834816141732281
0
LINE
8
BLACK
6
CONTINUOUS
10
0.5852597244094488
20
2.9834816141732281
11
0.5847270472440945
21
2.9829489370078739
0
LINE
8
BLACK
6
CONTINUOUS
10
0.5847270472440945
20
2.9829489370078739
11
0.5843503937007873
21
2.9828740157480316
0
LINE
8
BLACK
6
CONTINUOUS
10
0.5843503937007873
20
2.9828740157480316
11
0.4363188976377952
21
2.9828740157480316
0
LINE
8
BLACK
6
CONTINUOUS
10
0.4363188976377952
20
2.9828740157480316
11
0.4359422440944882
21
2.9829489370078739
0
LINE
8
BLACK
6
CONTINUOUS
10
0.4359422440944882
20
2.9829489370078739
11
0.4354095669291339
21
2.9834816141732281
0
LINE
8
BLACK
6
CONTINUOUS
10
0.4354095669291339
20
2.9834816141732281
11
0.4353346456692913
21
2.9838582677165353
0
LINE
8
BLACK
6
CONTINUOUS
10
0.4353346456692913
20
2.9838582677165353
11
0.4353346456692913
21
3.061023622047244
0
LINE
8
BLACK
6
CONTINUOUS
10
0.4353346456692913
20
3.061023622047244
11
0.4354095669291339
21
3.0614002755905512
0
LINE
8
BLACK
6
CONTINUOUS
10
0.4354095669291339
20
3.0614002755905512
11
0.4359422440944882
21
3.0619329527559054
0
LINE
8
BLACK
6
CONTINUOUS
10
0.4359422440944882
20
3.0619329527559054
11
0.4363188976377952
21
3.0620078740157481
0
LINE
8
BLACK
6
CONTINUOUS
10
0.4363188976377952
20
3.0620078740157481
11
0.5843503937007873
21
3.0620078740157481
0
LINE
8
BLACK
6
CONTINUOUS
10
0.5843503937007873
20
3.0620078740157481
11
0.5847270472440945
21
3.0619329527559054
0
LINE
8
BLACK
6
CONTINUOUS
10
0.4373031496062992
20
3.0600393700787403
11
0.4373031496062992
21
2.9848425196850394
0
LINE
8
BLACK
6
CONTINUOUS
10
0.4373031496062992
20
2.9848425196850394
11
0.5833661417322834
21
2.9848425196850394
0
LINE
8
BLACK
6
CONTINUOUS
10
0.5833661417322834
20
2.9848425196850394
11
0.5833661417322834
21
3.0600393700787403
0
LINE
8
BLACK
6
CONTINUOUS
10
0.5833661417322834
20
3.0600393700787403
11
0.4373031496062992
21
3.0600393700787403
0
LINE
8
BLACK
6
CONTINUOUS
10
1.2995892519685039
20
3.1248699606299213
11
1.3001219291338582
21
3.1243372834645671
0
LINE
8
BLACK
6
CONTINUOUS
10
1.3001219291338582
20
3.1243372834645671
11
1.3001968503937007
21
3.1239606299212599
0
LINE
8
BLACK
6
CONTINUOUS
10
1.3001968503937007
20
3.1239606299212599
11
1.3001968503937007
21
2.99403937007874
0
LINE
8
BLACK
6
CONTINUOUS
10
1.3001968503937007
20
2.99403937007874
11
1.3001219291338582
21
2.9936627165354328
0
LINE
8
BLACK
6
CONTINUOUS
10
1.3001219291338582
20
2.9936627165354328
11
1.2995892519685039
21
2.9931300393700786
0
LINE
8
BLACK
6
CONTINUOUS
10
1.2995892519685039
20
2.9931300393700786
11
1.2992125984251968
21
2.9930551181102363
0
LINE
8
BLACK
6
CONTINUOUS
10
1.2992125984251968
20
2.9930551181102363
11
1.200787401574803
21
2.9930551181102363
0
LINE
8
BLACK
6
CONTINUOUS
10
1.200787401574803
20
2.9930551181102363
11
1.2004107480314961
21
2.9931300393700786
0
LINE
8
BLACK
6
CONTINUOUS
10
1.2004107480314961
20
2.9931300393700786
11
1.1998780708661416
21
2.9936627165354328
0
LINE
8
BLACK
6
CONTINUOUS
10
1.1998780708661416
20
2.9936627165354328
11
1.1998031496062991
21
2.99403937007874
0
LINE
8
BLACK
6
CONTINUOUS
10
1.1998031496062991
20
2.99403937007874
11
1.1998031496062991
21
3.1239606299212599
0
LINE
8
BLACK
6
CONTINUOUS
10
1.1998031496062991
20
3.1239606299212599
11
1.1998780708661416
21
3.1243372834645671
0
LINE
8
BLACK
6
CONTINUOUS
10
1.1998780708661416
20
3.1243372834645671
11
1.2004107480314961
21
3.1248699606299213
0
LINE
8
BLACK
6
CONTINUOUS
10
1.2004107480314961
20
3.1248699606299213
11
1.200787401574803
21
3.1249448818897636
0
LINE
8
BLACK
6
CONTINUOUS
10
1.200787401574803
20
3.1249448818897636
11
1.2992125984251968
21
3.1249448818897636
0
LINE
8
BLACK
6
CONTINUOUS
10
1.2992125984251968
20
3.1249448818897636
11
1.2995892519685039
21
3.1248699606299213
0
LINE
8
BLACK
6
CONTINUOUS
10
1.201771653543307
20
3.1229763779527557
11
1.201771653543307
21
2.9950236220472441
0
LINE
8
BLACK
6
CONTINUOUS
10
1.201771653543307
20
2.9950236220472441
11
1.2982283464566928
21
2.9950236220472441
0
LINE
8
BLACK
6
CONTINUOUS
10
1.2982283464566928
20
2.9950236220472441
11
1.2982283464566928
21
3.1229763779527557
0
LINE
8
BLACK
6
CONTINUOUS
10
1.2982283464566928
20
3.1229763779527557
11
1.201771653543307
21
3.1229763779527557
0
LINE
8
BLACK
6
CONTINUOUS
10
0.8991955511811024
20
3.0757124803149605
11
0.8997282283464567
21
3.0751798031496063
0
LINE
8
BLACK
6
CONTINUOUS
10
0.8997282283464567
20
3.0751798031496063
11
0.8998031496062991
21
3.0748031496062991
0
LINE
8
BLACK
6
CONTINUOUS
10
0.8998031496062991
20
3.0748031496062991
11
0.8998031496062991
21
2.9976377952755904
0
LINE
8
BLACK
6
CONTINUOUS
10
0.8998031496062991
20
2.9976377952755904
11
0.8997282283464567
21
2.9972611417322832
0
LINE
8
BLACK
6
CONTINUOUS
10
0.8997282283464567
20
2.9972611417322832
11
0.8991955511811024
21
2.996728464566929
0
LINE
8
BLACK
6
CONTINUOUS
10
0.8991955511811024
20
2.996728464566929
11
0.8988188976377952
21
2.9966535433070867
0
LINE
8
BLACK
6
CONTINUOUS
10
0.8988188976377952
20
2.9966535433070867
11
0.7507874015748032
21
2.9966535433070867
0
LINE
8
BLACK
6
CONTINUOUS
10
0.7507874015748032
20
2.9966535433070867
11
0.7504107480314961
21
2.996728464566929
0
LINE
8
BLACK
6
CONTINUOUS
10
0.7504107480314961
20
2.996728464566929
11
0.7498780708661417
21
2.9972611417322832
0
LINE
8
BLACK
6
CONTINUOUS
10
0.7498780708661417
20
2.9972611417322832
11
0.7498031496062992
21
2.9976377952755904
0
LINE
8
BLACK
6
CONTINUOUS
10
0.7498031496062992
20
2.9976377952755904
11
0.7498031496062992
21
3.0748031496062991
0
LINE
8
BLACK
6
CONTINUOUS
10
0.7498031496062992
20
3.0748031496062991
11
0.7498780708661417
21
3.0751798031496063
0
LINE
8
BLACK
6
CONTINUOUS
10
0.7498780708661417
20
3.0751798031496063
11
0.7504107480314961
21
3.0757124803149605
0
LINE
8
BLACK
6
CONTINUOUS
10
0.7504107480314961
20
3.0757124803149605
11
0.7507874015748032
21
3.0757874015748032
0
LINE
8
BLACK
6
CONTINUOUS
10
0.7507874015748032
20
3.0757874015748032
11
0.8988188976377952
21
3.0757874015748032
0
LINE
8
BLACK
6
CONTINUOUS
10
0.8988188976377952
20
3.0757874015748032
11
0.8991955511811024
21
3.0757124803149605
0
LINE
8
BLACK
6
CONTINUOUS
10
0.7517716535433071
20
3.0738188976377954
11
0.7517716535433071
21
2.9986220472440945
0
LINE
8
BLACK
6
CONTINUOUS
10
0.7517716535433071
20
2.9986220472440945
11
0.8978346456692913
21
2.9986220472440945
0
LINE
8
BLACK
6
CONTINUOUS
10
0.8978346456692913
20
2.9986220472440945
11
0.8978346456692913
21
3.0738188976377954
0
LINE
8
BLACK
6
CONTINUOUS
10
0.8978346456692913
20
3.0738188976377954
11
0.7517716535433071
21
3.0738188976377954
0
LINE
8
BLACK
6
CONTINUOUS
10
0.6716364960629921
20
3.4268935826771654
11
0.6721691732283465
21
3.4263609055118112
0
LINE
8
BLACK
6
CONTINUOUS
10
0.6721691732283465
20
3.4263609055118112
11
0.672244094488189
21
3.425984251968504
0
LINE
8
BLACK
6
CONTINUOUS
10
0.672244094488189
20
3.425984251968504
11
0.672244094488189
21
3.0716535433070864
0
LINE
8
BLACK
6
CONTINUOUS
10
0.672244094488189
20
3.0716535433070864
11
0.6721691732283465
21
3.0712768897637797
0
LINE
8
BLACK
6
CONTINUOUS
10
0.6721691732283465
20
3.0712768897637797
11
0.6716364960629921
21
3.070744212598425
0
LINE
8
BLACK
6
CONTINUOUS
10
0.6716364960629921
20
3.070744212598425
11
0.6712598425196851
21
3.0706692913385827
0
LINE
8
BLACK
6
CONTINUOUS
10
0.6712598425196851
20
3.0706692913385827
11
0.5334645669291338
21
3.0706692913385827
0
LINE
8
BLACK
6
CONTINUOUS
10
0.5334645669291338
20
3.0706692913385827
11
0.5330879133858267
21
3.070744212598425
0
LINE
8
BLACK
6
CONTINUOUS
10
0.5330879133858267
20
3.070744212598425
11
0.5325552362204724
21
3.0712768897637797
0
LINE
8
BLACK
6
CONTINUOUS
10
0.5325552362204724
20
3.0712768897637797
11
0.5324803149606299
21
3.0716535433070864
0
LINE
8
BLACK
6
CONTINUOUS
10
0.5324803149606299
20
3.0716535433070864
11
0.5324803149606299
21
3.425984251968504
0
LINE
8
BLACK
6
CONTINUOUS
10
0.5324803149606299
20
3.425984251968504
11
0.5325552362204724
21
3.4263609055118112
0
LINE
8
BLACK
6
CONTINUOUS
10
0.5325552362204724
20
3.4263609055118112
11
0.5330879133858267
21
3.4268935826771654
0
LINE
8
BLACK
6
CONTINUOUS
10
0.5330879133858267
20
3.4268935826771654
11
0.5334645669291338
21
3.4269685039370077
0
LINE
8
BLACK
6
CONTINUOUS
10
0.5334645669291338
20
3.4269685039370077
11
0.6712598425196851
21
3.4269685039370077
0
LINE
8
BLACK
6
CONTINUOUS
10
0.6712598425196851
20
3.4269685039370077
11
0.6716364960629921
21
3.4268935826771654
0
LINE
8
BLACK
6
CONTINUOUS
10
0.5344488188976377
20
3.4249999999999998
11
0.5344488188976377
21
3.0726377952755906
0
LINE
8
BLACK
6
CONTINUOUS
10
0.5344488188976377
20
3.0726377952755906
11
0.6702755905511811
21
3.0726377952755906
0
LINE
8
BLACK
6
CONTINUOUS
10
0.6702755905511811
20
3.0726377952755906
11
0.6702755905511811
21
3.4249999999999998
0
LINE
8
BLACK
6
CONTINUOUS
10
0.6702755905511811
20
3.4249999999999998
11
0.5344488188976377
21
3.4249999999999998
0
LINE
8
BLACK
6
CONTINUOUS
10
0.5173057874015748
20
3.2366376771653544
11
0.5178384645669292
21
3.2361049999999998
0
LINE
8
BLACK
6
CONTINUOUS
10
0.5178384645669292
20
3.2361049999999998
11
0.5179133858267716
21
3.235728346456693
0
LINE
8
BLACK
6
CONTINUOUS
10
0.5179133858267716
20
3.235728346456693
11
0.5179133858267716
21
3.0876968503937006
0
LINE
8
BLACK
6
CONTINUOUS
10
0.5179133858267716
20
3.0876968503937006
11
0.5178384645669292
21
3.0873201968503938
0
LINE
8
BLACK
6
CONTINUOUS
10
0.5178384645669292
20
3.0873201968503938
11
0.5173057874015748
21
3.0867875196850392
0
LINE
8
BLACK
6
CONTINUOUS
10
0.5173057874015748
20
3.0867875196850392
11
0.5169291338582677
21
3.0867125984251969
0
LINE
8
BLACK
6
CONTINUOUS
10
0.5169291338582677
20
3.0867125984251969
11
0.439763779527559
21
3.0867125984251969
0
LINE
8
BLACK
6
CONTINUOUS
10
0.439763779527559
20
3.0867125984251969
11
0.4393871259842519
21
3.0867875196850392
0
LINE
8
BLACK
6
CONTINUOUS
10
0.4393871259842519
20
3.0867875196850392
11
0.4388544488188976
21
3.0873201968503938
0
LINE
8
BLACK
6
CONTINUOUS
10
0.4388544488188976
20
3.0873201968503938
11
0.4387795275590551
21
3.0876968503937006
0
LINE
8
BLACK
6
CONTINUOUS
10
0.4387795275590551
20
3.0876968503937006
11
0.4387795275590551
21
3.235728346456693
0
LINE
8
BLACK
6
CONTINUOUS
10
0.4387795275590551
20
3.235728346456693
11
0.4388544488188976
21
3.2361049999999998
0
LINE
8
BLACK
6
CONTINUOUS
10
0.4388544488188976
20
3.2361049999999998
11
0.4393871259842519
21
3.2366376771653544
0
LINE
8
BLACK
6
CONTINUOUS
10
0.4393871259842519
20
3.2366376771653544
11
0.439763779527559
21
3.2367125984251968
0
LINE
8
BLACK
6
CONTINUOUS
10
0.439763779527559
20
3.2367125984251968
11
0.5169291338582677
21
3.2367125984251968
0
LINE
8
BLACK
6
CONTINUOUS
10
0.5169291338582677
20
3.2367125984251968
11
0.5173057874015748
21
3.2366376771653544
0
LINE
8
BLACK
6
CONTINUOUS
10
0.440748031496063
20
3.2347440944881889
11
0.440748031496063
21
3.0886811023622047
0
LINE
8
BLACK
6
CONTINUOUS
10
0.440748031496063
20
3.0886811023622047
11
0.5159448818897637
21
3.0886811023622047
0
LINE
8
BLACK
6
CONTINUOUS
10
0.5159448818897637
20
3.0886811023622047
11
0.5159448818897637
21
3.2347440944881889
0
LINE
8
BLACK
6
CONTINUOUS
10
0.5159448818897637
20
3.2347440944881889
11
0.440748031496063
21
3.2347440944881889
0
LINE
8
BLACK
6
CONTINUOUS
10
1.9289593307086614
20
3.2690786220472439
11
1.9294920078740156
21
3.2685459448818897
0
LINE
8
BLACK
6
CONTINUOUS
10
1.9294920078740156
20
3.2685459448818897
11
1.9295669291338582
21
3.2681692913385825
0
LINE
8
BLACK
6
CONTINUOUS
10
1.9295669291338582
20
3.2681692913385825
11
1.9295669291338582
21
3.1201377952755904
0
LINE
8
BLACK
6
CONTINUOUS
10
1.9295669291338582
20
3.1201377952755904
11
1.9294920078740156
21
3.1197611417322832
0
LINE
8
BLACK
6
CONTINUOUS
10
1.9294920078740156
20
3.1197611417322832
11
1.9289593307086614
21
3.119228464566929
0
LINE
8
BLACK
6
CONTINUOUS
10
1.9289593307086614
20
3.119228464566929
11
1.9285826771653543
21
3.1191535433070867
0
LINE
8
BLACK
6
CONTINUOUS
10
1.9285826771653543
20
3.1191535433070867
11
1.8514173228346456
21
3.1191535433070867
0
LINE
8
BLACK
6
CONTINUOUS
10
1.8514173228346456
20
3.1191535433070867
11
1.8510406692913386
21
3.119228464566929
0
LINE
8
BLACK
6
CONTINUOUS
10
1.8510406692913386
20
3.119228464566929
11
1.8505079921259842
21
3.1197611417322832
0
LINE
8
BLACK
6
CONTINUOUS
10
1.8505079921259842
20
3.1197611417322832
11
1.8504330708661416
21
3.1201377952755904
0
LINE
8
BLACK
6
CONTINUOUS
10
1.8504330708661416
20
3.1201377952755904
11
1.8504330708661416
21
3.2681692913385825
0
LINE
8
BLACK
6
CONTINUOUS
10
1.8504330708661416
20
3.2681692913385825
11
1.8505079921259842
21
3.2685459448818897
0
LINE
8
BLACK
6
CONTINUOUS
10
1.8505079921259842
20
3.2685459448818897
11
1.8510406692913386
21
3.2690786220472439
0
LINE
8
BLACK
6
CONTINUOUS
10
1.8510406692913386
20
3.2690786220472439
11
1.8514173228346456
21
3.2691535433070866
0
LINE
8
BLACK
6
CONTINUOUS
10
1.8514173228346456
20
3.2691535433070866
11
1.9285826771653543
21
3.2691535433070866
0
LINE
8
BLACK
6
CONTINUOUS
10
1.9285826771653543
20
3.2691535433070866
11
1.9289593307086614
21
3.2690786220472439
0
LINE
8
BLACK
6
CONTINUOUS
10
1.8524015748031495
20
3.2671850393700788
11
1.8524015748031495
21
3.1211220472440946
0
LINE
8
BLACK
6
CONTINUOUS
10
1.8524015748031495
20
3.1211220472440946
11
1.9275984251968503
21
3.1211220472440946
0
LINE
8
BLACK
6
CONTINUOUS
10
1.9275984251968503
20
3.1211220472440946
11
1.9275984251968503
21
3.2671850393700788
0
LINE
8
BLACK
6
CONTINUOUS
10
1.9275984251968503
20
3.2671850393700788
11
1.8524015748031495
21
3.2671850393700788
0
LINE
8
BLACK
6
CONTINUOUS
10
1.2692742913385826
20
3.3060274409448818
11
1.269806968503937
21
3.3054947637795276
0
LINE
8
BLACK
6
CONTINUOUS
10
1.269806968503937
20
3.3054947637795276
11
1.2698818897637796
21
3.3051181102362204
0
LINE
8
BLACK
6
CONTINUOUS
10
1.2698818897637796
20
3.3051181102362204
11
1.2698818897637796
21
3.1570866141732283
0
LINE
8
BLACK
6
CONTINUOUS
10
1.2698818897637796
20
3.1570866141732283
11
1.269806968503937
21
3.1567099606299212
0
LINE
8
BLACK
6
CONTINUOUS
10
1.269806968503937
20
3.1567099606299212
11
1.2692742913385826
21
3.1561772834645669
0
LINE
8
BLACK
6
CONTINUOUS
10
1.2692742913385826
20
3.1561772834645669
11
1.2688976377952756
21
3.1561023622047242
0
LINE
8
BLACK
6
CONTINUOUS
10
1.2688976377952756
20
3.1561023622047242
11
1.1917322834645669
21
3.1561023622047242
0
LINE
8
BLACK
6
CONTINUOUS
10
1.1917322834645669
20
3.1561023622047242
11
1.1913556299212598
21
3.1561772834645669
0
LINE
8
BLACK
6
CONTINUOUS
10
1.1913556299212598
20
3.1561772834645669
11
1.1908229527559056
21
3.1567099606299212
0
LINE
8
BLACK
6
CONTINUOUS
10
1.1908229527559056
20
3.1567099606299212
11
1.190748031496063
21
3.1570866141732283
0
LINE
8
BLACK
6
CONTINUOUS
10
1.190748031496063
20
3.1570866141732283
11
1.190748031496063
21
3.3051181102362204
0
LINE
8
BLACK
6
CONTINUOUS
10
1.190748031496063
20
3.3051181102362204
11
1.1908229527559056
21
3.3054947637795276
0
LINE
8
BLACK
6
CONTINUOUS
10
1.1908229527559056
20
3.3054947637795276
11
1.1913556299212598
21
3.3060274409448818
0
LINE
8
BLACK
6
CONTINUOUS
10
1.1913556299212598
20
3.3060274409448818
11
1.1917322834645669
21
3.3061023622047245
0
LINE
8
BLACK
6
CONTINUOUS
10
1.1917322834645669
20
3.3061023622047245
11
1.2688976377952756
21
3.3061023622047245
0
LINE
8
BLACK
6
CONTINUOUS
10
1.2688976377952756
20
3.3061023622047245
11
1.2692742913385826
21
3.3060274409448818
0
LINE
8
BLACK
6
CONTINUOUS
10
1.1927165354330709
20
3.3041338582677167
11
1.1927165354330709
21
3.158070866141732
0
LINE
8
BLACK
6
CONTINUOUS
10
1.1927165354330709
20
3.158070866141732
11
1.2679133858267717
21
3.158070866141732
0
LINE
8
BLACK
6
CONTINUOUS
10
1.2679133858267717
20
3.158070866141732
11
1.2679133858267717
21
3.3041338582677167
0
LINE
8
BLACK
6
CONTINUOUS
10
1.2679133858267717
20
3.3041338582677167
11
1.1927165354330709
21
3.3041338582677167
0
LINE
8
BLACK
6
CONTINUOUS
10
1.173605
20
3.3816179921259844
11
1.1741376771653542
21
3.3810853149606297
0
LINE
8
BLACK
6
CONTINUOUS
10
1.1741376771653542
20
3.3810853149606297
11
1.1742125984251968
21
3.380708661417323
0
LINE
8
BLACK
6
CONTINUOUS
10
1.1742125984251968
20
3.380708661417323
11
1.1742125984251968
21
3.2468503937007873
0
LINE
8
BLACK
6
CONTINUOUS
10
1.1742125984251968
20
3.2468503937007873
11
1.1741376771653542
21
3.2464737401574801
0
LINE
8
BLACK
6
CONTINUOUS
10
1.1741376771653542
20
3.2464737401574801
11
1.173605
21
3.2459410629921259
0
LINE
8
BLACK
6
CONTINUOUS
10
1.173605
20
3.2459410629921259
11
1.1732283464566928
21
3.2458661417322836
0
LINE
8
BLACK
6
CONTINUOUS
10
1.1732283464566928
20
3.2458661417322836
11
1.0118110236220472
21
3.2458661417322836
0
LINE
8
BLACK
6
CONTINUOUS
10
1.0118110236220472
20
3.2458661417322836
11
1.01143437007874
21
3.2459410629921259
0
LINE
8
BLACK
6
CONTINUOUS
10
1.01143437007874
20
3.2459410629921259
11
1.0109016929133858
21
3.2464737401574801
0
LINE
8
BLACK
6
CONTINUOUS
10
1.0109016929133858
20
3.2464737401574801
11
1.0108267716535433
21
3.2468503937007873
0
LINE
8
BLACK
6
CONTINUOUS
10
1.0108267716535433
20
3.2468503937007873
11
1.0108267716535433
21
3.380708661417323
0
LINE
8
BLACK
6
CONTINUOUS
10
1.0108267716535433
20
3.380708661417323
11
1.0109016929133858
21
3.3810853149606297
0
LINE
8
BLACK
6
CONTINUOUS
10
1.0109016929133858
20
3.3810853149606297
11
1.01143437007874
21
3.3816179921259844
0
LINE
8
BLACK
6
CONTINUOUS
10
1.01143437007874
20
3.3816179921259844
11
1.0118110236220472
21
3.3816929133858267
0
LINE
8
BLACK
6
CONTINUOUS
10
1.0118110236220472
20
3.3816929133858267
11
1.1732283464566928
21
3.3816929133858267
0
LINE
8
BLACK
6
CONTINUOUS
10
1.1732283464566928
20
3.3816929133858267
11
1.173605
21
3.3816179921259844
0
LINE
8
BLACK
6
CONTINUOUS
10
1.0127952755905512
20
3.3797244094488188
11
1.0127952755905512
21
3.2478346456692915
0
LINE
8
BLACK
6
CONTINUOUS
10
1.0127952755905512
20
3.2478346456692915
11
1.1722440944881889
21
3.2478346456692915
0
LINE
8
BLACK
6
CONTINUOUS
10
1.1722440944881889
20
3.2478346456692915
11
1.1722440944881889
21
3.3797244094488188
0
LINE
8
BLACK
6
CONTINUOUS
10
1.1722440944881889
20
3.3797244094488188
11
1.0127952755905512
21
3.3797244094488188
0
LINE
8
BLACK
6
CONTINUOUS
10
1.6202585433070866
20
3.641854212598425
11
1.6207912204724408
21
3.6413215354330708
0
LINE
8
BLACK
6
CONTINUOUS
10
1.6207912204724408
20
3.6413215354330708
11
1.6208661417322834
21
3.6409448818897636
0
LINE
8
BLACK
6
CONTINUOUS
10
1.6208661417322834
20
3.6409448818897636
11
1.6208661417322834
21
3.3185039370078742
0
LINE
8
BLACK
6
CONTINUOUS
10
1.6208661417322834
20
3.3185039370078742
11
1.6207912204724408
21
3.318127283464567
0
LINE
8
BLACK
6
CONTINUOUS
10
1.6207912204724408
20
3.318127283464567
11
1.6202585433070866
21
3.3175946062992123
0
LINE
8
BLACK
6
CONTINUOUS
10
1.6202585433070866
20
3.3175946062992123
11
1.6198818897637794
21
3.31751968503937
0
LINE
8
BLACK
6
CONTINUOUS
10
1.6198818897637794
20
3.31751968503937
11
1.2305118110236219
21
3.31751968503937
0
LINE
8
BLACK
6
CONTINUOUS
10
1.2305118110236219
20
3.31751968503937
11
1.230135157480315
21
3.3175946062992123
0
LINE
8
BLACK
6
CONTINUOUS
10
1.230135157480315
20
3.3175946062992123
11
1.2296024803149606
21
3.318127283464567
0
LINE
8
BLACK
6
CONTINUOUS
10
1.2296024803149606
20
3.318127283464567
11
1.229527559055118
21
3.3185039370078742
0
LINE
8
BLACK
6
CONTINUOUS
10
1.229527559055118
20
3.3185039370078742
11
1.229527559055118
21
3.6409448818897636
0
LINE
8
BLACK
6
CONTINUOUS
10
1.229527559055118
20
3.6409448818897636
11
1.2296024803149606
21
3.6413215354330708
0
LINE
8
BLACK
6
CONTINUOUS
10
1.2296024803149606
20
3.6413215354330708
11
1.230135157480315
21
3.641854212598425
0
LINE
8
BLACK
6
CONTINUOUS
10
1.230135157480315
20
3.641854212598425
11
1.2305118110236219
21
3.6419291338582678
0
LINE
8
BLACK
6
CONTINUOUS
10
1.2305118110236219
20
3.6419291338582678
11
1.6198818897637794
21
3.6419291338582678
0
LINE
8
BLACK
6
CONTINUOUS
10
1.6198818897637794
20
3.6419291338582678
11
1.6202585433070866
21
3.641854212598425
0
LINE
8
BLACK
6
CONTINUOUS
10
1.2314960629921259
20
3.6399606299212599
11
1.2314960629921259
21
3.3194881889763779
0
LINE
8
BLACK
6
CONTINUOUS
10
1.2314960629921259
20
3.3194881889763779
11
1.6188976377952755
21
3.3194881889763779
0
LINE
8
BLACK
6
CONTINUOUS
10
1.6188976377952755
20
3.3194881889763779
11
1.6188976377952755
21
3.6399606299212599
0
LINE
8
BLACK
6
CONTINUOUS
10
1.6188976377952755
20
3.6399606299212599
11
1.2314960629921259
21
3.6399606299212599
0
LINE
8
BLACK
6
CONTINUOUS
10
0.7984081496062992
20
3.5863424015748029
11
0.7989408267716536
21
3.5858097244094487
0
LINE
8
BLACK
6
CONTINUOUS
10
0.7989408267716536
20
3.5858097244094487
11
0.799015748031496
21
3.5854330708661415
0
LINE
8
BLACK
6
CONTINUOUS
10
0.799015748031496
20
3.5854330708661415
11
0.799015748031496
21
3.4318897637795276
0
LINE
8
BLACK
6
CONTINUOUS
10
0.799015748031496
20
3.4318897637795276
11
0.7989408267716536
21
3.4315131102362204
0
LINE
8
BLACK
6
CONTINUOUS
10
0.7989408267716536
20
3.4315131102362204
11
0.7984081496062992
21
3.4309804330708662
0
LINE
8
BLACK
6
CONTINUOUS
10
0.7984081496062992
20
3.4309804330708662
11
0.7980314960629921
21
3.4309055118110234
0
LINE
8
BLACK
6
CONTINUOUS
10
0.7980314960629921
20
3.4309055118110234
11
0.5523622047244094
21
3.4309055118110234
0
LINE
8
BLACK
6
CONTINUOUS
10
0.5523622047244094
20
3.4309055118110234
11
0.5519855511811024
21
3.4309804330708662
0
LINE
8
BLACK
6
CONTINUOUS
10
0.5519855511811024
20
3.4309804330708662
11
0.5514528740157481
21
3.4315131102362204
0
LINE
8
BLACK
6
CONTINUOUS
10
0.5514528740157481
20
3.4315131102362204
11
0.5513779527559055
21
3.4318897637795276
0
LINE
8
BLACK
6
CONTINUOUS
10
0.5513779527559055
20
3.4318897637795276
11
0.5513779527559055
21
3.5854330708661415
0
LINE
8
BLACK
6
CONTINUOUS
10
0.5513779527559055
20
3.5854330708661415
11
0.5514528740157481
21
3.5858097244094487
0
LINE
8
BLACK
6
CONTINUOUS
10
0.5514528740157481
20
3.5858097244094487
11
0.5519855511811024
21
3.5863424015748029
0
LINE
8
BLACK
6
CONTINUOUS
10
0.5519855511811024
20
3.5863424015748029
11
0.5523622047244094
21
3.5864173228346456
0
LINE
8
BLACK
6
CONTINUOUS
10
0.5523622047244094
20
3.5864173228346456
11
0.7980314960629921
21
3.5864173228346456
0
LINE
8
BLACK
6
CONTINUOUS
10
0.7980314960629921
20
3.5864173228346456
11
0.7984081496062992
21
3.5863424015748029
0
LINE
8
BLACK
6
CONTINUOUS
10
0.5533464566929134
20
3.5844488188976378
11
0.5533464566929134
21
3.4328740157480313
0
LINE
8
BLACK
6
CONTINUOUS
10
0.5533464566929134
20
3.4328740157480313
11
0.7970472440944881
21
3.4328740157480313
0
LINE
8
BLACK
6
CONTINUOUS
10
0.7970472440944881
20
3.4328740157480313
11
0.7970472440944881
21
3.5844488188976378
0
LINE
8
BLACK
6
CONTINUOUS
10
0.7970472440944881
20
3.5844488188976378
11
0.5533464566929134
21
3.5844488188976378
0
LINE
8
BLACK
6
CONTINUOUS
10
1.1637624803149607
20
3.5784683858267714
11
1.1642951574803149
21
3.5779357086614172
0
LINE
8
BLACK
6
CONTINUOUS
10
1.1642951574803149
20
3.5779357086614172
11
1.1643700787401574
21
3.57755905511811
0
LINE
8
BLACK
6
CONTINUOUS
10
1.1643700787401574
20
3.57755905511811
11
1.1643700787401574
21
3.4397637795275591
0
LINE
8
BLACK
6
CONTINUOUS
10
1.1643700787401574
20
3.4397637795275591
11
1.1642951574803149
21
3.4393871259842519
0
LINE
8
BLACK
6
CONTINUOUS
10
1.1642951574803149
20
3.4393871259842519
11
1.1637624803149607
21
3.4388544488188977
0
LINE
8
BLACK
6
CONTINUOUS
10
1.1637624803149607
20
3.4388544488188977
11
1.1633858267716535
21
3.4387795275590549
0
LINE
8
BLACK
6
CONTINUOUS
10
1.1633858267716535
20
3.4387795275590549
11
0.8090551181102362
21
3.4387795275590549
0
LINE
8
BLACK
6
CONTINUOUS
10
0.8090551181102362
20
3.4387795275590549
11
0.8086784645669292
21
3.4388544488188977
0
LINE
8
BLACK
6
CONTINUOUS
10
0.8086784645669292
20
3.4388544488188977
11
0.8081457874015748
21
3.4393871259842519
0
LINE
8
BLACK
6
CONTINUOUS
10
0.8081457874015748
20
3.4393871259842519
11
0.8080708661417323
21
3.4397637795275591
0
LINE
8
BLACK
6
CONTINUOUS
10
0.8080708661417323
20
3.4397637795275591
11
0.8080708661417323
21
3.57755905511811
0
LINE
8
BLACK
6
CONTINUOUS
10
0.8080708661417323
20
3.57755905511811
11
0.8081457874015748
21
3.5779357086614172
0
LINE
8
BLACK
6
CONTINUOUS
10
0.8081457874015748
20
3.5779357086614172
11
0.8086784645669292
21
3.5784683858267714
0
LINE
8
BLACK
6
CONTINUOUS
10
0.8086784645669292
20
3.5784683858267714
11
0.8090551181102362
21
3.5785433070866142
0
LINE
8
BLACK
6
CONTINUOUS
10
0.8090551181102362
20
3.5785433070866142
11
1.1633858267716535
21
3.5785433070866142
0
LINE
8
BLACK
6
CONTINUOUS
10
1.1633858267716535
20
3.5785433070866142
11
1.1637624803149607
21
3.5784683858267714
0
LINE
8
BLACK
6
CONTINUOUS
10
0.8100393700787402
20
3.5765748031496063
11
0.8100393700787402
21
3.4407480314960628
0
LINE
8
BLACK
6
CONTINUOUS
10
0.8100393700787402
20
3.4407480314960628
11
1.1624015748031495
21
3.4407480314960628
0
LINE
8
BLACK
6
CONTINUOUS
10
1.1624015748031495
20
3.4407480314960628
11
1.1624015748031495
21
3.5765748031496063
0
LINE
8
BLACK
6
CONTINUOUS
10
1.1624015748031495
20
3.5765748031496063
11
0.8100393700787402
21
3.5765748031496063
0
CIRCLE
8
BLACK
10
0.25
20
2.7999999999999998
40
0.0068897637795276
0
CIRCLE
8
BLACK
10
0.25
20
2.8999999999999999
40
0.0068897637795276
0
CIRCLE
8
BLACK
10
0.35
20
2.7999999999999998
40
0.0068897637795276
0
CIRCLE
8
BLACK
10
0.35
20
2.8999999999999999
40
0.0068897637795276
0
CIRCLE
8
BLACK
10
0.45
20
2.7999999999999998
40
0.0068897637795276
0
CIRCLE
8
BLACK
10
0.45
20
2.8999999999999999
40
0.0068897637795276
0
CIRCLE
8
BLACK
10
0.5499999999999999
20
2.7999999999999998
40
0.0068897637795276
0
CIRCLE
8
BLACK
10
0.5499999999999999
20
2.8999999999999999
40
0.0068897637795276
0
CIRCLE
8
BLACK
10
0.65
20
2.7999999999999998
40
0.0068897637795276
0
CIRCLE
8
BLACK
10
0.65
20
2.8999999999999999
40
0.0068897637795276
0
CIRCLE
8
BLACK
10
0.75
20
2.7999999999999998
40
0.0068897637795276
0
CIRCLE
8
BLACK
10
0.75
20
2.8999999999999999
40
0.0068897637795276
0
CIRCLE
8
BLACK
10
0.85
20
2.7999999999999998
40
0.0068897637795276
0
CIRCLE
8
BLACK
10
0.85
20
2.8999999999999999
40
0.0068897637795276
0
CIRCLE
8
BLACK
10
0.95
20
2.7999999999999998
40
0.0068897637795276
0
CIRCLE
8
BLACK
10
0.95
20
2.8999999999999999
40
0.0068897637795276
0
CIRCLE
8
BLACK
10
1.05
20
2.7999999999999998
40
0.0068897637795276
0
CIRCLE
8
BLACK
10
1.05
20
2.8999999999999999
40
0.0068897637795276
0
CIRCLE
8
BLACK
10
1.1499999999999999
20
2.7999999999999998
40
0.0068897637795276
0
CIRCLE
8
BLACK
10
1.1499999999999999
20
2.8999999999999999
40
0.0068897637795276
0
CIRCLE
8
BLACK
10
1.25
20
2.7999999999999998
40
0.0068897637795276
0
CIRCLE
8
BLACK
10
1.25
20
2.8999999999999999
40
0.0068897637795276
0
CIRCLE
8
BLACK
10
1.3499999999999999
20
2.7999999999999998
40
0.0068897637795276
0
CIRCLE
8
BLACK
10
1.3499999999999999
20
2.8999999999999999
40
0.0068897637795276
0
CIRCLE
8
BLACK
10
1.45
20
2.7999999999999998
40
0.0068897637795276
0
CIRCLE
8
BLACK
10
1.45
20
2.8999999999999999
40
0.0068897637795276
0
CIRCLE
8
BLACK
10
1.55
20
2.7999999999999998
40
0.0068897637795276
0
CIRCLE
8
BLACK
10
1.55
20
2.8999999999999999
40
0.0068897637795276
0
CIRCLE
8
BLACK
10
1.6499999999999999
20
2.7999999999999998
40
0.0068897637795276
0
CIRCLE
8
BLACK
10
1.6499999999999999
20
2.8999999999999999
40
0.0068897637795276
0
CIRCLE
8
BLACK
10
1.75
20
2.7999999999999998
40
0.0068897637795276
0
CIRCLE
8
BLACK
10
1.75
20
2.8999999999999999
40
0.0068897637795276
0
CIRCLE
8
BLACK
10
0.8618110236220472
20
3.1413385826771654
40
0.0068897637795276
0
CIRCLE
8
BLACK
10
0.7618110236220472
20
3.1413385826771654
40
0.0068897637795276
0
CIRCLE
8
BLACK
10
0.8618110236220472
20
3.2413385826771655
40
0.0068897637795276
0
CIRCLE
8
BLACK
10
0.7618110236220472
20
3.2413385826771655
40
0.0068897637795276
0
CIRCLE
8
BLACK
10
0.8618110236220472
20
3.3413385826771651
40
0.0068897637795276
0
CIRCLE
8
BLACK
10
0.7618110236220472
20
3.3413385826771651
40
0.0068897637795276
0
CIRCLE
8
BLACK
10
1.0275590551181102
20
3.1887795275590549
40
0.0068897637795276
0
CIRCLE
8
BLACK
10
1.0275590551181102
20
3.0887795275590548
40
0.0068897637795276
0
CIRCLE
8
BLACK
10
0.2
20
0.2
40
0.0068897637795276
0
CIRCLE
8
BLACK
10
1.8499999999999999
20
0.4
40
0.0068897637795276
0
CIRCLE
8
BLACK
10
1.75
20
0.4
40
0.0068897637795276
0
CIRCLE
8
BLACK
10
0.2
20
3.3999999999999999
40
0.0068897637795276
0
CIRCLE
8
BLACK
10
1.8
20
3.3999999999999999
40
0.0068897637795276
0
CIRCLE
8
BLACK
10
1.2921259842519686
20
1.0700000000000001
40
0.0068897637795276
0
CIRCLE
8
BLACK
10
1.0999999999999999
20
1.0700000000000001
40
0.0068897637795276
0
CIRCLE
8
BLACK
10
1.05
20
0.1
40
0.0068897637795276
0
CIRCLE
8
BLACK
10
1.1499999999999999
20
0.1
40
0.0068897637795276
0
CIRCLE
8
BLACK
10
1.25
20
0.1
40
0.0068897637795276
0
CIRCLE
8
BLACK
10
1.3499999999999999
20
0.1
40
0.0068897637795276
0
CIRCLE
8
BLACK
10
1.45
20
0.1
40
0.0068897637795276
0
CIRCLE
8
BLACK
10
1.55
20
0.1
40
0.0068897637795276
0
CIRCLE
8
BLACK
10
0.4074803149606299
20
3.4446850393700785
40
0.0068897637795276
0
CIRCLE
8
BLACK
10
0.4074803149606299
20
3.3446850393700789
40
0.0068897637795276
0
CIRCLE
8
BLACK
10
0.25
20
0.95
40
0.0068897637795276
0
CIRCLE
8
BLACK
10
0.15
20
0.95
40
0.0068897637795276
0
CIRCLE
8
BLACK
10
0.25
20
1.05
40
0.0068897637795276
0
CIRCLE
8
BLACK
10
0.15
20
1.05
40
0.0068897637795276
0
CIRCLE
8
BLACK
10
0.25
20
1.1499999999999999
40
0.0068897637795276
0
CIRCLE
8
BLACK
10
0.15
20
1.1499999999999999
40
0.0068897637795276
0
CIRCLE
8
BLACK
10
0.25
20
1.25
40
0.0068897637795276
0
CIRCLE
8
BLACK
10
0.15
20
1.25
40
0.0068897637795276
0
CIRCLE
8
BLACK
10
0.25
20
1.3499999999999999
40
0.0068897637795276
0
CIRCLE
8
BLACK
10
0.15
20
1.3499999999999999
40
0.0068897637795276
0
CIRCLE
8
BLACK
10
0.25
20
1.45
40
0.0068897637795276
0
CIRCLE
8
BLACK
10
0.15
20
1.45
40
0.0068897637795276
0
CIRCLE
8
BLACK
10
0.25
20
1.55
40
0.0068897637795276
0
CIRCLE
8
BLACK
10
0.15
20
1.55
40
0.0068897637795276
0
CIRCLE
8
BLACK
10
0.25
20
1.6499999999999999
40
0.0068897637795276
0
CIRCLE
8
BLACK
10
0.15
20
1.6499999999999999
40
0.0068897637795276
0
CIRCLE
8
BLACK
10
0.25
20
1.75
40
0.0068897637795276
0
CIRCLE
8
BLACK
10
0.15
20
1.75
40
0.0068897637795276
0
CIRCLE
8
BLACK
10
0.25
20
1.8499999999999999
40
0.0068897637795276
0
CIRCLE
8
BLACK
10
0.15
20
1.8499999999999999
40
0.0068897637795276
0
CIRCLE
8
BLACK
10
0.25
20
1.95
40
0.0068897637795276
0
CIRCLE
8
BLACK
10
0.15
20
1.95
40
0.0068897637795276
0
CIRCLE
8
BLACK
10
0.25
20
2.0499999999999998
40
0.0068897637795276
0
CIRCLE
8
BLACK
10
0.15
20
2.0499999999999998
40
0.0068897637795276
0
CIRCLE
8
BLACK
10
0.25
20
2.1499999999999999
40
0.0068897637795276
0
CIRCLE
8
BLACK
10
0.15
20
2.1499999999999999
40
0.0068897637795276
0
CIRCLE
8
BLACK
10
0.25
20
2.25
40
0.0068897637795276
0
CIRCLE
8
BLACK
10
0.15
20
2.25
40
0.0068897637795276
0
CIRCLE
8
BLACK
10
0.25
20
2.3500000000000001
40
0.0068897637795276
0
CIRCLE
8
BLACK
10
0.15
20
2.3500000000000001
40
0.0068897637795276
0
CIRCLE
8
BLACK
10
0.25
20
2.4499999999999997
40
0.0068897637795276
0
CIRCLE
8
BLACK
10
0.15
20
2.4499999999999997
40
0.0068897637795276
0
CIRCLE
8
BLACK
10
1.8
20
0.2
40
0.0068897637795276
0
CIRCLE
8
BLACK
10
1.7498031496062991
20
2.4499999999999997
40
0.0068897637795276
0
CIRCLE
8
BLACK
10
1.8498031496062992
20
2.4499999999999997
40
0.0068897637795276
0
CIRCLE
8
BLACK
10
1.7498031496062991
20
2.3500000000000001
40
0.0068897637795276
0
CIRCLE
8
BLACK
10
1.8498031496062992
20
2.3500000000000001
40
0.0068897637795276
0
CIRCLE
8
BLACK
10
1.7498031496062991
20
2.25
40
0.0068897637795276
0
CIRCLE
8
BLACK
10
1.8498031496062992
20
2.25
40
0.0068897637795276
0
CIRCLE
8
BLACK
10
1.7498031496062991
20
2.1499999999999999
40
0.0068897637795276
0
CIRCLE
8
BLACK
10
1.8498031496062992
20
2.1499999999999999
40
0.0068897637795276
0
CIRCLE
8
BLACK
10
1.7498031496062991
20
2.0499999999999998
40
0.0068897637795276
0
CIRCLE
8
BLACK
10
1.8498031496062992
20
2.0499999999999998
40
0.0068897637795276
0
CIRCLE
8
BLACK
10
1.7498031496062991
20
1.95
40
0.0068897637795276
0
CIRCLE
8
BLACK
10
1.8498031496062992
20
1.95
40
0.0068897637795276
0
CIRCLE
8
BLACK
10
1.7498031496062991
20
1.8499999999999999
40
0.0068897637795276
0
CIRCLE
8
BLACK
10
1.8498031496062992
20
1.8499999999999999
40
0.0068897637795276
0
CIRCLE
8
BLACK
10
1.7498031496062991
20
1.75
40
0.0068897637795276
0
CIRCLE
8
BLACK
10
1.8498031496062992
20
1.75
40
0.0068897637795276
0
CIRCLE
8
BLACK
10
1.7498031496062991
20
1.6499999999999999
40
0.0068897637795276
0
CIRCLE
8
BLACK
10
1.8498031496062992
20
1.6499999999999999
40
0.0068897637795276
0
CIRCLE
8
BLACK
10
1.7498031496062991
20
1.55
40
0.0068897637795276
0
CIRCLE
8
BLACK
10
1.8498031496062992
20
1.55
40
0.0068897637795276
0
CIRCLE
8
BLACK
10
1.7498031496062991
20
1.45
40
0.0068897637795276
0
CIRCLE
8
BLACK
10
1.8498031496062992
20
1.45
40
0.0068897637795276
0
CIRCLE
8
BLACK
10
1.7498031496062991
20
1.3499999999999999
40
0.0068897637795276
0
CIRCLE
8
BLACK
10
1.8498031496062992
20
1.3499999999999999
40
0.0068897637795276
0
CIRCLE
8
BLACK
10
1.7498031496062991
20
1.25
40
0.0068897637795276
0
CIRCLE
8
BLACK
10
1.8498031496062992
20
1.25
40
0.0068897637795276
0
CIRCLE
8
BLACK
10
1.7498031496062991
20
1.1499999999999999
40
0.0068897637795276
0
CIRCLE
8
BLACK
10
1.8498031496062992
20
1.1499999999999999
40
0.0068897637795276
0
CIRCLE
8
BLACK
10
1.7498031496062991
20
1.05
40
0.0068897637795276
0
CIRCLE
8
BLACK
10
1.8498031496062992
20
1.05
40
0.0068897637795276
0
CIRCLE
8
BLACK
10
1.7498031496062991
20
0.95
40
0.0068897637795276
0
CIRCLE
8
BLACK
10
1.8498031496062992
20
0.95
40
0.0068897637795276
0
CIRCLE
8
BLACK
10
1.2027559055118109
20
1.3400000000000001
40
0.0068897637795276
0
CIRCLE
8
BLACK
10
1.2027559055118109
20
1.24
40
0.0068897637795276
0
CIRCLE
8
BLACK
10
1.75
20
0.65
40
0.0068897637795276
0
CIRCLE
8
BLACK
10
1.75
20
0.5499999999999999
40
0.0068897637795276
0
CIRCLE
8
BLACK
10
1.6499999999999999
20
0.65
40
0.0068897637795276
0
CIRCLE
8
BLACK
10
1.6499999999999999
20
0.5499999999999999
40
0.0068897637795276
0
CIRCLE
8
BLACK
10
1.55
20
0.65
40
0.0068897637795276
0
CIRCLE
8
BLACK
10
1.55
20
0.5499999999999999
40
0.0068897637795276
0
CIRCLE
8
BLACK
10
1.45
20
0.65
40
0.0068897637795276
0
CIRCLE
8
BLACK
10
1.45
20
0.5499999999999999
40
0.0068897637795276
0
CIRCLE
8
BLACK
10
1.3499999999999999
20
0.65
40
0.0068897637795276
0
CIRCLE
8
BLACK
10
1.3499999999999999
20
0.5499999999999999
40
0.0068897637795276
0
CIRCLE
8
BLACK
10
1.25
20
0.65
40
0.0068897637795276
0
CIRCLE
8
BLACK
10
1.25
20
0.5499999999999999
40
0.0068897637795276
0
CIRCLE
8
BLACK
10
1.1499999999999999
20
0.65
40
0.0068897637795276
0
CIRCLE
8
BLACK
10
1.1499999999999999
20
0.5499999999999999
40
0.0068897637795276
0
CIRCLE
8
BLACK
10
1.05
20
0.65
40
0.0068897637795276
0
CIRCLE
8
BLACK
10
1.05
20
0.5499999999999999
40
0.0068897637795276
0
CIRCLE
8
BLACK
10
0.95
20
0.65
40
0.0068897637795276
0
CIRCLE
8
BLACK
10
0.95
20
0.5499999999999999
40
0.0068897637795276
0
CIRCLE
8
BLACK
10
0.85
20
0.65
40
0.0068897637795276
0
CIRCLE
8
BLACK
10
0.85
20
0.5499999999999999
40
0.0068897637795276
0
CIRCLE
8
BLACK
10
0.75
20
0.65
40
0.0068897637795276
0
CIRCLE
8
BLACK
10
0.75
20
0.5499999999999999
40
0.0068897637795276
0
CIRCLE
8
BLACK
10
0.65
20
0.65
40
0.0068897637795276
0
CIRCLE
8
BLACK
10
0.65
20
0.5499999999999999
40
0.0068897637795276
0
CIRCLE
8
BLACK
10
0.5499999999999999
20
0.65
40
0.0068897637795276
0
CIRCLE
8
BLACK
10
0.5499999999999999
20
0.5499999999999999
40
0.0068897637795276
0
CIRCLE
8
BLACK
10
0.45
20
0.65
40
0.0068897637795276
0
CIRCLE
8
BLACK
10
0.45
20
0.5499999999999999
40
0.0068897637795276
0
CIRCLE
8
BLACK
10
0.35
20
0.65
40
0.0068897637795276
0
CIRCLE
8
BLACK
10
0.35
20
0.5499999999999999
40
0.0068897637795276
0
CIRCLE
8
BLACK
10
0.25
20
0.65
40
0.0068897637795276
0
CIRCLE
8
BLACK
10
0.25
20
0.5499999999999999
40
0.0068897637795276
0
CIRCLE
8
BLACK
10
0.7114173228346456
20
0.0720472440944882
40
0.0068897637795276
0
CIRCLE
8
BLACK
10
0.7114173228346456
20
0.3279527559055118
40
0.0068897637795276
0
CIRCLE
8
BLACK
10
0.8885826771653543
20
0.0720472440944882
40
0.0068897637795276
0
CIRCLE
8
BLACK
10
0.8885826771653543
20
0.3279527559055118
40
0.0068897637795276
0
CIRCLE
8
BLACK
10
0.4114173228346457
20
0.0720472440944882
40
0.0068897637795276
0
CIRCLE
8
BLACK
10
0.4114173228346457
20
0.3279527559055118
40
0.0068897637795276
0
CIRCLE
8
BLACK
10
0.5885826771653543
20
0.0720472440944882
40
0.0068897637795276
0
CIRCLE
8
BLACK
10
0.5885826771653543
20
0.3279527559055118
40
0.0068897637795276
0
CIRCLE
8
BLACK
10
1.3265748031496063
20
3.4185039370078738
40
0.0068897637795276
0
CIRCLE
8
BLACK
10
1.5234251968503936
20
3.4185039370078738
40
0.0068897637795276
0
LINE
8
BLACK
6
CONTINUOUS
10
1.2830596850393701
20
3.5118641732283464
11
1.2814430708661417
21
3.5079613385826769
0
LINE
8
BLACK
6
CONTINUOUS
10
1.2814430708661417
20
3.5079613385826769
11
1.2784559842519685
21
3.5049742519685037
0
LINE
8
BLACK
6
CONTINUOUS
10
1.2784559842519685
20
3.5049742519685037
11
1.2745531496062992
21
3.5033576377952755
0
LINE
8
BLACK
6
CONTINUOUS
10
1.2745531496062992
20
3.5033576377952755
11
1.2703287401574803
21
3.5033576377952755
0
LINE
8
BLACK
6
CONTINUOUS
10
1.2703287401574803
20
3.5033576377952755
11
1.266425905511811
21
3.5049742519685037
0
LINE
8
BLACK
6
CONTINUOUS
10
1.266425905511811
20
3.5049742519685037
11
1.2634388188976378
21
3.5079613385826769
0
LINE
8
BLACK
6
CONTINUOUS
10
1.2634388188976378
20
3.5079613385826769
11
1.2618222047244094
21
3.5118641732283464
0
LINE
8
BLACK
6
CONTINUOUS
10
1.2618222047244094
20
3.5118641732283464
11
1.2616141732283463
21
3.5139763779527557
0
LINE
8
BLACK
6
CONTINUOUS
10
1.2616141732283463
20
3.5139763779527557
11
1.2616141732283463
21
3.5395669291338581
0
LINE
8
BLACK
6
CONTINUOUS
10
1.2616141732283463
20
3.5395669291338581
11
1.2618222047244094
21
3.5416791338582678
0
LINE
8
BLACK
6
CONTINUOUS
10
1.2618222047244094
20
3.5416791338582678
11
1.2634388188976378
21
3.5455819685039369
0
LINE
8
BLACK
6
CONTINUOUS
10
1.2634388188976378
20
3.5455819685039369
11
1.266425905511811
21
3.5485690551181102
0
LINE
8
BLACK
6
CONTINUOUS
10
1.266425905511811
20
3.5485690551181102
11
1.2703287401574803
21
3.5501856692913387
0
LINE
8
BLACK
6
CONTINUOUS
10
1.2703287401574803
20
3.5501856692913387
11
1.2745531496062992
21
3.5501856692913387
0
LINE
8
BLACK
6
CONTINUOUS
10
1.2745531496062992
20
3.5501856692913387
11
1.2784559842519685
21
3.5485690551181102
0
LINE
8
BLACK
6
CONTINUOUS
10
1.2784559842519685
20
3.5485690551181102
11
1.2814430708661417
21
3.5455819685039369
0
LINE
8
BLACK
6
CONTINUOUS
10
1.2814430708661417
20
3.5455819685039369
11
1.2830596850393701
21
3.5416791338582678
0
LINE
8
BLACK
6
CONTINUOUS
10
1.2830596850393701
20
3.5416791338582678
11
1.2832677165354331
21
3.5395669291338581
0
LINE
8
BLACK
6
CONTINUOUS
10
1.2832677165354331
20
3.5395669291338581
11
1.2832677165354331
21
3.5139763779527557
0
LINE
8
BLACK
6
CONTINUOUS
10
1.2832677165354331
20
3.5139763779527557
11
1.2830596850393701
21
3.5118641732283464
0
LINE
8
BLACK
6
CONTINUOUS
10
1.294935590551181
20
3.3641545669291339
11
1.2938050787401574
21
3.359935433070866
0
LINE
8
BLACK
6
CONTINUOUS
10
1.2938050787401574
20
3.359935433070866
11
1.2916210629921259
21
3.3561525984251968
0
LINE
8
BLACK
6
CONTINUOUS
10
1.2916210629921259
20
3.3561525984251968
11
1.288532440944882
21
3.3530639763779528
0
LINE
8
BLACK
6
CONTINUOUS
10
1.288532440944882
20
3.3530639763779528
11
1.2847496062992125
21
3.3508799606299213
0
LINE
8
BLACK
6
CONTINUOUS
10
1.2847496062992125
20
3.3508799606299213
11
1.2805304724409448
21
3.3497494488188977
0
LINE
8
BLACK
6
CONTINUOUS
10
1.2805304724409448
20
3.3497494488188977
11
1.276162440944882
21
3.3497494488188977
0
LINE
8
BLACK
6
CONTINUOUS
10
1.276162440944882
20
3.3497494488188977
11
1.2719433070866142
21
3.3508799606299213
0
LINE
8
BLACK
6
CONTINUOUS
10
1.2719433070866142
20
3.3508799606299213
11
1.2681604724409448
21
3.3530639763779528
0
LINE
8
BLACK
6
CONTINUOUS
10
1.2681604724409448
20
3.3530639763779528
11
1.2650718503937008
21
3.3561525984251968
0
LINE
8
BLACK
6
CONTINUOUS
10
1.2650718503937008
20
3.3561525984251968
11
1.2628878346456693
21
3.359935433070866
0
LINE
8
BLACK
6
CONTINUOUS
10
1.2628878346456693
20
3.359935433070866
11
1.2617573228346457
21
3.3641545669291339
0
LINE
8
BLACK
6
CONTINUOUS
10
1.2617573228346457
20
3.3641545669291339
11
1.2616141732283463
21
3.3663385826771655
0
LINE
8
BLACK
6
CONTINUOUS
10
1.2616141732283463
20
3.3663385826771655
11
1.2616141732283463
21
3.387992125984252
0
LINE
8
BLACK
6
CONTINUOUS
10
1.2616141732283463
20
3.387992125984252
11
1.2617573228346457
21
3.3901761417322835
0
LINE
8
BLACK
6
CONTINUOUS
10
1.2617573228346457
20
3.3901761417322835
11
1.2628878346456693
21
3.3943952755905511
0
LINE
8
BLACK
6
CONTINUOUS
10
1.2628878346456693
20
3.3943952755905511
11
1.2650718503937008
21
3.3981781102362203
0
LINE
8
BLACK
6
CONTINUOUS
10
1.2650718503937008
20
3.3981781102362203
11
1.2681604724409448
21
3.4012667322834647
0
LINE
8
BLACK
6
CONTINUOUS
10
1.2681604724409448
20
3.4012667322834647
11
1.2719433070866142
21
3.4034507480314962
0
LINE
8
BLACK
6
CONTINUOUS
10
1.2719433070866142
20
3.4034507480314962
11
1.276162440944882
21
3.4045812598425198
0
LINE
8
BLACK
6
CONTINUOUS
10
1.276162440944882
20
3.4045812598425198
11
1.2805304724409448
21
3.4045812598425198
0
LINE
8
BLACK
6
CONTINUOUS
10
1.2805304724409448
20
3.4045812598425198
11
1.2847496062992125
21
3.4034507480314962
0
LINE
8
BLACK
6
CONTINUOUS
10
1.2847496062992125
20
3.4034507480314962
11
1.288532440944882
21
3.4012667322834647
0
LINE
8
BLACK
6
CONTINUOUS
10
1.288532440944882
20
3.4012667322834647
11
1.2916210629921259
21
3.3981781102362203
0
LINE
8
BLACK
6
CONTINUOUS
10
1.2916210629921259
20
3.3981781102362203
11
1.2938050787401574
21
3.3943952755905511
0
LINE
8
BLACK
6
CONTINUOUS
10
1.2938050787401574
20
3.3943952755905511
11
1.294935590551181
21
3.3901761417322835
0
LINE
8
BLACK
6
CONTINUOUS
10
1.294935590551181
20
3.3901761417322835
11
1.2950787401574804
21
3.387992125984252
0
LINE
8
BLACK
6
CONTINUOUS
10
1.2950787401574804
20
3.387992125984252
11
1.2950787401574804
21
3.3663385826771655
0
LINE
8
BLACK
6
CONTINUOUS
10
1.2950787401574804
20
3.3663385826771655
11
1.294935590551181
21
3.3641545669291339
0
LINE
8
BLACK
6
CONTINUOUS
10
1.5882426771653544
20
3.3641545669291339
11
1.5871121653543308
21
3.359935433070866
0
LINE
8
BLACK
6
CONTINUOUS
10
1.5871121653543308
20
3.359935433070866
11
1.5849281496062992
21
3.3561525984251968
0
LINE
8
BLACK
6
CONTINUOUS
10
1.5849281496062992
20
3.3561525984251968
11
1.5818395275590551
21
3.3530639763779528
0
LINE
8
BLACK
6
CONTINUOUS
10
1.5818395275590551
20
3.3530639763779528
11
1.5780566929133857
21
3.3508799606299213
0
LINE
8
BLACK
6
CONTINUOUS
10
1.5780566929133857
20
3.3508799606299213
11
1.5738375590551181
21
3.3497494488188977
0
LINE
8
BLACK
6
CONTINUOUS
10
1.5738375590551181
20
3.3497494488188977
11
1.5694695275590551
21
3.3497494488188977
0
LINE
8
BLACK
6
CONTINUOUS
10
1.5694695275590551
20
3.3497494488188977
11
1.5652503937007873
21
3.3508799606299213
0
LINE
8
BLACK
6
CONTINUOUS
10
1.5652503937007873
20
3.3508799606299213
11
1.5614675590551181
21
3.3530639763779528
0
LINE
8
BLACK
6
CONTINUOUS
10
1.5614675590551181
20
3.3530639763779528
11
1.558378937007874
21
3.3561525984251968
0
LINE
8
BLACK
6
CONTINUOUS
10
1.558378937007874
20
3.3561525984251968
11
1.5561949212598425
21
3.359935433070866
0
LINE
8
BLACK
6
CONTINUOUS
10
1.5561949212598425
20
3.359935433070866
11
1.5550644094488189
21
3.3641545669291339
0
LINE
8
BLACK
6
CONTINUOUS
10
1.5550644094488189
20
3.3641545669291339
11
1.5549212598425197
21
3.3663385826771655
0
LINE
8
BLACK
6
CONTINUOUS
10
1.5549212598425197
20
3.3663385826771655
11
1.5549212598425197
21
3.387992125984252
0
LINE
8
BLACK
6
CONTINUOUS
10
1.5549212598425197
20
3.387992125984252
11
1.5550644094488189
21
3.3901761417322835
0
LINE
8
BLACK
6
CONTINUOUS
10
1.5550644094488189
20
3.3901761417322835
11
1.5561949212598425
21
3.3943952755905511
0
LINE
8
BLACK
6
CONTINUOUS
10
1.5561949212598425
20
3.3943952755905511
11
1.558378937007874
21
3.3981781102362203
0
LINE
8
BLACK
6
CONTINUOUS
10
1.558378937007874
20
3.3981781102362203
11
1.5614675590551181
21
3.4012667322834647
0
LINE
8
BLACK
6
CONTINUOUS
10
1.5614675590551181
20
3.4012667322834647
11
1.5652503937007873
21
3.4034507480314962
0
LINE
8
BLACK
6
CONTINUOUS
10
1.5652503937007873
20
3.4034507480314962
11
1.5694695275590551
21
3.4045812598425198
0
LINE
8
BLACK
6
CONTINUOUS
10
1.5694695275590551
20
3.4045812598425198
11
1.5738375590551181
21
3.4045812598425198
0
LINE
8
BLACK
6
CONTINUOUS
10
1.5738375590551181
20
3.4045812598425198
11
1.5780566929133857
21
3.4034507480314962
0
LINE
8
BLACK
6
CONTINUOUS
10
1.5780566929133857
20
3.4034507480314962
11
1.5818395275590551
21
3.4012667322834647
0
LINE
8
BLACK
6
CONTINUOUS
10
1.5818395275590551
20
3.4012667322834647
11
1.5849281496062992
21
3.3981781102362203
0
LINE
8
BLACK
6
CONTINUOUS
10
1.5849281496062992
20
3.3981781102362203
11
1.5871121653543308
21
3.3943952755905511
0
LINE
8
BLACK
6
CONTINUOUS
10
1.5871121653543308
20
3.3943952755905511
11
1.5882426771653544
21
3.3901761417322835
0
LINE
8
BLACK
6
CONTINUOUS
10
1.5882426771653544
20
3.3901761417322835
11
1.5883858267716535
21
3.387992125984252
0
LINE
8
BLACK
6
CONTINUOUS
10
1.5883858267716535
20
3.387992125984252
11
1.5883858267716535
21
3.3663385826771655
0
LINE
8
BLACK
6
CONTINUOUS
10
1.5883858267716535
20
3.3663385826771655
11
1.5882426771653544
21
3.3641545669291339
0
LINE
8
BLACK
6
CONTINUOUS
10
1.5881777952755904
20
3.5118641732283464
11
1.5865611811023621
21
3.5079613385826769
0
LINE
8
BLACK
6
CONTINUOUS
10
1.5865611811023621
20
3.5079613385826769
11
1.5835740944881889
21
3.5049742519685037
0
LINE
8
BLACK
6
CONTINUOUS
10
1.5835740944881889
20
3.5049742519685037
11
1.5796712598425195
21
3.5033576377952755
0
LINE
8
BLACK
6
CONTINUOUS
10
1.5796712598425195
20
3.5033576377952755
11
1.5754468503937007
21
3.5033576377952755
0
LINE
8
BLACK
6
CONTINUOUS
10
1.5754468503937007
20
3.5033576377952755
11
1.5715440157480314
21
3.5049742519685037
0
LINE
8
BLACK
6
CONTINUOUS
10
1.5715440157480314
20
3.5049742519685037
11
1.5685569291338581
21
3.5079613385826769
0
LINE
8
BLACK
6
CONTINUOUS
10
1.5685569291338581
20
3.5079613385826769
11
1.5669403149606298
21
3.5118641732283464
0
LINE
8
BLACK
6
CONTINUOUS
10
1.5669403149606298
20
3.5118641732283464
11
1.5667322834645669
21
3.5139763779527557
0
LINE
8
BLACK
6
CONTINUOUS
10
1.5667322834645669
20
3.5139763779527557
11
1.5667322834645669
21
3.5395669291338581
0
LINE
8
BLACK
6
CONTINUOUS
10
1.5667322834645669
20
3.5395669291338581
11
1.5669403149606298
21
3.5416791338582678
0
LINE
8
BLACK
6
CONTINUOUS
10
1.5669403149606298
20
3.5416791338582678
11
1.5685569291338581
21
3.5455819685039369
0
LINE
8
BLACK
6
CONTINUOUS
10
1.5685569291338581
20
3.5455819685039369
11
1.5715440157480314
21
3.5485690551181102
0
LINE
8
BLACK
6
CONTINUOUS
10
1.5715440157480314
20
3.5485690551181102
11
1.5754468503937007
21
3.5501856692913387
0
LINE
8
BLACK
6
CONTINUOUS
10
1.5754468503937007
20
3.5501856692913387
11
1.5796712598425195
21
3.5501856692913387
0
LINE
8
BLACK
6
CONTINUOUS
10
1.5796712598425195
20
3.5501856692913387
11
1.5835740944881889
21
3.5485690551181102
0
LINE
8
BLACK
6
CONTINUOUS
10
1.5835740944881889
20
3.5485690551181102
11
1.5865611811023621
21
3.5455819685039369
0
LINE
8
BLACK
6
CONTINUOUS
10
1.5865611811023621
20
3.5455819685039369
11
1.5881777952755904
21
3.5416791338582678
0
LINE
8
BLACK
6
CONTINUOUS
10
1.5881777952755904
20
3.5416791338582678
11
1.5883858267716535
21
3.5395669291338581
0
LINE
8
BLACK
6
CONTINUOUS
10
1.5883858267716535
20
3.5395669291338581
11
1.5883858267716535
21
3.5139763779527557
0
LINE
8
BLACK
6
CONTINUOUS
10
1.5883858267716535
20
3.5139763779527557
11
1.5881777952755904
21
3.5118641732283464
  0
ENDSEC
  0
EOF
