  0
SECTION
  2
HEADER
  9
$ANGBASE
  50
0.0
  9
$ANGDIR
  70
1
  9
$MEASUREMENT
  70
0
  0
ENDSEC
  0
SECTION
  2
TABLES
  0
TABLE
  2
LTYPE
  70
4
  0
LTYPE
  5
40F
  2
CONTINUOUS
  70
0
  3
Solid line
  72
65
  73
0
  40
0.0
  0
LTYPE
  5
410
  2
DASHDOT
 70
0
  3
Dash Dot ____ _ ____ _
 72
65
 73
4
 40
2.0
 49
1.25
 49
-0.25
 49
0.25
 49
-0.25
  0
LTYPE
  5
411
  2
DASHED
 70
0
  3
Dashed __ __ __ __ __
 72
65
 73
2
 40
0.75
 49
0.5
 49
-0.25
  0
LTYPE
  5
43B
  2
DOTTED
 70
0
  3
Dotted .  .  .  .
 72
65
 73
2
 40
0.2
 49
0.0
 49
-0.2
  0
ENDTAB
  0
TABLE
  2
STYLE
  70
4
  0
STYLE
  2
KICAD
  70
0
  40
0
  41
1
  42
1
  50
0
  71
0
  3
isocp.shx
  0
STYLE
  2
KICADB
  70
0
  40
0
  41
1
  42
1
  50
0
  71
0
  3
isocp.shx
  0
STYLE
  2
KICADI
  70
0
  40
0
  41
1
  42
1
  50
15
  71
0
  3
isocp.shx
  0
STYLE
  2
KICADBI
  70
0
  40
0
  41
1
  42
1
  50
15
  71
0
  3
isocp.shx
  0
ENDTAB
  0
TABLE
  2
LAYER
  70
1
  0
LAYER
  2
BLACK
  70
0
  62
7
  6
CONTINUOUS
  0
ENDTAB
  0
ENDSEC
  0
SECTION
  2
ENTITIES
0
LINE
8
BLACK
6
CONTINUOUS
10
0.2196550787401575
20
0.3114693700787401
11
0.2324629527559055
21
0.3084338582677165
0
LINE
8
BLACK
6
CONTINUOUS
10
0.2324629527559055
20
0.3084338582677165
11
0.2448318503937008
21
0.3039319291338582
0
LINE
8
BLACK
6
CONTINUOUS
10
0.2448318503937008
20
0.3039319291338582
11
0.2565944881889764
21
0.2980245275590551
0
LINE
8
BLACK
6
CONTINUOUS
10
0.2565944881889764
20
0.2980245275590551
11
0.2675917716535433
21
0.2907914960629921
0
LINE
8
BLACK
6
CONTINUOUS
10
0.2675917716535433
20
0.2907914960629921
11
0.277675
21
0.2823306692913386
0
LINE
8
BLACK
6
CONTINUOUS
10
0.277675
20
0.2823306692913386
11
0.2867077952755905
21
0.2727564566929134
0
LINE
8
BLACK
6
CONTINUOUS
10
0.2867077952755905
20
0.2727564566929134
11
0.2945679921259842
21
0.2621983464566929
0
LINE
8
BLACK
6
CONTINUOUS
10
0.2945679921259842
20
0.2621983464566929
11
0.3011493700787402
21
0.2507991338582677
0
LINE
8
BLACK
6
CONTINUOUS
10
0.3011493700787402
20
0.2507991338582677
11
0.3063628346456693
21
0.2387129133858268
0
LINE
8
BLACK
6
CONTINUOUS
10
0.3063628346456693
20
0.2387129133858268
11
0.3101379527559055
21
0.226103188976378
0
LINE
8
BLACK
6
CONTINUOUS
10
0.3101379527559055
20
0.226103188976378
11
0.3124236220472441
21
0.2131404330708661
0
LINE
8
BLACK
6
CONTINUOUS
10
0.3124236220472441
20
0.2131404330708661
11
0.3131889763779527
21
0.2
0
LINE
8
BLACK
6
CONTINUOUS
10
0.3131889763779527
20
0.2
11
0.3124236220472441
21
0.1868595669291339
0
LINE
8
BLACK
6
CONTINUOUS
10
0.3124236220472441
20
0.1868595669291339
11
0.3101379527559055
21
0.173896811023622
0
LINE
8
BLACK
6
CONTINUOUS
10
0.3101379527559055
20
0.173896811023622
11
0.3063628346456693
21
0.1612870866141732
0
LINE
8
BLACK
6
CONTINUOUS
10
0.3063628346456693
20
0.1612870866141732
11
0.3011493700787402
21
0.1492008661417323
0
LINE
8
BLACK
6
CONTINUOUS
10
0.3011493700787402
20
0.1492008661417323
11
0.2945679921259842
21
0.1378016535433071
0
LINE
8
BLACK
6
CONTINUOUS
10
0.2945679921259842
20
0.1378016535433071
11
0.2867077952755905
21
0.1272435433070866
0
LINE
8
BLACK
6
CONTINUOUS
10
0.2867077952755905
20
0.1272435433070866
11
0.277675
21
0.1176693307086614
0
LINE
8
BLACK
6
CONTINUOUS
10
0.277675
20
0.1176693307086614
11
0.2675917716535433
21
0.1092085039370079
0
LINE
8
BLACK
6
CONTINUOUS
10
0.2675917716535433
20
0.1092085039370079
11
0.2565944881889764
21
0.1019754724409449
0
LINE
8
BLACK
6
CONTINUOUS
10
0.2565944881889764
20
0.1019754724409449
11
0.2448318503937008
21
0.0960680708661417
0
LINE
8
BLACK
6
CONTINUOUS
10
0.2448318503937008
20
0.0960680708661417
11
0.2324629527559055
21
0.0915661417322835
0
LINE
8
BLACK
6
CONTINUOUS
10
0.2324629527559055
20
0.0915661417322835
11
0.2196550787401575
21
0.0885306299212598
0
LINE
8
BLACK
6
CONTINUOUS
10
0.2196550787401575
20
0.0885306299212598
11
0.2065813385826772
21
0.0870025196850394
0
LINE
8
BLACK
6
CONTINUOUS
10
0.2065813385826772
20
0.0870025196850394
11
0.1934186614173228
21
0.0870025196850394
0
LINE
8
BLACK
6
CONTINUOUS
10
0.1934186614173228
20
0.0870025196850394
11
0.1803449212598425
21
0.0885306299212598
0
LINE
8
BLACK
6
CONTINUOUS
10
0.1803449212598425
20
0.0885306299212598
11
0.1675370472440945
21
0.0915661417322835
0
LINE
8
BLACK
6
CONTINUOUS
10
0.1675370472440945
20
0.0915661417322835
11
0.1551681496062992
21
0.0960680708661417
0
LINE
8
BLACK
6
CONTINUOUS
10
0.1551681496062992
20
0.0960680708661417
11
0.1434055118110236
21
0.1019754724409449
0
LINE
8
BLACK
6
CONTINUOUS
10
0.1434055118110236
20
0.1019754724409449
11
0.1324082283464567
21
0.1092085039370079
0
LINE
8
BLACK
6
CONTINUOUS
10
0.1324082283464567
20
0.1092085039370079
11
0.122325
21
0.1176693307086614
0
LINE
8
BLACK
6
CONTINUOUS
10
0.122325
20
0.1176693307086614
11
0.1132922047244094
21
0.1272435433070866
0
LINE
8
BLACK
6
CONTINUOUS
10
0.1132922047244094
20
0.1272435433070866
11
0.1054320078740157
21
0.1378016535433071
0
LINE
8
BLACK
6
CONTINUOUS
10
0.1054320078740157
20
0.1378016535433071
11
0.0988506299212598
21
0.1492008661417323
0
LINE
8
BLACK
6
CONTINUOUS
10
0.0988506299212598
20
0.1492008661417323
11
0.0936371653543307
21
0.1612870866141732
0
LINE
8
BLACK
6
CONTINUOUS
10
0.0936371653543307
20
0.1612870866141732
11
0.0898620472440945
21
0.173896811023622
0
LINE
8
BLACK
6
CONTINUOUS
10
0.0898620472440945
20
0.173896811023622
11
0.0875763779527559
21
0.1868595669291339
0
LINE
8
BLACK
6
CONTINUOUS
10
0.0875763779527559
20
0.1868595669291339
11
0.0868110236220472
21
0.2
0
LINE
8
BLACK
6
CONTINUOUS
10
0.0868110236220472
20
0.2
11
0.0875763779527559
21
0.2131404330708661
0
LINE
8
BLACK
6
CONTINUOUS
10
0.0875763779527559
20
0.2131404330708661
11
0.0898620472440945
21
0.226103188976378
0
LINE
8
BLACK
6
CONTINUOUS
10
0.0898620472440945
20
0.226103188976378
11
0.0936371653543307
21
0.2387129133858268
0
LINE
8
BLACK
6
CONTINUOUS
10
0.0936371653543307
20
0.2387129133858268
11
0.0988506299212598
21
0.2507991338582677
0
LINE
8
BLACK
6
CONTINUOUS
10
0.0988506299212598
20
0.2507991338582677
11
0.1054320078740157
21
0.2621983464566929
0
LINE
8
BLACK
6
CONTINUOUS
10
0.1054320078740157
20
0.2621983464566929
11
0.1132922047244094
21
0.2727564566929134
0
LINE
8
BLACK
6
CONTINUOUS
10
0.1132922047244094
20
0.2727564566929134
11
0.122325
21
0.2823306692913386
0
LINE
8
BLACK
6
CONTINUOUS
10
0.122325
20
0.2823306692913386
11
0.1324082283464567
21
0.2907914960629921
0
LINE
8
BLACK
6
CONTINUOUS
10
0.1324082283464567
20
0.2907914960629921
11
0.1434055118110236
21
0.2980245275590551
0
LINE
8
BLACK
6
CONTINUOUS
10
0.1434055118110236
20
0.2980245275590551
11
0.1551681496062992
21
0.3039319291338582
0
LINE
8
BLACK
6
CONTINUOUS
10
0.1551681496062992
20
0.3039319291338582
11
0.1675370472440945
21
0.3084338582677165
0
LINE
8
BLACK
6
CONTINUOUS
10
0.1675370472440945
20
0.3084338582677165
11
0.1803449212598425
21
0.3114693700787401
0
LINE
8
BLACK
6
CONTINUOUS
10
0.1803449212598425
20
0.3114693700787401
11
0.1934186614173228
21
0.3129974803149606
0
LINE
8
BLACK
6
CONTINUOUS
10
0.1934186614173228
20
0.3129974803149606
11
0.2065813385826772
21
0.3129974803149606
0
LINE
8
BLACK
6
CONTINUOUS
10
0.2065813385826772
20
0.3129974803149606
11
0.2196550787401575
21
0.3114693700787401
0
LINE
8
BLACK
6
CONTINUOUS
10
0.093304094488189
20
0.1870447637795276
11
0.0956435826771654
21
0.1742784645669291
0
LINE
8
BLACK
6
CONTINUOUS
10
0.0956435826771654
20
0.1742784645669291
11
0.099504842519685
21
0.1618872047244095
0
LINE
8
BLACK
6
CONTINUOUS
10
0.099504842519685
20
0.1618872047244095
11
0.1048315748031496
21
0.1500517716535433
0
LINE
8
BLACK
6
CONTINUOUS
10
0.1048315748031496
20
0.1500517716535433
11
0.111546062992126
21
0.1389446456692913
0
LINE
8
BLACK
6
CONTINUOUS
10
0.111546062992126
20
0.1389446456692913
11
0.1195503937007874
21
0.128727874015748
0
LINE
8
BLACK
6
CONTINUOUS
10
0.1195503937007874
20
0.128727874015748
11
0.128727874015748
21
0.1195503937007874
0
LINE
8
BLACK
6
CONTINUOUS
10
0.128727874015748
20
0.1195503937007874
11
0.1389446456692913
21
0.111546062992126
0
LINE
8
BLACK
6
CONTINUOUS
10
0.1389446456692913
20
0.111546062992126
11
0.1500517716535433
21
0.1048315748031496
0
LINE
8
BLACK
6
CONTINUOUS
10
0.1500517716535433
20
0.1048315748031496
11
0.1618872047244095
21
0.099504842519685
0
LINE
8
BLACK
6
CONTINUOUS
10
0.1618872047244095
20
0.099504842519685
11
0.1742784645669291
21
0.0956435826771654
0
LINE
8
BLACK
6
CONTINUOUS
10
0.1742784645669291
20
0.0956435826771654
11
0.1870447637795276
21
0.093304094488189
0
LINE
8
BLACK
6
CONTINUOUS
10
0.1870447637795276
20
0.093304094488189
11
0.2
21
0.0925204330708661
0
LINE
8
BLACK
6
CONTINUOUS
10
0.2
20
0.0925204330708661
11
0.2129552362204724
21
0.093304094488189
0
LINE
8
BLACK
6
CONTINUOUS
10
0.2129552362204724
20
0.093304094488189
11
0.2257215354330709
21
0.0956435826771654
0
LINE
8
BLACK
6
CONTINUOUS
10
0.2257215354330709
20
0.0956435826771654
11
0.2381127952755905
21
0.099504842519685
0
LINE
8
BLACK
6
CONTINUOUS
10
0.2381127952755905
20
0.099504842519685
11
0.2499482283464567
21
0.1048315748031496
0
LINE
8
BLACK
6
CONTINUOUS
10
0.2499482283464567
20
0.1048315748031496
11
0.2610553543307086
21
0.111546062992126
0
LINE
8
BLACK
6
CONTINUOUS
10
0.2610553543307086
20
0.111546062992126
11
0.271272125984252
21
0.1195503937007874
0
LINE
8
BLACK
6
CONTINUOUS
10
0.271272125984252
20
0.1195503937007874
11
0.2804496062992126
21
0.128727874015748
0
LINE
8
BLACK
6
CONTINUOUS
10
0.2804496062992126
20
0.128727874015748
11
0.288453937007874
21
0.1389446456692913
0
LINE
8
BLACK
6
CONTINUOUS
10
0.288453937007874
20
0.1389446456692913
11
0.2951684251968504
21
0.1500517716535433
0
LINE
8
BLACK
6
CONTINUOUS
10
0.2951684251968504
20
0.1500517716535433
11
0.300495157480315
21
0.1618872047244095
0
LINE
8
BLACK
6
CONTINUOUS
10
0.300495157480315
20
0.1618872047244095
11
0.3043564173228346
21
0.1742784645669291
0
LINE
8
BLACK
6
CONTINUOUS
10
0.3043564173228346
20
0.1742784645669291
11
0.306695905511811
21
0.1870447637795276
0
LINE
8
BLACK
6
CONTINUOUS
10
0.306695905511811
20
0.1870447637795276
11
0.3074795669291339
21
0.2
0
LINE
8
BLACK
6
CONTINUOUS
10
0.3074795669291339
20
0.2
11
0.306695905511811
21
0.2129552362204724
0
LINE
8
BLACK
6
CONTINUOUS
10
0.306695905511811
20
0.2129552362204724
11
0.3043564173228346
21
0.2257215354330709
0
LINE
8
BLACK
6
CONTINUOUS
10
0.3043564173228346
20
0.2257215354330709
11
0.300495157480315
21
0.2381127952755905
0
LINE
8
BLACK
6
CONTINUOUS
10
0.300495157480315
20
0.2381127952755905
11
0.2951684251968504
21
0.2499482283464567
0
LINE
8
BLACK
6
CONTINUOUS
10
0.2951684251968504
20
0.2499482283464567
11
0.288453937007874
21
0.2610553543307086
0
LINE
8
BLACK
6
CONTINUOUS
10
0.288453937007874
20
0.2610553543307086
11
0.2804496062992126
21
0.271272125984252
0
LINE
8
BLACK
6
CONTINUOUS
10
0.2804496062992126
20
0.271272125984252
11
0.271272125984252
21
0.2804496062992126
0
LINE
8
BLACK
6
CONTINUOUS
10
0.271272125984252
20
0.2804496062992126
11
0.2610553543307086
21
0.288453937007874
0
LINE
8
BLACK
6
CONTINUOUS
10
0.2610553543307086
20
0.288453937007874
11
0.2499482283464567
21
0.2951684251968504
0
LINE
8
BLACK
6
CONTINUOUS
10
0.2499482283464567
20
0.2951684251968504
11
0.2381127952755905
21
0.300495157480315
0
LINE
8
BLACK
6
CONTINUOUS
10
0.2381127952755905
20
0.300495157480315
11
0.2257215354330709
21
0.3043564173228346
0
LINE
8
BLACK
6
CONTINUOUS
10
0.2257215354330709
20
0.3043564173228346
11
0.2129552362204724
21
0.306695905511811
0
LINE
8
BLACK
6
CONTINUOUS
10
0.2129552362204724
20
0.306695905511811
11
0.2
21
0.3074795669291339
0
LINE
8
BLACK
6
CONTINUOUS
10
0.2
20
0.3074795669291339
11
0.1870447637795276
21
0.306695905511811
0
LINE
8
BLACK
6
CONTINUOUS
10
0.1870447637795276
20
0.306695905511811
11
0.1742784645669291
21
0.3043564173228346
0
LINE
8
BLACK
6
CONTINUOUS
10
0.1742784645669291
20
0.3043564173228346
11
0.1618872047244095
21
0.300495157480315
0
LINE
8
BLACK
6
CONTINUOUS
10
0.1618872047244095
20
0.300495157480315
11
0.1500517716535433
21
0.2951684251968504
0
LINE
8
BLACK
6
CONTINUOUS
10
0.1500517716535433
20
0.2951684251968504
11
0.1389446456692913
21
0.288453937007874
0
LINE
8
BLACK
6
CONTINUOUS
10
0.1389446456692913
20
0.288453937007874
11
0.128727874015748
21
0.2804496062992126
0
LINE
8
BLACK
6
CONTINUOUS
10
0.128727874015748
20
0.2804496062992126
11
0.1195503937007874
21
0.271272125984252
0
LINE
8
BLACK
6
CONTINUOUS
10
0.1195503937007874
20
0.271272125984252
11
0.111546062992126
21
0.2610553543307086
0
LINE
8
BLACK
6
CONTINUOUS
10
0.111546062992126
20
0.2610553543307086
11
0.1048315748031496
21
0.2499482283464567
0
LINE
8
BLACK
6
CONTINUOUS
10
0.1048315748031496
20
0.2499482283464567
11
0.099504842519685
21
0.2381127952755905
0
LINE
8
BLACK
6
CONTINUOUS
10
0.099504842519685
20
0.2381127952755905
11
0.0956435826771654
21
0.2257215354330709
0
LINE
8
BLACK
6
CONTINUOUS
10
0.0956435826771654
20
0.2257215354330709
11
0.093304094488189
21
0.2129552362204724
0
LINE
8
BLACK
6
CONTINUOUS
10
0.093304094488189
20
0.2129552362204724
11
0.0925204330708661
21
0.2
0
LINE
8
BLACK
6
CONTINUOUS
10
0.0925204330708661
20
0.2
11
0.093304094488189
21
0.1870447637795276
0
LINE
8
BLACK
6
CONTINUOUS
10
1.8196550787401575
20
0.3114693700787401
11
1.8324629527559055
21
0.3084338582677165
0
LINE
8
BLACK
6
CONTINUOUS
10
1.8324629527559055
20
0.3084338582677165
11
1.8448318503937007
21
0.3039319291338582
0
LINE
8
BLACK
6
CONTINUOUS
10
1.8448318503937007
20
0.3039319291338582
11
1.8565944881889764
21
0.2980245275590551
0
LINE
8
BLACK
6
CONTINUOUS
10
1.8565944881889764
20
0.2980245275590551
11
1.8675917716535433
21
0.2907914960629921
0
LINE
8
BLACK
6
CONTINUOUS
10
1.8675917716535433
20
0.2907914960629921
11
1.877675
21
0.2823306692913386
0
LINE
8
BLACK
6
CONTINUOUS
10
1.877675
20
0.2823306692913386
11
1.8867077952755904
21
0.2727564566929134
0
LINE
8
BLACK
6
CONTINUOUS
10
1.8867077952755904
20
0.2727564566929134
11
1.8945679921259841
21
0.2621983464566929
0
LINE
8
BLACK
6
CONTINUOUS
10
1.8945679921259841
20
0.2621983464566929
11
1.9011493700787401
21
0.2507991338582677
0
LINE
8
BLACK
6
CONTINUOUS
10
1.9011493700787401
20
0.2507991338582677
11
1.9063628346456694
21
0.2387129133858268
0
LINE
8
BLACK
6
CONTINUOUS
10
1.9063628346456694
20
0.2387129133858268
11
1.9101379527559055
21
0.226103188976378
0
LINE
8
BLACK
6
CONTINUOUS
10
1.9101379527559055
20
0.226103188976378
11
1.9124236220472441
21
0.2131404330708661
0
LINE
8
BLACK
6
CONTINUOUS
10
1.9124236220472441
20
0.2131404330708661
11
1.9131889763779528
21
0.2
0
LINE
8
BLACK
6
CONTINUOUS
10
1.9131889763779528
20
0.2
11
1.9124236220472441
21
0.1868595669291339
0
LINE
8
BLACK
6
CONTINUOUS
10
1.9124236220472441
20
0.1868595669291339
11
1.9101379527559055
21
0.173896811023622
0
LINE
8
BLACK
6
CONTINUOUS
10
1.9101379527559055
20
0.173896811023622
11
1.9063628346456694
21
0.1612870866141732
0
LINE
8
BLACK
6
CONTINUOUS
10
1.9063628346456694
20
0.1612870866141732
11
1.9011493700787401
21
0.1492008661417323
0
LINE
8
BLACK
6
CONTINUOUS
10
1.9011493700787401
20
0.1492008661417323
11
1.8945679921259841
21
0.1378016535433071
0
LINE
8
BLACK
6
CONTINUOUS
10
1.8945679921259841
20
0.1378016535433071
11
1.8867077952755904
21
0.1272435433070866
0
LINE
8
BLACK
6
CONTINUOUS
10
1.8867077952755904
20
0.1272435433070866
11
1.877675
21
0.1176693307086614
0
LINE
8
BLACK
6
CONTINUOUS
10
1.877675
20
0.1176693307086614
11
1.8675917716535433
21
0.1092085039370079
0
LINE
8
BLACK
6
CONTINUOUS
10
1.8675917716535433
20
0.1092085039370079
11
1.8565944881889764
21
0.1019754724409449
0
LINE
8
BLACK
6
CONTINUOUS
10
1.8565944881889764
20
0.1019754724409449
11
1.8448318503937007
21
0.0960680708661417
0
LINE
8
BLACK
6
CONTINUOUS
10
1.8448318503937007
20
0.0960680708661417
11
1.8324629527559055
21
0.0915661417322835
0
LINE
8
BLACK
6
CONTINUOUS
10
1.8324629527559055
20
0.0915661417322835
11
1.8196550787401575
21
0.0885306299212598
0
LINE
8
BLACK
6
CONTINUOUS
10
1.8196550787401575
20
0.0885306299212598
11
1.8065813385826772
21
0.0870025196850394
0
LINE
8
BLACK
6
CONTINUOUS
10
1.8065813385826772
20
0.0870025196850394
11
1.7934186614173229
21
0.0870025196850394
0
LINE
8
BLACK
6
CONTINUOUS
10
1.7934186614173229
20
0.0870025196850394
11
1.7803449212598426
21
0.0885306299212598
0
LINE
8
BLACK
6
CONTINUOUS
10
1.7803449212598426
20
0.0885306299212598
11
1.7675370472440946
21
0.0915661417322835
0
LINE
8
BLACK
6
CONTINUOUS
10
1.7675370472440946
20
0.0915661417322835
11
1.7551681496062992
21
0.0960680708661417
0
LINE
8
BLACK
6
CONTINUOUS
10
1.7551681496062992
20
0.0960680708661417
11
1.7434055118110237
21
0.1019754724409449
0
LINE
8
BLACK
6
CONTINUOUS
10
1.7434055118110237
20
0.1019754724409449
11
1.7324082283464566
21
0.1092085039370079
0
LINE
8
BLACK
6
CONTINUOUS
10
1.7324082283464566
20
0.1092085039370079
11
1.7223249999999999
21
0.1176693307086614
0
LINE
8
BLACK
6
CONTINUOUS
10
1.7223249999999999
20
0.1176693307086614
11
1.7132922047244095
21
0.1272435433070866
0
LINE
8
BLACK
6
CONTINUOUS
10
1.7132922047244095
20
0.1272435433070866
11
1.7054320078740157
21
0.1378016535433071
0
LINE
8
BLACK
6
CONTINUOUS
10
1.7054320078740157
20
0.1378016535433071
11
1.6988506299212598
21
0.1492008661417323
0
LINE
8
BLACK
6
CONTINUOUS
10
1.6988506299212598
20
0.1492008661417323
11
1.6936371653543307
21
0.1612870866141732
0
LINE
8
BLACK
6
CONTINUOUS
10
1.6936371653543307
20
0.1612870866141732
11
1.6898620472440944
21
0.173896811023622
0
LINE
8
BLACK
6
CONTINUOUS
10
1.6898620472440944
20
0.173896811023622
11
1.6875763779527559
21
0.1868595669291339
0
LINE
8
BLACK
6
CONTINUOUS
10
1.6875763779527559
20
0.1868595669291339
11
1.6868110236220473
21
0.2
0
LINE
8
BLACK
6
CONTINUOUS
10
1.6868110236220473
20
0.2
11
1.6875763779527559
21
0.2131404330708661
0
LINE
8
BLACK
6
CONTINUOUS
10
1.6875763779527559
20
0.2131404330708661
11
1.6898620472440944
21
0.226103188976378
0
LINE
8
BLACK
6
CONTINUOUS
10
1.6898620472440944
20
0.226103188976378
11
1.6936371653543307
21
0.2387129133858268
0
LINE
8
BLACK
6
CONTINUOUS
10
1.6936371653543307
20
0.2387129133858268
11
1.6988506299212598
21
0.2507991338582677
0
LINE
8
BLACK
6
CONTINUOUS
10
1.6988506299212598
20
0.2507991338582677
11
1.7054320078740157
21
0.2621983464566929
0
LINE
8
BLACK
6
CONTINUOUS
10
1.7054320078740157
20
0.2621983464566929
11
1.7132922047244095
21
0.2727564566929134
0
LINE
8
BLACK
6
CONTINUOUS
10
1.7132922047244095
20
0.2727564566929134
11
1.7223249999999999
21
0.2823306692913386
0
LINE
8
BLACK
6
CONTINUOUS
10
1.7223249999999999
20
0.2823306692913386
11
1.7324082283464566
21
0.2907914960629921
0
LINE
8
BLACK
6
CONTINUOUS
10
1.7324082283464566
20
0.2907914960629921
11
1.7434055118110237
21
0.2980245275590551
0
LINE
8
BLACK
6
CONTINUOUS
10
1.7434055118110237
20
0.2980245275590551
11
1.7551681496062992
21
0.3039319291338582
0
LINE
8
BLACK
6
CONTINUOUS
10
1.7551681496062992
20
0.3039319291338582
11
1.7675370472440946
21
0.3084338582677165
0
LINE
8
BLACK
6
CONTINUOUS
10
1.7675370472440946
20
0.3084338582677165
11
1.7803449212598426
21
0.3114693700787401
0
LINE
8
BLACK
6
CONTINUOUS
10
1.7803449212598426
20
0.3114693700787401
11
1.7934186614173229
21
0.3129974803149606
0
LINE
8
BLACK
6
CONTINUOUS
10
1.7934186614173229
20
0.3129974803149606
11
1.8065813385826772
21
0.3129974803149606
0
LINE
8
BLACK
6
CONTINUOUS
10
1.8065813385826772
20
0.3129974803149606
11
1.8196550787401575
21
0.3114693700787401
0
LINE
8
BLACK
6
CONTINUOUS
10
1.693304094488189
20
0.1870447637795276
11
1.6956435826771654
21
0.1742784645669291
0
LINE
8
BLACK
6
CONTINUOUS
10
1.6956435826771654
20
0.1742784645669291
11
1.699504842519685
21
0.1618872047244095
0
LINE
8
BLACK
6
CONTINUOUS
10
1.699504842519685
20
0.1618872047244095
11
1.7048315748031495
21
0.1500517716535433
0
LINE
8
BLACK
6
CONTINUOUS
10
1.7048315748031495
20
0.1500517716535433
11
1.711546062992126
21
0.1389446456692913
0
LINE
8
BLACK
6
CONTINUOUS
10
1.711546062992126
20
0.1389446456692913
11
1.7195503937007874
21
0.128727874015748
0
LINE
8
BLACK
6
CONTINUOUS
10
1.7195503937007874
20
0.128727874015748
11
1.7287278740157479
21
0.1195503937007874
0
LINE
8
BLACK
6
CONTINUOUS
10
1.7287278740157479
20
0.1195503937007874
11
1.7389446456692912
21
0.111546062992126
0
LINE
8
BLACK
6
CONTINUOUS
10
1.7389446456692912
20
0.111546062992126
11
1.7500517716535433
21
0.1048315748031496
0
LINE
8
BLACK
6
CONTINUOUS
10
1.7500517716535433
20
0.1048315748031496
11
1.7618872047244094
21
0.099504842519685
0
LINE
8
BLACK
6
CONTINUOUS
10
1.7618872047244094
20
0.099504842519685
11
1.7742784645669292
21
0.0956435826771654
0
LINE
8
BLACK
6
CONTINUOUS
10
1.7742784645669292
20
0.0956435826771654
11
1.7870447637795275
21
0.093304094488189
0
LINE
8
BLACK
6
CONTINUOUS
10
1.7870447637795275
20
0.093304094488189
11
1.8
21
0.0925204330708661
0
LINE
8
BLACK
6
CONTINUOUS
10
1.8
20
0.0925204330708661
11
1.8129552362204724
21
0.093304094488189
0
LINE
8
BLACK
6
CONTINUOUS
10
1.8129552362204724
20
0.093304094488189
11
1.8257215354330709
21
0.0956435826771654
0
LINE
8
BLACK
6
CONTINUOUS
10
1.8257215354330709
20
0.0956435826771654
11
1.8381127952755905
21
0.099504842519685
0
LINE
8
BLACK
6
CONTINUOUS
10
1.8381127952755905
20
0.099504842519685
11
1.8499482283464566
21
0.1048315748031496
0
LINE
8
BLACK
6
CONTINUOUS
10
1.8499482283464566
20
0.1048315748031496
11
1.8610553543307087
21
0.111546062992126
0
LINE
8
BLACK
6
CONTINUOUS
10
1.8610553543307087
20
0.111546062992126
11
1.871272125984252
21
0.1195503937007874
0
LINE
8
BLACK
6
CONTINUOUS
10
1.871272125984252
20
0.1195503937007874
11
1.8804496062992127
21
0.128727874015748
0
LINE
8
BLACK
6
CONTINUOUS
10
1.8804496062992127
20
0.128727874015748
11
1.8884539370078739
21
0.1389446456692913
0
LINE
8
BLACK
6
CONTINUOUS
10
1.8884539370078739
20
0.1389446456692913
11
1.8951684251968504
21
0.1500517716535433
0
LINE
8
BLACK
6
CONTINUOUS
10
1.8951684251968504
20
0.1500517716535433
11
1.9004951574803148
21
0.1618872047244095
0
LINE
8
BLACK
6
CONTINUOUS
10
1.9004951574803148
20
0.1618872047244095
11
1.9043564173228347
21
0.1742784645669291
0
LINE
8
BLACK
6
CONTINUOUS
10
1.9043564173228347
20
0.1742784645669291
11
1.9066959055118109
21
0.1870447637795276
0
LINE
8
BLACK
6
CONTINUOUS
10
1.9066959055118109
20
0.1870447637795276
11
1.9074795669291338
21
0.2
0
LINE
8
BLACK
6
CONTINUOUS
10
1.9074795669291338
20
0.2
11
1.9066959055118109
21
0.2129552362204724
0
LINE
8
BLACK
6
CONTINUOUS
10
1.9066959055118109
20
0.2129552362204724
11
1.9043564173228347
21
0.2257215354330709
0
LINE
8
BLACK
6
CONTINUOUS
10
1.9043564173228347
20
0.2257215354330709
11
1.9004951574803148
21
0.2381127952755905
0
LINE
8
BLACK
6
CONTINUOUS
10
1.9004951574803148
20
0.2381127952755905
11
1.8951684251968504
21
0.2499482283464567
0
LINE
8
BLACK
6
CONTINUOUS
10
1.8951684251968504
20
0.2499482283464567
11
1.8884539370078739
21
0.2610553543307086
0
LINE
8
BLACK
6
CONTINUOUS
10
1.8884539370078739
20
0.2610553543307086
11
1.8804496062992127
21
0.271272125984252
0
LINE
8
BLACK
6
CONTINUOUS
10
1.8804496062992127
20
0.271272125984252
11
1.871272125984252
21
0.2804496062992126
0
LINE
8
BLACK
6
CONTINUOUS
10
1.871272125984252
20
0.2804496062992126
11
1.8610553543307087
21
0.288453937007874
0
LINE
8
BLACK
6
CONTINUOUS
10
1.8610553543307087
20
0.288453937007874
11
1.8499482283464566
21
0.2951684251968504
0
LINE
8
BLACK
6
CONTINUOUS
10
1.8499482283464566
20
0.2951684251968504
11
1.8381127952755905
21
0.300495157480315
0
LINE
8
BLACK
6
CONTINUOUS
10
1.8381127952755905
20
0.300495157480315
11
1.8257215354330709
21
0.3043564173228346
0
LINE
8
BLACK
6
CONTINUOUS
10
1.8257215354330709
20
0.3043564173228346
11
1.8129552362204724
21
0.306695905511811
0
LINE
8
BLACK
6
CONTINUOUS
10
1.8129552362204724
20
0.306695905511811
11
1.8
21
0.3074795669291339
0
LINE
8
BLACK
6
CONTINUOUS
10
1.8
20
0.3074795669291339
11
1.7870447637795275
21
0.306695905511811
0
LINE
8
BLACK
6
CONTINUOUS
10
1.7870447637795275
20
0.306695905511811
11
1.7742784645669292
21
0.3043564173228346
0
LINE
8
BLACK
6
CONTINUOUS
10
1.7742784645669292
20
0.3043564173228346
11
1.7618872047244094
21
0.300495157480315
0
LINE
8
BLACK
6
CONTINUOUS
10
1.7618872047244094
20
0.300495157480315
11
1.7500517716535433
21
0.2951684251968504
0
LINE
8
BLACK
6
CONTINUOUS
10
1.7500517716535433
20
0.2951684251968504
11
1.7389446456692912
21
0.288453937007874
0
LINE
8
BLACK
6
CONTINUOUS
10
1.7389446456692912
20
0.288453937007874
11
1.7287278740157479
21
0.2804496062992126
0
LINE
8
BLACK
6
CONTINUOUS
10
1.7287278740157479
20
0.2804496062992126
11
1.7195503937007874
21
0.271272125984252
0
LINE
8
BLACK
6
CONTINUOUS
10
1.7195503937007874
20
0.271272125984252
11
1.711546062992126
21
0.2610553543307086
0
LINE
8
BLACK
6
CONTINUOUS
10
1.711546062992126
20
0.2610553543307086
11
1.7048315748031495
21
0.2499482283464567
0
LINE
8
BLACK
6
CONTINUOUS
10
1.7048315748031495
20
0.2499482283464567
11
1.699504842519685
21
0.2381127952755905
0
LINE
8
BLACK
6
CONTINUOUS
10
1.699504842519685
20
0.2381127952755905
11
1.6956435826771654
21
0.2257215354330709
0
LINE
8
BLACK
6
CONTINUOUS
10
1.6956435826771654
20
0.2257215354330709
11
1.693304094488189
21
0.2129552362204724
0
LINE
8
BLACK
6
CONTINUOUS
10
1.693304094488189
20
0.2129552362204724
11
1.6925204330708661
21
0.2
0
LINE
8
BLACK
6
CONTINUOUS
10
1.6925204330708661
20
0.2
11
1.693304094488189
21
0.1870447637795276
0
LINE
8
BLACK
6
CONTINUOUS
10
0.2196550787401575
20
3.51146937007874
11
0.2324629527559055
21
3.5084338582677166
0
LINE
8
BLACK
6
CONTINUOUS
10
0.2324629527559055
20
3.5084338582677166
11
0.2448318503937008
21
3.503931929133858
0
LINE
8
BLACK
6
CONTINUOUS
10
0.2448318503937008
20
3.503931929133858
11
0.2565944881889764
21
3.4980245275590551
0
LINE
8
BLACK
6
CONTINUOUS
10
0.2565944881889764
20
3.4980245275590551
11
0.2675917716535433
21
3.4907914960629922
0
LINE
8
BLACK
6
CONTINUOUS
10
0.2675917716535433
20
3.4907914960629922
11
0.277675
21
3.4823306692913385
0
LINE
8
BLACK
6
CONTINUOUS
10
0.277675
20
3.4823306692913385
11
0.2867077952755905
21
3.4727564566929132
0
LINE
8
BLACK
6
CONTINUOUS
10
0.2867077952755905
20
3.4727564566929132
11
0.2945679921259842
21
3.462198346456693
0
LINE
8
BLACK
6
CONTINUOUS
10
0.2945679921259842
20
3.462198346456693
11
0.3011493700787402
21
3.4507991338582675
0
LINE
8
BLACK
6
CONTINUOUS
10
0.3011493700787402
20
3.4507991338582675
11
0.3063628346456693
21
3.4387129133858267
0
LINE
8
BLACK
6
CONTINUOUS
10
0.3063628346456693
20
3.4387129133858267
11
0.3101379527559055
21
3.426103188976378
0
LINE
8
BLACK
6
CONTINUOUS
10
0.3101379527559055
20
3.426103188976378
11
0.3124236220472441
21
3.4131404330708661
0
LINE
8
BLACK
6
CONTINUOUS
10
0.3124236220472441
20
3.4131404330708661
11
0.3131889763779527
21
3.3999999999999999
0
LINE
8
BLACK
6
CONTINUOUS
10
0.3131889763779527
20
3.3999999999999999
11
0.3124236220472441
21
3.3868595669291337
0
LINE
8
BLACK
6
CONTINUOUS
10
0.3124236220472441
20
3.3868595669291337
11
0.3101379527559055
21
3.3738968110236218
0
LINE
8
BLACK
6
CONTINUOUS
10
0.3101379527559055
20
3.3738968110236218
11
0.3063628346456693
21
3.3612870866141731
0
LINE
8
BLACK
6
CONTINUOUS
10
0.3063628346456693
20
3.3612870866141731
11
0.3011493700787402
21
3.3492008661417323
0
LINE
8
BLACK
6
CONTINUOUS
10
0.3011493700787402
20
3.3492008661417323
11
0.2945679921259842
21
3.3378016535433068
0
LINE
8
BLACK
6
CONTINUOUS
10
0.2945679921259842
20
3.3378016535433068
11
0.2867077952755905
21
3.3272435433070866
0
LINE
8
BLACK
6
CONTINUOUS
10
0.2867077952755905
20
3.3272435433070866
11
0.277675
21
3.3176693307086613
0
LINE
8
BLACK
6
CONTINUOUS
10
0.277675
20
3.3176693307086613
11
0.2675917716535433
21
3.3092085039370076
0
LINE
8
BLACK
6
CONTINUOUS
10
0.2675917716535433
20
3.3092085039370076
11
0.2565944881889764
21
3.3019754724409447
0
LINE
8
BLACK
6
CONTINUOUS
10
0.2565944881889764
20
3.3019754724409447
11
0.2448318503937008
21
3.2960680708661418
0
LINE
8
BLACK
6
CONTINUOUS
10
0.2448318503937008
20
3.2960680708661418
11
0.2324629527559055
21
3.2915661417322832
0
LINE
8
BLACK
6
CONTINUOUS
10
0.2324629527559055
20
3.2915661417322832
11
0.2196550787401575
21
3.2885306299212598
0
LINE
8
BLACK
6
CONTINUOUS
10
0.2196550787401575
20
3.2885306299212598
11
0.2065813385826772
21
3.2870025196850392
0
LINE
8
BLACK
6
CONTINUOUS
10
0.2065813385826772
20
3.2870025196850392
11
0.1934186614173228
21
3.2870025196850392
0
LINE
8
BLACK
6
CONTINUOUS
10
0.1934186614173228
20
3.2870025196850392
11
0.1803449212598425
21
3.2885306299212598
0
LINE
8
BLACK
6
CONTINUOUS
10
0.1803449212598425
20
3.2885306299212598
11
0.1675370472440945
21
3.2915661417322832
0
LINE
8
BLACK
6
CONTINUOUS
10
0.1675370472440945
20
3.2915661417322832
11
0.1551681496062992
21
3.2960680708661418
0
LINE
8
BLACK
6
CONTINUOUS
10
0.1551681496062992
20
3.2960680708661418
11
0.1434055118110236
21
3.3019754724409447
0
LINE
8
BLACK
6
CONTINUOUS
10
0.1434055118110236
20
3.3019754724409447
11
0.1324082283464567
21
3.3092085039370076
0
LINE
8
BLACK
6
CONTINUOUS
10
0.1324082283464567
20
3.3092085039370076
11
0.122325
21
3.3176693307086613
0
LINE
8
BLACK
6
CONTINUOUS
10
0.122325
20
3.3176693307086613
11
0.1132922047244094
21
3.3272435433070866
0
LINE
8
BLACK
6
CONTINUOUS
10
0.1132922047244094
20
3.3272435433070866
11
0.1054320078740157
21
3.3378016535433068
0
LINE
8
BLACK
6
CONTINUOUS
10
0.1054320078740157
20
3.3378016535433068
11
0.0988506299212598
21
3.3492008661417323
0
LINE
8
BLACK
6
CONTINUOUS
10
0.0988506299212598
20
3.3492008661417323
11
0.0936371653543307
21
3.3612870866141731
0
LINE
8
BLACK
6
CONTINUOUS
10
0.0936371653543307
20
3.3612870866141731
11
0.0898620472440945
21
3.3738968110236218
0
LINE
8
BLACK
6
CONTINUOUS
10
0.0898620472440945
20
3.3738968110236218
11
0.0875763779527559
21
3.3868595669291337
0
LINE
8
BLACK
6
CONTINUOUS
10
0.0875763779527559
20
3.3868595669291337
11
0.0868110236220472
21
3.3999999999999999
0
LINE
8
BLACK
6
CONTINUOUS
10
0.0868110236220472
20
3.3999999999999999
11
0.0875763779527559
21
3.4131404330708661
0
LINE
8
BLACK
6
CONTINUOUS
10
0.0875763779527559
20
3.4131404330708661
11
0.0898620472440945
21
3.426103188976378
0
LINE
8
BLACK
6
CONTINUOUS
10
0.0898620472440945
20
3.426103188976378
11
0.0936371653543307
21
3.4387129133858267
0
LINE
8
BLACK
6
CONTINUOUS
10
0.0936371653543307
20
3.4387129133858267
11
0.0988506299212598
21
3.4507991338582675
0
LINE
8
BLACK
6
CONTINUOUS
10
0.0988506299212598
20
3.4507991338582675
11
0.1054320078740157
21
3.462198346456693
0
LINE
8
BLACK
6
CONTINUOUS
10
0.1054320078740157
20
3.462198346456693
11
0.1132922047244094
21
3.4727564566929132
0
LINE
8
BLACK
6
CONTINUOUS
10
0.1132922047244094
20
3.4727564566929132
11
0.122325
21
3.4823306692913385
0
LINE
8
BLACK
6
CONTINUOUS
10
0.122325
20
3.4823306692913385
11
0.1324082283464567
21
3.4907914960629922
0
LINE
8
BLACK
6
CONTINUOUS
10
0.1324082283464567
20
3.4907914960629922
11
0.1434055118110236
21
3.4980245275590551
0
LINE
8
BLACK
6
CONTINUOUS
10
0.1434055118110236
20
3.4980245275590551
11
0.1551681496062992
21
3.503931929133858
0
LINE
8
BLACK
6
CONTINUOUS
10
0.1551681496062992
20
3.503931929133858
11
0.1675370472440945
21
3.5084338582677166
0
LINE
8
BLACK
6
CONTINUOUS
10
0.1675370472440945
20
3.5084338582677166
11
0.1803449212598425
21
3.51146937007874
0
LINE
8
BLACK
6
CONTINUOUS
10
0.1803449212598425
20
3.51146937007874
11
0.1934186614173228
21
3.5129974803149606
0
LINE
8
BLACK
6
CONTINUOUS
10
0.1934186614173228
20
3.5129974803149606
11
0.2065813385826772
21
3.5129974803149606
0
LINE
8
BLACK
6
CONTINUOUS
10
0.2065813385826772
20
3.5129974803149606
11
0.2196550787401575
21
3.51146937007874
0
LINE
8
BLACK
6
CONTINUOUS
10
0.093304094488189
20
3.3870447637795276
11
0.0956435826771654
21
3.3742784645669293
0
LINE
8
BLACK
6
CONTINUOUS
10
0.0956435826771654
20
3.3742784645669293
11
0.099504842519685
21
3.3618872047244093
0
LINE
8
BLACK
6
CONTINUOUS
10
0.099504842519685
20
3.3618872047244093
11
0.1048315748031496
21
3.3500517716535434
0
LINE
8
BLACK
6
CONTINUOUS
10
0.1048315748031496
20
3.3500517716535434
11
0.111546062992126
21
3.3389446456692911
0
LINE
8
BLACK
6
CONTINUOUS
10
0.111546062992126
20
3.3389446456692911
11
0.1195503937007874
21
3.328727874015748
0
LINE
8
BLACK
6
CONTINUOUS
10
0.1195503937007874
20
3.328727874015748
11
0.128727874015748
21
3.3195503937007875
0
LINE
8
BLACK
6
CONTINUOUS
10
0.128727874015748
20
3.3195503937007875
11
0.1389446456692913
21
3.3115460629921261
0
LINE
8
BLACK
6
CONTINUOUS
10
0.1389446456692913
20
3.3115460629921261
11
0.1500517716535433
21
3.3048315748031496
0
LINE
8
BLACK
6
CONTINUOUS
10
0.1500517716535433
20
3.3048315748031496
11
0.1618872047244095
21
3.2995048425196849
0
LINE
8
BLACK
6
CONTINUOUS
10
0.1618872047244095
20
3.2995048425196849
11
0.1742784645669291
21
3.2956435826771653
0
LINE
8
BLACK
6
CONTINUOUS
10
0.1742784645669291
20
3.2956435826771653
11
0.1870447637795276
21
3.2933040944881888
0
LINE
8
BLACK
6
CONTINUOUS
10
0.1870447637795276
20
3.2933040944881888
11
0.2
21
3.2925204330708659
0
LINE
8
BLACK
6
CONTINUOUS
10
0.2
20
3.2925204330708659
11
0.2129552362204724
21
3.2933040944881888
0
LINE
8
BLACK
6
CONTINUOUS
10
0.2129552362204724
20
3.2933040944881888
11
0.2257215354330709
21
3.2956435826771653
0
LINE
8
BLACK
6
CONTINUOUS
10
0.2257215354330709
20
3.2956435826771653
11
0.2381127952755905
21
3.2995048425196849
0
LINE
8
BLACK
6
CONTINUOUS
10
0.2381127952755905
20
3.2995048425196849
11
0.2499482283464567
21
3.3048315748031496
0
LINE
8
BLACK
6
CONTINUOUS
10
0.2499482283464567
20
3.3048315748031496
11
0.2610553543307086
21
3.3115460629921261
0
LINE
8
BLACK
6
CONTINUOUS
10
0.2610553543307086
20
3.3115460629921261
11
0.271272125984252
21
3.3195503937007875
0
LINE
8
BLACK
6
CONTINUOUS
10
0.271272125984252
20
3.3195503937007875
11
0.2804496062992126
21
3.328727874015748
0
LINE
8
BLACK
6
CONTINUOUS
10
0.2804496062992126
20
3.328727874015748
11
0.288453937007874
21
3.3389446456692911
0
LINE
8
BLACK
6
CONTINUOUS
10
0.288453937007874
20
3.3389446456692911
11
0.2951684251968504
21
3.3500517716535434
0
LINE
8
BLACK
6
CONTINUOUS
10
0.2951684251968504
20
3.3500517716535434
11
0.300495157480315
21
3.3618872047244093
0
LINE
8
BLACK
6
CONTINUOUS
10
0.300495157480315
20
3.3618872047244093
11
0.3043564173228346
21
3.3742784645669293
0
LINE
8
BLACK
6
CONTINUOUS
10
0.3043564173228346
20
3.3742784645669293
11
0.306695905511811
21
3.3870447637795276
0
LINE
8
BLACK
6
CONTINUOUS
10
0.306695905511811
20
3.3870447637795276
11
0.3074795669291339
21
3.3999999999999999
0
LINE
8
BLACK
6
CONTINUOUS
10
0.3074795669291339
20
3.3999999999999999
11
0.306695905511811
21
3.4129552362204723
0
LINE
8
BLACK
6
CONTINUOUS
10
0.306695905511811
20
3.4129552362204723
11
0.3043564173228346
21
3.425721535433071
0
LINE
8
BLACK
6
CONTINUOUS
10
0.3043564173228346
20
3.425721535433071
11
0.300495157480315
21
3.4381127952755905
0
LINE
8
BLACK
6
CONTINUOUS
10
0.300495157480315
20
3.4381127952755905
11
0.2951684251968504
21
3.4499482283464564
0
LINE
8
BLACK
6
CONTINUOUS
10
0.2951684251968504
20
3.4499482283464564
11
0.288453937007874
21
3.4610553543307088
0
LINE
8
BLACK
6
CONTINUOUS
10
0.288453937007874
20
3.4610553543307088
11
0.2804496062992126
21
3.4712721259842518
0
LINE
8
BLACK
6
CONTINUOUS
10
0.2804496062992126
20
3.4712721259842518
11
0.271272125984252
21
3.4804496062992127
0
LINE
8
BLACK
6
CONTINUOUS
10
0.271272125984252
20
3.4804496062992127
11
0.2610553543307086
21
3.4884539370078738
0
LINE
8
BLACK
6
CONTINUOUS
10
0.2610553543307086
20
3.4884539370078738
11
0.2499482283464567
21
3.4951684251968502
0
LINE
8
BLACK
6
CONTINUOUS
10
0.2499482283464567
20
3.4951684251968502
11
0.2381127952755905
21
3.5004951574803149
0
LINE
8
BLACK
6
CONTINUOUS
10
0.2381127952755905
20
3.5004951574803149
11
0.2257215354330709
21
3.5043564173228345
0
LINE
8
BLACK
6
CONTINUOUS
10
0.2257215354330709
20
3.5043564173228345
11
0.2129552362204724
21
3.506695905511811
0
LINE
8
BLACK
6
CONTINUOUS
10
0.2129552362204724
20
3.506695905511811
11
0.2
21
3.5074795669291339
0
LINE
8
BLACK
6
CONTINUOUS
10
0.2
20
3.5074795669291339
11
0.1870447637795276
21
3.506695905511811
0
LINE
8
BLACK
6
CONTINUOUS
10
0.1870447637795276
20
3.506695905511811
11
0.1742784645669291
21
3.5043564173228345
0
LINE
8
BLACK
6
CONTINUOUS
10
0.1742784645669291
20
3.5043564173228345
11
0.1618872047244095
21
3.5004951574803149
0
LINE
8
BLACK
6
CONTINUOUS
10
0.1618872047244095
20
3.5004951574803149
11
0.1500517716535433
21
3.4951684251968502
0
LINE
8
BLACK
6
CONTINUOUS
10
0.1500517716535433
20
3.4951684251968502
11
0.1389446456692913
21
3.4884539370078738
0
LINE
8
BLACK
6
CONTINUOUS
10
0.1389446456692913
20
3.4884539370078738
11
0.128727874015748
21
3.4804496062992127
0
LINE
8
BLACK
6
CONTINUOUS
10
0.128727874015748
20
3.4804496062992127
11
0.1195503937007874
21
3.4712721259842518
0
LINE
8
BLACK
6
CONTINUOUS
10
0.1195503937007874
20
3.4712721259842518
11
0.111546062992126
21
3.4610553543307088
0
LINE
8
BLACK
6
CONTINUOUS
10
0.111546062992126
20
3.4610553543307088
11
0.1048315748031496
21
3.4499482283464564
0
LINE
8
BLACK
6
CONTINUOUS
10
0.1048315748031496
20
3.4499482283464564
11
0.099504842519685
21
3.4381127952755905
0
LINE
8
BLACK
6
CONTINUOUS
10
0.099504842519685
20
3.4381127952755905
11
0.0956435826771654
21
3.425721535433071
0
LINE
8
BLACK
6
CONTINUOUS
10
0.0956435826771654
20
3.425721535433071
11
0.093304094488189
21
3.4129552362204723
0
LINE
8
BLACK
6
CONTINUOUS
10
0.093304094488189
20
3.4129552362204723
11
0.0925204330708661
21
3.3999999999999999
0
LINE
8
BLACK
6
CONTINUOUS
10
0.0925204330708661
20
3.3999999999999999
11
0.093304094488189
21
3.3870447637795276
0
LINE
8
BLACK
6
CONTINUOUS
10
1.8196550787401575
20
3.51146937007874
11
1.8324629527559055
21
3.5084338582677166
0
LINE
8
BLACK
6
CONTINUOUS
10
1.8324629527559055
20
3.5084338582677166
11
1.8448318503937007
21
3.503931929133858
0
LINE
8
BLACK
6
CONTINUOUS
10
1.8448318503937007
20
3.503931929133858
11
1.8565944881889764
21
3.4980245275590551
0
LINE
8
BLACK
6
CONTINUOUS
10
1.8565944881889764
20
3.4980245275590551
11
1.8675917716535433
21
3.4907914960629922
0
LINE
8
BLACK
6
CONTINUOUS
10
1.8675917716535433
20
3.4907914960629922
11
1.877675
21
3.4823306692913385
0
LINE
8
BLACK
6
CONTINUOUS
10
1.877675
20
3.4823306692913385
11
1.8867077952755904
21
3.4727564566929132
0
LINE
8
BLACK
6
CONTINUOUS
10
1.8867077952755904
20
3.4727564566929132
11
1.8945679921259841
21
3.462198346456693
0
LINE
8
BLACK
6
CONTINUOUS
10
1.8945679921259841
20
3.462198346456693
11
1.9011493700787401
21
3.4507991338582675
0
LINE
8
BLACK
6
CONTINUOUS
10
1.9011493700787401
20
3.4507991338582675
11
1.9063628346456694
21
3.4387129133858267
0
LINE
8
BLACK
6
CONTINUOUS
10
1.9063628346456694
20
3.4387129133858267
11
1.9101379527559055
21
3.426103188976378
0
LINE
8
BLACK
6
CONTINUOUS
10
1.9101379527559055
20
3.426103188976378
11
1.9124236220472441
21
3.4131404330708661
0
LINE
8
BLACK
6
CONTINUOUS
10
1.9124236220472441
20
3.4131404330708661
11
1.9131889763779528
21
3.3999999999999999
0
LINE
8
BLACK
6
CONTINUOUS
10
1.9131889763779528
20
3.3999999999999999
11
1.9124236220472441
21
3.3868595669291337
0
LINE
8
BLACK
6
CONTINUOUS
10
1.9124236220472441
20
3.3868595669291337
11
1.9101379527559055
21
3.3738968110236218
0
LINE
8
BLACK
6
CONTINUOUS
10
1.9101379527559055
20
3.3738968110236218
11
1.9063628346456694
21
3.3612870866141731
0
LINE
8
BLACK
6
CONTINUOUS
10
1.9063628346456694
20
3.3612870866141731
11
1.9011493700787401
21
3.3492008661417323
0
LINE
8
BLACK
6
CONTINUOUS
10
1.9011493700787401
20
3.3492008661417323
11
1.8945679921259841
21
3.3378016535433068
0
LINE
8
BLACK
6
CONTINUOUS
10
1.8945679921259841
20
3.3378016535433068
11
1.8867077952755904
21
3.3272435433070866
0
LINE
8
BLACK
6
CONTINUOUS
10
1.8867077952755904
20
3.3272435433070866
11
1.877675
21
3.3176693307086613
0
LINE
8
BLACK
6
CONTINUOUS
10
1.877675
20
3.3176693307086613
11
1.8675917716535433
21
3.3092085039370076
0
LINE
8
BLACK
6
CONTINUOUS
10
1.8675917716535433
20
3.3092085039370076
11
1.8565944881889764
21
3.3019754724409447
0
LINE
8
BLACK
6
CONTINUOUS
10
1.8565944881889764
20
3.3019754724409447
11
1.8448318503937007
21
3.2960680708661418
0
LINE
8
BLACK
6
CONTINUOUS
10
1.8448318503937007
20
3.2960680708661418
11
1.8324629527559055
21
3.2915661417322832
0
LINE
8
BLACK
6
CONTINUOUS
10
1.8324629527559055
20
3.2915661417322832
11
1.8196550787401575
21
3.2885306299212598
0
LINE
8
BLACK
6
CONTINUOUS
10
1.8196550787401575
20
3.2885306299212598
11
1.8065813385826772
21
3.2870025196850392
0
LINE
8
BLACK
6
CONTINUOUS
10
1.8065813385826772
20
3.2870025196850392
11
1.7934186614173229
21
3.2870025196850392
0
LINE
8
BLACK
6
CONTINUOUS
10
1.7934186614173229
20
3.2870025196850392
11
1.7803449212598426
21
3.2885306299212598
0
LINE
8
BLACK
6
CONTINUOUS
10
1.7803449212598426
20
3.2885306299212598
11
1.7675370472440946
21
3.2915661417322832
0
LINE
8
BLACK
6
CONTINUOUS
10
1.7675370472440946
20
3.2915661417322832
11
1.7551681496062992
21
3.2960680708661418
0
LINE
8
BLACK
6
CONTINUOUS
10
1.7551681496062992
20
3.2960680708661418
11
1.7434055118110237
21
3.3019754724409447
0
LINE
8
BLACK
6
CONTINUOUS
10
1.7434055118110237
20
3.3019754724409447
11
1.7324082283464566
21
3.3092085039370076
0
LINE
8
BLACK
6
CONTINUOUS
10
1.7324082283464566
20
3.3092085039370076
11
1.7223249999999999
21
3.3176693307086613
0
LINE
8
BLACK
6
CONTINUOUS
10
1.7223249999999999
20
3.3176693307086613
11
1.7132922047244095
21
3.3272435433070866
0
LINE
8
BLACK
6
CONTINUOUS
10
1.7132922047244095
20
3.3272435433070866
11
1.7054320078740157
21
3.3378016535433068
0
LINE
8
BLACK
6
CONTINUOUS
10
1.7054320078740157
20
3.3378016535433068
11
1.6988506299212598
21
3.3492008661417323
0
LINE
8
BLACK
6
CONTINUOUS
10
1.6988506299212598
20
3.3492008661417323
11
1.6936371653543307
21
3.3612870866141731
0
LINE
8
BLACK
6
CONTINUOUS
10
1.6936371653543307
20
3.3612870866141731
11
1.6898620472440944
21
3.3738968110236218
0
LINE
8
BLACK
6
CONTINUOUS
10
1.6898620472440944
20
3.3738968110236218
11
1.6875763779527559
21
3.3868595669291337
0
LINE
8
BLACK
6
CONTINUOUS
10
1.6875763779527559
20
3.3868595669291337
11
1.6868110236220473
21
3.3999999999999999
0
LINE
8
BLACK
6
CONTINUOUS
10
1.6868110236220473
20
3.3999999999999999
11
1.6875763779527559
21
3.4131404330708661
0
LINE
8
BLACK
6
CONTINUOUS
10
1.6875763779527559
20
3.4131404330708661
11
1.6898620472440944
21
3.426103188976378
0
LINE
8
BLACK
6
CONTINUOUS
10
1.6898620472440944
20
3.426103188976378
11
1.6936371653543307
21
3.4387129133858267
0
LINE
8
BLACK
6
CONTINUOUS
10
1.6936371653543307
20
3.4387129133858267
11
1.6988506299212598
21
3.4507991338582675
0
LINE
8
BLACK
6
CONTINUOUS
10
1.6988506299212598
20
3.4507991338582675
11
1.7054320078740157
21
3.462198346456693
0
LINE
8
BLACK
6
CONTINUOUS
10
1.7054320078740157
20
3.462198346456693
11
1.7132922047244095
21
3.4727564566929132
0
LINE
8
BLACK
6
CONTINUOUS
10
1.7132922047244095
20
3.4727564566929132
11
1.7223249999999999
21
3.4823306692913385
0
LINE
8
BLACK
6
CONTINUOUS
10
1.7223249999999999
20
3.4823306692913385
11
1.7324082283464566
21
3.4907914960629922
0
LINE
8
BLACK
6
CONTINUOUS
10
1.7324082283464566
20
3.4907914960629922
11
1.7434055118110237
21
3.4980245275590551
0
LINE
8
BLACK
6
CONTINUOUS
10
1.7434055118110237
20
3.4980245275590551
11
1.7551681496062992
21
3.503931929133858
0
LINE
8
BLACK
6
CONTINUOUS
10
1.7551681496062992
20
3.503931929133858
11
1.7675370472440946
21
3.5084338582677166
0
LINE
8
BLACK
6
CONTINUOUS
10
1.7675370472440946
20
3.5084338582677166
11
1.7803449212598426
21
3.51146937007874
0
LINE
8
BLACK
6
CONTINUOUS
10
1.7803449212598426
20
3.51146937007874
11
1.7934186614173229
21
3.5129974803149606
0
LINE
8
BLACK
6
CONTINUOUS
10
1.7934186614173229
20
3.5129974803149606
11
1.8065813385826772
21
3.5129974803149606
0
LINE
8
BLACK
6
CONTINUOUS
10
1.8065813385826772
20
3.5129974803149606
11
1.8196550787401575
21
3.51146937007874
0
LINE
8
BLACK
6
CONTINUOUS
10
1.693304094488189
20
3.3870447637795276
11
1.6956435826771654
21
3.3742784645669293
0
LINE
8
BLACK
6
CONTINUOUS
10
1.6956435826771654
20
3.3742784645669293
11
1.699504842519685
21
3.3618872047244093
0
LINE
8
BLACK
6
CONTINUOUS
10
1.699504842519685
20
3.3618872047244093
11
1.7048315748031495
21
3.3500517716535434
0
LINE
8
BLACK
6
CONTINUOUS
10
1.7048315748031495
20
3.3500517716535434
11
1.711546062992126
21
3.3389446456692911
0
LINE
8
BLACK
6
CONTINUOUS
10
1.711546062992126
20
3.3389446456692911
11
1.7195503937007874
21
3.328727874015748
0
LINE
8
BLACK
6
CONTINUOUS
10
1.7195503937007874
20
3.328727874015748
11
1.7287278740157479
21
3.3195503937007875
0
LINE
8
BLACK
6
CONTINUOUS
10
1.7287278740157479
20
3.3195503937007875
11
1.7389446456692912
21
3.3115460629921261
0
LINE
8
BLACK
6
CONTINUOUS
10
1.7389446456692912
20
3.3115460629921261
11
1.7500517716535433
21
3.3048315748031496
0
LINE
8
BLACK
6
CONTINUOUS
10
1.7500517716535433
20
3.3048315748031496
11
1.7618872047244094
21
3.2995048425196849
0
LINE
8
BLACK
6
CONTINUOUS
10
1.7618872047244094
20
3.2995048425196849
11
1.7742784645669292
21
3.2956435826771653
0
LINE
8
BLACK
6
CONTINUOUS
10
1.7742784645669292
20
3.2956435826771653
11
1.7870447637795275
21
3.2933040944881888
0
LINE
8
BLACK
6
CONTINUOUS
10
1.7870447637795275
20
3.2933040944881888
11
1.8
21
3.2925204330708659
0
LINE
8
BLACK
6
CONTINUOUS
10
1.8
20
3.2925204330708659
11
1.8129552362204724
21
3.2933040944881888
0
LINE
8
BLACK
6
CONTINUOUS
10
1.8129552362204724
20
3.2933040944881888
11
1.8257215354330709
21
3.2956435826771653
0
LINE
8
BLACK
6
CONTINUOUS
10
1.8257215354330709
20
3.2956435826771653
11
1.8381127952755905
21
3.2995048425196849
0
LINE
8
BLACK
6
CONTINUOUS
10
1.8381127952755905
20
3.2995048425196849
11
1.8499482283464566
21
3.3048315748031496
0
LINE
8
BLACK
6
CONTINUOUS
10
1.8499482283464566
20
3.3048315748031496
11
1.8610553543307087
21
3.3115460629921261
0
LINE
8
BLACK
6
CONTINUOUS
10
1.8610553543307087
20
3.3115460629921261
11
1.871272125984252
21
3.3195503937007875
0
LINE
8
BLACK
6
CONTINUOUS
10
1.871272125984252
20
3.3195503937007875
11
1.8804496062992127
21
3.328727874015748
0
LINE
8
BLACK
6
CONTINUOUS
10
1.8804496062992127
20
3.328727874015748
11
1.8884539370078739
21
3.3389446456692911
0
LINE
8
BLACK
6
CONTINUOUS
10
1.8884539370078739
20
3.3389446456692911
11
1.8951684251968504
21
3.3500517716535434
0
LINE
8
BLACK
6
CONTINUOUS
10
1.8951684251968504
20
3.3500517716535434
11
1.9004951574803148
21
3.3618872047244093
0
LINE
8
BLACK
6
CONTINUOUS
10
1.9004951574803148
20
3.3618872047244093
11
1.9043564173228347
21
3.3742784645669293
0
LINE
8
BLACK
6
CONTINUOUS
10
1.9043564173228347
20
3.3742784645669293
11
1.9066959055118109
21
3.3870447637795276
0
LINE
8
BLACK
6
CONTINUOUS
10
1.9066959055118109
20
3.3870447637795276
11
1.9074795669291338
21
3.3999999999999999
0
LINE
8
BLACK
6
CONTINUOUS
10
1.9074795669291338
20
3.3999999999999999
11
1.9066959055118109
21
3.4129552362204723
0
LINE
8
BLACK
6
CONTINUOUS
10
1.9066959055118109
20
3.4129552362204723
11
1.9043564173228347
21
3.425721535433071
0
LINE
8
BLACK
6
CONTINUOUS
10
1.9043564173228347
20
3.425721535433071
11
1.9004951574803148
21
3.4381127952755905
0
LINE
8
BLACK
6
CONTINUOUS
10
1.9004951574803148
20
3.4381127952755905
11
1.8951684251968504
21
3.4499482283464564
0
LINE
8
BLACK
6
CONTINUOUS
10
1.8951684251968504
20
3.4499482283464564
11
1.8884539370078739
21
3.4610553543307088
0
LINE
8
BLACK
6
CONTINUOUS
10
1.8884539370078739
20
3.4610553543307088
11
1.8804496062992127
21
3.4712721259842518
0
LINE
8
BLACK
6
CONTINUOUS
10
1.8804496062992127
20
3.4712721259842518
11
1.871272125984252
21
3.4804496062992127
0
LINE
8
BLACK
6
CONTINUOUS
10
1.871272125984252
20
3.4804496062992127
11
1.8610553543307087
21
3.4884539370078738
0
LINE
8
BLACK
6
CONTINUOUS
10
1.8610553543307087
20
3.4884539370078738
11
1.8499482283464566
21
3.4951684251968502
0
LINE
8
BLACK
6
CONTINUOUS
10
1.8499482283464566
20
3.4951684251968502
11
1.8381127952755905
21
3.5004951574803149
0
LINE
8
BLACK
6
CONTINUOUS
10
1.8381127952755905
20
3.5004951574803149
11
1.8257215354330709
21
3.5043564173228345
0
LINE
8
BLACK
6
CONTINUOUS
10
1.8257215354330709
20
3.5043564173228345
11
1.8129552362204724
21
3.506695905511811
0
LINE
8
BLACK
6
CONTINUOUS
10
1.8129552362204724
20
3.506695905511811
11
1.8
21
3.5074795669291339
0
LINE
8
BLACK
6
CONTINUOUS
10
1.8
20
3.5074795669291339
11
1.7870447637795275
21
3.506695905511811
0
LINE
8
BLACK
6
CONTINUOUS
10
1.7870447637795275
20
3.506695905511811
11
1.7742784645669292
21
3.5043564173228345
0
LINE
8
BLACK
6
CONTINUOUS
10
1.7742784645669292
20
3.5043564173228345
11
1.7618872047244094
21
3.5004951574803149
0
LINE
8
BLACK
6
CONTINUOUS
10
1.7618872047244094
20
3.5004951574803149
11
1.7500517716535433
21
3.4951684251968502
0
LINE
8
BLACK
6
CONTINUOUS
10
1.7500517716535433
20
3.4951684251968502
11
1.7389446456692912
21
3.4884539370078738
0
LINE
8
BLACK
6
CONTINUOUS
10
1.7389446456692912
20
3.4884539370078738
11
1.7287278740157479
21
3.4804496062992127
0
LINE
8
BLACK
6
CONTINUOUS
10
1.7287278740157479
20
3.4804496062992127
11
1.7195503937007874
21
3.4712721259842518
0
LINE
8
BLACK
6
CONTINUOUS
10
1.7195503937007874
20
3.4712721259842518
11
1.711546062992126
21
3.4610553543307088
0
LINE
8
BLACK
6
CONTINUOUS
10
1.711546062992126
20
3.4610553543307088
11
1.7048315748031495
21
3.4499482283464564
0
LINE
8
BLACK
6
CONTINUOUS
10
1.7048315748031495
20
3.4499482283464564
11
1.699504842519685
21
3.4381127952755905
0
LINE
8
BLACK
6
CONTINUOUS
10
1.699504842519685
20
3.4381127952755905
11
1.6956435826771654
21
3.425721535433071
0
LINE
8
BLACK
6
CONTINUOUS
10
1.6956435826771654
20
3.425721535433071
11
1.693304094488189
21
3.4129552362204723
0
LINE
8
BLACK
6
CONTINUOUS
10
1.693304094488189
20
3.4129552362204723
11
1.6925204330708661
21
3.3999999999999999
0
LINE
8
BLACK
6
CONTINUOUS
10
1.6925204330708661
20
3.3999999999999999
11
1.693304094488189
21
3.3870447637795276
0
CIRCLE
8
BLACK
10
0.25
20
2.7999999999999998
40
0.0068897637795276
0
CIRCLE
8
BLACK
10
0.25
20
2.8999999999999999
40
0.0068897637795276
0
CIRCLE
8
BLACK
10
0.35
20
2.7999999999999998
40
0.0068897637795276
0
CIRCLE
8
BLACK
10
0.35
20
2.8999999999999999
40
0.0068897637795276
0
CIRCLE
8
BLACK
10
0.45
20
2.7999999999999998
40
0.0068897637795276
0
CIRCLE
8
BLACK
10
0.45
20
2.8999999999999999
40
0.0068897637795276
0
CIRCLE
8
BLACK
10
0.5499999999999999
20
2.7999999999999998
40
0.0068897637795276
0
CIRCLE
8
BLACK
10
0.5499999999999999
20
2.8999999999999999
40
0.0068897637795276
0
CIRCLE
8
BLACK
10
0.65
20
2.7999999999999998
40
0.0068897637795276
0
CIRCLE
8
BLACK
10
0.65
20
2.8999999999999999
40
0.0068897637795276
0
CIRCLE
8
BLACK
10
0.75
20
2.7999999999999998
40
0.0068897637795276
0
CIRCLE
8
BLACK
10
0.75
20
2.8999999999999999
40
0.0068897637795276
0
CIRCLE
8
BLACK
10
0.85
20
2.7999999999999998
40
0.0068897637795276
0
CIRCLE
8
BLACK
10
0.85
20
2.8999999999999999
40
0.0068897637795276
0
CIRCLE
8
BLACK
10
0.95
20
2.7999999999999998
40
0.0068897637795276
0
CIRCLE
8
BLACK
10
0.95
20
2.8999999999999999
40
0.0068897637795276
0
CIRCLE
8
BLACK
10
1.05
20
2.7999999999999998
40
0.0068897637795276
0
CIRCLE
8
BLACK
10
1.05
20
2.8999999999999999
40
0.0068897637795276
0
CIRCLE
8
BLACK
10
1.1499999999999999
20
2.7999999999999998
40
0.0068897637795276
0
CIRCLE
8
BLACK
10
1.1499999999999999
20
2.8999999999999999
40
0.0068897637795276
0
CIRCLE
8
BLACK
10
1.25
20
2.7999999999999998
40
0.0068897637795276
0
CIRCLE
8
BLACK
10
1.25
20
2.8999999999999999
40
0.0068897637795276
0
CIRCLE
8
BLACK
10
1.3499999999999999
20
2.7999999999999998
40
0.0068897637795276
0
CIRCLE
8
BLACK
10
1.3499999999999999
20
2.8999999999999999
40
0.0068897637795276
0
CIRCLE
8
BLACK
10
1.45
20
2.7999999999999998
40
0.0068897637795276
0
CIRCLE
8
BLACK
10
1.45
20
2.8999999999999999
40
0.0068897637795276
0
CIRCLE
8
BLACK
10
1.55
20
2.7999999999999998
40
0.0068897637795276
0
CIRCLE
8
BLACK
10
1.55
20
2.8999999999999999
40
0.0068897637795276
0
CIRCLE
8
BLACK
10
1.6499999999999999
20
2.7999999999999998
40
0.0068897637795276
0
CIRCLE
8
BLACK
10
1.6499999999999999
20
2.8999999999999999
40
0.0068897637795276
0
CIRCLE
8
BLACK
10
1.75
20
2.7999999999999998
40
0.0068897637795276
0
CIRCLE
8
BLACK
10
1.75
20
2.8999999999999999
40
0.0068897637795276
0
CIRCLE
8
BLACK
10
0.8618110236220472
20
3.1413385826771654
40
0.0068897637795276
0
CIRCLE
8
BLACK
10
0.7618110236220472
20
3.1413385826771654
40
0.0068897637795276
0
CIRCLE
8
BLACK
10
0.8618110236220472
20
3.2413385826771655
40
0.0068897637795276
0
CIRCLE
8
BLACK
10
0.7618110236220472
20
3.2413385826771655
40
0.0068897637795276
0
CIRCLE
8
BLACK
10
0.8618110236220472
20
3.3413385826771651
40
0.0068897637795276
0
CIRCLE
8
BLACK
10
0.7618110236220472
20
3.3413385826771651
40
0.0068897637795276
0
CIRCLE
8
BLACK
10
1.0275590551181102
20
3.1887795275590549
40
0.0068897637795276
0
CIRCLE
8
BLACK
10
1.0275590551181102
20
3.0887795275590548
40
0.0068897637795276
0
CIRCLE
8
BLACK
10
0.2
20
0.2
40
0.0068897637795276
0
CIRCLE
8
BLACK
10
1.8499999999999999
20
0.4
40
0.0068897637795276
0
CIRCLE
8
BLACK
10
1.75
20
0.4
40
0.0068897637795276
0
CIRCLE
8
BLACK
10
0.2
20
3.3999999999999999
40
0.0068897637795276
0
CIRCLE
8
BLACK
10
1.8
20
3.3999999999999999
40
0.0068897637795276
0
CIRCLE
8
BLACK
10
1.2921259842519686
20
1.0700000000000001
40
0.0068897637795276
0
CIRCLE
8
BLACK
10
1.0999999999999999
20
1.0700000000000001
40
0.0068897637795276
0
CIRCLE
8
BLACK
10
1.05
20
0.1
40
0.0068897637795276
0
CIRCLE
8
BLACK
10
1.1499999999999999
20
0.1
40
0.0068897637795276
0
CIRCLE
8
BLACK
10
1.25
20
0.1
40
0.0068897637795276
0
CIRCLE
8
BLACK
10
1.3499999999999999
20
0.1
40
0.0068897637795276
0
CIRCLE
8
BLACK
10
1.45
20
0.1
40
0.0068897637795276
0
CIRCLE
8
BLACK
10
1.55
20
0.1
40
0.0068897637795276
0
CIRCLE
8
BLACK
10
0.4074803149606299
20
3.4446850393700785
40
0.0068897637795276
0
CIRCLE
8
BLACK
10
0.4074803149606299
20
3.3446850393700789
40
0.0068897637795276
0
CIRCLE
8
BLACK
10
0.25
20
0.95
40
0.0068897637795276
0
CIRCLE
8
BLACK
10
0.15
20
0.95
40
0.0068897637795276
0
CIRCLE
8
BLACK
10
0.25
20
1.05
40
0.0068897637795276
0
CIRCLE
8
BLACK
10
0.15
20
1.05
40
0.0068897637795276
0
CIRCLE
8
BLACK
10
0.25
20
1.1499999999999999
40
0.0068897637795276
0
CIRCLE
8
BLACK
10
0.15
20
1.1499999999999999
40
0.0068897637795276
0
CIRCLE
8
BLACK
10
0.25
20
1.25
40
0.0068897637795276
0
CIRCLE
8
BLACK
10
0.15
20
1.25
40
0.0068897637795276
0
CIRCLE
8
BLACK
10
0.25
20
1.3499999999999999
40
0.0068897637795276
0
CIRCLE
8
BLACK
10
0.15
20
1.3499999999999999
40
0.0068897637795276
0
CIRCLE
8
BLACK
10
0.25
20
1.45
40
0.0068897637795276
0
CIRCLE
8
BLACK
10
0.15
20
1.45
40
0.0068897637795276
0
CIRCLE
8
BLACK
10
0.25
20
1.55
40
0.0068897637795276
0
CIRCLE
8
BLACK
10
0.15
20
1.55
40
0.0068897637795276
0
CIRCLE
8
BLACK
10
0.25
20
1.6499999999999999
40
0.0068897637795276
0
CIRCLE
8
BLACK
10
0.15
20
1.6499999999999999
40
0.0068897637795276
0
CIRCLE
8
BLACK
10
0.25
20
1.75
40
0.0068897637795276
0
CIRCLE
8
BLACK
10
0.15
20
1.75
40
0.0068897637795276
0
CIRCLE
8
BLACK
10
0.25
20
1.8499999999999999
40
0.0068897637795276
0
CIRCLE
8
BLACK
10
0.15
20
1.8499999999999999
40
0.0068897637795276
0
CIRCLE
8
BLACK
10
0.25
20
1.95
40
0.0068897637795276
0
CIRCLE
8
BLACK
10
0.15
20
1.95
40
0.0068897637795276
0
CIRCLE
8
BLACK
10
0.25
20
2.0499999999999998
40
0.0068897637795276
0
CIRCLE
8
BLACK
10
0.15
20
2.0499999999999998
40
0.0068897637795276
0
CIRCLE
8
BLACK
10
0.25
20
2.1499999999999999
40
0.0068897637795276
0
CIRCLE
8
BLACK
10
0.15
20
2.1499999999999999
40
0.0068897637795276
0
CIRCLE
8
BLACK
10
0.25
20
2.25
40
0.0068897637795276
0
CIRCLE
8
BLACK
10
0.15
20
2.25
40
0.0068897637795276
0
CIRCLE
8
BLACK
10
0.25
20
2.3500000000000001
40
0.0068897637795276
0
CIRCLE
8
BLACK
10
0.15
20
2.3500000000000001
40
0.0068897637795276
0
CIRCLE
8
BLACK
10
0.25
20
2.4499999999999997
40
0.0068897637795276
0
CIRCLE
8
BLACK
10
0.15
20
2.4499999999999997
40
0.0068897637795276
0
CIRCLE
8
BLACK
10
1.8
20
0.2
40
0.0068897637795276
0
CIRCLE
8
BLACK
10
1.7498031496062991
20
2.4499999999999997
40
0.0068897637795276
0
CIRCLE
8
BLACK
10
1.8498031496062992
20
2.4499999999999997
40
0.0068897637795276
0
CIRCLE
8
BLACK
10
1.7498031496062991
20
2.3500000000000001
40
0.0068897637795276
0
CIRCLE
8
BLACK
10
1.8498031496062992
20
2.3500000000000001
40
0.0068897637795276
0
CIRCLE
8
BLACK
10
1.7498031496062991
20
2.25
40
0.0068897637795276
0
CIRCLE
8
BLACK
10
1.8498031496062992
20
2.25
40
0.0068897637795276
0
CIRCLE
8
BLACK
10
1.7498031496062991
20
2.1499999999999999
40
0.0068897637795276
0
CIRCLE
8
BLACK
10
1.8498031496062992
20
2.1499999999999999
40
0.0068897637795276
0
CIRCLE
8
BLACK
10
1.7498031496062991
20
2.0499999999999998
40
0.0068897637795276
0
CIRCLE
8
BLACK
10
1.8498031496062992
20
2.0499999999999998
40
0.0068897637795276
0
CIRCLE
8
BLACK
10
1.7498031496062991
20
1.95
40
0.0068897637795276
0
CIRCLE
8
BLACK
10
1.8498031496062992
20
1.95
40
0.0068897637795276
0
CIRCLE
8
BLACK
10
1.7498031496062991
20
1.8499999999999999
40
0.0068897637795276
0
CIRCLE
8
BLACK
10
1.8498031496062992
20
1.8499999999999999
40
0.0068897637795276
0
CIRCLE
8
BLACK
10
1.7498031496062991
20
1.75
40
0.0068897637795276
0
CIRCLE
8
BLACK
10
1.8498031496062992
20
1.75
40
0.0068897637795276
0
CIRCLE
8
BLACK
10
1.7498031496062991
20
1.6499999999999999
40
0.0068897637795276
0
CIRCLE
8
BLACK
10
1.8498031496062992
20
1.6499999999999999
40
0.0068897637795276
0
CIRCLE
8
BLACK
10
1.7498031496062991
20
1.55
40
0.0068897637795276
0
CIRCLE
8
BLACK
10
1.8498031496062992
20
1.55
40
0.0068897637795276
0
CIRCLE
8
BLACK
10
1.7498031496062991
20
1.45
40
0.0068897637795276
0
CIRCLE
8
BLACK
10
1.8498031496062992
20
1.45
40
0.0068897637795276
0
CIRCLE
8
BLACK
10
1.7498031496062991
20
1.3499999999999999
40
0.0068897637795276
0
CIRCLE
8
BLACK
10
1.8498031496062992
20
1.3499999999999999
40
0.0068897637795276
0
CIRCLE
8
BLACK
10
1.7498031496062991
20
1.25
40
0.0068897637795276
0
CIRCLE
8
BLACK
10
1.8498031496062992
20
1.25
40
0.0068897637795276
0
CIRCLE
8
BLACK
10
1.7498031496062991
20
1.1499999999999999
40
0.0068897637795276
0
CIRCLE
8
BLACK
10
1.8498031496062992
20
1.1499999999999999
40
0.0068897637795276
0
CIRCLE
8
BLACK
10
1.7498031496062991
20
1.05
40
0.0068897637795276
0
CIRCLE
8
BLACK
10
1.8498031496062992
20
1.05
40
0.0068897637795276
0
CIRCLE
8
BLACK
10
1.7498031496062991
20
0.95
40
0.0068897637795276
0
CIRCLE
8
BLACK
10
1.8498031496062992
20
0.95
40
0.0068897637795276
0
CIRCLE
8
BLACK
10
1.2027559055118109
20
1.3400000000000001
40
0.0068897637795276
0
CIRCLE
8
BLACK
10
1.2027559055118109
20
1.24
40
0.0068897637795276
0
CIRCLE
8
BLACK
10
1.75
20
0.65
40
0.0068897637795276
0
CIRCLE
8
BLACK
10
1.75
20
0.5499999999999999
40
0.0068897637795276
0
CIRCLE
8
BLACK
10
1.6499999999999999
20
0.65
40
0.0068897637795276
0
CIRCLE
8
BLACK
10
1.6499999999999999
20
0.5499999999999999
40
0.0068897637795276
0
CIRCLE
8
BLACK
10
1.55
20
0.65
40
0.0068897637795276
0
CIRCLE
8
BLACK
10
1.55
20
0.5499999999999999
40
0.0068897637795276
0
CIRCLE
8
BLACK
10
1.45
20
0.65
40
0.0068897637795276
0
CIRCLE
8
BLACK
10
1.45
20
0.5499999999999999
40
0.0068897637795276
0
CIRCLE
8
BLACK
10
1.3499999999999999
20
0.65
40
0.0068897637795276
0
CIRCLE
8
BLACK
10
1.3499999999999999
20
0.5499999999999999
40
0.0068897637795276
0
CIRCLE
8
BLACK
10
1.25
20
0.65
40
0.0068897637795276
0
CIRCLE
8
BLACK
10
1.25
20
0.5499999999999999
40
0.0068897637795276
0
CIRCLE
8
BLACK
10
1.1499999999999999
20
0.65
40
0.0068897637795276
0
CIRCLE
8
BLACK
10
1.1499999999999999
20
0.5499999999999999
40
0.0068897637795276
0
CIRCLE
8
BLACK
10
1.05
20
0.65
40
0.0068897637795276
0
CIRCLE
8
BLACK
10
1.05
20
0.5499999999999999
40
0.0068897637795276
0
CIRCLE
8
BLACK
10
0.95
20
0.65
40
0.0068897637795276
0
CIRCLE
8
BLACK
10
0.95
20
0.5499999999999999
40
0.0068897637795276
0
CIRCLE
8
BLACK
10
0.85
20
0.65
40
0.0068897637795276
0
CIRCLE
8
BLACK
10
0.85
20
0.5499999999999999
40
0.0068897637795276
0
CIRCLE
8
BLACK
10
0.75
20
0.65
40
0.0068897637795276
0
CIRCLE
8
BLACK
10
0.75
20
0.5499999999999999
40
0.0068897637795276
0
CIRCLE
8
BLACK
10
0.65
20
0.65
40
0.0068897637795276
0
CIRCLE
8
BLACK
10
0.65
20
0.5499999999999999
40
0.0068897637795276
0
CIRCLE
8
BLACK
10
0.5499999999999999
20
0.65
40
0.0068897637795276
0
CIRCLE
8
BLACK
10
0.5499999999999999
20
0.5499999999999999
40
0.0068897637795276
0
CIRCLE
8
BLACK
10
0.45
20
0.65
40
0.0068897637795276
0
CIRCLE
8
BLACK
10
0.45
20
0.5499999999999999
40
0.0068897637795276
0
CIRCLE
8
BLACK
10
0.35
20
0.65
40
0.0068897637795276
0
CIRCLE
8
BLACK
10
0.35
20
0.5499999999999999
40
0.0068897637795276
0
CIRCLE
8
BLACK
10
0.25
20
0.65
40
0.0068897637795276
0
CIRCLE
8
BLACK
10
0.25
20
0.5499999999999999
40
0.0068897637795276
0
CIRCLE
8
BLACK
10
0.7114173228346456
20
0.0720472440944882
40
0.0068897637795276
0
CIRCLE
8
BLACK
10
0.7114173228346456
20
0.3279527559055118
40
0.0068897637795276
0
CIRCLE
8
BLACK
10
0.8885826771653543
20
0.0720472440944882
40
0.0068897637795276
0
CIRCLE
8
BLACK
10
0.8885826771653543
20
0.3279527559055118
40
0.0068897637795276
0
CIRCLE
8
BLACK
10
0.4114173228346457
20
0.0720472440944882
40
0.0068897637795276
0
CIRCLE
8
BLACK
10
0.4114173228346457
20
0.3279527559055118
40
0.0068897637795276
0
CIRCLE
8
BLACK
10
0.5885826771653543
20
0.0720472440944882
40
0.0068897637795276
0
CIRCLE
8
BLACK
10
0.5885826771653543
20
0.3279527559055118
40
0.0068897637795276
0
CIRCLE
8
BLACK
10
1.3265748031496063
20
3.4185039370078738
40
0.0068897637795276
0
CIRCLE
8
BLACK
10
1.5234251968503936
20
3.4185039370078738
40
0.0068897637795276
0
LINE
8
BLACK
6
CONTINUOUS
10
1.2830596850393701
20
3.5118641732283464
11
1.2814430708661417
21
3.5079613385826769
0
LINE
8
BLACK
6
CONTINUOUS
10
1.2814430708661417
20
3.5079613385826769
11
1.2784559842519685
21
3.5049742519685037
0
LINE
8
BLACK
6
CONTINUOUS
10
1.2784559842519685
20
3.5049742519685037
11
1.2745531496062992
21
3.5033576377952755
0
LINE
8
BLACK
6
CONTINUOUS
10
1.2745531496062992
20
3.5033576377952755
11
1.2703287401574803
21
3.5033576377952755
0
LINE
8
BLACK
6
CONTINUOUS
10
1.2703287401574803
20
3.5033576377952755
11
1.266425905511811
21
3.5049742519685037
0
LINE
8
BLACK
6
CONTINUOUS
10
1.266425905511811
20
3.5049742519685037
11
1.2634388188976378
21
3.5079613385826769
0
LINE
8
BLACK
6
CONTINUOUS
10
1.2634388188976378
20
3.5079613385826769
11
1.2618222047244094
21
3.5118641732283464
0
LINE
8
BLACK
6
CONTINUOUS
10
1.2618222047244094
20
3.5118641732283464
11
1.2616141732283463
21
3.5139763779527557
0
LINE
8
BLACK
6
CONTINUOUS
10
1.2616141732283463
20
3.5139763779527557
11
1.2616141732283463
21
3.5395669291338581
0
LINE
8
BLACK
6
CONTINUOUS
10
1.2616141732283463
20
3.5395669291338581
11
1.2618222047244094
21
3.5416791338582678
0
LINE
8
BLACK
6
CONTINUOUS
10
1.2618222047244094
20
3.5416791338582678
11
1.2634388188976378
21
3.5455819685039369
0
LINE
8
BLACK
6
CONTINUOUS
10
1.2634388188976378
20
3.5455819685039369
11
1.266425905511811
21
3.5485690551181102
0
LINE
8
BLACK
6
CONTINUOUS
10
1.266425905511811
20
3.5485690551181102
11
1.2703287401574803
21
3.5501856692913387
0
LINE
8
BLACK
6
CONTINUOUS
10
1.2703287401574803
20
3.5501856692913387
11
1.2745531496062992
21
3.5501856692913387
0
LINE
8
BLACK
6
CONTINUOUS
10
1.2745531496062992
20
3.5501856692913387
11
1.2784559842519685
21
3.5485690551181102
0
LINE
8
BLACK
6
CONTINUOUS
10
1.2784559842519685
20
3.5485690551181102
11
1.2814430708661417
21
3.5455819685039369
0
LINE
8
BLACK
6
CONTINUOUS
10
1.2814430708661417
20
3.5455819685039369
11
1.2830596850393701
21
3.5416791338582678
0
LINE
8
BLACK
6
CONTINUOUS
10
1.2830596850393701
20
3.5416791338582678
11
1.2832677165354331
21
3.5395669291338581
0
LINE
8
BLACK
6
CONTINUOUS
10
1.2832677165354331
20
3.5395669291338581
11
1.2832677165354331
21
3.5139763779527557
0
LINE
8
BLACK
6
CONTINUOUS
10
1.2832677165354331
20
3.5139763779527557
11
1.2830596850393701
21
3.5118641732283464
0
LINE
8
BLACK
6
CONTINUOUS
10
1.294935590551181
20
3.3641545669291339
11
1.2938050787401574
21
3.359935433070866
0
LINE
8
BLACK
6
CONTINUOUS
10
1.2938050787401574
20
3.359935433070866
11
1.2916210629921259
21
3.3561525984251968
0
LINE
8
BLACK
6
CONTINUOUS
10
1.2916210629921259
20
3.3561525984251968
11
1.288532440944882
21
3.3530639763779528
0
LINE
8
BLACK
6
CONTINUOUS
10
1.288532440944882
20
3.3530639763779528
11
1.2847496062992125
21
3.3508799606299213
0
LINE
8
BLACK
6
CONTINUOUS
10
1.2847496062992125
20
3.3508799606299213
11
1.2805304724409448
21
3.3497494488188977
0
LINE
8
BLACK
6
CONTINUOUS
10
1.2805304724409448
20
3.3497494488188977
11
1.276162440944882
21
3.3497494488188977
0
LINE
8
BLACK
6
CONTINUOUS
10
1.276162440944882
20
3.3497494488188977
11
1.2719433070866142
21
3.3508799606299213
0
LINE
8
BLACK
6
CONTINUOUS
10
1.2719433070866142
20
3.3508799606299213
11
1.2681604724409448
21
3.3530639763779528
0
LINE
8
BLACK
6
CONTINUOUS
10
1.2681604724409448
20
3.3530639763779528
11
1.2650718503937008
21
3.3561525984251968
0
LINE
8
BLACK
6
CONTINUOUS
10
1.2650718503937008
20
3.3561525984251968
11
1.2628878346456693
21
3.359935433070866
0
LINE
8
BLACK
6
CONTINUOUS
10
1.2628878346456693
20
3.359935433070866
11
1.2617573228346457
21
3.3641545669291339
0
LINE
8
BLACK
6
CONTINUOUS
10
1.2617573228346457
20
3.3641545669291339
11
1.2616141732283463
21
3.3663385826771655
0
LINE
8
BLACK
6
CONTINUOUS
10
1.2616141732283463
20
3.3663385826771655
11
1.2616141732283463
21
3.387992125984252
0
LINE
8
BLACK
6
CONTINUOUS
10
1.2616141732283463
20
3.387992125984252
11
1.2617573228346457
21
3.3901761417322835
0
LINE
8
BLACK
6
CONTINUOUS
10
1.2617573228346457
20
3.3901761417322835
11
1.2628878346456693
21
3.3943952755905511
0
LINE
8
BLACK
6
CONTINUOUS
10
1.2628878346456693
20
3.3943952755905511
11
1.2650718503937008
21
3.3981781102362203
0
LINE
8
BLACK
6
CONTINUOUS
10
1.2650718503937008
20
3.3981781102362203
11
1.2681604724409448
21
3.4012667322834647
0
LINE
8
BLACK
6
CONTINUOUS
10
1.2681604724409448
20
3.4012667322834647
11
1.2719433070866142
21
3.4034507480314962
0
LINE
8
BLACK
6
CONTINUOUS
10
1.2719433070866142
20
3.4034507480314962
11
1.276162440944882
21
3.4045812598425198
0
LINE
8
BLACK
6
CONTINUOUS
10
1.276162440944882
20
3.4045812598425198
11
1.2805304724409448
21
3.4045812598425198
0
LINE
8
BLACK
6
CONTINUOUS
10
1.2805304724409448
20
3.4045812598425198
11
1.2847496062992125
21
3.4034507480314962
0
LINE
8
BLACK
6
CONTINUOUS
10
1.2847496062992125
20
3.4034507480314962
11
1.288532440944882
21
3.4012667322834647
0
LINE
8
BLACK
6
CONTINUOUS
10
1.288532440944882
20
3.4012667322834647
11
1.2916210629921259
21
3.3981781102362203
0
LINE
8
BLACK
6
CONTINUOUS
10
1.2916210629921259
20
3.3981781102362203
11
1.2938050787401574
21
3.3943952755905511
0
LINE
8
BLACK
6
CONTINUOUS
10
1.2938050787401574
20
3.3943952755905511
11
1.294935590551181
21
3.3901761417322835
0
LINE
8
BLACK
6
CONTINUOUS
10
1.294935590551181
20
3.3901761417322835
11
1.2950787401574804
21
3.387992125984252
0
LINE
8
BLACK
6
CONTINUOUS
10
1.2950787401574804
20
3.387992125984252
11
1.2950787401574804
21
3.3663385826771655
0
LINE
8
BLACK
6
CONTINUOUS
10
1.2950787401574804
20
3.3663385826771655
11
1.294935590551181
21
3.3641545669291339
0
LINE
8
BLACK
6
CONTINUOUS
10
1.5882426771653544
20
3.3641545669291339
11
1.5871121653543308
21
3.359935433070866
0
LINE
8
BLACK
6
CONTINUOUS
10
1.5871121653543308
20
3.359935433070866
11
1.5849281496062992
21
3.3561525984251968
0
LINE
8
BLACK
6
CONTINUOUS
10
1.5849281496062992
20
3.3561525984251968
11
1.5818395275590551
21
3.3530639763779528
0
LINE
8
BLACK
6
CONTINUOUS
10
1.5818395275590551
20
3.3530639763779528
11
1.5780566929133857
21
3.3508799606299213
0
LINE
8
BLACK
6
CONTINUOUS
10
1.5780566929133857
20
3.3508799606299213
11
1.5738375590551181
21
3.3497494488188977
0
LINE
8
BLACK
6
CONTINUOUS
10
1.5738375590551181
20
3.3497494488188977
11
1.5694695275590551
21
3.3497494488188977
0
LINE
8
BLACK
6
CONTINUOUS
10
1.5694695275590551
20
3.3497494488188977
11
1.5652503937007873
21
3.3508799606299213
0
LINE
8
BLACK
6
CONTINUOUS
10
1.5652503937007873
20
3.3508799606299213
11
1.5614675590551181
21
3.3530639763779528
0
LINE
8
BLACK
6
CONTINUOUS
10
1.5614675590551181
20
3.3530639763779528
11
1.558378937007874
21
3.3561525984251968
0
LINE
8
BLACK
6
CONTINUOUS
10
1.558378937007874
20
3.3561525984251968
11
1.5561949212598425
21
3.359935433070866
0
LINE
8
BLACK
6
CONTINUOUS
10
1.5561949212598425
20
3.359935433070866
11
1.5550644094488189
21
3.3641545669291339
0
LINE
8
BLACK
6
CONTINUOUS
10
1.5550644094488189
20
3.3641545669291339
11
1.5549212598425197
21
3.3663385826771655
0
LINE
8
BLACK
6
CONTINUOUS
10
1.5549212598425197
20
3.3663385826771655
11
1.5549212598425197
21
3.387992125984252
0
LINE
8
BLACK
6
CONTINUOUS
10
1.5549212598425197
20
3.387992125984252
11
1.5550644094488189
21
3.3901761417322835
0
LINE
8
BLACK
6
CONTINUOUS
10
1.5550644094488189
20
3.3901761417322835
11
1.5561949212598425
21
3.3943952755905511
0
LINE
8
BLACK
6
CONTINUOUS
10
1.5561949212598425
20
3.3943952755905511
11
1.558378937007874
21
3.3981781102362203
0
LINE
8
BLACK
6
CONTINUOUS
10
1.558378937007874
20
3.3981781102362203
11
1.5614675590551181
21
3.4012667322834647
0
LINE
8
BLACK
6
CONTINUOUS
10
1.5614675590551181
20
3.4012667322834647
11
1.5652503937007873
21
3.4034507480314962
0
LINE
8
BLACK
6
CONTINUOUS
10
1.5652503937007873
20
3.4034507480314962
11
1.5694695275590551
21
3.4045812598425198
0
LINE
8
BLACK
6
CONTINUOUS
10
1.5694695275590551
20
3.4045812598425198
11
1.5738375590551181
21
3.4045812598425198
0
LINE
8
BLACK
6
CONTINUOUS
10
1.5738375590551181
20
3.4045812598425198
11
1.5780566929133857
21
3.4034507480314962
0
LINE
8
BLACK
6
CONTINUOUS
10
1.5780566929133857
20
3.4034507480314962
11
1.5818395275590551
21
3.4012667322834647
0
LINE
8
BLACK
6
CONTINUOUS
10
1.5818395275590551
20
3.4012667322834647
11
1.5849281496062992
21
3.3981781102362203
0
LINE
8
BLACK
6
CONTINUOUS
10
1.5849281496062992
20
3.3981781102362203
11
1.5871121653543308
21
3.3943952755905511
0
LINE
8
BLACK
6
CONTINUOUS
10
1.5871121653543308
20
3.3943952755905511
11
1.5882426771653544
21
3.3901761417322835
0
LINE
8
BLACK
6
CONTINUOUS
10
1.5882426771653544
20
3.3901761417322835
11
1.5883858267716535
21
3.387992125984252
0
LINE
8
BLACK
6
CONTINUOUS
10
1.5883858267716535
20
3.387992125984252
11
1.5883858267716535
21
3.3663385826771655
0
LINE
8
BLACK
6
CONTINUOUS
10
1.5883858267716535
20
3.3663385826771655
11
1.5882426771653544
21
3.3641545669291339
0
LINE
8
BLACK
6
CONTINUOUS
10
1.5881777952755904
20
3.5118641732283464
11
1.5865611811023621
21
3.5079613385826769
0
LINE
8
BLACK
6
CONTINUOUS
10
1.5865611811023621
20
3.5079613385826769
11
1.5835740944881889
21
3.5049742519685037
0
LINE
8
BLACK
6
CONTINUOUS
10
1.5835740944881889
20
3.5049742519685037
11
1.5796712598425195
21
3.5033576377952755
0
LINE
8
BLACK
6
CONTINUOUS
10
1.5796712598425195
20
3.5033576377952755
11
1.5754468503937007
21
3.5033576377952755
0
LINE
8
BLACK
6
CONTINUOUS
10
1.5754468503937007
20
3.5033576377952755
11
1.5715440157480314
21
3.5049742519685037
0
LINE
8
BLACK
6
CONTINUOUS
10
1.5715440157480314
20
3.5049742519685037
11
1.5685569291338581
21
3.5079613385826769
0
LINE
8
BLACK
6
CONTINUOUS
10
1.5685569291338581
20
3.5079613385826769
11
1.5669403149606298
21
3.5118641732283464
0
LINE
8
BLACK
6
CONTINUOUS
10
1.5669403149606298
20
3.5118641732283464
11
1.5667322834645669
21
3.5139763779527557
0
LINE
8
BLACK
6
CONTINUOUS
10
1.5667322834645669
20
3.5139763779527557
11
1.5667322834645669
21
3.5395669291338581
0
LINE
8
BLACK
6
CONTINUOUS
10
1.5667322834645669
20
3.5395669291338581
11
1.5669403149606298
21
3.5416791338582678
0
LINE
8
BLACK
6
CONTINUOUS
10
1.5669403149606298
20
3.5416791338582678
11
1.5685569291338581
21
3.5455819685039369
0
LINE
8
BLACK
6
CONTINUOUS
10
1.5685569291338581
20
3.5455819685039369
11
1.5715440157480314
21
3.5485690551181102
0
LINE
8
BLACK
6
CONTINUOUS
10
1.5715440157480314
20
3.5485690551181102
11
1.5754468503937007
21
3.5501856692913387
0
LINE
8
BLACK
6
CONTINUOUS
10
1.5754468503937007
20
3.5501856692913387
11
1.5796712598425195
21
3.5501856692913387
0
LINE
8
BLACK
6
CONTINUOUS
10
1.5796712598425195
20
3.5501856692913387
11
1.5835740944881889
21
3.5485690551181102
0
LINE
8
BLACK
6
CONTINUOUS
10
1.5835740944881889
20
3.5485690551181102
11
1.5865611811023621
21
3.5455819685039369
0
LINE
8
BLACK
6
CONTINUOUS
10
1.5865611811023621
20
3.5455819685039369
11
1.5881777952755904
21
3.5416791338582678
0
LINE
8
BLACK
6
CONTINUOUS
10
1.5881777952755904
20
3.5416791338582678
11
1.5883858267716535
21
3.5395669291338581
0
LINE
8
BLACK
6
CONTINUOUS
10
1.5883858267716535
20
3.5395669291338581
11
1.5883858267716535
21
3.5139763779527557
0
LINE
8
BLACK
6
CONTINUOUS
10
1.5883858267716535
20
3.5139763779527557
11
1.5881777952755904
21
3.5118641732283464
  0
ENDSEC
  0
EOF
