%TF.GenerationSoftware,KiCad,Pcbnew,8.0.8+1*%
%TF.CreationDate,2025-05-06T10:58:55+00:00*%
%TF.ProjectId,STM32TQ6401,53544d33-3254-4513-9634-30312e6b6963,rev?*%
%TF.SameCoordinates,Original*%
%TF.FileFunction,Copper,L2,Bot*%
%TF.FilePolarity,Positive*%
%FSLAX46Y46*%
G04 Gerber Fmt 4.6, Leading zero omitted, Abs format (unit mm)*
G04 Created by KiCad (PCBNEW 8.0.8+1) date 2025-05-06 10:58:55*
%MOMM*%
%LPD*%
G01*
G04 APERTURE LIST*
G04 Aperture macros list*
%AMRoundRect*
0 Rectangle with rounded corners*
0 $1 Rounding radius*
0 $2 $3 $4 $5 $6 $7 $8 $9 X,Y pos of 4 corners*
0 Add a 4 corners polygon primitive as box body*
4,1,4,$2,$3,$4,$5,$6,$7,$8,$9,$2,$3,0*
0 Add four circle primitives for the rounded corners*
1,1,$1+$1,$2,$3*
1,1,$1+$1,$4,$5*
1,1,$1+$1,$6,$7*
1,1,$1+$1,$8,$9*
0 Add four rect primitives between the rounded corners*
20,1,$1+$1,$2,$3,$4,$5,0*
20,1,$1+$1,$4,$5,$6,$7,0*
20,1,$1+$1,$6,$7,$8,$9,0*
20,1,$1+$1,$8,$9,$2,$3,0*%
%AMFreePoly0*
4,1,6,1.000000,0.000000,0.500000,-0.750000,-0.500000,-0.750000,-0.500000,0.750000,0.500000,0.750000,1.000000,0.000000,1.000000,0.000000,$1*%
%AMFreePoly1*
4,1,6,0.500000,-0.750000,-0.650000,-0.750000,-0.150000,0.000000,-0.650000,0.750000,0.500000,0.750000,0.500000,-0.750000,0.500000,-0.750000,$1*%
G04 Aperture macros list end*
%TA.AperFunction,ComponentPad*%
%ADD10R,1.700000X1.700000*%
%TD*%
%TA.AperFunction,ComponentPad*%
%ADD11O,1.700000X1.700000*%
%TD*%
%TA.AperFunction,ComponentPad*%
%ADD12C,5.600000*%
%TD*%
%TA.AperFunction,ComponentPad*%
%ADD13C,1.500000*%
%TD*%
%TA.AperFunction,ComponentPad*%
%ADD14C,1.000000*%
%TD*%
%TA.AperFunction,ComponentPad*%
%ADD15C,2.000000*%
%TD*%
%TA.AperFunction,SMDPad,CuDef*%
%ADD16RoundRect,0.250000X0.337500X0.475000X-0.337500X0.475000X-0.337500X-0.475000X0.337500X-0.475000X0*%
%TD*%
%TA.AperFunction,SMDPad,CuDef*%
%ADD17FreePoly0,90.000000*%
%TD*%
%TA.AperFunction,SMDPad,CuDef*%
%ADD18FreePoly1,90.000000*%
%TD*%
%TA.AperFunction,SMDPad,CuDef*%
%ADD19RoundRect,0.250000X-1.500000X-0.650000X1.500000X-0.650000X1.500000X0.650000X-1.500000X0.650000X0*%
%TD*%
%TA.AperFunction,SMDPad,CuDef*%
%ADD20RoundRect,0.250000X-0.574524X-0.097227X-0.097227X-0.574524X0.574524X0.097227X0.097227X0.574524X0*%
%TD*%
%TA.AperFunction,SMDPad,CuDef*%
%ADD21RoundRect,0.150000X0.512500X0.150000X-0.512500X0.150000X-0.512500X-0.150000X0.512500X-0.150000X0*%
%TD*%
%TA.AperFunction,SMDPad,CuDef*%
%ADD22FreePoly0,270.000000*%
%TD*%
%TA.AperFunction,SMDPad,CuDef*%
%ADD23FreePoly1,270.000000*%
%TD*%
%TA.AperFunction,SMDPad,CuDef*%
%ADD24RoundRect,0.250000X-0.475000X0.337500X-0.475000X-0.337500X0.475000X-0.337500X0.475000X0.337500X0*%
%TD*%
%TA.AperFunction,SMDPad,CuDef*%
%ADD25RoundRect,0.250000X-0.337500X-0.475000X0.337500X-0.475000X0.337500X0.475000X-0.337500X0.475000X0*%
%TD*%
%TA.AperFunction,SMDPad,CuDef*%
%ADD26RoundRect,0.375000X0.625000X0.375000X-0.625000X0.375000X-0.625000X-0.375000X0.625000X-0.375000X0*%
%TD*%
%TA.AperFunction,SMDPad,CuDef*%
%ADD27RoundRect,0.500000X0.500000X1.400000X-0.500000X1.400000X-0.500000X-1.400000X0.500000X-1.400000X0*%
%TD*%
%TA.AperFunction,SMDPad,CuDef*%
%ADD28RoundRect,0.250000X0.475000X-0.337500X0.475000X0.337500X-0.475000X0.337500X-0.475000X-0.337500X0*%
%TD*%
%TA.AperFunction,SMDPad,CuDef*%
%ADD29RoundRect,0.250000X-0.325000X-0.450000X0.325000X-0.450000X0.325000X0.450000X-0.325000X0.450000X0*%
%TD*%
%TA.AperFunction,SMDPad,CuDef*%
%ADD30RoundRect,0.075000X0.075000X-0.700000X0.075000X0.700000X-0.075000X0.700000X-0.075000X-0.700000X0*%
%TD*%
%TA.AperFunction,SMDPad,CuDef*%
%ADD31RoundRect,0.075000X0.700000X-0.075000X0.700000X0.075000X-0.700000X0.075000X-0.700000X-0.075000X0*%
%TD*%
%TA.AperFunction,SMDPad,CuDef*%
%ADD32RoundRect,0.250000X-0.400000X-1.450000X0.400000X-1.450000X0.400000X1.450000X-0.400000X1.450000X0*%
%TD*%
%TA.AperFunction,SMDPad,CuDef*%
%ADD33FreePoly0,315.000000*%
%TD*%
%TA.AperFunction,SMDPad,CuDef*%
%ADD34FreePoly1,315.000000*%
%TD*%
%TA.AperFunction,SMDPad,CuDef*%
%ADD35R,0.450000X1.300000*%
%TD*%
%TA.AperFunction,ComponentPad*%
%ADD36O,1.150000X1.800000*%
%TD*%
%TA.AperFunction,ComponentPad*%
%ADD37O,1.450000X2.000000*%
%TD*%
%TA.AperFunction,SMDPad,CuDef*%
%ADD38RoundRect,0.250000X0.650000X-1.500000X0.650000X1.500000X-0.650000X1.500000X-0.650000X-1.500000X0*%
%TD*%
%TA.AperFunction,SMDPad,CuDef*%
%ADD39FreePoly0,180.000000*%
%TD*%
%TA.AperFunction,SMDPad,CuDef*%
%ADD40FreePoly1,180.000000*%
%TD*%
%TA.AperFunction,SMDPad,CuDef*%
%ADD41RoundRect,0.250000X0.097227X-0.574524X0.574524X-0.097227X-0.097227X0.574524X-0.574524X0.097227X0*%
%TD*%
%TA.AperFunction,ViaPad*%
%ADD42C,0.600000*%
%TD*%
%TA.AperFunction,Conductor*%
%ADD43C,1.000000*%
%TD*%
%TA.AperFunction,Conductor*%
%ADD44C,0.400000*%
%TD*%
%TA.AperFunction,Conductor*%
%ADD45C,0.250000*%
%TD*%
%TA.AperFunction,Conductor*%
%ADD46C,0.500000*%
%TD*%
%TA.AperFunction,Conductor*%
%ADD47C,0.800000*%
%TD*%
%TA.AperFunction,Conductor*%
%ADD48C,0.300000*%
%TD*%
G04 APERTURE END LIST*
D10*
%TO.P,J3,1,Pin_1*%
%TO.N,/PB12*%
X6350000Y71120000D03*
D11*
%TO.P,J3,2,Pin_2*%
X6350000Y73660000D03*
%TO.P,J3,3,Pin_3*%
%TO.N,/PB13*%
X8890000Y71120000D03*
%TO.P,J3,4,Pin_4*%
X8890000Y73660000D03*
%TO.P,J3,5,Pin_5*%
%TO.N,/PB14*%
X11430000Y71120000D03*
%TO.P,J3,6,Pin_6*%
X11430000Y73660000D03*
%TO.P,J3,7,Pin_7*%
%TO.N,/PB15*%
X13970000Y71120000D03*
%TO.P,J3,8,Pin_8*%
X13970000Y73660000D03*
%TO.P,J3,9,Pin_9*%
%TO.N,/PC6*%
X16510000Y71120000D03*
%TO.P,J3,10,Pin_10*%
X16510000Y73660000D03*
%TO.P,J3,11,Pin_11*%
%TO.N,/PC7*%
X19050000Y71120000D03*
%TO.P,J3,12,Pin_12*%
X19050000Y73660000D03*
%TO.P,J3,13,Pin_13*%
%TO.N,/PC8*%
X21590000Y71120000D03*
%TO.P,J3,14,Pin_14*%
X21590000Y73660000D03*
%TO.P,J3,15,Pin_15*%
%TO.N,/PC9*%
X24130000Y71120000D03*
%TO.P,J3,16,Pin_16*%
X24130000Y73660000D03*
%TO.P,J3,17,Pin_17*%
%TO.N,/PA8*%
X26670000Y71120000D03*
%TO.P,J3,18,Pin_18*%
X26670000Y73660000D03*
%TO.P,J3,19,Pin_19*%
%TO.N,/PA9_USB_VBUS*%
X29210000Y71120000D03*
%TO.P,J3,20,Pin_20*%
X29210000Y73660000D03*
%TO.P,J3,21,Pin_21*%
%TO.N,/PA10_USB_ID*%
X31750000Y71120000D03*
%TO.P,J3,22,Pin_22*%
X31750000Y73660000D03*
%TO.P,J3,23,Pin_23*%
%TO.N,/PA11_USB_DM*%
X34290000Y71120000D03*
%TO.P,J3,24,Pin_24*%
X34290000Y73660000D03*
%TO.P,J3,25,Pin_25*%
%TO.N,/PA12_USB_DP*%
X36830000Y71120000D03*
%TO.P,J3,26,Pin_26*%
X36830000Y73660000D03*
%TO.P,J3,27,Pin_27*%
%TO.N,/PA13{slash}SWDIO*%
X39370000Y71120000D03*
%TO.P,J3,28,Pin_28*%
X39370000Y73660000D03*
%TO.P,J3,29,Pin_29*%
%TO.N,GND*%
X41910000Y71120000D03*
%TO.P,J3,30,Pin_30*%
X41910000Y73660000D03*
%TO.P,J3,31,Pin_31*%
%TO.N,VDD{slash}VDDUSB*%
X44450000Y71120000D03*
%TO.P,J3,32,Pin_32*%
X44450000Y73660000D03*
%TD*%
D10*
%TO.P,J5,1,Pin_1*%
%TO.N,GND*%
X21890000Y79790000D03*
D11*
%TO.P,J5,2,Pin_2*%
X19350000Y79790000D03*
%TO.P,J5,3,Pin_3*%
%TO.N,/VCC_5V*%
X21890000Y82330000D03*
%TO.P,J5,4,Pin_4*%
X19350000Y82330000D03*
%TO.P,J5,5,Pin_5*%
%TO.N,GND*%
X21890000Y84870000D03*
%TO.P,J5,6,Pin_6*%
X19350000Y84870000D03*
%TD*%
D10*
%TO.P,J8,1,Pin_1*%
%TO.N,Net-(J8-Pin_1)*%
X26100000Y80995000D03*
D11*
%TO.P,J8,2,Pin_2*%
%TO.N,Net-(J8-Pin_2)*%
X26100000Y78455000D03*
%TD*%
D12*
%TO.P,H4,1,1*%
%TO.N,GND*%
X5080000Y5080000D03*
%TD*%
D10*
%TO.P,J10,1,Pin_1*%
%TO.N,/PB3{slash}SWO*%
X46990000Y10160000D03*
D11*
%TO.P,J10,2,Pin_2*%
%TO.N,Net-(J10-Pin_2)*%
X44450000Y10160000D03*
%TD*%
D12*
%TO.P,H1,1,1*%
%TO.N,GND*%
X5080000Y86360000D03*
%TD*%
%TO.P,H2,1,1*%
%TO.N,GND*%
X45720000Y86360000D03*
%TD*%
D13*
%TO.P,Y2,1,1*%
%TO.N,/PH0{slash}OSCIN*%
X32820000Y27178000D03*
%TO.P,Y2,2,2*%
%TO.N,/PH1{slash}OSCOUT*%
X27940000Y27178000D03*
%TD*%
D10*
%TO.P,J9,1,Pin_1*%
%TO.N,VDD*%
X26670000Y2540000D03*
D11*
%TO.P,J9,2,Pin_2*%
%TO.N,/PA14{slash}SWCK*%
X29210000Y2540000D03*
%TO.P,J9,3,Pin_3*%
%TO.N,GND*%
X31750000Y2540000D03*
%TO.P,J9,4,Pin_4*%
%TO.N,/PA13{slash}SWDIO*%
X34290000Y2540000D03*
%TO.P,J9,5,Pin_5*%
%TO.N,/NRST*%
X36830000Y2540000D03*
%TO.P,J9,6,Pin_6*%
%TO.N,Net-(J10-Pin_2)*%
X39370000Y2540000D03*
%TD*%
D10*
%TO.P,J7,1,Pin_1*%
%TO.N,Net-(J7-Pin_1)*%
X10350000Y87495000D03*
D11*
%TO.P,J7,2,Pin_2*%
%TO.N,/VCC_5V*%
X10350000Y84955000D03*
%TD*%
D10*
%TO.P,J2,1,Pin_1*%
%TO.N,/PA3*%
X6350000Y24130000D03*
D11*
%TO.P,J2,2,Pin_2*%
X3810000Y24130000D03*
%TO.P,J2,3,Pin_3*%
%TO.N,GND*%
X6350000Y26670000D03*
%TO.P,J2,4,Pin_4*%
X3810000Y26670000D03*
%TO.P,J2,5,Pin_5*%
%TO.N,VDD*%
X6350000Y29210000D03*
%TO.P,J2,6,Pin_6*%
X3810000Y29210000D03*
%TO.P,J2,7,Pin_7*%
%TO.N,/PA4*%
X6350000Y31750000D03*
%TO.P,J2,8,Pin_8*%
X3810000Y31750000D03*
%TO.P,J2,9,Pin_9*%
%TO.N,/PA5*%
X6350000Y34290000D03*
%TO.P,J2,10,Pin_10*%
X3810000Y34290000D03*
%TO.P,J2,11,Pin_11*%
%TO.N,/PA6*%
X6350000Y36830000D03*
%TO.P,J2,12,Pin_12*%
X3810000Y36830000D03*
%TO.P,J2,13,Pin_13*%
%TO.N,/PA7*%
X6350000Y39370000D03*
%TO.P,J2,14,Pin_14*%
X3810000Y39370000D03*
%TO.P,J2,15,Pin_15*%
%TO.N,/PC4*%
X6350000Y41910000D03*
%TO.P,J2,16,Pin_16*%
X3810000Y41910000D03*
%TO.P,J2,17,Pin_17*%
%TO.N,/PC5*%
X6350000Y44450000D03*
%TO.P,J2,18,Pin_18*%
X3810000Y44450000D03*
%TO.P,J2,19,Pin_19*%
%TO.N,/PB0*%
X6350000Y46990000D03*
%TO.P,J2,20,Pin_20*%
X3810000Y46990000D03*
%TO.P,J2,21,Pin_21*%
%TO.N,/PB1*%
X6350000Y49530000D03*
%TO.P,J2,22,Pin_22*%
X3810000Y49530000D03*
%TO.P,J2,23,Pin_23*%
%TO.N,/PB2*%
X6350000Y52070000D03*
%TO.P,J2,24,Pin_24*%
X3810000Y52070000D03*
%TO.P,J2,25,Pin_25*%
%TO.N,/PB10*%
X6350000Y54610000D03*
%TO.P,J2,26,Pin_26*%
X3810000Y54610000D03*
%TO.P,J2,27,Pin_27*%
%TO.N,/PB11*%
X6350000Y57150000D03*
%TO.P,J2,28,Pin_28*%
X3810000Y57150000D03*
%TO.P,J2,29,Pin_29*%
%TO.N,GND*%
X6350000Y59690000D03*
%TO.P,J2,30,Pin_30*%
X3810000Y59690000D03*
%TO.P,J2,31,Pin_31*%
%TO.N,VDD*%
X6350000Y62230000D03*
%TO.P,J2,32,Pin_32*%
X3810000Y62230000D03*
%TD*%
D12*
%TO.P,H3,1,1*%
%TO.N,GND*%
X45720000Y5080000D03*
%TD*%
D10*
%TO.P,J4,1,Pin_1*%
%TO.N,/PA14{slash}SWCK*%
X44445000Y62230000D03*
D11*
%TO.P,J4,2,Pin_2*%
X46985000Y62230000D03*
%TO.P,J4,3,Pin_3*%
%TO.N,/PA15*%
X44445000Y59690000D03*
%TO.P,J4,4,Pin_4*%
X46985000Y59690000D03*
%TO.P,J4,5,Pin_5*%
%TO.N,/PC10*%
X44445000Y57150000D03*
%TO.P,J4,6,Pin_6*%
X46985000Y57150000D03*
%TO.P,J4,7,Pin_7*%
%TO.N,/PC11*%
X44445000Y54610000D03*
%TO.P,J4,8,Pin_8*%
X46985000Y54610000D03*
%TO.P,J4,9,Pin_9*%
%TO.N,/PC12*%
X44445000Y52070000D03*
%TO.P,J4,10,Pin_10*%
X46985000Y52070000D03*
%TO.P,J4,11,Pin_11*%
%TO.N,/PD2*%
X44445000Y49530000D03*
%TO.P,J4,12,Pin_12*%
X46985000Y49530000D03*
%TO.P,J4,13,Pin_13*%
%TO.N,/PB3{slash}SWO*%
X44445000Y46990000D03*
%TO.P,J4,14,Pin_14*%
X46985000Y46990000D03*
%TO.P,J4,15,Pin_15*%
%TO.N,/PB4*%
X44445000Y44450000D03*
%TO.P,J4,16,Pin_16*%
X46985000Y44450000D03*
%TO.P,J4,17,Pin_17*%
%TO.N,/PB5*%
X44445000Y41910000D03*
%TO.P,J4,18,Pin_18*%
X46985000Y41910000D03*
%TO.P,J4,19,Pin_19*%
%TO.N,/PB6*%
X44445000Y39370000D03*
%TO.P,J4,20,Pin_20*%
X46985000Y39370000D03*
%TO.P,J4,21,Pin_21*%
%TO.N,/PB7*%
X44445000Y36830000D03*
%TO.P,J4,22,Pin_22*%
X46985000Y36830000D03*
%TO.P,J4,23,Pin_23*%
%TO.N,/PH3{slash}BOOT0*%
X44445000Y34290000D03*
%TO.P,J4,24,Pin_24*%
X46985000Y34290000D03*
%TO.P,J4,25,Pin_25*%
%TO.N,/PB8*%
X44445000Y31750000D03*
%TO.P,J4,26,Pin_26*%
X46985000Y31750000D03*
%TO.P,J4,27,Pin_27*%
%TO.N,/PB9*%
X44445000Y29210000D03*
%TO.P,J4,28,Pin_28*%
X46985000Y29210000D03*
%TO.P,J4,29,Pin_29*%
%TO.N,GND*%
X44445000Y26670000D03*
%TO.P,J4,30,Pin_30*%
X46985000Y26670000D03*
%TO.P,J4,31,Pin_31*%
%TO.N,VDD*%
X44445000Y24130000D03*
%TO.P,J4,32,Pin_32*%
X46985000Y24130000D03*
%TD*%
D14*
%TO.P,Y1,1,1*%
%TO.N,/PC15{slash}OSC32OUT*%
X30550000Y34036000D03*
%TO.P,Y1,2,2*%
%TO.N,/PC14{slash}OSC32IN*%
X30550000Y31496000D03*
%TD*%
D10*
%TO.P,J1,1,Pin_1*%
%TO.N,VBAT{slash}VLCD*%
X44450000Y16510000D03*
D11*
%TO.P,J1,2,Pin_2*%
X44450000Y13970000D03*
%TO.P,J1,3,Pin_3*%
%TO.N,/PC13*%
X41910000Y16510000D03*
%TO.P,J1,4,Pin_4*%
X41910000Y13970000D03*
%TO.P,J1,5,Pin_5*%
%TO.N,/PC14{slash}OSC32IN*%
X39370000Y16510000D03*
%TO.P,J1,6,Pin_6*%
X39370000Y13970000D03*
%TO.P,J1,7,Pin_7*%
%TO.N,/PC15{slash}OSC32OUT*%
X36830000Y16510000D03*
%TO.P,J1,8,Pin_8*%
X36830000Y13970000D03*
%TO.P,J1,9,Pin_9*%
%TO.N,/PH0{slash}OSCIN*%
X34290000Y16510000D03*
%TO.P,J1,10,Pin_10*%
X34290000Y13970000D03*
%TO.P,J1,11,Pin_11*%
%TO.N,/PH1{slash}OSCOUT*%
X31750000Y16510000D03*
%TO.P,J1,12,Pin_12*%
X31750000Y13970000D03*
%TO.P,J1,13,Pin_13*%
%TO.N,/NRST*%
X29210000Y16510000D03*
%TO.P,J1,14,Pin_14*%
X29210000Y13970000D03*
%TO.P,J1,15,Pin_15*%
%TO.N,/PC0*%
X26670000Y16510000D03*
%TO.P,J1,16,Pin_16*%
X26670000Y13970000D03*
%TO.P,J1,17,Pin_17*%
%TO.N,/PC1*%
X24130000Y16510000D03*
%TO.P,J1,18,Pin_18*%
X24130000Y13970000D03*
%TO.P,J1,19,Pin_19*%
%TO.N,/PC2*%
X21590000Y16510000D03*
%TO.P,J1,20,Pin_20*%
X21590000Y13970000D03*
%TO.P,J1,21,Pin_21*%
%TO.N,/PC3*%
X19050000Y16510000D03*
%TO.P,J1,22,Pin_22*%
X19050000Y13970000D03*
%TO.P,J1,23,Pin_23*%
%TO.N,GND*%
X16510000Y16510000D03*
%TO.P,J1,24,Pin_24*%
X16510000Y13970000D03*
%TO.P,J1,25,Pin_25*%
%TO.N,VDD_A*%
X13970000Y16510000D03*
%TO.P,J1,26,Pin_26*%
X13970000Y13970000D03*
%TO.P,J1,27,Pin_27*%
%TO.N,/PA0*%
X11430000Y16510000D03*
%TO.P,J1,28,Pin_28*%
X11430000Y13970000D03*
%TO.P,J1,29,Pin_29*%
%TO.N,/PA1*%
X8890000Y16510000D03*
%TO.P,J1,30,Pin_30*%
X8890000Y13970000D03*
%TO.P,J1,31,Pin_31*%
%TO.N,/PA2*%
X6350000Y16510000D03*
%TO.P,J1,32,Pin_32*%
X6350000Y13970000D03*
%TD*%
D15*
%TO.P,SW2,1,1*%
%TO.N,GND*%
X18070000Y1830000D03*
X18070000Y8330000D03*
%TO.P,SW2,2,2*%
%TO.N,/NRST*%
X22570000Y1830000D03*
X22570000Y8330000D03*
%TD*%
%TO.P,SW1,1,1*%
%TO.N,VDD*%
X10450000Y1830000D03*
X10450000Y8330000D03*
%TO.P,SW1,2,2*%
%TO.N,/PH3{slash}BOOT0*%
X14950000Y1830000D03*
X14950000Y8330000D03*
%TD*%
D16*
%TO.P,R2,1*%
%TO.N,Net-(J8-Pin_1)*%
X21987500Y77120000D03*
%TO.P,R2,2*%
%TO.N,GND*%
X19912500Y77120000D03*
%TD*%
D17*
%TO.P,JP5,1,A*%
%TO.N,VBAT{slash}VLCD*%
X44500000Y19775001D03*
D18*
%TO.P,JP5,2,B*%
%TO.N,VDD*%
X44500000Y21224999D03*
%TD*%
D16*
%TO.P,C10,1*%
%TO.N,/PB11{slash}VCAP*%
X17039500Y49022000D03*
%TO.P,C10,2*%
%TO.N,GND*%
X14964500Y49022000D03*
%TD*%
D19*
%TO.P,D2,1,K*%
%TO.N,Net-(D2-K)*%
X22550000Y89120000D03*
%TO.P,D2,2,A*%
%TO.N,/USB_5V*%
X27550000Y89120000D03*
%TD*%
D20*
%TO.P,C11,1*%
%TO.N,/PB9{slash}VCAP*%
X35616754Y41980246D03*
%TO.P,C11,2*%
%TO.N,GND*%
X37084000Y40513000D03*
%TD*%
D21*
%TO.P,U3,1,OUT*%
%TO.N,/USB_5V*%
X28887500Y85120000D03*
%TO.P,U3,2,GND*%
%TO.N,GND*%
X28887500Y84170000D03*
%TO.P,U3,3,OC*%
%TO.N,Net-(J8-Pin_2)*%
X28887500Y83220000D03*
%TO.P,U3,4,EN*%
%TO.N,Net-(J8-Pin_1)*%
X26612500Y83220000D03*
%TO.P,U3,5,IN*%
%TO.N,/VCC_5V*%
X26612500Y85120000D03*
%TD*%
D22*
%TO.P,JP1,1,A*%
%TO.N,Net-(J6-ID)*%
X31750000Y78423599D03*
D23*
%TO.P,JP1,2,B*%
%TO.N,/PA10_USB_ID*%
X31750000Y76973601D03*
%TD*%
D24*
%TO.P,C1,1*%
%TO.N,/VCC_5V*%
X12150000Y81345000D03*
%TO.P,C1,2*%
%TO.N,GND*%
X12150000Y79270000D03*
%TD*%
D25*
%TO.P,C19,1*%
%TO.N,VDD_A*%
X14062500Y19170000D03*
%TO.P,C19,2*%
%TO.N,GND*%
X16137500Y19170000D03*
%TD*%
D26*
%TO.P,U2,1,VI*%
%TO.N,/VCC_5V*%
X9550000Y81370000D03*
%TO.P,U2,2,GND*%
%TO.N,GND*%
X9550000Y79070000D03*
D27*
X3250000Y79070000D03*
D26*
%TO.P,U2,3,VO*%
%TO.N,VDD*%
X9550000Y76770000D03*
%TD*%
D25*
%TO.P,C2,1*%
%TO.N,VDD*%
X11925000Y76770000D03*
%TO.P,C2,2*%
%TO.N,GND*%
X14000000Y76770000D03*
%TD*%
D28*
%TO.P,R1,1*%
%TO.N,/PA9_USB_VBUS*%
X29250000Y76182500D03*
%TO.P,R1,2*%
%TO.N,/USB_5V*%
X29250000Y78257500D03*
%TD*%
D16*
%TO.P,C14,1*%
%TO.N,VDD*%
X19579500Y54991000D03*
%TO.P,C14,2*%
%TO.N,GND*%
X17504500Y54991000D03*
%TD*%
D24*
%TO.P,C4,1*%
%TO.N,/USB_5V*%
X48006000Y82169000D03*
%TO.P,C4,2*%
%TO.N,GND*%
X48006000Y80094000D03*
%TD*%
%TO.P,C18,1*%
%TO.N,VDD_A*%
X23900000Y36857500D03*
%TO.P,C18,2*%
%TO.N,GND*%
X23900000Y34782500D03*
%TD*%
D25*
%TO.P,C6,1*%
%TO.N,/PC14{slash}OSC32IN*%
X32131000Y31496000D03*
%TO.P,C6,2*%
%TO.N,GND*%
X34206000Y31496000D03*
%TD*%
D17*
%TO.P,JP2,1,A*%
%TO.N,VDD*%
X35052000Y53086000D03*
D18*
%TO.P,JP2,2,B*%
%TO.N,VDD{slash}VDDUSB*%
X35052000Y54535998D03*
%TD*%
D25*
%TO.P,C7,1*%
%TO.N,/PC15{slash}OSC32OUT*%
X32143500Y34036000D03*
%TO.P,C7,2*%
%TO.N,GND*%
X34218500Y34036000D03*
%TD*%
D16*
%TO.P,C15,1*%
%TO.N,VDD*%
X18087500Y42420000D03*
%TO.P,C15,2*%
%TO.N,GND*%
X16012500Y42420000D03*
%TD*%
%TO.P,R3,1*%
%TO.N,GND*%
X17780000Y5080000D03*
%TO.P,R3,2*%
%TO.N,/PH3{slash}BOOT0*%
X15705000Y5080000D03*
%TD*%
D29*
%TO.P,L1,1*%
%TO.N,VDD*%
X10475000Y11220000D03*
%TO.P,L1,2*%
%TO.N,VDD_A*%
X12525000Y11220000D03*
%TD*%
D30*
%TO.P,U1,1,VBAT*%
%TO.N,VBAT{slash}VLCD*%
X30074999Y40075000D03*
%TO.P,U1,2,PC13*%
%TO.N,/PC13*%
X29575000Y40075000D03*
%TO.P,U1,3,PC14*%
%TO.N,/PC14{slash}OSC32IN*%
X29075000Y40075000D03*
%TO.P,U1,4,PC15*%
%TO.N,/PC15{slash}OSC32OUT*%
X28575000Y40075000D03*
%TO.P,U1,5,PH0/PD0/PF0*%
%TO.N,/PH0{slash}OSCIN*%
X28075000Y40075000D03*
%TO.P,U1,6,PH1/PF1/PD1*%
%TO.N,/PH1{slash}OSCOUT*%
X27574999Y40075000D03*
%TO.P,U1,7,NRST*%
%TO.N,/NRST*%
X27075000Y40075000D03*
%TO.P,U1,8,PC0*%
%TO.N,/PC0*%
X26575000Y40075000D03*
%TO.P,U1,9,PC1*%
%TO.N,/PC1*%
X26075000Y40075000D03*
%TO.P,U1,10,PC2*%
%TO.N,/PC2*%
X25575000Y40075000D03*
%TO.P,U1,11,PC3*%
%TO.N,/PC3*%
X25075001Y40075000D03*
%TO.P,U1,12,VSSA*%
%TO.N,GND*%
X24575000Y40075000D03*
%TO.P,U1,13,VDDA*%
%TO.N,VDD_A*%
X24075000Y40075000D03*
%TO.P,U1,14,PA0*%
%TO.N,/PA0*%
X23575000Y40075000D03*
%TO.P,U1,15,PA1*%
%TO.N,/PA1*%
X23075000Y40075000D03*
%TO.P,U1,16,PA2*%
%TO.N,/PA2*%
X22575001Y40075000D03*
D31*
%TO.P,U1,17,PA3*%
%TO.N,/PA3*%
X20650000Y42000001D03*
%TO.P,U1,18,VSS*%
%TO.N,GND*%
X20650000Y42500000D03*
%TO.P,U1,19,VDD*%
%TO.N,VDD*%
X20650000Y43000000D03*
%TO.P,U1,20,PA4*%
%TO.N,/PA4*%
X20650000Y43500000D03*
%TO.P,U1,21,PA5*%
%TO.N,/PA5*%
X20650000Y44000000D03*
%TO.P,U1,22,PA6*%
%TO.N,/PA6*%
X20650000Y44500001D03*
%TO.P,U1,23,PA7*%
%TO.N,/PA7*%
X20650000Y45000000D03*
%TO.P,U1,24,PC4*%
%TO.N,/PC4*%
X20650000Y45500000D03*
%TO.P,U1,25,PC5*%
%TO.N,/PC5*%
X20650000Y46000000D03*
%TO.P,U1,26,PB0*%
%TO.N,/PB0*%
X20650000Y46500000D03*
%TO.P,U1,27,PB1*%
%TO.N,/PB1*%
X20650000Y46999999D03*
%TO.P,U1,28,PB2*%
%TO.N,/PB2*%
X20650000Y47500000D03*
%TO.P,U1,29,PB10*%
%TO.N,/PB10*%
X20650000Y48000000D03*
%TO.P,U1,30,VCAP/PB11*%
%TO.N,/PB11{slash}VCAP*%
X20650000Y48500000D03*
%TO.P,U1,31,VSS*%
%TO.N,GND*%
X20650000Y49000000D03*
%TO.P,U1,32,VDD*%
%TO.N,VDD*%
X20650000Y49499999D03*
D30*
%TO.P,U1,33,PB12*%
%TO.N,/PB12*%
X22575001Y51425000D03*
%TO.P,U1,34,PB13*%
%TO.N,/PB13*%
X23075000Y51425000D03*
%TO.P,U1,35,PB14*%
%TO.N,/PB14*%
X23575000Y51425000D03*
%TO.P,U1,36,PB15*%
%TO.N,/PB15*%
X24075000Y51425000D03*
%TO.P,U1,37,PC6*%
%TO.N,/PC6*%
X24575000Y51425000D03*
%TO.P,U1,38,PC7*%
%TO.N,/PC7*%
X25075001Y51425000D03*
%TO.P,U1,39,PC8*%
%TO.N,/PC8*%
X25575000Y51425000D03*
%TO.P,U1,40,PC9*%
%TO.N,/PC9*%
X26075000Y51425000D03*
%TO.P,U1,41,PA8*%
%TO.N,/PA8*%
X26575000Y51425000D03*
%TO.P,U1,42,PA9*%
%TO.N,/PA9_USB_VBUS*%
X27075000Y51425000D03*
%TO.P,U1,43,PA10*%
%TO.N,/PA10_USB_ID*%
X27574999Y51425000D03*
%TO.P,U1,44,PA11*%
%TO.N,/PA11_USB_DM*%
X28075000Y51425000D03*
%TO.P,U1,45,PA12*%
%TO.N,/PA12_USB_DP*%
X28575000Y51425000D03*
%TO.P,U1,46,PA13/SWDIO*%
%TO.N,/PA13{slash}SWDIO*%
X29075000Y51425000D03*
%TO.P,U1,47,VSS*%
%TO.N,GND*%
X29575000Y51425000D03*
%TO.P,U1,48,VDD/VDDUSB/VDDIO2*%
%TO.N,VDD{slash}VDDUSB*%
X30074999Y51425000D03*
D31*
%TO.P,U1,49,PA14/SWCLK*%
%TO.N,/PA14{slash}SWCK*%
X32000000Y49499999D03*
%TO.P,U1,50,PA15*%
%TO.N,/PA15*%
X32000000Y49000000D03*
%TO.P,U1,51,PC10*%
%TO.N,/PC10*%
X32000000Y48500000D03*
%TO.P,U1,52,PC11*%
%TO.N,/PC11*%
X32000000Y48000000D03*
%TO.P,U1,53,PC12*%
%TO.N,/PC12*%
X32000000Y47500000D03*
%TO.P,U1,54,PD2*%
%TO.N,/PD2*%
X32000000Y46999999D03*
%TO.P,U1,55,PB3/SWO*%
%TO.N,/PB3{slash}SWO*%
X32000000Y46500000D03*
%TO.P,U1,56,PB4*%
%TO.N,/PB4*%
X32000000Y46000000D03*
%TO.P,U1,57,PB5*%
%TO.N,/PB5*%
X32000000Y45500000D03*
%TO.P,U1,58,PB6*%
%TO.N,/PB6*%
X32000000Y45000000D03*
%TO.P,U1,59,PB7*%
%TO.N,/PB7*%
X32000000Y44500001D03*
%TO.P,U1,60,BOOT0/PH3/PF11*%
%TO.N,/PH3{slash}BOOT0*%
X32000000Y44000000D03*
%TO.P,U1,61,PB8*%
%TO.N,/PB8*%
X32000000Y43500000D03*
%TO.P,U1,62,VCAP/PB9*%
%TO.N,/PB9{slash}VCAP*%
X32000000Y43000000D03*
%TO.P,U1,63,VSS*%
%TO.N,GND*%
X32000000Y42500000D03*
%TO.P,U1,64,VDD*%
%TO.N,VDD*%
X32000000Y42000001D03*
%TD*%
D32*
%TO.P,F1,1*%
%TO.N,Net-(J7-Pin_1)*%
X14925000Y89120000D03*
%TO.P,F1,2*%
%TO.N,Net-(D2-K)*%
X19375000Y89120000D03*
%TD*%
D16*
%TO.P,C16,1*%
%TO.N,VDD*%
X19579500Y51689000D03*
%TO.P,C16,2*%
%TO.N,GND*%
X17504500Y51689000D03*
%TD*%
D25*
%TO.P,C9,1*%
%TO.N,/PH1{slash}OSCOUT*%
X27262000Y24054000D03*
%TO.P,C9,2*%
%TO.N,GND*%
X29337000Y24054000D03*
%TD*%
D33*
%TO.P,JP3,1,A*%
%TO.N,/PB11*%
X10500000Y55000000D03*
D34*
%TO.P,JP3,2,B*%
%TO.N,/PB11{slash}VCAP*%
X11525304Y53974696D03*
%TD*%
D35*
%TO.P,J6,1,VBUS*%
%TO.N,/USB_5V*%
X34895000Y85730000D03*
%TO.P,J6,2,D-*%
%TO.N,/PA11_USB_DM*%
X35545000Y85730000D03*
%TO.P,J6,3,D+*%
%TO.N,/PA12_USB_DP*%
X36195000Y85730000D03*
%TO.P,J6,4,ID*%
%TO.N,Net-(J6-ID)*%
X36845000Y85730000D03*
%TO.P,J6,5,GND*%
%TO.N,GND*%
X37495000Y85730000D03*
D36*
%TO.P,J6,6,Shield*%
X32320000Y89580000D03*
D37*
X32470000Y85780000D03*
X39920000Y85780000D03*
D36*
X40070000Y89580000D03*
%TD*%
D38*
%TO.P,D1,1,K*%
%TO.N,/VCC_5V*%
X15300000Y80020000D03*
%TO.P,D1,2,A*%
%TO.N,GND*%
X15300000Y85020000D03*
%TD*%
D16*
%TO.P,C8,1*%
%TO.N,/PH0{slash}OSCIN*%
X33350000Y24054000D03*
%TO.P,C8,2*%
%TO.N,GND*%
X31275000Y24054000D03*
%TD*%
D26*
%TO.P,U4,1,VI*%
%TO.N,/USB_5V*%
X45390200Y81485100D03*
%TO.P,U4,2,GND*%
%TO.N,GND*%
X45390199Y79185100D03*
D27*
X39090201Y79185100D03*
D26*
%TO.P,U4,3,VO*%
%TO.N,VDD{slash}VDDUSB*%
X45390200Y76885100D03*
%TD*%
D24*
%TO.P,C3,1*%
%TO.N,/USB_5V*%
X31250000Y83107500D03*
%TO.P,C3,2*%
%TO.N,GND*%
X31250000Y81032500D03*
%TD*%
D28*
%TO.P,C5,1*%
%TO.N,VDD{slash}VDDUSB*%
X48006000Y76178500D03*
%TO.P,C5,2*%
%TO.N,GND*%
X48006000Y78253500D03*
%TD*%
D39*
%TO.P,JP4,1,A*%
%TO.N,/PB9*%
X42478834Y29222992D03*
D40*
%TO.P,JP4,2,B*%
%TO.N,/PB9{slash}VCAP*%
X41028834Y29222992D03*
%TD*%
D28*
%TO.P,C12,1*%
%TO.N,VDD{slash}VDDUSB*%
X32385000Y52705000D03*
%TO.P,C12,2*%
%TO.N,GND*%
X32385000Y54780000D03*
%TD*%
D41*
%TO.P,C13,1*%
%TO.N,VBAT{slash}VLCD*%
X36350377Y35207377D03*
%TO.P,C13,2*%
%TO.N,GND*%
X37817623Y36674623D03*
%TD*%
D20*
%TO.P,C17,1*%
%TO.N,VDD*%
X33429377Y39214623D03*
%TO.P,C17,2*%
%TO.N,GND*%
X34896623Y37747377D03*
%TD*%
D42*
%TO.N,GND*%
X38227000Y39370000D03*
X49211900Y79185100D03*
X29337000Y25399998D03*
X13050000Y76770000D03*
X18492000Y54991000D03*
X29579002Y50153203D03*
X41021000Y79185100D03*
X18492000Y51689000D03*
X35561333Y37085329D03*
X22063800Y42229533D03*
X30650000Y42470000D03*
X3250000Y76270000D03*
X24579000Y41402000D03*
X15952000Y49022000D03*
X3250000Y81919998D03*
X32385000Y53792497D03*
X13499984Y79270000D03*
X31250000Y82020000D03*
X23900002Y35719998D03*
X34163000Y32766000D03*
X31274997Y25367003D03*
X17000000Y42420000D03*
X37600000Y84320000D03*
X37119356Y35976356D03*
X19050000Y49276000D03*
X27600006Y84170000D03*
%TO.N,VBAT{slash}VLCD*%
X33273996Y37719004D03*
%TO.N,/USB_5V*%
X33693100Y83400900D03*
X39116000Y83439000D03*
%TO.N,/PA13{slash}SWDIO*%
X45720000Y66167000D03*
X43180000Y66167000D03*
%TO.N,/PH3{slash}BOOT0*%
X29900004Y11320000D03*
%TO.N,Net-(J6-ID)*%
X37200016Y79500000D03*
X34250007Y79500000D03*
%TD*%
D43*
%TO.N,GND*%
X16510000Y16510000D02*
X16510000Y13970000D01*
D44*
X37495000Y85730000D02*
X37495000Y84425000D01*
D43*
X21890000Y84870000D02*
X19350000Y84870000D01*
D45*
X31275000Y25367000D02*
X31274997Y25367003D01*
D46*
X17504500Y54991000D02*
X18492000Y54991000D01*
D44*
X37495000Y84425000D02*
X37600000Y84320000D01*
D46*
X14000000Y76770000D02*
X13050000Y76770000D01*
D43*
X3810000Y59690000D02*
X6350000Y59690000D01*
D46*
X19912500Y78107500D02*
X19350000Y78670000D01*
D45*
X30680000Y42500000D02*
X30650000Y42470000D01*
X29579000Y51395000D02*
X29579000Y50153205D01*
D46*
X48006000Y80094000D02*
X48006000Y79248000D01*
X16137500Y18152500D02*
X16510000Y17780000D01*
D43*
X11200000Y79270000D02*
X11000000Y79070000D01*
D46*
X23900000Y34782500D02*
X23900000Y35719996D01*
D45*
X15450000Y84870000D02*
X15300000Y85020000D01*
D46*
X15952000Y49022000D02*
X14964500Y49022000D01*
D44*
X37495000Y85730000D02*
X39870000Y85730000D01*
D43*
X17400000Y84870000D02*
X19350000Y84870000D01*
D45*
X19326000Y49000000D02*
X19050000Y49276000D01*
X34218500Y34036000D02*
X34163000Y33980500D01*
D46*
X16137500Y19170000D02*
X16137500Y18152500D01*
X31250000Y81032500D02*
X31250000Y82020000D01*
D45*
X31275000Y24054000D02*
X31275000Y25367000D01*
X34163000Y31539000D02*
X34163000Y32766000D01*
D43*
X12150000Y79270000D02*
X11200000Y79270000D01*
X3810000Y26670000D02*
X6350000Y26670000D01*
D45*
X32000000Y42500000D02*
X30680000Y42500000D01*
D46*
X47943100Y79185100D02*
X48006000Y79248000D01*
D44*
X39870000Y85730000D02*
X39920000Y85780000D01*
D45*
X20650000Y49000000D02*
X19326000Y49000000D01*
D46*
X19912500Y77120000D02*
X19912500Y78107500D01*
X37817623Y36674623D02*
X37119356Y35976356D01*
X47943100Y79185100D02*
X49211900Y79185100D01*
D45*
X34163000Y33980500D02*
X34163000Y32766000D01*
D43*
X41910000Y73660000D02*
X41910000Y71120000D01*
D46*
X17504500Y51689000D02*
X18492000Y51689000D01*
D43*
X11000000Y79070000D02*
X9550000Y79070000D01*
X3250000Y79070000D02*
X3250000Y76270000D01*
D45*
X24579000Y40045000D02*
X24579000Y41402000D01*
D43*
X44445000Y26670000D02*
X46985000Y26670000D01*
D46*
X37084000Y40513000D02*
X38227000Y39370000D01*
D43*
X19350000Y79790000D02*
X21890000Y79790000D01*
X15300000Y85020000D02*
X17250000Y85020000D01*
D45*
X29579000Y50153205D02*
X29579002Y50153203D01*
X20650000Y42500000D02*
X21793333Y42500000D01*
D43*
X17250000Y85020000D02*
X17400000Y84870000D01*
D45*
X23850000Y35669996D02*
X23900002Y35719998D01*
X21793333Y42500000D02*
X22063800Y42229533D01*
D46*
X35023623Y37620377D02*
X35558671Y37085329D01*
D45*
X17780000Y6430000D02*
X17780000Y5080000D01*
D46*
X16510000Y17780000D02*
X16510000Y16510000D01*
D45*
X23850000Y35295000D02*
X23850000Y35669996D01*
D46*
X48006000Y79248000D02*
X48006000Y78253500D01*
D45*
X29337000Y24054000D02*
X29337000Y25399998D01*
X18070000Y6720000D02*
X17780000Y6430000D01*
X18070000Y8330000D02*
X18070000Y6720000D01*
X34206000Y31496000D02*
X34163000Y31539000D01*
D46*
X32385000Y54780000D02*
X32385000Y53792497D01*
X45390199Y79185100D02*
X47943100Y79185100D01*
X23900000Y35719996D02*
X23900002Y35719998D01*
X19350000Y78670000D02*
X19350000Y79790000D01*
X28887500Y84170000D02*
X27600006Y84170000D01*
X16012500Y42420000D02*
X17000000Y42420000D01*
D43*
X3250000Y79070000D02*
X3250000Y81919998D01*
D46*
X35558671Y37085329D02*
X35561333Y37085329D01*
X39090201Y79185100D02*
X45390199Y79185100D01*
X12150000Y79270000D02*
X13499984Y79270000D01*
%TO.N,VBAT{slash}VLCD*%
X44500000Y19775001D02*
X44500000Y16560000D01*
D43*
X44450000Y16510000D02*
X44450000Y13970000D01*
D46*
X38227000Y25293000D02*
X38227000Y33330754D01*
X39189500Y24330500D02*
X43745000Y19775001D01*
X33273996Y37708302D02*
X33273996Y37719004D01*
D45*
X30079000Y40045000D02*
X32404996Y37719004D01*
D46*
X39189500Y24330500D02*
X38227000Y25293000D01*
X44500000Y16560000D02*
X44450000Y16510000D01*
X36350377Y35207377D02*
X35774921Y35207377D01*
X43745000Y19775001D02*
X44500000Y19775001D01*
D45*
X32404996Y37719004D02*
X33273996Y37719004D01*
D46*
X38227000Y33330754D02*
X36350377Y35207377D01*
X35774921Y35207377D02*
X33273996Y37708302D01*
%TO.N,VDD{slash}VDDUSB*%
X44450000Y71120000D02*
X44450000Y64770000D01*
X32777531Y52705000D02*
X34613434Y54540903D01*
X34613434Y54540903D02*
X35052000Y54540903D01*
D43*
X44450000Y74930000D02*
X45390200Y75870200D01*
D46*
X32385000Y52705000D02*
X32777531Y52705000D01*
D45*
X30074999Y51425000D02*
X30597000Y51425000D01*
D46*
X44450000Y64770000D02*
X35052000Y55372000D01*
D45*
X30597000Y51425000D02*
X30607000Y51435000D01*
D46*
X35052000Y55372000D02*
X35052000Y54540903D01*
D43*
X44450000Y71120000D02*
X44450000Y73660000D01*
D46*
X47773500Y76178500D02*
X48006000Y76178500D01*
D43*
X44450000Y73660000D02*
X44450000Y74930000D01*
D46*
X31115000Y51435000D02*
X30607000Y51435000D01*
D43*
X45390200Y75870200D02*
X45390200Y76885100D01*
D46*
X47066900Y76885100D02*
X47773500Y76178500D01*
X32385000Y52705000D02*
X31115000Y51435000D01*
X45390200Y76885100D02*
X47066900Y76885100D01*
%TO.N,VDD*%
X30394541Y41275000D02*
X32004000Y41275000D01*
X22860000Y42970000D02*
X22904000Y42926000D01*
D43*
X42545000Y24130000D02*
X39624000Y27051000D01*
X6350000Y62230000D02*
X15240000Y53340000D01*
D46*
X22860000Y50038000D02*
X22860000Y47752000D01*
X33556377Y39087623D02*
X36871871Y39087623D01*
D43*
X39624000Y27051000D02*
X39624000Y36322000D01*
D46*
X22904000Y42926000D02*
X28743541Y42926000D01*
D43*
X9550000Y76770000D02*
X11925000Y76770000D01*
D46*
X21971000Y50038000D02*
X22860000Y50038000D01*
D44*
X44500000Y21224999D02*
X44500000Y24075000D01*
D43*
X3810000Y29210000D02*
X6350000Y29210000D01*
D45*
X32004000Y41970000D02*
X32004000Y41275000D01*
D43*
X20250000Y9220000D02*
X20250000Y7070000D01*
D46*
X30226000Y49403000D02*
X30966500Y50143500D01*
D43*
X15240000Y53340000D02*
X19579500Y53340000D01*
D45*
X18087500Y42420000D02*
X19050000Y42420000D01*
D46*
X19579500Y51689000D02*
X19579500Y51540500D01*
D43*
X1800000Y15565787D02*
X9035787Y8330000D01*
X9550000Y76770000D02*
X7550000Y76770000D01*
X3810000Y29210000D02*
X1910000Y29210000D01*
X10450000Y8330000D02*
X12475126Y8330000D01*
D46*
X36871871Y39087623D02*
X39624000Y36335494D01*
D45*
X19050000Y42420000D02*
X19630000Y43000000D01*
D46*
X27940000Y50038000D02*
X28575000Y49403000D01*
D43*
X1800000Y62000000D02*
X1800000Y71302032D01*
X10450000Y8330000D02*
X10450000Y1830000D01*
X1800000Y29320000D02*
X1800000Y15565787D01*
D45*
X20650000Y49499999D02*
X20650000Y50038000D01*
D43*
X2030000Y62230000D02*
X1800000Y62000000D01*
D46*
X10475000Y11220000D02*
X10475000Y8355000D01*
D43*
X1800000Y29320000D02*
X1800000Y62000000D01*
X3810000Y62230000D02*
X2030000Y62230000D01*
X20250000Y7070000D02*
X24780000Y2540000D01*
X3810000Y62230000D02*
X6350000Y62230000D01*
D45*
X19630000Y43000000D02*
X20650000Y43000000D01*
D46*
X19579500Y54991000D02*
X19579500Y53340000D01*
D43*
X1800000Y71302032D02*
X7267968Y76770000D01*
D46*
X32004000Y40640000D02*
X32004000Y41275000D01*
D43*
X1910000Y29210000D02*
X1800000Y29320000D01*
D46*
X20650000Y50470000D02*
X21539000Y50470000D01*
X22860000Y47752000D02*
X22860000Y42970000D01*
X32109500Y50143500D02*
X30966500Y50143500D01*
X39624000Y36335494D02*
X39624000Y36322000D01*
X19579500Y53340000D02*
X19579500Y51689000D01*
X21539000Y50470000D02*
X21971000Y50038000D01*
D43*
X44445000Y24130000D02*
X46985000Y24130000D01*
X18950000Y10520000D02*
X20250000Y9220000D01*
D45*
X26670000Y2540000D02*
X26486167Y2540000D01*
D46*
X28575000Y49403000D02*
X30226000Y49403000D01*
X22860000Y50038000D02*
X27940000Y50038000D01*
X28743541Y42926000D02*
X30394541Y41275000D01*
X33556377Y39087623D02*
X32004000Y40640000D01*
D45*
X22830000Y43000000D02*
X22860000Y42970000D01*
D43*
X12475126Y8330000D02*
X14665126Y10520000D01*
X9035787Y8330000D02*
X10450000Y8330000D01*
X24780000Y2540000D02*
X26670000Y2540000D01*
X44445000Y24130000D02*
X42545000Y24130000D01*
X7267968Y76770000D02*
X7550000Y76770000D01*
D46*
X10475000Y8355000D02*
X10450000Y8330000D01*
X35052000Y53086000D02*
X32109500Y50143500D01*
D45*
X20650000Y43000000D02*
X22830000Y43000000D01*
D46*
X20650000Y50470000D02*
X20650000Y50038000D01*
D43*
X14665126Y10520000D02*
X18950000Y10520000D01*
D44*
X44500000Y24075000D02*
X44445000Y24130000D01*
D46*
X19579500Y51540500D02*
X20650000Y50470000D01*
D45*
%TO.N,VDD_A*%
X24079000Y40045000D02*
X24079000Y38049000D01*
X23737500Y36857500D02*
X23900000Y36857500D01*
D46*
X14062500Y19170000D02*
X14062500Y27020000D01*
D43*
X13970000Y16510000D02*
X13970000Y13970000D01*
D45*
X13950000Y13950000D02*
X13970000Y13970000D01*
D46*
X12525000Y11220000D02*
X12525000Y12525000D01*
D45*
X23900000Y37870000D02*
X23900000Y36857500D01*
D46*
X14062500Y17999500D02*
X14062500Y19170000D01*
D45*
X24079000Y38049000D02*
X23900000Y37870000D01*
D46*
X12525000Y12525000D02*
X13970000Y13970000D01*
X14062500Y27020000D02*
X23900000Y36857500D01*
X13970000Y17907000D02*
X13970000Y16510000D01*
X14062500Y17999500D02*
X13970000Y17907000D01*
D43*
%TO.N,/PC1*%
X24130000Y16510000D02*
X24130000Y13970000D01*
D45*
X26079000Y31667000D02*
X26079000Y40045000D01*
X24130000Y29718000D02*
X26079000Y31667000D01*
X24130000Y16510000D02*
X24130000Y29718000D01*
D43*
%TO.N,/PC0*%
X26670000Y16510000D02*
X26670000Y13970000D01*
D45*
X26670000Y16510000D02*
X25700000Y17480000D01*
X25700000Y17480000D02*
X25700000Y29891000D01*
X26579000Y30770000D02*
X26579000Y40045000D01*
X25700000Y29891000D02*
X26579000Y30770000D01*
%TO.N,/PC13*%
X33181000Y36161000D02*
X33816000Y36161000D01*
X33816000Y36161000D02*
X37100000Y32877000D01*
D43*
X41910000Y16510000D02*
X41910000Y13970000D01*
D45*
X30275396Y38481000D02*
X30861000Y38481000D01*
X30861000Y38481000D02*
X33181000Y36161000D01*
X29579000Y39177396D02*
X30275396Y38481000D01*
X37100000Y32877000D02*
X37100000Y25020000D01*
X29579000Y40045000D02*
X29579000Y39177396D01*
X37100000Y25020000D02*
X41910000Y20210000D01*
X41910000Y20210000D02*
X41910000Y16510000D01*
%TO.N,/PC3*%
X25079000Y40045000D02*
X25079000Y33207000D01*
X19050000Y27178000D02*
X19050000Y16510000D01*
D43*
X19050000Y16510000D02*
X19050000Y13970000D01*
D45*
X25079000Y33207000D02*
X19050000Y27178000D01*
D43*
%TO.N,/PA2*%
X6350000Y16510000D02*
X6350000Y13970000D01*
D45*
X7525000Y21295000D02*
X6350000Y20120000D01*
X7525000Y23745000D02*
X7525000Y21295000D01*
X22579000Y38799000D02*
X7525000Y23745000D01*
X6350000Y20120000D02*
X6350000Y16510000D01*
X22579000Y40045000D02*
X22579000Y38799000D01*
%TO.N,/PC2*%
X21590000Y16510000D02*
X21590000Y28321000D01*
D43*
X21590000Y16510000D02*
X21590000Y13970000D01*
D45*
X21590000Y28321000D02*
X25579000Y32310000D01*
X25579000Y32310000D02*
X25579000Y40045000D01*
%TO.N,/NRST*%
X27079000Y40045000D02*
X27079000Y29873000D01*
X31040000Y8330000D02*
X29210000Y8330000D01*
X27079000Y29873000D02*
X26289000Y29083000D01*
X36830000Y2540000D02*
X31040000Y8330000D01*
X29210000Y13970000D02*
X29210000Y8330000D01*
X26289000Y29083000D02*
X26289000Y22225000D01*
D43*
X29210000Y16510000D02*
X29210000Y13970000D01*
D45*
X36830000Y2540000D02*
X36680000Y2540000D01*
X29210000Y8330000D02*
X22570000Y8330000D01*
X29210000Y19304000D02*
X29210000Y16510000D01*
X26289000Y22225000D02*
X29210000Y19304000D01*
%TO.N,/PA0*%
X11430000Y26100000D02*
X11430000Y16510000D01*
D43*
X11430000Y16510000D02*
X11430000Y13970000D01*
D45*
X23579000Y40045000D02*
X23579000Y38249000D01*
X23579000Y38249000D02*
X11430000Y26100000D01*
%TO.N,/PA1*%
X8890000Y24360000D02*
X23079000Y38549000D01*
X23079000Y38549000D02*
X23079000Y40045000D01*
X8890000Y16510000D02*
X8890000Y24360000D01*
D43*
X8890000Y16510000D02*
X8890000Y13970000D01*
D45*
%TO.N,/PA3*%
X19530001Y42000001D02*
X13550000Y36020000D01*
X13550000Y31330000D02*
X6350000Y24130000D01*
D43*
X3810000Y24130000D02*
X6350000Y24130000D01*
D45*
X20654000Y41970000D02*
X20623999Y42000001D01*
X13550000Y36020000D02*
X13550000Y31330000D01*
X20623999Y42000001D02*
X19530001Y42000001D01*
D43*
%TO.N,/PA4*%
X3810000Y31750000D02*
X6350000Y31750000D01*
D45*
X15330000Y43500000D02*
X13150000Y41320000D01*
X13150000Y38550000D02*
X6350000Y31750000D01*
X20650000Y43500000D02*
X15330000Y43500000D01*
X13150000Y41320000D02*
X13150000Y38550000D01*
%TO.N,/PA5*%
X20650000Y44000000D02*
X14630000Y44000000D01*
D43*
X3810000Y34290000D02*
X6350000Y34290000D01*
D45*
X14630000Y44000000D02*
X11800000Y41170000D01*
X11800000Y39740000D02*
X6350000Y34290000D01*
X11800000Y41170000D02*
X11800000Y39740000D01*
D43*
%TO.N,/PA6*%
X3810000Y36830000D02*
X6350000Y36830000D01*
D45*
X14020001Y44500001D02*
X6350000Y36830000D01*
X20650000Y44500001D02*
X14020001Y44500001D01*
%TO.N,/PB10*%
X12960000Y48000000D02*
X14353900Y48000000D01*
X14353900Y48000000D02*
X14381900Y47972000D01*
X6350000Y54610000D02*
X12960000Y48000000D01*
X14381900Y47972000D02*
X17622100Y47972000D01*
D43*
X3810000Y54610000D02*
X6350000Y54610000D01*
D45*
X17650100Y48000000D02*
X20650000Y48000000D01*
X17622100Y47972000D02*
X17650100Y48000000D01*
%TO.N,/PB0*%
X8170000Y46500000D02*
X20650000Y46500000D01*
X6350000Y46990000D02*
X7680000Y46990000D01*
X7904000Y46766000D02*
X8170000Y46500000D01*
X7680000Y46990000D02*
X7904000Y46766000D01*
D43*
X3810000Y46990000D02*
X6350000Y46990000D01*
%TO.N,/PB2*%
X3810000Y52070000D02*
X6350000Y52070000D01*
D45*
X20650000Y47500000D02*
X10920000Y47500000D01*
X10920000Y47500000D02*
X6350000Y52070000D01*
%TO.N,/PB1*%
X6350000Y49530000D02*
X8880001Y46999999D01*
X8880001Y46999999D02*
X20650000Y46999999D01*
D43*
X3810000Y49530000D02*
X6350000Y49530000D01*
D45*
%TO.N,/PA7*%
X11824020Y44817980D02*
X6376041Y39370000D01*
D43*
X3810000Y39370000D02*
X6350000Y39370000D01*
D45*
X6376041Y39370000D02*
X6350000Y39370000D01*
X11976041Y44970000D02*
X11824020Y44817980D01*
X20650000Y45000000D02*
X12006040Y45000000D01*
X12006040Y45000000D02*
X11824020Y44817980D01*
D43*
%TO.N,/PB15*%
X13970000Y73660000D02*
X13970000Y71120000D01*
D45*
X24079000Y61011000D02*
X13970000Y71120000D01*
X24079000Y51395000D02*
X24079000Y61011000D01*
%TO.N,/PA8*%
X26579000Y51395000D02*
X26579000Y69309000D01*
X26579000Y69309000D02*
X26670000Y69400000D01*
X26670000Y69400000D02*
X26670000Y71120000D01*
D43*
X26670000Y73660000D02*
X26670000Y71120000D01*
D45*
%TO.N,/PC8*%
X25579000Y51395000D02*
X25579000Y67131000D01*
X25579000Y67131000D02*
X21590000Y71120000D01*
D43*
X21590000Y73660000D02*
X21590000Y71120000D01*
%TO.N,/PC6*%
X16510000Y73660000D02*
X16510000Y71120000D01*
D45*
X24579000Y51395000D02*
X24579000Y63051000D01*
X24579000Y63051000D02*
X16510000Y71120000D01*
%TO.N,/PB14*%
X23579000Y58971000D02*
X11430000Y71120000D01*
D43*
X11430000Y73660000D02*
X11430000Y71120000D01*
D45*
X23579000Y51395000D02*
X23579000Y58971000D01*
D43*
%TO.N,/PC7*%
X19050000Y73660000D02*
X19050000Y71120000D01*
D45*
X25079000Y65091000D02*
X19050000Y71120000D01*
X25079000Y51395000D02*
X25079000Y65091000D01*
D43*
%TO.N,/PB13*%
X8890000Y73660000D02*
X8890000Y71120000D01*
D45*
X23079000Y56931000D02*
X8890000Y71120000D01*
X23079000Y51395000D02*
X23079000Y56931000D01*
D43*
%TO.N,/PC9*%
X24130000Y73660000D02*
X24130000Y71120000D01*
D45*
X26079000Y69171000D02*
X24130000Y71120000D01*
X26079000Y51395000D02*
X26079000Y69171000D01*
%TO.N,/PB5*%
X40820000Y45500000D02*
X44410000Y41910000D01*
D43*
X44445000Y41910000D02*
X46985000Y41910000D01*
D45*
X32000000Y45500000D02*
X40820000Y45500000D01*
X44410000Y41910000D02*
X44445000Y41910000D01*
D43*
%TO.N,/PB7*%
X44445000Y36830000D02*
X46985000Y36830000D01*
D45*
X42799000Y39721000D02*
X42799000Y38476000D01*
X32000000Y44500001D02*
X38019999Y44500001D01*
X38019999Y44500001D02*
X42799000Y39721000D01*
X42799000Y38476000D02*
X44445000Y36830000D01*
%TO.N,/PD2*%
X32000000Y46999999D02*
X41879999Y46999999D01*
X44410000Y49530000D02*
X44445000Y49530000D01*
X41879999Y46999999D02*
X42334500Y47454500D01*
X42334500Y47454500D02*
X44410000Y49530000D01*
D43*
X44445000Y49530000D02*
X46985000Y49530000D01*
D45*
%TO.N,/PB8*%
X41275000Y34920000D02*
X44445000Y31750000D01*
X41275000Y39145000D02*
X41275000Y34920000D01*
D43*
X44445000Y31750000D02*
X46985000Y31750000D01*
D45*
X32000000Y43500000D02*
X36920000Y43500000D01*
X36920000Y43500000D02*
X41275000Y39145000D01*
%TO.N,/PC11*%
X38224500Y48389500D02*
X44445000Y54610000D01*
X32000000Y48000000D02*
X37835000Y48000000D01*
D43*
X44445000Y54610000D02*
X46985000Y54610000D01*
D45*
X37835000Y48000000D02*
X38224500Y48389500D01*
D43*
%TO.N,/PC12*%
X44445000Y52070000D02*
X46985000Y52070000D01*
D45*
X32000000Y47500000D02*
X39875000Y47500000D01*
X40066000Y47691000D02*
X44445000Y52070000D01*
X39875000Y47500000D02*
X40066000Y47691000D01*
%TO.N,/PA15*%
X33755000Y49000000D02*
X33843000Y49088000D01*
X33843000Y49088000D02*
X44445000Y59690000D01*
D43*
X44445000Y59690000D02*
X46985000Y59690000D01*
D45*
X32000000Y49000000D02*
X33755000Y49000000D01*
%TO.N,/PC10*%
X36337000Y49007000D02*
X44445000Y57115000D01*
X44445000Y57115000D02*
X44445000Y57150000D01*
D43*
X44445000Y57150000D02*
X46985000Y57150000D01*
D45*
X35830000Y48500000D02*
X36337000Y49007000D01*
X32000000Y48500000D02*
X35830000Y48500000D01*
%TO.N,/PB4*%
X32000000Y46000000D02*
X41470000Y46000000D01*
X41470000Y46000000D02*
X43020000Y44450000D01*
X43020000Y44450000D02*
X44445000Y44450000D01*
D43*
X44445000Y44450000D02*
X46985000Y44450000D01*
D45*
%TO.N,/PB6*%
X38815000Y45000000D02*
X44445000Y39370000D01*
D43*
X44445000Y39370000D02*
X46985000Y39370000D01*
D45*
X32000000Y45000000D02*
X38815000Y45000000D01*
%TO.N,/PB11{slash}VCAP*%
X18401000Y49022000D02*
X18923000Y48500000D01*
X14319000Y51181000D02*
X15875000Y51181000D01*
X18923000Y48500000D02*
X20650000Y48500000D01*
X15875000Y51181000D02*
X17039500Y50016500D01*
X17039500Y50016500D02*
X17039500Y49022000D01*
X11525304Y53974696D02*
X14319000Y51181000D01*
X17039500Y49022000D02*
X18401000Y49022000D01*
D47*
%TO.N,/PA12_USB_DP*%
X36830000Y73660000D02*
X36200000Y74290000D01*
D45*
X36845000Y73675000D02*
X36830000Y73660000D01*
X28579000Y51395000D02*
X28579000Y52408160D01*
X29328000Y53028000D02*
X29700001Y53400001D01*
X29198840Y53028000D02*
X29328000Y53028000D01*
D47*
X36830000Y73660000D02*
X36100000Y72930000D01*
D44*
X36200000Y83400000D02*
X36195000Y83405000D01*
D47*
X36100000Y68385786D02*
X36100000Y70390000D01*
X29700000Y61985786D02*
X29700001Y53774696D01*
X36100000Y71850000D02*
X36830000Y71120000D01*
X36100000Y68385786D02*
X29700000Y61985786D01*
D44*
X36195000Y83405000D02*
X36195000Y85730000D01*
D47*
X36100000Y72930000D02*
X36100000Y71850000D01*
D45*
X28579000Y52408160D02*
X29198840Y53028000D01*
X36195000Y85730000D02*
X36095000Y85630000D01*
D47*
X36200000Y74290000D02*
X36200000Y83400000D01*
X36100000Y70390000D02*
X36830000Y71120000D01*
D45*
X29700001Y53400001D02*
X29700001Y53774696D01*
%TO.N,/PA9_USB_VBUS*%
X27079000Y68989000D02*
X27079000Y51395000D01*
D44*
X29250000Y76182500D02*
X29250000Y73700000D01*
X29250000Y73700000D02*
X29210000Y73660000D01*
D45*
X29210000Y71120000D02*
X27079000Y68989000D01*
D43*
X29210000Y73660000D02*
X29210000Y71120000D01*
D47*
%TO.N,/PA11_USB_DM*%
X35199999Y74569999D02*
X35199999Y83591400D01*
X35100000Y71930000D02*
X34290000Y71120000D01*
X35100000Y68800000D02*
X35100000Y70310000D01*
X28700000Y53600000D02*
X28700000Y62400000D01*
X34290000Y73660000D02*
X35199999Y74569999D01*
D44*
X35545000Y84121472D02*
X35331400Y83907872D01*
D47*
X34290000Y73660000D02*
X35100000Y72850000D01*
X35100000Y72850000D02*
X35100000Y71930000D01*
X28700000Y62400000D02*
X35100000Y68800000D01*
D45*
X28079000Y51395000D02*
X28079000Y52979000D01*
D44*
X35545000Y85730000D02*
X35545000Y84121472D01*
D47*
X35100000Y70310000D02*
X34290000Y71120000D01*
D44*
X35331400Y83907872D02*
X35331400Y83591400D01*
D45*
X28079000Y52979000D02*
X28700000Y53600000D01*
D43*
%TO.N,/PA10_USB_ID*%
X31750000Y73660000D02*
X31750000Y71120000D01*
D45*
X27575000Y51399000D02*
X27575000Y66945000D01*
D44*
X31750000Y76973601D02*
X31750000Y73660000D01*
D45*
X27575000Y66945000D02*
X31750000Y71120000D01*
X27579000Y51395000D02*
X27575000Y51399000D01*
D43*
%TO.N,/VCC_5V*%
X9575000Y81345000D02*
X9550000Y81370000D01*
X15300000Y80020000D02*
X15300000Y80770000D01*
X19350000Y82330000D02*
X21890000Y82330000D01*
X15300000Y80020000D02*
X15300000Y80870000D01*
D46*
X23210000Y82330000D02*
X24500000Y83620000D01*
X26612500Y85120000D02*
X24900000Y85120000D01*
X24900000Y85120000D02*
X24500000Y84720000D01*
D45*
X12125000Y81370000D02*
X12150000Y81345000D01*
D43*
X10350000Y83770000D02*
X9550000Y82970000D01*
D46*
X24500000Y83620000D02*
X24500000Y84720000D01*
D43*
X15300000Y80870000D02*
X14050000Y80870000D01*
X14050000Y80870000D02*
X13575000Y81345000D01*
X12150000Y81345000D02*
X9575000Y81345000D01*
X9550000Y82970000D02*
X9550000Y81370000D01*
D46*
X21890000Y82330000D02*
X23210000Y82330000D01*
D43*
X16860000Y82330000D02*
X19350000Y82330000D01*
X10350000Y84955000D02*
X10350000Y83770000D01*
X15300000Y80770000D02*
X16860000Y82330000D01*
X13575000Y81345000D02*
X12150000Y81345000D01*
D45*
%TO.N,/PC14{slash}OSC32IN*%
X30550000Y31496000D02*
X32131000Y31496000D01*
X29079000Y39041000D02*
X29079000Y40045000D01*
X36450000Y27177000D02*
X32131000Y31496000D01*
X33056000Y35064000D02*
X29079000Y39041000D01*
X39370000Y19900000D02*
X36450000Y22820000D01*
X33056000Y32421000D02*
X33056000Y35064000D01*
X39370000Y16510000D02*
X39370000Y19900000D01*
X36450000Y22820000D02*
X36450000Y27177000D01*
X39370000Y13970000D02*
X39370000Y16510000D01*
X32131000Y31496000D02*
X33056000Y32421000D01*
%TO.N,/PC15{slash}OSC32OUT*%
X35350000Y26626000D02*
X35350000Y21020000D01*
X29725000Y31108000D02*
X31750000Y29083000D01*
X35350000Y21020000D02*
X36830000Y19540000D01*
X28579000Y38791000D02*
X30550000Y36820000D01*
X32143500Y34036000D02*
X30550000Y34036000D01*
X29725000Y33211000D02*
X29725000Y31108000D01*
X30550000Y36820000D02*
X30550000Y34036000D01*
X32893000Y29083000D02*
X35350000Y26626000D01*
X31750000Y29083000D02*
X32893000Y29083000D01*
X36830000Y19540000D02*
X36830000Y16510000D01*
X30550000Y34036000D02*
X29725000Y33211000D01*
X28579000Y40045000D02*
X28579000Y38791000D01*
X36830000Y16510000D02*
X36830000Y13970000D01*
%TO.N,/PH0{slash}OSCIN*%
X34290000Y16510000D02*
X34290000Y19330000D01*
X32820000Y25727000D02*
X32820000Y27178000D01*
X32766000Y27178000D02*
X32820000Y27178000D01*
X34290000Y19330000D02*
X33350000Y20270000D01*
X33350000Y20270000D02*
X33350000Y24054000D01*
X33350000Y24054000D02*
X33350000Y25197000D01*
X28079000Y31865000D02*
X32766000Y27178000D01*
X33350000Y25197000D02*
X32820000Y25727000D01*
X28079000Y40045000D02*
X28079000Y31865000D01*
X34290000Y16510000D02*
X34290000Y13970000D01*
%TO.N,/PH1{slash}OSCOUT*%
X27262000Y24976000D02*
X27940000Y25654000D01*
X27940000Y25654000D02*
X27940000Y27178000D01*
X31750000Y16510000D02*
X31750000Y13970000D01*
X27579000Y38920000D02*
X27579000Y40045000D01*
X27940000Y29505000D02*
X27575000Y29870000D01*
X27262000Y24054000D02*
X27262000Y23792000D01*
X27262000Y23792000D02*
X31750000Y19304000D01*
X27262000Y24054000D02*
X27262000Y24976000D01*
X27575000Y38916000D02*
X27579000Y38920000D01*
X31750000Y19304000D02*
X31750000Y19177000D01*
X27575000Y29870000D02*
X27575000Y38916000D01*
X31750000Y16510000D02*
X31750000Y19177000D01*
X27940000Y29505000D02*
X27940000Y27178000D01*
D46*
%TO.N,/USB_5V*%
X47322100Y81485100D02*
X48006000Y82169000D01*
X31250000Y84470000D02*
X31250000Y83107500D01*
X28887500Y85120000D02*
X30600000Y85120000D01*
X41069900Y81485100D02*
X39116000Y83439000D01*
X28887500Y86132500D02*
X27550000Y87470000D01*
X28887500Y85120000D02*
X28887500Y86132500D01*
X29260800Y78268300D02*
X29260800Y81118300D01*
X29250000Y78257500D02*
X29260800Y78268300D01*
X27550000Y87470000D02*
X27550000Y89120000D01*
X45390200Y81485100D02*
X47322100Y81485100D01*
X33399700Y83107500D02*
X33693100Y83400900D01*
X29260800Y81118300D02*
X31250000Y83107500D01*
X33693100Y83400900D02*
X34493200Y84201000D01*
X31250000Y83107500D02*
X33399700Y83107500D01*
X30600000Y85120000D02*
X31250000Y84470000D01*
D44*
X34895000Y84602800D02*
X34493200Y84201000D01*
D46*
X45390200Y81485100D02*
X41069900Y81485100D01*
D44*
X34895000Y85730000D02*
X34895000Y84602800D01*
D43*
%TO.N,Net-(D2-K)*%
X19375000Y89120000D02*
X22550000Y89120000D01*
D45*
X23600000Y89120000D02*
X23650000Y89170000D01*
%TO.N,/PA13{slash}SWDIO*%
X39370000Y67970400D02*
X39370000Y71120000D01*
X39243000Y66167000D02*
X38404800Y67005200D01*
X38404800Y67005200D02*
X39370000Y67970400D01*
X49737000Y62865000D02*
X46435000Y66167000D01*
X46435000Y66167000D02*
X45720000Y66167000D01*
X29683000Y52578000D02*
X31000000Y53895000D01*
X49737000Y3128000D02*
X49737000Y62865000D01*
X43180000Y66167000D02*
X39243000Y66167000D01*
X31000000Y53895000D02*
X31000000Y59600400D01*
X31000000Y59600400D02*
X38404800Y67005200D01*
X29385236Y52578000D02*
X29683000Y52578000D01*
X47524000Y915000D02*
X49737000Y3128000D01*
X34290000Y2540000D02*
X35915000Y915000D01*
X29079000Y52271764D02*
X29385236Y52578000D01*
D43*
X39370000Y73660000D02*
X39370000Y71120000D01*
D45*
X35915000Y915000D02*
X47524000Y915000D01*
X29079000Y51395000D02*
X29079000Y52271764D01*
%TO.N,/PA14{slash}SWCK*%
X35655000Y2053299D02*
X36343299Y1365000D01*
X47212000Y1365000D02*
X49287000Y3440000D01*
D43*
X44445000Y62230000D02*
X46985000Y62230000D01*
D45*
X49287000Y3440000D02*
X49287000Y46344000D01*
X33429999Y49499999D02*
X37780000Y53850000D01*
X49287000Y46344000D02*
X48768000Y46863000D01*
X34776701Y3715000D02*
X35655000Y2836701D01*
X48768000Y60447000D02*
X46985000Y62230000D01*
X37780000Y53850000D02*
X37780000Y55565000D01*
X30385000Y3715000D02*
X34776701Y3715000D01*
X37780000Y55565000D02*
X44445000Y62230000D01*
X48768000Y46863000D02*
X48768000Y60447000D01*
X36343299Y1365000D02*
X47212000Y1365000D01*
X29210000Y2540000D02*
X30385000Y3715000D01*
X32000000Y49499999D02*
X33429999Y49499999D01*
X35655000Y2836701D02*
X35655000Y2053299D01*
%TO.N,/PB3{slash}SWO*%
X46990000Y12573000D02*
X48837000Y14420000D01*
X32000000Y46500000D02*
X42480000Y46500000D01*
X42480000Y46500000D02*
X42757500Y46777500D01*
X48837000Y14420000D02*
X48837000Y45138000D01*
X48837000Y45138000D02*
X46985000Y46990000D01*
X46990000Y10160000D02*
X46990000Y12573000D01*
X42970000Y46990000D02*
X44445000Y46990000D01*
D43*
X44445000Y46990000D02*
X46985000Y46990000D01*
D45*
X42757500Y46777500D02*
X42970000Y46990000D01*
%TO.N,/PH3{slash}BOOT0*%
X48387000Y32888000D02*
X48387000Y16245299D01*
X46985000Y34290000D02*
X48387000Y32888000D01*
X48387000Y16245299D02*
X43511701Y11370000D01*
X42037000Y39333000D02*
X42037000Y36698000D01*
D44*
X31800000Y11370000D02*
X29950004Y11370000D01*
X29950004Y11370000D02*
X29900004Y11320000D01*
D45*
X14950000Y6770000D02*
X14950000Y8330000D01*
X32000000Y44000000D02*
X37370000Y44000000D01*
X15705000Y6015000D02*
X14950000Y6770000D01*
D43*
X44445000Y34290000D02*
X46985000Y34290000D01*
D45*
X15705000Y3925000D02*
X14950000Y3170000D01*
X15705000Y5080000D02*
X15705000Y6015000D01*
X42037000Y36698000D02*
X44445000Y34290000D01*
X43511701Y11370000D02*
X31800000Y11370000D01*
X37370000Y44000000D02*
X42037000Y39333000D01*
X15705000Y5080000D02*
X15705000Y3925000D01*
X14950000Y3170000D02*
X14950000Y1830000D01*
%TO.N,/PB9{slash}VCAP*%
X35616754Y41980246D02*
X37101678Y41980246D01*
X40767000Y29484826D02*
X41028834Y29222992D01*
X34597000Y43000000D02*
X35616754Y41980246D01*
X37101678Y41980246D02*
X40767000Y38314924D01*
X40767000Y38314924D02*
X40767000Y29484826D01*
X32000000Y43000000D02*
X34597000Y43000000D01*
%TO.N,/PC4*%
X9940000Y45500000D02*
X6350000Y41910000D01*
D43*
X3810000Y41910000D02*
X6350000Y41910000D01*
D45*
X20650000Y45500000D02*
X9940000Y45500000D01*
D43*
%TO.N,/PB11*%
X3810000Y57150000D02*
X6350000Y57150000D01*
D45*
X8350000Y57150000D02*
X6350000Y57150000D01*
X10500000Y55000000D02*
X8350000Y57150000D01*
%TO.N,/PC5*%
X7900000Y46000000D02*
X6350000Y44450000D01*
D43*
X3810000Y44450000D02*
X6350000Y44450000D01*
D45*
X20650000Y46000000D02*
X7900000Y46000000D01*
%TO.N,/PB12*%
X22575001Y56061725D02*
X10136726Y68500000D01*
X22575001Y51425000D02*
X22575001Y56061725D01*
X6380000Y71120000D02*
X9000000Y68500000D01*
X6350000Y71120000D02*
X6380000Y71120000D01*
X10136726Y68500000D02*
X9000000Y68500000D01*
D43*
X6350000Y73660000D02*
X6350000Y71120000D01*
D46*
%TO.N,/PB9*%
X44432008Y29222992D02*
X44445000Y29210000D01*
D43*
X44445000Y29210000D02*
X46985000Y29210000D01*
D46*
X42478834Y29222992D02*
X44432008Y29222992D01*
D44*
%TO.N,Net-(J6-ID)*%
X32230600Y79500000D02*
X31826200Y79095600D01*
D48*
X36845000Y84055000D02*
X37200016Y83699984D01*
D44*
X34250007Y79500000D02*
X32230600Y79500000D01*
D48*
X36845000Y85730000D02*
X36845000Y84055000D01*
D44*
X31826200Y79095600D02*
X31826200Y78511400D01*
X37200016Y83699984D02*
X37200016Y79500000D01*
D43*
%TO.N,Net-(J7-Pin_1)*%
X14925000Y89120000D02*
X13700000Y89120000D01*
X12075000Y87495000D02*
X10350000Y87495000D01*
X13700000Y89120000D02*
X12075000Y87495000D01*
D46*
%TO.N,Net-(J8-Pin_1)*%
X26612500Y82632500D02*
X26100000Y82120000D01*
X24775000Y80995000D02*
X26100000Y80995000D01*
X21987500Y77120000D02*
X23000000Y77120000D01*
X24150000Y80370000D02*
X24775000Y80995000D01*
X26612500Y83220000D02*
X26612500Y82632500D01*
X23000000Y77120000D02*
X24150000Y78270000D01*
D45*
X26100000Y80995000D02*
X25862500Y80995000D01*
D46*
X24150000Y78270000D02*
X24150000Y80370000D01*
X26100000Y82120000D02*
X26100000Y80995000D01*
%TO.N,Net-(J8-Pin_2)*%
X27700000Y82032500D02*
X27700000Y80055000D01*
X27700000Y80055000D02*
X26100000Y78455000D01*
X28887500Y83220000D02*
X27700000Y82032500D01*
D45*
%TO.N,Net-(J10-Pin_2)*%
X39370000Y2540000D02*
X39370000Y5080000D01*
X39370000Y5080000D02*
X44450000Y10160000D01*
%TD*%
%TA.AperFunction,Conductor*%
%TO.N,GND*%
G36*
X5023039Y82784315D02*
G01*
X5068794Y82731511D01*
X5080000Y82680000D01*
X5080000Y76048315D01*
X5060315Y75981276D01*
X5043681Y75960634D01*
X4557366Y75474319D01*
X4496043Y75440834D01*
X4469685Y75438000D01*
X1140000Y75438000D01*
X1072961Y75457685D01*
X1027206Y75510489D01*
X1016000Y75562000D01*
X1016000Y82680000D01*
X1035685Y82747039D01*
X1088489Y82792794D01*
X1140000Y82804000D01*
X4956000Y82804000D01*
X5023039Y82784315D01*
G37*
%TD.AperFunction*%
%TD*%
M02*
