%TF.GenerationSoftware,KiCad,Pcbnew,8.0.8+1*%
%TF.CreationDate,2025-05-06T10:58:55+00:00*%
%TF.ProjectId,STM32TQ6401,53544d33-3254-4513-9634-30312e6b6963,rev?*%
%TF.SameCoordinates,Original*%
%TF.FileFunction,Paste,Bot*%
%TF.FilePolarity,Positive*%
%FSLAX46Y46*%
G04 Gerber Fmt 4.6, Leading zero omitted, Abs format (unit mm)*
G04 Created by KiCad (PCBNEW 8.0.8+1) date 2025-05-06 10:58:55*
%MOMM*%
%LPD*%
G01*
G04 APERTURE LIST*
G04 Aperture macros list*
%AMRoundRect*
0 Rectangle with rounded corners*
0 $1 Rounding radius*
0 $2 $3 $4 $5 $6 $7 $8 $9 X,Y pos of 4 corners*
0 Add a 4 corners polygon primitive as box body*
4,1,4,$2,$3,$4,$5,$6,$7,$8,$9,$2,$3,0*
0 Add four circle primitives for the rounded corners*
1,1,$1+$1,$2,$3*
1,1,$1+$1,$4,$5*
1,1,$1+$1,$6,$7*
1,1,$1+$1,$8,$9*
0 Add four rect primitives between the rounded corners*
20,1,$1+$1,$2,$3,$4,$5,0*
20,1,$1+$1,$4,$5,$6,$7,0*
20,1,$1+$1,$6,$7,$8,$9,0*
20,1,$1+$1,$8,$9,$2,$3,0*%
G04 Aperture macros list end*
%ADD10RoundRect,0.250000X0.337500X0.475000X-0.337500X0.475000X-0.337500X-0.475000X0.337500X-0.475000X0*%
%ADD11RoundRect,0.250000X-1.500000X-0.650000X1.500000X-0.650000X1.500000X0.650000X-1.500000X0.650000X0*%
%ADD12RoundRect,0.250000X-0.574524X-0.097227X-0.097227X-0.574524X0.574524X0.097227X0.097227X0.574524X0*%
%ADD13RoundRect,0.250000X-0.475000X0.337500X-0.475000X-0.337500X0.475000X-0.337500X0.475000X0.337500X0*%
%ADD14RoundRect,0.250000X-0.337500X-0.475000X0.337500X-0.475000X0.337500X0.475000X-0.337500X0.475000X0*%
%ADD15RoundRect,0.375000X0.625000X0.375000X-0.625000X0.375000X-0.625000X-0.375000X0.625000X-0.375000X0*%
%ADD16RoundRect,0.500000X0.500000X1.400000X-0.500000X1.400000X-0.500000X-1.400000X0.500000X-1.400000X0*%
%ADD17RoundRect,0.250000X0.475000X-0.337500X0.475000X0.337500X-0.475000X0.337500X-0.475000X-0.337500X0*%
%ADD18RoundRect,0.250000X-0.325000X-0.450000X0.325000X-0.450000X0.325000X0.450000X-0.325000X0.450000X0*%
%ADD19RoundRect,0.075000X0.075000X-0.700000X0.075000X0.700000X-0.075000X0.700000X-0.075000X-0.700000X0*%
%ADD20RoundRect,0.075000X0.700000X-0.075000X0.700000X0.075000X-0.700000X0.075000X-0.700000X-0.075000X0*%
%ADD21RoundRect,0.250000X-0.400000X-1.450000X0.400000X-1.450000X0.400000X1.450000X-0.400000X1.450000X0*%
%ADD22R,0.450000X1.300000*%
%ADD23RoundRect,0.250000X0.650000X-1.500000X0.650000X1.500000X-0.650000X1.500000X-0.650000X-1.500000X0*%
%ADD24RoundRect,0.250000X0.097227X-0.574524X0.574524X-0.097227X-0.097227X0.574524X-0.574524X0.097227X0*%
G04 APERTURE END LIST*
D10*
%TO.C,R2*%
X21987500Y77120000D03*
X19912500Y77120000D03*
%TD*%
%TO.C,C10*%
X17039500Y49022000D03*
X14964500Y49022000D03*
%TD*%
D11*
%TO.C,D2*%
X22550000Y89120000D03*
X27550000Y89120000D03*
%TD*%
D12*
%TO.C,C11*%
X35616754Y41980246D03*
X37084000Y40513000D03*
%TD*%
D13*
%TO.C,C1*%
X12150000Y81345000D03*
X12150000Y79270000D03*
%TD*%
D14*
%TO.C,C19*%
X14062500Y19170000D03*
X16137500Y19170000D03*
%TD*%
D15*
%TO.C,U2*%
X9550000Y81370000D03*
X9550000Y79070000D03*
D16*
X3250000Y79070000D03*
D15*
X9550000Y76770000D03*
%TD*%
D14*
%TO.C,C2*%
X11925000Y76770000D03*
X14000000Y76770000D03*
%TD*%
D17*
%TO.C,R1*%
X29250000Y76182500D03*
X29250000Y78257500D03*
%TD*%
D10*
%TO.C,C14*%
X19579500Y54991000D03*
X17504500Y54991000D03*
%TD*%
D13*
%TO.C,C4*%
X48006000Y82169000D03*
X48006000Y80094000D03*
%TD*%
%TO.C,C18*%
X23900000Y36857500D03*
X23900000Y34782500D03*
%TD*%
D14*
%TO.C,C6*%
X32131000Y31496000D03*
X34206000Y31496000D03*
%TD*%
%TO.C,C7*%
X32143500Y34036000D03*
X34218500Y34036000D03*
%TD*%
D10*
%TO.C,C15*%
X18087500Y42420000D03*
X16012500Y42420000D03*
%TD*%
%TO.C,R3*%
X17780000Y5080000D03*
X15705000Y5080000D03*
%TD*%
D18*
%TO.C,L1*%
X10475000Y11220000D03*
X12525000Y11220000D03*
%TD*%
D19*
%TO.C,U1*%
X30074999Y40075000D03*
X29575000Y40075000D03*
X29075000Y40075000D03*
X28575000Y40075000D03*
X28075000Y40075000D03*
X27574999Y40075000D03*
X27075000Y40075000D03*
X26575000Y40075000D03*
X26075000Y40075000D03*
X25575000Y40075000D03*
X25075001Y40075000D03*
X24575000Y40075000D03*
X24075000Y40075000D03*
X23575000Y40075000D03*
X23075000Y40075000D03*
X22575001Y40075000D03*
D20*
X20650000Y42000001D03*
X20650000Y42500000D03*
X20650000Y43000000D03*
X20650000Y43500000D03*
X20650000Y44000000D03*
X20650000Y44500001D03*
X20650000Y45000000D03*
X20650000Y45500000D03*
X20650000Y46000000D03*
X20650000Y46500000D03*
X20650000Y46999999D03*
X20650000Y47500000D03*
X20650000Y48000000D03*
X20650000Y48500000D03*
X20650000Y49000000D03*
X20650000Y49499999D03*
D19*
X22575001Y51425000D03*
X23075000Y51425000D03*
X23575000Y51425000D03*
X24075000Y51425000D03*
X24575000Y51425000D03*
X25075001Y51425000D03*
X25575000Y51425000D03*
X26075000Y51425000D03*
X26575000Y51425000D03*
X27075000Y51425000D03*
X27574999Y51425000D03*
X28075000Y51425000D03*
X28575000Y51425000D03*
X29075000Y51425000D03*
X29575000Y51425000D03*
X30074999Y51425000D03*
D20*
X32000000Y49499999D03*
X32000000Y49000000D03*
X32000000Y48500000D03*
X32000000Y48000000D03*
X32000000Y47500000D03*
X32000000Y46999999D03*
X32000000Y46500000D03*
X32000000Y46000000D03*
X32000000Y45500000D03*
X32000000Y45000000D03*
X32000000Y44500001D03*
X32000000Y44000000D03*
X32000000Y43500000D03*
X32000000Y43000000D03*
X32000000Y42500000D03*
X32000000Y42000001D03*
%TD*%
D21*
%TO.C,F1*%
X14925000Y89120000D03*
X19375000Y89120000D03*
%TD*%
D10*
%TO.C,C16*%
X19579500Y51689000D03*
X17504500Y51689000D03*
%TD*%
D14*
%TO.C,C9*%
X27262000Y24054000D03*
X29337000Y24054000D03*
%TD*%
D22*
%TO.C,J6*%
X34895000Y85730000D03*
X35545000Y85730000D03*
X36195000Y85730000D03*
X36845000Y85730000D03*
X37495000Y85730000D03*
%TD*%
D23*
%TO.C,D1*%
X15300000Y80020000D03*
X15300000Y85020000D03*
%TD*%
D10*
%TO.C,C8*%
X33350000Y24054000D03*
X31275000Y24054000D03*
%TD*%
D13*
%TO.C,C3*%
X31250000Y83107500D03*
X31250000Y81032500D03*
%TD*%
D17*
%TO.C,C5*%
X48006000Y76178500D03*
X48006000Y78253500D03*
%TD*%
%TO.C,C12*%
X32385000Y52705000D03*
X32385000Y54780000D03*
%TD*%
D24*
%TO.C,C13*%
X36350377Y35207377D03*
X37817623Y36674623D03*
%TD*%
D12*
%TO.C,C17*%
X33429377Y39214623D03*
X34896623Y37747377D03*
%TD*%
M02*
