%TF.GenerationSoftware,KiCad,Pcbnew,8.0.8+1*%
%TF.CreationDate,2025-05-06T10:58:55+00:00*%
%TF.ProjectId,STM32TQ6401,53544d33-3254-4513-9634-30312e6b6963,rev?*%
%TF.SameCoordinates,Original*%
%TF.FileFunction,Legend,Top*%
%TF.FilePolarity,Positive*%
%FSLAX46Y46*%
G04 Gerber Fmt 4.6, Leading zero omitted, Abs format (unit mm)*
G04 Created by KiCad (PCBNEW 8.0.8+1) date 2025-05-06 10:58:55*
%MOMM*%
%LPD*%
G01*
G04 APERTURE LIST*
%ADD10C,0.203200*%
%ADD11C,0.254000*%
%ADD12C,0.152400*%
%ADD13C,0.304800*%
%ADD14C,0.150000*%
%ADD15C,0.120000*%
G04 APERTURE END LIST*
D10*
X39370000Y9652000D02*
X39370000Y10160000D01*
X36195000Y89916000D02*
X36195000Y90678000D01*
X39370000Y3937000D02*
X39370000Y4445000D01*
X36195000Y90678000D02*
X35687000Y90170000D01*
X36195000Y90678000D02*
X36703000Y90170000D01*
X39370000Y10160000D02*
X43053000Y10160000D01*
D11*
X43667823Y76123753D02*
X44901537Y76123753D01*
X44901537Y76123753D02*
X45046680Y76196324D01*
X45046680Y76196324D02*
X45119252Y76268895D01*
X45119252Y76268895D02*
X45191823Y76414038D01*
X45191823Y76414038D02*
X45191823Y76704324D01*
X45191823Y76704324D02*
X45119252Y76849467D01*
X45119252Y76849467D02*
X45046680Y76922038D01*
X45046680Y76922038D02*
X44901537Y76994610D01*
X44901537Y76994610D02*
X43667823Y76994610D01*
X45119252Y77647752D02*
X45191823Y77865466D01*
X45191823Y77865466D02*
X45191823Y78228324D01*
X45191823Y78228324D02*
X45119252Y78373466D01*
X45119252Y78373466D02*
X45046680Y78446038D01*
X45046680Y78446038D02*
X44901537Y78518609D01*
X44901537Y78518609D02*
X44756394Y78518609D01*
X44756394Y78518609D02*
X44611252Y78446038D01*
X44611252Y78446038D02*
X44538680Y78373466D01*
X44538680Y78373466D02*
X44466109Y78228324D01*
X44466109Y78228324D02*
X44393537Y77938038D01*
X44393537Y77938038D02*
X44320966Y77792895D01*
X44320966Y77792895D02*
X44248394Y77720324D01*
X44248394Y77720324D02*
X44103252Y77647752D01*
X44103252Y77647752D02*
X43958109Y77647752D01*
X43958109Y77647752D02*
X43812966Y77720324D01*
X43812966Y77720324D02*
X43740394Y77792895D01*
X43740394Y77792895D02*
X43667823Y77938038D01*
X43667823Y77938038D02*
X43667823Y78300895D01*
X43667823Y78300895D02*
X43740394Y78518609D01*
X44393537Y79679753D02*
X44466109Y79897467D01*
X44466109Y79897467D02*
X44538680Y79970038D01*
X44538680Y79970038D02*
X44683823Y80042610D01*
X44683823Y80042610D02*
X44901537Y80042610D01*
X44901537Y80042610D02*
X45046680Y79970038D01*
X45046680Y79970038D02*
X45119252Y79897467D01*
X45119252Y79897467D02*
X45191823Y79752324D01*
X45191823Y79752324D02*
X45191823Y79171753D01*
X45191823Y79171753D02*
X43667823Y79171753D01*
X43667823Y79171753D02*
X43667823Y79679753D01*
X43667823Y79679753D02*
X43740394Y79824895D01*
X43740394Y79824895D02*
X43812966Y79897467D01*
X43812966Y79897467D02*
X43958109Y79970038D01*
X43958109Y79970038D02*
X44103252Y79970038D01*
X44103252Y79970038D02*
X44248394Y79897467D01*
X44248394Y79897467D02*
X44320966Y79824895D01*
X44320966Y79824895D02*
X44393537Y79679753D01*
X44393537Y79679753D02*
X44393537Y79171753D01*
X37521823Y4974963D02*
X35997823Y4974963D01*
X35997823Y4974963D02*
X37521823Y5845820D01*
X37521823Y5845820D02*
X35997823Y5845820D01*
X37521823Y7442391D02*
X36796109Y6934391D01*
X37521823Y6571534D02*
X35997823Y6571534D01*
X35997823Y6571534D02*
X35997823Y7152105D01*
X35997823Y7152105D02*
X36070394Y7297248D01*
X36070394Y7297248D02*
X36142966Y7369819D01*
X36142966Y7369819D02*
X36288109Y7442391D01*
X36288109Y7442391D02*
X36505823Y7442391D01*
X36505823Y7442391D02*
X36650966Y7369819D01*
X36650966Y7369819D02*
X36723537Y7297248D01*
X36723537Y7297248D02*
X36796109Y7152105D01*
X36796109Y7152105D02*
X36796109Y6571534D01*
X37449252Y8022962D02*
X37521823Y8240676D01*
X37521823Y8240676D02*
X37521823Y8603534D01*
X37521823Y8603534D02*
X37449252Y8748676D01*
X37449252Y8748676D02*
X37376680Y8821248D01*
X37376680Y8821248D02*
X37231537Y8893819D01*
X37231537Y8893819D02*
X37086394Y8893819D01*
X37086394Y8893819D02*
X36941252Y8821248D01*
X36941252Y8821248D02*
X36868680Y8748676D01*
X36868680Y8748676D02*
X36796109Y8603534D01*
X36796109Y8603534D02*
X36723537Y8313248D01*
X36723537Y8313248D02*
X36650966Y8168105D01*
X36650966Y8168105D02*
X36578394Y8095534D01*
X36578394Y8095534D02*
X36433252Y8022962D01*
X36433252Y8022962D02*
X36288109Y8022962D01*
X36288109Y8022962D02*
X36142966Y8095534D01*
X36142966Y8095534D02*
X36070394Y8168105D01*
X36070394Y8168105D02*
X35997823Y8313248D01*
X35997823Y8313248D02*
X35997823Y8676105D01*
X35997823Y8676105D02*
X36070394Y8893819D01*
X35997823Y9329248D02*
X35997823Y10200105D01*
X37521823Y9764677D02*
X35997823Y9764677D01*
X38168751Y24962177D02*
X38676751Y23438177D01*
X38676751Y23438177D02*
X39184751Y24962177D01*
X39692752Y23438177D02*
X39692752Y24962177D01*
X39692752Y24962177D02*
X40055609Y24962177D01*
X40055609Y24962177D02*
X40273323Y24889606D01*
X40273323Y24889606D02*
X40418466Y24744463D01*
X40418466Y24744463D02*
X40491037Y24599320D01*
X40491037Y24599320D02*
X40563609Y24309034D01*
X40563609Y24309034D02*
X40563609Y24091320D01*
X40563609Y24091320D02*
X40491037Y23801034D01*
X40491037Y23801034D02*
X40418466Y23655891D01*
X40418466Y23655891D02*
X40273323Y23510748D01*
X40273323Y23510748D02*
X40055609Y23438177D01*
X40055609Y23438177D02*
X39692752Y23438177D01*
X41216752Y23438177D02*
X41216752Y24962177D01*
X41216752Y24962177D02*
X41579609Y24962177D01*
X41579609Y24962177D02*
X41797323Y24889606D01*
X41797323Y24889606D02*
X41942466Y24744463D01*
X41942466Y24744463D02*
X42015037Y24599320D01*
X42015037Y24599320D02*
X42087609Y24309034D01*
X42087609Y24309034D02*
X42087609Y24091320D01*
X42087609Y24091320D02*
X42015037Y23801034D01*
X42015037Y23801034D02*
X41942466Y23655891D01*
X41942466Y23655891D02*
X41797323Y23510748D01*
X41797323Y23510748D02*
X41579609Y23438177D01*
X41579609Y23438177D02*
X41216752Y23438177D01*
X9583247Y27429606D02*
X9438105Y27502177D01*
X9438105Y27502177D02*
X9220390Y27502177D01*
X9220390Y27502177D02*
X9002676Y27429606D01*
X9002676Y27429606D02*
X8857533Y27284463D01*
X8857533Y27284463D02*
X8784962Y27139320D01*
X8784962Y27139320D02*
X8712390Y26849034D01*
X8712390Y26849034D02*
X8712390Y26631320D01*
X8712390Y26631320D02*
X8784962Y26341034D01*
X8784962Y26341034D02*
X8857533Y26195891D01*
X8857533Y26195891D02*
X9002676Y26050748D01*
X9002676Y26050748D02*
X9220390Y25978177D01*
X9220390Y25978177D02*
X9365533Y25978177D01*
X9365533Y25978177D02*
X9583247Y26050748D01*
X9583247Y26050748D02*
X9655819Y26123320D01*
X9655819Y26123320D02*
X9655819Y26631320D01*
X9655819Y26631320D02*
X9365533Y26631320D01*
X10308962Y25978177D02*
X10308962Y27502177D01*
X10308962Y27502177D02*
X11179819Y25978177D01*
X11179819Y25978177D02*
X11179819Y27502177D01*
X11905533Y25978177D02*
X11905533Y27502177D01*
X11905533Y27502177D02*
X12268390Y27502177D01*
X12268390Y27502177D02*
X12486104Y27429606D01*
X12486104Y27429606D02*
X12631247Y27284463D01*
X12631247Y27284463D02*
X12703818Y27139320D01*
X12703818Y27139320D02*
X12776390Y26849034D01*
X12776390Y26849034D02*
X12776390Y26631320D01*
X12776390Y26631320D02*
X12703818Y26341034D01*
X12703818Y26341034D02*
X12631247Y26195891D01*
X12631247Y26195891D02*
X12486104Y26050748D01*
X12486104Y26050748D02*
X12268390Y25978177D01*
X12268390Y25978177D02*
X11905533Y25978177D01*
X37376680Y19815820D02*
X37449252Y19743248D01*
X37449252Y19743248D02*
X37521823Y19525534D01*
X37521823Y19525534D02*
X37521823Y19380391D01*
X37521823Y19380391D02*
X37449252Y19162677D01*
X37449252Y19162677D02*
X37304109Y19017534D01*
X37304109Y19017534D02*
X37158966Y18944963D01*
X37158966Y18944963D02*
X36868680Y18872391D01*
X36868680Y18872391D02*
X36650966Y18872391D01*
X36650966Y18872391D02*
X36360680Y18944963D01*
X36360680Y18944963D02*
X36215537Y19017534D01*
X36215537Y19017534D02*
X36070394Y19162677D01*
X36070394Y19162677D02*
X35997823Y19380391D01*
X35997823Y19380391D02*
X35997823Y19525534D01*
X35997823Y19525534D02*
X36070394Y19743248D01*
X36070394Y19743248D02*
X36142966Y19815820D01*
X37521823Y21267248D02*
X37521823Y20396391D01*
X37521823Y20831820D02*
X35997823Y20831820D01*
X35997823Y20831820D02*
X36215537Y20686677D01*
X36215537Y20686677D02*
X36360680Y20541534D01*
X36360680Y20541534D02*
X36433252Y20396391D01*
X35997823Y22646106D02*
X35997823Y21920392D01*
X35997823Y21920392D02*
X36723537Y21847820D01*
X36723537Y21847820D02*
X36650966Y21920392D01*
X36650966Y21920392D02*
X36578394Y22065534D01*
X36578394Y22065534D02*
X36578394Y22428392D01*
X36578394Y22428392D02*
X36650966Y22573534D01*
X36650966Y22573534D02*
X36723537Y22646106D01*
X36723537Y22646106D02*
X36868680Y22718677D01*
X36868680Y22718677D02*
X37231537Y22718677D01*
X37231537Y22718677D02*
X37376680Y22646106D01*
X37376680Y22646106D02*
X37449252Y22573534D01*
X37449252Y22573534D02*
X37521823Y22428392D01*
X37521823Y22428392D02*
X37521823Y22065534D01*
X37521823Y22065534D02*
X37449252Y21920392D01*
X37449252Y21920392D02*
X37376680Y21847820D01*
X37086394Y65129037D02*
X37086394Y65854751D01*
X37521823Y64983894D02*
X35997823Y65491894D01*
X35997823Y65491894D02*
X37521823Y65999894D01*
X37521823Y67306180D02*
X37521823Y66435323D01*
X37521823Y66870752D02*
X35997823Y66870752D01*
X35997823Y66870752D02*
X36215537Y66725609D01*
X36215537Y66725609D02*
X36360680Y66580466D01*
X36360680Y66580466D02*
X36433252Y66435323D01*
X36142966Y67886752D02*
X36070394Y67959324D01*
X36070394Y67959324D02*
X35997823Y68104466D01*
X35997823Y68104466D02*
X35997823Y68467324D01*
X35997823Y68467324D02*
X36070394Y68612466D01*
X36070394Y68612466D02*
X36142966Y68685038D01*
X36142966Y68685038D02*
X36288109Y68757609D01*
X36288109Y68757609D02*
X36433252Y68757609D01*
X36433252Y68757609D02*
X36650966Y68685038D01*
X36650966Y68685038D02*
X37521823Y67814181D01*
X37521823Y67814181D02*
X37521823Y68757609D01*
X29829252Y4902391D02*
X29901823Y5120105D01*
X29901823Y5120105D02*
X29901823Y5482963D01*
X29901823Y5482963D02*
X29829252Y5628105D01*
X29829252Y5628105D02*
X29756680Y5700677D01*
X29756680Y5700677D02*
X29611537Y5773248D01*
X29611537Y5773248D02*
X29466394Y5773248D01*
X29466394Y5773248D02*
X29321252Y5700677D01*
X29321252Y5700677D02*
X29248680Y5628105D01*
X29248680Y5628105D02*
X29176109Y5482963D01*
X29176109Y5482963D02*
X29103537Y5192677D01*
X29103537Y5192677D02*
X29030966Y5047534D01*
X29030966Y5047534D02*
X28958394Y4974963D01*
X28958394Y4974963D02*
X28813252Y4902391D01*
X28813252Y4902391D02*
X28668109Y4902391D01*
X28668109Y4902391D02*
X28522966Y4974963D01*
X28522966Y4974963D02*
X28450394Y5047534D01*
X28450394Y5047534D02*
X28377823Y5192677D01*
X28377823Y5192677D02*
X28377823Y5555534D01*
X28377823Y5555534D02*
X28450394Y5773248D01*
X28377823Y6281249D02*
X29901823Y6644106D01*
X29901823Y6644106D02*
X28813252Y6934392D01*
X28813252Y6934392D02*
X29901823Y7224677D01*
X29901823Y7224677D02*
X28377823Y7587534D01*
X29756680Y9038963D02*
X29829252Y8966391D01*
X29829252Y8966391D02*
X29901823Y8748677D01*
X29901823Y8748677D02*
X29901823Y8603534D01*
X29901823Y8603534D02*
X29829252Y8385820D01*
X29829252Y8385820D02*
X29684109Y8240677D01*
X29684109Y8240677D02*
X29538966Y8168106D01*
X29538966Y8168106D02*
X29248680Y8095534D01*
X29248680Y8095534D02*
X29030966Y8095534D01*
X29030966Y8095534D02*
X28740680Y8168106D01*
X28740680Y8168106D02*
X28595537Y8240677D01*
X28595537Y8240677D02*
X28450394Y8385820D01*
X28450394Y8385820D02*
X28377823Y8603534D01*
X28377823Y8603534D02*
X28377823Y8748677D01*
X28377823Y8748677D02*
X28450394Y8966391D01*
X28450394Y8966391D02*
X28522966Y9038963D01*
X29901823Y9692106D02*
X28377823Y9692106D01*
X29901823Y10562963D02*
X29030966Y9909820D01*
X28377823Y10562963D02*
X29248680Y9692106D01*
X13812492Y46931121D02*
X13299335Y47444279D01*
X13299335Y47444279D02*
X14376966Y48521910D01*
X14171703Y46571911D02*
X14890123Y47290332D01*
X15249333Y47649542D02*
X15146702Y47649542D01*
X15146702Y47649542D02*
X15146702Y47546911D01*
X15146702Y47546911D02*
X15249333Y47546911D01*
X15249333Y47546911D02*
X15249333Y47649542D01*
X15249333Y47649542D02*
X15146702Y47546911D01*
X16429595Y46264017D02*
X16532227Y46264017D01*
X16532227Y46264017D02*
X16686174Y46212701D01*
X16686174Y46212701D02*
X16942753Y45956123D01*
X16942753Y45956123D02*
X16994069Y45802175D01*
X16994069Y45802175D02*
X16994069Y45699544D01*
X16994069Y45699544D02*
X16942753Y45545597D01*
X16942753Y45545597D02*
X16840121Y45442965D01*
X16840121Y45442965D02*
X16634858Y45340334D01*
X16634858Y45340334D02*
X15403280Y45340334D01*
X15403280Y45340334D02*
X16070385Y44673229D01*
X17815121Y45083754D02*
X17917752Y44981123D01*
X17917752Y44981123D02*
X17969068Y44827176D01*
X17969068Y44827176D02*
X17969068Y44724544D01*
X17969068Y44724544D02*
X17917752Y44570597D01*
X17917752Y44570597D02*
X17763805Y44314018D01*
X17763805Y44314018D02*
X17507226Y44057439D01*
X17507226Y44057439D02*
X17250648Y43903492D01*
X17250648Y43903492D02*
X17096700Y43852176D01*
X17096700Y43852176D02*
X16994069Y43852176D01*
X16994069Y43852176D02*
X16840122Y43903492D01*
X16840122Y43903492D02*
X16737490Y44006124D01*
X16737490Y44006124D02*
X16686174Y44160071D01*
X16686174Y44160071D02*
X16686174Y44262702D01*
X16686174Y44262702D02*
X16737490Y44416650D01*
X16737490Y44416650D02*
X16891437Y44673228D01*
X16891437Y44673228D02*
X17148016Y44929807D01*
X17148016Y44929807D02*
X17404595Y45083754D01*
X17404595Y45083754D02*
X17558542Y45135070D01*
X17558542Y45135070D02*
X17661174Y45135070D01*
X17661174Y45135070D02*
X17815121Y45083754D01*
X18533542Y44365334D02*
X19200646Y43698229D01*
X19200646Y43698229D02*
X18430910Y43646913D01*
X18430910Y43646913D02*
X18584857Y43492966D01*
X18584857Y43492966D02*
X18636173Y43339019D01*
X18636173Y43339019D02*
X18636173Y43236387D01*
X18636173Y43236387D02*
X18584857Y43082440D01*
X18584857Y43082440D02*
X18328279Y42825861D01*
X18328279Y42825861D02*
X18174331Y42774545D01*
X18174331Y42774545D02*
X18071700Y42774545D01*
X18071700Y42774545D02*
X17917753Y42825861D01*
X17917753Y42825861D02*
X17609858Y43133756D01*
X17609858Y43133756D02*
X17558542Y43287703D01*
X17558542Y43287703D02*
X17558542Y43390334D01*
X19508541Y43185071D02*
X19611173Y43185071D01*
X19611173Y43185071D02*
X19765120Y43133755D01*
X19765120Y43133755D02*
X20021699Y42877177D01*
X20021699Y42877177D02*
X20073015Y42723229D01*
X20073015Y42723229D02*
X20073015Y42620598D01*
X20073015Y42620598D02*
X20021699Y42466651D01*
X20021699Y42466651D02*
X19919067Y42364019D01*
X19919067Y42364019D02*
X19713804Y42261388D01*
X19713804Y42261388D02*
X18482226Y42261388D01*
X18482226Y42261388D02*
X19149331Y41594283D01*
X21407224Y41491651D02*
X22074329Y40824546D01*
X22074329Y40824546D02*
X21304593Y40773231D01*
X21304593Y40773231D02*
X21458540Y40619283D01*
X21458540Y40619283D02*
X21509856Y40465336D01*
X21509856Y40465336D02*
X21509856Y40362705D01*
X21509856Y40362705D02*
X21458540Y40208757D01*
X21458540Y40208757D02*
X21201961Y39952179D01*
X21201961Y39952179D02*
X21048014Y39900863D01*
X21048014Y39900863D02*
X20945383Y39900863D01*
X20945383Y39900863D02*
X20791435Y39952179D01*
X20791435Y39952179D02*
X20483541Y40260073D01*
X20483541Y40260073D02*
X20432225Y40414020D01*
X20432225Y40414020D02*
X20432225Y40516652D01*
X22382224Y40516651D02*
X21663803Y39079810D01*
X21663803Y39079810D02*
X23100644Y39798231D01*
X32441823Y76094963D02*
X30917823Y76094963D01*
X32441823Y76820677D02*
X30917823Y76820677D01*
X30917823Y76820677D02*
X30917823Y77183534D01*
X30917823Y77183534D02*
X30990394Y77401248D01*
X30990394Y77401248D02*
X31135537Y77546391D01*
X31135537Y77546391D02*
X31280680Y77618962D01*
X31280680Y77618962D02*
X31570966Y77691534D01*
X31570966Y77691534D02*
X31788680Y77691534D01*
X31788680Y77691534D02*
X32078966Y77618962D01*
X32078966Y77618962D02*
X32224109Y77546391D01*
X32224109Y77546391D02*
X32369252Y77401248D01*
X32369252Y77401248D02*
X32441823Y77183534D01*
X32441823Y77183534D02*
X32441823Y76820677D01*
X14915823Y79157287D02*
X13391823Y79157287D01*
X13391823Y79157287D02*
X13391823Y79737858D01*
X13391823Y79737858D02*
X13464394Y79883001D01*
X13464394Y79883001D02*
X13536966Y79955572D01*
X13536966Y79955572D02*
X13682109Y80028144D01*
X13682109Y80028144D02*
X13899823Y80028144D01*
X13899823Y80028144D02*
X14044966Y79955572D01*
X14044966Y79955572D02*
X14117537Y79883001D01*
X14117537Y79883001D02*
X14190109Y79737858D01*
X14190109Y79737858D02*
X14190109Y79157287D01*
X13391823Y80971572D02*
X13391823Y81261858D01*
X13391823Y81261858D02*
X13464394Y81407001D01*
X13464394Y81407001D02*
X13609537Y81552144D01*
X13609537Y81552144D02*
X13899823Y81624715D01*
X13899823Y81624715D02*
X14407823Y81624715D01*
X14407823Y81624715D02*
X14698109Y81552144D01*
X14698109Y81552144D02*
X14843252Y81407001D01*
X14843252Y81407001D02*
X14915823Y81261858D01*
X14915823Y81261858D02*
X14915823Y80971572D01*
X14915823Y80971572D02*
X14843252Y80826429D01*
X14843252Y80826429D02*
X14698109Y80681287D01*
X14698109Y80681287D02*
X14407823Y80608715D01*
X14407823Y80608715D02*
X13899823Y80608715D01*
X13899823Y80608715D02*
X13609537Y80681287D01*
X13609537Y80681287D02*
X13464394Y80826429D01*
X13464394Y80826429D02*
X13391823Y80971572D01*
X13391823Y82132715D02*
X14915823Y82495572D01*
X14915823Y82495572D02*
X13827252Y82785858D01*
X13827252Y82785858D02*
X14915823Y83076143D01*
X14915823Y83076143D02*
X13391823Y83439000D01*
X14117537Y84019572D02*
X14117537Y84527572D01*
X14915823Y84745286D02*
X14915823Y84019572D01*
X14915823Y84019572D02*
X13391823Y84019572D01*
X13391823Y84019572D02*
X13391823Y84745286D01*
X14915823Y86269286D02*
X14190109Y85761286D01*
X14915823Y85398429D02*
X13391823Y85398429D01*
X13391823Y85398429D02*
X13391823Y85979000D01*
X13391823Y85979000D02*
X13464394Y86124143D01*
X13464394Y86124143D02*
X13536966Y86196714D01*
X13536966Y86196714D02*
X13682109Y86269286D01*
X13682109Y86269286D02*
X13899823Y86269286D01*
X13899823Y86269286D02*
X14044966Y86196714D01*
X14044966Y86196714D02*
X14117537Y86124143D01*
X14117537Y86124143D02*
X14190109Y85979000D01*
X14190109Y85979000D02*
X14190109Y85398429D01*
X40273323Y29316463D02*
X40491037Y29243891D01*
X40491037Y29243891D02*
X40563608Y29171320D01*
X40563608Y29171320D02*
X40636180Y29026177D01*
X40636180Y29026177D02*
X40636180Y28808463D01*
X40636180Y28808463D02*
X40563608Y28663320D01*
X40563608Y28663320D02*
X40491037Y28590748D01*
X40491037Y28590748D02*
X40345894Y28518177D01*
X40345894Y28518177D02*
X39765323Y28518177D01*
X39765323Y28518177D02*
X39765323Y30042177D01*
X39765323Y30042177D02*
X40273323Y30042177D01*
X40273323Y30042177D02*
X40418466Y29969606D01*
X40418466Y29969606D02*
X40491037Y29897034D01*
X40491037Y29897034D02*
X40563608Y29751891D01*
X40563608Y29751891D02*
X40563608Y29606748D01*
X40563608Y29606748D02*
X40491037Y29461606D01*
X40491037Y29461606D02*
X40418466Y29389034D01*
X40418466Y29389034D02*
X40273323Y29316463D01*
X40273323Y29316463D02*
X39765323Y29316463D01*
X41361894Y28518177D02*
X41652180Y28518177D01*
X41652180Y28518177D02*
X41797323Y28590748D01*
X41797323Y28590748D02*
X41869894Y28663320D01*
X41869894Y28663320D02*
X42015037Y28881034D01*
X42015037Y28881034D02*
X42087608Y29171320D01*
X42087608Y29171320D02*
X42087608Y29751891D01*
X42087608Y29751891D02*
X42015037Y29897034D01*
X42015037Y29897034D02*
X41942466Y29969606D01*
X41942466Y29969606D02*
X41797323Y30042177D01*
X41797323Y30042177D02*
X41507037Y30042177D01*
X41507037Y30042177D02*
X41361894Y29969606D01*
X41361894Y29969606D02*
X41289323Y29897034D01*
X41289323Y29897034D02*
X41216751Y29751891D01*
X41216751Y29751891D02*
X41216751Y29389034D01*
X41216751Y29389034D02*
X41289323Y29243891D01*
X41289323Y29243891D02*
X41361894Y29171320D01*
X41361894Y29171320D02*
X41507037Y29098748D01*
X41507037Y29098748D02*
X41797323Y29098748D01*
X41797323Y29098748D02*
X41942466Y29171320D01*
X41942466Y29171320D02*
X42015037Y29243891D01*
X42015037Y29243891D02*
X42087608Y29389034D01*
X40273323Y47096463D02*
X40491037Y47023891D01*
X40491037Y47023891D02*
X40563608Y46951320D01*
X40563608Y46951320D02*
X40636180Y46806177D01*
X40636180Y46806177D02*
X40636180Y46588463D01*
X40636180Y46588463D02*
X40563608Y46443320D01*
X40563608Y46443320D02*
X40491037Y46370748D01*
X40491037Y46370748D02*
X40345894Y46298177D01*
X40345894Y46298177D02*
X39765323Y46298177D01*
X39765323Y46298177D02*
X39765323Y47822177D01*
X39765323Y47822177D02*
X40273323Y47822177D01*
X40273323Y47822177D02*
X40418466Y47749606D01*
X40418466Y47749606D02*
X40491037Y47677034D01*
X40491037Y47677034D02*
X40563608Y47531891D01*
X40563608Y47531891D02*
X40563608Y47386748D01*
X40563608Y47386748D02*
X40491037Y47241606D01*
X40491037Y47241606D02*
X40418466Y47169034D01*
X40418466Y47169034D02*
X40273323Y47096463D01*
X40273323Y47096463D02*
X39765323Y47096463D01*
X41144180Y47822177D02*
X42087608Y47822177D01*
X42087608Y47822177D02*
X41579608Y47241606D01*
X41579608Y47241606D02*
X41797323Y47241606D01*
X41797323Y47241606D02*
X41942466Y47169034D01*
X41942466Y47169034D02*
X42015037Y47096463D01*
X42015037Y47096463D02*
X42087608Y46951320D01*
X42087608Y46951320D02*
X42087608Y46588463D01*
X42087608Y46588463D02*
X42015037Y46443320D01*
X42015037Y46443320D02*
X41942466Y46370748D01*
X41942466Y46370748D02*
X41797323Y46298177D01*
X41797323Y46298177D02*
X41361894Y46298177D01*
X41361894Y46298177D02*
X41216751Y46370748D01*
X41216751Y46370748D02*
X41144180Y46443320D01*
X40273323Y39476463D02*
X40491037Y39403891D01*
X40491037Y39403891D02*
X40563608Y39331320D01*
X40563608Y39331320D02*
X40636180Y39186177D01*
X40636180Y39186177D02*
X40636180Y38968463D01*
X40636180Y38968463D02*
X40563608Y38823320D01*
X40563608Y38823320D02*
X40491037Y38750748D01*
X40491037Y38750748D02*
X40345894Y38678177D01*
X40345894Y38678177D02*
X39765323Y38678177D01*
X39765323Y38678177D02*
X39765323Y40202177D01*
X39765323Y40202177D02*
X40273323Y40202177D01*
X40273323Y40202177D02*
X40418466Y40129606D01*
X40418466Y40129606D02*
X40491037Y40057034D01*
X40491037Y40057034D02*
X40563608Y39911891D01*
X40563608Y39911891D02*
X40563608Y39766748D01*
X40563608Y39766748D02*
X40491037Y39621606D01*
X40491037Y39621606D02*
X40418466Y39549034D01*
X40418466Y39549034D02*
X40273323Y39476463D01*
X40273323Y39476463D02*
X39765323Y39476463D01*
X41942466Y40202177D02*
X41652180Y40202177D01*
X41652180Y40202177D02*
X41507037Y40129606D01*
X41507037Y40129606D02*
X41434466Y40057034D01*
X41434466Y40057034D02*
X41289323Y39839320D01*
X41289323Y39839320D02*
X41216751Y39549034D01*
X41216751Y39549034D02*
X41216751Y38968463D01*
X41216751Y38968463D02*
X41289323Y38823320D01*
X41289323Y38823320D02*
X41361894Y38750748D01*
X41361894Y38750748D02*
X41507037Y38678177D01*
X41507037Y38678177D02*
X41797323Y38678177D01*
X41797323Y38678177D02*
X41942466Y38750748D01*
X41942466Y38750748D02*
X42015037Y38823320D01*
X42015037Y38823320D02*
X42087608Y38968463D01*
X42087608Y38968463D02*
X42087608Y39331320D01*
X42087608Y39331320D02*
X42015037Y39476463D01*
X42015037Y39476463D02*
X41942466Y39549034D01*
X41942466Y39549034D02*
X41797323Y39621606D01*
X41797323Y39621606D02*
X41507037Y39621606D01*
X41507037Y39621606D02*
X41361894Y39549034D01*
X41361894Y39549034D02*
X41289323Y39476463D01*
X41289323Y39476463D02*
X41216751Y39331320D01*
X22136680Y19815820D02*
X22209252Y19743248D01*
X22209252Y19743248D02*
X22281823Y19525534D01*
X22281823Y19525534D02*
X22281823Y19380391D01*
X22281823Y19380391D02*
X22209252Y19162677D01*
X22209252Y19162677D02*
X22064109Y19017534D01*
X22064109Y19017534D02*
X21918966Y18944963D01*
X21918966Y18944963D02*
X21628680Y18872391D01*
X21628680Y18872391D02*
X21410966Y18872391D01*
X21410966Y18872391D02*
X21120680Y18944963D01*
X21120680Y18944963D02*
X20975537Y19017534D01*
X20975537Y19017534D02*
X20830394Y19162677D01*
X20830394Y19162677D02*
X20757823Y19380391D01*
X20757823Y19380391D02*
X20757823Y19525534D01*
X20757823Y19525534D02*
X20830394Y19743248D01*
X20830394Y19743248D02*
X20902966Y19815820D01*
X20902966Y20396391D02*
X20830394Y20468963D01*
X20830394Y20468963D02*
X20757823Y20614105D01*
X20757823Y20614105D02*
X20757823Y20976963D01*
X20757823Y20976963D02*
X20830394Y21122105D01*
X20830394Y21122105D02*
X20902966Y21194677D01*
X20902966Y21194677D02*
X21048109Y21267248D01*
X21048109Y21267248D02*
X21193252Y21267248D01*
X21193252Y21267248D02*
X21410966Y21194677D01*
X21410966Y21194677D02*
X22281823Y20323820D01*
X22281823Y20323820D02*
X22281823Y21267248D01*
X27216680Y19815820D02*
X27289252Y19743248D01*
X27289252Y19743248D02*
X27361823Y19525534D01*
X27361823Y19525534D02*
X27361823Y19380391D01*
X27361823Y19380391D02*
X27289252Y19162677D01*
X27289252Y19162677D02*
X27144109Y19017534D01*
X27144109Y19017534D02*
X26998966Y18944963D01*
X26998966Y18944963D02*
X26708680Y18872391D01*
X26708680Y18872391D02*
X26490966Y18872391D01*
X26490966Y18872391D02*
X26200680Y18944963D01*
X26200680Y18944963D02*
X26055537Y19017534D01*
X26055537Y19017534D02*
X25910394Y19162677D01*
X25910394Y19162677D02*
X25837823Y19380391D01*
X25837823Y19380391D02*
X25837823Y19525534D01*
X25837823Y19525534D02*
X25910394Y19743248D01*
X25910394Y19743248D02*
X25982966Y19815820D01*
X25837823Y20759248D02*
X25837823Y20904391D01*
X25837823Y20904391D02*
X25910394Y21049534D01*
X25910394Y21049534D02*
X25982966Y21122105D01*
X25982966Y21122105D02*
X26128109Y21194677D01*
X26128109Y21194677D02*
X26418394Y21267248D01*
X26418394Y21267248D02*
X26781252Y21267248D01*
X26781252Y21267248D02*
X27071537Y21194677D01*
X27071537Y21194677D02*
X27216680Y21122105D01*
X27216680Y21122105D02*
X27289252Y21049534D01*
X27289252Y21049534D02*
X27361823Y20904391D01*
X27361823Y20904391D02*
X27361823Y20759248D01*
X27361823Y20759248D02*
X27289252Y20614105D01*
X27289252Y20614105D02*
X27216680Y20541534D01*
X27216680Y20541534D02*
X27071537Y20468963D01*
X27071537Y20468963D02*
X26781252Y20396391D01*
X26781252Y20396391D02*
X26418394Y20396391D01*
X26418394Y20396391D02*
X26128109Y20468963D01*
X26128109Y20468963D02*
X25982966Y20541534D01*
X25982966Y20541534D02*
X25910394Y20614105D01*
X25910394Y20614105D02*
X25837823Y20759248D01*
X6243537Y65491895D02*
X6316109Y65709609D01*
X6316109Y65709609D02*
X6388680Y65782180D01*
X6388680Y65782180D02*
X6533823Y65854752D01*
X6533823Y65854752D02*
X6751537Y65854752D01*
X6751537Y65854752D02*
X6896680Y65782180D01*
X6896680Y65782180D02*
X6969252Y65709609D01*
X6969252Y65709609D02*
X7041823Y65564466D01*
X7041823Y65564466D02*
X7041823Y64983895D01*
X7041823Y64983895D02*
X5517823Y64983895D01*
X5517823Y64983895D02*
X5517823Y65491895D01*
X5517823Y65491895D02*
X5590394Y65637037D01*
X5590394Y65637037D02*
X5662966Y65709609D01*
X5662966Y65709609D02*
X5808109Y65782180D01*
X5808109Y65782180D02*
X5953252Y65782180D01*
X5953252Y65782180D02*
X6098394Y65709609D01*
X6098394Y65709609D02*
X6170966Y65637037D01*
X6170966Y65637037D02*
X6243537Y65491895D01*
X6243537Y65491895D02*
X6243537Y64983895D01*
X7041823Y67306180D02*
X7041823Y66435323D01*
X7041823Y66870752D02*
X5517823Y66870752D01*
X5517823Y66870752D02*
X5735537Y66725609D01*
X5735537Y66725609D02*
X5880680Y66580466D01*
X5880680Y66580466D02*
X5953252Y66435323D01*
X5662966Y67886752D02*
X5590394Y67959324D01*
X5590394Y67959324D02*
X5517823Y68104466D01*
X5517823Y68104466D02*
X5517823Y68467324D01*
X5517823Y68467324D02*
X5590394Y68612466D01*
X5590394Y68612466D02*
X5662966Y68685038D01*
X5662966Y68685038D02*
X5808109Y68757609D01*
X5808109Y68757609D02*
X5953252Y68757609D01*
X5953252Y68757609D02*
X6170966Y68685038D01*
X6170966Y68685038D02*
X7041823Y67814181D01*
X7041823Y67814181D02*
X7041823Y68757609D01*
X39184751Y51523320D02*
X39112179Y51450748D01*
X39112179Y51450748D02*
X38894465Y51378177D01*
X38894465Y51378177D02*
X38749322Y51378177D01*
X38749322Y51378177D02*
X38531608Y51450748D01*
X38531608Y51450748D02*
X38386465Y51595891D01*
X38386465Y51595891D02*
X38313894Y51741034D01*
X38313894Y51741034D02*
X38241322Y52031320D01*
X38241322Y52031320D02*
X38241322Y52249034D01*
X38241322Y52249034D02*
X38313894Y52539320D01*
X38313894Y52539320D02*
X38386465Y52684463D01*
X38386465Y52684463D02*
X38531608Y52829606D01*
X38531608Y52829606D02*
X38749322Y52902177D01*
X38749322Y52902177D02*
X38894465Y52902177D01*
X38894465Y52902177D02*
X39112179Y52829606D01*
X39112179Y52829606D02*
X39184751Y52757034D01*
X40636179Y51378177D02*
X39765322Y51378177D01*
X40200751Y51378177D02*
X40200751Y52902177D01*
X40200751Y52902177D02*
X40055608Y52684463D01*
X40055608Y52684463D02*
X39910465Y52539320D01*
X39910465Y52539320D02*
X39765322Y52466748D01*
X41216751Y52757034D02*
X41289323Y52829606D01*
X41289323Y52829606D02*
X41434466Y52902177D01*
X41434466Y52902177D02*
X41797323Y52902177D01*
X41797323Y52902177D02*
X41942466Y52829606D01*
X41942466Y52829606D02*
X42015037Y52757034D01*
X42015037Y52757034D02*
X42087608Y52611891D01*
X42087608Y52611891D02*
X42087608Y52466748D01*
X42087608Y52466748D02*
X42015037Y52249034D01*
X42015037Y52249034D02*
X41144180Y51378177D01*
X41144180Y51378177D02*
X42087608Y51378177D01*
X18106571Y10103177D02*
X17598571Y10828891D01*
X17235714Y10103177D02*
X17235714Y11627177D01*
X17235714Y11627177D02*
X17816285Y11627177D01*
X17816285Y11627177D02*
X17961428Y11554606D01*
X17961428Y11554606D02*
X18033999Y11482034D01*
X18033999Y11482034D02*
X18106571Y11336891D01*
X18106571Y11336891D02*
X18106571Y11119177D01*
X18106571Y11119177D02*
X18033999Y10974034D01*
X18033999Y10974034D02*
X17961428Y10901463D01*
X17961428Y10901463D02*
X17816285Y10828891D01*
X17816285Y10828891D02*
X17235714Y10828891D01*
X18759714Y10901463D02*
X19267714Y10901463D01*
X19485428Y10103177D02*
X18759714Y10103177D01*
X18759714Y10103177D02*
X18759714Y11627177D01*
X18759714Y11627177D02*
X19485428Y11627177D01*
X20065999Y10175748D02*
X20283714Y10103177D01*
X20283714Y10103177D02*
X20646571Y10103177D01*
X20646571Y10103177D02*
X20791714Y10175748D01*
X20791714Y10175748D02*
X20864285Y10248320D01*
X20864285Y10248320D02*
X20936856Y10393463D01*
X20936856Y10393463D02*
X20936856Y10538606D01*
X20936856Y10538606D02*
X20864285Y10683748D01*
X20864285Y10683748D02*
X20791714Y10756320D01*
X20791714Y10756320D02*
X20646571Y10828891D01*
X20646571Y10828891D02*
X20356285Y10901463D01*
X20356285Y10901463D02*
X20211142Y10974034D01*
X20211142Y10974034D02*
X20138571Y11046606D01*
X20138571Y11046606D02*
X20065999Y11191748D01*
X20065999Y11191748D02*
X20065999Y11336891D01*
X20065999Y11336891D02*
X20138571Y11482034D01*
X20138571Y11482034D02*
X20211142Y11554606D01*
X20211142Y11554606D02*
X20356285Y11627177D01*
X20356285Y11627177D02*
X20719142Y11627177D01*
X20719142Y11627177D02*
X20936856Y11554606D01*
X21590000Y10901463D02*
X22098000Y10901463D01*
X22315714Y10103177D02*
X21590000Y10103177D01*
X21590000Y10103177D02*
X21590000Y11627177D01*
X21590000Y11627177D02*
X22315714Y11627177D01*
X22751142Y11627177D02*
X23622000Y11627177D01*
X23186571Y10103177D02*
X23186571Y11627177D01*
X8783537Y65491895D02*
X8856109Y65709609D01*
X8856109Y65709609D02*
X8928680Y65782180D01*
X8928680Y65782180D02*
X9073823Y65854752D01*
X9073823Y65854752D02*
X9291537Y65854752D01*
X9291537Y65854752D02*
X9436680Y65782180D01*
X9436680Y65782180D02*
X9509252Y65709609D01*
X9509252Y65709609D02*
X9581823Y65564466D01*
X9581823Y65564466D02*
X9581823Y64983895D01*
X9581823Y64983895D02*
X8057823Y64983895D01*
X8057823Y64983895D02*
X8057823Y65491895D01*
X8057823Y65491895D02*
X8130394Y65637037D01*
X8130394Y65637037D02*
X8202966Y65709609D01*
X8202966Y65709609D02*
X8348109Y65782180D01*
X8348109Y65782180D02*
X8493252Y65782180D01*
X8493252Y65782180D02*
X8638394Y65709609D01*
X8638394Y65709609D02*
X8710966Y65637037D01*
X8710966Y65637037D02*
X8783537Y65491895D01*
X8783537Y65491895D02*
X8783537Y64983895D01*
X9581823Y67306180D02*
X9581823Y66435323D01*
X9581823Y66870752D02*
X8057823Y66870752D01*
X8057823Y66870752D02*
X8275537Y66725609D01*
X8275537Y66725609D02*
X8420680Y66580466D01*
X8420680Y66580466D02*
X8493252Y66435323D01*
X8057823Y67814181D02*
X8057823Y68757609D01*
X8057823Y68757609D02*
X8638394Y68249609D01*
X8638394Y68249609D02*
X8638394Y68467324D01*
X8638394Y68467324D02*
X8710966Y68612466D01*
X8710966Y68612466D02*
X8783537Y68685038D01*
X8783537Y68685038D02*
X8928680Y68757609D01*
X8928680Y68757609D02*
X9291537Y68757609D01*
X9291537Y68757609D02*
X9436680Y68685038D01*
X9436680Y68685038D02*
X9509252Y68612466D01*
X9509252Y68612466D02*
X9581823Y68467324D01*
X9581823Y68467324D02*
X9581823Y68031895D01*
X9581823Y68031895D02*
X9509252Y67886752D01*
X9509252Y67886752D02*
X9436680Y67814181D01*
X34981823Y18944963D02*
X33457823Y18944963D01*
X34183537Y18944963D02*
X34183537Y19815820D01*
X34981823Y19815820D02*
X33457823Y19815820D01*
X33457823Y20831819D02*
X33457823Y20976962D01*
X33457823Y20976962D02*
X33530394Y21122105D01*
X33530394Y21122105D02*
X33602966Y21194676D01*
X33602966Y21194676D02*
X33748109Y21267248D01*
X33748109Y21267248D02*
X34038394Y21339819D01*
X34038394Y21339819D02*
X34401252Y21339819D01*
X34401252Y21339819D02*
X34691537Y21267248D01*
X34691537Y21267248D02*
X34836680Y21194676D01*
X34836680Y21194676D02*
X34909252Y21122105D01*
X34909252Y21122105D02*
X34981823Y20976962D01*
X34981823Y20976962D02*
X34981823Y20831819D01*
X34981823Y20831819D02*
X34909252Y20686676D01*
X34909252Y20686676D02*
X34836680Y20614105D01*
X34836680Y20614105D02*
X34691537Y20541534D01*
X34691537Y20541534D02*
X34401252Y20468962D01*
X34401252Y20468962D02*
X34038394Y20468962D01*
X34038394Y20468962D02*
X33748109Y20541534D01*
X33748109Y20541534D02*
X33602966Y20614105D01*
X33602966Y20614105D02*
X33530394Y20686676D01*
X33530394Y20686676D02*
X33457823Y20831819D01*
X48791823Y64941715D02*
X47775823Y64941715D01*
X47920966Y64941715D02*
X47848394Y65014286D01*
X47848394Y65014286D02*
X47775823Y65159429D01*
X47775823Y65159429D02*
X47775823Y65377143D01*
X47775823Y65377143D02*
X47848394Y65522286D01*
X47848394Y65522286D02*
X47993537Y65594857D01*
X47993537Y65594857D02*
X48791823Y65594857D01*
X47993537Y65594857D02*
X47848394Y65667429D01*
X47848394Y65667429D02*
X47775823Y65812572D01*
X47775823Y65812572D02*
X47775823Y66030286D01*
X47775823Y66030286D02*
X47848394Y66175429D01*
X47848394Y66175429D02*
X47993537Y66248000D01*
X47993537Y66248000D02*
X48791823Y66248000D01*
X48791823Y66973715D02*
X47775823Y66973715D01*
X47267823Y66973715D02*
X47340394Y66901143D01*
X47340394Y66901143D02*
X47412966Y66973715D01*
X47412966Y66973715D02*
X47340394Y67046286D01*
X47340394Y67046286D02*
X47267823Y66973715D01*
X47267823Y66973715D02*
X47412966Y66973715D01*
X48791823Y67699429D02*
X47267823Y67699429D01*
X48791823Y68352571D02*
X47993537Y68352571D01*
X47993537Y68352571D02*
X47848394Y68280000D01*
X47848394Y68280000D02*
X47775823Y68134857D01*
X47775823Y68134857D02*
X47775823Y67917143D01*
X47775823Y67917143D02*
X47848394Y67772000D01*
X47848394Y67772000D02*
X47920966Y67699429D01*
X48791823Y69296000D02*
X48719252Y69150857D01*
X48719252Y69150857D02*
X48646680Y69078286D01*
X48646680Y69078286D02*
X48501537Y69005714D01*
X48501537Y69005714D02*
X48066109Y69005714D01*
X48066109Y69005714D02*
X47920966Y69078286D01*
X47920966Y69078286D02*
X47848394Y69150857D01*
X47848394Y69150857D02*
X47775823Y69296000D01*
X47775823Y69296000D02*
X47775823Y69513714D01*
X47775823Y69513714D02*
X47848394Y69658857D01*
X47848394Y69658857D02*
X47920966Y69731428D01*
X47920966Y69731428D02*
X48066109Y69804000D01*
X48066109Y69804000D02*
X48501537Y69804000D01*
X48501537Y69804000D02*
X48646680Y69731428D01*
X48646680Y69731428D02*
X48719252Y69658857D01*
X48719252Y69658857D02*
X48791823Y69513714D01*
X48791823Y69513714D02*
X48791823Y69296000D01*
X47412966Y71545714D02*
X47340394Y71618286D01*
X47340394Y71618286D02*
X47267823Y71763428D01*
X47267823Y71763428D02*
X47267823Y72126286D01*
X47267823Y72126286D02*
X47340394Y72271428D01*
X47340394Y72271428D02*
X47412966Y72344000D01*
X47412966Y72344000D02*
X47558109Y72416571D01*
X47558109Y72416571D02*
X47703252Y72416571D01*
X47703252Y72416571D02*
X47920966Y72344000D01*
X47920966Y72344000D02*
X48791823Y71473143D01*
X48791823Y71473143D02*
X48791823Y72416571D01*
X47267823Y73360000D02*
X47267823Y73505143D01*
X47267823Y73505143D02*
X47340394Y73650286D01*
X47340394Y73650286D02*
X47412966Y73722857D01*
X47412966Y73722857D02*
X47558109Y73795429D01*
X47558109Y73795429D02*
X47848394Y73868000D01*
X47848394Y73868000D02*
X48211252Y73868000D01*
X48211252Y73868000D02*
X48501537Y73795429D01*
X48501537Y73795429D02*
X48646680Y73722857D01*
X48646680Y73722857D02*
X48719252Y73650286D01*
X48719252Y73650286D02*
X48791823Y73505143D01*
X48791823Y73505143D02*
X48791823Y73360000D01*
X48791823Y73360000D02*
X48719252Y73214857D01*
X48719252Y73214857D02*
X48646680Y73142286D01*
X48646680Y73142286D02*
X48501537Y73069715D01*
X48501537Y73069715D02*
X48211252Y72997143D01*
X48211252Y72997143D02*
X47848394Y72997143D01*
X47848394Y72997143D02*
X47558109Y73069715D01*
X47558109Y73069715D02*
X47412966Y73142286D01*
X47412966Y73142286D02*
X47340394Y73214857D01*
X47340394Y73214857D02*
X47267823Y73360000D01*
X47412966Y74448572D02*
X47340394Y74521144D01*
X47340394Y74521144D02*
X47267823Y74666286D01*
X47267823Y74666286D02*
X47267823Y75029144D01*
X47267823Y75029144D02*
X47340394Y75174286D01*
X47340394Y75174286D02*
X47412966Y75246858D01*
X47412966Y75246858D02*
X47558109Y75319429D01*
X47558109Y75319429D02*
X47703252Y75319429D01*
X47703252Y75319429D02*
X47920966Y75246858D01*
X47920966Y75246858D02*
X48791823Y74376001D01*
X48791823Y74376001D02*
X48791823Y75319429D01*
X47775823Y76625715D02*
X48791823Y76625715D01*
X47195252Y76262858D02*
X48283823Y75900001D01*
X48283823Y75900001D02*
X48283823Y76843430D01*
X25837823Y4757248D02*
X27361823Y5265248D01*
X27361823Y5265248D02*
X25837823Y5773248D01*
X27361823Y6281249D02*
X25837823Y6281249D01*
X25837823Y6281249D02*
X25837823Y6644106D01*
X25837823Y6644106D02*
X25910394Y6861820D01*
X25910394Y6861820D02*
X26055537Y7006963D01*
X26055537Y7006963D02*
X26200680Y7079534D01*
X26200680Y7079534D02*
X26490966Y7152106D01*
X26490966Y7152106D02*
X26708680Y7152106D01*
X26708680Y7152106D02*
X26998966Y7079534D01*
X26998966Y7079534D02*
X27144109Y7006963D01*
X27144109Y7006963D02*
X27289252Y6861820D01*
X27289252Y6861820D02*
X27361823Y6644106D01*
X27361823Y6644106D02*
X27361823Y6281249D01*
X27361823Y7805249D02*
X25837823Y7805249D01*
X25837823Y7805249D02*
X25837823Y8168106D01*
X25837823Y8168106D02*
X25910394Y8385820D01*
X25910394Y8385820D02*
X26055537Y8530963D01*
X26055537Y8530963D02*
X26200680Y8603534D01*
X26200680Y8603534D02*
X26490966Y8676106D01*
X26490966Y8676106D02*
X26708680Y8676106D01*
X26708680Y8676106D02*
X26998966Y8603534D01*
X26998966Y8603534D02*
X27144109Y8530963D01*
X27144109Y8530963D02*
X27289252Y8385820D01*
X27289252Y8385820D02*
X27361823Y8168106D01*
X27361823Y8168106D02*
X27361823Y7805249D01*
X8712390Y36573606D02*
X9438105Y36573606D01*
X8567247Y36138177D02*
X9075247Y37662177D01*
X9075247Y37662177D02*
X9583247Y36138177D01*
X10744391Y37662177D02*
X10454105Y37662177D01*
X10454105Y37662177D02*
X10308962Y37589606D01*
X10308962Y37589606D02*
X10236391Y37517034D01*
X10236391Y37517034D02*
X10091248Y37299320D01*
X10091248Y37299320D02*
X10018676Y37009034D01*
X10018676Y37009034D02*
X10018676Y36428463D01*
X10018676Y36428463D02*
X10091248Y36283320D01*
X10091248Y36283320D02*
X10163819Y36210748D01*
X10163819Y36210748D02*
X10308962Y36138177D01*
X10308962Y36138177D02*
X10599248Y36138177D01*
X10599248Y36138177D02*
X10744391Y36210748D01*
X10744391Y36210748D02*
X10816962Y36283320D01*
X10816962Y36283320D02*
X10889533Y36428463D01*
X10889533Y36428463D02*
X10889533Y36791320D01*
X10889533Y36791320D02*
X10816962Y36936463D01*
X10816962Y36936463D02*
X10744391Y37009034D01*
X10744391Y37009034D02*
X10599248Y37081606D01*
X10599248Y37081606D02*
X10308962Y37081606D01*
X10308962Y37081606D02*
X10163819Y37009034D01*
X10163819Y37009034D02*
X10091248Y36936463D01*
X10091248Y36936463D02*
X10018676Y36791320D01*
X32006394Y65129037D02*
X32006394Y65854751D01*
X32441823Y64983894D02*
X30917823Y65491894D01*
X30917823Y65491894D02*
X32441823Y65999894D01*
X32441823Y67306180D02*
X32441823Y66435323D01*
X32441823Y66870752D02*
X30917823Y66870752D01*
X30917823Y66870752D02*
X31135537Y66725609D01*
X31135537Y66725609D02*
X31280680Y66580466D01*
X31280680Y66580466D02*
X31353252Y66435323D01*
X30917823Y68249609D02*
X30917823Y68394752D01*
X30917823Y68394752D02*
X30990394Y68539895D01*
X30990394Y68539895D02*
X31062966Y68612466D01*
X31062966Y68612466D02*
X31208109Y68685038D01*
X31208109Y68685038D02*
X31498394Y68757609D01*
X31498394Y68757609D02*
X31861252Y68757609D01*
X31861252Y68757609D02*
X32151537Y68685038D01*
X32151537Y68685038D02*
X32296680Y68612466D01*
X32296680Y68612466D02*
X32369252Y68539895D01*
X32369252Y68539895D02*
X32441823Y68394752D01*
X32441823Y68394752D02*
X32441823Y68249609D01*
X32441823Y68249609D02*
X32369252Y68104466D01*
X32369252Y68104466D02*
X32296680Y68031895D01*
X32296680Y68031895D02*
X32151537Y67959324D01*
X32151537Y67959324D02*
X31861252Y67886752D01*
X31861252Y67886752D02*
X31498394Y67886752D01*
X31498394Y67886752D02*
X31208109Y67959324D01*
X31208109Y67959324D02*
X31062966Y68031895D01*
X31062966Y68031895D02*
X30990394Y68104466D01*
X30990394Y68104466D02*
X30917823Y68249609D01*
X13137823Y18727248D02*
X14661823Y19235248D01*
X14661823Y19235248D02*
X13137823Y19743248D01*
X14661823Y20251249D02*
X13137823Y20251249D01*
X13137823Y20251249D02*
X13137823Y20614106D01*
X13137823Y20614106D02*
X13210394Y20831820D01*
X13210394Y20831820D02*
X13355537Y20976963D01*
X13355537Y20976963D02*
X13500680Y21049534D01*
X13500680Y21049534D02*
X13790966Y21122106D01*
X13790966Y21122106D02*
X14008680Y21122106D01*
X14008680Y21122106D02*
X14298966Y21049534D01*
X14298966Y21049534D02*
X14444109Y20976963D01*
X14444109Y20976963D02*
X14589252Y20831820D01*
X14589252Y20831820D02*
X14661823Y20614106D01*
X14661823Y20614106D02*
X14661823Y20251249D01*
X14661823Y21775249D02*
X13137823Y21775249D01*
X13137823Y21775249D02*
X13137823Y22138106D01*
X13137823Y22138106D02*
X13210394Y22355820D01*
X13210394Y22355820D02*
X13355537Y22500963D01*
X13355537Y22500963D02*
X13500680Y22573534D01*
X13500680Y22573534D02*
X13790966Y22646106D01*
X13790966Y22646106D02*
X14008680Y22646106D01*
X14008680Y22646106D02*
X14298966Y22573534D01*
X14298966Y22573534D02*
X14444109Y22500963D01*
X14444109Y22500963D02*
X14589252Y22355820D01*
X14589252Y22355820D02*
X14661823Y22138106D01*
X14661823Y22138106D02*
X14661823Y21775249D01*
X14806966Y22936391D02*
X14806966Y24097534D01*
X14226394Y24387820D02*
X14226394Y25113534D01*
X14661823Y24242677D02*
X13137823Y24750677D01*
X13137823Y24750677D02*
X14661823Y25258677D01*
X39916680Y19815820D02*
X39989252Y19743248D01*
X39989252Y19743248D02*
X40061823Y19525534D01*
X40061823Y19525534D02*
X40061823Y19380391D01*
X40061823Y19380391D02*
X39989252Y19162677D01*
X39989252Y19162677D02*
X39844109Y19017534D01*
X39844109Y19017534D02*
X39698966Y18944963D01*
X39698966Y18944963D02*
X39408680Y18872391D01*
X39408680Y18872391D02*
X39190966Y18872391D01*
X39190966Y18872391D02*
X38900680Y18944963D01*
X38900680Y18944963D02*
X38755537Y19017534D01*
X38755537Y19017534D02*
X38610394Y19162677D01*
X38610394Y19162677D02*
X38537823Y19380391D01*
X38537823Y19380391D02*
X38537823Y19525534D01*
X38537823Y19525534D02*
X38610394Y19743248D01*
X38610394Y19743248D02*
X38682966Y19815820D01*
X40061823Y21267248D02*
X40061823Y20396391D01*
X40061823Y20831820D02*
X38537823Y20831820D01*
X38537823Y20831820D02*
X38755537Y20686677D01*
X38755537Y20686677D02*
X38900680Y20541534D01*
X38900680Y20541534D02*
X38973252Y20396391D01*
X39045823Y22573534D02*
X40061823Y22573534D01*
X38465252Y22210677D02*
X39553823Y21847820D01*
X39553823Y21847820D02*
X39553823Y22791249D01*
X41150394Y65564467D02*
X41077823Y65419324D01*
X41077823Y65419324D02*
X41077823Y65201610D01*
X41077823Y65201610D02*
X41150394Y64983896D01*
X41150394Y64983896D02*
X41295537Y64838753D01*
X41295537Y64838753D02*
X41440680Y64766182D01*
X41440680Y64766182D02*
X41730966Y64693610D01*
X41730966Y64693610D02*
X41948680Y64693610D01*
X41948680Y64693610D02*
X42238966Y64766182D01*
X42238966Y64766182D02*
X42384109Y64838753D01*
X42384109Y64838753D02*
X42529252Y64983896D01*
X42529252Y64983896D02*
X42601823Y65201610D01*
X42601823Y65201610D02*
X42601823Y65346753D01*
X42601823Y65346753D02*
X42529252Y65564467D01*
X42529252Y65564467D02*
X42456680Y65637039D01*
X42456680Y65637039D02*
X41948680Y65637039D01*
X41948680Y65637039D02*
X41948680Y65346753D01*
X42601823Y66290182D02*
X41077823Y66290182D01*
X41077823Y66290182D02*
X42601823Y67161039D01*
X42601823Y67161039D02*
X41077823Y67161039D01*
X42601823Y67886753D02*
X41077823Y67886753D01*
X41077823Y67886753D02*
X41077823Y68249610D01*
X41077823Y68249610D02*
X41150394Y68467324D01*
X41150394Y68467324D02*
X41295537Y68612467D01*
X41295537Y68612467D02*
X41440680Y68685038D01*
X41440680Y68685038D02*
X41730966Y68757610D01*
X41730966Y68757610D02*
X41948680Y68757610D01*
X41948680Y68757610D02*
X42238966Y68685038D01*
X42238966Y68685038D02*
X42384109Y68612467D01*
X42384109Y68612467D02*
X42529252Y68467324D01*
X42529252Y68467324D02*
X42601823Y68249610D01*
X42601823Y68249610D02*
X42601823Y67886753D01*
X39184751Y56603320D02*
X39112179Y56530748D01*
X39112179Y56530748D02*
X38894465Y56458177D01*
X38894465Y56458177D02*
X38749322Y56458177D01*
X38749322Y56458177D02*
X38531608Y56530748D01*
X38531608Y56530748D02*
X38386465Y56675891D01*
X38386465Y56675891D02*
X38313894Y56821034D01*
X38313894Y56821034D02*
X38241322Y57111320D01*
X38241322Y57111320D02*
X38241322Y57329034D01*
X38241322Y57329034D02*
X38313894Y57619320D01*
X38313894Y57619320D02*
X38386465Y57764463D01*
X38386465Y57764463D02*
X38531608Y57909606D01*
X38531608Y57909606D02*
X38749322Y57982177D01*
X38749322Y57982177D02*
X38894465Y57982177D01*
X38894465Y57982177D02*
X39112179Y57909606D01*
X39112179Y57909606D02*
X39184751Y57837034D01*
X40636179Y56458177D02*
X39765322Y56458177D01*
X40200751Y56458177D02*
X40200751Y57982177D01*
X40200751Y57982177D02*
X40055608Y57764463D01*
X40055608Y57764463D02*
X39910465Y57619320D01*
X39910465Y57619320D02*
X39765322Y57546748D01*
X41579608Y57982177D02*
X41724751Y57982177D01*
X41724751Y57982177D02*
X41869894Y57909606D01*
X41869894Y57909606D02*
X41942466Y57837034D01*
X41942466Y57837034D02*
X42015037Y57691891D01*
X42015037Y57691891D02*
X42087608Y57401606D01*
X42087608Y57401606D02*
X42087608Y57038748D01*
X42087608Y57038748D02*
X42015037Y56748463D01*
X42015037Y56748463D02*
X41942466Y56603320D01*
X41942466Y56603320D02*
X41869894Y56530748D01*
X41869894Y56530748D02*
X41724751Y56458177D01*
X41724751Y56458177D02*
X41579608Y56458177D01*
X41579608Y56458177D02*
X41434466Y56530748D01*
X41434466Y56530748D02*
X41361894Y56603320D01*
X41361894Y56603320D02*
X41289323Y56748463D01*
X41289323Y56748463D02*
X41216751Y57038748D01*
X41216751Y57038748D02*
X41216751Y57401606D01*
X41216751Y57401606D02*
X41289323Y57691891D01*
X41289323Y57691891D02*
X41361894Y57837034D01*
X41361894Y57837034D02*
X41434466Y57909606D01*
X41434466Y57909606D02*
X41579608Y57982177D01*
X34909252Y4902391D02*
X34981823Y5120105D01*
X34981823Y5120105D02*
X34981823Y5482963D01*
X34981823Y5482963D02*
X34909252Y5628105D01*
X34909252Y5628105D02*
X34836680Y5700677D01*
X34836680Y5700677D02*
X34691537Y5773248D01*
X34691537Y5773248D02*
X34546394Y5773248D01*
X34546394Y5773248D02*
X34401252Y5700677D01*
X34401252Y5700677D02*
X34328680Y5628105D01*
X34328680Y5628105D02*
X34256109Y5482963D01*
X34256109Y5482963D02*
X34183537Y5192677D01*
X34183537Y5192677D02*
X34110966Y5047534D01*
X34110966Y5047534D02*
X34038394Y4974963D01*
X34038394Y4974963D02*
X33893252Y4902391D01*
X33893252Y4902391D02*
X33748109Y4902391D01*
X33748109Y4902391D02*
X33602966Y4974963D01*
X33602966Y4974963D02*
X33530394Y5047534D01*
X33530394Y5047534D02*
X33457823Y5192677D01*
X33457823Y5192677D02*
X33457823Y5555534D01*
X33457823Y5555534D02*
X33530394Y5773248D01*
X33457823Y6281249D02*
X34981823Y6644106D01*
X34981823Y6644106D02*
X33893252Y6934392D01*
X33893252Y6934392D02*
X34981823Y7224677D01*
X34981823Y7224677D02*
X33457823Y7587534D01*
X34981823Y8168106D02*
X33457823Y8168106D01*
X33457823Y8168106D02*
X33457823Y8530963D01*
X33457823Y8530963D02*
X33530394Y8748677D01*
X33530394Y8748677D02*
X33675537Y8893820D01*
X33675537Y8893820D02*
X33820680Y8966391D01*
X33820680Y8966391D02*
X34110966Y9038963D01*
X34110966Y9038963D02*
X34328680Y9038963D01*
X34328680Y9038963D02*
X34618966Y8966391D01*
X34618966Y8966391D02*
X34764109Y8893820D01*
X34764109Y8893820D02*
X34909252Y8748677D01*
X34909252Y8748677D02*
X34981823Y8530963D01*
X34981823Y8530963D02*
X34981823Y8168106D01*
X34981823Y9692106D02*
X33457823Y9692106D01*
X33457823Y10708105D02*
X33457823Y10998391D01*
X33457823Y10998391D02*
X33530394Y11143534D01*
X33530394Y11143534D02*
X33675537Y11288677D01*
X33675537Y11288677D02*
X33965823Y11361248D01*
X33965823Y11361248D02*
X34473823Y11361248D01*
X34473823Y11361248D02*
X34764109Y11288677D01*
X34764109Y11288677D02*
X34909252Y11143534D01*
X34909252Y11143534D02*
X34981823Y10998391D01*
X34981823Y10998391D02*
X34981823Y10708105D01*
X34981823Y10708105D02*
X34909252Y10562962D01*
X34909252Y10562962D02*
X34764109Y10417820D01*
X34764109Y10417820D02*
X34473823Y10345248D01*
X34473823Y10345248D02*
X33965823Y10345248D01*
X33965823Y10345248D02*
X33675537Y10417820D01*
X33675537Y10417820D02*
X33530394Y10562962D01*
X33530394Y10562962D02*
X33457823Y10708105D01*
X40273323Y36936463D02*
X40491037Y36863891D01*
X40491037Y36863891D02*
X40563608Y36791320D01*
X40563608Y36791320D02*
X40636180Y36646177D01*
X40636180Y36646177D02*
X40636180Y36428463D01*
X40636180Y36428463D02*
X40563608Y36283320D01*
X40563608Y36283320D02*
X40491037Y36210748D01*
X40491037Y36210748D02*
X40345894Y36138177D01*
X40345894Y36138177D02*
X39765323Y36138177D01*
X39765323Y36138177D02*
X39765323Y37662177D01*
X39765323Y37662177D02*
X40273323Y37662177D01*
X40273323Y37662177D02*
X40418466Y37589606D01*
X40418466Y37589606D02*
X40491037Y37517034D01*
X40491037Y37517034D02*
X40563608Y37371891D01*
X40563608Y37371891D02*
X40563608Y37226748D01*
X40563608Y37226748D02*
X40491037Y37081606D01*
X40491037Y37081606D02*
X40418466Y37009034D01*
X40418466Y37009034D02*
X40273323Y36936463D01*
X40273323Y36936463D02*
X39765323Y36936463D01*
X41144180Y37662177D02*
X42160180Y37662177D01*
X42160180Y37662177D02*
X41507037Y36138177D01*
X8784962Y56458177D02*
X8784962Y57982177D01*
X8784962Y57982177D02*
X9365533Y57982177D01*
X9365533Y57982177D02*
X9510676Y57909606D01*
X9510676Y57909606D02*
X9583247Y57837034D01*
X9583247Y57837034D02*
X9655819Y57691891D01*
X9655819Y57691891D02*
X9655819Y57474177D01*
X9655819Y57474177D02*
X9583247Y57329034D01*
X9583247Y57329034D02*
X9510676Y57256463D01*
X9510676Y57256463D02*
X9365533Y57183891D01*
X9365533Y57183891D02*
X8784962Y57183891D01*
X10816962Y57256463D02*
X11034676Y57183891D01*
X11034676Y57183891D02*
X11107247Y57111320D01*
X11107247Y57111320D02*
X11179819Y56966177D01*
X11179819Y56966177D02*
X11179819Y56748463D01*
X11179819Y56748463D02*
X11107247Y56603320D01*
X11107247Y56603320D02*
X11034676Y56530748D01*
X11034676Y56530748D02*
X10889533Y56458177D01*
X10889533Y56458177D02*
X10308962Y56458177D01*
X10308962Y56458177D02*
X10308962Y57982177D01*
X10308962Y57982177D02*
X10816962Y57982177D01*
X10816962Y57982177D02*
X10962105Y57909606D01*
X10962105Y57909606D02*
X11034676Y57837034D01*
X11034676Y57837034D02*
X11107247Y57691891D01*
X11107247Y57691891D02*
X11107247Y57546748D01*
X11107247Y57546748D02*
X11034676Y57401606D01*
X11034676Y57401606D02*
X10962105Y57329034D01*
X10962105Y57329034D02*
X10816962Y57256463D01*
X10816962Y57256463D02*
X10308962Y57256463D01*
X12631247Y56458177D02*
X11760390Y56458177D01*
X12195819Y56458177D02*
X12195819Y57982177D01*
X12195819Y57982177D02*
X12050676Y57764463D01*
X12050676Y57764463D02*
X11905533Y57619320D01*
X11905533Y57619320D02*
X11760390Y57546748D01*
X14082676Y56458177D02*
X13211819Y56458177D01*
X13647248Y56458177D02*
X13647248Y57982177D01*
X13647248Y57982177D02*
X13502105Y57764463D01*
X13502105Y57764463D02*
X13356962Y57619320D01*
X13356962Y57619320D02*
X13211819Y57546748D01*
X9655819Y41363320D02*
X9583247Y41290748D01*
X9583247Y41290748D02*
X9365533Y41218177D01*
X9365533Y41218177D02*
X9220390Y41218177D01*
X9220390Y41218177D02*
X9002676Y41290748D01*
X9002676Y41290748D02*
X8857533Y41435891D01*
X8857533Y41435891D02*
X8784962Y41581034D01*
X8784962Y41581034D02*
X8712390Y41871320D01*
X8712390Y41871320D02*
X8712390Y42089034D01*
X8712390Y42089034D02*
X8784962Y42379320D01*
X8784962Y42379320D02*
X8857533Y42524463D01*
X8857533Y42524463D02*
X9002676Y42669606D01*
X9002676Y42669606D02*
X9220390Y42742177D01*
X9220390Y42742177D02*
X9365533Y42742177D01*
X9365533Y42742177D02*
X9583247Y42669606D01*
X9583247Y42669606D02*
X9655819Y42597034D01*
X10962105Y42234177D02*
X10962105Y41218177D01*
X10599247Y42814748D02*
X10236390Y41726177D01*
X10236390Y41726177D02*
X11179819Y41726177D01*
X9292962Y49636463D02*
X9510676Y49563891D01*
X9510676Y49563891D02*
X9583247Y49491320D01*
X9583247Y49491320D02*
X9655819Y49346177D01*
X9655819Y49346177D02*
X9655819Y49128463D01*
X9655819Y49128463D02*
X9583247Y48983320D01*
X9583247Y48983320D02*
X9510676Y48910748D01*
X9510676Y48910748D02*
X9365533Y48838177D01*
X9365533Y48838177D02*
X8784962Y48838177D01*
X8784962Y48838177D02*
X8784962Y50362177D01*
X8784962Y50362177D02*
X9292962Y50362177D01*
X9292962Y50362177D02*
X9438105Y50289606D01*
X9438105Y50289606D02*
X9510676Y50217034D01*
X9510676Y50217034D02*
X9583247Y50071891D01*
X9583247Y50071891D02*
X9583247Y49926748D01*
X9583247Y49926748D02*
X9510676Y49781606D01*
X9510676Y49781606D02*
X9438105Y49709034D01*
X9438105Y49709034D02*
X9292962Y49636463D01*
X9292962Y49636463D02*
X8784962Y49636463D01*
X11107247Y48838177D02*
X10236390Y48838177D01*
X10671819Y48838177D02*
X10671819Y50362177D01*
X10671819Y50362177D02*
X10526676Y50144463D01*
X10526676Y50144463D02*
X10381533Y49999320D01*
X10381533Y49999320D02*
X10236390Y49926748D01*
X9146394Y18872391D02*
X9146394Y19598105D01*
X9581823Y18727248D02*
X8057823Y19235248D01*
X8057823Y19235248D02*
X9581823Y19743248D01*
X9581823Y21049534D02*
X9581823Y20178677D01*
X9581823Y20614106D02*
X8057823Y20614106D01*
X8057823Y20614106D02*
X8275537Y20468963D01*
X8275537Y20468963D02*
X8420680Y20323820D01*
X8420680Y20323820D02*
X8493252Y20178677D01*
X8712390Y39113606D02*
X9438105Y39113606D01*
X8567247Y38678177D02*
X9075247Y40202177D01*
X9075247Y40202177D02*
X9583247Y38678177D01*
X9946105Y40202177D02*
X10962105Y40202177D01*
X10962105Y40202177D02*
X10308962Y38678177D01*
X38459036Y61973606D02*
X39184751Y61973606D01*
X38313893Y61538177D02*
X38821893Y63062177D01*
X38821893Y63062177D02*
X39329893Y61538177D01*
X40636179Y61538177D02*
X39765322Y61538177D01*
X40200751Y61538177D02*
X40200751Y63062177D01*
X40200751Y63062177D02*
X40055608Y62844463D01*
X40055608Y62844463D02*
X39910465Y62699320D01*
X39910465Y62699320D02*
X39765322Y62626748D01*
X41942466Y62554177D02*
X41942466Y61538177D01*
X41579608Y63134748D02*
X41216751Y62046177D01*
X41216751Y62046177D02*
X42160180Y62046177D01*
X32441823Y18944963D02*
X30917823Y18944963D01*
X31643537Y18944963D02*
X31643537Y19815820D01*
X32441823Y19815820D02*
X30917823Y19815820D01*
X32441823Y21339819D02*
X32441823Y20468962D01*
X32441823Y20904391D02*
X30917823Y20904391D01*
X30917823Y20904391D02*
X31135537Y20759248D01*
X31135537Y20759248D02*
X31280680Y20614105D01*
X31280680Y20614105D02*
X31353252Y20468962D01*
X16748252Y80209572D02*
X16748252Y81370714D01*
X17328823Y80790143D02*
X16167680Y80790143D01*
X15804823Y82822143D02*
X15804823Y82096429D01*
X15804823Y82096429D02*
X16530537Y82023857D01*
X16530537Y82023857D02*
X16457966Y82096429D01*
X16457966Y82096429D02*
X16385394Y82241571D01*
X16385394Y82241571D02*
X16385394Y82604429D01*
X16385394Y82604429D02*
X16457966Y82749571D01*
X16457966Y82749571D02*
X16530537Y82822143D01*
X16530537Y82822143D02*
X16675680Y82894714D01*
X16675680Y82894714D02*
X17038537Y82894714D01*
X17038537Y82894714D02*
X17183680Y82822143D01*
X17183680Y82822143D02*
X17256252Y82749571D01*
X17256252Y82749571D02*
X17328823Y82604429D01*
X17328823Y82604429D02*
X17328823Y82241571D01*
X17328823Y82241571D02*
X17256252Y82096429D01*
X17256252Y82096429D02*
X17183680Y82023857D01*
X15804823Y83330143D02*
X17328823Y83838143D01*
X17328823Y83838143D02*
X15804823Y84346143D01*
X38459036Y59433606D02*
X39184751Y59433606D01*
X38313893Y58998177D02*
X38821893Y60522177D01*
X38821893Y60522177D02*
X39329893Y58998177D01*
X40636179Y58998177D02*
X39765322Y58998177D01*
X40200751Y58998177D02*
X40200751Y60522177D01*
X40200751Y60522177D02*
X40055608Y60304463D01*
X40055608Y60304463D02*
X39910465Y60159320D01*
X39910465Y60159320D02*
X39765322Y60086748D01*
X42015037Y60522177D02*
X41289323Y60522177D01*
X41289323Y60522177D02*
X41216751Y59796463D01*
X41216751Y59796463D02*
X41289323Y59869034D01*
X41289323Y59869034D02*
X41434466Y59941606D01*
X41434466Y59941606D02*
X41797323Y59941606D01*
X41797323Y59941606D02*
X41942466Y59869034D01*
X41942466Y59869034D02*
X42015037Y59796463D01*
X42015037Y59796463D02*
X42087608Y59651320D01*
X42087608Y59651320D02*
X42087608Y59288463D01*
X42087608Y59288463D02*
X42015037Y59143320D01*
X42015037Y59143320D02*
X41942466Y59070748D01*
X41942466Y59070748D02*
X41797323Y58998177D01*
X41797323Y58998177D02*
X41434466Y58998177D01*
X41434466Y58998177D02*
X41289323Y59070748D01*
X41289323Y59070748D02*
X41216751Y59143320D01*
X30990394Y5773248D02*
X30917823Y5628105D01*
X30917823Y5628105D02*
X30917823Y5410391D01*
X30917823Y5410391D02*
X30990394Y5192677D01*
X30990394Y5192677D02*
X31135537Y5047534D01*
X31135537Y5047534D02*
X31280680Y4974963D01*
X31280680Y4974963D02*
X31570966Y4902391D01*
X31570966Y4902391D02*
X31788680Y4902391D01*
X31788680Y4902391D02*
X32078966Y4974963D01*
X32078966Y4974963D02*
X32224109Y5047534D01*
X32224109Y5047534D02*
X32369252Y5192677D01*
X32369252Y5192677D02*
X32441823Y5410391D01*
X32441823Y5410391D02*
X32441823Y5555534D01*
X32441823Y5555534D02*
X32369252Y5773248D01*
X32369252Y5773248D02*
X32296680Y5845820D01*
X32296680Y5845820D02*
X31788680Y5845820D01*
X31788680Y5845820D02*
X31788680Y5555534D01*
X32441823Y6498963D02*
X30917823Y6498963D01*
X30917823Y6498963D02*
X32441823Y7369820D01*
X32441823Y7369820D02*
X30917823Y7369820D01*
X32441823Y8095534D02*
X30917823Y8095534D01*
X30917823Y8095534D02*
X30917823Y8458391D01*
X30917823Y8458391D02*
X30990394Y8676105D01*
X30990394Y8676105D02*
X31135537Y8821248D01*
X31135537Y8821248D02*
X31280680Y8893819D01*
X31280680Y8893819D02*
X31570966Y8966391D01*
X31570966Y8966391D02*
X31788680Y8966391D01*
X31788680Y8966391D02*
X32078966Y8893819D01*
X32078966Y8893819D02*
X32224109Y8821248D01*
X32224109Y8821248D02*
X32369252Y8676105D01*
X32369252Y8676105D02*
X32441823Y8458391D01*
X32441823Y8458391D02*
X32441823Y8095534D01*
X17056680Y67306181D02*
X17129252Y67233609D01*
X17129252Y67233609D02*
X17201823Y67015895D01*
X17201823Y67015895D02*
X17201823Y66870752D01*
X17201823Y66870752D02*
X17129252Y66653038D01*
X17129252Y66653038D02*
X16984109Y66507895D01*
X16984109Y66507895D02*
X16838966Y66435324D01*
X16838966Y66435324D02*
X16548680Y66362752D01*
X16548680Y66362752D02*
X16330966Y66362752D01*
X16330966Y66362752D02*
X16040680Y66435324D01*
X16040680Y66435324D02*
X15895537Y66507895D01*
X15895537Y66507895D02*
X15750394Y66653038D01*
X15750394Y66653038D02*
X15677823Y66870752D01*
X15677823Y66870752D02*
X15677823Y67015895D01*
X15677823Y67015895D02*
X15750394Y67233609D01*
X15750394Y67233609D02*
X15822966Y67306181D01*
X15677823Y68612466D02*
X15677823Y68322181D01*
X15677823Y68322181D02*
X15750394Y68177038D01*
X15750394Y68177038D02*
X15822966Y68104466D01*
X15822966Y68104466D02*
X16040680Y67959324D01*
X16040680Y67959324D02*
X16330966Y67886752D01*
X16330966Y67886752D02*
X16911537Y67886752D01*
X16911537Y67886752D02*
X17056680Y67959324D01*
X17056680Y67959324D02*
X17129252Y68031895D01*
X17129252Y68031895D02*
X17201823Y68177038D01*
X17201823Y68177038D02*
X17201823Y68467324D01*
X17201823Y68467324D02*
X17129252Y68612466D01*
X17129252Y68612466D02*
X17056680Y68685038D01*
X17056680Y68685038D02*
X16911537Y68757609D01*
X16911537Y68757609D02*
X16548680Y68757609D01*
X16548680Y68757609D02*
X16403537Y68685038D01*
X16403537Y68685038D02*
X16330966Y68612466D01*
X16330966Y68612466D02*
X16258394Y68467324D01*
X16258394Y68467324D02*
X16258394Y68177038D01*
X16258394Y68177038D02*
X16330966Y68031895D01*
X16330966Y68031895D02*
X16403537Y67959324D01*
X16403537Y67959324D02*
X16548680Y67886752D01*
X43617823Y18727248D02*
X45141823Y19235248D01*
X45141823Y19235248D02*
X43617823Y19743248D01*
X44343537Y20759249D02*
X44416109Y20976963D01*
X44416109Y20976963D02*
X44488680Y21049534D01*
X44488680Y21049534D02*
X44633823Y21122106D01*
X44633823Y21122106D02*
X44851537Y21122106D01*
X44851537Y21122106D02*
X44996680Y21049534D01*
X44996680Y21049534D02*
X45069252Y20976963D01*
X45069252Y20976963D02*
X45141823Y20831820D01*
X45141823Y20831820D02*
X45141823Y20251249D01*
X45141823Y20251249D02*
X43617823Y20251249D01*
X43617823Y20251249D02*
X43617823Y20759249D01*
X43617823Y20759249D02*
X43690394Y20904391D01*
X43690394Y20904391D02*
X43762966Y20976963D01*
X43762966Y20976963D02*
X43908109Y21049534D01*
X43908109Y21049534D02*
X44053252Y21049534D01*
X44053252Y21049534D02*
X44198394Y20976963D01*
X44198394Y20976963D02*
X44270966Y20904391D01*
X44270966Y20904391D02*
X44343537Y20759249D01*
X44343537Y20759249D02*
X44343537Y20251249D01*
X44706394Y21702677D02*
X44706394Y22428391D01*
X45141823Y21557534D02*
X43617823Y22065534D01*
X43617823Y22065534D02*
X45141823Y22573534D01*
X43617823Y64838752D02*
X45141823Y65346752D01*
X45141823Y65346752D02*
X43617823Y65854752D01*
X45141823Y66362753D02*
X43617823Y66362753D01*
X43617823Y66362753D02*
X43617823Y66725610D01*
X43617823Y66725610D02*
X43690394Y66943324D01*
X43690394Y66943324D02*
X43835537Y67088467D01*
X43835537Y67088467D02*
X43980680Y67161038D01*
X43980680Y67161038D02*
X44270966Y67233610D01*
X44270966Y67233610D02*
X44488680Y67233610D01*
X44488680Y67233610D02*
X44778966Y67161038D01*
X44778966Y67161038D02*
X44924109Y67088467D01*
X44924109Y67088467D02*
X45069252Y66943324D01*
X45069252Y66943324D02*
X45141823Y66725610D01*
X45141823Y66725610D02*
X45141823Y66362753D01*
X45141823Y67886753D02*
X43617823Y67886753D01*
X43617823Y67886753D02*
X43617823Y68249610D01*
X43617823Y68249610D02*
X43690394Y68467324D01*
X43690394Y68467324D02*
X43835537Y68612467D01*
X43835537Y68612467D02*
X43980680Y68685038D01*
X43980680Y68685038D02*
X44270966Y68757610D01*
X44270966Y68757610D02*
X44488680Y68757610D01*
X44488680Y68757610D02*
X44778966Y68685038D01*
X44778966Y68685038D02*
X44924109Y68612467D01*
X44924109Y68612467D02*
X45069252Y68467324D01*
X45069252Y68467324D02*
X45141823Y68249610D01*
X45141823Y68249610D02*
X45141823Y67886753D01*
D12*
X10343905Y76828953D02*
X10392286Y76974096D01*
X10392286Y76974096D02*
X10440667Y77022477D01*
X10440667Y77022477D02*
X10537429Y77070858D01*
X10537429Y77070858D02*
X10682572Y77070858D01*
X10682572Y77070858D02*
X10779334Y77022477D01*
X10779334Y77022477D02*
X10827715Y76974096D01*
X10827715Y76974096D02*
X10876095Y76877334D01*
X10876095Y76877334D02*
X10876095Y76490286D01*
X10876095Y76490286D02*
X9860095Y76490286D01*
X9860095Y76490286D02*
X9860095Y76828953D01*
X9860095Y76828953D02*
X9908476Y76925715D01*
X9908476Y76925715D02*
X9956857Y76974096D01*
X9956857Y76974096D02*
X10053619Y77022477D01*
X10053619Y77022477D02*
X10150381Y77022477D01*
X10150381Y77022477D02*
X10247143Y76974096D01*
X10247143Y76974096D02*
X10295524Y76925715D01*
X10295524Y76925715D02*
X10343905Y76828953D01*
X10343905Y76828953D02*
X10343905Y76490286D01*
X9860095Y77506286D02*
X10682572Y77506286D01*
X10682572Y77506286D02*
X10779334Y77554667D01*
X10779334Y77554667D02*
X10827715Y77603048D01*
X10827715Y77603048D02*
X10876095Y77699810D01*
X10876095Y77699810D02*
X10876095Y77893334D01*
X10876095Y77893334D02*
X10827715Y77990096D01*
X10827715Y77990096D02*
X10779334Y78038477D01*
X10779334Y78038477D02*
X10682572Y78086858D01*
X10682572Y78086858D02*
X9860095Y78086858D01*
X10827715Y78522286D02*
X10876095Y78667429D01*
X10876095Y78667429D02*
X10876095Y78909334D01*
X10876095Y78909334D02*
X10827715Y79006096D01*
X10827715Y79006096D02*
X10779334Y79054477D01*
X10779334Y79054477D02*
X10682572Y79102858D01*
X10682572Y79102858D02*
X10585810Y79102858D01*
X10585810Y79102858D02*
X10489048Y79054477D01*
X10489048Y79054477D02*
X10440667Y79006096D01*
X10440667Y79006096D02*
X10392286Y78909334D01*
X10392286Y78909334D02*
X10343905Y78715810D01*
X10343905Y78715810D02*
X10295524Y78619048D01*
X10295524Y78619048D02*
X10247143Y78570667D01*
X10247143Y78570667D02*
X10150381Y78522286D01*
X10150381Y78522286D02*
X10053619Y78522286D01*
X10053619Y78522286D02*
X9956857Y78570667D01*
X9956857Y78570667D02*
X9908476Y78619048D01*
X9908476Y78619048D02*
X9860095Y78715810D01*
X9860095Y78715810D02*
X9860095Y78957715D01*
X9860095Y78957715D02*
X9908476Y79102858D01*
X10876095Y80312381D02*
X9860095Y80312381D01*
X9860095Y80312381D02*
X9860095Y80699429D01*
X9860095Y80699429D02*
X9908476Y80796191D01*
X9908476Y80796191D02*
X9956857Y80844572D01*
X9956857Y80844572D02*
X10053619Y80892953D01*
X10053619Y80892953D02*
X10198762Y80892953D01*
X10198762Y80892953D02*
X10295524Y80844572D01*
X10295524Y80844572D02*
X10343905Y80796191D01*
X10343905Y80796191D02*
X10392286Y80699429D01*
X10392286Y80699429D02*
X10392286Y80312381D01*
X9860095Y81231619D02*
X10876095Y81473524D01*
X10876095Y81473524D02*
X10150381Y81667048D01*
X10150381Y81667048D02*
X10876095Y81860572D01*
X10876095Y81860572D02*
X9860095Y82102476D01*
X10876095Y83070096D02*
X10392286Y82731429D01*
X10876095Y82489524D02*
X9860095Y82489524D01*
X9860095Y82489524D02*
X9860095Y82876572D01*
X9860095Y82876572D02*
X9908476Y82973334D01*
X9908476Y82973334D02*
X9956857Y83021715D01*
X9956857Y83021715D02*
X10053619Y83070096D01*
X10053619Y83070096D02*
X10198762Y83070096D01*
X10198762Y83070096D02*
X10295524Y83021715D01*
X10295524Y83021715D02*
X10343905Y82973334D01*
X10343905Y82973334D02*
X10392286Y82876572D01*
X10392286Y82876572D02*
X10392286Y82489524D01*
D11*
X24676680Y19815820D02*
X24749252Y19743248D01*
X24749252Y19743248D02*
X24821823Y19525534D01*
X24821823Y19525534D02*
X24821823Y19380391D01*
X24821823Y19380391D02*
X24749252Y19162677D01*
X24749252Y19162677D02*
X24604109Y19017534D01*
X24604109Y19017534D02*
X24458966Y18944963D01*
X24458966Y18944963D02*
X24168680Y18872391D01*
X24168680Y18872391D02*
X23950966Y18872391D01*
X23950966Y18872391D02*
X23660680Y18944963D01*
X23660680Y18944963D02*
X23515537Y19017534D01*
X23515537Y19017534D02*
X23370394Y19162677D01*
X23370394Y19162677D02*
X23297823Y19380391D01*
X23297823Y19380391D02*
X23297823Y19525534D01*
X23297823Y19525534D02*
X23370394Y19743248D01*
X23370394Y19743248D02*
X23442966Y19815820D01*
X24821823Y21267248D02*
X24821823Y20396391D01*
X24821823Y20831820D02*
X23297823Y20831820D01*
X23297823Y20831820D02*
X23515537Y20686677D01*
X23515537Y20686677D02*
X23660680Y20541534D01*
X23660680Y20541534D02*
X23733252Y20396391D01*
X9655819Y43903320D02*
X9583247Y43830748D01*
X9583247Y43830748D02*
X9365533Y43758177D01*
X9365533Y43758177D02*
X9220390Y43758177D01*
X9220390Y43758177D02*
X9002676Y43830748D01*
X9002676Y43830748D02*
X8857533Y43975891D01*
X8857533Y43975891D02*
X8784962Y44121034D01*
X8784962Y44121034D02*
X8712390Y44411320D01*
X8712390Y44411320D02*
X8712390Y44629034D01*
X8712390Y44629034D02*
X8784962Y44919320D01*
X8784962Y44919320D02*
X8857533Y45064463D01*
X8857533Y45064463D02*
X9002676Y45209606D01*
X9002676Y45209606D02*
X9220390Y45282177D01*
X9220390Y45282177D02*
X9365533Y45282177D01*
X9365533Y45282177D02*
X9583247Y45209606D01*
X9583247Y45209606D02*
X9655819Y45137034D01*
X11034676Y45282177D02*
X10308962Y45282177D01*
X10308962Y45282177D02*
X10236390Y44556463D01*
X10236390Y44556463D02*
X10308962Y44629034D01*
X10308962Y44629034D02*
X10454105Y44701606D01*
X10454105Y44701606D02*
X10816962Y44701606D01*
X10816962Y44701606D02*
X10962105Y44629034D01*
X10962105Y44629034D02*
X11034676Y44556463D01*
X11034676Y44556463D02*
X11107247Y44411320D01*
X11107247Y44411320D02*
X11107247Y44048463D01*
X11107247Y44048463D02*
X11034676Y43903320D01*
X11034676Y43903320D02*
X10962105Y43830748D01*
X10962105Y43830748D02*
X10816962Y43758177D01*
X10816962Y43758177D02*
X10454105Y43758177D01*
X10454105Y43758177D02*
X10308962Y43830748D01*
X10308962Y43830748D02*
X10236390Y43903320D01*
X38894466Y27429606D02*
X38749324Y27502177D01*
X38749324Y27502177D02*
X38531609Y27502177D01*
X38531609Y27502177D02*
X38313895Y27429606D01*
X38313895Y27429606D02*
X38168752Y27284463D01*
X38168752Y27284463D02*
X38096181Y27139320D01*
X38096181Y27139320D02*
X38023609Y26849034D01*
X38023609Y26849034D02*
X38023609Y26631320D01*
X38023609Y26631320D02*
X38096181Y26341034D01*
X38096181Y26341034D02*
X38168752Y26195891D01*
X38168752Y26195891D02*
X38313895Y26050748D01*
X38313895Y26050748D02*
X38531609Y25978177D01*
X38531609Y25978177D02*
X38676752Y25978177D01*
X38676752Y25978177D02*
X38894466Y26050748D01*
X38894466Y26050748D02*
X38967038Y26123320D01*
X38967038Y26123320D02*
X38967038Y26631320D01*
X38967038Y26631320D02*
X38676752Y26631320D01*
X39620181Y25978177D02*
X39620181Y27502177D01*
X39620181Y27502177D02*
X40491038Y25978177D01*
X40491038Y25978177D02*
X40491038Y27502177D01*
X41216752Y25978177D02*
X41216752Y27502177D01*
X41216752Y27502177D02*
X41579609Y27502177D01*
X41579609Y27502177D02*
X41797323Y27429606D01*
X41797323Y27429606D02*
X41942466Y27284463D01*
X41942466Y27284463D02*
X42015037Y27139320D01*
X42015037Y27139320D02*
X42087609Y26849034D01*
X42087609Y26849034D02*
X42087609Y26631320D01*
X42087609Y26631320D02*
X42015037Y26341034D01*
X42015037Y26341034D02*
X41942466Y26195891D01*
X41942466Y26195891D02*
X41797323Y26050748D01*
X41797323Y26050748D02*
X41579609Y25978177D01*
X41579609Y25978177D02*
X41216752Y25978177D01*
X13863537Y65491895D02*
X13936109Y65709609D01*
X13936109Y65709609D02*
X14008680Y65782180D01*
X14008680Y65782180D02*
X14153823Y65854752D01*
X14153823Y65854752D02*
X14371537Y65854752D01*
X14371537Y65854752D02*
X14516680Y65782180D01*
X14516680Y65782180D02*
X14589252Y65709609D01*
X14589252Y65709609D02*
X14661823Y65564466D01*
X14661823Y65564466D02*
X14661823Y64983895D01*
X14661823Y64983895D02*
X13137823Y64983895D01*
X13137823Y64983895D02*
X13137823Y65491895D01*
X13137823Y65491895D02*
X13210394Y65637037D01*
X13210394Y65637037D02*
X13282966Y65709609D01*
X13282966Y65709609D02*
X13428109Y65782180D01*
X13428109Y65782180D02*
X13573252Y65782180D01*
X13573252Y65782180D02*
X13718394Y65709609D01*
X13718394Y65709609D02*
X13790966Y65637037D01*
X13790966Y65637037D02*
X13863537Y65491895D01*
X13863537Y65491895D02*
X13863537Y64983895D01*
X14661823Y67306180D02*
X14661823Y66435323D01*
X14661823Y66870752D02*
X13137823Y66870752D01*
X13137823Y66870752D02*
X13355537Y66725609D01*
X13355537Y66725609D02*
X13500680Y66580466D01*
X13500680Y66580466D02*
X13573252Y66435323D01*
X13137823Y68685038D02*
X13137823Y67959324D01*
X13137823Y67959324D02*
X13863537Y67886752D01*
X13863537Y67886752D02*
X13790966Y67959324D01*
X13790966Y67959324D02*
X13718394Y68104466D01*
X13718394Y68104466D02*
X13718394Y68467324D01*
X13718394Y68467324D02*
X13790966Y68612466D01*
X13790966Y68612466D02*
X13863537Y68685038D01*
X13863537Y68685038D02*
X14008680Y68757609D01*
X14008680Y68757609D02*
X14371537Y68757609D01*
X14371537Y68757609D02*
X14516680Y68685038D01*
X14516680Y68685038D02*
X14589252Y68612466D01*
X14589252Y68612466D02*
X14661823Y68467324D01*
X14661823Y68467324D02*
X14661823Y68104466D01*
X14661823Y68104466D02*
X14589252Y67959324D01*
X14589252Y67959324D02*
X14516680Y67886752D01*
X10631715Y10901463D02*
X10849429Y10828891D01*
X10849429Y10828891D02*
X10922000Y10756320D01*
X10922000Y10756320D02*
X10994572Y10611177D01*
X10994572Y10611177D02*
X10994572Y10393463D01*
X10994572Y10393463D02*
X10922000Y10248320D01*
X10922000Y10248320D02*
X10849429Y10175748D01*
X10849429Y10175748D02*
X10704286Y10103177D01*
X10704286Y10103177D02*
X10123715Y10103177D01*
X10123715Y10103177D02*
X10123715Y11627177D01*
X10123715Y11627177D02*
X10631715Y11627177D01*
X10631715Y11627177D02*
X10776858Y11554606D01*
X10776858Y11554606D02*
X10849429Y11482034D01*
X10849429Y11482034D02*
X10922000Y11336891D01*
X10922000Y11336891D02*
X10922000Y11191748D01*
X10922000Y11191748D02*
X10849429Y11046606D01*
X10849429Y11046606D02*
X10776858Y10974034D01*
X10776858Y10974034D02*
X10631715Y10901463D01*
X10631715Y10901463D02*
X10123715Y10901463D01*
X11938000Y11627177D02*
X12228286Y11627177D01*
X12228286Y11627177D02*
X12373429Y11554606D01*
X12373429Y11554606D02*
X12518572Y11409463D01*
X12518572Y11409463D02*
X12591143Y11119177D01*
X12591143Y11119177D02*
X12591143Y10611177D01*
X12591143Y10611177D02*
X12518572Y10320891D01*
X12518572Y10320891D02*
X12373429Y10175748D01*
X12373429Y10175748D02*
X12228286Y10103177D01*
X12228286Y10103177D02*
X11938000Y10103177D01*
X11938000Y10103177D02*
X11792858Y10175748D01*
X11792858Y10175748D02*
X11647715Y10320891D01*
X11647715Y10320891D02*
X11575143Y10611177D01*
X11575143Y10611177D02*
X11575143Y11119177D01*
X11575143Y11119177D02*
X11647715Y11409463D01*
X11647715Y11409463D02*
X11792858Y11554606D01*
X11792858Y11554606D02*
X11938000Y11627177D01*
X13534571Y11627177D02*
X13824857Y11627177D01*
X13824857Y11627177D02*
X13970000Y11554606D01*
X13970000Y11554606D02*
X14115143Y11409463D01*
X14115143Y11409463D02*
X14187714Y11119177D01*
X14187714Y11119177D02*
X14187714Y10611177D01*
X14187714Y10611177D02*
X14115143Y10320891D01*
X14115143Y10320891D02*
X13970000Y10175748D01*
X13970000Y10175748D02*
X13824857Y10103177D01*
X13824857Y10103177D02*
X13534571Y10103177D01*
X13534571Y10103177D02*
X13389429Y10175748D01*
X13389429Y10175748D02*
X13244286Y10320891D01*
X13244286Y10320891D02*
X13171714Y10611177D01*
X13171714Y10611177D02*
X13171714Y11119177D01*
X13171714Y11119177D02*
X13244286Y11409463D01*
X13244286Y11409463D02*
X13389429Y11554606D01*
X13389429Y11554606D02*
X13534571Y11627177D01*
X14623142Y11627177D02*
X15494000Y11627177D01*
X15058571Y10103177D02*
X15058571Y11627177D01*
X40273323Y44556463D02*
X40491037Y44483891D01*
X40491037Y44483891D02*
X40563608Y44411320D01*
X40563608Y44411320D02*
X40636180Y44266177D01*
X40636180Y44266177D02*
X40636180Y44048463D01*
X40636180Y44048463D02*
X40563608Y43903320D01*
X40563608Y43903320D02*
X40491037Y43830748D01*
X40491037Y43830748D02*
X40345894Y43758177D01*
X40345894Y43758177D02*
X39765323Y43758177D01*
X39765323Y43758177D02*
X39765323Y45282177D01*
X39765323Y45282177D02*
X40273323Y45282177D01*
X40273323Y45282177D02*
X40418466Y45209606D01*
X40418466Y45209606D02*
X40491037Y45137034D01*
X40491037Y45137034D02*
X40563608Y44991891D01*
X40563608Y44991891D02*
X40563608Y44846748D01*
X40563608Y44846748D02*
X40491037Y44701606D01*
X40491037Y44701606D02*
X40418466Y44629034D01*
X40418466Y44629034D02*
X40273323Y44556463D01*
X40273323Y44556463D02*
X39765323Y44556463D01*
X41942466Y44774177D02*
X41942466Y43758177D01*
X41579608Y45354748D02*
X41216751Y44266177D01*
X41216751Y44266177D02*
X42160180Y44266177D01*
X34981823Y76094963D02*
X33457823Y76094963D01*
X33457823Y76094963D02*
X33457823Y76457820D01*
X33457823Y76457820D02*
X33530394Y76675534D01*
X33530394Y76675534D02*
X33675537Y76820677D01*
X33675537Y76820677D02*
X33820680Y76893248D01*
X33820680Y76893248D02*
X34110966Y76965820D01*
X34110966Y76965820D02*
X34328680Y76965820D01*
X34328680Y76965820D02*
X34618966Y76893248D01*
X34618966Y76893248D02*
X34764109Y76820677D01*
X34764109Y76820677D02*
X34909252Y76675534D01*
X34909252Y76675534D02*
X34981823Y76457820D01*
X34981823Y76457820D02*
X34981823Y76094963D01*
X34981823Y77618963D02*
X33457823Y77618963D01*
X33457823Y77618963D02*
X34546394Y78126963D01*
X34546394Y78126963D02*
X33457823Y78634963D01*
X33457823Y78634963D02*
X34981823Y78634963D01*
X42456680Y19815820D02*
X42529252Y19743248D01*
X42529252Y19743248D02*
X42601823Y19525534D01*
X42601823Y19525534D02*
X42601823Y19380391D01*
X42601823Y19380391D02*
X42529252Y19162677D01*
X42529252Y19162677D02*
X42384109Y19017534D01*
X42384109Y19017534D02*
X42238966Y18944963D01*
X42238966Y18944963D02*
X41948680Y18872391D01*
X41948680Y18872391D02*
X41730966Y18872391D01*
X41730966Y18872391D02*
X41440680Y18944963D01*
X41440680Y18944963D02*
X41295537Y19017534D01*
X41295537Y19017534D02*
X41150394Y19162677D01*
X41150394Y19162677D02*
X41077823Y19380391D01*
X41077823Y19380391D02*
X41077823Y19525534D01*
X41077823Y19525534D02*
X41150394Y19743248D01*
X41150394Y19743248D02*
X41222966Y19815820D01*
X42601823Y21267248D02*
X42601823Y20396391D01*
X42601823Y20831820D02*
X41077823Y20831820D01*
X41077823Y20831820D02*
X41295537Y20686677D01*
X41295537Y20686677D02*
X41440680Y20541534D01*
X41440680Y20541534D02*
X41513252Y20396391D01*
X41077823Y21775249D02*
X41077823Y22718677D01*
X41077823Y22718677D02*
X41658394Y22210677D01*
X41658394Y22210677D02*
X41658394Y22428392D01*
X41658394Y22428392D02*
X41730966Y22573534D01*
X41730966Y22573534D02*
X41803537Y22646106D01*
X41803537Y22646106D02*
X41948680Y22718677D01*
X41948680Y22718677D02*
X42311537Y22718677D01*
X42311537Y22718677D02*
X42456680Y22646106D01*
X42456680Y22646106D02*
X42529252Y22573534D01*
X42529252Y22573534D02*
X42601823Y22428392D01*
X42601823Y22428392D02*
X42601823Y21992963D01*
X42601823Y21992963D02*
X42529252Y21847820D01*
X42529252Y21847820D02*
X42456680Y21775249D01*
D13*
X12263613Y88029390D02*
X12481328Y87956819D01*
X12481328Y87956819D02*
X12844185Y87956819D01*
X12844185Y87956819D02*
X12989328Y88029390D01*
X12989328Y88029390D02*
X13061899Y88101962D01*
X13061899Y88101962D02*
X13134470Y88247105D01*
X13134470Y88247105D02*
X13134470Y88392248D01*
X13134470Y88392248D02*
X13061899Y88537390D01*
X13061899Y88537390D02*
X12989328Y88609962D01*
X12989328Y88609962D02*
X12844185Y88682533D01*
X12844185Y88682533D02*
X12553899Y88755105D01*
X12553899Y88755105D02*
X12408756Y88827676D01*
X12408756Y88827676D02*
X12336185Y88900248D01*
X12336185Y88900248D02*
X12263613Y89045390D01*
X12263613Y89045390D02*
X12263613Y89190533D01*
X12263613Y89190533D02*
X12336185Y89335676D01*
X12336185Y89335676D02*
X12408756Y89408248D01*
X12408756Y89408248D02*
X12553899Y89480819D01*
X12553899Y89480819D02*
X12916756Y89480819D01*
X12916756Y89480819D02*
X13134470Y89408248D01*
X13569899Y89480819D02*
X14440757Y89480819D01*
X14005328Y87956819D02*
X14005328Y89480819D01*
X14948757Y87956819D02*
X14948757Y89480819D01*
X14948757Y89480819D02*
X15456757Y88392248D01*
X15456757Y88392248D02*
X15964757Y89480819D01*
X15964757Y89480819D02*
X15964757Y87956819D01*
X16545328Y89480819D02*
X17488756Y89480819D01*
X17488756Y89480819D02*
X16980756Y88900248D01*
X16980756Y88900248D02*
X17198471Y88900248D01*
X17198471Y88900248D02*
X17343614Y88827676D01*
X17343614Y88827676D02*
X17416185Y88755105D01*
X17416185Y88755105D02*
X17488756Y88609962D01*
X17488756Y88609962D02*
X17488756Y88247105D01*
X17488756Y88247105D02*
X17416185Y88101962D01*
X17416185Y88101962D02*
X17343614Y88029390D01*
X17343614Y88029390D02*
X17198471Y87956819D01*
X17198471Y87956819D02*
X16763042Y87956819D01*
X16763042Y87956819D02*
X16617899Y88029390D01*
X16617899Y88029390D02*
X16545328Y88101962D01*
X18069328Y89335676D02*
X18141900Y89408248D01*
X18141900Y89408248D02*
X18287043Y89480819D01*
X18287043Y89480819D02*
X18649900Y89480819D01*
X18649900Y89480819D02*
X18795043Y89408248D01*
X18795043Y89408248D02*
X18867614Y89335676D01*
X18867614Y89335676D02*
X18940185Y89190533D01*
X18940185Y89190533D02*
X18940185Y89045390D01*
X18940185Y89045390D02*
X18867614Y88827676D01*
X18867614Y88827676D02*
X17996757Y87956819D01*
X17996757Y87956819D02*
X18940185Y87956819D01*
X20536757Y89480819D02*
X21407615Y89480819D01*
X20972186Y87956819D02*
X20972186Y89480819D01*
X22931615Y87811676D02*
X22786472Y87884248D01*
X22786472Y87884248D02*
X22641329Y88029390D01*
X22641329Y88029390D02*
X22423615Y88247105D01*
X22423615Y88247105D02*
X22278472Y88319676D01*
X22278472Y88319676D02*
X22133329Y88319676D01*
X22205900Y87956819D02*
X22060758Y88029390D01*
X22060758Y88029390D02*
X21915615Y88174533D01*
X21915615Y88174533D02*
X21843043Y88464819D01*
X21843043Y88464819D02*
X21843043Y88972819D01*
X21843043Y88972819D02*
X21915615Y89263105D01*
X21915615Y89263105D02*
X22060758Y89408248D01*
X22060758Y89408248D02*
X22205900Y89480819D01*
X22205900Y89480819D02*
X22496186Y89480819D01*
X22496186Y89480819D02*
X22641329Y89408248D01*
X22641329Y89408248D02*
X22786472Y89263105D01*
X22786472Y89263105D02*
X22859043Y88972819D01*
X22859043Y88972819D02*
X22859043Y88464819D01*
X22859043Y88464819D02*
X22786472Y88174533D01*
X22786472Y88174533D02*
X22641329Y88029390D01*
X22641329Y88029390D02*
X22496186Y87956819D01*
X22496186Y87956819D02*
X22205900Y87956819D01*
X24165329Y89480819D02*
X23875043Y89480819D01*
X23875043Y89480819D02*
X23729900Y89408248D01*
X23729900Y89408248D02*
X23657329Y89335676D01*
X23657329Y89335676D02*
X23512186Y89117962D01*
X23512186Y89117962D02*
X23439614Y88827676D01*
X23439614Y88827676D02*
X23439614Y88247105D01*
X23439614Y88247105D02*
X23512186Y88101962D01*
X23512186Y88101962D02*
X23584757Y88029390D01*
X23584757Y88029390D02*
X23729900Y87956819D01*
X23729900Y87956819D02*
X24020186Y87956819D01*
X24020186Y87956819D02*
X24165329Y88029390D01*
X24165329Y88029390D02*
X24237900Y88101962D01*
X24237900Y88101962D02*
X24310471Y88247105D01*
X24310471Y88247105D02*
X24310471Y88609962D01*
X24310471Y88609962D02*
X24237900Y88755105D01*
X24237900Y88755105D02*
X24165329Y88827676D01*
X24165329Y88827676D02*
X24020186Y88900248D01*
X24020186Y88900248D02*
X23729900Y88900248D01*
X23729900Y88900248D02*
X23584757Y88827676D01*
X23584757Y88827676D02*
X23512186Y88755105D01*
X23512186Y88755105D02*
X23439614Y88609962D01*
X25616758Y88972819D02*
X25616758Y87956819D01*
X25253900Y89553390D02*
X24891043Y88464819D01*
X24891043Y88464819D02*
X25834472Y88464819D01*
X27866472Y89480819D02*
X28011615Y89480819D01*
X28011615Y89480819D02*
X28156758Y89408248D01*
X28156758Y89408248D02*
X28229330Y89335676D01*
X28229330Y89335676D02*
X28301901Y89190533D01*
X28301901Y89190533D02*
X28374472Y88900248D01*
X28374472Y88900248D02*
X28374472Y88537390D01*
X28374472Y88537390D02*
X28301901Y88247105D01*
X28301901Y88247105D02*
X28229330Y88101962D01*
X28229330Y88101962D02*
X28156758Y88029390D01*
X28156758Y88029390D02*
X28011615Y87956819D01*
X28011615Y87956819D02*
X27866472Y87956819D01*
X27866472Y87956819D02*
X27721330Y88029390D01*
X27721330Y88029390D02*
X27648758Y88101962D01*
X27648758Y88101962D02*
X27576187Y88247105D01*
X27576187Y88247105D02*
X27503615Y88537390D01*
X27503615Y88537390D02*
X27503615Y88900248D01*
X27503615Y88900248D02*
X27576187Y89190533D01*
X27576187Y89190533D02*
X27648758Y89335676D01*
X27648758Y89335676D02*
X27721330Y89408248D01*
X27721330Y89408248D02*
X27866472Y89480819D01*
X29825901Y87956819D02*
X28955044Y87956819D01*
X29390473Y87956819D02*
X29390473Y89480819D01*
X29390473Y89480819D02*
X29245330Y89263105D01*
X29245330Y89263105D02*
X29100187Y89117962D01*
X29100187Y89117962D02*
X28955044Y89045390D01*
X30406473Y88392248D02*
X31132188Y88392248D01*
X30261330Y87956819D02*
X30769330Y89480819D01*
X30769330Y89480819D02*
X31277330Y87956819D01*
D11*
X39184751Y54063320D02*
X39112179Y53990748D01*
X39112179Y53990748D02*
X38894465Y53918177D01*
X38894465Y53918177D02*
X38749322Y53918177D01*
X38749322Y53918177D02*
X38531608Y53990748D01*
X38531608Y53990748D02*
X38386465Y54135891D01*
X38386465Y54135891D02*
X38313894Y54281034D01*
X38313894Y54281034D02*
X38241322Y54571320D01*
X38241322Y54571320D02*
X38241322Y54789034D01*
X38241322Y54789034D02*
X38313894Y55079320D01*
X38313894Y55079320D02*
X38386465Y55224463D01*
X38386465Y55224463D02*
X38531608Y55369606D01*
X38531608Y55369606D02*
X38749322Y55442177D01*
X38749322Y55442177D02*
X38894465Y55442177D01*
X38894465Y55442177D02*
X39112179Y55369606D01*
X39112179Y55369606D02*
X39184751Y55297034D01*
X40636179Y53918177D02*
X39765322Y53918177D01*
X40200751Y53918177D02*
X40200751Y55442177D01*
X40200751Y55442177D02*
X40055608Y55224463D01*
X40055608Y55224463D02*
X39910465Y55079320D01*
X39910465Y55079320D02*
X39765322Y55006748D01*
X42087608Y53918177D02*
X41216751Y53918177D01*
X41652180Y53918177D02*
X41652180Y55442177D01*
X41652180Y55442177D02*
X41507037Y55224463D01*
X41507037Y55224463D02*
X41361894Y55079320D01*
X41361894Y55079320D02*
X41216751Y55006748D01*
X34104752Y89351177D02*
X34104752Y88117463D01*
X34104752Y88117463D02*
X34177323Y87972320D01*
X34177323Y87972320D02*
X34249895Y87899748D01*
X34249895Y87899748D02*
X34395037Y87827177D01*
X34395037Y87827177D02*
X34685323Y87827177D01*
X34685323Y87827177D02*
X34830466Y87899748D01*
X34830466Y87899748D02*
X34903037Y87972320D01*
X34903037Y87972320D02*
X34975609Y88117463D01*
X34975609Y88117463D02*
X34975609Y89351177D01*
X35628751Y87899748D02*
X35846466Y87827177D01*
X35846466Y87827177D02*
X36209323Y87827177D01*
X36209323Y87827177D02*
X36354466Y87899748D01*
X36354466Y87899748D02*
X36427037Y87972320D01*
X36427037Y87972320D02*
X36499608Y88117463D01*
X36499608Y88117463D02*
X36499608Y88262606D01*
X36499608Y88262606D02*
X36427037Y88407748D01*
X36427037Y88407748D02*
X36354466Y88480320D01*
X36354466Y88480320D02*
X36209323Y88552891D01*
X36209323Y88552891D02*
X35919037Y88625463D01*
X35919037Y88625463D02*
X35773894Y88698034D01*
X35773894Y88698034D02*
X35701323Y88770606D01*
X35701323Y88770606D02*
X35628751Y88915748D01*
X35628751Y88915748D02*
X35628751Y89060891D01*
X35628751Y89060891D02*
X35701323Y89206034D01*
X35701323Y89206034D02*
X35773894Y89278606D01*
X35773894Y89278606D02*
X35919037Y89351177D01*
X35919037Y89351177D02*
X36281894Y89351177D01*
X36281894Y89351177D02*
X36499608Y89278606D01*
X37660752Y88625463D02*
X37878466Y88552891D01*
X37878466Y88552891D02*
X37951037Y88480320D01*
X37951037Y88480320D02*
X38023609Y88335177D01*
X38023609Y88335177D02*
X38023609Y88117463D01*
X38023609Y88117463D02*
X37951037Y87972320D01*
X37951037Y87972320D02*
X37878466Y87899748D01*
X37878466Y87899748D02*
X37733323Y87827177D01*
X37733323Y87827177D02*
X37152752Y87827177D01*
X37152752Y87827177D02*
X37152752Y89351177D01*
X37152752Y89351177D02*
X37660752Y89351177D01*
X37660752Y89351177D02*
X37805895Y89278606D01*
X37805895Y89278606D02*
X37878466Y89206034D01*
X37878466Y89206034D02*
X37951037Y89060891D01*
X37951037Y89060891D02*
X37951037Y88915748D01*
X37951037Y88915748D02*
X37878466Y88770606D01*
X37878466Y88770606D02*
X37805895Y88698034D01*
X37805895Y88698034D02*
X37660752Y88625463D01*
X37660752Y88625463D02*
X37152752Y88625463D01*
X9583247Y60449606D02*
X9438105Y60522177D01*
X9438105Y60522177D02*
X9220390Y60522177D01*
X9220390Y60522177D02*
X9002676Y60449606D01*
X9002676Y60449606D02*
X8857533Y60304463D01*
X8857533Y60304463D02*
X8784962Y60159320D01*
X8784962Y60159320D02*
X8712390Y59869034D01*
X8712390Y59869034D02*
X8712390Y59651320D01*
X8712390Y59651320D02*
X8784962Y59361034D01*
X8784962Y59361034D02*
X8857533Y59215891D01*
X8857533Y59215891D02*
X9002676Y59070748D01*
X9002676Y59070748D02*
X9220390Y58998177D01*
X9220390Y58998177D02*
X9365533Y58998177D01*
X9365533Y58998177D02*
X9583247Y59070748D01*
X9583247Y59070748D02*
X9655819Y59143320D01*
X9655819Y59143320D02*
X9655819Y59651320D01*
X9655819Y59651320D02*
X9365533Y59651320D01*
X10308962Y58998177D02*
X10308962Y60522177D01*
X10308962Y60522177D02*
X11179819Y58998177D01*
X11179819Y58998177D02*
X11179819Y60522177D01*
X11905533Y58998177D02*
X11905533Y60522177D01*
X11905533Y60522177D02*
X12268390Y60522177D01*
X12268390Y60522177D02*
X12486104Y60449606D01*
X12486104Y60449606D02*
X12631247Y60304463D01*
X12631247Y60304463D02*
X12703818Y60159320D01*
X12703818Y60159320D02*
X12776390Y59869034D01*
X12776390Y59869034D02*
X12776390Y59651320D01*
X12776390Y59651320D02*
X12703818Y59361034D01*
X12703818Y59361034D02*
X12631247Y59215891D01*
X12631247Y59215891D02*
X12486104Y59070748D01*
X12486104Y59070748D02*
X12268390Y58998177D01*
X12268390Y58998177D02*
X11905533Y58998177D01*
X37521823Y76094963D02*
X35997823Y76094963D01*
X35997823Y76094963D02*
X35997823Y76457820D01*
X35997823Y76457820D02*
X36070394Y76675534D01*
X36070394Y76675534D02*
X36215537Y76820677D01*
X36215537Y76820677D02*
X36360680Y76893248D01*
X36360680Y76893248D02*
X36650966Y76965820D01*
X36650966Y76965820D02*
X36868680Y76965820D01*
X36868680Y76965820D02*
X37158966Y76893248D01*
X37158966Y76893248D02*
X37304109Y76820677D01*
X37304109Y76820677D02*
X37449252Y76675534D01*
X37449252Y76675534D02*
X37521823Y76457820D01*
X37521823Y76457820D02*
X37521823Y76094963D01*
X37521823Y77618963D02*
X35997823Y77618963D01*
X35997823Y77618963D02*
X35997823Y78199534D01*
X35997823Y78199534D02*
X36070394Y78344677D01*
X36070394Y78344677D02*
X36142966Y78417248D01*
X36142966Y78417248D02*
X36288109Y78489820D01*
X36288109Y78489820D02*
X36505823Y78489820D01*
X36505823Y78489820D02*
X36650966Y78417248D01*
X36650966Y78417248D02*
X36723537Y78344677D01*
X36723537Y78344677D02*
X36796109Y78199534D01*
X36796109Y78199534D02*
X36796109Y77618963D01*
X11323537Y65491895D02*
X11396109Y65709609D01*
X11396109Y65709609D02*
X11468680Y65782180D01*
X11468680Y65782180D02*
X11613823Y65854752D01*
X11613823Y65854752D02*
X11831537Y65854752D01*
X11831537Y65854752D02*
X11976680Y65782180D01*
X11976680Y65782180D02*
X12049252Y65709609D01*
X12049252Y65709609D02*
X12121823Y65564466D01*
X12121823Y65564466D02*
X12121823Y64983895D01*
X12121823Y64983895D02*
X10597823Y64983895D01*
X10597823Y64983895D02*
X10597823Y65491895D01*
X10597823Y65491895D02*
X10670394Y65637037D01*
X10670394Y65637037D02*
X10742966Y65709609D01*
X10742966Y65709609D02*
X10888109Y65782180D01*
X10888109Y65782180D02*
X11033252Y65782180D01*
X11033252Y65782180D02*
X11178394Y65709609D01*
X11178394Y65709609D02*
X11250966Y65637037D01*
X11250966Y65637037D02*
X11323537Y65491895D01*
X11323537Y65491895D02*
X11323537Y64983895D01*
X12121823Y67306180D02*
X12121823Y66435323D01*
X12121823Y66870752D02*
X10597823Y66870752D01*
X10597823Y66870752D02*
X10815537Y66725609D01*
X10815537Y66725609D02*
X10960680Y66580466D01*
X10960680Y66580466D02*
X11033252Y66435323D01*
X11105823Y68612466D02*
X12121823Y68612466D01*
X10525252Y68249609D02*
X11613823Y67886752D01*
X11613823Y67886752D02*
X11613823Y68830181D01*
X8712390Y23873606D02*
X9438105Y23873606D01*
X8567247Y23438177D02*
X9075247Y24962177D01*
X9075247Y24962177D02*
X9583247Y23438177D01*
X9946105Y24962177D02*
X10889533Y24962177D01*
X10889533Y24962177D02*
X10381533Y24381606D01*
X10381533Y24381606D02*
X10599248Y24381606D01*
X10599248Y24381606D02*
X10744391Y24309034D01*
X10744391Y24309034D02*
X10816962Y24236463D01*
X10816962Y24236463D02*
X10889533Y24091320D01*
X10889533Y24091320D02*
X10889533Y23728463D01*
X10889533Y23728463D02*
X10816962Y23583320D01*
X10816962Y23583320D02*
X10744391Y23510748D01*
X10744391Y23510748D02*
X10599248Y23438177D01*
X10599248Y23438177D02*
X10163819Y23438177D01*
X10163819Y23438177D02*
X10018676Y23510748D01*
X10018676Y23510748D02*
X9946105Y23583320D01*
X29901823Y18944963D02*
X28377823Y18944963D01*
X28377823Y18944963D02*
X29901823Y19815820D01*
X29901823Y19815820D02*
X28377823Y19815820D01*
X29901823Y21412391D02*
X29176109Y20904391D01*
X29901823Y20541534D02*
X28377823Y20541534D01*
X28377823Y20541534D02*
X28377823Y21122105D01*
X28377823Y21122105D02*
X28450394Y21267248D01*
X28450394Y21267248D02*
X28522966Y21339819D01*
X28522966Y21339819D02*
X28668109Y21412391D01*
X28668109Y21412391D02*
X28885823Y21412391D01*
X28885823Y21412391D02*
X29030966Y21339819D01*
X29030966Y21339819D02*
X29103537Y21267248D01*
X29103537Y21267248D02*
X29176109Y21122105D01*
X29176109Y21122105D02*
X29176109Y20541534D01*
X29829252Y21992962D02*
X29901823Y22210676D01*
X29901823Y22210676D02*
X29901823Y22573534D01*
X29901823Y22573534D02*
X29829252Y22718676D01*
X29829252Y22718676D02*
X29756680Y22791248D01*
X29756680Y22791248D02*
X29611537Y22863819D01*
X29611537Y22863819D02*
X29466394Y22863819D01*
X29466394Y22863819D02*
X29321252Y22791248D01*
X29321252Y22791248D02*
X29248680Y22718676D01*
X29248680Y22718676D02*
X29176109Y22573534D01*
X29176109Y22573534D02*
X29103537Y22283248D01*
X29103537Y22283248D02*
X29030966Y22138105D01*
X29030966Y22138105D02*
X28958394Y22065534D01*
X28958394Y22065534D02*
X28813252Y21992962D01*
X28813252Y21992962D02*
X28668109Y21992962D01*
X28668109Y21992962D02*
X28522966Y22065534D01*
X28522966Y22065534D02*
X28450394Y22138105D01*
X28450394Y22138105D02*
X28377823Y22283248D01*
X28377823Y22283248D02*
X28377823Y22646105D01*
X28377823Y22646105D02*
X28450394Y22863819D01*
X28377823Y23299248D02*
X28377823Y24170105D01*
X29901823Y23734677D02*
X28377823Y23734677D01*
X19596680Y19815820D02*
X19669252Y19743248D01*
X19669252Y19743248D02*
X19741823Y19525534D01*
X19741823Y19525534D02*
X19741823Y19380391D01*
X19741823Y19380391D02*
X19669252Y19162677D01*
X19669252Y19162677D02*
X19524109Y19017534D01*
X19524109Y19017534D02*
X19378966Y18944963D01*
X19378966Y18944963D02*
X19088680Y18872391D01*
X19088680Y18872391D02*
X18870966Y18872391D01*
X18870966Y18872391D02*
X18580680Y18944963D01*
X18580680Y18944963D02*
X18435537Y19017534D01*
X18435537Y19017534D02*
X18290394Y19162677D01*
X18290394Y19162677D02*
X18217823Y19380391D01*
X18217823Y19380391D02*
X18217823Y19525534D01*
X18217823Y19525534D02*
X18290394Y19743248D01*
X18290394Y19743248D02*
X18362966Y19815820D01*
X18217823Y20323820D02*
X18217823Y21267248D01*
X18217823Y21267248D02*
X18798394Y20759248D01*
X18798394Y20759248D02*
X18798394Y20976963D01*
X18798394Y20976963D02*
X18870966Y21122105D01*
X18870966Y21122105D02*
X18943537Y21194677D01*
X18943537Y21194677D02*
X19088680Y21267248D01*
X19088680Y21267248D02*
X19451537Y21267248D01*
X19451537Y21267248D02*
X19596680Y21194677D01*
X19596680Y21194677D02*
X19669252Y21122105D01*
X19669252Y21122105D02*
X19741823Y20976963D01*
X19741823Y20976963D02*
X19741823Y20541534D01*
X19741823Y20541534D02*
X19669252Y20396391D01*
X19669252Y20396391D02*
X19596680Y20323820D01*
X40273323Y31856463D02*
X40491037Y31783891D01*
X40491037Y31783891D02*
X40563608Y31711320D01*
X40563608Y31711320D02*
X40636180Y31566177D01*
X40636180Y31566177D02*
X40636180Y31348463D01*
X40636180Y31348463D02*
X40563608Y31203320D01*
X40563608Y31203320D02*
X40491037Y31130748D01*
X40491037Y31130748D02*
X40345894Y31058177D01*
X40345894Y31058177D02*
X39765323Y31058177D01*
X39765323Y31058177D02*
X39765323Y32582177D01*
X39765323Y32582177D02*
X40273323Y32582177D01*
X40273323Y32582177D02*
X40418466Y32509606D01*
X40418466Y32509606D02*
X40491037Y32437034D01*
X40491037Y32437034D02*
X40563608Y32291891D01*
X40563608Y32291891D02*
X40563608Y32146748D01*
X40563608Y32146748D02*
X40491037Y32001606D01*
X40491037Y32001606D02*
X40418466Y31929034D01*
X40418466Y31929034D02*
X40273323Y31856463D01*
X40273323Y31856463D02*
X39765323Y31856463D01*
X41507037Y31929034D02*
X41361894Y32001606D01*
X41361894Y32001606D02*
X41289323Y32074177D01*
X41289323Y32074177D02*
X41216751Y32219320D01*
X41216751Y32219320D02*
X41216751Y32291891D01*
X41216751Y32291891D02*
X41289323Y32437034D01*
X41289323Y32437034D02*
X41361894Y32509606D01*
X41361894Y32509606D02*
X41507037Y32582177D01*
X41507037Y32582177D02*
X41797323Y32582177D01*
X41797323Y32582177D02*
X41942466Y32509606D01*
X41942466Y32509606D02*
X42015037Y32437034D01*
X42015037Y32437034D02*
X42087608Y32291891D01*
X42087608Y32291891D02*
X42087608Y32219320D01*
X42087608Y32219320D02*
X42015037Y32074177D01*
X42015037Y32074177D02*
X41942466Y32001606D01*
X41942466Y32001606D02*
X41797323Y31929034D01*
X41797323Y31929034D02*
X41507037Y31929034D01*
X41507037Y31929034D02*
X41361894Y31856463D01*
X41361894Y31856463D02*
X41289323Y31783891D01*
X41289323Y31783891D02*
X41216751Y31638748D01*
X41216751Y31638748D02*
X41216751Y31348463D01*
X41216751Y31348463D02*
X41289323Y31203320D01*
X41289323Y31203320D02*
X41361894Y31130748D01*
X41361894Y31130748D02*
X41507037Y31058177D01*
X41507037Y31058177D02*
X41797323Y31058177D01*
X41797323Y31058177D02*
X41942466Y31130748D01*
X41942466Y31130748D02*
X42015037Y31203320D01*
X42015037Y31203320D02*
X42087608Y31348463D01*
X42087608Y31348463D02*
X42087608Y31638748D01*
X42087608Y31638748D02*
X42015037Y31783891D01*
X42015037Y31783891D02*
X41942466Y31856463D01*
X41942466Y31856463D02*
X41797323Y31929034D01*
X39989252Y4902391D02*
X40061823Y5120105D01*
X40061823Y5120105D02*
X40061823Y5482963D01*
X40061823Y5482963D02*
X39989252Y5628105D01*
X39989252Y5628105D02*
X39916680Y5700677D01*
X39916680Y5700677D02*
X39771537Y5773248D01*
X39771537Y5773248D02*
X39626394Y5773248D01*
X39626394Y5773248D02*
X39481252Y5700677D01*
X39481252Y5700677D02*
X39408680Y5628105D01*
X39408680Y5628105D02*
X39336109Y5482963D01*
X39336109Y5482963D02*
X39263537Y5192677D01*
X39263537Y5192677D02*
X39190966Y5047534D01*
X39190966Y5047534D02*
X39118394Y4974963D01*
X39118394Y4974963D02*
X38973252Y4902391D01*
X38973252Y4902391D02*
X38828109Y4902391D01*
X38828109Y4902391D02*
X38682966Y4974963D01*
X38682966Y4974963D02*
X38610394Y5047534D01*
X38610394Y5047534D02*
X38537823Y5192677D01*
X38537823Y5192677D02*
X38537823Y5555534D01*
X38537823Y5555534D02*
X38610394Y5773248D01*
X38537823Y6281249D02*
X40061823Y6644106D01*
X40061823Y6644106D02*
X38973252Y6934392D01*
X38973252Y6934392D02*
X40061823Y7224677D01*
X40061823Y7224677D02*
X38537823Y7587534D01*
X38537823Y8458391D02*
X38537823Y8748677D01*
X38537823Y8748677D02*
X38610394Y8893820D01*
X38610394Y8893820D02*
X38755537Y9038963D01*
X38755537Y9038963D02*
X39045823Y9111534D01*
X39045823Y9111534D02*
X39553823Y9111534D01*
X39553823Y9111534D02*
X39844109Y9038963D01*
X39844109Y9038963D02*
X39989252Y8893820D01*
X39989252Y8893820D02*
X40061823Y8748677D01*
X40061823Y8748677D02*
X40061823Y8458391D01*
X40061823Y8458391D02*
X39989252Y8313248D01*
X39989252Y8313248D02*
X39844109Y8168106D01*
X39844109Y8168106D02*
X39553823Y8095534D01*
X39553823Y8095534D02*
X39045823Y8095534D01*
X39045823Y8095534D02*
X38755537Y8168106D01*
X38755537Y8168106D02*
X38610394Y8313248D01*
X38610394Y8313248D02*
X38537823Y8458391D01*
X19596680Y67306181D02*
X19669252Y67233609D01*
X19669252Y67233609D02*
X19741823Y67015895D01*
X19741823Y67015895D02*
X19741823Y66870752D01*
X19741823Y66870752D02*
X19669252Y66653038D01*
X19669252Y66653038D02*
X19524109Y66507895D01*
X19524109Y66507895D02*
X19378966Y66435324D01*
X19378966Y66435324D02*
X19088680Y66362752D01*
X19088680Y66362752D02*
X18870966Y66362752D01*
X18870966Y66362752D02*
X18580680Y66435324D01*
X18580680Y66435324D02*
X18435537Y66507895D01*
X18435537Y66507895D02*
X18290394Y66653038D01*
X18290394Y66653038D02*
X18217823Y66870752D01*
X18217823Y66870752D02*
X18217823Y67015895D01*
X18217823Y67015895D02*
X18290394Y67233609D01*
X18290394Y67233609D02*
X18362966Y67306181D01*
X18217823Y67814181D02*
X18217823Y68830181D01*
X18217823Y68830181D02*
X19741823Y68177038D01*
X11686394Y18872391D02*
X11686394Y19598105D01*
X12121823Y18727248D02*
X10597823Y19235248D01*
X10597823Y19235248D02*
X12121823Y19743248D01*
X10597823Y20541534D02*
X10597823Y20686677D01*
X10597823Y20686677D02*
X10670394Y20831820D01*
X10670394Y20831820D02*
X10742966Y20904391D01*
X10742966Y20904391D02*
X10888109Y20976963D01*
X10888109Y20976963D02*
X11178394Y21049534D01*
X11178394Y21049534D02*
X11541252Y21049534D01*
X11541252Y21049534D02*
X11831537Y20976963D01*
X11831537Y20976963D02*
X11976680Y20904391D01*
X11976680Y20904391D02*
X12049252Y20831820D01*
X12049252Y20831820D02*
X12121823Y20686677D01*
X12121823Y20686677D02*
X12121823Y20541534D01*
X12121823Y20541534D02*
X12049252Y20396391D01*
X12049252Y20396391D02*
X11976680Y20323820D01*
X11976680Y20323820D02*
X11831537Y20251249D01*
X11831537Y20251249D02*
X11541252Y20178677D01*
X11541252Y20178677D02*
X11178394Y20178677D01*
X11178394Y20178677D02*
X10888109Y20251249D01*
X10888109Y20251249D02*
X10742966Y20323820D01*
X10742966Y20323820D02*
X10670394Y20396391D01*
X10670394Y20396391D02*
X10597823Y20541534D01*
X6606394Y18872391D02*
X6606394Y19598105D01*
X7041823Y18727248D02*
X5517823Y19235248D01*
X5517823Y19235248D02*
X7041823Y19743248D01*
X5662966Y20178677D02*
X5590394Y20251249D01*
X5590394Y20251249D02*
X5517823Y20396391D01*
X5517823Y20396391D02*
X5517823Y20759249D01*
X5517823Y20759249D02*
X5590394Y20904391D01*
X5590394Y20904391D02*
X5662966Y20976963D01*
X5662966Y20976963D02*
X5808109Y21049534D01*
X5808109Y21049534D02*
X5953252Y21049534D01*
X5953252Y21049534D02*
X6170966Y20976963D01*
X6170966Y20976963D02*
X7041823Y20106106D01*
X7041823Y20106106D02*
X7041823Y21049534D01*
X32217896Y33598177D02*
X32217896Y35122177D01*
X32217896Y34396463D02*
X33088753Y34396463D01*
X33088753Y33598177D02*
X33088753Y35122177D01*
X33669324Y35122177D02*
X34612752Y35122177D01*
X34612752Y35122177D02*
X34104752Y34541606D01*
X34104752Y34541606D02*
X34322467Y34541606D01*
X34322467Y34541606D02*
X34467610Y34469034D01*
X34467610Y34469034D02*
X34540181Y34396463D01*
X34540181Y34396463D02*
X34612752Y34251320D01*
X34612752Y34251320D02*
X34612752Y33888463D01*
X34612752Y33888463D02*
X34540181Y33743320D01*
X34540181Y33743320D02*
X34467610Y33670748D01*
X34467610Y33670748D02*
X34322467Y33598177D01*
X34322467Y33598177D02*
X33887038Y33598177D01*
X33887038Y33598177D02*
X33741895Y33670748D01*
X33741895Y33670748D02*
X33669324Y33743320D01*
X36354467Y35194748D02*
X35048181Y33235320D01*
X37370467Y34396463D02*
X37588181Y34323891D01*
X37588181Y34323891D02*
X37660752Y34251320D01*
X37660752Y34251320D02*
X37733324Y34106177D01*
X37733324Y34106177D02*
X37733324Y33888463D01*
X37733324Y33888463D02*
X37660752Y33743320D01*
X37660752Y33743320D02*
X37588181Y33670748D01*
X37588181Y33670748D02*
X37443038Y33598177D01*
X37443038Y33598177D02*
X36862467Y33598177D01*
X36862467Y33598177D02*
X36862467Y35122177D01*
X36862467Y35122177D02*
X37370467Y35122177D01*
X37370467Y35122177D02*
X37515610Y35049606D01*
X37515610Y35049606D02*
X37588181Y34977034D01*
X37588181Y34977034D02*
X37660752Y34831891D01*
X37660752Y34831891D02*
X37660752Y34686748D01*
X37660752Y34686748D02*
X37588181Y34541606D01*
X37588181Y34541606D02*
X37515610Y34469034D01*
X37515610Y34469034D02*
X37370467Y34396463D01*
X37370467Y34396463D02*
X36862467Y34396463D01*
X38676752Y35122177D02*
X38967038Y35122177D01*
X38967038Y35122177D02*
X39112181Y35049606D01*
X39112181Y35049606D02*
X39257324Y34904463D01*
X39257324Y34904463D02*
X39329895Y34614177D01*
X39329895Y34614177D02*
X39329895Y34106177D01*
X39329895Y34106177D02*
X39257324Y33815891D01*
X39257324Y33815891D02*
X39112181Y33670748D01*
X39112181Y33670748D02*
X38967038Y33598177D01*
X38967038Y33598177D02*
X38676752Y33598177D01*
X38676752Y33598177D02*
X38531610Y33670748D01*
X38531610Y33670748D02*
X38386467Y33815891D01*
X38386467Y33815891D02*
X38313895Y34106177D01*
X38313895Y34106177D02*
X38313895Y34614177D01*
X38313895Y34614177D02*
X38386467Y34904463D01*
X38386467Y34904463D02*
X38531610Y35049606D01*
X38531610Y35049606D02*
X38676752Y35122177D01*
X40273323Y35122177D02*
X40563609Y35122177D01*
X40563609Y35122177D02*
X40708752Y35049606D01*
X40708752Y35049606D02*
X40853895Y34904463D01*
X40853895Y34904463D02*
X40926466Y34614177D01*
X40926466Y34614177D02*
X40926466Y34106177D01*
X40926466Y34106177D02*
X40853895Y33815891D01*
X40853895Y33815891D02*
X40708752Y33670748D01*
X40708752Y33670748D02*
X40563609Y33598177D01*
X40563609Y33598177D02*
X40273323Y33598177D01*
X40273323Y33598177D02*
X40128181Y33670748D01*
X40128181Y33670748D02*
X39983038Y33815891D01*
X39983038Y33815891D02*
X39910466Y34106177D01*
X39910466Y34106177D02*
X39910466Y34614177D01*
X39910466Y34614177D02*
X39983038Y34904463D01*
X39983038Y34904463D02*
X40128181Y35049606D01*
X40128181Y35049606D02*
X40273323Y35122177D01*
X41361894Y35122177D02*
X42232752Y35122177D01*
X41797323Y33598177D02*
X41797323Y35122177D01*
X8712390Y34033606D02*
X9438105Y34033606D01*
X8567247Y33598177D02*
X9075247Y35122177D01*
X9075247Y35122177D02*
X9583247Y33598177D01*
X10816962Y35122177D02*
X10091248Y35122177D01*
X10091248Y35122177D02*
X10018676Y34396463D01*
X10018676Y34396463D02*
X10091248Y34469034D01*
X10091248Y34469034D02*
X10236391Y34541606D01*
X10236391Y34541606D02*
X10599248Y34541606D01*
X10599248Y34541606D02*
X10744391Y34469034D01*
X10744391Y34469034D02*
X10816962Y34396463D01*
X10816962Y34396463D02*
X10889533Y34251320D01*
X10889533Y34251320D02*
X10889533Y33888463D01*
X10889533Y33888463D02*
X10816962Y33743320D01*
X10816962Y33743320D02*
X10744391Y33670748D01*
X10744391Y33670748D02*
X10599248Y33598177D01*
X10599248Y33598177D02*
X10236391Y33598177D01*
X10236391Y33598177D02*
X10091248Y33670748D01*
X10091248Y33670748D02*
X10018676Y33743320D01*
X8784962Y53918177D02*
X8784962Y55442177D01*
X8784962Y55442177D02*
X9365533Y55442177D01*
X9365533Y55442177D02*
X9510676Y55369606D01*
X9510676Y55369606D02*
X9583247Y55297034D01*
X9583247Y55297034D02*
X9655819Y55151891D01*
X9655819Y55151891D02*
X9655819Y54934177D01*
X9655819Y54934177D02*
X9583247Y54789034D01*
X9583247Y54789034D02*
X9510676Y54716463D01*
X9510676Y54716463D02*
X9365533Y54643891D01*
X9365533Y54643891D02*
X8784962Y54643891D01*
X10816962Y54716463D02*
X11034676Y54643891D01*
X11034676Y54643891D02*
X11107247Y54571320D01*
X11107247Y54571320D02*
X11179819Y54426177D01*
X11179819Y54426177D02*
X11179819Y54208463D01*
X11179819Y54208463D02*
X11107247Y54063320D01*
X11107247Y54063320D02*
X11034676Y53990748D01*
X11034676Y53990748D02*
X10889533Y53918177D01*
X10889533Y53918177D02*
X10308962Y53918177D01*
X10308962Y53918177D02*
X10308962Y55442177D01*
X10308962Y55442177D02*
X10816962Y55442177D01*
X10816962Y55442177D02*
X10962105Y55369606D01*
X10962105Y55369606D02*
X11034676Y55297034D01*
X11034676Y55297034D02*
X11107247Y55151891D01*
X11107247Y55151891D02*
X11107247Y55006748D01*
X11107247Y55006748D02*
X11034676Y54861606D01*
X11034676Y54861606D02*
X10962105Y54789034D01*
X10962105Y54789034D02*
X10816962Y54716463D01*
X10816962Y54716463D02*
X10308962Y54716463D01*
X12631247Y53918177D02*
X11760390Y53918177D01*
X12195819Y53918177D02*
X12195819Y55442177D01*
X12195819Y55442177D02*
X12050676Y55224463D01*
X12050676Y55224463D02*
X11905533Y55079320D01*
X11905533Y55079320D02*
X11760390Y55006748D01*
X13574676Y55442177D02*
X13719819Y55442177D01*
X13719819Y55442177D02*
X13864962Y55369606D01*
X13864962Y55369606D02*
X13937534Y55297034D01*
X13937534Y55297034D02*
X14010105Y55151891D01*
X14010105Y55151891D02*
X14082676Y54861606D01*
X14082676Y54861606D02*
X14082676Y54498748D01*
X14082676Y54498748D02*
X14010105Y54208463D01*
X14010105Y54208463D02*
X13937534Y54063320D01*
X13937534Y54063320D02*
X13864962Y53990748D01*
X13864962Y53990748D02*
X13719819Y53918177D01*
X13719819Y53918177D02*
X13574676Y53918177D01*
X13574676Y53918177D02*
X13429534Y53990748D01*
X13429534Y53990748D02*
X13356962Y54063320D01*
X13356962Y54063320D02*
X13284391Y54208463D01*
X13284391Y54208463D02*
X13211819Y54498748D01*
X13211819Y54498748D02*
X13211819Y54861606D01*
X13211819Y54861606D02*
X13284391Y55151891D01*
X13284391Y55151891D02*
X13356962Y55297034D01*
X13356962Y55297034D02*
X13429534Y55369606D01*
X13429534Y55369606D02*
X13574676Y55442177D01*
X22136680Y67306181D02*
X22209252Y67233609D01*
X22209252Y67233609D02*
X22281823Y67015895D01*
X22281823Y67015895D02*
X22281823Y66870752D01*
X22281823Y66870752D02*
X22209252Y66653038D01*
X22209252Y66653038D02*
X22064109Y66507895D01*
X22064109Y66507895D02*
X21918966Y66435324D01*
X21918966Y66435324D02*
X21628680Y66362752D01*
X21628680Y66362752D02*
X21410966Y66362752D01*
X21410966Y66362752D02*
X21120680Y66435324D01*
X21120680Y66435324D02*
X20975537Y66507895D01*
X20975537Y66507895D02*
X20830394Y66653038D01*
X20830394Y66653038D02*
X20757823Y66870752D01*
X20757823Y66870752D02*
X20757823Y67015895D01*
X20757823Y67015895D02*
X20830394Y67233609D01*
X20830394Y67233609D02*
X20902966Y67306181D01*
X21410966Y68177038D02*
X21338394Y68031895D01*
X21338394Y68031895D02*
X21265823Y67959324D01*
X21265823Y67959324D02*
X21120680Y67886752D01*
X21120680Y67886752D02*
X21048109Y67886752D01*
X21048109Y67886752D02*
X20902966Y67959324D01*
X20902966Y67959324D02*
X20830394Y68031895D01*
X20830394Y68031895D02*
X20757823Y68177038D01*
X20757823Y68177038D02*
X20757823Y68467324D01*
X20757823Y68467324D02*
X20830394Y68612466D01*
X20830394Y68612466D02*
X20902966Y68685038D01*
X20902966Y68685038D02*
X21048109Y68757609D01*
X21048109Y68757609D02*
X21120680Y68757609D01*
X21120680Y68757609D02*
X21265823Y68685038D01*
X21265823Y68685038D02*
X21338394Y68612466D01*
X21338394Y68612466D02*
X21410966Y68467324D01*
X21410966Y68467324D02*
X21410966Y68177038D01*
X21410966Y68177038D02*
X21483537Y68031895D01*
X21483537Y68031895D02*
X21556109Y67959324D01*
X21556109Y67959324D02*
X21701252Y67886752D01*
X21701252Y67886752D02*
X21991537Y67886752D01*
X21991537Y67886752D02*
X22136680Y67959324D01*
X22136680Y67959324D02*
X22209252Y68031895D01*
X22209252Y68031895D02*
X22281823Y68177038D01*
X22281823Y68177038D02*
X22281823Y68467324D01*
X22281823Y68467324D02*
X22209252Y68612466D01*
X22209252Y68612466D02*
X22136680Y68685038D01*
X22136680Y68685038D02*
X21991537Y68757609D01*
X21991537Y68757609D02*
X21701252Y68757609D01*
X21701252Y68757609D02*
X21556109Y68685038D01*
X21556109Y68685038D02*
X21483537Y68612466D01*
X21483537Y68612466D02*
X21410966Y68467324D01*
X40273323Y42016463D02*
X40491037Y41943891D01*
X40491037Y41943891D02*
X40563608Y41871320D01*
X40563608Y41871320D02*
X40636180Y41726177D01*
X40636180Y41726177D02*
X40636180Y41508463D01*
X40636180Y41508463D02*
X40563608Y41363320D01*
X40563608Y41363320D02*
X40491037Y41290748D01*
X40491037Y41290748D02*
X40345894Y41218177D01*
X40345894Y41218177D02*
X39765323Y41218177D01*
X39765323Y41218177D02*
X39765323Y42742177D01*
X39765323Y42742177D02*
X40273323Y42742177D01*
X40273323Y42742177D02*
X40418466Y42669606D01*
X40418466Y42669606D02*
X40491037Y42597034D01*
X40491037Y42597034D02*
X40563608Y42451891D01*
X40563608Y42451891D02*
X40563608Y42306748D01*
X40563608Y42306748D02*
X40491037Y42161606D01*
X40491037Y42161606D02*
X40418466Y42089034D01*
X40418466Y42089034D02*
X40273323Y42016463D01*
X40273323Y42016463D02*
X39765323Y42016463D01*
X42015037Y42742177D02*
X41289323Y42742177D01*
X41289323Y42742177D02*
X41216751Y42016463D01*
X41216751Y42016463D02*
X41289323Y42089034D01*
X41289323Y42089034D02*
X41434466Y42161606D01*
X41434466Y42161606D02*
X41797323Y42161606D01*
X41797323Y42161606D02*
X41942466Y42089034D01*
X41942466Y42089034D02*
X42015037Y42016463D01*
X42015037Y42016463D02*
X42087608Y41871320D01*
X42087608Y41871320D02*
X42087608Y41508463D01*
X42087608Y41508463D02*
X42015037Y41363320D01*
X42015037Y41363320D02*
X41942466Y41290748D01*
X41942466Y41290748D02*
X41797323Y41218177D01*
X41797323Y41218177D02*
X41434466Y41218177D01*
X41434466Y41218177D02*
X41289323Y41290748D01*
X41289323Y41290748D02*
X41216751Y41363320D01*
X28377823Y75877248D02*
X29901823Y76385248D01*
X29901823Y76385248D02*
X28377823Y76893248D01*
X29103537Y77909249D02*
X29176109Y78126963D01*
X29176109Y78126963D02*
X29248680Y78199534D01*
X29248680Y78199534D02*
X29393823Y78272106D01*
X29393823Y78272106D02*
X29611537Y78272106D01*
X29611537Y78272106D02*
X29756680Y78199534D01*
X29756680Y78199534D02*
X29829252Y78126963D01*
X29829252Y78126963D02*
X29901823Y77981820D01*
X29901823Y77981820D02*
X29901823Y77401249D01*
X29901823Y77401249D02*
X28377823Y77401249D01*
X28377823Y77401249D02*
X28377823Y77909249D01*
X28377823Y77909249D02*
X28450394Y78054391D01*
X28450394Y78054391D02*
X28522966Y78126963D01*
X28522966Y78126963D02*
X28668109Y78199534D01*
X28668109Y78199534D02*
X28813252Y78199534D01*
X28813252Y78199534D02*
X28958394Y78126963D01*
X28958394Y78126963D02*
X29030966Y78054391D01*
X29030966Y78054391D02*
X29103537Y77909249D01*
X29103537Y77909249D02*
X29103537Y77401249D01*
X28377823Y78925249D02*
X29611537Y78925249D01*
X29611537Y78925249D02*
X29756680Y78997820D01*
X29756680Y78997820D02*
X29829252Y79070391D01*
X29829252Y79070391D02*
X29901823Y79215534D01*
X29901823Y79215534D02*
X29901823Y79505820D01*
X29901823Y79505820D02*
X29829252Y79650963D01*
X29829252Y79650963D02*
X29756680Y79723534D01*
X29756680Y79723534D02*
X29611537Y79796106D01*
X29611537Y79796106D02*
X28377823Y79796106D01*
X29829252Y80449248D02*
X29901823Y80666962D01*
X29901823Y80666962D02*
X29901823Y81029820D01*
X29901823Y81029820D02*
X29829252Y81174962D01*
X29829252Y81174962D02*
X29756680Y81247534D01*
X29756680Y81247534D02*
X29611537Y81320105D01*
X29611537Y81320105D02*
X29466394Y81320105D01*
X29466394Y81320105D02*
X29321252Y81247534D01*
X29321252Y81247534D02*
X29248680Y81174962D01*
X29248680Y81174962D02*
X29176109Y81029820D01*
X29176109Y81029820D02*
X29103537Y80739534D01*
X29103537Y80739534D02*
X29030966Y80594391D01*
X29030966Y80594391D02*
X28958394Y80521820D01*
X28958394Y80521820D02*
X28813252Y80449248D01*
X28813252Y80449248D02*
X28668109Y80449248D01*
X28668109Y80449248D02*
X28522966Y80521820D01*
X28522966Y80521820D02*
X28450394Y80594391D01*
X28450394Y80594391D02*
X28377823Y80739534D01*
X28377823Y80739534D02*
X28377823Y81102391D01*
X28377823Y81102391D02*
X28450394Y81320105D01*
X34546394Y65129037D02*
X34546394Y65854751D01*
X34981823Y64983894D02*
X33457823Y65491894D01*
X33457823Y65491894D02*
X34981823Y65999894D01*
X34981823Y67306180D02*
X34981823Y66435323D01*
X34981823Y66870752D02*
X33457823Y66870752D01*
X33457823Y66870752D02*
X33675537Y66725609D01*
X33675537Y66725609D02*
X33820680Y66580466D01*
X33820680Y66580466D02*
X33893252Y66435323D01*
X34981823Y68757609D02*
X34981823Y67886752D01*
X34981823Y68322181D02*
X33457823Y68322181D01*
X33457823Y68322181D02*
X33675537Y68177038D01*
X33675537Y68177038D02*
X33820680Y68031895D01*
X33820680Y68031895D02*
X33893252Y67886752D01*
X8567247Y63062177D02*
X9075247Y61538177D01*
X9075247Y61538177D02*
X9583247Y63062177D01*
X10091248Y61538177D02*
X10091248Y63062177D01*
X10091248Y63062177D02*
X10454105Y63062177D01*
X10454105Y63062177D02*
X10671819Y62989606D01*
X10671819Y62989606D02*
X10816962Y62844463D01*
X10816962Y62844463D02*
X10889533Y62699320D01*
X10889533Y62699320D02*
X10962105Y62409034D01*
X10962105Y62409034D02*
X10962105Y62191320D01*
X10962105Y62191320D02*
X10889533Y61901034D01*
X10889533Y61901034D02*
X10816962Y61755891D01*
X10816962Y61755891D02*
X10671819Y61610748D01*
X10671819Y61610748D02*
X10454105Y61538177D01*
X10454105Y61538177D02*
X10091248Y61538177D01*
X11615248Y61538177D02*
X11615248Y63062177D01*
X11615248Y63062177D02*
X11978105Y63062177D01*
X11978105Y63062177D02*
X12195819Y62989606D01*
X12195819Y62989606D02*
X12340962Y62844463D01*
X12340962Y62844463D02*
X12413533Y62699320D01*
X12413533Y62699320D02*
X12486105Y62409034D01*
X12486105Y62409034D02*
X12486105Y62191320D01*
X12486105Y62191320D02*
X12413533Y61901034D01*
X12413533Y61901034D02*
X12340962Y61755891D01*
X12340962Y61755891D02*
X12195819Y61610748D01*
X12195819Y61610748D02*
X11978105Y61538177D01*
X11978105Y61538177D02*
X11615248Y61538177D01*
X8784962Y51378177D02*
X8784962Y52902177D01*
X8784962Y52902177D02*
X9365533Y52902177D01*
X9365533Y52902177D02*
X9510676Y52829606D01*
X9510676Y52829606D02*
X9583247Y52757034D01*
X9583247Y52757034D02*
X9655819Y52611891D01*
X9655819Y52611891D02*
X9655819Y52394177D01*
X9655819Y52394177D02*
X9583247Y52249034D01*
X9583247Y52249034D02*
X9510676Y52176463D01*
X9510676Y52176463D02*
X9365533Y52103891D01*
X9365533Y52103891D02*
X8784962Y52103891D01*
X10816962Y52176463D02*
X11034676Y52103891D01*
X11034676Y52103891D02*
X11107247Y52031320D01*
X11107247Y52031320D02*
X11179819Y51886177D01*
X11179819Y51886177D02*
X11179819Y51668463D01*
X11179819Y51668463D02*
X11107247Y51523320D01*
X11107247Y51523320D02*
X11034676Y51450748D01*
X11034676Y51450748D02*
X10889533Y51378177D01*
X10889533Y51378177D02*
X10308962Y51378177D01*
X10308962Y51378177D02*
X10308962Y52902177D01*
X10308962Y52902177D02*
X10816962Y52902177D01*
X10816962Y52902177D02*
X10962105Y52829606D01*
X10962105Y52829606D02*
X11034676Y52757034D01*
X11034676Y52757034D02*
X11107247Y52611891D01*
X11107247Y52611891D02*
X11107247Y52466748D01*
X11107247Y52466748D02*
X11034676Y52321606D01*
X11034676Y52321606D02*
X10962105Y52249034D01*
X10962105Y52249034D02*
X10816962Y52176463D01*
X10816962Y52176463D02*
X10308962Y52176463D01*
X11760390Y52757034D02*
X11832962Y52829606D01*
X11832962Y52829606D02*
X11978105Y52902177D01*
X11978105Y52902177D02*
X12340962Y52902177D01*
X12340962Y52902177D02*
X12486105Y52829606D01*
X12486105Y52829606D02*
X12558676Y52757034D01*
X12558676Y52757034D02*
X12631247Y52611891D01*
X12631247Y52611891D02*
X12631247Y52466748D01*
X12631247Y52466748D02*
X12558676Y52249034D01*
X12558676Y52249034D02*
X11687819Y51378177D01*
X11687819Y51378177D02*
X12631247Y51378177D01*
X8712390Y31493606D02*
X9438105Y31493606D01*
X8567247Y31058177D02*
X9075247Y32582177D01*
X9075247Y32582177D02*
X9583247Y31058177D01*
X10744391Y32074177D02*
X10744391Y31058177D01*
X10381533Y32654748D02*
X10018676Y31566177D01*
X10018676Y31566177D02*
X10962105Y31566177D01*
X15750394Y19743248D02*
X15677823Y19598105D01*
X15677823Y19598105D02*
X15677823Y19380391D01*
X15677823Y19380391D02*
X15750394Y19162677D01*
X15750394Y19162677D02*
X15895537Y19017534D01*
X15895537Y19017534D02*
X16040680Y18944963D01*
X16040680Y18944963D02*
X16330966Y18872391D01*
X16330966Y18872391D02*
X16548680Y18872391D01*
X16548680Y18872391D02*
X16838966Y18944963D01*
X16838966Y18944963D02*
X16984109Y19017534D01*
X16984109Y19017534D02*
X17129252Y19162677D01*
X17129252Y19162677D02*
X17201823Y19380391D01*
X17201823Y19380391D02*
X17201823Y19525534D01*
X17201823Y19525534D02*
X17129252Y19743248D01*
X17129252Y19743248D02*
X17056680Y19815820D01*
X17056680Y19815820D02*
X16548680Y19815820D01*
X16548680Y19815820D02*
X16548680Y19525534D01*
X17201823Y20468963D02*
X15677823Y20468963D01*
X15677823Y20468963D02*
X17201823Y21339820D01*
X17201823Y21339820D02*
X15677823Y21339820D01*
X17201823Y22065534D02*
X15677823Y22065534D01*
X15677823Y22065534D02*
X15677823Y22428391D01*
X15677823Y22428391D02*
X15750394Y22646105D01*
X15750394Y22646105D02*
X15895537Y22791248D01*
X15895537Y22791248D02*
X16040680Y22863819D01*
X16040680Y22863819D02*
X16330966Y22936391D01*
X16330966Y22936391D02*
X16548680Y22936391D01*
X16548680Y22936391D02*
X16838966Y22863819D01*
X16838966Y22863819D02*
X16984109Y22791248D01*
X16984109Y22791248D02*
X17129252Y22646105D01*
X17129252Y22646105D02*
X17201823Y22428391D01*
X17201823Y22428391D02*
X17201823Y22065534D01*
X39765323Y48838177D02*
X39765323Y50362177D01*
X39765323Y50362177D02*
X40128180Y50362177D01*
X40128180Y50362177D02*
X40345894Y50289606D01*
X40345894Y50289606D02*
X40491037Y50144463D01*
X40491037Y50144463D02*
X40563608Y49999320D01*
X40563608Y49999320D02*
X40636180Y49709034D01*
X40636180Y49709034D02*
X40636180Y49491320D01*
X40636180Y49491320D02*
X40563608Y49201034D01*
X40563608Y49201034D02*
X40491037Y49055891D01*
X40491037Y49055891D02*
X40345894Y48910748D01*
X40345894Y48910748D02*
X40128180Y48838177D01*
X40128180Y48838177D02*
X39765323Y48838177D01*
X41216751Y50217034D02*
X41289323Y50289606D01*
X41289323Y50289606D02*
X41434466Y50362177D01*
X41434466Y50362177D02*
X41797323Y50362177D01*
X41797323Y50362177D02*
X41942466Y50289606D01*
X41942466Y50289606D02*
X42015037Y50217034D01*
X42015037Y50217034D02*
X42087608Y50071891D01*
X42087608Y50071891D02*
X42087608Y49926748D01*
X42087608Y49926748D02*
X42015037Y49709034D01*
X42015037Y49709034D02*
X41144180Y48838177D01*
X41144180Y48838177D02*
X42087608Y48838177D01*
X8567247Y30042177D02*
X9075247Y28518177D01*
X9075247Y28518177D02*
X9583247Y30042177D01*
X10091248Y28518177D02*
X10091248Y30042177D01*
X10091248Y30042177D02*
X10454105Y30042177D01*
X10454105Y30042177D02*
X10671819Y29969606D01*
X10671819Y29969606D02*
X10816962Y29824463D01*
X10816962Y29824463D02*
X10889533Y29679320D01*
X10889533Y29679320D02*
X10962105Y29389034D01*
X10962105Y29389034D02*
X10962105Y29171320D01*
X10962105Y29171320D02*
X10889533Y28881034D01*
X10889533Y28881034D02*
X10816962Y28735891D01*
X10816962Y28735891D02*
X10671819Y28590748D01*
X10671819Y28590748D02*
X10454105Y28518177D01*
X10454105Y28518177D02*
X10091248Y28518177D01*
X11615248Y28518177D02*
X11615248Y30042177D01*
X11615248Y30042177D02*
X11978105Y30042177D01*
X11978105Y30042177D02*
X12195819Y29969606D01*
X12195819Y29969606D02*
X12340962Y29824463D01*
X12340962Y29824463D02*
X12413533Y29679320D01*
X12413533Y29679320D02*
X12486105Y29389034D01*
X12486105Y29389034D02*
X12486105Y29171320D01*
X12486105Y29171320D02*
X12413533Y28881034D01*
X12413533Y28881034D02*
X12340962Y28735891D01*
X12340962Y28735891D02*
X12195819Y28590748D01*
X12195819Y28590748D02*
X11978105Y28518177D01*
X11978105Y28518177D02*
X11615248Y28518177D01*
X24676680Y67306181D02*
X24749252Y67233609D01*
X24749252Y67233609D02*
X24821823Y67015895D01*
X24821823Y67015895D02*
X24821823Y66870752D01*
X24821823Y66870752D02*
X24749252Y66653038D01*
X24749252Y66653038D02*
X24604109Y66507895D01*
X24604109Y66507895D02*
X24458966Y66435324D01*
X24458966Y66435324D02*
X24168680Y66362752D01*
X24168680Y66362752D02*
X23950966Y66362752D01*
X23950966Y66362752D02*
X23660680Y66435324D01*
X23660680Y66435324D02*
X23515537Y66507895D01*
X23515537Y66507895D02*
X23370394Y66653038D01*
X23370394Y66653038D02*
X23297823Y66870752D01*
X23297823Y66870752D02*
X23297823Y67015895D01*
X23297823Y67015895D02*
X23370394Y67233609D01*
X23370394Y67233609D02*
X23442966Y67306181D01*
X24821823Y68031895D02*
X24821823Y68322181D01*
X24821823Y68322181D02*
X24749252Y68467324D01*
X24749252Y68467324D02*
X24676680Y68539895D01*
X24676680Y68539895D02*
X24458966Y68685038D01*
X24458966Y68685038D02*
X24168680Y68757609D01*
X24168680Y68757609D02*
X23588109Y68757609D01*
X23588109Y68757609D02*
X23442966Y68685038D01*
X23442966Y68685038D02*
X23370394Y68612466D01*
X23370394Y68612466D02*
X23297823Y68467324D01*
X23297823Y68467324D02*
X23297823Y68177038D01*
X23297823Y68177038D02*
X23370394Y68031895D01*
X23370394Y68031895D02*
X23442966Y67959324D01*
X23442966Y67959324D02*
X23588109Y67886752D01*
X23588109Y67886752D02*
X23950966Y67886752D01*
X23950966Y67886752D02*
X24096109Y67959324D01*
X24096109Y67959324D02*
X24168680Y68031895D01*
X24168680Y68031895D02*
X24241252Y68177038D01*
X24241252Y68177038D02*
X24241252Y68467324D01*
X24241252Y68467324D02*
X24168680Y68612466D01*
X24168680Y68612466D02*
X24096109Y68685038D01*
X24096109Y68685038D02*
X23950966Y68757609D01*
X39626394Y65129037D02*
X39626394Y65854751D01*
X40061823Y64983894D02*
X38537823Y65491894D01*
X38537823Y65491894D02*
X40061823Y65999894D01*
X40061823Y67306180D02*
X40061823Y66435323D01*
X40061823Y66870752D02*
X38537823Y66870752D01*
X38537823Y66870752D02*
X38755537Y66725609D01*
X38755537Y66725609D02*
X38900680Y66580466D01*
X38900680Y66580466D02*
X38973252Y66435323D01*
X38537823Y67814181D02*
X38537823Y68757609D01*
X38537823Y68757609D02*
X39118394Y68249609D01*
X39118394Y68249609D02*
X39118394Y68467324D01*
X39118394Y68467324D02*
X39190966Y68612466D01*
X39190966Y68612466D02*
X39263537Y68685038D01*
X39263537Y68685038D02*
X39408680Y68757609D01*
X39408680Y68757609D02*
X39771537Y68757609D01*
X39771537Y68757609D02*
X39916680Y68685038D01*
X39916680Y68685038D02*
X39989252Y68612466D01*
X39989252Y68612466D02*
X40061823Y68467324D01*
X40061823Y68467324D02*
X40061823Y68031895D01*
X40061823Y68031895D02*
X39989252Y67886752D01*
X39989252Y67886752D02*
X39916680Y67814181D01*
X29466394Y66580466D02*
X29466394Y67306180D01*
X29901823Y66435323D02*
X28377823Y66943323D01*
X28377823Y66943323D02*
X29901823Y67451323D01*
X29901823Y68031895D02*
X29901823Y68322181D01*
X29901823Y68322181D02*
X29829252Y68467324D01*
X29829252Y68467324D02*
X29756680Y68539895D01*
X29756680Y68539895D02*
X29538966Y68685038D01*
X29538966Y68685038D02*
X29248680Y68757609D01*
X29248680Y68757609D02*
X28668109Y68757609D01*
X28668109Y68757609D02*
X28522966Y68685038D01*
X28522966Y68685038D02*
X28450394Y68612466D01*
X28450394Y68612466D02*
X28377823Y68467324D01*
X28377823Y68467324D02*
X28377823Y68177038D01*
X28377823Y68177038D02*
X28450394Y68031895D01*
X28450394Y68031895D02*
X28522966Y67959324D01*
X28522966Y67959324D02*
X28668109Y67886752D01*
X28668109Y67886752D02*
X29030966Y67886752D01*
X29030966Y67886752D02*
X29176109Y67959324D01*
X29176109Y67959324D02*
X29248680Y68031895D01*
X29248680Y68031895D02*
X29321252Y68177038D01*
X29321252Y68177038D02*
X29321252Y68467324D01*
X29321252Y68467324D02*
X29248680Y68612466D01*
X29248680Y68612466D02*
X29176109Y68685038D01*
X29176109Y68685038D02*
X29030966Y68757609D01*
X26926394Y66580466D02*
X26926394Y67306180D01*
X27361823Y66435323D02*
X25837823Y66943323D01*
X25837823Y66943323D02*
X27361823Y67451323D01*
X26490966Y68177038D02*
X26418394Y68031895D01*
X26418394Y68031895D02*
X26345823Y67959324D01*
X26345823Y67959324D02*
X26200680Y67886752D01*
X26200680Y67886752D02*
X26128109Y67886752D01*
X26128109Y67886752D02*
X25982966Y67959324D01*
X25982966Y67959324D02*
X25910394Y68031895D01*
X25910394Y68031895D02*
X25837823Y68177038D01*
X25837823Y68177038D02*
X25837823Y68467324D01*
X25837823Y68467324D02*
X25910394Y68612466D01*
X25910394Y68612466D02*
X25982966Y68685038D01*
X25982966Y68685038D02*
X26128109Y68757609D01*
X26128109Y68757609D02*
X26200680Y68757609D01*
X26200680Y68757609D02*
X26345823Y68685038D01*
X26345823Y68685038D02*
X26418394Y68612466D01*
X26418394Y68612466D02*
X26490966Y68467324D01*
X26490966Y68467324D02*
X26490966Y68177038D01*
X26490966Y68177038D02*
X26563537Y68031895D01*
X26563537Y68031895D02*
X26636109Y67959324D01*
X26636109Y67959324D02*
X26781252Y67886752D01*
X26781252Y67886752D02*
X27071537Y67886752D01*
X27071537Y67886752D02*
X27216680Y67959324D01*
X27216680Y67959324D02*
X27289252Y68031895D01*
X27289252Y68031895D02*
X27361823Y68177038D01*
X27361823Y68177038D02*
X27361823Y68467324D01*
X27361823Y68467324D02*
X27289252Y68612466D01*
X27289252Y68612466D02*
X27216680Y68685038D01*
X27216680Y68685038D02*
X27071537Y68757609D01*
X27071537Y68757609D02*
X26781252Y68757609D01*
X26781252Y68757609D02*
X26636109Y68685038D01*
X26636109Y68685038D02*
X26563537Y68612466D01*
X26563537Y68612466D02*
X26490966Y68467324D01*
D14*
X3222666Y73062181D02*
X3222666Y72347896D01*
X3222666Y72347896D02*
X3175047Y72205039D01*
X3175047Y72205039D02*
X3079809Y72109800D01*
X3079809Y72109800D02*
X2936952Y72062181D01*
X2936952Y72062181D02*
X2841714Y72062181D01*
X3603619Y73062181D02*
X4222666Y73062181D01*
X4222666Y73062181D02*
X3889333Y72681229D01*
X3889333Y72681229D02*
X4032190Y72681229D01*
X4032190Y72681229D02*
X4127428Y72633610D01*
X4127428Y72633610D02*
X4175047Y72585991D01*
X4175047Y72585991D02*
X4222666Y72490753D01*
X4222666Y72490753D02*
X4222666Y72252658D01*
X4222666Y72252658D02*
X4175047Y72157420D01*
X4175047Y72157420D02*
X4127428Y72109800D01*
X4127428Y72109800D02*
X4032190Y72062181D01*
X4032190Y72062181D02*
X3746476Y72062181D01*
X3746476Y72062181D02*
X3651238Y72109800D01*
X3651238Y72109800D02*
X3603619Y72157420D01*
X20286666Y78005181D02*
X20286666Y77290896D01*
X20286666Y77290896D02*
X20239047Y77148039D01*
X20239047Y77148039D02*
X20143809Y77052800D01*
X20143809Y77052800D02*
X20000952Y77005181D01*
X20000952Y77005181D02*
X19905714Y77005181D01*
X21239047Y78005181D02*
X20762857Y78005181D01*
X20762857Y78005181D02*
X20715238Y77528991D01*
X20715238Y77528991D02*
X20762857Y77576610D01*
X20762857Y77576610D02*
X20858095Y77624229D01*
X20858095Y77624229D02*
X21096190Y77624229D01*
X21096190Y77624229D02*
X21191428Y77576610D01*
X21191428Y77576610D02*
X21239047Y77528991D01*
X21239047Y77528991D02*
X21286666Y77433753D01*
X21286666Y77433753D02*
X21286666Y77195658D01*
X21286666Y77195658D02*
X21239047Y77100420D01*
X21239047Y77100420D02*
X21191428Y77052800D01*
X21191428Y77052800D02*
X21096190Y77005181D01*
X21096190Y77005181D02*
X20858095Y77005181D01*
X20858095Y77005181D02*
X20762857Y77052800D01*
X20762857Y77052800D02*
X20715238Y77100420D01*
X25766666Y84315181D02*
X25766666Y83600896D01*
X25766666Y83600896D02*
X25719047Y83458039D01*
X25719047Y83458039D02*
X25623809Y83362800D01*
X25623809Y83362800D02*
X25480952Y83315181D01*
X25480952Y83315181D02*
X25385714Y83315181D01*
X26385714Y83886610D02*
X26290476Y83934229D01*
X26290476Y83934229D02*
X26242857Y83981848D01*
X26242857Y83981848D02*
X26195238Y84077086D01*
X26195238Y84077086D02*
X26195238Y84124705D01*
X26195238Y84124705D02*
X26242857Y84219943D01*
X26242857Y84219943D02*
X26290476Y84267562D01*
X26290476Y84267562D02*
X26385714Y84315181D01*
X26385714Y84315181D02*
X26576190Y84315181D01*
X26576190Y84315181D02*
X26671428Y84267562D01*
X26671428Y84267562D02*
X26719047Y84219943D01*
X26719047Y84219943D02*
X26766666Y84124705D01*
X26766666Y84124705D02*
X26766666Y84077086D01*
X26766666Y84077086D02*
X26719047Y83981848D01*
X26719047Y83981848D02*
X26671428Y83934229D01*
X26671428Y83934229D02*
X26576190Y83886610D01*
X26576190Y83886610D02*
X26385714Y83886610D01*
X26385714Y83886610D02*
X26290476Y83838991D01*
X26290476Y83838991D02*
X26242857Y83791372D01*
X26242857Y83791372D02*
X26195238Y83696134D01*
X26195238Y83696134D02*
X26195238Y83505658D01*
X26195238Y83505658D02*
X26242857Y83410420D01*
X26242857Y83410420D02*
X26290476Y83362800D01*
X26290476Y83362800D02*
X26385714Y83315181D01*
X26385714Y83315181D02*
X26576190Y83315181D01*
X26576190Y83315181D02*
X26671428Y83362800D01*
X26671428Y83362800D02*
X26719047Y83410420D01*
X26719047Y83410420D02*
X26766666Y83505658D01*
X26766666Y83505658D02*
X26766666Y83696134D01*
X26766666Y83696134D02*
X26719047Y83791372D01*
X26719047Y83791372D02*
X26671428Y83838991D01*
X26671428Y83838991D02*
X26576190Y83886610D01*
X1288095Y1315181D02*
X1288095Y2315181D01*
X1288095Y1838991D02*
X1859523Y1838991D01*
X1859523Y1315181D02*
X1859523Y2315181D01*
X2764285Y1981848D02*
X2764285Y1315181D01*
X2526190Y2362800D02*
X2288095Y1648515D01*
X2288095Y1648515D02*
X2907142Y1648515D01*
X48854819Y9460477D02*
X49569104Y9460477D01*
X49569104Y9460477D02*
X49711961Y9412858D01*
X49711961Y9412858D02*
X49807200Y9317620D01*
X49807200Y9317620D02*
X49854819Y9174763D01*
X49854819Y9174763D02*
X49854819Y9079525D01*
X49854819Y10460477D02*
X49854819Y9889049D01*
X49854819Y10174763D02*
X48854819Y10174763D01*
X48854819Y10174763D02*
X48997676Y10079525D01*
X48997676Y10079525D02*
X49092914Y9984287D01*
X49092914Y9984287D02*
X49140533Y9889049D01*
X48854819Y11079525D02*
X48854819Y11174763D01*
X48854819Y11174763D02*
X48902438Y11270001D01*
X48902438Y11270001D02*
X48950057Y11317620D01*
X48950057Y11317620D02*
X49045295Y11365239D01*
X49045295Y11365239D02*
X49235771Y11412858D01*
X49235771Y11412858D02*
X49473866Y11412858D01*
X49473866Y11412858D02*
X49664342Y11365239D01*
X49664342Y11365239D02*
X49759580Y11317620D01*
X49759580Y11317620D02*
X49807200Y11270001D01*
X49807200Y11270001D02*
X49854819Y11174763D01*
X49854819Y11174763D02*
X49854819Y11079525D01*
X49854819Y11079525D02*
X49807200Y10984287D01*
X49807200Y10984287D02*
X49759580Y10936668D01*
X49759580Y10936668D02*
X49664342Y10889049D01*
X49664342Y10889049D02*
X49473866Y10841430D01*
X49473866Y10841430D02*
X49235771Y10841430D01*
X49235771Y10841430D02*
X49045295Y10889049D01*
X49045295Y10889049D02*
X48950057Y10936668D01*
X48950057Y10936668D02*
X48902438Y10984287D01*
X48902438Y10984287D02*
X48854819Y11079525D01*
X1338095Y89415181D02*
X1338095Y90415181D01*
X1338095Y89938991D02*
X1909523Y89938991D01*
X1909523Y89415181D02*
X1909523Y90415181D01*
X2909523Y89415181D02*
X2338095Y89415181D01*
X2623809Y89415181D02*
X2623809Y90415181D01*
X2623809Y90415181D02*
X2528571Y90272324D01*
X2528571Y90272324D02*
X2433333Y90177086D01*
X2433333Y90177086D02*
X2338095Y90129467D01*
X48038095Y89515181D02*
X48038095Y90515181D01*
X48038095Y90038991D02*
X48609523Y90038991D01*
X48609523Y89515181D02*
X48609523Y90515181D01*
X49038095Y90419943D02*
X49085714Y90467562D01*
X49085714Y90467562D02*
X49180952Y90515181D01*
X49180952Y90515181D02*
X49419047Y90515181D01*
X49419047Y90515181D02*
X49514285Y90467562D01*
X49514285Y90467562D02*
X49561904Y90419943D01*
X49561904Y90419943D02*
X49609523Y90324705D01*
X49609523Y90324705D02*
X49609523Y90229467D01*
X49609523Y90229467D02*
X49561904Y90086610D01*
X49561904Y90086610D02*
X48990476Y89515181D01*
X48990476Y89515181D02*
X49609523Y89515181D01*
X22673809Y27129372D02*
X22673809Y26653181D01*
X22340476Y27653181D02*
X22673809Y27129372D01*
X22673809Y27129372D02*
X23007142Y27653181D01*
X23292857Y27557943D02*
X23340476Y27605562D01*
X23340476Y27605562D02*
X23435714Y27653181D01*
X23435714Y27653181D02*
X23673809Y27653181D01*
X23673809Y27653181D02*
X23769047Y27605562D01*
X23769047Y27605562D02*
X23816666Y27557943D01*
X23816666Y27557943D02*
X23864285Y27462705D01*
X23864285Y27462705D02*
X23864285Y27367467D01*
X23864285Y27367467D02*
X23816666Y27224610D01*
X23816666Y27224610D02*
X23245238Y26653181D01*
X23245238Y26653181D02*
X23864285Y26653181D01*
X24054819Y3786667D02*
X24769104Y3786667D01*
X24769104Y3786667D02*
X24911961Y3739048D01*
X24911961Y3739048D02*
X25007200Y3643810D01*
X25007200Y3643810D02*
X25054819Y3500953D01*
X25054819Y3500953D02*
X25054819Y3405715D01*
X25054819Y4310477D02*
X25054819Y4500953D01*
X25054819Y4500953D02*
X25007200Y4596191D01*
X25007200Y4596191D02*
X24959580Y4643810D01*
X24959580Y4643810D02*
X24816723Y4739048D01*
X24816723Y4739048D02*
X24626247Y4786667D01*
X24626247Y4786667D02*
X24245295Y4786667D01*
X24245295Y4786667D02*
X24150057Y4739048D01*
X24150057Y4739048D02*
X24102438Y4691429D01*
X24102438Y4691429D02*
X24054819Y4596191D01*
X24054819Y4596191D02*
X24054819Y4405715D01*
X24054819Y4405715D02*
X24102438Y4310477D01*
X24102438Y4310477D02*
X24150057Y4262858D01*
X24150057Y4262858D02*
X24245295Y4215239D01*
X24245295Y4215239D02*
X24483390Y4215239D01*
X24483390Y4215239D02*
X24578628Y4262858D01*
X24578628Y4262858D02*
X24626247Y4310477D01*
X24626247Y4310477D02*
X24673866Y4405715D01*
X24673866Y4405715D02*
X24673866Y4596191D01*
X24673866Y4596191D02*
X24626247Y4691429D01*
X24626247Y4691429D02*
X24578628Y4739048D01*
X24578628Y4739048D02*
X24483390Y4786667D01*
X10016666Y90365181D02*
X10016666Y89650896D01*
X10016666Y89650896D02*
X9969047Y89508039D01*
X9969047Y89508039D02*
X9873809Y89412800D01*
X9873809Y89412800D02*
X9730952Y89365181D01*
X9730952Y89365181D02*
X9635714Y89365181D01*
X10397619Y90365181D02*
X11064285Y90365181D01*
X11064285Y90365181D02*
X10635714Y89365181D01*
X3266666Y21845181D02*
X3266666Y21130896D01*
X3266666Y21130896D02*
X3219047Y20988039D01*
X3219047Y20988039D02*
X3123809Y20892800D01*
X3123809Y20892800D02*
X2980952Y20845181D01*
X2980952Y20845181D02*
X2885714Y20845181D01*
X3695238Y21749943D02*
X3742857Y21797562D01*
X3742857Y21797562D02*
X3838095Y21845181D01*
X3838095Y21845181D02*
X4076190Y21845181D01*
X4076190Y21845181D02*
X4171428Y21797562D01*
X4171428Y21797562D02*
X4219047Y21749943D01*
X4219047Y21749943D02*
X4266666Y21654705D01*
X4266666Y21654705D02*
X4266666Y21559467D01*
X4266666Y21559467D02*
X4219047Y21416610D01*
X4219047Y21416610D02*
X3647619Y20845181D01*
X3647619Y20845181D02*
X4266666Y20845181D01*
X38024998Y46705368D02*
X38092342Y46570681D01*
X38092342Y46570681D02*
X38092342Y46503338D01*
X38092342Y46503338D02*
X38058670Y46402322D01*
X38058670Y46402322D02*
X37957655Y46301307D01*
X37957655Y46301307D02*
X37856639Y46267635D01*
X37856639Y46267635D02*
X37789296Y46267635D01*
X37789296Y46267635D02*
X37688281Y46301307D01*
X37688281Y46301307D02*
X37418907Y46570681D01*
X37418907Y46570681D02*
X38126013Y47277788D01*
X38126013Y47277788D02*
X38361716Y47042086D01*
X38361716Y47042086D02*
X38395387Y46941070D01*
X38395387Y46941070D02*
X38395387Y46873727D01*
X38395387Y46873727D02*
X38361716Y46772712D01*
X38361716Y46772712D02*
X38294372Y46705368D01*
X38294372Y46705368D02*
X38193357Y46671696D01*
X38193357Y46671696D02*
X38126013Y46671696D01*
X38126013Y46671696D02*
X38024998Y46705368D01*
X38024998Y46705368D02*
X37789296Y46941070D01*
X38732105Y46671696D02*
X39136166Y46267635D01*
X38227029Y45762559D02*
X38934135Y46469666D01*
X39035151Y44954437D02*
X38631090Y45358498D01*
X38833120Y45156467D02*
X39540227Y45863574D01*
X39540227Y45863574D02*
X39371868Y45829902D01*
X39371868Y45829902D02*
X39237181Y45829902D01*
X39237181Y45829902D02*
X39136166Y45863574D01*
X47988095Y1315181D02*
X47988095Y2315181D01*
X47988095Y1838991D02*
X48559523Y1838991D01*
X48559523Y1315181D02*
X48559523Y2315181D01*
X48940476Y2315181D02*
X49559523Y2315181D01*
X49559523Y2315181D02*
X49226190Y1934229D01*
X49226190Y1934229D02*
X49369047Y1934229D01*
X49369047Y1934229D02*
X49464285Y1886610D01*
X49464285Y1886610D02*
X49511904Y1838991D01*
X49511904Y1838991D02*
X49559523Y1743753D01*
X49559523Y1743753D02*
X49559523Y1505658D01*
X49559523Y1505658D02*
X49511904Y1410420D01*
X49511904Y1410420D02*
X49464285Y1362800D01*
X49464285Y1362800D02*
X49369047Y1315181D01*
X49369047Y1315181D02*
X49083333Y1315181D01*
X49083333Y1315181D02*
X48988095Y1362800D01*
X48988095Y1362800D02*
X48940476Y1410420D01*
X46148666Y65442181D02*
X46148666Y64727896D01*
X46148666Y64727896D02*
X46101047Y64585039D01*
X46101047Y64585039D02*
X46005809Y64489800D01*
X46005809Y64489800D02*
X45862952Y64442181D01*
X45862952Y64442181D02*
X45767714Y64442181D01*
X47053428Y65108848D02*
X47053428Y64442181D01*
X46815333Y65489800D02*
X46577238Y64775515D01*
X46577238Y64775515D02*
X47196285Y64775515D01*
X14773809Y32867372D02*
X14773809Y32391181D01*
X14440476Y33391181D02*
X14773809Y32867372D01*
X14773809Y32867372D02*
X15107142Y33391181D01*
X15964285Y32391181D02*
X15392857Y32391181D01*
X15678571Y32391181D02*
X15678571Y33391181D01*
X15678571Y33391181D02*
X15583333Y33248324D01*
X15583333Y33248324D02*
X15488095Y33153086D01*
X15488095Y33153086D02*
X15392857Y33105467D01*
X47037666Y15785181D02*
X47037666Y15070896D01*
X47037666Y15070896D02*
X46990047Y14928039D01*
X46990047Y14928039D02*
X46894809Y14832800D01*
X46894809Y14832800D02*
X46751952Y14785181D01*
X46751952Y14785181D02*
X46656714Y14785181D01*
X48037666Y14785181D02*
X47466238Y14785181D01*
X47751952Y14785181D02*
X47751952Y15785181D01*
X47751952Y15785181D02*
X47656714Y15642324D01*
X47656714Y15642324D02*
X47561476Y15547086D01*
X47561476Y15547086D02*
X47466238Y15499467D01*
X24216667Y10062800D02*
X24359524Y10015181D01*
X24359524Y10015181D02*
X24597619Y10015181D01*
X24597619Y10015181D02*
X24692857Y10062800D01*
X24692857Y10062800D02*
X24740476Y10110420D01*
X24740476Y10110420D02*
X24788095Y10205658D01*
X24788095Y10205658D02*
X24788095Y10300896D01*
X24788095Y10300896D02*
X24740476Y10396134D01*
X24740476Y10396134D02*
X24692857Y10443753D01*
X24692857Y10443753D02*
X24597619Y10491372D01*
X24597619Y10491372D02*
X24407143Y10538991D01*
X24407143Y10538991D02*
X24311905Y10586610D01*
X24311905Y10586610D02*
X24264286Y10634229D01*
X24264286Y10634229D02*
X24216667Y10729467D01*
X24216667Y10729467D02*
X24216667Y10824705D01*
X24216667Y10824705D02*
X24264286Y10919943D01*
X24264286Y10919943D02*
X24311905Y10967562D01*
X24311905Y10967562D02*
X24407143Y11015181D01*
X24407143Y11015181D02*
X24645238Y11015181D01*
X24645238Y11015181D02*
X24788095Y10967562D01*
X25121429Y11015181D02*
X25359524Y10015181D01*
X25359524Y10015181D02*
X25550000Y10729467D01*
X25550000Y10729467D02*
X25740476Y10015181D01*
X25740476Y10015181D02*
X25978572Y11015181D01*
X26311905Y10919943D02*
X26359524Y10967562D01*
X26359524Y10967562D02*
X26454762Y11015181D01*
X26454762Y11015181D02*
X26692857Y11015181D01*
X26692857Y11015181D02*
X26788095Y10967562D01*
X26788095Y10967562D02*
X26835714Y10919943D01*
X26835714Y10919943D02*
X26883333Y10824705D01*
X26883333Y10824705D02*
X26883333Y10729467D01*
X26883333Y10729467D02*
X26835714Y10586610D01*
X26835714Y10586610D02*
X26264286Y10015181D01*
X26264286Y10015181D02*
X26883333Y10015181D01*
X6816667Y10112800D02*
X6959524Y10065181D01*
X6959524Y10065181D02*
X7197619Y10065181D01*
X7197619Y10065181D02*
X7292857Y10112800D01*
X7292857Y10112800D02*
X7340476Y10160420D01*
X7340476Y10160420D02*
X7388095Y10255658D01*
X7388095Y10255658D02*
X7388095Y10350896D01*
X7388095Y10350896D02*
X7340476Y10446134D01*
X7340476Y10446134D02*
X7292857Y10493753D01*
X7292857Y10493753D02*
X7197619Y10541372D01*
X7197619Y10541372D02*
X7007143Y10588991D01*
X7007143Y10588991D02*
X6911905Y10636610D01*
X6911905Y10636610D02*
X6864286Y10684229D01*
X6864286Y10684229D02*
X6816667Y10779467D01*
X6816667Y10779467D02*
X6816667Y10874705D01*
X6816667Y10874705D02*
X6864286Y10969943D01*
X6864286Y10969943D02*
X6911905Y11017562D01*
X6911905Y11017562D02*
X7007143Y11065181D01*
X7007143Y11065181D02*
X7245238Y11065181D01*
X7245238Y11065181D02*
X7388095Y11017562D01*
X7721429Y11065181D02*
X7959524Y10065181D01*
X7959524Y10065181D02*
X8150000Y10779467D01*
X8150000Y10779467D02*
X8340476Y10065181D01*
X8340476Y10065181D02*
X8578572Y11065181D01*
X9483333Y10065181D02*
X8911905Y10065181D01*
X9197619Y10065181D02*
X9197619Y11065181D01*
X9197619Y11065181D02*
X9102381Y10922324D01*
X9102381Y10922324D02*
X9007143Y10827086D01*
X9007143Y10827086D02*
X8911905Y10779467D01*
D15*
%TO.C,J3*%
X5020000Y74990000D02*
X45780000Y74990000D01*
X5020000Y72390000D02*
X5020000Y74990000D01*
X5020000Y69790000D02*
X5020000Y71120000D01*
X6350000Y69790000D02*
X5020000Y69790000D01*
X7620000Y72390000D02*
X5020000Y72390000D01*
X7620000Y69790000D02*
X7620000Y72390000D01*
X7620000Y69790000D02*
X45780000Y69790000D01*
X45780000Y69790000D02*
X45780000Y74990000D01*
%TO.C,J5*%
X18020000Y78460000D02*
X18020000Y86200000D01*
X20620000Y81060000D02*
X20620000Y78460000D01*
X20620000Y78460000D02*
X18020000Y78460000D01*
X23220000Y86200000D02*
X18020000Y86200000D01*
X23220000Y81060000D02*
X20620000Y81060000D01*
X23220000Y81060000D02*
X23220000Y86200000D01*
X23220000Y79790000D02*
X23220000Y78460000D01*
X23220000Y78460000D02*
X21890000Y78460000D01*
%TO.C,J8*%
X24770000Y82325000D02*
X26100000Y82325000D01*
X24770000Y80995000D02*
X24770000Y82325000D01*
X24770000Y79725000D02*
X24770000Y77125000D01*
X24770000Y79725000D02*
X27430000Y79725000D01*
X24770000Y77125000D02*
X27430000Y77125000D01*
X27430000Y79725000D02*
X27430000Y77125000D01*
%TO.C,J10*%
X43120000Y11490000D02*
X43120000Y8830000D01*
X45720000Y11490000D02*
X43120000Y11490000D01*
X45720000Y11490000D02*
X45720000Y8830000D01*
X45720000Y8830000D02*
X43120000Y8830000D01*
X46990000Y11490000D02*
X48320000Y11490000D01*
X48320000Y11490000D02*
X48320000Y10160000D01*
%TO.C,Y2*%
X33505000Y29703000D02*
X27255000Y29703000D01*
X33505000Y24653000D02*
X27255000Y24653000D01*
X27255000Y24653000D02*
G75*
G02*
X27255000Y29703000I0J2525000D01*
G01*
X33505000Y29703000D02*
G75*
G02*
X33505000Y24653000I0J-2525000D01*
G01*
%TO.C,J9*%
X25340000Y1210000D02*
X25340000Y2540000D01*
X26670000Y1210000D02*
X25340000Y1210000D01*
X27940000Y3870000D02*
X40700000Y3870000D01*
X27940000Y1210000D02*
X27940000Y3870000D01*
X27940000Y1210000D02*
X40700000Y1210000D01*
X40700000Y1210000D02*
X40700000Y3870000D01*
%TO.C,J7*%
X9020000Y88825000D02*
X10350000Y88825000D01*
X9020000Y87495000D02*
X9020000Y88825000D01*
X9020000Y86225000D02*
X9020000Y83625000D01*
X9020000Y86225000D02*
X11680000Y86225000D01*
X9020000Y83625000D02*
X11680000Y83625000D01*
X11680000Y86225000D02*
X11680000Y83625000D01*
%TO.C,J2*%
X2480000Y22800000D02*
X2480000Y63560000D01*
X5080000Y25400000D02*
X5080000Y22800000D01*
X5080000Y22800000D02*
X2480000Y22800000D01*
X7680000Y63560000D02*
X2480000Y63560000D01*
X7680000Y25400000D02*
X5080000Y25400000D01*
X7680000Y25400000D02*
X7680000Y63560000D01*
X7680000Y24130000D02*
X7680000Y22800000D01*
X7680000Y22800000D02*
X6350000Y22800000D01*
%TO.C,BT1*%
X14756088Y60139484D02*
X13617646Y59001043D01*
X16175959Y56442730D02*
X13617646Y59001043D01*
X17584516Y62967912D02*
X18722957Y64106354D01*
X18722957Y64106354D02*
X21281270Y61548041D01*
X26103243Y40151485D02*
X15005485Y51249243D01*
X26474757Y62718515D02*
X29294204Y59899068D01*
X29294204Y56787798D02*
X29294204Y59899068D01*
X29294204Y56787798D02*
X31641798Y54440204D01*
X31641798Y54440204D02*
X34753068Y54440204D01*
X33855043Y38763646D02*
X31296730Y41321959D01*
X34753068Y54440204D02*
X37572515Y51620757D01*
X34993484Y39902088D02*
X33855043Y38763646D01*
X36402041Y46427270D02*
X38960354Y43868957D01*
X37821912Y42730516D02*
X38960354Y43868957D01*
X15005584Y51246614D02*
G75*
G02*
X16175959Y56442730I11283420J188385D01*
G01*
X21281270Y61548041D02*
G75*
G02*
X26477386Y62718416I5007746J-10113111D01*
G01*
X31296730Y41321959D02*
G75*
G02*
X26100614Y40151584I-5007730J10113041D01*
G01*
X37572416Y51623386D02*
G75*
G02*
X36402041Y46427270I-11283362J-188398D01*
G01*
%TO.C,J4*%
X43115000Y63560000D02*
X44445000Y63560000D01*
X43115000Y62230000D02*
X43115000Y63560000D01*
X43115000Y60960000D02*
X43115000Y22800000D01*
X43115000Y60960000D02*
X45715000Y60960000D01*
X43115000Y22800000D02*
X48315000Y22800000D01*
X45715000Y63560000D02*
X48315000Y63560000D01*
X45715000Y60960000D02*
X45715000Y63560000D01*
X48315000Y63560000D02*
X48315000Y22800000D01*
%TO.C,Y1*%
X16850000Y34466000D02*
X16850000Y31066000D01*
X16850000Y31066000D02*
X27750000Y31066000D01*
X27750000Y34466000D02*
X16850000Y34466000D01*
X27750000Y33366000D02*
X29150000Y34036000D01*
X27750000Y32166000D02*
X29150000Y31496000D01*
X27750000Y31066000D02*
X27750000Y34466000D01*
X29150000Y34036000D02*
X29850000Y34036000D01*
X29150000Y31496000D02*
X29850000Y31496000D01*
%TO.C,J1*%
X5020000Y17840000D02*
X5020000Y12640000D01*
X43180000Y17840000D02*
X5020000Y17840000D01*
X43180000Y17840000D02*
X43180000Y15240000D01*
X43180000Y15240000D02*
X45780000Y15240000D01*
X44450000Y17840000D02*
X45780000Y17840000D01*
X45780000Y17840000D02*
X45780000Y16510000D01*
X45780000Y15240000D02*
X45780000Y12640000D01*
X45780000Y12640000D02*
X5020000Y12640000D01*
%TO.C,SW2*%
X17070000Y7330000D02*
X17070000Y2830000D01*
X19570000Y1580000D02*
X21070000Y1580000D01*
X21070000Y8580000D02*
X19570000Y8580000D01*
X23570000Y2830000D02*
X23570000Y7330000D01*
%TO.C,SW1*%
X9450000Y7330000D02*
X9450000Y2830000D01*
X11950000Y1580000D02*
X13450000Y1580000D01*
X13450000Y8580000D02*
X11950000Y8580000D01*
X15950000Y2830000D02*
X15950000Y7330000D01*
%TD*%
M02*
