%TF.GenerationSoftware,KiCad,Pcbnew,8.0.8+1*%
%TF.CreationDate,2025-05-06T10:58:55+00:00*%
%TF.ProjectId,STM32TQ6401,53544d33-3254-4513-9634-30312e6b6963,rev?*%
%TF.SameCoordinates,Original*%
%TF.FileFunction,Legend,Bot*%
%TF.FilePolarity,Positive*%
%FSLAX46Y46*%
G04 Gerber Fmt 4.6, Leading zero omitted, Abs format (unit mm)*
G04 Created by KiCad (PCBNEW 8.0.8+1) date 2025-05-06 10:58:55*
%MOMM*%
%LPD*%
G01*
G04 APERTURE LIST*
%ADD10C,0.203200*%
%ADD11C,0.150000*%
%ADD12C,0.254000*%
%ADD13C,0.304800*%
%ADD14C,0.120000*%
G04 APERTURE END LIST*
D10*
X17632152Y86365412D02*
X17632152Y85760650D01*
X17995009Y86486364D02*
X16725009Y86063031D01*
X16725009Y86063031D02*
X17995009Y85639697D01*
D11*
X41073462Y42247540D02*
X41208149Y42112853D01*
X41208149Y42112853D02*
X41241821Y42011838D01*
X41241821Y42011838D02*
X41241821Y41944495D01*
X41241821Y41944495D02*
X41208149Y41776136D01*
X41208149Y41776136D02*
X41107134Y41607777D01*
X41107134Y41607777D02*
X40837760Y41338403D01*
X40837760Y41338403D02*
X40736744Y41304731D01*
X40736744Y41304731D02*
X40669401Y41304731D01*
X40669401Y41304731D02*
X40568386Y41338403D01*
X40568386Y41338403D02*
X40433699Y41473090D01*
X40433699Y41473090D02*
X40400027Y41574105D01*
X40400027Y41574105D02*
X40400027Y41641449D01*
X40400027Y41641449D02*
X40433699Y41742464D01*
X40433699Y41742464D02*
X40602057Y41910823D01*
X40602057Y41910823D02*
X40703073Y41944495D01*
X40703073Y41944495D02*
X40770416Y41944495D01*
X40770416Y41944495D02*
X40871431Y41910823D01*
X40871431Y41910823D02*
X41006118Y41776136D01*
X41006118Y41776136D02*
X41039790Y41675121D01*
X41039790Y41675121D02*
X41039790Y41607777D01*
X41039790Y41607777D02*
X41006118Y41506762D01*
X40669401Y42516914D02*
X40669401Y42584258D01*
X40669401Y42584258D02*
X40635729Y42685273D01*
X40635729Y42685273D02*
X40467370Y42853632D01*
X40467370Y42853632D02*
X40366355Y42887304D01*
X40366355Y42887304D02*
X40299012Y42887304D01*
X40299012Y42887304D02*
X40197996Y42853632D01*
X40197996Y42853632D02*
X40130653Y42786288D01*
X40130653Y42786288D02*
X40063309Y42651601D01*
X40063309Y42651601D02*
X40063309Y41843479D01*
X40063309Y41843479D02*
X39625577Y42281212D01*
X39591905Y42853632D02*
X39053157Y43392380D01*
X39255187Y44065815D02*
X38312378Y43594410D01*
X38312378Y43594410D02*
X38783783Y44537219D01*
X37504256Y44537219D02*
X37504256Y44469876D01*
X37504256Y44469876D02*
X37571600Y44335189D01*
X37571600Y44335189D02*
X37638943Y44267845D01*
X37638943Y44267845D02*
X37773630Y44200502D01*
X37773630Y44200502D02*
X37908317Y44200502D01*
X37908317Y44200502D02*
X38009333Y44234174D01*
X38009333Y44234174D02*
X38177691Y44335189D01*
X38177691Y44335189D02*
X38278707Y44436204D01*
X38278707Y44436204D02*
X38379722Y44604563D01*
X38379722Y44604563D02*
X38413394Y44705578D01*
X38413394Y44705578D02*
X38413394Y44840265D01*
X38413394Y44840265D02*
X38346050Y44974952D01*
X38346050Y44974952D02*
X38278707Y45042296D01*
X38278707Y45042296D02*
X38144020Y45109639D01*
X38144020Y45109639D02*
X38076676Y45109639D01*
X37369569Y44941280D02*
X37032852Y45277998D01*
X37234882Y44671906D02*
X37706287Y45614716D01*
X37706287Y45614716D02*
X36763478Y45143311D01*
X36527775Y45379013D02*
X37234882Y46086120D01*
X37234882Y46086120D02*
X36965508Y46355494D01*
X36965508Y46355494D02*
X36864493Y46389166D01*
X36864493Y46389166D02*
X36797149Y46389166D01*
X36797149Y46389166D02*
X36696134Y46355494D01*
X36696134Y46355494D02*
X36595119Y46254479D01*
X36595119Y46254479D02*
X36561447Y46153464D01*
X36561447Y46153464D02*
X36561447Y46086120D01*
X36561447Y46086120D02*
X36595119Y45985105D01*
X36595119Y45985105D02*
X36864493Y45715731D01*
X46444819Y22486476D02*
X47444819Y22153143D01*
X47444819Y22153143D02*
X46444819Y21819810D01*
X46921009Y21153143D02*
X46968628Y21010286D01*
X46968628Y21010286D02*
X47016247Y20962667D01*
X47016247Y20962667D02*
X47111485Y20915048D01*
X47111485Y20915048D02*
X47254342Y20915048D01*
X47254342Y20915048D02*
X47349580Y20962667D01*
X47349580Y20962667D02*
X47397200Y21010286D01*
X47397200Y21010286D02*
X47444819Y21105524D01*
X47444819Y21105524D02*
X47444819Y21486476D01*
X47444819Y21486476D02*
X46444819Y21486476D01*
X46444819Y21486476D02*
X46444819Y21153143D01*
X46444819Y21153143D02*
X46492438Y21057905D01*
X46492438Y21057905D02*
X46540057Y21010286D01*
X46540057Y21010286D02*
X46635295Y20962667D01*
X46635295Y20962667D02*
X46730533Y20962667D01*
X46730533Y20962667D02*
X46825771Y21010286D01*
X46825771Y21010286D02*
X46873390Y21057905D01*
X46873390Y21057905D02*
X46921009Y21153143D01*
X46921009Y21153143D02*
X46921009Y21486476D01*
X47159104Y20534095D02*
X47159104Y20057905D01*
X47444819Y20629333D02*
X46444819Y20296000D01*
X46444819Y20296000D02*
X47444819Y19962667D01*
X46444819Y19772190D02*
X46444819Y19200762D01*
X47444819Y19486476D02*
X46444819Y19486476D01*
X47063866Y18867428D02*
X47063866Y18105523D01*
X46444819Y17772190D02*
X47444819Y17438857D01*
X47444819Y17438857D02*
X46444819Y17105524D01*
X47444819Y16772190D02*
X46444819Y16772190D01*
X46444819Y16772190D02*
X46444819Y16534095D01*
X46444819Y16534095D02*
X46492438Y16391238D01*
X46492438Y16391238D02*
X46587676Y16296000D01*
X46587676Y16296000D02*
X46682914Y16248381D01*
X46682914Y16248381D02*
X46873390Y16200762D01*
X46873390Y16200762D02*
X47016247Y16200762D01*
X47016247Y16200762D02*
X47206723Y16248381D01*
X47206723Y16248381D02*
X47301961Y16296000D01*
X47301961Y16296000D02*
X47397200Y16391238D01*
X47397200Y16391238D02*
X47444819Y16534095D01*
X47444819Y16534095D02*
X47444819Y16772190D01*
X47444819Y15772190D02*
X46444819Y15772190D01*
X46444819Y15772190D02*
X46444819Y15534095D01*
X46444819Y15534095D02*
X46492438Y15391238D01*
X46492438Y15391238D02*
X46587676Y15296000D01*
X46587676Y15296000D02*
X46682914Y15248381D01*
X46682914Y15248381D02*
X46873390Y15200762D01*
X46873390Y15200762D02*
X47016247Y15200762D01*
X47016247Y15200762D02*
X47206723Y15248381D01*
X47206723Y15248381D02*
X47301961Y15296000D01*
X47301961Y15296000D02*
X47397200Y15391238D01*
X47397200Y15391238D02*
X47444819Y15534095D01*
X47444819Y15534095D02*
X47444819Y15772190D01*
D12*
X31478285Y62628177D02*
X31478285Y63644177D01*
X31478285Y63499034D02*
X31405714Y63571606D01*
X31405714Y63571606D02*
X31260571Y63644177D01*
X31260571Y63644177D02*
X31042857Y63644177D01*
X31042857Y63644177D02*
X30897714Y63571606D01*
X30897714Y63571606D02*
X30825143Y63426463D01*
X30825143Y63426463D02*
X30825143Y62628177D01*
X30825143Y63426463D02*
X30752571Y63571606D01*
X30752571Y63571606D02*
X30607428Y63644177D01*
X30607428Y63644177D02*
X30389714Y63644177D01*
X30389714Y63644177D02*
X30244571Y63571606D01*
X30244571Y63571606D02*
X30172000Y63426463D01*
X30172000Y63426463D02*
X30172000Y62628177D01*
X29446285Y62628177D02*
X29446285Y63644177D01*
X29446285Y64152177D02*
X29518857Y64079606D01*
X29518857Y64079606D02*
X29446285Y64007034D01*
X29446285Y64007034D02*
X29373714Y64079606D01*
X29373714Y64079606D02*
X29446285Y64152177D01*
X29446285Y64152177D02*
X29446285Y64007034D01*
X28720571Y62628177D02*
X28720571Y64152177D01*
X28067429Y62628177D02*
X28067429Y63426463D01*
X28067429Y63426463D02*
X28140000Y63571606D01*
X28140000Y63571606D02*
X28285143Y63644177D01*
X28285143Y63644177D02*
X28502857Y63644177D01*
X28502857Y63644177D02*
X28648000Y63571606D01*
X28648000Y63571606D02*
X28720571Y63499034D01*
X27124000Y62628177D02*
X27269143Y62700748D01*
X27269143Y62700748D02*
X27341714Y62773320D01*
X27341714Y62773320D02*
X27414286Y62918463D01*
X27414286Y62918463D02*
X27414286Y63353891D01*
X27414286Y63353891D02*
X27341714Y63499034D01*
X27341714Y63499034D02*
X27269143Y63571606D01*
X27269143Y63571606D02*
X27124000Y63644177D01*
X27124000Y63644177D02*
X26906286Y63644177D01*
X26906286Y63644177D02*
X26761143Y63571606D01*
X26761143Y63571606D02*
X26688572Y63499034D01*
X26688572Y63499034D02*
X26616000Y63353891D01*
X26616000Y63353891D02*
X26616000Y62918463D01*
X26616000Y62918463D02*
X26688572Y62773320D01*
X26688572Y62773320D02*
X26761143Y62700748D01*
X26761143Y62700748D02*
X26906286Y62628177D01*
X26906286Y62628177D02*
X27124000Y62628177D01*
X24874286Y64007034D02*
X24801714Y64079606D01*
X24801714Y64079606D02*
X24656572Y64152177D01*
X24656572Y64152177D02*
X24293714Y64152177D01*
X24293714Y64152177D02*
X24148572Y64079606D01*
X24148572Y64079606D02*
X24076000Y64007034D01*
X24076000Y64007034D02*
X24003429Y63861891D01*
X24003429Y63861891D02*
X24003429Y63716748D01*
X24003429Y63716748D02*
X24076000Y63499034D01*
X24076000Y63499034D02*
X24946857Y62628177D01*
X24946857Y62628177D02*
X24003429Y62628177D01*
X23060000Y64152177D02*
X22914857Y64152177D01*
X22914857Y64152177D02*
X22769714Y64079606D01*
X22769714Y64079606D02*
X22697143Y64007034D01*
X22697143Y64007034D02*
X22624571Y63861891D01*
X22624571Y63861891D02*
X22552000Y63571606D01*
X22552000Y63571606D02*
X22552000Y63208748D01*
X22552000Y63208748D02*
X22624571Y62918463D01*
X22624571Y62918463D02*
X22697143Y62773320D01*
X22697143Y62773320D02*
X22769714Y62700748D01*
X22769714Y62700748D02*
X22914857Y62628177D01*
X22914857Y62628177D02*
X23060000Y62628177D01*
X23060000Y62628177D02*
X23205143Y62700748D01*
X23205143Y62700748D02*
X23277714Y62773320D01*
X23277714Y62773320D02*
X23350285Y62918463D01*
X23350285Y62918463D02*
X23422857Y63208748D01*
X23422857Y63208748D02*
X23422857Y63571606D01*
X23422857Y63571606D02*
X23350285Y63861891D01*
X23350285Y63861891D02*
X23277714Y64007034D01*
X23277714Y64007034D02*
X23205143Y64079606D01*
X23205143Y64079606D02*
X23060000Y64152177D01*
X21971428Y64007034D02*
X21898856Y64079606D01*
X21898856Y64079606D02*
X21753714Y64152177D01*
X21753714Y64152177D02*
X21390856Y64152177D01*
X21390856Y64152177D02*
X21245714Y64079606D01*
X21245714Y64079606D02*
X21173142Y64007034D01*
X21173142Y64007034D02*
X21100571Y63861891D01*
X21100571Y63861891D02*
X21100571Y63716748D01*
X21100571Y63716748D02*
X21173142Y63499034D01*
X21173142Y63499034D02*
X22043999Y62628177D01*
X22043999Y62628177D02*
X21100571Y62628177D01*
X19794285Y63644177D02*
X19794285Y62628177D01*
X20157142Y64224748D02*
X20519999Y63136177D01*
X20519999Y63136177D02*
X19576570Y63136177D01*
D11*
X14968195Y54255808D02*
X14530462Y54693540D01*
X14530462Y54693540D02*
X14496790Y54188464D01*
X14496790Y54188464D02*
X14395775Y54289479D01*
X14395775Y54289479D02*
X14294760Y54323151D01*
X14294760Y54323151D02*
X14227416Y54323151D01*
X14227416Y54323151D02*
X14126401Y54289479D01*
X14126401Y54289479D02*
X13958042Y54121121D01*
X13958042Y54121121D02*
X13924370Y54020105D01*
X13924370Y54020105D02*
X13924370Y53952762D01*
X13924370Y53952762D02*
X13958042Y53851747D01*
X13958042Y53851747D02*
X14160073Y53649716D01*
X14160073Y53649716D02*
X14261088Y53616044D01*
X14261088Y53616044D02*
X14328431Y53616044D01*
X14092729Y55131273D02*
X14025386Y55198617D01*
X14025386Y55198617D02*
X13924370Y55232288D01*
X13924370Y55232288D02*
X13857027Y55232288D01*
X13857027Y55232288D02*
X13756012Y55198617D01*
X13756012Y55198617D02*
X13587653Y55097601D01*
X13587653Y55097601D02*
X13419294Y54929243D01*
X13419294Y54929243D02*
X13318279Y54760884D01*
X13318279Y54760884D02*
X13284607Y54659869D01*
X13284607Y54659869D02*
X13284607Y54592525D01*
X13284607Y54592525D02*
X13318279Y54491510D01*
X13318279Y54491510D02*
X13385622Y54424166D01*
X13385622Y54424166D02*
X13486638Y54390495D01*
X13486638Y54390495D02*
X13553981Y54390495D01*
X13553981Y54390495D02*
X13654996Y54424166D01*
X13654996Y54424166D02*
X13823355Y54525182D01*
X13823355Y54525182D02*
X13991714Y54693540D01*
X13991714Y54693540D02*
X14092729Y54861899D01*
X14092729Y54861899D02*
X14126401Y54962914D01*
X14126401Y54962914D02*
X14126401Y55030258D01*
X14126401Y55030258D02*
X14092729Y55131273D01*
X13116248Y55232289D02*
X12577500Y55771037D01*
X11971409Y55838380D02*
X12678516Y56545487D01*
X12678516Y56545487D02*
X12409142Y56814861D01*
X12409142Y56814861D02*
X12308126Y56848532D01*
X12308126Y56848532D02*
X12240783Y56848532D01*
X12240783Y56848532D02*
X12139768Y56814861D01*
X12139768Y56814861D02*
X12038752Y56713845D01*
X12038752Y56713845D02*
X12005081Y56612830D01*
X12005081Y56612830D02*
X12005081Y56545487D01*
X12005081Y56545487D02*
X12038752Y56444471D01*
X12038752Y56444471D02*
X12308126Y56175097D01*
X11398989Y57151578D02*
X11264302Y57218922D01*
X11264302Y57218922D02*
X11196959Y57218922D01*
X11196959Y57218922D02*
X11095943Y57185250D01*
X11095943Y57185250D02*
X10994928Y57084235D01*
X10994928Y57084235D02*
X10961256Y56983219D01*
X10961256Y56983219D02*
X10961256Y56915876D01*
X10961256Y56915876D02*
X10994928Y56814861D01*
X10994928Y56814861D02*
X11264302Y56545487D01*
X11264302Y56545487D02*
X11971409Y57252593D01*
X11971409Y57252593D02*
X11735707Y57488296D01*
X11735707Y57488296D02*
X11634691Y57521967D01*
X11634691Y57521967D02*
X11567348Y57521967D01*
X11567348Y57521967D02*
X11466333Y57488296D01*
X11466333Y57488296D02*
X11398989Y57420952D01*
X11398989Y57420952D02*
X11365317Y57319937D01*
X11365317Y57319937D02*
X11365317Y57252593D01*
X11365317Y57252593D02*
X11398989Y57151578D01*
X11398989Y57151578D02*
X11634691Y56915876D01*
X10186806Y57622983D02*
X10590867Y57218922D01*
X10388837Y57420952D02*
X11095943Y58128059D01*
X11095943Y58128059D02*
X11062272Y57959700D01*
X11062272Y57959700D02*
X11062272Y57825013D01*
X11062272Y57825013D02*
X11095943Y57723998D01*
X9513371Y58296418D02*
X9917432Y57892357D01*
X9715401Y58094387D02*
X10422508Y58801494D01*
X10422508Y58801494D02*
X10388836Y58633135D01*
X10388836Y58633135D02*
X10388836Y58498448D01*
X10388836Y58498448D02*
X10422508Y58397433D01*
D10*
X30474411Y88948848D02*
X29869649Y88948848D01*
X30595363Y88585991D02*
X30172030Y89855991D01*
X30172030Y89855991D02*
X29748696Y88585991D01*
D11*
X19033713Y47662181D02*
X18414666Y47662181D01*
X18414666Y47662181D02*
X18747999Y47281229D01*
X18747999Y47281229D02*
X18605142Y47281229D01*
X18605142Y47281229D02*
X18509904Y47233610D01*
X18509904Y47233610D02*
X18462285Y47185991D01*
X18462285Y47185991D02*
X18414666Y47090753D01*
X18414666Y47090753D02*
X18414666Y46852658D01*
X18414666Y46852658D02*
X18462285Y46757420D01*
X18462285Y46757420D02*
X18509904Y46709800D01*
X18509904Y46709800D02*
X18605142Y46662181D01*
X18605142Y46662181D02*
X18890856Y46662181D01*
X18890856Y46662181D02*
X18986094Y46709800D01*
X18986094Y46709800D02*
X19033713Y46757420D01*
X17795618Y47662181D02*
X17700380Y47662181D01*
X17700380Y47662181D02*
X17605142Y47614562D01*
X17605142Y47614562D02*
X17557523Y47566943D01*
X17557523Y47566943D02*
X17509904Y47471705D01*
X17509904Y47471705D02*
X17462285Y47281229D01*
X17462285Y47281229D02*
X17462285Y47043134D01*
X17462285Y47043134D02*
X17509904Y46852658D01*
X17509904Y46852658D02*
X17557523Y46757420D01*
X17557523Y46757420D02*
X17605142Y46709800D01*
X17605142Y46709800D02*
X17700380Y46662181D01*
X17700380Y46662181D02*
X17795618Y46662181D01*
X17795618Y46662181D02*
X17890856Y46709800D01*
X17890856Y46709800D02*
X17938475Y46757420D01*
X17938475Y46757420D02*
X17986094Y46852658D01*
X17986094Y46852658D02*
X18033713Y47043134D01*
X18033713Y47043134D02*
X18033713Y47281229D01*
X18033713Y47281229D02*
X17986094Y47471705D01*
X17986094Y47471705D02*
X17938475Y47566943D01*
X17938475Y47566943D02*
X17890856Y47614562D01*
X17890856Y47614562D02*
X17795618Y47662181D01*
X17033713Y47043134D02*
X16271809Y47043134D01*
X15938475Y47662181D02*
X15605142Y46662181D01*
X15605142Y46662181D02*
X15271809Y47662181D01*
X14367047Y46757420D02*
X14414666Y46709800D01*
X14414666Y46709800D02*
X14557523Y46662181D01*
X14557523Y46662181D02*
X14652761Y46662181D01*
X14652761Y46662181D02*
X14795618Y46709800D01*
X14795618Y46709800D02*
X14890856Y46805039D01*
X14890856Y46805039D02*
X14938475Y46900277D01*
X14938475Y46900277D02*
X14986094Y47090753D01*
X14986094Y47090753D02*
X14986094Y47233610D01*
X14986094Y47233610D02*
X14938475Y47424086D01*
X14938475Y47424086D02*
X14890856Y47519324D01*
X14890856Y47519324D02*
X14795618Y47614562D01*
X14795618Y47614562D02*
X14652761Y47662181D01*
X14652761Y47662181D02*
X14557523Y47662181D01*
X14557523Y47662181D02*
X14414666Y47614562D01*
X14414666Y47614562D02*
X14367047Y47566943D01*
X13986094Y46947896D02*
X13509904Y46947896D01*
X14081332Y46662181D02*
X13747999Y47662181D01*
X13747999Y47662181D02*
X13414666Y46662181D01*
X13081332Y46662181D02*
X13081332Y47662181D01*
X13081332Y47662181D02*
X12700380Y47662181D01*
X12700380Y47662181D02*
X12605142Y47614562D01*
X12605142Y47614562D02*
X12557523Y47566943D01*
X12557523Y47566943D02*
X12509904Y47471705D01*
X12509904Y47471705D02*
X12509904Y47328848D01*
X12509904Y47328848D02*
X12557523Y47233610D01*
X12557523Y47233610D02*
X12605142Y47185991D01*
X12605142Y47185991D02*
X12700380Y47138372D01*
X12700380Y47138372D02*
X13081332Y47138372D01*
D12*
X38031247Y83382177D02*
X38031247Y82148463D01*
X38031247Y82148463D02*
X37958676Y82003320D01*
X37958676Y82003320D02*
X37886105Y81930748D01*
X37886105Y81930748D02*
X37740962Y81858177D01*
X37740962Y81858177D02*
X37450676Y81858177D01*
X37450676Y81858177D02*
X37305533Y81930748D01*
X37305533Y81930748D02*
X37232962Y82003320D01*
X37232962Y82003320D02*
X37160390Y82148463D01*
X37160390Y82148463D02*
X37160390Y83382177D01*
X36507248Y81930748D02*
X36289534Y81858177D01*
X36289534Y81858177D02*
X35926676Y81858177D01*
X35926676Y81858177D02*
X35781534Y81930748D01*
X35781534Y81930748D02*
X35708962Y82003320D01*
X35708962Y82003320D02*
X35636391Y82148463D01*
X35636391Y82148463D02*
X35636391Y82293606D01*
X35636391Y82293606D02*
X35708962Y82438748D01*
X35708962Y82438748D02*
X35781534Y82511320D01*
X35781534Y82511320D02*
X35926676Y82583891D01*
X35926676Y82583891D02*
X36216962Y82656463D01*
X36216962Y82656463D02*
X36362105Y82729034D01*
X36362105Y82729034D02*
X36434676Y82801606D01*
X36434676Y82801606D02*
X36507248Y82946748D01*
X36507248Y82946748D02*
X36507248Y83091891D01*
X36507248Y83091891D02*
X36434676Y83237034D01*
X36434676Y83237034D02*
X36362105Y83309606D01*
X36362105Y83309606D02*
X36216962Y83382177D01*
X36216962Y83382177D02*
X35854105Y83382177D01*
X35854105Y83382177D02*
X35636391Y83309606D01*
X34475247Y82656463D02*
X34257533Y82583891D01*
X34257533Y82583891D02*
X34184962Y82511320D01*
X34184962Y82511320D02*
X34112390Y82366177D01*
X34112390Y82366177D02*
X34112390Y82148463D01*
X34112390Y82148463D02*
X34184962Y82003320D01*
X34184962Y82003320D02*
X34257533Y81930748D01*
X34257533Y81930748D02*
X34402676Y81858177D01*
X34402676Y81858177D02*
X34983247Y81858177D01*
X34983247Y81858177D02*
X34983247Y83382177D01*
X34983247Y83382177D02*
X34475247Y83382177D01*
X34475247Y83382177D02*
X34330105Y83309606D01*
X34330105Y83309606D02*
X34257533Y83237034D01*
X34257533Y83237034D02*
X34184962Y83091891D01*
X34184962Y83091891D02*
X34184962Y82946748D01*
X34184962Y82946748D02*
X34257533Y82801606D01*
X34257533Y82801606D02*
X34330105Y82729034D01*
X34330105Y82729034D02*
X34475247Y82656463D01*
X34475247Y82656463D02*
X34983247Y82656463D01*
D11*
X34760819Y79850952D02*
X35570342Y79850952D01*
X35570342Y79850952D02*
X35665580Y79803333D01*
X35665580Y79803333D02*
X35713200Y79755714D01*
X35713200Y79755714D02*
X35760819Y79660476D01*
X35760819Y79660476D02*
X35760819Y79470000D01*
X35760819Y79470000D02*
X35713200Y79374762D01*
X35713200Y79374762D02*
X35665580Y79327143D01*
X35665580Y79327143D02*
X35570342Y79279524D01*
X35570342Y79279524D02*
X34760819Y79279524D01*
X35713200Y78850952D02*
X35760819Y78708095D01*
X35760819Y78708095D02*
X35760819Y78470000D01*
X35760819Y78470000D02*
X35713200Y78374762D01*
X35713200Y78374762D02*
X35665580Y78327143D01*
X35665580Y78327143D02*
X35570342Y78279524D01*
X35570342Y78279524D02*
X35475104Y78279524D01*
X35475104Y78279524D02*
X35379866Y78327143D01*
X35379866Y78327143D02*
X35332247Y78374762D01*
X35332247Y78374762D02*
X35284628Y78470000D01*
X35284628Y78470000D02*
X35237009Y78660476D01*
X35237009Y78660476D02*
X35189390Y78755714D01*
X35189390Y78755714D02*
X35141771Y78803333D01*
X35141771Y78803333D02*
X35046533Y78850952D01*
X35046533Y78850952D02*
X34951295Y78850952D01*
X34951295Y78850952D02*
X34856057Y78803333D01*
X34856057Y78803333D02*
X34808438Y78755714D01*
X34808438Y78755714D02*
X34760819Y78660476D01*
X34760819Y78660476D02*
X34760819Y78422381D01*
X34760819Y78422381D02*
X34808438Y78279524D01*
X35237009Y77517619D02*
X35284628Y77374762D01*
X35284628Y77374762D02*
X35332247Y77327143D01*
X35332247Y77327143D02*
X35427485Y77279524D01*
X35427485Y77279524D02*
X35570342Y77279524D01*
X35570342Y77279524D02*
X35665580Y77327143D01*
X35665580Y77327143D02*
X35713200Y77374762D01*
X35713200Y77374762D02*
X35760819Y77470000D01*
X35760819Y77470000D02*
X35760819Y77850952D01*
X35760819Y77850952D02*
X34760819Y77850952D01*
X34760819Y77850952D02*
X34760819Y77517619D01*
X34760819Y77517619D02*
X34808438Y77422381D01*
X34808438Y77422381D02*
X34856057Y77374762D01*
X34856057Y77374762D02*
X34951295Y77327143D01*
X34951295Y77327143D02*
X35046533Y77327143D01*
X35046533Y77327143D02*
X35141771Y77374762D01*
X35141771Y77374762D02*
X35189390Y77422381D01*
X35189390Y77422381D02*
X35237009Y77517619D01*
X35237009Y77517619D02*
X35237009Y77850952D01*
X35856057Y77089047D02*
X35856057Y76327143D01*
X35760819Y76089047D02*
X34760819Y76089047D01*
X35760819Y75612857D02*
X34760819Y75612857D01*
X34760819Y75612857D02*
X34760819Y75374762D01*
X34760819Y75374762D02*
X34808438Y75231905D01*
X34808438Y75231905D02*
X34903676Y75136667D01*
X34903676Y75136667D02*
X34998914Y75089048D01*
X34998914Y75089048D02*
X35189390Y75041429D01*
X35189390Y75041429D02*
X35332247Y75041429D01*
X35332247Y75041429D02*
X35522723Y75089048D01*
X35522723Y75089048D02*
X35617961Y75136667D01*
X35617961Y75136667D02*
X35713200Y75231905D01*
X35713200Y75231905D02*
X35760819Y75374762D01*
X35760819Y75374762D02*
X35760819Y75612857D01*
D13*
X38179046Y65842570D02*
X37888760Y65745809D01*
X37888760Y65745809D02*
X37404951Y65745809D01*
X37404951Y65745809D02*
X37211427Y65842570D01*
X37211427Y65842570D02*
X37114665Y65939332D01*
X37114665Y65939332D02*
X37017903Y66132856D01*
X37017903Y66132856D02*
X37017903Y66326380D01*
X37017903Y66326380D02*
X37114665Y66519904D01*
X37114665Y66519904D02*
X37211427Y66616666D01*
X37211427Y66616666D02*
X37404951Y66713428D01*
X37404951Y66713428D02*
X37791998Y66810190D01*
X37791998Y66810190D02*
X37985522Y66906951D01*
X37985522Y66906951D02*
X38082284Y67003713D01*
X38082284Y67003713D02*
X38179046Y67197237D01*
X38179046Y67197237D02*
X38179046Y67390761D01*
X38179046Y67390761D02*
X38082284Y67584285D01*
X38082284Y67584285D02*
X37985522Y67681047D01*
X37985522Y67681047D02*
X37791998Y67777809D01*
X37791998Y67777809D02*
X37308189Y67777809D01*
X37308189Y67777809D02*
X37017903Y67681047D01*
X36437332Y67777809D02*
X35276189Y67777809D01*
X35856760Y65745809D02*
X35856760Y67777809D01*
X34598856Y65745809D02*
X34598856Y67777809D01*
X34598856Y67777809D02*
X33921523Y66326380D01*
X33921523Y66326380D02*
X33244189Y67777809D01*
X33244189Y67777809D02*
X33244189Y65745809D01*
X32470094Y67777809D02*
X31212189Y67777809D01*
X31212189Y67777809D02*
X31889522Y67003713D01*
X31889522Y67003713D02*
X31599237Y67003713D01*
X31599237Y67003713D02*
X31405713Y66906951D01*
X31405713Y66906951D02*
X31308951Y66810190D01*
X31308951Y66810190D02*
X31212189Y66616666D01*
X31212189Y66616666D02*
X31212189Y66132856D01*
X31212189Y66132856D02*
X31308951Y65939332D01*
X31308951Y65939332D02*
X31405713Y65842570D01*
X31405713Y65842570D02*
X31599237Y65745809D01*
X31599237Y65745809D02*
X32179808Y65745809D01*
X32179808Y65745809D02*
X32373332Y65842570D01*
X32373332Y65842570D02*
X32470094Y65939332D01*
X30438094Y67584285D02*
X30341332Y67681047D01*
X30341332Y67681047D02*
X30147808Y67777809D01*
X30147808Y67777809D02*
X29663999Y67777809D01*
X29663999Y67777809D02*
X29470475Y67681047D01*
X29470475Y67681047D02*
X29373713Y67584285D01*
X29373713Y67584285D02*
X29276951Y67390761D01*
X29276951Y67390761D02*
X29276951Y67197237D01*
X29276951Y67197237D02*
X29373713Y66906951D01*
X29373713Y66906951D02*
X30534856Y65745809D01*
X30534856Y65745809D02*
X29276951Y65745809D01*
X27148190Y67777809D02*
X25987047Y67777809D01*
X26567618Y65745809D02*
X26567618Y67777809D01*
X23955047Y65552285D02*
X24148571Y65649047D01*
X24148571Y65649047D02*
X24342095Y65842570D01*
X24342095Y65842570D02*
X24632381Y66132856D01*
X24632381Y66132856D02*
X24825904Y66229618D01*
X24825904Y66229618D02*
X25019428Y66229618D01*
X24922666Y65745809D02*
X25116190Y65842570D01*
X25116190Y65842570D02*
X25309714Y66036094D01*
X25309714Y66036094D02*
X25406476Y66423142D01*
X25406476Y66423142D02*
X25406476Y67100475D01*
X25406476Y67100475D02*
X25309714Y67487523D01*
X25309714Y67487523D02*
X25116190Y67681047D01*
X25116190Y67681047D02*
X24922666Y67777809D01*
X24922666Y67777809D02*
X24535619Y67777809D01*
X24535619Y67777809D02*
X24342095Y67681047D01*
X24342095Y67681047D02*
X24148571Y67487523D01*
X24148571Y67487523D02*
X24051809Y67100475D01*
X24051809Y67100475D02*
X24051809Y66423142D01*
X24051809Y66423142D02*
X24148571Y66036094D01*
X24148571Y66036094D02*
X24342095Y65842570D01*
X24342095Y65842570D02*
X24535619Y65745809D01*
X24535619Y65745809D02*
X24922666Y65745809D01*
X22310095Y67777809D02*
X22697142Y67777809D01*
X22697142Y67777809D02*
X22890666Y67681047D01*
X22890666Y67681047D02*
X22987428Y67584285D01*
X22987428Y67584285D02*
X23180952Y67293999D01*
X23180952Y67293999D02*
X23277714Y66906951D01*
X23277714Y66906951D02*
X23277714Y66132856D01*
X23277714Y66132856D02*
X23180952Y65939332D01*
X23180952Y65939332D02*
X23084190Y65842570D01*
X23084190Y65842570D02*
X22890666Y65745809D01*
X22890666Y65745809D02*
X22503619Y65745809D01*
X22503619Y65745809D02*
X22310095Y65842570D01*
X22310095Y65842570D02*
X22213333Y65939332D01*
X22213333Y65939332D02*
X22116571Y66132856D01*
X22116571Y66132856D02*
X22116571Y66616666D01*
X22116571Y66616666D02*
X22213333Y66810190D01*
X22213333Y66810190D02*
X22310095Y66906951D01*
X22310095Y66906951D02*
X22503619Y67003713D01*
X22503619Y67003713D02*
X22890666Y67003713D01*
X22890666Y67003713D02*
X23084190Y66906951D01*
X23084190Y66906951D02*
X23180952Y66810190D01*
X23180952Y66810190D02*
X23277714Y66616666D01*
X20374857Y67100475D02*
X20374857Y65745809D01*
X20858666Y67874570D02*
X21342476Y66423142D01*
X21342476Y66423142D02*
X20084571Y66423142D01*
X17375238Y67777809D02*
X17181715Y67777809D01*
X17181715Y67777809D02*
X16988191Y67681047D01*
X16988191Y67681047D02*
X16891429Y67584285D01*
X16891429Y67584285D02*
X16794667Y67390761D01*
X16794667Y67390761D02*
X16697905Y67003713D01*
X16697905Y67003713D02*
X16697905Y66519904D01*
X16697905Y66519904D02*
X16794667Y66132856D01*
X16794667Y66132856D02*
X16891429Y65939332D01*
X16891429Y65939332D02*
X16988191Y65842570D01*
X16988191Y65842570D02*
X17181715Y65745809D01*
X17181715Y65745809D02*
X17375238Y65745809D01*
X17375238Y65745809D02*
X17568762Y65842570D01*
X17568762Y65842570D02*
X17665524Y65939332D01*
X17665524Y65939332D02*
X17762286Y66132856D01*
X17762286Y66132856D02*
X17859048Y66519904D01*
X17859048Y66519904D02*
X17859048Y67003713D01*
X17859048Y67003713D02*
X17762286Y67390761D01*
X17762286Y67390761D02*
X17665524Y67584285D01*
X17665524Y67584285D02*
X17568762Y67681047D01*
X17568762Y67681047D02*
X17375238Y67777809D01*
X14762667Y65745809D02*
X15923810Y65745809D01*
X15343238Y65745809D02*
X15343238Y67777809D01*
X15343238Y67777809D02*
X15536762Y67487523D01*
X15536762Y67487523D02*
X15730286Y67293999D01*
X15730286Y67293999D02*
X15923810Y67197237D01*
X13988572Y66326380D02*
X13020953Y66326380D01*
X14182096Y65745809D02*
X13504762Y67777809D01*
X13504762Y67777809D02*
X12827429Y65745809D01*
D11*
X36919819Y58728952D02*
X37919819Y58395619D01*
X37919819Y58395619D02*
X36919819Y58062286D01*
X37919819Y57728952D02*
X36919819Y57728952D01*
X36919819Y57728952D02*
X36919819Y57490857D01*
X36919819Y57490857D02*
X36967438Y57348000D01*
X36967438Y57348000D02*
X37062676Y57252762D01*
X37062676Y57252762D02*
X37157914Y57205143D01*
X37157914Y57205143D02*
X37348390Y57157524D01*
X37348390Y57157524D02*
X37491247Y57157524D01*
X37491247Y57157524D02*
X37681723Y57205143D01*
X37681723Y57205143D02*
X37776961Y57252762D01*
X37776961Y57252762D02*
X37872200Y57348000D01*
X37872200Y57348000D02*
X37919819Y57490857D01*
X37919819Y57490857D02*
X37919819Y57728952D01*
X37919819Y56728952D02*
X36919819Y56728952D01*
X36919819Y56728952D02*
X36919819Y56490857D01*
X36919819Y56490857D02*
X36967438Y56348000D01*
X36967438Y56348000D02*
X37062676Y56252762D01*
X37062676Y56252762D02*
X37157914Y56205143D01*
X37157914Y56205143D02*
X37348390Y56157524D01*
X37348390Y56157524D02*
X37491247Y56157524D01*
X37491247Y56157524D02*
X37681723Y56205143D01*
X37681723Y56205143D02*
X37776961Y56252762D01*
X37776961Y56252762D02*
X37872200Y56348000D01*
X37872200Y56348000D02*
X37919819Y56490857D01*
X37919819Y56490857D02*
X37919819Y56728952D01*
X37538866Y55728952D02*
X37538866Y54967047D01*
X36919819Y54633714D02*
X37919819Y54300381D01*
X37919819Y54300381D02*
X36919819Y53967048D01*
X37919819Y53633714D02*
X36919819Y53633714D01*
X36919819Y53633714D02*
X36919819Y53395619D01*
X36919819Y53395619D02*
X36967438Y53252762D01*
X36967438Y53252762D02*
X37062676Y53157524D01*
X37062676Y53157524D02*
X37157914Y53109905D01*
X37157914Y53109905D02*
X37348390Y53062286D01*
X37348390Y53062286D02*
X37491247Y53062286D01*
X37491247Y53062286D02*
X37681723Y53109905D01*
X37681723Y53109905D02*
X37776961Y53157524D01*
X37776961Y53157524D02*
X37872200Y53252762D01*
X37872200Y53252762D02*
X37919819Y53395619D01*
X37919819Y53395619D02*
X37919819Y53633714D01*
X37919819Y52633714D02*
X36919819Y52633714D01*
X36919819Y52633714D02*
X36919819Y52395619D01*
X36919819Y52395619D02*
X36967438Y52252762D01*
X36967438Y52252762D02*
X37062676Y52157524D01*
X37062676Y52157524D02*
X37157914Y52109905D01*
X37157914Y52109905D02*
X37348390Y52062286D01*
X37348390Y52062286D02*
X37491247Y52062286D01*
X37491247Y52062286D02*
X37681723Y52109905D01*
X37681723Y52109905D02*
X37776961Y52157524D01*
X37776961Y52157524D02*
X37872200Y52252762D01*
X37872200Y52252762D02*
X37919819Y52395619D01*
X37919819Y52395619D02*
X37919819Y52633714D01*
X36919819Y51633714D02*
X37729342Y51633714D01*
X37729342Y51633714D02*
X37824580Y51586095D01*
X37824580Y51586095D02*
X37872200Y51538476D01*
X37872200Y51538476D02*
X37919819Y51443238D01*
X37919819Y51443238D02*
X37919819Y51252762D01*
X37919819Y51252762D02*
X37872200Y51157524D01*
X37872200Y51157524D02*
X37824580Y51109905D01*
X37824580Y51109905D02*
X37729342Y51062286D01*
X37729342Y51062286D02*
X36919819Y51062286D01*
X37872200Y50633714D02*
X37919819Y50490857D01*
X37919819Y50490857D02*
X37919819Y50252762D01*
X37919819Y50252762D02*
X37872200Y50157524D01*
X37872200Y50157524D02*
X37824580Y50109905D01*
X37824580Y50109905D02*
X37729342Y50062286D01*
X37729342Y50062286D02*
X37634104Y50062286D01*
X37634104Y50062286D02*
X37538866Y50109905D01*
X37538866Y50109905D02*
X37491247Y50157524D01*
X37491247Y50157524D02*
X37443628Y50252762D01*
X37443628Y50252762D02*
X37396009Y50443238D01*
X37396009Y50443238D02*
X37348390Y50538476D01*
X37348390Y50538476D02*
X37300771Y50586095D01*
X37300771Y50586095D02*
X37205533Y50633714D01*
X37205533Y50633714D02*
X37110295Y50633714D01*
X37110295Y50633714D02*
X37015057Y50586095D01*
X37015057Y50586095D02*
X36967438Y50538476D01*
X36967438Y50538476D02*
X36919819Y50443238D01*
X36919819Y50443238D02*
X36919819Y50205143D01*
X36919819Y50205143D02*
X36967438Y50062286D01*
X37396009Y49300381D02*
X37443628Y49157524D01*
X37443628Y49157524D02*
X37491247Y49109905D01*
X37491247Y49109905D02*
X37586485Y49062286D01*
X37586485Y49062286D02*
X37729342Y49062286D01*
X37729342Y49062286D02*
X37824580Y49109905D01*
X37824580Y49109905D02*
X37872200Y49157524D01*
X37872200Y49157524D02*
X37919819Y49252762D01*
X37919819Y49252762D02*
X37919819Y49633714D01*
X37919819Y49633714D02*
X36919819Y49633714D01*
X36919819Y49633714D02*
X36919819Y49300381D01*
X36919819Y49300381D02*
X36967438Y49205143D01*
X36967438Y49205143D02*
X37015057Y49157524D01*
X37015057Y49157524D02*
X37110295Y49109905D01*
X37110295Y49109905D02*
X37205533Y49109905D01*
X37205533Y49109905D02*
X37300771Y49157524D01*
X37300771Y49157524D02*
X37348390Y49205143D01*
X37348390Y49205143D02*
X37396009Y49300381D01*
X37396009Y49300381D02*
X37396009Y49633714D01*
X42385952Y32168181D02*
X42576428Y32168181D01*
X42576428Y32168181D02*
X42671666Y32120562D01*
X42671666Y32120562D02*
X42719285Y32072943D01*
X42719285Y32072943D02*
X42814523Y31930086D01*
X42814523Y31930086D02*
X42862142Y31739610D01*
X42862142Y31739610D02*
X42862142Y31358658D01*
X42862142Y31358658D02*
X42814523Y31263420D01*
X42814523Y31263420D02*
X42766904Y31215800D01*
X42766904Y31215800D02*
X42671666Y31168181D01*
X42671666Y31168181D02*
X42481190Y31168181D01*
X42481190Y31168181D02*
X42385952Y31215800D01*
X42385952Y31215800D02*
X42338333Y31263420D01*
X42338333Y31263420D02*
X42290714Y31358658D01*
X42290714Y31358658D02*
X42290714Y31596753D01*
X42290714Y31596753D02*
X42338333Y31691991D01*
X42338333Y31691991D02*
X42385952Y31739610D01*
X42385952Y31739610D02*
X42481190Y31787229D01*
X42481190Y31787229D02*
X42671666Y31787229D01*
X42671666Y31787229D02*
X42766904Y31739610D01*
X42766904Y31739610D02*
X42814523Y31691991D01*
X42814523Y31691991D02*
X42862142Y31596753D01*
X41909761Y32072943D02*
X41862142Y32120562D01*
X41862142Y32120562D02*
X41766904Y32168181D01*
X41766904Y32168181D02*
X41528809Y32168181D01*
X41528809Y32168181D02*
X41433571Y32120562D01*
X41433571Y32120562D02*
X41385952Y32072943D01*
X41385952Y32072943D02*
X41338333Y31977705D01*
X41338333Y31977705D02*
X41338333Y31882467D01*
X41338333Y31882467D02*
X41385952Y31739610D01*
X41385952Y31739610D02*
X41957380Y31168181D01*
X41957380Y31168181D02*
X41338333Y31168181D01*
X40909761Y31549134D02*
X40147857Y31549134D01*
X39671666Y31168181D02*
X39671666Y32168181D01*
X39671666Y32168181D02*
X39290714Y32168181D01*
X39290714Y32168181D02*
X39195476Y32120562D01*
X39195476Y32120562D02*
X39147857Y32072943D01*
X39147857Y32072943D02*
X39100238Y31977705D01*
X39100238Y31977705D02*
X39100238Y31834848D01*
X39100238Y31834848D02*
X39147857Y31739610D01*
X39147857Y31739610D02*
X39195476Y31691991D01*
X39195476Y31691991D02*
X39290714Y31644372D01*
X39290714Y31644372D02*
X39671666Y31644372D01*
X38338333Y31691991D02*
X38195476Y31644372D01*
X38195476Y31644372D02*
X38147857Y31596753D01*
X38147857Y31596753D02*
X38100238Y31501515D01*
X38100238Y31501515D02*
X38100238Y31358658D01*
X38100238Y31358658D02*
X38147857Y31263420D01*
X38147857Y31263420D02*
X38195476Y31215800D01*
X38195476Y31215800D02*
X38290714Y31168181D01*
X38290714Y31168181D02*
X38671666Y31168181D01*
X38671666Y31168181D02*
X38671666Y32168181D01*
X38671666Y32168181D02*
X38338333Y32168181D01*
X38338333Y32168181D02*
X38243095Y32120562D01*
X38243095Y32120562D02*
X38195476Y32072943D01*
X38195476Y32072943D02*
X38147857Y31977705D01*
X38147857Y31977705D02*
X38147857Y31882467D01*
X38147857Y31882467D02*
X38195476Y31787229D01*
X38195476Y31787229D02*
X38243095Y31739610D01*
X38243095Y31739610D02*
X38338333Y31691991D01*
X38338333Y31691991D02*
X38671666Y31691991D01*
X37624047Y31168181D02*
X37433571Y31168181D01*
X37433571Y31168181D02*
X37338333Y31215800D01*
X37338333Y31215800D02*
X37290714Y31263420D01*
X37290714Y31263420D02*
X37195476Y31406277D01*
X37195476Y31406277D02*
X37147857Y31596753D01*
X37147857Y31596753D02*
X37147857Y31977705D01*
X37147857Y31977705D02*
X37195476Y32072943D01*
X37195476Y32072943D02*
X37243095Y32120562D01*
X37243095Y32120562D02*
X37338333Y32168181D01*
X37338333Y32168181D02*
X37528809Y32168181D01*
X37528809Y32168181D02*
X37624047Y32120562D01*
X37624047Y32120562D02*
X37671666Y32072943D01*
X37671666Y32072943D02*
X37719285Y31977705D01*
X37719285Y31977705D02*
X37719285Y31739610D01*
X37719285Y31739610D02*
X37671666Y31644372D01*
X37671666Y31644372D02*
X37624047Y31596753D01*
X37624047Y31596753D02*
X37528809Y31549134D01*
X37528809Y31549134D02*
X37338333Y31549134D01*
X37338333Y31549134D02*
X37243095Y31596753D01*
X37243095Y31596753D02*
X37195476Y31644372D01*
X37195476Y31644372D02*
X37147857Y31739610D01*
X24104166Y76615181D02*
X24437499Y77091372D01*
X24675594Y76615181D02*
X24675594Y77615181D01*
X24675594Y77615181D02*
X24294642Y77615181D01*
X24294642Y77615181D02*
X24199404Y77567562D01*
X24199404Y77567562D02*
X24151785Y77519943D01*
X24151785Y77519943D02*
X24104166Y77424705D01*
X24104166Y77424705D02*
X24104166Y77281848D01*
X24104166Y77281848D02*
X24151785Y77186610D01*
X24151785Y77186610D02*
X24199404Y77138991D01*
X24199404Y77138991D02*
X24294642Y77091372D01*
X24294642Y77091372D02*
X24675594Y77091372D01*
X23723213Y77519943D02*
X23675594Y77567562D01*
X23675594Y77567562D02*
X23580356Y77615181D01*
X23580356Y77615181D02*
X23342261Y77615181D01*
X23342261Y77615181D02*
X23247023Y77567562D01*
X23247023Y77567562D02*
X23199404Y77519943D01*
X23199404Y77519943D02*
X23151785Y77424705D01*
X23151785Y77424705D02*
X23151785Y77329467D01*
X23151785Y77329467D02*
X23199404Y77186610D01*
X23199404Y77186610D02*
X23770832Y76615181D01*
X23770832Y76615181D02*
X23151785Y76615181D01*
X41872819Y21407334D02*
X42587104Y21407334D01*
X42587104Y21407334D02*
X42729961Y21454953D01*
X42729961Y21454953D02*
X42825200Y21550191D01*
X42825200Y21550191D02*
X42872819Y21693048D01*
X42872819Y21693048D02*
X42872819Y21788286D01*
X42872819Y20931143D02*
X41872819Y20931143D01*
X41872819Y20931143D02*
X41872819Y20550191D01*
X41872819Y20550191D02*
X41920438Y20454953D01*
X41920438Y20454953D02*
X41968057Y20407334D01*
X41968057Y20407334D02*
X42063295Y20359715D01*
X42063295Y20359715D02*
X42206152Y20359715D01*
X42206152Y20359715D02*
X42301390Y20407334D01*
X42301390Y20407334D02*
X42349009Y20454953D01*
X42349009Y20454953D02*
X42396628Y20550191D01*
X42396628Y20550191D02*
X42396628Y20931143D01*
X41872819Y19454953D02*
X41872819Y19931143D01*
X41872819Y19931143D02*
X42349009Y19978762D01*
X42349009Y19978762D02*
X42301390Y19931143D01*
X42301390Y19931143D02*
X42253771Y19835905D01*
X42253771Y19835905D02*
X42253771Y19597810D01*
X42253771Y19597810D02*
X42301390Y19502572D01*
X42301390Y19502572D02*
X42349009Y19454953D01*
X42349009Y19454953D02*
X42444247Y19407334D01*
X42444247Y19407334D02*
X42682342Y19407334D01*
X42682342Y19407334D02*
X42777580Y19454953D01*
X42777580Y19454953D02*
X42825200Y19502572D01*
X42825200Y19502572D02*
X42872819Y19597810D01*
X42872819Y19597810D02*
X42872819Y19835905D01*
X42872819Y19835905D02*
X42825200Y19931143D01*
X42825200Y19931143D02*
X42777580Y19978762D01*
X12834857Y48662420D02*
X12882476Y48614800D01*
X12882476Y48614800D02*
X13025333Y48567181D01*
X13025333Y48567181D02*
X13120571Y48567181D01*
X13120571Y48567181D02*
X13263428Y48614800D01*
X13263428Y48614800D02*
X13358666Y48710039D01*
X13358666Y48710039D02*
X13406285Y48805277D01*
X13406285Y48805277D02*
X13453904Y48995753D01*
X13453904Y48995753D02*
X13453904Y49138610D01*
X13453904Y49138610D02*
X13406285Y49329086D01*
X13406285Y49329086D02*
X13358666Y49424324D01*
X13358666Y49424324D02*
X13263428Y49519562D01*
X13263428Y49519562D02*
X13120571Y49567181D01*
X13120571Y49567181D02*
X13025333Y49567181D01*
X13025333Y49567181D02*
X12882476Y49519562D01*
X12882476Y49519562D02*
X12834857Y49471943D01*
X11882476Y48567181D02*
X12453904Y48567181D01*
X12168190Y48567181D02*
X12168190Y49567181D01*
X12168190Y49567181D02*
X12263428Y49424324D01*
X12263428Y49424324D02*
X12358666Y49329086D01*
X12358666Y49329086D02*
X12453904Y49281467D01*
X11263428Y49567181D02*
X11168190Y49567181D01*
X11168190Y49567181D02*
X11072952Y49519562D01*
X11072952Y49519562D02*
X11025333Y49471943D01*
X11025333Y49471943D02*
X10977714Y49376705D01*
X10977714Y49376705D02*
X10930095Y49186229D01*
X10930095Y49186229D02*
X10930095Y48948134D01*
X10930095Y48948134D02*
X10977714Y48757658D01*
X10977714Y48757658D02*
X11025333Y48662420D01*
X11025333Y48662420D02*
X11072952Y48614800D01*
X11072952Y48614800D02*
X11168190Y48567181D01*
X11168190Y48567181D02*
X11263428Y48567181D01*
X11263428Y48567181D02*
X11358666Y48614800D01*
X11358666Y48614800D02*
X11406285Y48662420D01*
X11406285Y48662420D02*
X11453904Y48757658D01*
X11453904Y48757658D02*
X11501523Y48948134D01*
X11501523Y48948134D02*
X11501523Y49186229D01*
X11501523Y49186229D02*
X11453904Y49376705D01*
X11453904Y49376705D02*
X11406285Y49471943D01*
X11406285Y49471943D02*
X11358666Y49519562D01*
X11358666Y49519562D02*
X11263428Y49567181D01*
X25788094Y86015181D02*
X25788094Y87015181D01*
X25788094Y87015181D02*
X25549999Y87015181D01*
X25549999Y87015181D02*
X25407142Y86967562D01*
X25407142Y86967562D02*
X25311904Y86872324D01*
X25311904Y86872324D02*
X25264285Y86777086D01*
X25264285Y86777086D02*
X25216666Y86586610D01*
X25216666Y86586610D02*
X25216666Y86443753D01*
X25216666Y86443753D02*
X25264285Y86253277D01*
X25264285Y86253277D02*
X25311904Y86158039D01*
X25311904Y86158039D02*
X25407142Y86062800D01*
X25407142Y86062800D02*
X25549999Y86015181D01*
X25549999Y86015181D02*
X25788094Y86015181D01*
X24835713Y86919943D02*
X24788094Y86967562D01*
X24788094Y86967562D02*
X24692856Y87015181D01*
X24692856Y87015181D02*
X24454761Y87015181D01*
X24454761Y87015181D02*
X24359523Y86967562D01*
X24359523Y86967562D02*
X24311904Y86919943D01*
X24311904Y86919943D02*
X24264285Y86824705D01*
X24264285Y86824705D02*
X24264285Y86729467D01*
X24264285Y86729467D02*
X24311904Y86586610D01*
X24311904Y86586610D02*
X24883332Y86015181D01*
X24883332Y86015181D02*
X24264285Y86015181D01*
X37919306Y41836170D02*
X37919306Y41768826D01*
X37919306Y41768826D02*
X37986650Y41634139D01*
X37986650Y41634139D02*
X38053993Y41566796D01*
X38053993Y41566796D02*
X38188680Y41499452D01*
X38188680Y41499452D02*
X38323367Y41499452D01*
X38323367Y41499452D02*
X38424382Y41533124D01*
X38424382Y41533124D02*
X38592741Y41634139D01*
X38592741Y41634139D02*
X38693756Y41735154D01*
X38693756Y41735154D02*
X38794772Y41903513D01*
X38794772Y41903513D02*
X38828443Y42004528D01*
X38828443Y42004528D02*
X38828443Y42139215D01*
X38828443Y42139215D02*
X38761100Y42273902D01*
X38761100Y42273902D02*
X38693756Y42341246D01*
X38693756Y42341246D02*
X38559069Y42408589D01*
X38559069Y42408589D02*
X38491726Y42408589D01*
X37178528Y42442261D02*
X37582589Y42038200D01*
X37380558Y42240231D02*
X38087665Y42947337D01*
X38087665Y42947337D02*
X38053993Y42778979D01*
X38053993Y42778979D02*
X38053993Y42644292D01*
X38053993Y42644292D02*
X38087665Y42543276D01*
X36505092Y43115696D02*
X36909153Y42711635D01*
X36707123Y42913666D02*
X37414230Y43620773D01*
X37414230Y43620773D02*
X37380558Y43452414D01*
X37380558Y43452414D02*
X37380558Y43317727D01*
X37380558Y43317727D02*
X37414230Y43216712D01*
X24304819Y84931905D02*
X25114342Y84931905D01*
X25114342Y84931905D02*
X25209580Y84884286D01*
X25209580Y84884286D02*
X25257200Y84836667D01*
X25257200Y84836667D02*
X25304819Y84741429D01*
X25304819Y84741429D02*
X25304819Y84550953D01*
X25304819Y84550953D02*
X25257200Y84455715D01*
X25257200Y84455715D02*
X25209580Y84408096D01*
X25209580Y84408096D02*
X25114342Y84360477D01*
X25114342Y84360477D02*
X24304819Y84360477D01*
X24304819Y83979524D02*
X24304819Y83360477D01*
X24304819Y83360477D02*
X24685771Y83693810D01*
X24685771Y83693810D02*
X24685771Y83550953D01*
X24685771Y83550953D02*
X24733390Y83455715D01*
X24733390Y83455715D02*
X24781009Y83408096D01*
X24781009Y83408096D02*
X24876247Y83360477D01*
X24876247Y83360477D02*
X25114342Y83360477D01*
X25114342Y83360477D02*
X25209580Y83408096D01*
X25209580Y83408096D02*
X25257200Y83455715D01*
X25257200Y83455715D02*
X25304819Y83550953D01*
X25304819Y83550953D02*
X25304819Y83836667D01*
X25304819Y83836667D02*
X25257200Y83931905D01*
X25257200Y83931905D02*
X25209580Y83979524D01*
X33236819Y78430334D02*
X33951104Y78430334D01*
X33951104Y78430334D02*
X34093961Y78477953D01*
X34093961Y78477953D02*
X34189200Y78573191D01*
X34189200Y78573191D02*
X34236819Y78716048D01*
X34236819Y78716048D02*
X34236819Y78811286D01*
X34236819Y77954143D02*
X33236819Y77954143D01*
X33236819Y77954143D02*
X33236819Y77573191D01*
X33236819Y77573191D02*
X33284438Y77477953D01*
X33284438Y77477953D02*
X33332057Y77430334D01*
X33332057Y77430334D02*
X33427295Y77382715D01*
X33427295Y77382715D02*
X33570152Y77382715D01*
X33570152Y77382715D02*
X33665390Y77430334D01*
X33665390Y77430334D02*
X33713009Y77477953D01*
X33713009Y77477953D02*
X33760628Y77573191D01*
X33760628Y77573191D02*
X33760628Y77954143D01*
X34236819Y76430334D02*
X34236819Y77001762D01*
X34236819Y76716048D02*
X33236819Y76716048D01*
X33236819Y76716048D02*
X33379676Y76811286D01*
X33379676Y76811286D02*
X33474914Y76906524D01*
X33474914Y76906524D02*
X33522533Y77001762D01*
X12559580Y83366667D02*
X12607200Y83414286D01*
X12607200Y83414286D02*
X12654819Y83557143D01*
X12654819Y83557143D02*
X12654819Y83652381D01*
X12654819Y83652381D02*
X12607200Y83795238D01*
X12607200Y83795238D02*
X12511961Y83890476D01*
X12511961Y83890476D02*
X12416723Y83938095D01*
X12416723Y83938095D02*
X12226247Y83985714D01*
X12226247Y83985714D02*
X12083390Y83985714D01*
X12083390Y83985714D02*
X11892914Y83938095D01*
X11892914Y83938095D02*
X11797676Y83890476D01*
X11797676Y83890476D02*
X11702438Y83795238D01*
X11702438Y83795238D02*
X11654819Y83652381D01*
X11654819Y83652381D02*
X11654819Y83557143D01*
X11654819Y83557143D02*
X11702438Y83414286D01*
X11702438Y83414286D02*
X11750057Y83366667D01*
X12654819Y82414286D02*
X12654819Y82985714D01*
X12654819Y82700000D02*
X11654819Y82700000D01*
X11654819Y82700000D02*
X11797676Y82795238D01*
X11797676Y82795238D02*
X11892914Y82890476D01*
X11892914Y82890476D02*
X11940533Y82985714D01*
X12142857Y18840420D02*
X12190476Y18792800D01*
X12190476Y18792800D02*
X12333333Y18745181D01*
X12333333Y18745181D02*
X12428571Y18745181D01*
X12428571Y18745181D02*
X12571428Y18792800D01*
X12571428Y18792800D02*
X12666666Y18888039D01*
X12666666Y18888039D02*
X12714285Y18983277D01*
X12714285Y18983277D02*
X12761904Y19173753D01*
X12761904Y19173753D02*
X12761904Y19316610D01*
X12761904Y19316610D02*
X12714285Y19507086D01*
X12714285Y19507086D02*
X12666666Y19602324D01*
X12666666Y19602324D02*
X12571428Y19697562D01*
X12571428Y19697562D02*
X12428571Y19745181D01*
X12428571Y19745181D02*
X12333333Y19745181D01*
X12333333Y19745181D02*
X12190476Y19697562D01*
X12190476Y19697562D02*
X12142857Y19649943D01*
X11190476Y18745181D02*
X11761904Y18745181D01*
X11476190Y18745181D02*
X11476190Y19745181D01*
X11476190Y19745181D02*
X11571428Y19602324D01*
X11571428Y19602324D02*
X11666666Y19507086D01*
X11666666Y19507086D02*
X11761904Y19459467D01*
X10714285Y18745181D02*
X10523809Y18745181D01*
X10523809Y18745181D02*
X10428571Y18792800D01*
X10428571Y18792800D02*
X10380952Y18840420D01*
X10380952Y18840420D02*
X10285714Y18983277D01*
X10285714Y18983277D02*
X10238095Y19173753D01*
X10238095Y19173753D02*
X10238095Y19554705D01*
X10238095Y19554705D02*
X10285714Y19649943D01*
X10285714Y19649943D02*
X10333333Y19697562D01*
X10333333Y19697562D02*
X10428571Y19745181D01*
X10428571Y19745181D02*
X10619047Y19745181D01*
X10619047Y19745181D02*
X10714285Y19697562D01*
X10714285Y19697562D02*
X10761904Y19649943D01*
X10761904Y19649943D02*
X10809523Y19554705D01*
X10809523Y19554705D02*
X10809523Y19316610D01*
X10809523Y19316610D02*
X10761904Y19221372D01*
X10761904Y19221372D02*
X10714285Y19173753D01*
X10714285Y19173753D02*
X10619047Y19126134D01*
X10619047Y19126134D02*
X10428571Y19126134D01*
X10428571Y19126134D02*
X10333333Y19173753D01*
X10333333Y19173753D02*
X10285714Y19221372D01*
X10285714Y19221372D02*
X10238095Y19316610D01*
X851819Y79831905D02*
X1661342Y79831905D01*
X1661342Y79831905D02*
X1756580Y79784286D01*
X1756580Y79784286D02*
X1804200Y79736667D01*
X1804200Y79736667D02*
X1851819Y79641429D01*
X1851819Y79641429D02*
X1851819Y79450953D01*
X1851819Y79450953D02*
X1804200Y79355715D01*
X1804200Y79355715D02*
X1756580Y79308096D01*
X1756580Y79308096D02*
X1661342Y79260477D01*
X1661342Y79260477D02*
X851819Y79260477D01*
X947057Y78831905D02*
X899438Y78784286D01*
X899438Y78784286D02*
X851819Y78689048D01*
X851819Y78689048D02*
X851819Y78450953D01*
X851819Y78450953D02*
X899438Y78355715D01*
X899438Y78355715D02*
X947057Y78308096D01*
X947057Y78308096D02*
X1042295Y78260477D01*
X1042295Y78260477D02*
X1137533Y78260477D01*
X1137533Y78260477D02*
X1280390Y78308096D01*
X1280390Y78308096D02*
X1851819Y78879524D01*
X1851819Y78879524D02*
X1851819Y78260477D01*
X16216666Y76360420D02*
X16264285Y76312800D01*
X16264285Y76312800D02*
X16407142Y76265181D01*
X16407142Y76265181D02*
X16502380Y76265181D01*
X16502380Y76265181D02*
X16645237Y76312800D01*
X16645237Y76312800D02*
X16740475Y76408039D01*
X16740475Y76408039D02*
X16788094Y76503277D01*
X16788094Y76503277D02*
X16835713Y76693753D01*
X16835713Y76693753D02*
X16835713Y76836610D01*
X16835713Y76836610D02*
X16788094Y77027086D01*
X16788094Y77027086D02*
X16740475Y77122324D01*
X16740475Y77122324D02*
X16645237Y77217562D01*
X16645237Y77217562D02*
X16502380Y77265181D01*
X16502380Y77265181D02*
X16407142Y77265181D01*
X16407142Y77265181D02*
X16264285Y77217562D01*
X16264285Y77217562D02*
X16216666Y77169943D01*
X15835713Y77169943D02*
X15788094Y77217562D01*
X15788094Y77217562D02*
X15692856Y77265181D01*
X15692856Y77265181D02*
X15454761Y77265181D01*
X15454761Y77265181D02*
X15359523Y77217562D01*
X15359523Y77217562D02*
X15311904Y77169943D01*
X15311904Y77169943D02*
X15264285Y77074705D01*
X15264285Y77074705D02*
X15264285Y76979467D01*
X15264285Y76979467D02*
X15311904Y76836610D01*
X15311904Y76836610D02*
X15883332Y76265181D01*
X15883332Y76265181D02*
X15264285Y76265181D01*
X29754819Y80436667D02*
X29278628Y80770000D01*
X29754819Y81008095D02*
X28754819Y81008095D01*
X28754819Y81008095D02*
X28754819Y80627143D01*
X28754819Y80627143D02*
X28802438Y80531905D01*
X28802438Y80531905D02*
X28850057Y80484286D01*
X28850057Y80484286D02*
X28945295Y80436667D01*
X28945295Y80436667D02*
X29088152Y80436667D01*
X29088152Y80436667D02*
X29183390Y80484286D01*
X29183390Y80484286D02*
X29231009Y80531905D01*
X29231009Y80531905D02*
X29278628Y80627143D01*
X29278628Y80627143D02*
X29278628Y81008095D01*
X29754819Y79484286D02*
X29754819Y80055714D01*
X29754819Y79770000D02*
X28754819Y79770000D01*
X28754819Y79770000D02*
X28897676Y79865238D01*
X28897676Y79865238D02*
X28992914Y79960476D01*
X28992914Y79960476D02*
X29040533Y80055714D01*
X22740857Y54504420D02*
X22788476Y54456800D01*
X22788476Y54456800D02*
X22931333Y54409181D01*
X22931333Y54409181D02*
X23026571Y54409181D01*
X23026571Y54409181D02*
X23169428Y54456800D01*
X23169428Y54456800D02*
X23264666Y54552039D01*
X23264666Y54552039D02*
X23312285Y54647277D01*
X23312285Y54647277D02*
X23359904Y54837753D01*
X23359904Y54837753D02*
X23359904Y54980610D01*
X23359904Y54980610D02*
X23312285Y55171086D01*
X23312285Y55171086D02*
X23264666Y55266324D01*
X23264666Y55266324D02*
X23169428Y55361562D01*
X23169428Y55361562D02*
X23026571Y55409181D01*
X23026571Y55409181D02*
X22931333Y55409181D01*
X22931333Y55409181D02*
X22788476Y55361562D01*
X22788476Y55361562D02*
X22740857Y55313943D01*
X21788476Y54409181D02*
X22359904Y54409181D01*
X22074190Y54409181D02*
X22074190Y55409181D01*
X22074190Y55409181D02*
X22169428Y55266324D01*
X22169428Y55266324D02*
X22264666Y55171086D01*
X22264666Y55171086D02*
X22359904Y55123467D01*
X20931333Y55075848D02*
X20931333Y54409181D01*
X21169428Y55456800D02*
X21407523Y54742515D01*
X21407523Y54742515D02*
X20788476Y54742515D01*
X50016580Y81192667D02*
X50064200Y81240286D01*
X50064200Y81240286D02*
X50111819Y81383143D01*
X50111819Y81383143D02*
X50111819Y81478381D01*
X50111819Y81478381D02*
X50064200Y81621238D01*
X50064200Y81621238D02*
X49968961Y81716476D01*
X49968961Y81716476D02*
X49873723Y81764095D01*
X49873723Y81764095D02*
X49683247Y81811714D01*
X49683247Y81811714D02*
X49540390Y81811714D01*
X49540390Y81811714D02*
X49349914Y81764095D01*
X49349914Y81764095D02*
X49254676Y81716476D01*
X49254676Y81716476D02*
X49159438Y81621238D01*
X49159438Y81621238D02*
X49111819Y81478381D01*
X49111819Y81478381D02*
X49111819Y81383143D01*
X49111819Y81383143D02*
X49159438Y81240286D01*
X49159438Y81240286D02*
X49207057Y81192667D01*
X49445152Y80335524D02*
X50111819Y80335524D01*
X49064200Y80573619D02*
X49778485Y80811714D01*
X49778485Y80811714D02*
X49778485Y80192667D01*
X24235580Y33027858D02*
X24283200Y33075477D01*
X24283200Y33075477D02*
X24330819Y33218334D01*
X24330819Y33218334D02*
X24330819Y33313572D01*
X24330819Y33313572D02*
X24283200Y33456429D01*
X24283200Y33456429D02*
X24187961Y33551667D01*
X24187961Y33551667D02*
X24092723Y33599286D01*
X24092723Y33599286D02*
X23902247Y33646905D01*
X23902247Y33646905D02*
X23759390Y33646905D01*
X23759390Y33646905D02*
X23568914Y33599286D01*
X23568914Y33599286D02*
X23473676Y33551667D01*
X23473676Y33551667D02*
X23378438Y33456429D01*
X23378438Y33456429D02*
X23330819Y33313572D01*
X23330819Y33313572D02*
X23330819Y33218334D01*
X23330819Y33218334D02*
X23378438Y33075477D01*
X23378438Y33075477D02*
X23426057Y33027858D01*
X24330819Y32075477D02*
X24330819Y32646905D01*
X24330819Y32361191D02*
X23330819Y32361191D01*
X23330819Y32361191D02*
X23473676Y32456429D01*
X23473676Y32456429D02*
X23568914Y32551667D01*
X23568914Y32551667D02*
X23616533Y32646905D01*
X23759390Y31504048D02*
X23711771Y31599286D01*
X23711771Y31599286D02*
X23664152Y31646905D01*
X23664152Y31646905D02*
X23568914Y31694524D01*
X23568914Y31694524D02*
X23521295Y31694524D01*
X23521295Y31694524D02*
X23426057Y31646905D01*
X23426057Y31646905D02*
X23378438Y31599286D01*
X23378438Y31599286D02*
X23330819Y31504048D01*
X23330819Y31504048D02*
X23330819Y31313572D01*
X23330819Y31313572D02*
X23378438Y31218334D01*
X23378438Y31218334D02*
X23426057Y31170715D01*
X23426057Y31170715D02*
X23521295Y31123096D01*
X23521295Y31123096D02*
X23568914Y31123096D01*
X23568914Y31123096D02*
X23664152Y31170715D01*
X23664152Y31170715D02*
X23711771Y31218334D01*
X23711771Y31218334D02*
X23759390Y31313572D01*
X23759390Y31313572D02*
X23759390Y31504048D01*
X23759390Y31504048D02*
X23807009Y31599286D01*
X23807009Y31599286D02*
X23854628Y31646905D01*
X23854628Y31646905D02*
X23949866Y31694524D01*
X23949866Y31694524D02*
X24140342Y31694524D01*
X24140342Y31694524D02*
X24235580Y31646905D01*
X24235580Y31646905D02*
X24283200Y31599286D01*
X24283200Y31599286D02*
X24330819Y31504048D01*
X24330819Y31504048D02*
X24330819Y31313572D01*
X24330819Y31313572D02*
X24283200Y31218334D01*
X24283200Y31218334D02*
X24235580Y31170715D01*
X24235580Y31170715D02*
X24140342Y31123096D01*
X24140342Y31123096D02*
X23949866Y31123096D01*
X23949866Y31123096D02*
X23854628Y31170715D01*
X23854628Y31170715D02*
X23807009Y31218334D01*
X23807009Y31218334D02*
X23759390Y31313572D01*
X28995666Y31136420D02*
X29043285Y31088800D01*
X29043285Y31088800D02*
X29186142Y31041181D01*
X29186142Y31041181D02*
X29281380Y31041181D01*
X29281380Y31041181D02*
X29424237Y31088800D01*
X29424237Y31088800D02*
X29519475Y31184039D01*
X29519475Y31184039D02*
X29567094Y31279277D01*
X29567094Y31279277D02*
X29614713Y31469753D01*
X29614713Y31469753D02*
X29614713Y31612610D01*
X29614713Y31612610D02*
X29567094Y31803086D01*
X29567094Y31803086D02*
X29519475Y31898324D01*
X29519475Y31898324D02*
X29424237Y31993562D01*
X29424237Y31993562D02*
X29281380Y32041181D01*
X29281380Y32041181D02*
X29186142Y32041181D01*
X29186142Y32041181D02*
X29043285Y31993562D01*
X29043285Y31993562D02*
X28995666Y31945943D01*
X28138523Y32041181D02*
X28328999Y32041181D01*
X28328999Y32041181D02*
X28424237Y31993562D01*
X28424237Y31993562D02*
X28471856Y31945943D01*
X28471856Y31945943D02*
X28567094Y31803086D01*
X28567094Y31803086D02*
X28614713Y31612610D01*
X28614713Y31612610D02*
X28614713Y31231658D01*
X28614713Y31231658D02*
X28567094Y31136420D01*
X28567094Y31136420D02*
X28519475Y31088800D01*
X28519475Y31088800D02*
X28424237Y31041181D01*
X28424237Y31041181D02*
X28233761Y31041181D01*
X28233761Y31041181D02*
X28138523Y31088800D01*
X28138523Y31088800D02*
X28090904Y31136420D01*
X28090904Y31136420D02*
X28043285Y31231658D01*
X28043285Y31231658D02*
X28043285Y31469753D01*
X28043285Y31469753D02*
X28090904Y31564991D01*
X28090904Y31564991D02*
X28138523Y31612610D01*
X28138523Y31612610D02*
X28233761Y31660229D01*
X28233761Y31660229D02*
X28424237Y31660229D01*
X28424237Y31660229D02*
X28519475Y31612610D01*
X28519475Y31612610D02*
X28567094Y31564991D01*
X28567094Y31564991D02*
X28614713Y31469753D01*
X34506819Y57983334D02*
X35221104Y57983334D01*
X35221104Y57983334D02*
X35363961Y58030953D01*
X35363961Y58030953D02*
X35459200Y58126191D01*
X35459200Y58126191D02*
X35506819Y58269048D01*
X35506819Y58269048D02*
X35506819Y58364286D01*
X35506819Y57507143D02*
X34506819Y57507143D01*
X34506819Y57507143D02*
X34506819Y57126191D01*
X34506819Y57126191D02*
X34554438Y57030953D01*
X34554438Y57030953D02*
X34602057Y56983334D01*
X34602057Y56983334D02*
X34697295Y56935715D01*
X34697295Y56935715D02*
X34840152Y56935715D01*
X34840152Y56935715D02*
X34935390Y56983334D01*
X34935390Y56983334D02*
X34983009Y57030953D01*
X34983009Y57030953D02*
X35030628Y57126191D01*
X35030628Y57126191D02*
X35030628Y57507143D01*
X34602057Y56554762D02*
X34554438Y56507143D01*
X34554438Y56507143D02*
X34506819Y56411905D01*
X34506819Y56411905D02*
X34506819Y56173810D01*
X34506819Y56173810D02*
X34554438Y56078572D01*
X34554438Y56078572D02*
X34602057Y56030953D01*
X34602057Y56030953D02*
X34697295Y55983334D01*
X34697295Y55983334D02*
X34792533Y55983334D01*
X34792533Y55983334D02*
X34935390Y56030953D01*
X34935390Y56030953D02*
X35506819Y56602381D01*
X35506819Y56602381D02*
X35506819Y55983334D01*
X28995666Y33676420D02*
X29043285Y33628800D01*
X29043285Y33628800D02*
X29186142Y33581181D01*
X29186142Y33581181D02*
X29281380Y33581181D01*
X29281380Y33581181D02*
X29424237Y33628800D01*
X29424237Y33628800D02*
X29519475Y33724039D01*
X29519475Y33724039D02*
X29567094Y33819277D01*
X29567094Y33819277D02*
X29614713Y34009753D01*
X29614713Y34009753D02*
X29614713Y34152610D01*
X29614713Y34152610D02*
X29567094Y34343086D01*
X29567094Y34343086D02*
X29519475Y34438324D01*
X29519475Y34438324D02*
X29424237Y34533562D01*
X29424237Y34533562D02*
X29281380Y34581181D01*
X29281380Y34581181D02*
X29186142Y34581181D01*
X29186142Y34581181D02*
X29043285Y34533562D01*
X29043285Y34533562D02*
X28995666Y34485943D01*
X28662332Y34581181D02*
X27995666Y34581181D01*
X27995666Y34581181D02*
X28424237Y33581181D01*
X14242857Y42040420D02*
X14290476Y41992800D01*
X14290476Y41992800D02*
X14433333Y41945181D01*
X14433333Y41945181D02*
X14528571Y41945181D01*
X14528571Y41945181D02*
X14671428Y41992800D01*
X14671428Y41992800D02*
X14766666Y42088039D01*
X14766666Y42088039D02*
X14814285Y42183277D01*
X14814285Y42183277D02*
X14861904Y42373753D01*
X14861904Y42373753D02*
X14861904Y42516610D01*
X14861904Y42516610D02*
X14814285Y42707086D01*
X14814285Y42707086D02*
X14766666Y42802324D01*
X14766666Y42802324D02*
X14671428Y42897562D01*
X14671428Y42897562D02*
X14528571Y42945181D01*
X14528571Y42945181D02*
X14433333Y42945181D01*
X14433333Y42945181D02*
X14290476Y42897562D01*
X14290476Y42897562D02*
X14242857Y42849943D01*
X13290476Y41945181D02*
X13861904Y41945181D01*
X13576190Y41945181D02*
X13576190Y42945181D01*
X13576190Y42945181D02*
X13671428Y42802324D01*
X13671428Y42802324D02*
X13766666Y42707086D01*
X13766666Y42707086D02*
X13861904Y42659467D01*
X12385714Y42945181D02*
X12861904Y42945181D01*
X12861904Y42945181D02*
X12909523Y42468991D01*
X12909523Y42468991D02*
X12861904Y42516610D01*
X12861904Y42516610D02*
X12766666Y42564229D01*
X12766666Y42564229D02*
X12528571Y42564229D01*
X12528571Y42564229D02*
X12433333Y42516610D01*
X12433333Y42516610D02*
X12385714Y42468991D01*
X12385714Y42468991D02*
X12338095Y42373753D01*
X12338095Y42373753D02*
X12338095Y42135658D01*
X12338095Y42135658D02*
X12385714Y42040420D01*
X12385714Y42040420D02*
X12433333Y41992800D01*
X12433333Y41992800D02*
X12528571Y41945181D01*
X12528571Y41945181D02*
X12766666Y41945181D01*
X12766666Y41945181D02*
X12861904Y41992800D01*
X12861904Y41992800D02*
X12909523Y42040420D01*
X19816666Y4615181D02*
X20149999Y5091372D01*
X20388094Y4615181D02*
X20388094Y5615181D01*
X20388094Y5615181D02*
X20007142Y5615181D01*
X20007142Y5615181D02*
X19911904Y5567562D01*
X19911904Y5567562D02*
X19864285Y5519943D01*
X19864285Y5519943D02*
X19816666Y5424705D01*
X19816666Y5424705D02*
X19816666Y5281848D01*
X19816666Y5281848D02*
X19864285Y5186610D01*
X19864285Y5186610D02*
X19911904Y5138991D01*
X19911904Y5138991D02*
X20007142Y5091372D01*
X20007142Y5091372D02*
X20388094Y5091372D01*
X19483332Y5615181D02*
X18864285Y5615181D01*
X18864285Y5615181D02*
X19197618Y5234229D01*
X19197618Y5234229D02*
X19054761Y5234229D01*
X19054761Y5234229D02*
X18959523Y5186610D01*
X18959523Y5186610D02*
X18911904Y5138991D01*
X18911904Y5138991D02*
X18864285Y5043753D01*
X18864285Y5043753D02*
X18864285Y4805658D01*
X18864285Y4805658D02*
X18911904Y4710420D01*
X18911904Y4710420D02*
X18959523Y4662800D01*
X18959523Y4662800D02*
X19054761Y4615181D01*
X19054761Y4615181D02*
X19340475Y4615181D01*
X19340475Y4615181D02*
X19435713Y4662800D01*
X19435713Y4662800D02*
X19483332Y4710420D01*
X8666666Y10765181D02*
X9142856Y10765181D01*
X9142856Y10765181D02*
X9142856Y11765181D01*
X7809523Y10765181D02*
X8380951Y10765181D01*
X8095237Y10765181D02*
X8095237Y11765181D01*
X8095237Y11765181D02*
X8190475Y11622324D01*
X8190475Y11622324D02*
X8285713Y11527086D01*
X8285713Y11527086D02*
X8380951Y11479467D01*
X33179819Y46511905D02*
X33989342Y46511905D01*
X33989342Y46511905D02*
X34084580Y46464286D01*
X34084580Y46464286D02*
X34132200Y46416667D01*
X34132200Y46416667D02*
X34179819Y46321429D01*
X34179819Y46321429D02*
X34179819Y46130953D01*
X34179819Y46130953D02*
X34132200Y46035715D01*
X34132200Y46035715D02*
X34084580Y45988096D01*
X34084580Y45988096D02*
X33989342Y45940477D01*
X33989342Y45940477D02*
X33179819Y45940477D01*
X34179819Y44940477D02*
X34179819Y45511905D01*
X34179819Y45226191D02*
X33179819Y45226191D01*
X33179819Y45226191D02*
X33322676Y45321429D01*
X33322676Y45321429D02*
X33417914Y45416667D01*
X33417914Y45416667D02*
X33465533Y45511905D01*
X13483333Y89288991D02*
X13816666Y89288991D01*
X13816666Y88765181D02*
X13816666Y89765181D01*
X13816666Y89765181D02*
X13340476Y89765181D01*
X12435714Y88765181D02*
X13007142Y88765181D01*
X12721428Y88765181D02*
X12721428Y89765181D01*
X12721428Y89765181D02*
X12816666Y89622324D01*
X12816666Y89622324D02*
X12911904Y89527086D01*
X12911904Y89527086D02*
X13007142Y89479467D01*
X15628857Y51327420D02*
X15676476Y51279800D01*
X15676476Y51279800D02*
X15819333Y51232181D01*
X15819333Y51232181D02*
X15914571Y51232181D01*
X15914571Y51232181D02*
X16057428Y51279800D01*
X16057428Y51279800D02*
X16152666Y51375039D01*
X16152666Y51375039D02*
X16200285Y51470277D01*
X16200285Y51470277D02*
X16247904Y51660753D01*
X16247904Y51660753D02*
X16247904Y51803610D01*
X16247904Y51803610D02*
X16200285Y51994086D01*
X16200285Y51994086D02*
X16152666Y52089324D01*
X16152666Y52089324D02*
X16057428Y52184562D01*
X16057428Y52184562D02*
X15914571Y52232181D01*
X15914571Y52232181D02*
X15819333Y52232181D01*
X15819333Y52232181D02*
X15676476Y52184562D01*
X15676476Y52184562D02*
X15628857Y52136943D01*
X14676476Y51232181D02*
X15247904Y51232181D01*
X14962190Y51232181D02*
X14962190Y52232181D01*
X14962190Y52232181D02*
X15057428Y52089324D01*
X15057428Y52089324D02*
X15152666Y51994086D01*
X15152666Y51994086D02*
X15247904Y51946467D01*
X13819333Y52232181D02*
X14009809Y52232181D01*
X14009809Y52232181D02*
X14105047Y52184562D01*
X14105047Y52184562D02*
X14152666Y52136943D01*
X14152666Y52136943D02*
X14247904Y51994086D01*
X14247904Y51994086D02*
X14295523Y51803610D01*
X14295523Y51803610D02*
X14295523Y51422658D01*
X14295523Y51422658D02*
X14247904Y51327420D01*
X14247904Y51327420D02*
X14200285Y51279800D01*
X14200285Y51279800D02*
X14105047Y51232181D01*
X14105047Y51232181D02*
X13914571Y51232181D01*
X13914571Y51232181D02*
X13819333Y51279800D01*
X13819333Y51279800D02*
X13771714Y51327420D01*
X13771714Y51327420D02*
X13724095Y51422658D01*
X13724095Y51422658D02*
X13724095Y51660753D01*
X13724095Y51660753D02*
X13771714Y51755991D01*
X13771714Y51755991D02*
X13819333Y51803610D01*
X13819333Y51803610D02*
X13914571Y51851229D01*
X13914571Y51851229D02*
X14105047Y51851229D01*
X14105047Y51851229D02*
X14200285Y51803610D01*
X14200285Y51803610D02*
X14247904Y51755991D01*
X14247904Y51755991D02*
X14295523Y51660753D01*
X25185666Y23770420D02*
X25233285Y23722800D01*
X25233285Y23722800D02*
X25376142Y23675181D01*
X25376142Y23675181D02*
X25471380Y23675181D01*
X25471380Y23675181D02*
X25614237Y23722800D01*
X25614237Y23722800D02*
X25709475Y23818039D01*
X25709475Y23818039D02*
X25757094Y23913277D01*
X25757094Y23913277D02*
X25804713Y24103753D01*
X25804713Y24103753D02*
X25804713Y24246610D01*
X25804713Y24246610D02*
X25757094Y24437086D01*
X25757094Y24437086D02*
X25709475Y24532324D01*
X25709475Y24532324D02*
X25614237Y24627562D01*
X25614237Y24627562D02*
X25471380Y24675181D01*
X25471380Y24675181D02*
X25376142Y24675181D01*
X25376142Y24675181D02*
X25233285Y24627562D01*
X25233285Y24627562D02*
X25185666Y24579943D01*
X24709475Y23675181D02*
X24518999Y23675181D01*
X24518999Y23675181D02*
X24423761Y23722800D01*
X24423761Y23722800D02*
X24376142Y23770420D01*
X24376142Y23770420D02*
X24280904Y23913277D01*
X24280904Y23913277D02*
X24233285Y24103753D01*
X24233285Y24103753D02*
X24233285Y24484705D01*
X24233285Y24484705D02*
X24280904Y24579943D01*
X24280904Y24579943D02*
X24328523Y24627562D01*
X24328523Y24627562D02*
X24423761Y24675181D01*
X24423761Y24675181D02*
X24614237Y24675181D01*
X24614237Y24675181D02*
X24709475Y24627562D01*
X24709475Y24627562D02*
X24757094Y24579943D01*
X24757094Y24579943D02*
X24804713Y24484705D01*
X24804713Y24484705D02*
X24804713Y24246610D01*
X24804713Y24246610D02*
X24757094Y24151372D01*
X24757094Y24151372D02*
X24709475Y24103753D01*
X24709475Y24103753D02*
X24614237Y24056134D01*
X24614237Y24056134D02*
X24423761Y24056134D01*
X24423761Y24056134D02*
X24328523Y24103753D01*
X24328523Y24103753D02*
X24280904Y24151372D01*
X24280904Y24151372D02*
X24233285Y24246610D01*
X10499756Y52628246D02*
X9994680Y52123170D01*
X9994680Y52123170D02*
X9927337Y51988483D01*
X9927337Y51988483D02*
X9927337Y51853796D01*
X9927337Y51853796D02*
X9994680Y51719109D01*
X9994680Y51719109D02*
X10062024Y51651765D01*
X9455932Y52257857D02*
X10163039Y52964964D01*
X10163039Y52964964D02*
X9893665Y53234338D01*
X9893665Y53234338D02*
X9792649Y53268009D01*
X9792649Y53268009D02*
X9725306Y53268009D01*
X9725306Y53268009D02*
X9624291Y53234338D01*
X9624291Y53234338D02*
X9523275Y53133322D01*
X9523275Y53133322D02*
X9489604Y53032307D01*
X9489604Y53032307D02*
X9489604Y52964964D01*
X9489604Y52964964D02*
X9523275Y52863948D01*
X9523275Y52863948D02*
X9792649Y52594574D01*
X9523275Y53604727D02*
X9085543Y54042460D01*
X9085543Y54042460D02*
X9051871Y53537383D01*
X9051871Y53537383D02*
X8950856Y53638399D01*
X8950856Y53638399D02*
X8849840Y53672070D01*
X8849840Y53672070D02*
X8782497Y53672070D01*
X8782497Y53672070D02*
X8681482Y53638399D01*
X8681482Y53638399D02*
X8513123Y53470040D01*
X8513123Y53470040D02*
X8479451Y53369025D01*
X8479451Y53369025D02*
X8479451Y53301681D01*
X8479451Y53301681D02*
X8513123Y53200666D01*
X8513123Y53200666D02*
X8715153Y52998635D01*
X8715153Y52998635D02*
X8816169Y52964964D01*
X8816169Y52964964D02*
X8883512Y52964964D01*
X42833333Y90465181D02*
X42833333Y89750896D01*
X42833333Y89750896D02*
X42880952Y89608039D01*
X42880952Y89608039D02*
X42976190Y89512800D01*
X42976190Y89512800D02*
X43119047Y89465181D01*
X43119047Y89465181D02*
X43214285Y89465181D01*
X41928571Y90465181D02*
X42119047Y90465181D01*
X42119047Y90465181D02*
X42214285Y90417562D01*
X42214285Y90417562D02*
X42261904Y90369943D01*
X42261904Y90369943D02*
X42357142Y90227086D01*
X42357142Y90227086D02*
X42404761Y90036610D01*
X42404761Y90036610D02*
X42404761Y89655658D01*
X42404761Y89655658D02*
X42357142Y89560420D01*
X42357142Y89560420D02*
X42309523Y89512800D01*
X42309523Y89512800D02*
X42214285Y89465181D01*
X42214285Y89465181D02*
X42023809Y89465181D01*
X42023809Y89465181D02*
X41928571Y89512800D01*
X41928571Y89512800D02*
X41880952Y89560420D01*
X41880952Y89560420D02*
X41833333Y89655658D01*
X41833333Y89655658D02*
X41833333Y89893753D01*
X41833333Y89893753D02*
X41880952Y89988991D01*
X41880952Y89988991D02*
X41928571Y90036610D01*
X41928571Y90036610D02*
X42023809Y90084229D01*
X42023809Y90084229D02*
X42214285Y90084229D01*
X42214285Y90084229D02*
X42309523Y90036610D01*
X42309523Y90036610D02*
X42357142Y89988991D01*
X42357142Y89988991D02*
X42404761Y89893753D01*
X13154819Y86336095D02*
X12154819Y86336095D01*
X12154819Y86336095D02*
X12154819Y86098000D01*
X12154819Y86098000D02*
X12202438Y85955143D01*
X12202438Y85955143D02*
X12297676Y85859905D01*
X12297676Y85859905D02*
X12392914Y85812286D01*
X12392914Y85812286D02*
X12583390Y85764667D01*
X12583390Y85764667D02*
X12726247Y85764667D01*
X12726247Y85764667D02*
X12916723Y85812286D01*
X12916723Y85812286D02*
X13011961Y85859905D01*
X13011961Y85859905D02*
X13107200Y85955143D01*
X13107200Y85955143D02*
X13154819Y86098000D01*
X13154819Y86098000D02*
X13154819Y86336095D01*
X13154819Y84812286D02*
X13154819Y85383714D01*
X13154819Y85098000D02*
X12154819Y85098000D01*
X12154819Y85098000D02*
X12297676Y85193238D01*
X12297676Y85193238D02*
X12392914Y85288476D01*
X12392914Y85288476D02*
X12440533Y85383714D01*
X35599666Y23770420D02*
X35647285Y23722800D01*
X35647285Y23722800D02*
X35790142Y23675181D01*
X35790142Y23675181D02*
X35885380Y23675181D01*
X35885380Y23675181D02*
X36028237Y23722800D01*
X36028237Y23722800D02*
X36123475Y23818039D01*
X36123475Y23818039D02*
X36171094Y23913277D01*
X36171094Y23913277D02*
X36218713Y24103753D01*
X36218713Y24103753D02*
X36218713Y24246610D01*
X36218713Y24246610D02*
X36171094Y24437086D01*
X36171094Y24437086D02*
X36123475Y24532324D01*
X36123475Y24532324D02*
X36028237Y24627562D01*
X36028237Y24627562D02*
X35885380Y24675181D01*
X35885380Y24675181D02*
X35790142Y24675181D01*
X35790142Y24675181D02*
X35647285Y24627562D01*
X35647285Y24627562D02*
X35599666Y24579943D01*
X35028237Y24246610D02*
X35123475Y24294229D01*
X35123475Y24294229D02*
X35171094Y24341848D01*
X35171094Y24341848D02*
X35218713Y24437086D01*
X35218713Y24437086D02*
X35218713Y24484705D01*
X35218713Y24484705D02*
X35171094Y24579943D01*
X35171094Y24579943D02*
X35123475Y24627562D01*
X35123475Y24627562D02*
X35028237Y24675181D01*
X35028237Y24675181D02*
X34837761Y24675181D01*
X34837761Y24675181D02*
X34742523Y24627562D01*
X34742523Y24627562D02*
X34694904Y24579943D01*
X34694904Y24579943D02*
X34647285Y24484705D01*
X34647285Y24484705D02*
X34647285Y24437086D01*
X34647285Y24437086D02*
X34694904Y24341848D01*
X34694904Y24341848D02*
X34742523Y24294229D01*
X34742523Y24294229D02*
X34837761Y24246610D01*
X34837761Y24246610D02*
X35028237Y24246610D01*
X35028237Y24246610D02*
X35123475Y24198991D01*
X35123475Y24198991D02*
X35171094Y24151372D01*
X35171094Y24151372D02*
X35218713Y24056134D01*
X35218713Y24056134D02*
X35218713Y23865658D01*
X35218713Y23865658D02*
X35171094Y23770420D01*
X35171094Y23770420D02*
X35123475Y23722800D01*
X35123475Y23722800D02*
X35028237Y23675181D01*
X35028237Y23675181D02*
X34837761Y23675181D01*
X34837761Y23675181D02*
X34742523Y23722800D01*
X34742523Y23722800D02*
X34694904Y23770420D01*
X34694904Y23770420D02*
X34647285Y23865658D01*
X34647285Y23865658D02*
X34647285Y24056134D01*
X34647285Y24056134D02*
X34694904Y24151372D01*
X34694904Y24151372D02*
X34742523Y24198991D01*
X34742523Y24198991D02*
X34837761Y24246610D01*
X38570819Y76834905D02*
X39380342Y76834905D01*
X39380342Y76834905D02*
X39475580Y76787286D01*
X39475580Y76787286D02*
X39523200Y76739667D01*
X39523200Y76739667D02*
X39570819Y76644429D01*
X39570819Y76644429D02*
X39570819Y76453953D01*
X39570819Y76453953D02*
X39523200Y76358715D01*
X39523200Y76358715D02*
X39475580Y76311096D01*
X39475580Y76311096D02*
X39380342Y76263477D01*
X39380342Y76263477D02*
X38570819Y76263477D01*
X38904152Y75358715D02*
X39570819Y75358715D01*
X38523200Y75596810D02*
X39237485Y75834905D01*
X39237485Y75834905D02*
X39237485Y75215858D01*
X33379580Y82208667D02*
X33427200Y82256286D01*
X33427200Y82256286D02*
X33474819Y82399143D01*
X33474819Y82399143D02*
X33474819Y82494381D01*
X33474819Y82494381D02*
X33427200Y82637238D01*
X33427200Y82637238D02*
X33331961Y82732476D01*
X33331961Y82732476D02*
X33236723Y82780095D01*
X33236723Y82780095D02*
X33046247Y82827714D01*
X33046247Y82827714D02*
X32903390Y82827714D01*
X32903390Y82827714D02*
X32712914Y82780095D01*
X32712914Y82780095D02*
X32617676Y82732476D01*
X32617676Y82732476D02*
X32522438Y82637238D01*
X32522438Y82637238D02*
X32474819Y82494381D01*
X32474819Y82494381D02*
X32474819Y82399143D01*
X32474819Y82399143D02*
X32522438Y82256286D01*
X32522438Y82256286D02*
X32570057Y82208667D01*
X32474819Y81875333D02*
X32474819Y81256286D01*
X32474819Y81256286D02*
X32855771Y81589619D01*
X32855771Y81589619D02*
X32855771Y81446762D01*
X32855771Y81446762D02*
X32903390Y81351524D01*
X32903390Y81351524D02*
X32951009Y81303905D01*
X32951009Y81303905D02*
X33046247Y81256286D01*
X33046247Y81256286D02*
X33284342Y81256286D01*
X33284342Y81256286D02*
X33379580Y81303905D01*
X33379580Y81303905D02*
X33427200Y81351524D01*
X33427200Y81351524D02*
X33474819Y81446762D01*
X33474819Y81446762D02*
X33474819Y81732476D01*
X33474819Y81732476D02*
X33427200Y81827714D01*
X33427200Y81827714D02*
X33379580Y81875333D01*
X50045579Y77382667D02*
X50093199Y77430286D01*
X50093199Y77430286D02*
X50140818Y77573143D01*
X50140818Y77573143D02*
X50140818Y77668381D01*
X50140818Y77668381D02*
X50093199Y77811238D01*
X50093199Y77811238D02*
X49997960Y77906476D01*
X49997960Y77906476D02*
X49902722Y77954095D01*
X49902722Y77954095D02*
X49712246Y78001714D01*
X49712246Y78001714D02*
X49569389Y78001714D01*
X49569389Y78001714D02*
X49378913Y77954095D01*
X49378913Y77954095D02*
X49283675Y77906476D01*
X49283675Y77906476D02*
X49188437Y77811238D01*
X49188437Y77811238D02*
X49140818Y77668381D01*
X49140818Y77668381D02*
X49140818Y77573143D01*
X49140818Y77573143D02*
X49188437Y77430286D01*
X49188437Y77430286D02*
X49236056Y77382667D01*
X49140818Y76477905D02*
X49140818Y76954095D01*
X49140818Y76954095D02*
X49617008Y77001714D01*
X49617008Y77001714D02*
X49569389Y76954095D01*
X49569389Y76954095D02*
X49521770Y76858857D01*
X49521770Y76858857D02*
X49521770Y76620762D01*
X49521770Y76620762D02*
X49569389Y76525524D01*
X49569389Y76525524D02*
X49617008Y76477905D01*
X49617008Y76477905D02*
X49712246Y76430286D01*
X49712246Y76430286D02*
X49950341Y76430286D01*
X49950341Y76430286D02*
X50045579Y76477905D01*
X50045579Y76477905D02*
X50093199Y76525524D01*
X50093199Y76525524D02*
X50140818Y76620762D01*
X50140818Y76620762D02*
X50140818Y76858857D01*
X50140818Y76858857D02*
X50093199Y76954095D01*
X50093199Y76954095D02*
X50045579Y77001714D01*
X39441333Y29755181D02*
X39441333Y29040896D01*
X39441333Y29040896D02*
X39488952Y28898039D01*
X39488952Y28898039D02*
X39584190Y28802800D01*
X39584190Y28802800D02*
X39727047Y28755181D01*
X39727047Y28755181D02*
X39822285Y28755181D01*
X38965142Y28755181D02*
X38965142Y29755181D01*
X38965142Y29755181D02*
X38584190Y29755181D01*
X38584190Y29755181D02*
X38488952Y29707562D01*
X38488952Y29707562D02*
X38441333Y29659943D01*
X38441333Y29659943D02*
X38393714Y29564705D01*
X38393714Y29564705D02*
X38393714Y29421848D01*
X38393714Y29421848D02*
X38441333Y29326610D01*
X38441333Y29326610D02*
X38488952Y29278991D01*
X38488952Y29278991D02*
X38584190Y29231372D01*
X38584190Y29231372D02*
X38965142Y29231372D01*
X37536571Y29421848D02*
X37536571Y28755181D01*
X37774666Y29802800D02*
X38012761Y29088515D01*
X38012761Y29088515D02*
X37393714Y29088515D01*
X32744580Y57888358D02*
X32792200Y57935977D01*
X32792200Y57935977D02*
X32839819Y58078834D01*
X32839819Y58078834D02*
X32839819Y58174072D01*
X32839819Y58174072D02*
X32792200Y58316929D01*
X32792200Y58316929D02*
X32696961Y58412167D01*
X32696961Y58412167D02*
X32601723Y58459786D01*
X32601723Y58459786D02*
X32411247Y58507405D01*
X32411247Y58507405D02*
X32268390Y58507405D01*
X32268390Y58507405D02*
X32077914Y58459786D01*
X32077914Y58459786D02*
X31982676Y58412167D01*
X31982676Y58412167D02*
X31887438Y58316929D01*
X31887438Y58316929D02*
X31839819Y58174072D01*
X31839819Y58174072D02*
X31839819Y58078834D01*
X31839819Y58078834D02*
X31887438Y57935977D01*
X31887438Y57935977D02*
X31935057Y57888358D01*
X32839819Y56935977D02*
X32839819Y57507405D01*
X32839819Y57221691D02*
X31839819Y57221691D01*
X31839819Y57221691D02*
X31982676Y57316929D01*
X31982676Y57316929D02*
X32077914Y57412167D01*
X32077914Y57412167D02*
X32125533Y57507405D01*
X31935057Y56555024D02*
X31887438Y56507405D01*
X31887438Y56507405D02*
X31839819Y56412167D01*
X31839819Y56412167D02*
X31839819Y56174072D01*
X31839819Y56174072D02*
X31887438Y56078834D01*
X31887438Y56078834D02*
X31935057Y56031215D01*
X31935057Y56031215D02*
X32030295Y55983596D01*
X32030295Y55983596D02*
X32125533Y55983596D01*
X32125533Y55983596D02*
X32268390Y56031215D01*
X32268390Y56031215D02*
X32839819Y56602643D01*
X32839819Y56602643D02*
X32839819Y55983596D01*
X40681008Y38849880D02*
X40748352Y38849880D01*
X40748352Y38849880D02*
X40883039Y38917224D01*
X40883039Y38917224D02*
X40950382Y38984567D01*
X40950382Y38984567D02*
X41017726Y39119254D01*
X41017726Y39119254D02*
X41017726Y39253941D01*
X41017726Y39253941D02*
X40984054Y39354956D01*
X40984054Y39354956D02*
X40883039Y39523315D01*
X40883039Y39523315D02*
X40782024Y39624330D01*
X40782024Y39624330D02*
X40613665Y39725346D01*
X40613665Y39725346D02*
X40512650Y39759017D01*
X40512650Y39759017D02*
X40377963Y39759017D01*
X40377963Y39759017D02*
X40243276Y39691674D01*
X40243276Y39691674D02*
X40175932Y39624330D01*
X40175932Y39624330D02*
X40108589Y39489643D01*
X40108589Y39489643D02*
X40108589Y39422300D01*
X40074917Y38109102D02*
X40478978Y38513163D01*
X40276947Y38311132D02*
X39569841Y39018239D01*
X39569841Y39018239D02*
X39738199Y38984567D01*
X39738199Y38984567D02*
X39872886Y38984567D01*
X39872886Y38984567D02*
X39973902Y39018239D01*
X39132108Y38580506D02*
X38694375Y38142773D01*
X38694375Y38142773D02*
X39199451Y38109101D01*
X39199451Y38109101D02*
X39098436Y38008086D01*
X39098436Y38008086D02*
X39064764Y37907071D01*
X39064764Y37907071D02*
X39064764Y37839727D01*
X39064764Y37839727D02*
X39098436Y37738712D01*
X39098436Y37738712D02*
X39266795Y37570353D01*
X39266795Y37570353D02*
X39367810Y37536682D01*
X39367810Y37536682D02*
X39435153Y37536682D01*
X39435153Y37536682D02*
X39536169Y37570353D01*
X39536169Y37570353D02*
X39738199Y37772384D01*
X39738199Y37772384D02*
X39771871Y37873399D01*
X39771871Y37873399D02*
X39771871Y37940743D01*
X35633307Y38915170D02*
X35633307Y38847826D01*
X35633307Y38847826D02*
X35700651Y38713139D01*
X35700651Y38713139D02*
X35767994Y38645796D01*
X35767994Y38645796D02*
X35902681Y38578452D01*
X35902681Y38578452D02*
X36037368Y38578452D01*
X36037368Y38578452D02*
X36138383Y38612124D01*
X36138383Y38612124D02*
X36306742Y38713139D01*
X36306742Y38713139D02*
X36407757Y38814154D01*
X36407757Y38814154D02*
X36508773Y38982513D01*
X36508773Y38982513D02*
X36542444Y39083528D01*
X36542444Y39083528D02*
X36542444Y39218215D01*
X36542444Y39218215D02*
X36475101Y39352902D01*
X36475101Y39352902D02*
X36407757Y39420246D01*
X36407757Y39420246D02*
X36273070Y39487589D01*
X36273070Y39487589D02*
X36205727Y39487589D01*
X34892529Y39521261D02*
X35296590Y39117200D01*
X35094559Y39319231D02*
X35801666Y40026337D01*
X35801666Y40026337D02*
X35767994Y39857979D01*
X35767994Y39857979D02*
X35767994Y39723292D01*
X35767994Y39723292D02*
X35801666Y39622276D01*
X35363933Y40464070D02*
X34892528Y40935475D01*
X34892528Y40935475D02*
X34488467Y39925322D01*
D14*
%TO.C,R2*%
X20688748Y77855000D02*
X21211252Y77855000D01*
X20688748Y76385000D02*
X21211252Y76385000D01*
%TO.C,JP5*%
X43500000Y21900000D02*
X45500000Y21900000D01*
X43500000Y19100000D02*
X43500000Y21900000D01*
X45500000Y21900000D02*
X45500000Y19100000D01*
X45500000Y19100000D02*
X43500000Y19100000D01*
%TO.C,C10*%
X15740748Y49757000D02*
X16263252Y49757000D01*
X15740748Y48287000D02*
X16263252Y48287000D01*
%TO.C,D2*%
X20540000Y90770000D02*
X20540000Y87470000D01*
X27550000Y90770000D02*
X20540000Y90770000D01*
X27550000Y87470000D02*
X20540000Y87470000D01*
%TO.C,C11*%
X36015387Y40542166D02*
X35645920Y40911633D01*
X37054834Y41581613D02*
X36685367Y41951080D01*
%TO.C,U3*%
X26950000Y85730000D02*
X27750000Y85730000D01*
X26950000Y82610000D02*
X27750000Y82610000D01*
X28550000Y85730000D02*
X27750000Y85730000D01*
X28550000Y82610000D02*
X27750000Y82610000D01*
X29050000Y85680000D02*
X28810000Y86010000D01*
X29290000Y86010000D01*
X29050000Y85680000D01*
G36*
X29050000Y85680000D02*
G01*
X28810000Y86010000D01*
X29290000Y86010000D01*
X29050000Y85680000D01*
G37*
%TO.C,JP1*%
X30750000Y79098600D02*
X32750000Y79098600D01*
X30750000Y76298600D02*
X30750000Y79098600D01*
X32750000Y79098600D02*
X32750000Y76298600D01*
X32750000Y76298600D02*
X30750000Y76298600D01*
%TO.C,C1*%
X11415000Y80046248D02*
X11415000Y80568752D01*
X12885000Y80046248D02*
X12885000Y80568752D01*
%TO.C,C19*%
X15361252Y19905000D02*
X14838748Y19905000D01*
X15361252Y18435000D02*
X14838748Y18435000D01*
%TO.C,U2*%
X4490000Y82480000D02*
X8250000Y82480000D01*
X4490000Y81220000D02*
X4490000Y82480000D01*
X4490000Y76920000D02*
X4490000Y75660000D01*
X4490000Y75660000D02*
X8250000Y75660000D01*
X9530000Y82380000D02*
X9290000Y82710000D01*
X9770000Y82710000D01*
X9530000Y82380000D01*
G36*
X9530000Y82380000D02*
G01*
X9290000Y82710000D01*
X9770000Y82710000D01*
X9530000Y82380000D01*
G37*
%TO.C,C2*%
X13223752Y77505000D02*
X12701248Y77505000D01*
X13223752Y76035000D02*
X12701248Y76035000D01*
%TO.C,R1*%
X28515000Y77481252D02*
X28515000Y76958748D01*
X29985000Y77481252D02*
X29985000Y76958748D01*
%TO.C,C14*%
X18280748Y55726000D02*
X18803252Y55726000D01*
X18280748Y54256000D02*
X18803252Y54256000D01*
%TO.C,C4*%
X47271000Y80870247D02*
X47271000Y81392753D01*
X48741000Y80870247D02*
X48741000Y81392753D01*
%TO.C,C18*%
X23165000Y35558748D02*
X23165000Y36081252D01*
X24635000Y35558748D02*
X24635000Y36081252D01*
%TO.C,C6*%
X33429752Y32231000D02*
X32907248Y32231000D01*
X33429752Y30761000D02*
X32907248Y30761000D01*
%TO.C,JP2*%
X34052000Y55210999D02*
X36052000Y55210999D01*
X34052000Y52410999D02*
X34052000Y55210999D01*
X36052000Y55210999D02*
X36052000Y52410999D01*
X36052000Y52410999D02*
X34052000Y52410999D01*
%TO.C,C7*%
X33442252Y34771000D02*
X32919748Y34771000D01*
X33442252Y33301000D02*
X32919748Y33301000D01*
%TO.C,C15*%
X16788748Y43155000D02*
X17311252Y43155000D01*
X16788748Y41685000D02*
X17311252Y41685000D01*
%TO.C,R3*%
X16481248Y5815000D02*
X17003752Y5815000D01*
X16481248Y4345000D02*
X17003752Y4345000D01*
%TO.C,L1*%
X11761252Y11930000D02*
X11238748Y11930000D01*
X11761252Y10510000D02*
X11238748Y10510000D01*
%TO.C,U1*%
X21215000Y50860000D02*
X21215000Y49910000D01*
X21215000Y40640000D02*
X21215000Y41590000D01*
X22165000Y50860000D02*
X21215000Y50860000D01*
X22165000Y40640000D02*
X21215000Y40640000D01*
X30485000Y50860000D02*
X31435000Y50860000D01*
X30485000Y40640000D02*
X31435000Y40640000D01*
X31435000Y50860000D02*
X31435000Y49910000D01*
X31435000Y40640000D02*
X31435000Y41590000D01*
X30955000Y39685000D02*
X30485000Y40025000D01*
X30954999Y40365000D01*
X30955000Y39685000D01*
G36*
X30955000Y39685000D02*
G01*
X30485000Y40025000D01*
X30954999Y40365000D01*
X30955000Y39685000D01*
G37*
%TO.C,F1*%
X18536252Y90830000D02*
X15763748Y90830000D01*
X18536252Y87410000D02*
X15763748Y87410000D01*
%TO.C,C16*%
X18280748Y52424000D02*
X18803252Y52424000D01*
X18280748Y50954000D02*
X18803252Y50954000D01*
%TO.C,C9*%
X28560752Y24789000D02*
X28038248Y24789000D01*
X28560752Y23319000D02*
X28038248Y23319000D01*
%TO.C,JP3*%
X9315596Y54770191D02*
X10729809Y56184404D01*
X10729809Y56184404D02*
X12709708Y54204505D01*
X11295495Y52790292D02*
X9315596Y54770191D01*
X12709708Y54204505D02*
X11295495Y52790292D01*
D11*
%TO.C,J6*%
X32045000Y90930000D02*
X32045000Y90780000D01*
X32045000Y88380000D02*
X32045000Y86980000D01*
X32345000Y91380000D02*
X32345000Y90930000D01*
X32345000Y90930000D02*
X32045000Y90930000D01*
X33395000Y85230000D02*
X34395000Y85230000D01*
X34395000Y85230000D02*
X34395000Y84805000D01*
X34395000Y84805000D02*
X35120000Y84805000D01*
X38995000Y85230000D02*
X37995000Y85230000D01*
X40045000Y90930000D02*
X40045000Y91380000D01*
X40345000Y90930000D02*
X40045000Y90930000D01*
X40345000Y90780000D02*
X40345000Y90930000D01*
X40345000Y86980000D02*
X40345000Y88380000D01*
D14*
%TO.C,D1*%
X13650000Y85020000D02*
X13650000Y78010000D01*
X13650000Y78010000D02*
X16950000Y78010000D01*
X16950000Y85020000D02*
X16950000Y78010000D01*
%TO.C,C8*%
X32051248Y24789000D02*
X32573752Y24789000D01*
X32051248Y23319000D02*
X32573752Y23319000D01*
%TO.C,U4*%
X40330200Y82595100D02*
X44090200Y82595101D01*
X40330200Y81335101D02*
X40330200Y82595100D01*
X40330200Y77035099D02*
X40330200Y75775100D01*
X40330200Y75775100D02*
X44090200Y75775099D01*
X45370200Y82495100D02*
X45130200Y82825100D01*
X45610200Y82825100D01*
X45370200Y82495100D01*
G36*
X45370200Y82495100D02*
G01*
X45130200Y82825100D01*
X45610200Y82825100D01*
X45370200Y82495100D01*
G37*
%TO.C,C3*%
X30515000Y81808748D02*
X30515000Y82331252D01*
X31985000Y81808748D02*
X31985000Y82331252D01*
%TO.C,C5*%
X47271000Y77477253D02*
X47271000Y76954747D01*
X48741000Y77477253D02*
X48741000Y76954747D01*
%TO.C,JP4*%
X40353834Y30222992D02*
X43153834Y30222992D01*
X40353834Y28222992D02*
X40353834Y30222992D01*
X43153834Y30222992D02*
X43153834Y28222992D01*
X43153834Y28222992D02*
X40353834Y28222992D01*
%TO.C,C12*%
X31650000Y54003753D02*
X31650000Y53481247D01*
X33120000Y54003753D02*
X33120000Y53481247D01*
%TO.C,C13*%
X36749010Y36645457D02*
X36379543Y36275990D01*
X37788457Y35606010D02*
X37418990Y35236543D01*
%TO.C,C17*%
X33828010Y37776543D02*
X33458543Y38146010D01*
X34867457Y38815990D02*
X34497990Y39185457D01*
%TD*%
M02*
