M48
; DRILL file {KiCad 8.0.8+1} date 2025-05-06T10:58:55+0000
; FORMAT={3:3/ absolute / metric / suppress leading zeros}
; #@! TF.CreationDate,2025-05-06T10:58:55+00:00
; #@! TF.GenerationSoftware,Kicad,Pcbnew,8.0.8+1
; #@! TF.FileFunction,Plated,1,2,PTH
FMAT,2
METRIC,TZ
; #@! TA.AperFunction,Plated,PTH,ViaDrill
T1C0.300
; #@! TA.AperFunction,Plated,PTH,ComponentDrill
T2C0.500
; #@! TA.AperFunction,Plated,PTH,ComponentDrill
T3C0.550
; #@! TA.AperFunction,Plated,PTH,ComponentDrill
T4C0.800
; #@! TA.AperFunction,Plated,PTH,ComponentDrill
T5C0.850
; #@! TA.AperFunction,Plated,PTH,ComponentDrill
T6C1.000
; #@! TA.AperFunction,Plated,PTH,ComponentDrill
T7C1.100
; #@! TA.AperFunction,Plated,PTH,ComponentDrill
T8C3.200
%
G90
G05
T1
X3250Y81920
X3250Y76270
X13050Y76770
X13500Y79270
X15952Y49022
X17000Y42420
X18492Y54991
X18492Y51689
X19050Y49276
X22064Y42230
X23900Y35720
X24579Y41402
X27600Y84170
X29337Y25400
X29579Y50153
X29900Y11320
X30650Y42470
X31250Y82020
X31275Y25367
X32385Y53792
X33274Y37719
X33693Y83401
X34163Y32766
X34250Y79500
X35561Y37085
X37119Y35976
X37200Y79500
X37600Y84320
X38227Y39370
X39116Y83439
X41021Y79185
X43180Y66167
X45720Y66167
X49212Y79185
T2
X30550Y34036
X30550Y31496
T4
X27940Y27178
X32820Y27178
T6
X3810Y62230
X3810Y59690
X3810Y57150
X3810Y54610
X3810Y52070
X3810Y49530
X3810Y46990
X3810Y44450
X3810Y41910
X3810Y39370
X3810Y36830
X3810Y34290
X3810Y31750
X3810Y29210
X3810Y26670
X3810Y24130
X6350Y73660
X6350Y71120
X6350Y62230
X6350Y59690
X6350Y57150
X6350Y54610
X6350Y52070
X6350Y49530
X6350Y46990
X6350Y44450
X6350Y41910
X6350Y39370
X6350Y36830
X6350Y34290
X6350Y31750
X6350Y29210
X6350Y26670
X6350Y24130
X6350Y16510
X6350Y13970
X8890Y73660
X8890Y71120
X8890Y16510
X8890Y13970
X10350Y87495
X10350Y84955
X11430Y73660
X11430Y71120
X11430Y16510
X11430Y13970
X13970Y73660
X13970Y71120
X13970Y16510
X13970Y13970
X16510Y73660
X16510Y71120
X16510Y16510
X16510Y13970
X19050Y73660
X19050Y71120
X19050Y16510
X19050Y13970
X19350Y84870
X19350Y82330
X19350Y79790
X21590Y73660
X21590Y71120
X21590Y16510
X21590Y13970
X21890Y84870
X21890Y82330
X21890Y79790
X24130Y73660
X24130Y71120
X24130Y16510
X24130Y13970
X26100Y80995
X26100Y78455
X26670Y73660
X26670Y71120
X26670Y16510
X26670Y13970
X26670Y2540
X29210Y73660
X29210Y71120
X29210Y16510
X29210Y13970
X29210Y2540
X31750Y73660
X31750Y71120
X31750Y16510
X31750Y13970
X31750Y2540
X34290Y73660
X34290Y71120
X34290Y16510
X34290Y13970
X34290Y2540
X36830Y73660
X36830Y71120
X36830Y16510
X36830Y13970
X36830Y2540
X39370Y73660
X39370Y71120
X39370Y16510
X39370Y13970
X39370Y2540
X41910Y73660
X41910Y71120
X41910Y16510
X41910Y13970
X44445Y62230
X44445Y59690
X44445Y57150
X44445Y54610
X44445Y52070
X44445Y49530
X44445Y46990
X44445Y44450
X44445Y41910
X44445Y39370
X44445Y36830
X44445Y34290
X44445Y31750
X44445Y29210
X44445Y26670
X44445Y24130
X44450Y73660
X44450Y71120
X44450Y16510
X44450Y13970
X44450Y10160
X46985Y62230
X46985Y59690
X46985Y57150
X46985Y54610
X46985Y52070
X46985Y49530
X46985Y46990
X46985Y44450
X46985Y41910
X46985Y39370
X46985Y36830
X46985Y34290
X46985Y31750
X46985Y29210
X46985Y26670
X46985Y24130
X46990Y10160
T7
X10450Y8330
X10450Y1830
X14950Y8330
X14950Y1830
X18070Y8330
X18070Y1830
X22570Y8330
X22570Y1830
T8
X5080Y86360
X5080Y5080
X45720Y86360
X45720Y5080
T3
G00X32320Y89905
M15
G01X32320Y89255
M16
G05
G00X40070Y89905
M15
G01X40070Y89255
M16
G05
T5
G00X32470Y86055
M15
G01X32470Y85505
M16
G05
G00X39920Y86055
M15
G01X39920Y85505
M16
G05
M30
